<svg width="22" height="18" viewBox="0 0 22 18" fill="none" xmlns="http://www.w3.org/2000/svg">
<g clip-path="url(#clip0_218_761)">
<path d="M22.0003 9.05497C22.0003 4.05322 17.0751 -0.00128174 11.0003 -0.00128174C4.92281 -0.000156738 -0.00244141 4.05322 -0.00244141 9.05609C-0.00244141 13.5752 4.02081 17.3215 9.27881 18.001V11.6728H6.48756V9.05609H9.28156V7.05922C9.28156 4.79009 10.9247 3.53684 13.4368 3.53684C14.6413 3.53684 15.8994 3.71347 15.8994 3.71347V5.94097H14.5121C13.1467 5.94097 12.7204 6.63959 12.7204 7.35622V9.05497H15.7702L15.2834 11.6717H12.7191V17.9998C17.9771 17.3203 22.0003 13.5741 22.0003 9.05497Z" fill="black"/>
</g>
<defs>
<clipPath id="clip0_218_761">
<rect width="22" height="18" fill="white"/>
</clipPath>
</defs>
</svg>
