<svg width="19" height="17" viewBox="0 0 19 17" fill="none" xmlns="http://www.w3.org/2000/svg">
<path d="M18.9572 13.327C18.7638 13.7564 17.9464 14.0719 16.4575 14.2919C16.3809 14.3903 16.3174 14.8105 16.216 15.1379C16.1557 15.3345 16.0074 15.4512 15.766 15.4512L15.7549 15.451C15.4063 15.451 15.0423 15.2983 14.3132 15.2983C13.329 15.2983 12.9898 15.5117 12.2256 16.0254C11.4155 16.5707 10.6384 17.0413 9.47855 16.9931C8.3042 17.0756 7.32529 16.396 6.77437 16.0253C6.00569 15.5081 5.66747 15.2984 4.68731 15.2984C3.98728 15.2984 3.54672 15.4651 3.24554 15.4651C2.94596 15.4651 2.82943 15.2912 2.78457 15.1458C2.68426 14.8212 2.62114 14.3948 2.54251 14.2936C1.77512 14.1802 0.0446829 13.8929 0.000597171 13.1581C-0.00474655 13.0657 0.0259193 12.9748 0.0867127 12.9026C0.147506 12.8305 0.234147 12.7822 0.330016 12.7671C2.91219 12.3626 4.07523 9.83922 4.12358 9.7321C4.12633 9.72589 4.12933 9.71995 4.13238 9.71391C4.27016 9.44772 4.301 9.22479 4.22378 9.05159C4.03637 8.63145 3.22658 8.48071 2.88588 8.35243C2.00583 8.02164 1.88337 7.64155 1.93543 7.38104C2.02587 6.9277 2.74163 6.64872 3.16011 6.83527C3.49109 6.98293 3.78514 7.05767 4.03392 7.05767C4.22029 7.05767 4.33867 7.01514 4.40353 6.98099C4.32772 5.7118 4.14002 3.89807 4.61457 2.88518C5.86786 0.210956 8.52425 0.00314331 9.30804 0.00314331C9.34307 0.00314331 9.64725 0 9.68321 0C11.6184 0 13.4778 0.945821 14.3858 2.88348C14.8599 3.89535 14.6734 5.70159 14.5971 6.98071C14.6558 7.01151 14.7588 7.0493 14.9162 7.05625C15.1536 7.04615 15.4289 6.97188 15.7352 6.83527C15.961 6.73475 16.2698 6.74835 16.4952 6.83732L16.4963 6.83767C16.8479 6.95722 17.0692 7.19845 17.0748 7.46881C17.0816 7.81305 16.7585 8.11036 16.1145 8.3524C16.0359 8.38189 15.9403 8.41085 15.8386 8.44158C15.475 8.55127 14.9257 8.71723 14.7767 9.05156C14.6995 9.22476 14.7301 9.44751 14.868 9.7137C14.8712 9.71963 14.8741 9.72578 14.8768 9.73189C14.9251 9.8389 16.0872 12.3617 18.6705 12.7669C18.909 12.8043 19.0848 13.0451 18.9572 13.327Z" fill="black"/>
</svg>
