<svg width="24" height="24" viewBox="0 0 24 24" fill="none" xmlns="http://www.w3.org/2000/svg">
<path d="M10.2684 21C10.4439 21.304 10.6964 21.5565 11.0004 21.732C11.3044 21.9075 11.6493 21.9999 12.0004 21.9999C12.3514 21.9999 12.6963 21.9075 13.0003 21.732C13.3043 21.5565 13.5568 21.304 13.7324 21M15.0004 7.99999H21.0004M18.0004 4.99999V11M20.0024 14.464C20.2299 14.7669 20.4764 15.0551 20.7404 15.327C20.8708 15.4703 20.9567 15.6485 20.9878 15.8398C21.0188 16.0311 20.9936 16.2273 20.9152 16.4045C20.8369 16.5817 20.7086 16.7324 20.5462 16.8381C20.3838 16.9438 20.1942 17.0001 20.0004 17H4.00036C3.80656 17.0001 3.61692 16.9438 3.45449 16.8381C3.29207 16.7324 3.16386 16.5817 3.08547 16.4045C3.00707 16.2273 2.98187 16.0311 3.01292 15.8398C3.04397 15.6485 3.12993 15.4703 3.26036 15.327C4.59036 13.956 6.00036 12.499 6.00036 7.99999C6.00048 6.97097 6.26524 5.95927 6.76921 5.06211C7.27319 4.16495 7.99943 3.41249 8.87815 2.87702C9.75687 2.34155 10.7585 2.04108 11.7869 2.00447C12.8153 1.96786 13.8358 2.19636 14.7504 2.66799" stroke="black" stroke-width="2" stroke-linecap="round" stroke-linejoin="round"/>
</svg>
