<svg width="66" height="44" viewBox="0 0 66 44" fill="none" xmlns="http://www.w3.org/2000/svg">
<path d="M33.0007 23.8333V38.5M33.0007 23.8333L22.0007 31.1667M33.0007 23.8333L44.0007 31.1667M11.0007 27.3148C8.95755 25.9232 7.41625 24.2398 6.49353 22.3922C5.57082 20.5446 5.29088 18.5813 5.67493 16.6509C6.05898 14.7205 7.09694 12.8737 8.7102 11.2503C10.3235 9.62696 12.4697 8.26964 14.9864 7.28117C17.503 6.29271 20.3241 5.69901 23.2359 5.54506C26.1477 5.3911 29.0739 5.68092 31.7928 6.39257C34.5117 7.10422 36.952 8.21903 38.929 9.65256C40.9059 11.0861 42.3675 12.8008 43.2032 14.6667H48.1257C50.7808 14.6665 53.3657 15.2356 55.4984 16.29C57.6311 17.3444 59.1986 18.8281 59.9693 20.522C60.74 22.2159 60.6731 24.0301 59.7783 25.6967C58.8836 27.3633 57.2086 28.7938 55.0007 29.777" stroke="black" stroke-width="3" stroke-linecap="round" stroke-linejoin="round"/>
</svg>
