<svg width="20" height="18" viewBox="0 0 20 18" fill="none" xmlns="http://www.w3.org/2000/svg">
<path d="M13.3332 7.5H14.9998M13.3332 10.5H14.9998M5.1415 11.25C5.31329 10.8105 5.63242 10.4298 6.05485 10.1606C6.47728 9.89128 6.98218 9.74665 7.49984 9.74665C8.0175 9.74665 8.52239 9.89128 8.94482 10.1606C9.36725 10.4298 9.68639 10.8105 9.85817 11.25M9.1665 8.25C9.1665 9.07843 8.42031 9.75 7.49984 9.75C6.57936 9.75 5.83317 9.07843 5.83317 8.25C5.83317 7.42157 6.57936 6.75 7.49984 6.75C8.42031 6.75 9.1665 7.42157 9.1665 8.25ZM3.33317 3.75H16.6665C17.587 3.75 18.3332 4.42157 18.3332 5.25V12.75C18.3332 13.5784 17.587 14.25 16.6665 14.25H3.33317C2.4127 14.25 1.6665 13.5784 1.6665 12.75V5.25C1.6665 4.42157 2.4127 3.75 3.33317 3.75Z" stroke="white" stroke-width="2" stroke-linecap="round" stroke-linejoin="round"/>
</svg>
