<svg width="25" height="25" viewBox="0 0 25 25" fill="none" xmlns="http://www.w3.org/2000/svg">
<g clip-path="url(#clip0_182_2907)">
<path d="M20.0184 13.0328C20.0102 18.0328 16.5061 20.527 12.3437 21.9702C12.1257 22.0437 11.8891 22.0397 11.6737 21.9591C7.50608 20.5123 4.01019 18.0065 4.01838 13.0065L4.02986 6.00655C4.0303 5.74133 4.13607 5.48715 4.32391 5.29992C4.51176 5.11269 4.76628 5.00775 5.0315 5.00819C7.0315 5.01147 9.53346 3.81557 11.276 2.29842C11.4881 2.11777 11.7578 2.01876 12.0364 2.01922C12.3151 2.01968 12.5844 2.11957 12.7959 2.30092C14.5434 3.83378 17.0315 5.02786 19.0315 5.03114C19.2967 5.03158 19.5509 5.13735 19.7381 5.3252C19.9253 5.51304 20.0303 5.76757 20.0298 6.03278L20.0184 13.0328Z" stroke="#6366F1" stroke-width="3" stroke-linecap="round" stroke-linejoin="round"/>
</g>
<defs>
<clipPath id="clip0_182_2907">
<rect width="24" height="24" fill="white" transform="translate(0.0393507) rotate(0.0939429)"/>
</clipPath>
</defs>
</svg>
