<svg width="16" height="17" viewBox="0 0 16 17" fill="none" xmlns="http://www.w3.org/2000/svg">
<path d="M7.99984 1.41632C7.81407 1.41632 7.63441 1.48676 7.49317 1.61497C6.33317 2.69164 4.6665 3.54164 3.33317 3.54164C3.15636 3.54164 2.98679 3.61627 2.86177 3.74911C2.73674 3.88194 2.6665 4.06211 2.6665 4.24997V9.20831C2.6665 12.75 4.99984 14.5208 7.77984 15.5408C7.92353 15.5977 8.08128 15.6002 8.2265 15.5479C10.9998 14.5208 13.3332 12.75 13.3332 9.20831V4.24997C13.3332 4.06211 13.2629 3.88194 13.1379 3.74911C13.0129 3.61627 12.8433 3.54164 12.6665 3.54164C11.3332 3.54164 9.67317 2.69872 8.5065 1.61497C8.36527 1.48676 8.1856 1.41632 7.99984 1.41632ZM7.99984 1.41632V15.5833" stroke="white" stroke-width="2" stroke-linecap="round" stroke-linejoin="round"/>
</svg>
