<svg width="31" height="32" viewBox="0 0 31 32" fill="none" xmlns="http://www.w3.org/2000/svg">
<path d="M21.9583 18.6667H21.9712M9.04167 9.33333H24.5417C25.2268 9.33333 25.8839 9.61428 26.3684 10.1144C26.8528 10.6145 27.125 11.2928 27.125 12V25.3333C27.125 26.0406 26.8528 26.7189 26.3684 27.219C25.8839 27.719 25.2268 28 24.5417 28H6.45833C5.77319 28 5.11611 27.719 4.63164 27.219C4.14717 26.7189 3.875 26.0406 3.875 25.3333V6.66667C3.875 5.95942 4.14717 5.28115 4.63164 4.78105C5.11611 4.28095 5.77319 4 6.45833 4H24.5417" stroke="white" stroke-width="3" stroke-linecap="round" stroke-linejoin="round"/>
</svg>
