<svg width="270" height="215" viewBox="0 0 270 215" fill="none" xmlns="http://www.w3.org/2000/svg">
<g clip-path="url(#clip0_22_26)">
<path d="M99.8361 0H96.8406V215H99.8361V0Z" fill="#231F20"/>
<path d="M143.726 77.1277C144.605 78.002 144.65 76.9413 144.829 76.368C149.031 62.7943 150.939 48.3893 155.127 34.7727C159.091 33.626 163.189 33.97 167.139 35.0593L152.37 87.1753L151.103 88.0497C145.663 88.0783 136.334 90.3143 133.502 84.5237L119.136 35.518C123.681 34.0417 130.03 32.25 133.025 37.109C135.365 40.9073 139.017 56.5737 140.403 61.8197C140.999 64.0843 143.16 76.5543 143.726 77.1277Z" fill="#231F20"/>
<path d="M246.796 48.1313C263.532 45.8523 271.118 56.9463 269.881 71.681C268.823 84.2943 258.197 91.805 245.171 88.408C226.9 83.6493 227.839 50.7257 246.796 48.1313ZM247.63 58.05C244.098 61.146 242.548 82.5743 253.085 79.6217C257.824 78.2887 257.094 64.6433 255.931 61.0027C254.769 57.362 250.924 55.1547 247.63 58.05Z" fill="#231F20"/>
<path d="M201.058 72.4407H179.762C179.538 74.4187 180.537 77.4573 182.295 78.6183C187.407 82.0153 196.796 76.927 198.242 77.7297C198.972 78.1453 201.267 83.6063 201.103 84.581C189.344 91.8193 170.954 91.6473 167.452 76.11C164.859 64.586 167.854 48.9627 182.742 47.9737C198.748 46.913 204.903 58.8957 201.058 72.4407ZM190.134 64.1273C191.491 53.9363 178.659 53.8073 179.762 64.1273H190.134Z" fill="#231F20"/>
<path d="M228.286 79.2777C228.897 79.7507 229.18 87.204 228.882 87.505C220.089 88.2503 210.775 90.5867 209.776 79.4927C208.42 64.371 210.85 47.4433 209.776 32.121C209.478 29.6557 213.547 30.1573 215.529 30.3293C221.103 30.831 221.967 32.8377 222.385 37.84C223.398 50.2097 221.55 63.7977 222.399 76.3107C223.025 80.1663 227.198 78.432 228.286 79.2777Z" fill="#231F20"/>
<path d="M127.511 108.991H130.283V154.986H157.139V157.022H127.511V108.991Z" fill="#231F20"/>
<path d="M165.469 110.883C165.469 109.277 166.855 108.403 168.42 108.403C169.985 108.403 171.371 109.277 171.371 110.883C171.371 112.33 169.985 113.362 168.42 113.362C166.855 113.362 165.469 112.345 165.469 110.883ZM167.019 122.235H169.613V157.022H167.019V122.235Z" fill="#231F20"/>
<path d="M186.259 122.235H188.51L188.852 127.767H189.031C193.368 124.127 197.69 121.36 203.413 121.36C211.908 121.36 215.887 125.574 215.887 134.604V157.022H213.294V134.905C213.294 127.194 210.343 123.41 203.249 123.41C198.048 123.41 194.232 125.732 188.867 130.39V157.022H186.274V122.235H186.259Z" fill="#231F20"/>
<path d="M231.833 104.49H234.426V144.365H234.605L256.095 122.249H259.21L245.872 135.937L261.639 157.036H258.688L244.307 137.686L234.426 147.433V157.036H231.833V104.49Z" fill="#231F20"/>
<path d="M64.262 73.4727C64.7836 73.4727 65.2903 73.4583 65.7971 73.4727C66.259 73.5013 66.6614 73.5157 67.0638 73.53C67.4662 73.5587 67.8686 73.6303 68.3455 73.6447C69.7315 73.6733 69.8507 73.5587 70.2978 73.6733C70.581 73.745 70.8641 73.53 70.8641 73.2433C70.5661 58.7237 74.2471 45.8953 58.0027 33.5113C45.5735 24.037 26.4677 25.9863 15.9461 37.41C5.46918 48.7907 7.40658 53.621 7.37678 65.747C7.37678 66.65 8.18155 67.3667 9.13535 67.2807C11.5198 67.0513 15.6629 66.822 17.8984 66.7217C18.7181 66.6787 19.3887 66.048 19.4334 65.2597C19.8358 55.7567 16.6316 51.3993 25.8269 43.731C31.7881 38.7717 42.1607 37.582 49.031 41.3087C63.1741 48.977 58.4647 61.6763 59.2844 73.4727C59.8507 73.4727 60.4319 73.4727 61.0131 73.4727C61.5944 73.4727 62.1607 73.4727 62.7419 73.4727C63.2486 73.4727 63.7702 73.4727 64.2918 73.4727H64.262Z" fill="#231F20"/>
<path d="M71.3562 75.3503C70.2831 74.949 69.7913 74.8057 68.6289 74.6623C68.1669 74.605 67.7496 74.5763 67.3472 74.5477C66.9448 74.519 66.5424 74.519 66.0805 74.4903C65.5737 74.4617 65.0521 74.476 64.5454 74.4903C64.0387 74.5047 63.5171 74.519 62.9955 74.4903C62.4292 74.476 61.848 74.4903 61.2667 74.4903C60.6855 74.4903 60.1192 74.4903 59.538 74.4903C46.2742 74.2897 32.8763 74.304 19.6125 74.4903C18.5246 74.5047 17.4366 74.4617 16.3487 74.4903C15.4396 74.5047 14.5305 74.4473 13.6214 74.4903C12.6974 74.5333 11.6095 74.39 10.7153 74.4903C9.74662 74.5907 8.53947 75.0063 7.63038 75.3503C3.63634 76.8697 0.983584 80.5677 0.551393 84.6097C-1.2966 101.91 1.93738 122.177 0.551393 139.793C1.13261 144.982 5.17136 148.852 10.6259 149.396C28.6885 151.174 49.9404 148.063 68.3308 149.396C73.4575 148.823 77.541 145.354 78.4053 140.495V83.936C77.6602 80.0947 75.1863 76.8267 71.3264 75.379L71.3562 75.3503Z" fill="#231F20"/>
<path d="M43.1891 115.57C45.827 117.677 43.1444 120.586 39.5975 120.586C36.0505 120.586 30.0743 114.136 26.6466 118.064C24.0535 121.031 28.2115 123.797 31.52 125.144C32.429 125.517 34.7539 125.746 35.1265 126.176C36.2741 127.495 34.2025 130.104 39.6124 129.932C44.0088 129.788 42.6675 126.75 43.8448 126.004C44.9179 125.331 47.824 125.015 49.6124 123.611C54.2174 120.013 53.517 113.649 47.6898 110.954C44.2472 109.363 32.9059 108.919 35.4246 105.35C38.3903 101.165 44.5155 106.554 47.1086 106.611C50.1191 106.697 51.4752 104.504 50.6109 102.498C49.4484 99.7887 44.5602 99.6023 43.3381 98.642C42.1906 97.739 42.6079 95.202 38.6586 95.4887C34.8583 95.761 35.8419 97.868 34.3515 98.986C33.1742 99.8747 30.4618 100.233 28.748 101.867C25.3799 105.078 26.1846 110.467 31.207 112.431C34.1876 113.592 41.3858 114.122 43.1891 115.57Z" fill="white"/>
</g>
<defs>
<clipPath id="clip0_22_26">
<rect width="270" height="215" fill="white"/>
</clipPath>
</defs>
</svg>
