<svg width="176" height="249" viewBox="0 0 176 249" fill="none" xmlns="http://www.w3.org/2000/svg">
<path d="M143.518 93.3346C144.686 93.3346 145.817 93.3027 146.948 93.3346C147.97 93.3983 148.882 93.3983 149.758 93.4621C150.67 93.494 151.546 93.6853 152.605 93.6853C155.706 93.7491 155.962 93.5259 156.947 93.7491C157.604 93.9085 158.224 93.4621 158.224 92.8881C157.567 63.424 165.778 37.4037 129.505 12.2763C101.771 -6.9838 59.1116 -3.02973 35.6107 20.1525C12.2192 43.2392 16.5618 53.0605 16.4888 77.6459C16.4888 79.4953 18.3134 80.9303 20.3935 80.7709C25.7213 80.3244 34.9538 79.8461 39.9532 79.6229C41.7779 79.5591 43.3105 78.2517 43.3835 76.6574C44.2593 57.3654 37.1069 48.5325 57.6519 32.9714C70.9716 22.8949 94.1076 20.5033 109.471 28.0607C141.073 43.6218 130.527 69.387 132.351 93.3027C133.629 93.3027 134.906 93.3027 136.22 93.3027C137.533 93.3027 138.774 93.3027 140.051 93.3027C141.182 93.3027 142.35 93.3027 143.481 93.3027L143.518 93.3346Z" fill="#231F20"/>
<path d="M159.356 97.1613C156.947 96.3322 155.889 96.0771 153.262 95.7582C152.203 95.6307 151.327 95.5669 150.415 95.535C149.503 95.5031 148.627 95.4712 147.605 95.4075C146.474 95.3437 145.306 95.3756 144.175 95.4075C143.044 95.4394 141.876 95.4394 140.745 95.4075C139.468 95.4075 138.19 95.4075 136.913 95.4075C135.636 95.4075 134.359 95.4075 133.045 95.4075C103.413 94.9929 73.5262 95.0248 43.8946 95.4075C41.4861 95.4075 39.0411 95.3437 36.5961 95.4075C34.5891 95.4394 32.5455 95.3118 30.5019 95.4075C28.4219 95.5031 26.0134 95.2161 24.0063 95.4075C21.8533 95.6307 19.1529 96.4598 17.1093 97.1613C8.20524 100.254 2.25702 107.748 1.30823 115.943C-2.81539 151.051 4.41006 192.154 1.30823 227.9C2.62194 238.423 11.6355 246.3 23.7874 247.384C64.1112 250.987 111.588 244.673 152.641 247.384C164.1 246.236 173.186 239.189 175.12 229.303V114.54C173.478 106.759 167.931 100.127 159.319 97.1613H159.356Z" fill="#231F20"/>
<path d="M96.4437 178.762C102.319 183.034 96.3707 188.934 88.4154 188.934C80.4601 188.934 67.1769 175.86 59.4771 183.832C53.6748 189.827 62.9804 195.471 70.3883 198.181C72.4318 198.914 77.6137 199.393 78.453 200.254C81.0075 202.932 76.4095 208.226 88.4519 207.875C98.2683 207.588 95.2759 201.434 97.9033 199.903C100.275 198.532 106.771 197.894 110.785 195.056C121.039 187.754 119.507 174.839 106.515 169.387C98.8156 166.166 73.4901 165.273 79.1464 158.003C85.7515 149.521 99.436 160.426 105.238 160.586C111.953 160.745 114.982 156.281 113.048 152.231C110.457 146.715 99.509 146.364 96.8086 144.419C94.2176 142.569 95.1664 137.435 86.3353 138.041C77.8691 138.615 80.0587 142.856 76.7014 145.152C74.074 146.97 68.0163 147.671 64.1846 150.987C56.6672 157.493 58.4553 168.43 69.6949 172.416C76.3365 174.776 92.4295 175.86 96.4801 178.793L96.4437 178.762Z" fill="white"/>
</svg>
