<?xml version="1.0" encoding="UTF-8"?>
<svg id="Layer_2" data-name="Layer 2" xmlns="http://www.w3.org/2000/svg" viewBox="0 0 48 77.93">
  <defs>
    <style>
      .cls-1 {
        fill: #231f20;
      }

      .cls-2 {
        fill: #fff;
      }
    </style>
  </defs>
  <g id="Layer_1-2" data-name="Layer 1">
    <g>
      <path class="cls-1" d="M39.33,29.27c.32,0,.63-.01.94,0,.28.02.53.02.77.04.25.01.49.07.78.07.85.02.92-.05,1.19.02.18.05.35-.09.35-.27-.18-9.24,2.07-17.4-7.87-25.28C27.89-2.19,16.2-.95,9.76,6.32c-6.41,7.24-5.22,10.32-5.24,18.03,0,.58.5,1.03,1.07.98,1.46-.14,3.99-.29,5.36-.36.5-.02.92-.43.94-.93.24-6.05-1.72-8.82,3.91-13.7,3.65-3.16,9.99-3.91,14.2-1.54,8.66,4.88,5.77,12.96,6.27,20.46.35,0,.7,0,1.06,0s.7,0,1.05,0c.31,0,.63,0,.94,0Z"/>
      <path class="cls-1" d="M43.67,30.47c-.66-.26-.95-.34-1.67-.44-.29-.04-.53-.06-.78-.07s-.49-.02-.77-.04c-.31-.02-.63-.01-.94,0s-.63.01-.94,0c-.35,0-.7,0-1.05,0s-.7,0-1.06,0c-8.12-.13-16.31-.12-24.43,0-.66,0-1.33-.02-2,0-.55.01-1.11-.03-1.67,0-.57.03-1.23-.06-1.78,0-.59.07-1.33.33-1.89.55-2.44.97-4.07,3.32-4.33,5.89-1.13,11.01.85,23.9,0,35.11.36,3.3,2.83,5.77,6.16,6.11,11.05,1.13,24.06-.85,35.31,0,3.14-.36,5.63-2.57,6.16-5.67v-35.99c-.45-2.44-1.97-4.52-4.33-5.45Z"/>
      <path class="cls-2" d="M26.43,56.06c1.61,1.34-.02,3.19-2.2,3.19s-5.82-4.1-7.93-1.6c-1.59,1.88.96,3.65,2.99,4.5.56.23,1.98.38,2.21.65.7.84-.56,2.5,2.74,2.39,2.69-.09,1.87-2.02,2.59-2.5.65-.43,2.43-.63,3.53-1.52,2.81-2.29,2.39-6.34-1.17-8.05-2.11-1.01-9.05-1.29-7.5-3.57,1.81-2.66,5.56.76,7.15.81,1.84.05,2.67-1.35,2.14-2.62-.71-1.73-3.71-1.84-4.45-2.45-.71-.58-.45-2.19-2.87-2-2.32.18-1.72,1.51-2.64,2.23-.72.57-2.38.79-3.43,1.83-2.06,2.04-1.57,5.47,1.51,6.72,1.82.74,6.23,1.08,7.34,2Z"/>
    </g>
  </g>
</svg>