<?xml version="1.0" encoding="UTF-8"?>
<svg id="Layer_2" data-name="Layer 2" xmlns="http://www.w3.org/2000/svg" viewBox="0 0 400 87.15">
  <defs>
    <style>
      .cls-1 {
        fill: #231f20;
      }
    </style>
  </defs>
  <g id="Layer_1-2" data-name="Layer 1">
    <g id="TXT">
      <path class="cls-1" d="M34.88,69.29c1.25,1.29,1.32-.28,1.57-1.12,5.96-20.03,8.67-41.28,14.6-61.36,5.62-1.68,11.45-1.17,17.04.42l-20.95,76.9-1.8,1.28c-7.72.04-20.95,3.34-24.97-5.2L0,7.91c6.46-2.18,15.46-4.82,19.7,2.35,3.32,5.61,8.51,28.71,10.46,36.45.84,3.35,3.91,21.74,4.72,22.58Z"/>
      <path class="cls-1" d="M181.13,26.52c23.75-3.37,34.5,13,32.76,34.74-1.5,18.6-16.58,29.69-35.05,24.68-25.93-7.03-24.6-55.61,2.3-59.42ZM182.33,41.14c-5.01,4.58-7.2,36.18,7.74,31.83,6.73-1.96,5.68-22.11,4.05-27.47-1.68-5.52-7.11-8.62-11.78-4.35Z"/>
      <path class="cls-1" d="M116.23,62.39h-30.22c-.32,2.92,1.11,7.4,3.59,9.11,7.26,5.01,20.57-2.5,22.62-1.3,1.05.61,4.29,8.66,4.07,10.11-16.68,10.68-42.78,10.42-47.75-12.51-3.69-17.01.57-40.04,21.7-41.51,22.7-1.57,31.44,16.12,25.99,36.1ZM100.73,50.11c1.92-15.04-16.29-15.22-14.72,0h14.72Z"/>
      <path class="cls-1" d="M154.86,72.47c.87.71,1.27,11.69.84,12.13-12.47,1.09-25.69,4.55-27.11-11.83-1.93-22.32,1.53-47.29-.01-69.89-.43-3.64,5.36-2.9,8.17-2.64,7.91.75,9.14,3.71,9.72,11.09,1.44,18.26-1.18,38.3.02,56.76.89,5.69,6.81,3.12,8.36,4.38Z"/>
      <g>
        <path class="cls-1" d="M233.78,14.8h3.44v67.85h33.28v3.01h-36.72V14.8Z"/>
        <path class="cls-1" d="M280.82,17.6c0-2.36,1.72-3.65,3.65-3.65s3.65,1.29,3.65,3.65c0,2.15-1.72,3.65-3.65,3.65s-3.65-1.5-3.65-3.65ZM282.75,34.34h3.22v51.32h-3.22v-51.32Z"/>
        <path class="cls-1" d="M306.58,34.34h2.79l.43,8.16h.22c5.37-5.37,10.74-9.45,17.82-9.45,10.52,0,15.46,6.23,15.46,19.54v33.07h-3.22v-32.64c0-11.38-3.65-16.96-12.45-16.96-6.44,0-11.17,3.44-17.82,10.31v39.3h-3.22v-51.32Z"/>
        <path class="cls-1" d="M363.07,8.15h3.22v58.84h.21l26.63-32.64h3.87l-16.54,20.19,19.54,31.14h-3.65l-17.82-28.56-12.24,14.39v14.17h-3.22V8.15Z"/>
      </g>
    </g>
  </g>
</svg>