<?xml version="1.0" encoding="UTF-8"?>
<svg id="Layer_2" data-name="Layer 2" xmlns="http://www.w3.org/2000/svg" viewBox="0 0 394.11 150">
  <defs>
    <style>
      .cls-1 {
        fill: #231f20;
      }

      .cls-2 {
        fill: #fff;
      }
    </style>
  </defs>
  <g id="Layer_1-2" data-name="Layer 1">
    <g>
      <g id="W_B" data-name="W/B">
        <path class="cls-2" d="M102.99,96.9c.99,1.12,1.05-.24,1.25-.97,4.75-17.33,6.91-35.71,11.64-53.08,4.48-1.46,9.13-1.02,13.59.36l-16.7,66.52-1.44,1.11c-6.16.04-16.71,2.89-19.91-4.5l-16.25-62.54c5.15-1.88,12.32-4.17,15.71,2.03,2.65,4.85,6.78,24.84,8.34,31.53.67,2.9,3.12,18.81,3.76,19.53Z"/>
        <path class="cls-2" d="M219.6,59.91c18.94-2.92,27.51,11.24,26.12,30.05-1.19,16.09-13.22,25.68-27.95,21.35-20.68-6.08-19.61-48.1,1.83-51.4ZM220.56,72.55c-3.99,3.96-5.74,31.3,6.17,27.53,5.36-1.7,4.53-19.12,3.23-23.76s-5.67-7.46-9.4-3.76Z"/>
        <path class="cls-2" d="M167.85,90.93h-24.09c-.25,2.53.88,6.4,2.86,7.88,5.79,4.33,16.4-2.16,18.03-1.13.83.53,3.42,7.49,3.24,8.74-13.3,9.24-34.11,9.02-38.07-10.82-2.94-14.71.45-34.64,17.3-35.9,18.1-1.36,25.07,13.94,20.72,31.22ZM155.5,80.31c1.53-13.01-12.99-13.17-11.74,0h11.74Z"/>
        <path class="cls-2" d="M198.66,99.65c.7.61,1.02,10.11.67,10.49-9.95.95-20.48,3.93-21.61-10.23-1.54-19.3,1.22-40.9,0-60.45-.34-3.14,4.27-2.51,6.51-2.28,6.31.64,7.29,3.21,7.75,9.59,1.15,15.79-.94,33.13.02,49.09.71,4.92,5.43,2.7,6.67,3.79Z"/>
        <rect class="cls-2" x="62.21" width="1.85" height="150"/>
        <g>
          <path class="cls-2" d="M261.58,49.77h2.74v58.69h26.54v2.6h-29.28v-61.29Z"/>
          <path class="cls-2" d="M299.08,52.19c0-2.04,1.37-3.16,2.91-3.16s2.91,1.11,2.91,3.16c0,1.86-1.37,3.16-2.91,3.16s-2.91-1.3-2.91-3.16ZM300.62,66.67h2.57v44.39h-2.57v-44.39Z"/>
          <path class="cls-2" d="M319.63,66.67h2.23l.34,7.06h.17c4.28-4.64,8.56-8.17,14.21-8.17,8.39,0,12.33,5.39,12.33,16.9v28.6h-2.57v-28.23c0-9.84-2.91-14.67-9.93-14.67-5.14,0-8.9,2.97-14.21,8.92v33.99h-2.57v-44.39Z"/>
          <path class="cls-2" d="M364.66,44.02h2.57v50.89h.17l21.23-28.23h3.08l-13.18,17.46,15.58,26.93h-2.91l-14.21-24.7-9.76,12.44v12.26h-2.57V44.02Z"/>
        </g>
      </g>
      <g>
        <path class="cls-2" d="M40.17,68.94c.32,0,.65-.01.96,0,.29.02.54.02.79.04.25.01.5.07.8.07.87.02.94-.06,1.22.02.18.05.36-.09.35-.28-.19-9.44,2.11-17.78-8.03-25.82-7.77-6.16-19.71-4.89-26.28,2.53s-5.34,10.54-5.35,18.42c0,.59.51,1.05,1.09,1,1.49-.15,4.08-.3,5.48-.36.52-.02.93-.44.96-.95.25-6.18-1.75-9.01,4-13.99,3.73-3.23,10.21-3.99,14.5-1.57,8.84,4.99,5.9,13.24,6.4,20.9.36,0,.72,0,1.08,0s.72,0,1.08,0c.32,0,.64,0,.96,0Z"/>
        <path class="cls-2" d="M44.6,70.16c-.67-.26-.98-.35-1.7-.45-.29-.04-.55-.06-.8-.07s-.5-.02-.79-.04c-.32-.02-.64-.01-.96,0s-.65.02-.96,0c-.36,0-.72,0-1.08,0s-.72,0-1.08,0c-8.29-.13-16.66-.12-24.95,0-.68.01-1.36-.02-2.04,0-.56.01-1.14-.03-1.7,0-.58.03-1.26-.06-1.81,0-.6.07-1.36.34-1.93.56-2.49.99-4.15,3.39-4.42,6.01-1.15,11.25.87,24.42,0,35.86.37,3.37,2.89,5.89,6.3,6.24,11.29,1.16,24.58-.87,36.07,0,3.21-.37,5.76-2.63,6.3-5.79v-36.76c-.46-2.5-2.01-4.62-4.42-5.56Z"/>
        <path class="cls-1" d="M26.99,96.3c1.65,1.37-.03,3.26-2.24,3.26s-5.95-4.19-8.1-1.64c-1.62,1.92.98,3.73,3.05,4.6.57.24,2.02.39,2.25.67.72.86-.57,2.55,2.8,2.44,2.75-.1,1.91-2.07,2.64-2.55.67-.44,2.48-.64,3.6-1.55,2.87-2.34,2.44-6.48-1.2-8.23-2.15-1.04-9.24-1.32-7.66-3.64,1.85-2.72,5.68.78,7.3.82,1.88.05,2.73-1.37,2.19-2.68-.73-1.76-3.79-1.88-4.55-2.5-.72-.59-.45-2.23-2.93-2.05-2.37.18-1.76,1.55-2.69,2.27-.74.58-2.43.81-3.5,1.87-2.1,2.08-1.61,5.59,1.54,6.87,1.86.76,6.36,1.1,7.49,2.04Z"/>
      </g>
    </g>
  </g>
</svg>