<?xml version="1.0" encoding="UTF-8"?>
<svg id="Layer_2" data-name="Layer 2" xmlns="http://www.w3.org/2000/svg" viewBox="0 0 181.17 150">
  <defs>
    <style>
      .cls-1 {
        fill: #231f20;
      }

      .cls-2 {
        fill: #fff;
      }
    </style>
  </defs>
  <g id="Layer_1-2" data-name="Layer 1">
    <g>
      <g id="horizontal_W_B_" data-name="horizontal(W/B)">
        <rect class="cls-2" x="64.98" width="2.01" height="150"/>
        <g>
          <g>
            <path class="cls-2" d="M96.44,53.81c.59.61.62-.13.74-.53,2.82-9.47,4.1-19.52,6.91-29.02,2.66-.8,5.41-.56,8.06.2l-9.91,36.36-.85.61c-3.65.02-9.91,1.58-11.81-2.46l-9.64-34.19c3.05-1.03,7.31-2.28,9.32,1.11,1.57,2.65,4.02,13.58,4.95,17.24.4,1.58,1.85,10.28,2.23,10.68Z"/>
            <path class="cls-2" d="M165.6,33.58c11.23-1.59,16.32,6.15,15.49,16.43-.71,8.8-7.84,14.04-16.58,11.67-12.26-3.32-11.63-26.29,1.09-28.1ZM166.16,40.5c-2.37,2.16-3.41,17.11,3.66,15.05,3.18-.93,2.69-10.45,1.91-12.99s-3.36-4.08-5.57-2.06Z"/>
            <path class="cls-2" d="M134.91,50.54h-14.29c-.15,1.38.52,3.5,1.7,4.31,3.43,2.37,9.73-1.18,10.7-.62.49.29,2.03,4.1,1.92,4.78-7.89,5.05-20.23,4.93-22.58-5.91-1.74-8.04.27-18.94,10.26-19.63,10.74-.74,14.87,7.62,12.29,17.07ZM127.58,44.74c.91-7.11-7.7-7.2-6.96,0h6.96Z"/>
            <path class="cls-2" d="M153.18,55.31c.41.33.6,5.53.4,5.74-5.9.52-12.15,2.15-12.82-5.59-.91-10.55.72-22.36,0-33.05-.2-1.72,2.53-1.37,3.86-1.25,3.74.35,4.32,1.75,4.6,5.24.68,8.63-.56,18.11.01,26.84.42,2.69,3.22,1.48,3.95,2.07Z"/>
          </g>
          <g>
            <path class="cls-2" d="M85.56,76.04h1.86v32.09h18.02v1.42h-19.88v-33.51Z"/>
            <path class="cls-2" d="M111.03,77.36c0-1.12.93-1.73,1.98-1.73s1.98.61,1.98,1.73c0,1.01-.93,1.73-1.98,1.73s-1.98-.71-1.98-1.73ZM112.07,85.28h1.74v24.27h-1.74v-24.27Z"/>
            <path class="cls-2" d="M124.98,85.28h1.51l.23,3.86h.12c2.91-2.54,5.81-4.47,9.65-4.47,5.7,0,8.37,2.94,8.37,9.24v15.64h-1.74v-15.43c0-5.38-1.98-8.02-6.74-8.02-3.49,0-6.05,1.62-9.65,4.87v18.58h-1.74v-24.27Z"/>
            <path class="cls-2" d="M155.56,72.9h1.74v27.82h.12l14.42-15.43h2.09l-8.95,9.55,10.58,14.72h-1.98l-9.65-13.5-6.63,6.8v6.7h-1.74v-36.66Z"/>
          </g>
        </g>
      </g>
      <g>
        <path class="cls-2" d="M43.12,51.26c.35,0,.69-.01,1.03,0,.31.02.58.03.85.04.27.02.54.07.86.08.93.02,1.01-.06,1.31.02.19.05.38-.1.38-.3-.2-10.13,2.27-19.08-8.63-27.72-8.34-6.61-21.16-5.25-28.22,2.72-7.03,7.94-5.73,11.31-5.75,19.77,0,.63.54,1.13,1.18,1.07,1.6-.16,4.38-.32,5.88-.39.55-.03,1-.47,1.03-1.02.27-6.63-1.88-9.67,4.29-15.02,4-3.46,10.96-4.29,15.57-1.69,9.49,5.35,6.33,14.21,6.88,22.44.38,0,.77,0,1.16,0s.77,0,1.16,0c.34,0,.69,0,1.04,0Z"/>
        <path class="cls-2" d="M47.88,52.57c-.72-.28-1.05-.38-1.83-.48-.31-.04-.59-.06-.86-.08s-.54-.02-.85-.04c-.34-.02-.69-.01-1.03,0s-.69.02-1.04,0c-.38-.01-.77,0-1.16,0s-.77,0-1.16,0c-8.9-.14-17.89-.13-26.79,0-.73.01-1.46-.02-2.19,0-.61.01-1.22-.03-1.83,0-.62.03-1.35-.07-1.95,0-.65.07-1.46.36-2.07.6-2.68,1.06-4.46,3.64-4.75,6.46-1.24,12.07.93,26.21,0,38.5.39,3.62,3.1,6.32,6.76,6.7,12.12,1.24,26.38-.93,38.72,0,3.44-.4,6.18-2.82,6.76-6.21v-39.46c-.5-2.68-2.16-4.96-4.75-5.97Z"/>
        <path class="cls-1" d="M28.98,80.63c1.77,1.47-.03,3.5-2.41,3.5s-6.39-4.5-8.69-1.76c-1.74,2.07,1.05,4,3.27,4.94.61.26,2.17.42,2.42.72.77.92-.62,2.74,3.01,2.62,2.95-.1,2.05-2.22,2.84-2.74.72-.47,2.67-.69,3.87-1.67,3.09-2.51,2.62-6.95-1.29-8.83-2.31-1.11-9.92-1.42-8.23-3.91,1.99-2.92,6.1.84,7.84.88,2.02.06,2.93-1.47,2.35-2.87-.78-1.89-4.06-2.02-4.88-2.69-.77-.63-.49-2.4-3.14-2.2-2.55.19-1.89,1.66-2.89,2.44-.79.62-2.61.87-3.76,2.01-2.26,2.24-1.72,6,1.65,7.37,2,.81,6.83,1.18,8.04,2.19Z"/>
      </g>
    </g>
  </g>
</svg>