<svg width="352" height="48" viewBox="0 0 352 48" fill="none" xmlns="http://www.w3.org/2000/svg">
<path d="M343.344 0C347.762 4.89534e-06 351.344 3.58173 351.344 8V40C351.344 44.4183 347.762 48 343.344 48H8C3.58173 48 1.28856e-07 44.4183 0 40V8C5.15422e-07 3.58172 3.58172 0 8 0H343.344Z" fill="#2563EB"/>
<path d="M343.344 0C347.762 4.89534e-06 351.344 3.58173 351.344 8V40C351.344 44.4183 347.762 48 343.344 48H8C3.58173 48 1.28856e-07 44.4183 0 40V8C5.15422e-07 3.58172 3.58172 0 8 0H343.344Z" stroke="#E5E7EB"/>
<path d="M105.587 29H103.337L107.434 17.3636H110.036L114.138 29H111.888L108.781 19.75H108.69L105.587 29ZM105.661 24.4375H111.798V26.1307H105.661V24.4375ZM119.121 29.1705C118.25 29.1705 117.502 28.9792 116.877 28.5966C116.256 28.214 115.777 27.6856 115.44 27.0114C115.106 26.3333 114.94 25.553 114.94 24.6705C114.94 23.7841 115.11 23.0019 115.451 22.3239C115.792 21.642 116.273 21.1117 116.894 20.733C117.519 20.3504 118.258 20.1591 119.11 20.1591C119.818 20.1591 120.445 20.2898 120.991 20.5511C121.54 20.8087 121.978 21.1742 122.303 21.6477C122.629 22.1174 122.815 22.6667 122.86 23.2955H120.894C120.815 22.875 120.625 22.5246 120.326 22.2443C120.031 21.9602 119.635 21.8182 119.138 21.8182C118.718 21.8182 118.349 21.9318 118.031 22.1591C117.712 22.3826 117.464 22.7045 117.286 23.125C117.112 23.5455 117.025 24.0492 117.025 24.6364C117.025 25.2311 117.112 25.7424 117.286 26.1705C117.46 26.5947 117.705 26.9223 118.019 27.1534C118.337 27.3807 118.71 27.4943 119.138 27.4943C119.442 27.4943 119.712 27.4375 119.951 27.3239C120.193 27.2064 120.396 27.0379 120.559 26.8182C120.722 26.5985 120.834 26.3314 120.894 26.017H122.86C122.811 26.6345 122.629 27.1818 122.315 27.6591C122 28.1326 121.572 28.5038 121.031 28.7727C120.489 29.0379 119.853 29.1705 119.121 29.1705ZM128.356 29.1705C127.485 29.1705 126.737 28.9792 126.112 28.5966C125.49 28.214 125.011 27.6856 124.674 27.0114C124.341 26.3333 124.174 25.553 124.174 24.6705C124.174 23.7841 124.344 23.0019 124.685 22.3239C125.026 21.642 125.507 21.1117 126.129 20.733C126.754 20.3504 127.492 20.1591 128.344 20.1591C129.053 20.1591 129.68 20.2898 130.225 20.5511C130.774 20.8087 131.212 21.1742 131.538 21.6477C131.863 22.1174 132.049 22.6667 132.094 23.2955H130.129C130.049 22.875 129.86 22.5246 129.56 22.2443C129.265 21.9602 128.869 21.8182 128.373 21.8182C127.952 21.8182 127.583 21.9318 127.265 22.1591C126.947 22.3826 126.699 22.7045 126.521 23.125C126.346 23.5455 126.259 24.0492 126.259 24.6364C126.259 25.2311 126.346 25.7424 126.521 26.1705C126.695 26.5947 126.939 26.9223 127.254 27.1534C127.572 27.3807 127.945 27.4943 128.373 27.4943C128.676 27.4943 128.947 27.4375 129.185 27.3239C129.428 27.2064 129.63 27.0379 129.793 26.8182C129.956 26.5985 130.068 26.3314 130.129 26.017H132.094C132.045 26.6345 131.863 27.1818 131.549 27.6591C131.235 28.1326 130.807 28.5038 130.265 28.7727C129.723 29.0379 129.087 29.1705 128.356 29.1705ZM137.647 29.1705C136.772 29.1705 136.016 28.9886 135.38 28.625C134.747 28.2576 134.261 27.7386 133.92 27.0682C133.579 26.3939 133.408 25.6004 133.408 24.6875C133.408 23.7898 133.579 23.0019 133.92 22.3239C134.264 21.642 134.746 21.1117 135.363 20.733C135.98 20.3504 136.706 20.1591 137.539 20.1591C138.077 20.1591 138.585 20.2462 139.062 20.4205C139.543 20.5909 139.967 20.8561 140.335 21.2159C140.706 21.5758 140.997 22.0341 141.21 22.5909C141.422 23.1439 141.528 23.803 141.528 24.5682V25.1989H134.374V23.8125H139.556C139.552 23.4186 139.467 23.0682 139.3 22.7614C139.134 22.4508 138.901 22.2064 138.602 22.0284C138.306 21.8504 137.961 21.7614 137.567 21.7614C137.147 21.7614 136.778 21.8636 136.46 22.0682C136.141 22.2689 135.893 22.5341 135.715 22.8636C135.541 23.1894 135.452 23.5473 135.448 23.9375V25.1477C135.448 25.6553 135.541 26.0909 135.727 26.4545C135.912 26.8144 136.172 27.0909 136.505 27.2841C136.838 27.4735 137.228 27.5682 137.675 27.5682C137.975 27.5682 138.246 27.5265 138.488 27.4432C138.73 27.3561 138.941 27.2292 139.119 27.0625C139.297 26.8958 139.431 26.6894 139.522 26.4432L141.442 26.6591C141.321 27.1667 141.09 27.6098 140.749 27.9886C140.412 28.3636 139.98 28.6553 139.454 28.8636C138.927 29.0682 138.325 29.1705 137.647 29.1705ZM143.268 32.2727V20.2727H145.29V21.7159H145.41C145.516 21.5038 145.665 21.2784 145.859 21.0398C146.052 20.7973 146.313 20.5909 146.643 20.4205C146.972 20.2462 147.393 20.1591 147.904 20.1591C148.578 20.1591 149.186 20.3314 149.728 20.6761C150.273 21.017 150.705 21.5227 151.023 22.1932C151.345 22.8598 151.506 23.678 151.506 24.6477C151.506 25.6061 151.349 26.4205 151.035 27.0909C150.72 27.7614 150.292 28.2727 149.751 28.625C149.209 28.9773 148.595 29.1534 147.91 29.1534C147.41 29.1534 146.995 29.0701 146.665 28.9034C146.336 28.7367 146.071 28.536 145.87 28.3011C145.673 28.0625 145.52 27.8371 145.41 27.625H145.325V32.2727H143.268ZM145.285 24.6364C145.285 25.2008 145.364 25.6951 145.523 26.1193C145.686 26.5436 145.919 26.875 146.222 27.1136C146.529 27.3485 146.9 27.4659 147.336 27.4659C147.79 27.4659 148.171 27.3447 148.478 27.1023C148.785 26.8561 149.016 26.5208 149.171 26.0966C149.33 25.6686 149.41 25.1818 149.41 24.6364C149.41 24.0947 149.332 23.6136 149.177 23.1932C149.022 22.7727 148.79 22.4432 148.484 22.2045C148.177 21.9659 147.794 21.8466 147.336 21.8466C146.897 21.8466 146.523 21.9621 146.217 22.1932C145.91 22.4242 145.677 22.7481 145.518 23.1648C145.362 23.5814 145.285 24.072 145.285 24.6364ZM157.626 20.2727V21.8636H152.609V20.2727H157.626ZM153.847 18.1818H155.904V26.375C155.904 26.6515 155.946 26.8636 156.029 27.0114C156.116 27.1553 156.23 27.2538 156.37 27.3068C156.51 27.3598 156.665 27.3864 156.836 27.3864C156.965 27.3864 157.082 27.3769 157.188 27.358C157.298 27.339 157.381 27.322 157.438 27.3068L157.785 28.9148C157.675 28.9527 157.518 28.9943 157.313 29.0398C157.112 29.0852 156.866 29.1117 156.575 29.1193C156.059 29.1345 155.595 29.0568 155.183 28.8864C154.77 28.7121 154.442 28.4432 154.2 28.0795C153.961 27.7159 153.844 27.2614 153.847 26.7159V18.1818ZM164.9 29H162.65L166.746 17.3636H169.349L173.451 29H171.201L168.093 19.75H168.002L164.9 29ZM164.974 24.4375H171.11V26.1307H164.974V24.4375ZM176.95 17.3636V29H174.893V17.3636H176.95ZM181.121 17.3636V29H179.065V17.3636H181.121ZM197.256 21.2898H195.131C195.071 20.9413 194.959 20.6326 194.796 20.3636C194.633 20.0909 194.431 19.8598 194.188 19.6705C193.946 19.4811 193.669 19.339 193.359 19.2443C193.052 19.1458 192.72 19.0966 192.364 19.0966C191.732 19.0966 191.171 19.2557 190.683 19.5739C190.194 19.8883 189.811 20.3504 189.535 20.9602C189.258 21.5663 189.12 22.3068 189.12 23.1818C189.12 24.072 189.258 24.822 189.535 25.4318C189.815 26.0379 190.198 26.4962 190.683 26.8068C191.171 27.1136 191.73 27.267 192.359 27.267C192.707 27.267 193.033 27.2216 193.336 27.1307C193.643 27.036 193.917 26.8977 194.16 26.7159C194.406 26.5341 194.612 26.3106 194.779 26.0455C194.95 25.7803 195.067 25.4773 195.131 25.1364L197.256 25.1477C197.177 25.7008 197.004 26.2197 196.739 26.7045C196.478 27.1894 196.135 27.6174 195.711 27.9886C195.287 28.3561 194.79 28.6439 194.222 28.8523C193.654 29.0568 193.023 29.1591 192.33 29.1591C191.308 29.1591 190.395 28.9223 189.592 28.4489C188.789 27.9754 188.156 27.2917 187.694 26.3977C187.232 25.5038 187.001 24.4318 187.001 23.1818C187.001 21.928 187.234 20.8561 187.7 19.9659C188.165 19.072 188.8 18.3883 189.603 17.9148C190.406 17.4413 191.315 17.2045 192.33 17.2045C192.978 17.2045 193.58 17.2955 194.137 17.4773C194.694 17.6591 195.19 17.9261 195.626 18.2784C196.061 18.6269 196.419 19.0549 196.7 19.5625C196.984 20.0663 197.169 20.642 197.256 21.2898ZM202.903 29.1705C202.05 29.1705 201.312 28.983 200.687 28.608C200.062 28.233 199.577 27.7083 199.232 27.0341C198.891 26.3598 198.721 25.572 198.721 24.6705C198.721 23.7689 198.891 22.9792 199.232 22.3011C199.577 21.6231 200.062 21.0966 200.687 20.7216C201.312 20.3466 202.05 20.1591 202.903 20.1591C203.755 20.1591 204.494 20.3466 205.119 20.7216C205.744 21.0966 206.227 21.6231 206.567 22.3011C206.912 22.9792 207.085 23.7689 207.085 24.6705C207.085 25.572 206.912 26.3598 206.567 27.0341C206.227 27.7083 205.744 28.233 205.119 28.608C204.494 28.983 203.755 29.1705 202.903 29.1705ZM202.914 27.5227C203.376 27.5227 203.763 27.3958 204.073 27.142C204.384 26.8845 204.615 26.5398 204.766 26.108C204.922 25.6761 204.999 25.1951 204.999 24.6648C204.999 24.1307 204.922 23.6477 204.766 23.2159C204.615 22.7803 204.384 22.4337 204.073 22.1761C203.763 21.9186 203.376 21.7898 202.914 21.7898C202.441 21.7898 202.047 21.9186 201.732 22.1761C201.422 22.4337 201.189 22.7803 201.033 23.2159C200.882 23.6477 200.806 24.1307 200.806 24.6648C200.806 25.1951 200.882 25.6761 201.033 26.108C201.189 26.5398 201.422 26.8845 201.732 27.142C202.047 27.3958 202.441 27.5227 202.914 27.5227ZM212.637 29.1705C211.785 29.1705 211.046 28.983 210.421 28.608C209.796 28.233 209.311 27.7083 208.967 27.0341C208.626 26.3598 208.455 25.572 208.455 24.6705C208.455 23.7689 208.626 22.9792 208.967 22.3011C209.311 21.6231 209.796 21.0966 210.421 20.7216C211.046 20.3466 211.785 20.1591 212.637 20.1591C213.489 20.1591 214.228 20.3466 214.853 20.7216C215.478 21.0966 215.961 21.6231 216.302 22.3011C216.647 22.9792 216.819 23.7689 216.819 24.6705C216.819 25.572 216.647 26.3598 216.302 27.0341C215.961 27.7083 215.478 28.233 214.853 28.608C214.228 28.983 213.489 29.1705 212.637 29.1705ZM212.648 27.5227C213.111 27.5227 213.497 27.3958 213.808 27.142C214.118 26.8845 214.349 26.5398 214.501 26.108C214.656 25.6761 214.734 25.1951 214.734 24.6648C214.734 24.1307 214.656 23.6477 214.501 23.2159C214.349 22.7803 214.118 22.4337 213.808 22.1761C213.497 21.9186 213.111 21.7898 212.648 21.7898C212.175 21.7898 211.781 21.9186 211.467 22.1761C211.156 22.4337 210.923 22.7803 210.768 23.2159C210.616 23.6477 210.54 24.1307 210.54 24.6648C210.54 25.1951 210.616 25.6761 210.768 26.108C210.923 26.5398 211.156 26.8845 211.467 27.142C211.781 27.3958 212.175 27.5227 212.648 27.5227ZM220.44 26.2614L220.434 23.7784H220.763L223.9 20.2727H226.303L222.445 24.5682H222.019L220.44 26.2614ZM218.565 29V17.3636H220.621V29H218.565ZM224.042 29L221.201 25.0284L222.587 23.5795L226.502 29H224.042ZM227.674 29V20.2727H229.731V29H227.674ZM228.708 19.0341C228.382 19.0341 228.102 18.9261 227.867 18.7102C227.632 18.4905 227.515 18.2273 227.515 17.9205C227.515 17.6098 227.632 17.3466 227.867 17.1307C228.102 16.911 228.382 16.8011 228.708 16.8011C229.038 16.8011 229.318 16.911 229.549 17.1307C229.784 17.3466 229.901 17.6098 229.901 17.9205C229.901 18.2273 229.784 18.4905 229.549 18.7102C229.318 18.9261 229.038 19.0341 228.708 19.0341ZM235.71 29.1705C234.835 29.1705 234.079 28.9886 233.442 28.625C232.81 28.2576 232.323 27.7386 231.982 27.0682C231.641 26.3939 231.471 25.6004 231.471 24.6875C231.471 23.7898 231.641 23.0019 231.982 22.3239C232.327 21.642 232.808 21.1117 233.425 20.733C234.043 20.3504 234.768 20.1591 235.602 20.1591C236.139 20.1591 236.647 20.2462 237.124 20.4205C237.605 20.5909 238.03 20.8561 238.397 21.2159C238.768 21.5758 239.06 22.0341 239.272 22.5909C239.484 23.1439 239.59 23.803 239.59 24.5682V25.1989H232.437V23.8125H237.619C237.615 23.4186 237.53 23.0682 237.363 22.7614C237.196 22.4508 236.963 22.2064 236.664 22.0284C236.369 21.8504 236.024 21.7614 235.63 21.7614C235.21 21.7614 234.84 21.8636 234.522 22.0682C234.204 22.2689 233.956 22.5341 233.778 22.8636C233.603 23.1894 233.514 23.5473 233.511 23.9375V25.1477C233.511 25.6553 233.603 26.0909 233.789 26.4545C233.975 26.8144 234.234 27.0909 234.567 27.2841C234.901 27.4735 235.291 27.5682 235.738 27.5682C236.037 27.5682 236.308 27.5265 236.55 27.4432C236.793 27.3561 237.003 27.2292 237.181 27.0625C237.359 26.8958 237.494 26.6894 237.585 26.4432L239.505 26.6591C239.384 27.1667 239.153 27.6098 238.812 27.9886C238.475 28.3636 238.043 28.6553 237.516 28.8636C236.99 29.0682 236.388 29.1705 235.71 29.1705ZM248.228 22.5795L246.353 22.7841C246.3 22.5947 246.207 22.4167 246.075 22.25C245.946 22.0833 245.772 21.9489 245.552 21.8466C245.332 21.7443 245.063 21.6932 244.745 21.6932C244.317 21.6932 243.957 21.786 243.665 21.9716C243.378 22.1572 243.236 22.3977 243.239 22.6932C243.236 22.947 243.328 23.1534 243.518 23.3125C243.711 23.4716 244.029 23.6023 244.472 23.7045L245.961 24.0227C246.787 24.2008 247.4 24.483 247.802 24.8693C248.207 25.2557 248.412 25.7614 248.415 26.3864C248.412 26.9356 248.251 27.4205 247.933 27.8409C247.618 28.2576 247.181 28.5833 246.62 28.8182C246.059 29.053 245.415 29.1705 244.688 29.1705C243.62 29.1705 242.76 28.947 242.109 28.5C241.457 28.0492 241.069 27.4223 240.944 26.6193L242.95 26.4261C243.04 26.8201 243.234 27.1174 243.529 27.3182C243.825 27.5189 244.209 27.6193 244.683 27.6193C245.171 27.6193 245.563 27.5189 245.859 27.3182C246.158 27.1174 246.308 26.8693 246.308 26.5739C246.308 26.3239 246.211 26.1174 246.018 25.9545C245.828 25.7917 245.533 25.6667 245.131 25.5795L243.643 25.267C242.806 25.0928 242.186 24.7992 241.785 24.3864C241.383 23.9697 241.184 23.4432 241.188 22.8068C241.184 22.2689 241.33 21.803 241.626 21.4091C241.925 21.0114 242.34 20.7045 242.87 20.4886C243.404 20.2689 244.02 20.1591 244.717 20.1591C245.739 20.1591 246.544 20.3769 247.131 20.8125C247.722 21.2481 248.088 21.8371 248.228 22.5795Z" fill="white"/>
</svg>
