<svg width="229" height="77" viewBox="0 0 229 77" fill="none" xmlns="http://www.w3.org/2000/svg">
<g filter="url(#filter0_dd_100_45)">
<path d="M15 13C15 8.58172 18.5817 5 23 5H205.172C209.59 5 213.172 8.58172 213.172 13V45C213.172 49.4183 209.59 53 205.172 53H23C18.5817 53 15 49.4183 15 45V13Z" fill="#6366F1"/>
<path d="M181.172 41H71V17H181.172V41Z" stroke="#E5E7EB"/>
<path d="M78.8857 25.5625C78.8326 25.0663 78.6091 24.6799 78.2152 24.4034C77.825 24.1269 77.3175 23.9886 76.6925 23.9886C76.2531 23.9886 75.8762 24.0549 75.5618 24.1875C75.2474 24.3201 75.0069 24.5 74.8402 24.7273C74.6735 24.9545 74.5883 25.214 74.5845 25.5057C74.5845 25.7481 74.6394 25.9583 74.7493 26.1364C74.8629 26.3144 75.0163 26.4659 75.2095 26.5909C75.4027 26.7121 75.6167 26.8144 75.8516 26.8977C76.0864 26.9811 76.3232 27.0511 76.5618 27.108L77.6527 27.3807C78.0921 27.483 78.5144 27.6212 78.9197 27.7955C79.3288 27.9697 79.6944 28.1894 80.0163 28.4545C80.3421 28.7197 80.5997 29.0398 80.7891 29.4148C80.9785 29.7898 81.0732 30.2292 81.0732 30.733C81.0732 31.4148 80.8989 32.0152 80.5504 32.5341C80.2019 33.0492 79.6982 33.4527 79.0391 33.7443C78.3838 34.0322 77.5902 34.1761 76.6584 34.1761C75.7531 34.1761 74.9671 34.036 74.3004 33.7557C73.6375 33.4754 73.1186 33.0663 72.7436 32.5284C72.3724 31.9905 72.1716 31.3352 72.1413 30.5625H74.2152C74.2455 30.9678 74.3705 31.3049 74.5902 31.5739C74.8099 31.8428 75.0959 32.0436 75.4482 32.1761C75.8042 32.3087 76.2019 32.375 76.6413 32.375C77.0997 32.375 77.5012 32.3068 77.8459 32.1705C78.1944 32.0303 78.4671 31.8371 78.6641 31.5909C78.861 31.3409 78.9614 31.0492 78.9652 30.7159C78.9614 30.4129 78.8724 30.1629 78.6982 29.9659C78.5239 29.7652 78.2796 29.5985 77.9652 29.4659C77.6546 29.3295 77.291 29.2083 76.8743 29.1023L75.5504 28.7614C74.5921 28.5152 73.8345 28.142 73.2777 27.642C72.7247 27.1383 72.4482 26.4697 72.4482 25.6364C72.4482 24.9508 72.6338 24.3504 73.005 23.8352C73.38 23.3201 73.8894 22.9205 74.5334 22.6364C75.1773 22.3485 75.9065 22.2045 76.7209 22.2045C77.5466 22.2045 78.2701 22.3485 78.8913 22.6364C79.5163 22.9205 80.0069 23.3163 80.3629 23.8239C80.719 24.3277 80.9027 24.9072 80.9141 25.5625H78.8857ZM88.424 30.3295V25.2727H90.4808V34H88.4865V32.4489H88.3956C88.1986 32.9375 87.8748 33.3371 87.424 33.6477C86.977 33.9583 86.4259 34.1136 85.7706 34.1136C85.1986 34.1136 84.6929 33.9867 84.2536 33.733C83.8179 33.4754 83.477 33.1023 83.2308 32.6136C82.9846 32.1212 82.8615 31.5265 82.8615 30.8295V25.2727H84.9183V30.5114C84.9183 31.0644 85.0698 31.5038 85.3729 31.8295C85.6759 32.1553 86.0736 32.3182 86.5661 32.3182C86.8691 32.3182 87.1626 32.2443 87.4467 32.0966C87.7308 31.9489 87.9638 31.7292 88.1456 31.4375C88.3312 31.142 88.424 30.7727 88.424 30.3295ZM92.6868 34V22.3636H94.7436V26.7159H94.8288C94.9349 26.5038 95.0845 26.2784 95.2777 26.0398C95.4709 25.7973 95.7322 25.5909 96.0618 25.4205C96.3913 25.2462 96.8118 25.1591 97.3232 25.1591C97.9974 25.1591 98.6054 25.3314 99.147 25.6761C99.6925 26.017 100.124 26.5227 100.442 27.1932C100.764 27.8598 100.925 28.678 100.925 29.6477C100.925 30.6061 100.768 31.4205 100.454 32.0909C100.139 32.7614 99.7114 33.2727 99.1697 33.625C98.6281 33.9773 98.0144 34.1534 97.3288 34.1534C96.8288 34.1534 96.4141 34.0701 96.0845 33.9034C95.755 33.7367 95.4898 33.536 95.2891 33.3011C95.0921 33.0625 94.9387 32.8371 94.8288 32.625H94.7095V34H92.6868ZM94.7038 29.6364C94.7038 30.2008 94.7834 30.6951 94.9425 31.1193C95.1054 31.5436 95.3383 31.875 95.6413 32.1136C95.9482 32.3485 96.3194 32.4659 96.755 32.4659C97.2095 32.4659 97.5902 32.3447 97.897 32.1023C98.2038 31.8561 98.4349 31.5208 98.5902 31.0966C98.7493 30.6686 98.8288 30.1818 98.8288 29.6364C98.8288 29.0947 98.7512 28.6136 98.5959 28.1932C98.4406 27.7727 98.2095 27.4432 97.9027 27.2045C97.5959 26.9659 97.2133 26.8466 96.755 26.8466C96.3156 26.8466 95.9425 26.9621 95.6357 27.1932C95.3288 27.4242 95.0959 27.7481 94.9368 28.1648C94.7815 28.5814 94.7038 29.072 94.7038 29.6364ZM102.674 34V25.2727H104.64V26.7557H104.742C104.924 26.2557 105.225 25.8655 105.646 25.5852C106.066 25.3011 106.568 25.1591 107.151 25.1591C107.742 25.1591 108.24 25.303 108.646 25.5909C109.055 25.875 109.343 26.2633 109.509 26.7557H109.6C109.793 26.2708 110.119 25.8845 110.577 25.5966C111.04 25.3049 111.587 25.1591 112.219 25.1591C113.022 25.1591 113.678 25.4129 114.185 25.9205C114.693 26.428 114.947 27.1686 114.947 28.142V34H112.884V28.4602C112.884 27.9186 112.74 27.5227 112.452 27.2727C112.165 27.0189 111.812 26.892 111.396 26.892C110.899 26.892 110.511 27.0473 110.231 27.358C109.954 27.6648 109.816 28.0644 109.816 28.5568V34H107.799V28.375C107.799 27.9242 107.663 27.5644 107.39 27.2955C107.121 27.0265 106.769 26.892 106.333 26.892C106.038 26.892 105.769 26.9678 105.526 27.1193C105.284 27.267 105.091 27.4773 104.947 27.75C104.803 28.0189 104.731 28.3333 104.731 28.6932V34H102.674ZM117.033 34V25.2727H119.09V34H117.033ZM118.067 24.0341C117.742 24.0341 117.461 23.9261 117.227 23.7102C116.992 23.4905 116.874 23.2273 116.874 22.9205C116.874 22.6098 116.992 22.3466 117.227 22.1307C117.461 21.911 117.742 21.8011 118.067 21.8011C118.397 21.8011 118.677 21.911 118.908 22.1307C119.143 22.3466 119.261 22.6098 119.261 22.9205C119.261 23.2273 119.143 23.4905 118.908 23.7102C118.677 23.9261 118.397 24.0341 118.067 24.0341ZM125.563 25.2727V26.8636H120.546V25.2727H125.563ZM121.785 23.1818H123.842V31.375C123.842 31.6515 123.883 31.8636 123.967 32.0114C124.054 32.1553 124.167 32.2538 124.308 32.3068C124.448 32.3598 124.603 32.3864 124.773 32.3864C124.902 32.3864 125.02 32.3769 125.126 32.358C125.236 32.339 125.319 32.322 125.376 32.3068L125.722 33.9148C125.612 33.9527 125.455 33.9943 125.251 34.0398C125.05 34.0852 124.804 34.1117 124.512 34.1193C123.997 34.1345 123.533 34.0568 123.12 33.8864C122.707 33.7121 122.379 33.4432 122.137 33.0795C121.898 32.7159 121.781 32.2614 121.785 31.7159V23.1818ZM131.343 34V22.3636H135.707C136.601 22.3636 137.351 22.5189 137.957 22.8295C138.567 23.1402 139.027 23.5758 139.337 24.1364C139.652 24.6932 139.809 25.3428 139.809 26.0852C139.809 26.8314 139.65 27.4792 139.332 28.0284C139.017 28.5739 138.553 28.9962 137.94 29.2955C137.326 29.5909 136.572 29.7386 135.678 29.7386H132.57V27.9886H135.394C135.917 27.9886 136.345 27.9167 136.678 27.7727C137.012 27.625 137.258 27.411 137.417 27.1307C137.58 26.8466 137.661 26.4981 137.661 26.0852C137.661 25.6723 137.58 25.3201 137.417 25.0284C137.254 24.733 137.006 24.5095 136.673 24.358C136.339 24.2027 135.909 24.125 135.383 24.125H133.451V34H131.343ZM137.354 28.7273L140.235 34H137.883L135.053 28.7273H137.354ZM145.397 34.1705C144.522 34.1705 143.766 33.9886 143.13 33.625C142.497 33.2576 142.011 32.7386 141.67 32.0682C141.329 31.3939 141.158 30.6004 141.158 29.6875C141.158 28.7898 141.329 28.0019 141.67 27.3239C142.014 26.642 142.496 26.1117 143.113 25.733C143.73 25.3504 144.456 25.1591 145.289 25.1591C145.827 25.1591 146.335 25.2462 146.812 25.4205C147.293 25.5909 147.717 25.8561 148.085 26.2159C148.456 26.5758 148.747 27.0341 148.96 27.5909C149.172 28.1439 149.278 28.803 149.278 29.5682V30.1989H142.124V28.8125H147.306C147.302 28.4186 147.217 28.0682 147.05 27.7614C146.884 27.4508 146.651 27.2064 146.352 27.0284C146.056 26.8504 145.711 26.7614 145.317 26.7614C144.897 26.7614 144.528 26.8636 144.21 27.0682C143.891 27.2689 143.643 27.5341 143.465 27.8636C143.291 28.1894 143.202 28.5473 143.198 28.9375V30.1477C143.198 30.6553 143.291 31.0909 143.477 31.4545C143.662 31.8144 143.922 32.0909 144.255 32.2841C144.588 32.4735 144.978 32.5682 145.425 32.5682C145.725 32.5682 145.996 32.5265 146.238 32.4432C146.48 32.3561 146.691 32.2292 146.869 32.0625C147.047 31.8958 147.181 31.6894 147.272 31.4432L149.192 31.6591C149.071 32.1667 148.84 32.6098 148.499 32.9886C148.162 33.3636 147.73 33.6553 147.204 33.8636C146.677 34.0682 146.075 34.1705 145.397 34.1705ZM151.018 37.2727V25.2727H153.04V26.7159H153.16C153.266 26.5038 153.415 26.2784 153.609 26.0398C153.802 25.7973 154.063 25.5909 154.393 25.4205C154.722 25.2462 155.143 25.1591 155.654 25.1591C156.328 25.1591 156.936 25.3314 157.478 25.6761C158.023 26.017 158.455 26.5227 158.773 27.1932C159.095 27.8598 159.256 28.678 159.256 29.6477C159.256 30.6061 159.099 31.4205 158.785 32.0909C158.47 32.7614 158.042 33.2727 157.501 33.625C156.959 33.9773 156.345 34.1534 155.66 34.1534C155.16 34.1534 154.745 34.0701 154.415 33.9034C154.086 33.7367 153.821 33.536 153.62 33.3011C153.423 33.0625 153.27 32.8371 153.16 32.625H153.075V37.2727H151.018ZM153.035 29.6364C153.035 30.2008 153.114 30.6951 153.273 31.1193C153.436 31.5436 153.669 31.875 153.972 32.1136C154.279 32.3485 154.65 32.4659 155.086 32.4659C155.54 32.4659 155.921 32.3447 156.228 32.1023C156.535 31.8561 156.766 31.5208 156.921 31.0966C157.08 30.6686 157.16 30.1818 157.16 29.6364C157.16 29.0947 157.082 28.6136 156.927 28.1932C156.772 27.7727 156.54 27.4432 156.234 27.2045C155.927 26.9659 155.544 26.8466 155.086 26.8466C154.647 26.8466 154.273 26.9621 153.967 27.1932C153.66 27.4242 153.427 27.7481 153.268 28.1648C153.112 28.5814 153.035 29.072 153.035 29.6364ZM164.825 34.1705C163.972 34.1705 163.234 33.983 162.609 33.608C161.984 33.233 161.499 32.7083 161.154 32.0341C160.813 31.3598 160.643 30.572 160.643 29.6705C160.643 28.7689 160.813 27.9792 161.154 27.3011C161.499 26.6231 161.984 26.0966 162.609 25.7216C163.234 25.3466 163.972 25.1591 164.825 25.1591C165.677 25.1591 166.415 25.3466 167.04 25.7216C167.665 26.0966 168.148 26.6231 168.489 27.3011C168.834 27.9792 169.006 28.7689 169.006 29.6705C169.006 30.572 168.834 31.3598 168.489 32.0341C168.148 32.7083 167.665 33.233 167.04 33.608C166.415 33.983 165.677 34.1705 164.825 34.1705ZM164.836 32.5227C165.298 32.5227 165.684 32.3958 165.995 32.142C166.306 31.8845 166.537 31.5398 166.688 31.108C166.844 30.6761 166.921 30.1951 166.921 29.6648C166.921 29.1307 166.844 28.6477 166.688 28.2159C166.537 27.7803 166.306 27.4337 165.995 27.1761C165.684 26.9186 165.298 26.7898 164.836 26.7898C164.362 26.7898 163.969 26.9186 163.654 27.1761C163.344 27.4337 163.111 27.7803 162.955 28.2159C162.804 28.6477 162.728 29.1307 162.728 29.6648C162.728 30.1951 162.804 30.6761 162.955 31.108C163.111 31.5398 163.344 31.8845 163.654 32.142C163.969 32.3958 164.362 32.5227 164.836 32.5227ZM170.752 34V25.2727H172.746V26.7273H172.837C172.996 26.2235 173.269 25.8352 173.656 25.5625C174.046 25.286 174.491 25.1477 174.991 25.1477C175.104 25.1477 175.231 25.1534 175.371 25.1648C175.515 25.1723 175.635 25.1856 175.729 25.2045V27.0966C175.642 27.0663 175.504 27.0398 175.315 27.017C175.129 26.9905 174.949 26.9773 174.775 26.9773C174.4 26.9773 174.063 27.0587 173.763 27.2216C173.468 27.3807 173.235 27.6023 173.065 27.8864C172.894 28.1705 172.809 28.4981 172.809 28.8693V34H170.752ZM181.923 25.2727V26.8636H176.906V25.2727H181.923ZM178.144 23.1818H180.201V31.375C180.201 31.6515 180.243 31.8636 180.326 32.0114C180.413 32.1553 180.527 32.2538 180.667 32.3068C180.807 32.3598 180.962 32.3864 181.133 32.3864C181.262 32.3864 181.379 32.3769 181.485 32.358C181.595 32.339 181.678 32.322 181.735 32.3068L182.082 33.9148C181.972 33.9527 181.815 33.9943 181.61 34.0398C181.409 34.0852 181.163 34.1117 180.871 34.1193C180.356 34.1345 179.892 34.0568 179.479 33.8864C179.067 33.7121 178.739 33.4432 178.496 33.0795C178.258 32.7159 178.14 32.2614 178.144 31.7159V23.1818Z" fill="white"/>
<path d="M45.0852 31.0853C44.8941 30.8945 44.6664 30.7444 44.4157 30.6441L36.4857 27.4641C36.391 27.4261 36.3102 27.36 36.2541 27.2748C36.1981 27.1895 36.1694 27.0892 36.172 26.9872C36.1747 26.8852 36.2084 26.7865 36.2688 26.7042C36.3291 26.622 36.4132 26.5602 36.5097 26.5271L55.5097 20.0271C55.5983 19.9951 55.6942 19.9889 55.7861 20.0094C55.8781 20.03 55.9623 20.0762 56.0289 20.1428C56.0955 20.2094 56.1418 20.2937 56.1623 20.3856C56.1828 20.4776 56.1767 20.5734 56.1447 20.6621L49.6447 39.6621C49.6116 39.7586 49.5498 39.8426 49.4675 39.903C49.3853 39.9633 49.2865 39.9971 49.1845 39.9997C49.0825 40.0023 48.9822 39.9737 48.897 39.9176C48.8117 39.8615 48.7457 39.7807 48.7077 39.6861L45.5277 31.7541C45.4269 31.5036 45.2764 31.2761 45.0852 31.0853ZM45.0852 31.0853L56.0257 20.1471" stroke="white" stroke-width="2" stroke-linecap="round" stroke-linejoin="round"/>
</g>
<defs>
<filter id="filter0_dd_100_45" x="0" y="0" width="228.172" height="78" filterUnits="userSpaceOnUse" color-interpolation-filters="sRGB">
<feFlood flood-opacity="0" result="BackgroundImageFix"/>
<feColorMatrix in="SourceAlpha" type="matrix" values="0 0 0 0 0 0 0 0 0 0 0 0 0 0 0 0 0 0 127 0" result="hardAlpha"/>
<feOffset dy="10"/>
<feGaussianBlur stdDeviation="7.5"/>
<feColorMatrix type="matrix" values="0 0 0 0 0 0 0 0 0 0 0 0 0 0 0 0 0 0 0.1 0"/>
<feBlend mode="normal" in2="BackgroundImageFix" result="effect1_dropShadow_100_45"/>
<feColorMatrix in="SourceAlpha" type="matrix" values="0 0 0 0 0 0 0 0 0 0 0 0 0 0 0 0 0 0 127 0" result="hardAlpha"/>
<feOffset dy="4"/>
<feGaussianBlur stdDeviation="3"/>
<feColorMatrix type="matrix" values="0 0 0 0 0 0 0 0 0 0 0 0 0 0 0 0 0 0 0.1 0"/>
<feBlend mode="normal" in2="effect1_dropShadow_100_45" result="effect2_dropShadow_100_45"/>
<feBlend mode="normal" in="SourceGraphic" in2="effect2_dropShadow_100_45" result="shape"/>
</filter>
</defs>
</svg>
