<svg width="176" height="60" viewBox="0 0 176 60" fill="none" xmlns="http://www.w3.org/2000/svg">
<rect x="0.5" y="0.5" width="175" height="59" rx="11.5" fill="white"/>
<rect x="0.5" y="0.5" width="175" height="59" rx="11.5" stroke="#6366F1"/>
<path d="M26.3335 25.3333H15.6668C14.9304 25.3333 14.3335 25.9303 14.3335 26.6666V33.3333C14.3335 34.0697 14.9304 34.6666 15.6668 34.6666H26.3335C27.0699 34.6666 27.6668 34.0697 27.6668 33.3333V26.6666C27.6668 25.9303 27.0699 25.3333 26.3335 25.3333Z" stroke="#6366F1" stroke-width="1.33333" stroke-linecap="round" stroke-linejoin="round"/>
<path d="M14.3335 28.6666H27.6668" stroke="#6366F1" stroke-width="1.33333" stroke-linecap="round" stroke-linejoin="round"/>
<path d="M46.7403 20.1293H45.1892C45.1295 19.7978 45.0185 19.5062 44.8561 19.2543C44.6937 19.0024 44.4948 18.7886 44.2595 18.6129C44.0242 18.4373 43.7607 18.3047 43.469 18.2152C43.1807 18.1257 42.8741 18.081 42.5493 18.081C41.9626 18.081 41.4373 18.2285 40.9733 18.5234C40.5126 18.8184 40.148 19.2509 39.8795 19.821C39.6144 20.3911 39.4818 21.0871 39.4818 21.9091C39.4818 22.7377 39.6144 23.437 39.8795 24.0071C40.148 24.5772 40.5142 25.008 40.9782 25.2997C41.4423 25.5914 41.9643 25.7372 42.5443 25.7372C42.8658 25.7372 43.1707 25.6941 43.4591 25.608C43.7507 25.5185 44.0142 25.3875 44.2496 25.2152C44.4849 25.0429 44.6837 24.8324 44.8461 24.5838C45.0119 24.3319 45.1262 24.0436 45.1892 23.7188L46.7403 23.7237C46.6575 24.2242 46.4967 24.6849 46.2581 25.1058C46.0228 25.5234 45.7195 25.8847 45.3483 26.1896C44.9804 26.4912 44.5595 26.7249 44.0855 26.8906C43.6115 27.0563 43.0945 27.1392 42.5344 27.1392C41.6527 27.1392 40.8672 26.9304 40.1778 26.5128C39.4884 26.0919 38.9449 25.4903 38.5471 24.7081C38.1527 23.9259 37.9555 22.9929 37.9555 21.9091C37.9555 20.822 38.1544 19.889 38.5521 19.1101C38.9498 18.3279 39.4934 17.728 40.1828 17.3104C40.8722 16.8894 41.656 16.679 42.5344 16.679C43.0746 16.679 43.5784 16.7569 44.0457 16.9126C44.5164 17.0651 44.939 17.2905 45.3135 17.5888C45.688 17.8838 45.9979 18.245 46.2432 18.6726C46.4884 19.0968 46.6541 19.5824 46.7403 20.1293ZM49.9458 22.4659V27H48.4593V16.8182H49.9259V20.6065H50.0203C50.1993 20.1955 50.4727 19.8691 50.8406 19.6271C51.2085 19.3852 51.6891 19.2642 52.2824 19.2642C52.8061 19.2642 53.2635 19.3719 53.6546 19.5874C54.049 19.8028 54.3539 20.1243 54.5693 20.5518C54.7881 20.9761 54.8975 21.5064 54.8975 22.1428V27H53.411V22.3217C53.411 21.7616 53.2668 21.3274 52.9784 21.0192C52.6901 20.7076 52.289 20.5518 51.7753 20.5518C51.424 20.5518 51.1091 20.6264 50.8307 20.7756C50.5556 20.9247 50.3385 21.1435 50.1794 21.4318C50.0236 21.7169 49.9458 22.0616 49.9458 22.4659ZM59.1034 27.169C58.6195 27.169 58.182 27.0795 57.7909 26.9006C57.3998 26.7183 57.0899 26.4548 56.8612 26.1101C56.6359 25.7654 56.5232 25.3428 56.5232 24.8423C56.5232 24.4115 56.606 24.0568 56.7718 23.7784C56.9375 23.5 57.1612 23.2796 57.4429 23.1172C57.7246 22.9548 58.0395 22.8321 58.3875 22.7493C58.7355 22.6664 59.0902 22.6035 59.4514 22.5604C59.9088 22.5073 60.28 22.4643 60.5651 22.4311C60.8501 22.3946 61.0573 22.3366 61.1865 22.2571C61.3158 22.1776 61.3804 22.0483 61.3804 21.8693V21.8345C61.3804 21.4003 61.2578 21.0639 61.0125 20.8253C60.7706 20.5866 60.4093 20.4673 59.9287 20.4673C59.4282 20.4673 59.0338 20.5784 58.7455 20.8004C58.4604 21.0192 58.2632 21.2628 58.1539 21.5312L56.7568 21.2131C56.9226 20.7491 57.1645 20.3745 57.4827 20.0895C57.8042 19.8011 58.1737 19.5923 58.5914 19.4631C59.009 19.3305 59.4481 19.2642 59.9088 19.2642C60.2137 19.2642 60.5369 19.3007 60.8783 19.3736C61.223 19.4432 61.5445 19.5724 61.8428 19.7614C62.1444 19.9503 62.3913 20.2204 62.5835 20.5717C62.7758 20.9197 62.8719 21.3722 62.8719 21.929V27H61.4202V25.956H61.3605C61.2644 26.1482 61.1202 26.3371 60.928 26.5227C60.7358 26.7083 60.4888 26.8625 60.1872 26.9851C59.8856 27.1077 59.5244 27.169 59.1034 27.169ZM59.4266 25.9759C59.8376 25.9759 60.1889 25.8946 60.4806 25.7322C60.7755 25.5698 60.9993 25.3577 61.1517 25.0959C61.3075 24.8307 61.3854 24.5473 61.3854 24.2457V23.2614C61.3324 23.3144 61.2296 23.3641 61.0771 23.4105C60.928 23.4536 60.7573 23.4917 60.5651 23.5249C60.3728 23.5547 60.1856 23.5829 60.0033 23.6094C59.821 23.6326 59.6685 23.6525 59.5459 23.669C59.2575 23.7055 58.9941 23.7668 58.7554 23.853C58.5201 23.9392 58.3312 24.0634 58.1887 24.2259C58.0494 24.3849 57.9798 24.5971 57.9798 24.8622C57.9798 25.2301 58.1157 25.5085 58.3875 25.6974C58.6593 25.883 59.0057 25.9759 59.4266 25.9759ZM66.3383 22.4659V27H64.8518V19.3636H66.2787V20.6065H66.3731C66.5488 20.2022 66.8239 19.8774 67.1984 19.6321C67.5763 19.3868 68.0519 19.2642 68.6253 19.2642C69.1456 19.2642 69.6014 19.3736 69.9925 19.5923C70.3836 19.8078 70.6868 20.1293 70.9023 20.5568C71.1177 20.9844 71.2254 21.513 71.2254 22.1428V27H69.7389V22.3217C69.7389 21.7682 69.5947 21.3357 69.3064 21.0241C69.018 20.7093 68.622 20.5518 68.1182 20.5518C67.7735 20.5518 67.4669 20.6264 67.1984 20.7756C66.9333 20.9247 66.7228 21.1435 66.567 21.4318C66.4146 21.7169 66.3383 22.0616 66.3383 22.4659ZM76.4207 30.0227C75.8142 30.0227 75.2922 29.9432 74.8547 29.7841C74.4205 29.625 74.0658 29.4145 73.7907 29.1527C73.5157 28.8909 73.3102 28.6042 73.1743 28.2926L74.452 27.7656C74.5415 27.9115 74.6608 28.0656 74.8099 28.228C74.9624 28.3937 75.1679 28.5346 75.4264 28.6506C75.6882 28.7666 76.0247 28.8246 76.4356 28.8246C76.9991 28.8246 77.4648 28.687 77.8327 28.4119C78.2006 28.1402 78.3845 27.706 78.3845 27.1094V25.608H78.29C78.2006 25.7704 78.0713 25.951 77.9023 26.1499C77.7365 26.3487 77.5078 26.5211 77.2162 26.6669C76.9245 26.8127 76.545 26.8857 76.0777 26.8857C75.4745 26.8857 74.9309 26.7448 74.447 26.4631C73.9664 26.178 73.5853 25.7588 73.3035 25.2053C73.0251 24.6484 72.8859 23.964 72.8859 23.152C72.8859 22.34 73.0235 21.6439 73.2986 21.0639C73.577 20.4839 73.9581 20.0398 74.442 19.7315C74.9259 19.42 75.4745 19.2642 76.0876 19.2642C76.5616 19.2642 76.9444 19.3438 77.2361 19.5028C77.5277 19.6586 77.7548 19.8409 77.9172 20.0497C78.0829 20.2585 78.2105 20.4425 78.3 20.6016H78.4094V19.3636H79.866V27.169C79.866 27.8253 79.7136 28.3639 79.4086 28.7848C79.1037 29.2057 78.6911 29.5173 78.1707 29.7195C77.6537 29.9216 77.0703 30.0227 76.4207 30.0227ZM76.4058 25.6527C76.8334 25.6527 77.1946 25.5533 77.4896 25.3544C77.7879 25.1522 78.0133 24.8639 78.1657 24.4893C78.3215 24.1115 78.3994 23.6591 78.3994 23.1321C78.3994 22.6184 78.3232 22.166 78.1707 21.7749C78.0183 21.3838 77.7945 21.0788 77.4996 20.8601C77.2046 20.638 76.84 20.527 76.4058 20.527C75.9584 20.527 75.5855 20.643 75.2872 20.875C74.9889 21.1037 74.7635 21.4152 74.6111 21.8097C74.4619 22.2041 74.3873 22.6449 74.3873 23.1321C74.3873 23.6326 74.4636 24.0717 74.616 24.4496C74.7685 24.8274 74.9939 25.1224 75.2922 25.3345C75.5938 25.5466 75.965 25.6527 76.4058 25.6527ZM85.1508 27.1541C84.3985 27.1541 83.7505 26.9934 83.2069 26.6719C82.6667 26.3471 82.2491 25.8913 81.9541 25.3047C81.6624 24.7147 81.5166 24.0237 81.5166 23.2315C81.5166 22.4493 81.6624 21.7599 81.9541 21.1634C82.2491 20.5668 82.6601 20.1011 83.1871 19.7663C83.7174 19.4316 84.3372 19.2642 85.0464 19.2642C85.4773 19.2642 85.8949 19.3355 86.2993 19.478C86.7036 19.6205 87.0666 19.8442 87.3881 20.1491C87.7095 20.4541 87.9631 20.8501 88.1487 21.3374C88.3343 21.8213 88.4271 22.4096 88.4271 23.1023V23.6293H82.3568V22.5156H86.9704C86.9704 22.1245 86.8909 21.7782 86.7318 21.4766C86.5727 21.1716 86.349 20.9313 86.0606 20.7557C85.7756 20.58 85.4408 20.4922 85.0564 20.4922C84.6388 20.4922 84.2742 20.5949 83.9626 20.8004C83.6544 21.0026 83.4157 21.2678 83.2467 21.5959C83.081 21.9207 82.9981 22.2737 82.9981 22.6548V23.5249C82.9981 24.0353 83.0876 24.4695 83.2666 24.8274C83.4489 25.1854 83.7024 25.4588 84.0273 25.6477C84.3521 25.8333 84.7316 25.9261 85.1657 25.9261C85.4475 25.9261 85.7043 25.8864 85.9363 25.8068C86.1684 25.724 86.3689 25.6013 86.5379 25.4389C86.7069 25.2765 86.8362 25.076 86.9257 24.8374L88.3327 25.0909C88.22 25.5052 88.0178 25.8681 87.7261 26.1797C87.4378 26.4879 87.0748 26.7282 86.6373 26.9006C86.2032 27.0696 85.7077 27.1541 85.1508 27.1541ZM93.9008 27V16.8182H97.5301C98.3222 16.8182 98.9785 16.9624 99.4988 17.2507C100.019 17.5391 100.409 17.9335 100.667 18.4339C100.926 18.9311 101.055 19.4912 101.055 20.1143C101.055 20.7408 100.924 21.3042 100.662 21.8047C100.404 22.3018 100.013 22.6963 99.4889 22.9879C98.9685 23.2763 98.314 23.4205 97.5251 23.4205H95.0294V22.1179H97.3859C97.8864 22.1179 98.2924 22.0317 98.604 21.8594C98.9155 21.6837 99.1442 21.4451 99.29 21.1435C99.4359 20.8419 99.5088 20.4988 99.5088 20.1143C99.5088 19.7299 99.4359 19.3885 99.29 19.0902C99.1442 18.7919 98.9139 18.5582 98.599 18.3892C98.2874 18.2202 97.8765 18.1357 97.366 18.1357H95.4371V27H93.9008ZM104.891 27.169C104.407 27.169 103.969 27.0795 103.578 26.9006C103.187 26.7183 102.877 26.4548 102.648 26.1101C102.423 25.7654 102.31 25.3428 102.31 24.8423C102.31 24.4115 102.393 24.0568 102.559 23.7784C102.725 23.5 102.948 23.2796 103.23 23.1172C103.512 22.9548 103.827 22.8321 104.175 22.7493C104.523 22.6664 104.877 22.6035 105.239 22.5604C105.696 22.5073 106.067 22.4643 106.352 22.4311C106.637 22.3946 106.844 22.3366 106.974 22.2571C107.103 22.1776 107.168 22.0483 107.168 21.8693V21.8345C107.168 21.4003 107.045 21.0639 106.8 20.8253C106.558 20.5866 106.196 20.4673 105.716 20.4673C105.215 20.4673 104.821 20.5784 104.533 20.8004C104.248 21.0192 104.05 21.2628 103.941 21.5312L102.544 21.2131C102.71 20.7491 102.952 20.3745 103.27 20.0895C103.591 19.8011 103.961 19.5923 104.378 19.4631C104.796 19.3305 105.235 19.2642 105.696 19.2642C106.001 19.2642 106.324 19.3007 106.665 19.3736C107.01 19.4432 107.332 19.5724 107.63 19.7614C107.931 19.9503 108.178 20.2204 108.371 20.5717C108.563 20.9197 108.659 21.3722 108.659 21.929V27H107.207V25.956H107.148C107.052 26.1482 106.907 26.3371 106.715 26.5227C106.523 26.7083 106.276 26.8625 105.974 26.9851C105.673 27.1077 105.311 27.169 104.891 27.169ZM105.214 25.9759C105.625 25.9759 105.976 25.8946 106.268 25.7322C106.563 25.5698 106.786 25.3577 106.939 25.0959C107.095 24.8307 107.172 24.5473 107.172 24.2457V23.2614C107.119 23.3144 107.017 23.3641 106.864 23.4105C106.715 23.4536 106.544 23.4917 106.352 23.5249C106.16 23.5547 105.973 23.5829 105.79 23.6094C105.608 23.6326 105.456 23.6525 105.333 23.669C105.045 23.7055 104.781 23.7668 104.543 23.853C104.307 23.9392 104.118 24.0634 103.976 24.2259C103.837 24.3849 103.767 24.5971 103.767 24.8622C103.767 25.2301 103.903 25.5085 104.175 25.6974C104.446 25.883 104.793 25.9759 105.214 25.9759ZM111.305 29.8636C111.083 29.8636 110.881 29.8454 110.699 29.8089C110.516 29.7758 110.38 29.7393 110.291 29.6996L110.649 28.4815C110.921 28.5545 111.163 28.5859 111.375 28.576C111.587 28.5661 111.774 28.4865 111.937 28.3374C112.102 28.1882 112.248 27.9446 112.374 27.6065L112.558 27.0994L109.764 19.3636H111.355L113.289 25.2898H113.368L115.302 19.3636H116.898L113.751 28.0192C113.605 28.4169 113.42 28.7533 113.194 29.0284C112.969 29.3068 112.7 29.5156 112.389 29.6548C112.077 29.794 111.716 29.8636 111.305 29.8636ZM118.295 27V19.3636H119.722V20.6065H119.816C119.976 20.1856 120.236 19.8575 120.597 19.6222C120.958 19.3835 121.391 19.2642 121.895 19.2642C122.405 19.2642 122.833 19.3835 123.177 19.6222C123.525 19.8608 123.782 20.1889 123.948 20.6065H124.027C124.21 20.1989 124.5 19.8741 124.897 19.6321C125.295 19.3868 125.769 19.2642 126.319 19.2642C127.012 19.2642 127.577 19.4813 128.015 19.9155C128.455 20.3497 128.676 21.0043 128.676 21.8793V27H127.189V22.0185C127.189 21.5014 127.049 21.1269 126.767 20.8949C126.485 20.6629 126.149 20.5469 125.758 20.5469C125.274 20.5469 124.897 20.696 124.629 20.9943C124.361 21.2893 124.226 21.6688 124.226 22.1328V27H122.745V21.924C122.745 21.5097 122.616 21.1766 122.357 20.9247C122.098 20.6728 121.762 20.5469 121.348 20.5469C121.066 20.5469 120.806 20.6214 120.567 20.7706C120.332 20.9164 120.141 21.1203 119.995 21.3821C119.853 21.6439 119.782 21.9472 119.782 22.2919V27H118.295ZM133.959 27.1541C133.207 27.1541 132.559 26.9934 132.016 26.6719C131.475 26.3471 131.058 25.8913 130.763 25.3047C130.471 24.7147 130.325 24.0237 130.325 23.2315C130.325 22.4493 130.471 21.7599 130.763 21.1634C131.058 20.5668 131.469 20.1011 131.996 19.7663C132.526 19.4316 133.146 19.2642 133.855 19.2642C134.286 19.2642 134.704 19.3355 135.108 19.478C135.512 19.6205 135.875 19.8442 136.197 20.1491C136.518 20.4541 136.772 20.8501 136.957 21.3374C137.143 21.8213 137.236 22.4096 137.236 23.1023V23.6293H131.165V22.5156H135.779C135.779 22.1245 135.699 21.7782 135.54 21.4766C135.381 21.1716 135.158 20.9313 134.869 20.7557C134.584 20.58 134.249 20.4922 133.865 20.4922C133.447 20.4922 133.083 20.5949 132.771 20.8004C132.463 21.0026 132.224 21.2678 132.055 21.5959C131.89 21.9207 131.807 22.2737 131.807 22.6548V23.5249C131.807 24.0353 131.896 24.4695 132.075 24.8274C132.257 25.1854 132.511 25.4588 132.836 25.6477C133.161 25.8333 133.54 25.9261 133.974 25.9261C134.256 25.9261 134.513 25.8864 134.745 25.8068C134.977 25.724 135.177 25.6013 135.347 25.4389C135.516 25.2765 135.645 25.076 135.734 24.8374L137.141 25.0909C137.029 25.5052 136.826 25.8681 136.535 26.1797C136.246 26.4879 135.883 26.7282 135.446 26.9006C135.012 27.0696 134.516 27.1541 133.959 27.1541ZM140.372 22.4659V27H138.885V19.3636H140.312V20.6065H140.406C140.582 20.2022 140.857 19.8774 141.232 19.6321C141.609 19.3868 142.085 19.2642 142.658 19.2642C143.179 19.2642 143.635 19.3736 144.026 19.5923C144.417 19.8078 144.72 20.1293 144.935 20.5568C145.151 20.9844 145.259 21.513 145.259 22.1428V27H143.772V22.3217C143.772 21.7682 143.628 21.3357 143.34 21.0241C143.051 20.7093 142.655 20.5518 142.151 20.5518C141.807 20.5518 141.5 20.6264 141.232 20.7756C140.966 20.9247 140.756 21.1435 140.6 21.4318C140.448 21.7169 140.372 22.0616 140.372 22.4659ZM150.817 19.3636V20.5568H146.646V19.3636H150.817ZM147.764 17.5341H149.251V24.7578C149.251 25.0462 149.294 25.2633 149.38 25.4091C149.466 25.5516 149.577 25.6494 149.713 25.7024C149.852 25.7521 150.003 25.777 150.166 25.777C150.285 25.777 150.389 25.7687 150.479 25.7521C150.568 25.7356 150.638 25.7223 150.688 25.7124L150.956 26.9403C150.87 26.9735 150.747 27.0066 150.588 27.0398C150.429 27.0762 150.23 27.0961 149.992 27.0994C149.6 27.1061 149.236 27.0365 148.898 26.8906C148.56 26.7448 148.286 26.5194 148.078 26.2145C147.869 25.9096 147.764 25.5268 147.764 25.0661V17.5341Z" fill="#6366F1"/>
<path d="M38.1431 33.8182H40.0075L43.249 41.733H43.3683L46.6098 33.8182H48.4741V44H47.0124V36.6321H46.918L43.9151 43.9851H42.7021L39.6992 36.6271H39.6048V44H38.1431V33.8182ZM53.8795 44.1541C53.1271 44.1541 52.4791 43.9934 51.9356 43.6719C51.3953 43.3471 50.9777 42.8913 50.6827 42.3047C50.3911 41.7147 50.2452 41.0237 50.2452 40.2315C50.2452 39.4493 50.3911 38.7599 50.6827 38.1634C50.9777 37.5668 51.3887 37.1011 51.9157 36.7663C52.446 36.4316 53.0658 36.2642 53.7751 36.2642C54.2059 36.2642 54.6235 36.3355 55.0279 36.478C55.4323 36.6205 55.7952 36.8442 56.1167 37.1491C56.4382 37.4541 56.6917 37.8501 56.8773 38.3374C57.0629 38.8213 57.1557 39.4096 57.1557 40.1023V40.6293H51.0854V39.5156H55.6991C55.6991 39.1245 55.6195 38.7782 55.4604 38.4766C55.3013 38.1716 55.0776 37.9313 54.7893 37.7557C54.5042 37.58 54.1695 37.4922 53.785 37.4922C53.3674 37.4922 53.0028 37.5949 52.6912 37.8004C52.383 38.0026 52.1444 38.2678 51.9753 38.5959C51.8096 38.9207 51.7268 39.2737 51.7268 39.6548V40.5249C51.7268 41.0353 51.8162 41.4695 51.9952 41.8274C52.1775 42.1854 52.4311 42.4588 52.7559 42.6477C53.0807 42.8333 53.4602 42.9261 53.8944 42.9261C54.1761 42.9261 54.433 42.8864 54.665 42.8068C54.897 42.724 55.0975 42.6013 55.2665 42.4389C55.4356 42.2765 55.5648 42.076 55.6543 41.8374L57.0613 42.0909C56.9486 42.5052 56.7464 42.8681 56.4547 43.1797C56.1664 43.4879 55.8035 43.7282 55.366 43.9006C54.9318 44.0696 54.4363 44.1541 53.8795 44.1541ZM62.3697 36.3636V37.5568H58.1985V36.3636H62.3697ZM59.3171 34.5341H60.8036V41.7578C60.8036 42.0462 60.8467 42.2633 60.9329 42.4091C61.0191 42.5516 61.1301 42.6494 61.266 42.7024C61.4052 42.7521 61.556 42.777 61.7184 42.777C61.8377 42.777 61.9421 42.7687 62.0316 42.7521C62.1211 42.7356 62.1907 42.7223 62.2404 42.7124L62.5089 43.9403C62.4227 43.9735 62.3001 44.0066 62.141 44.0398C61.9819 44.0762 61.783 44.0961 61.5444 44.0994C61.1533 44.1061 60.7887 44.0365 60.4507 43.8906C60.1126 43.7448 59.8392 43.5194 59.6303 43.2145C59.4215 42.9096 59.3171 42.5268 59.3171 42.0661V34.5341ZM65.6646 39.4659V44H64.1781V33.8182H65.6447V37.6065H65.7392C65.9182 37.1955 66.1916 36.8691 66.5595 36.6271C66.9274 36.3852 67.408 36.2642 68.0013 36.2642C68.5249 36.2642 68.9823 36.3719 69.3734 36.5874C69.7678 36.8028 70.0728 37.1243 70.2882 37.5518C70.5069 37.9761 70.6163 38.5064 70.6163 39.1428V44H69.1298V39.3217C69.1298 38.7616 68.9856 38.3274 68.6973 38.0192C68.4089 37.7076 68.0079 37.5518 67.4942 37.5518C67.1428 37.5518 66.828 37.6264 66.5496 37.7756C66.2745 37.9247 66.0574 38.1435 65.8983 38.4318C65.7425 38.7169 65.6646 39.0616 65.6646 39.4659ZM75.8166 44.1541C75.1007 44.1541 74.4759 43.9901 73.9423 43.6619C73.4087 43.3338 72.9944 42.8748 72.6994 42.2848C72.4044 41.6948 72.2569 41.0054 72.2569 40.2166C72.2569 39.4245 72.4044 38.7318 72.6994 38.1385C72.9944 37.5452 73.4087 37.0845 73.9423 36.7564C74.4759 36.4283 75.1007 36.2642 75.8166 36.2642C76.5325 36.2642 77.1573 36.4283 77.6909 36.7564C78.2245 37.0845 78.6388 37.5452 78.9338 38.1385C79.2288 38.7318 79.3763 39.4245 79.3763 40.2166C79.3763 41.0054 79.2288 41.6948 78.9338 42.2848C78.6388 42.8748 78.2245 43.3338 77.6909 43.6619C77.1573 43.9901 76.5325 44.1541 75.8166 44.1541ZM75.8216 42.9062C76.2856 42.9062 76.6701 42.7836 76.975 42.5384C77.2799 42.2931 77.5053 41.9666 77.6511 41.5589C77.8003 41.1513 77.8748 40.7022 77.8748 40.2116C77.8748 39.7244 77.8003 39.277 77.6511 38.8693C77.5053 38.4583 77.2799 38.1286 76.975 37.88C76.6701 37.6314 76.2856 37.5071 75.8216 37.5071C75.3542 37.5071 74.9665 37.6314 74.6582 37.88C74.3533 38.1286 74.1263 38.4583 73.9771 38.8693C73.8313 39.277 73.7584 39.7244 73.7584 40.2116C73.7584 40.7022 73.8313 41.1513 73.9771 41.5589C74.1263 41.9666 74.3533 42.2931 74.6582 42.5384C74.9665 42.7836 75.3542 42.9062 75.8216 42.9062ZM83.8942 44.1491C83.2777 44.1491 82.7275 43.9917 82.2436 43.6768C81.763 43.3587 81.3852 42.9062 81.1101 42.3196C80.8383 41.7296 80.7024 41.022 80.7024 40.1967C80.7024 39.3714 80.84 38.6655 81.1151 38.0788C81.3935 37.4922 81.7746 37.0431 82.2585 36.7315C82.7424 36.42 83.291 36.2642 83.9041 36.2642C84.3781 36.2642 84.7593 36.3438 85.0476 36.5028C85.3393 36.6586 85.5646 36.8409 85.7237 37.0497C85.8861 37.2585 86.0121 37.4425 86.1016 37.6016H86.1911V33.8182H87.6776V44H86.2259V42.8118H86.1016C86.0121 42.9742 85.8828 43.1598 85.7138 43.3686C85.5481 43.5774 85.3194 43.7597 85.0277 43.9155C84.7361 44.0713 84.3582 44.1491 83.8942 44.1491ZM84.2223 42.8814C84.6499 42.8814 85.0111 42.7687 85.3061 42.5433C85.6044 42.3146 85.8298 41.9981 85.9823 41.5938C86.138 41.1894 86.2159 40.7187 86.2159 40.1818C86.2159 39.6515 86.1397 39.1875 85.9872 38.7898C85.8348 38.392 85.6111 38.0821 85.3161 37.8601C85.0211 37.638 84.6565 37.527 84.2223 37.527C83.7749 37.527 83.402 37.643 83.1037 37.875C82.8054 38.107 82.58 38.4235 82.4276 38.8246C82.2784 39.2256 82.2039 39.678 82.2039 40.1818C82.2039 40.6922 82.2801 41.1513 82.4325 41.5589C82.585 41.9666 82.8104 42.2898 83.1087 42.5284C83.4103 42.7637 83.7815 42.8814 84.2223 42.8814Z" fill="#6366F1"/>
</svg>
