<svg width="146" height="56" viewBox="0 0 146 56" fill="none" xmlns="http://www.w3.org/2000/svg">
<g filter="url(#filter0_d_99_25)">
<rect x="8" y="6" width="129.5" height="40" rx="10" fill="white" shape-rendering="crispEdges"/>
<rect x="8.5" y="6.5" width="128.5" height="39" rx="9.5" stroke="#EAEAEA" shape-rendering="crispEdges"/>
<path d="M56.7195 24.7536H54.8601C54.8071 24.4486 54.7093 24.1785 54.5668 23.9432C54.4242 23.7045 54.2469 23.5024 54.0348 23.3366C53.8227 23.1709 53.5807 23.0466 53.3089 22.9638C53.0405 22.8776 52.7505 22.8345 52.4389 22.8345C51.8854 22.8345 51.3949 22.9737 50.9673 23.2521C50.5398 23.5272 50.205 23.9316 49.9631 24.4652C49.7211 24.9955 49.6001 25.6435 49.6001 26.4091C49.6001 27.188 49.7211 27.8442 49.9631 28.3778C50.2083 28.9081 50.5431 29.3092 50.9673 29.581C51.3949 29.8494 51.8838 29.9837 52.4339 29.9837C52.7389 29.9837 53.0239 29.9439 53.2891 29.8643C53.5575 29.7815 53.7978 29.6605 54.0099 29.5014C54.2254 29.3423 54.406 29.1468 54.5518 28.9148C54.701 28.6828 54.8037 28.4176 54.8601 28.1193L56.7195 28.1293C56.6499 28.6132 56.4991 29.0672 56.267 29.4915C56.0384 29.9157 55.7384 30.2902 55.3672 30.6151C54.996 30.9366 54.5618 31.1884 54.0646 31.3707C53.5675 31.5497 53.0156 31.6392 52.4091 31.6392C51.5142 31.6392 50.7154 31.4321 50.0128 31.0178C49.3101 30.6035 48.7566 30.0052 48.3523 29.223C47.9479 28.4408 47.7457 27.5028 47.7457 26.4091C47.7457 25.312 47.9496 24.3741 48.3572 23.5952C48.7649 22.813 49.3201 22.2147 50.0227 21.8004C50.7254 21.3861 51.5208 21.179 52.4091 21.179C52.9759 21.179 53.5028 21.2585 53.9901 21.4176C54.4773 21.5767 54.9115 21.8104 55.2926 22.1186C55.6738 22.4235 55.987 22.7981 56.2322 23.2422C56.4808 23.683 56.6432 24.1868 56.7195 24.7536ZM60.5265 31.6541C60.0426 31.6541 59.6067 31.5679 59.2189 31.3956C58.8345 31.2199 58.5295 30.9614 58.3042 30.62C58.0821 30.2786 57.9711 29.8577 57.9711 29.3572C57.9711 28.9264 58.0506 28.5701 58.2097 28.2884C58.3688 28.0066 58.5859 27.7812 58.861 27.6122C59.1361 27.4432 59.446 27.3156 59.7907 27.2294C60.1387 27.1399 60.4983 27.0753 60.8695 27.0355C61.3169 26.9891 61.6799 26.9477 61.9583 26.9112C62.2367 26.8714 62.4389 26.8118 62.5648 26.7322C62.6941 26.6494 62.7587 26.5218 62.7587 26.3494V26.3196C62.7587 25.9451 62.6477 25.6551 62.4256 25.4496C62.2035 25.2441 61.8837 25.1413 61.4661 25.1413C61.0253 25.1413 60.6756 25.2375 60.4171 25.4297C60.1619 25.6219 59.9895 25.849 59.9 26.1108L58.2196 25.8722C58.3522 25.4081 58.571 25.0204 58.8759 24.7088C59.1808 24.3939 59.5537 24.1586 59.9945 24.0028C60.4353 23.8438 60.9225 23.7642 61.4561 23.7642C61.824 23.7642 62.1903 23.8073 62.5549 23.8935C62.9194 23.9796 63.2525 24.1222 63.5542 24.321C63.8558 24.5166 64.0977 24.7834 64.28 25.1214C64.4656 25.4595 64.5584 25.8821 64.5584 26.3892V31.5H62.8283V30.451H62.7686C62.6593 30.6631 62.5051 30.862 62.3063 31.0476C62.1107 31.2299 61.8638 31.3774 61.5655 31.4901C61.2705 31.5994 60.9242 31.6541 60.5265 31.6541ZM60.9938 30.3317C61.3551 30.3317 61.6683 30.2604 61.9334 30.1179C62.1986 29.9721 62.4024 29.7798 62.5449 29.5412C62.6908 29.3026 62.7637 29.0424 62.7637 28.7607V27.8608C62.7073 27.9072 62.6112 27.9503 62.4753 27.9901C62.3427 28.0298 62.1936 28.0646 62.0279 28.0945C61.8622 28.1243 61.6981 28.1508 61.5357 28.174C61.3733 28.1972 61.2324 28.2171 61.1131 28.2337C60.8446 28.2701 60.6043 28.3298 60.3922 28.4126C60.1801 28.4955 60.0127 28.6115 59.8901 28.7607C59.7675 28.9065 59.7061 29.0954 59.7061 29.3274C59.7061 29.6589 59.8271 29.9091 60.0691 30.0781C60.311 30.2472 60.6193 30.3317 60.9938 30.3317ZM72.4036 25.8821L70.763 26.0611C70.7166 25.8954 70.6354 25.7396 70.5194 25.5938C70.4067 25.4479 70.2542 25.3303 70.062 25.2408C69.8697 25.1513 69.6344 25.1065 69.356 25.1065C68.9815 25.1065 68.6666 25.1877 68.4114 25.3501C68.1595 25.5125 68.0352 25.723 68.0385 25.9815C68.0352 26.2036 68.1164 26.3842 68.2821 26.5234C68.4512 26.6626 68.7296 26.777 69.1174 26.8665L70.4199 27.1449C71.1425 27.3007 71.6794 27.5476 72.0307 27.8857C72.3854 28.2237 72.5643 28.6662 72.5676 29.2131C72.5643 29.6937 72.4235 30.1179 72.1451 30.4858C71.87 30.8504 71.4872 31.1354 70.9966 31.3409C70.5061 31.5464 69.9426 31.6491 69.3063 31.6491C68.3716 31.6491 67.6193 31.4536 67.0492 31.0625C66.4791 30.6681 66.1394 30.1196 66.03 29.4169L67.785 29.2479C67.8645 29.5926 68.0336 29.8527 68.2921 30.0284C68.5506 30.2041 68.887 30.2919 69.3013 30.2919C69.7289 30.2919 70.0719 30.2041 70.3304 30.0284C70.5923 29.8527 70.7232 29.6357 70.7232 29.3771C70.7232 29.1584 70.6387 28.9777 70.4696 28.8352C70.3039 28.6927 70.0454 28.5833 69.6941 28.5071L68.3915 28.2337C67.659 28.0812 67.1171 27.8243 66.7658 27.4631C66.4145 27.0985 66.2405 26.6378 66.2438 26.081C66.2405 25.6103 66.3681 25.2027 66.6266 24.858C66.8884 24.5099 67.2514 24.2415 67.7154 24.0526C68.1827 23.8603 68.7213 23.7642 69.3311 23.7642C70.226 23.7642 70.9303 23.9548 71.4441 24.3359C71.9611 24.7171 72.281 25.2325 72.4036 25.8821ZM75.8514 27.0256V31.5H74.0517V21.3182H75.8116V25.1612H75.9011C76.0801 24.7304 76.3568 24.3906 76.7314 24.142C77.1092 23.8902 77.5898 23.7642 78.1731 23.7642C78.7034 23.7642 79.1658 23.8752 79.5602 24.0973C79.9546 24.3194 80.2595 24.6442 80.475 25.0717C80.6937 25.4993 80.8031 26.0213 80.8031 26.6378V31.5H79.0034V26.9162C79.0034 26.4025 78.8708 26.0031 78.6056 25.718C78.3438 25.4297 77.9759 25.2855 77.502 25.2855C77.1838 25.2855 76.8987 25.3551 76.6468 25.4943C76.3983 25.6302 76.2027 25.8274 76.0602 26.0859C75.921 26.3445 75.8514 26.6577 75.8514 27.0256ZM87.4973 31.5H85.5286L89.1131 21.3182H91.3901L94.9796 31.5H93.0108L90.2914 23.4062H90.2118L87.4973 31.5ZM87.562 27.5078H92.9313V28.9893H87.562V27.5078ZM96.2411 34.3636V23.8636H98.011V25.1264H98.1154C98.2082 24.9408 98.3391 24.7436 98.5082 24.5348C98.6772 24.3227 98.9059 24.142 99.1942 23.9929C99.4826 23.8404 99.8505 23.7642 100.298 23.7642C100.888 23.7642 101.42 23.915 101.894 24.2166C102.371 24.5149 102.749 24.9574 103.027 25.544C103.309 26.1274 103.45 26.8433 103.45 27.6918C103.45 28.5303 103.312 29.2429 103.037 29.8295C102.762 30.4162 102.388 30.8636 101.914 31.1719C101.44 31.4801 100.903 31.6342 100.303 31.6342C99.8654 31.6342 99.5025 31.5613 99.2141 31.4155C98.9258 31.2696 98.6938 31.094 98.5181 30.8885C98.3458 30.6797 98.2115 30.4825 98.1154 30.2969H98.0408V34.3636H96.2411ZM98.006 27.6818C98.006 28.1757 98.0756 28.6082 98.2148 28.9794C98.3574 29.3506 98.5612 29.6406 98.8263 29.8494C99.0948 30.0549 99.4196 30.1577 99.8008 30.1577C100.199 30.1577 100.532 30.0516 100.8 29.8395C101.069 29.6241 101.271 29.3307 101.407 28.9595C101.546 28.585 101.615 28.1591 101.615 27.6818C101.615 27.2079 101.547 26.7869 101.412 26.419C101.276 26.0511 101.074 25.7628 100.805 25.554C100.537 25.3452 100.202 25.2408 99.8008 25.2408C99.4163 25.2408 99.0898 25.3419 98.8214 25.544C98.5529 25.7462 98.3491 26.0296 98.2099 26.3942C98.074 26.7588 98.006 27.188 98.006 27.6818ZM104.991 34.3636V23.8636H106.761V25.1264H106.865C106.958 24.9408 107.089 24.7436 107.258 24.5348C107.427 24.3227 107.656 24.142 107.944 23.9929C108.233 23.8404 108.6 23.7642 109.048 23.7642C109.638 23.7642 110.17 23.915 110.644 24.2166C111.121 24.5149 111.499 24.9574 111.777 25.544C112.059 26.1274 112.2 26.8433 112.2 27.6918C112.2 28.5303 112.062 29.2429 111.787 29.8295C111.512 30.4162 111.138 30.8636 110.664 31.1719C110.19 31.4801 109.653 31.6342 109.053 31.6342C108.615 31.6342 108.252 31.5613 107.964 31.4155C107.676 31.2696 107.444 31.094 107.268 30.8885C107.096 30.6797 106.962 30.4825 106.865 30.2969H106.791V34.3636H104.991ZM106.756 27.6818C106.756 28.1757 106.826 28.6082 106.965 28.9794C107.107 29.3506 107.311 29.6406 107.576 29.8494C107.845 30.0549 108.17 30.1577 108.551 30.1577C108.949 30.1577 109.282 30.0516 109.55 29.8395C109.819 29.6241 110.021 29.3307 110.157 28.9595C110.296 28.585 110.365 28.1591 110.365 27.6818C110.365 27.2079 110.297 26.7869 110.162 26.419C110.026 26.0511 109.824 25.7628 109.555 25.554C109.287 25.3452 108.952 25.2408 108.551 25.2408C108.166 25.2408 107.84 25.3419 107.571 25.544C107.303 25.7462 107.099 26.0296 106.96 26.3942C106.824 26.7588 106.756 27.188 106.756 27.6818Z" fill="#111827"/>
</g>
<defs>
<filter id="filter0_d_99_25" x="0" y="0" width="145.5" height="56" filterUnits="userSpaceOnUse" color-interpolation-filters="sRGB">
<feFlood flood-opacity="0" result="BackgroundImageFix"/>
<feColorMatrix in="SourceAlpha" type="matrix" values="0 0 0 0 0 0 0 0 0 0 0 0 0 0 0 0 0 0 127 0" result="hardAlpha"/>
<feOffset dy="2"/>
<feGaussianBlur stdDeviation="4"/>
<feComposite in2="hardAlpha" operator="out"/>
<feColorMatrix type="matrix" values="0 0 0 0 0 0 0 0 0 0 0 0 0 0 0 0 0 0 0.03 0"/>
<feBlend mode="normal" in2="BackgroundImageFix" result="effect1_dropShadow_99_25"/>
<feBlend mode="normal" in="SourceGraphic" in2="effect1_dropShadow_99_25" result="shape"/>
</filter>
</defs>
</svg>
