<svg width="560" height="88" viewBox="0 0 560 88" fill="none" xmlns="http://www.w3.org/2000/svg">
<g opacity="0.6" filter="url(#filter0_d_99_39)">
<rect x="22" y="12" width="516" height="44" rx="12" fill="#6366F1" shape-rendering="crispEdges"/>
<rect x="22.5" y="12.5" width="515" height="43" rx="11.5" stroke="#6366F1" shape-rendering="crispEdges"/>
<path d="M257.444 39.5V29.3182H261.262C262.045 29.3182 262.701 29.464 263.231 29.7557C263.765 30.0473 264.167 30.4484 264.439 30.9588C264.714 31.4659 264.852 32.0426 264.852 32.6889C264.852 33.3419 264.714 33.9219 264.439 34.429C264.164 34.9361 263.758 35.3355 263.221 35.6271C262.684 35.9155 262.023 36.0597 261.238 36.0597H258.707V34.5433H260.989C261.446 34.5433 261.821 34.4638 262.113 34.3047C262.404 34.1456 262.62 33.9268 262.759 33.6484C262.901 33.37 262.973 33.0502 262.973 32.6889C262.973 32.3277 262.901 32.0095 262.759 31.7344C262.62 31.4593 262.403 31.2455 262.108 31.093C261.816 30.9373 261.44 30.8594 260.979 30.8594H259.289V39.5H257.444ZM268.435 39.6541C267.951 39.6541 267.515 39.5679 267.128 39.3956C266.743 39.2199 266.438 38.9614 266.213 38.62C265.991 38.2786 265.88 37.8577 265.88 37.3572C265.88 36.9264 265.959 36.5701 266.118 36.2884C266.277 36.0066 266.495 35.7812 266.77 35.6122C267.045 35.4432 267.355 35.3156 267.699 35.2294C268.047 35.1399 268.407 35.0753 268.778 35.0355C269.226 34.9891 269.589 34.9477 269.867 34.9112C270.145 34.8714 270.348 34.8118 270.473 34.7322C270.603 34.6494 270.667 34.5218 270.667 34.3494V34.3196C270.667 33.9451 270.556 33.6551 270.334 33.4496C270.112 33.2441 269.792 33.1413 269.375 33.1413C268.934 33.1413 268.584 33.2375 268.326 33.4297C268.071 33.6219 267.898 33.849 267.809 34.1108L266.128 33.8722C266.261 33.4081 266.48 33.0204 266.785 32.7088C267.09 32.3939 267.462 32.1586 267.903 32.0028C268.344 31.8438 268.831 31.7642 269.365 31.7642C269.733 31.7642 270.099 31.8073 270.464 31.8935C270.828 31.9796 271.161 32.1222 271.463 32.321C271.764 32.5166 272.006 32.7834 272.189 33.1214C272.374 33.4595 272.467 33.8821 272.467 34.3892V39.5H270.737V38.451H270.677C270.568 38.6631 270.414 38.862 270.215 39.0476C270.019 39.2299 269.773 39.3774 269.474 39.4901C269.179 39.5994 268.833 39.6541 268.435 39.6541ZM268.902 38.3317C269.264 38.3317 269.577 38.2604 269.842 38.1179C270.107 37.9721 270.311 37.7798 270.454 37.5412C270.599 37.3026 270.672 37.0424 270.672 36.7607V35.8608C270.616 35.9072 270.52 35.9503 270.384 35.9901C270.251 36.0298 270.102 36.0646 269.937 36.0945C269.771 36.1243 269.607 36.1508 269.444 36.174C269.282 36.1972 269.141 36.2171 269.022 36.2337C268.753 36.2701 268.513 36.3298 268.301 36.4126C268.089 36.4955 267.921 36.6115 267.799 36.7607C267.676 36.9065 267.615 37.0954 267.615 37.3274C267.615 37.6589 267.736 37.9091 267.978 38.0781C268.22 38.2472 268.528 38.3317 268.902 38.3317ZM275.122 42.3636C274.877 42.3636 274.65 42.3438 274.441 42.304C274.235 42.2675 274.071 42.2244 273.949 42.1747L274.366 40.7727C274.628 40.849 274.862 40.8854 275.067 40.8821C275.273 40.8788 275.453 40.8142 275.609 40.6882C275.768 40.5656 275.902 40.3601 276.012 40.0717L276.166 39.6591L273.397 31.8636H275.306L277.066 37.6307H277.145L278.91 31.8636H280.824L277.767 40.4247C277.624 40.8291 277.435 41.1754 277.2 41.4638C276.965 41.7554 276.676 41.9775 276.335 42.13C275.997 42.2857 275.593 42.3636 275.122 42.3636ZM288.804 40.7727V28.0455H289.619V40.7727H288.804ZM291.155 32.1172C291.109 31.683 290.913 31.3449 290.569 31.103C290.227 30.861 289.783 30.7401 289.236 30.7401C288.852 30.7401 288.522 30.7981 288.247 30.9141C287.972 31.0301 287.761 31.1875 287.616 31.3864C287.47 31.5852 287.395 31.8123 287.392 32.0675C287.392 32.2796 287.44 32.4635 287.536 32.6193C287.635 32.7751 287.77 32.9077 287.939 33.017C288.108 33.1231 288.295 33.2126 288.5 33.2855C288.706 33.3584 288.913 33.4197 289.122 33.4695L290.076 33.7081C290.461 33.7976 290.831 33.9186 291.185 34.071C291.543 34.2235 291.863 34.4157 292.145 34.6477C292.43 34.8797 292.655 35.1598 292.821 35.4879C292.987 35.8161 293.069 36.2005 293.069 36.6413C293.069 37.2379 292.917 37.7633 292.612 38.2173C292.307 38.6681 291.866 39.0211 291.29 39.2763C290.716 39.5282 290.022 39.6541 289.206 39.6541C288.414 39.6541 287.727 39.5315 287.143 39.2862C286.563 39.041 286.109 38.683 285.781 38.2124C285.456 37.7417 285.281 37.1683 285.254 36.4922H287.069C287.095 36.8468 287.205 37.1418 287.397 37.3771C287.589 37.6125 287.839 37.7881 288.148 37.9041C288.459 38.0201 288.807 38.0781 289.192 38.0781C289.593 38.0781 289.944 38.0185 290.246 37.8991C290.55 37.7765 290.789 37.6075 290.961 37.392C291.134 37.1733 291.222 36.9181 291.225 36.6264C291.222 36.3613 291.144 36.1425 290.991 35.9702C290.839 35.7945 290.625 35.6487 290.35 35.5327C290.078 35.4134 289.76 35.3073 289.395 35.2145L288.237 34.9162C287.398 34.7008 286.736 34.3743 286.248 33.9368C285.764 33.496 285.523 32.911 285.523 32.1818C285.523 31.5819 285.685 31.0566 286.01 30.6058C286.338 30.1551 286.784 29.8054 287.347 29.5568C287.911 29.3049 288.549 29.179 289.261 29.179C289.984 29.179 290.617 29.3049 291.16 29.5568C291.707 29.8054 292.136 30.1518 292.448 30.5959C292.759 31.0367 292.92 31.5438 292.93 32.1172H291.155ZM298.756 29.3182V39.5H296.911V31.1129H296.852L294.47 32.6342V30.9439L297.001 29.3182H298.756ZM305.104 39.6939C304.286 39.6939 303.583 39.4867 302.996 39.0724C302.413 38.6548 301.964 38.0533 301.649 37.2678C301.338 36.4789 301.182 35.5294 301.182 34.419C301.185 33.3087 301.343 32.3641 301.654 31.5852C301.969 30.803 302.418 30.2064 303.001 29.7955C303.588 29.3845 304.289 29.179 305.104 29.179C305.92 29.179 306.621 29.3845 307.207 29.7955C307.794 30.2064 308.243 30.803 308.555 31.5852C308.87 32.3674 309.027 33.312 309.027 34.419C309.027 35.5327 308.87 36.4839 308.555 37.2727C308.243 38.0582 307.794 38.6581 307.207 39.0724C306.624 39.4867 305.923 39.6939 305.104 39.6939ZM305.104 38.1378C305.741 38.1378 306.243 37.8246 306.611 37.1982C306.982 36.5684 307.168 35.642 307.168 34.419C307.168 33.6103 307.083 32.9309 306.914 32.3807C306.745 31.8305 306.506 31.4162 306.198 31.1378C305.89 30.8561 305.525 30.7152 305.104 30.7152C304.471 30.7152 303.971 31.0301 303.603 31.6598C303.235 32.2862 303.049 33.206 303.046 34.419C303.043 35.2311 303.124 35.9138 303.29 36.4673C303.459 37.0208 303.697 37.4384 304.006 37.7202C304.314 37.9986 304.68 38.1378 305.104 38.1378ZM311.411 39.6094C311.109 39.6094 310.851 39.5033 310.635 39.2912C310.42 39.0791 310.314 38.8205 310.317 38.5156C310.314 38.2173 310.42 37.9621 310.635 37.75C310.851 37.5379 311.109 37.4318 311.411 37.4318C311.702 37.4318 311.956 37.5379 312.171 37.75C312.39 37.9621 312.501 38.2173 312.505 38.5156C312.501 38.7178 312.448 38.9018 312.345 39.0675C312.246 39.2332 312.113 39.3658 311.948 39.4652C311.785 39.5613 311.606 39.6094 311.411 39.6094ZM314.159 37.6108V36.1442L318.479 29.3182H319.702V31.4062H318.956L316.048 36.0149V36.0945H322.079V37.6108H314.159ZM319.016 39.5V37.1634L319.036 36.5071V29.3182H320.776V39.5H319.016ZM327.202 29.179C327.689 29.1823 328.163 29.2685 328.624 29.4375C329.088 29.6032 329.505 29.875 329.877 30.2528C330.248 30.6274 330.543 31.1295 330.761 31.7592C330.98 32.389 331.09 33.1679 331.09 34.0959C331.093 34.9709 331 35.7531 330.811 36.4425C330.626 37.1286 330.359 37.7086 330.011 38.1825C329.663 38.6565 329.244 39.0178 328.753 39.2663C328.262 39.5149 327.711 39.6392 327.097 39.6392C326.454 39.6392 325.884 39.5133 325.387 39.2614C324.893 39.0095 324.494 38.6648 324.189 38.2273C323.884 37.7898 323.697 37.2893 323.627 36.7259H325.442C325.535 37.1302 325.724 37.4517 326.009 37.6903C326.297 37.9257 326.66 38.0433 327.097 38.0433C327.803 38.0433 328.347 37.7367 328.728 37.1236C329.109 36.5104 329.3 35.6586 329.3 34.5682H329.23C329.068 34.8598 328.857 35.1117 328.599 35.3239C328.34 35.5327 328.047 35.6934 327.719 35.8061C327.394 35.9188 327.049 35.9751 326.685 35.9751C326.088 35.9751 325.551 35.8326 325.074 35.5476C324.6 35.2625 324.224 34.8714 323.945 34.3743C323.67 33.8771 323.531 33.3087 323.528 32.669C323.528 32.0062 323.68 31.4112 323.985 30.8842C324.293 30.3539 324.723 29.9363 325.273 29.6314C325.823 29.3232 326.466 29.1723 327.202 29.179ZM327.207 30.6705C326.849 30.6705 326.526 30.7583 326.237 30.9339C325.952 31.1063 325.727 31.3416 325.561 31.6399C325.399 31.9349 325.318 32.2647 325.318 32.6293C325.321 32.9905 325.402 33.3187 325.561 33.6136C325.724 33.9086 325.944 34.1423 326.222 34.3146C326.504 34.487 326.826 34.5732 327.187 34.5732C327.455 34.5732 327.706 34.5218 327.938 34.419C328.17 34.3163 328.372 34.1738 328.544 33.9915C328.72 33.8059 328.856 33.5954 328.952 33.3601C329.051 33.1248 329.099 32.8762 329.096 32.6143C329.096 32.2663 329.013 31.9448 328.847 31.6499C328.685 31.3549 328.461 31.1179 328.176 30.9389C327.895 30.7599 327.571 30.6705 327.207 30.6705Z" fill="white"/>
</g>
<defs>
<filter id="filter0_d_99_39" x="0" y="0" width="560" height="88" filterUnits="userSpaceOnUse" color-interpolation-filters="sRGB">
<feFlood flood-opacity="0" result="BackgroundImageFix"/>
<feColorMatrix in="SourceAlpha" type="matrix" values="0 0 0 0 0 0 0 0 0 0 0 0 0 0 0 0 0 0 127 0" result="hardAlpha"/>
<feOffset dy="10"/>
<feGaussianBlur stdDeviation="11"/>
<feComposite in2="hardAlpha" operator="out"/>
<feColorMatrix type="matrix" values="0 0 0 0 0.701961 0 0 0 0 0.533333 0 0 0 0 1 0 0 0 0.22 0"/>
<feBlend mode="normal" in2="BackgroundImageFix" result="effect1_dropShadow_99_39"/>
<feBlend mode="normal" in="SourceGraphic" in2="effect1_dropShadow_99_39" result="shape"/>
</filter>
</defs>
</svg>
