<svg width="352" height="48" viewBox="0 0 352 48" fill="none" xmlns="http://www.w3.org/2000/svg">
<path d="M343.344 0C347.762 4.89534e-06 351.344 3.58173 351.344 8V40C351.344 44.4183 347.762 48 343.344 48H8C3.58173 48 1.28856e-07 44.4183 0 40V8C5.15422e-07 3.58172 3.58172 0 8 0H343.344Z" fill="#4B5563"/>
<path d="M343.344 0C347.762 4.89534e-06 351.344 3.58173 351.344 8V40C351.344 44.4183 347.762 48 343.344 48H8C3.58173 48 1.28856e-07 44.4183 0 40V8C5.15422e-07 3.58172 3.58172 0 8 0H343.344Z" stroke="#E5E7EB"/>
<path d="M84.3899 29V17.3636H88.7536C89.6475 17.3636 90.3975 17.5189 91.0036 17.8295C91.6134 18.1402 92.0736 18.5758 92.3842 19.1364C92.6986 19.6932 92.8558 20.3428 92.8558 21.0852C92.8558 21.8314 92.6967 22.4792 92.3786 23.0284C92.0642 23.5739 91.6001 23.9962 90.9865 24.2955C90.3729 24.5909 89.6191 24.7386 88.7251 24.7386H85.6172V22.9886H88.4411C88.9638 22.9886 89.3918 22.9167 89.7251 22.7727C90.0585 22.625 90.3047 22.411 90.4638 22.1307C90.6267 21.8466 90.7081 21.4981 90.7081 21.0852C90.7081 20.6723 90.6267 20.3201 90.4638 20.0284C90.3009 19.733 90.0528 19.5095 89.7195 19.358C89.3861 19.2027 88.9562 19.125 88.4297 19.125H86.4979V29H84.3899ZM90.4013 23.7273L93.282 29H90.9297L88.1001 23.7273H90.4013ZM98.4439 29.1705C97.5689 29.1705 96.8132 28.9886 96.1768 28.625C95.5443 28.2576 95.0575 27.7386 94.7166 27.0682C94.3757 26.3939 94.2053 25.6004 94.2053 24.6875C94.2053 23.7898 94.3757 23.0019 94.7166 22.3239C95.0613 21.642 95.5424 21.1117 96.1598 20.733C96.7772 20.3504 97.5026 20.1591 98.3359 20.1591C98.8738 20.1591 99.3814 20.2462 99.8587 20.4205C100.34 20.5909 100.764 20.8561 101.131 21.2159C101.503 21.5758 101.794 22.0341 102.006 22.5909C102.219 23.1439 102.325 23.803 102.325 24.5682V25.1989H95.1712V23.8125H100.353C100.349 23.4186 100.264 23.0682 100.097 22.7614C99.9306 22.4508 99.6977 22.2064 99.3984 22.0284C99.103 21.8504 98.7583 21.7614 98.3643 21.7614C97.9439 21.7614 97.5746 21.8636 97.2564 22.0682C96.9382 22.2689 96.6901 22.5341 96.5121 22.8636C96.3378 23.1894 96.2488 23.5473 96.245 23.9375V25.1477C96.245 25.6553 96.3378 26.0909 96.5234 26.4545C96.709 26.8144 96.9685 27.0909 97.3018 27.2841C97.6352 27.4735 98.0253 27.5682 98.4723 27.5682C98.7715 27.5682 99.0424 27.5265 99.2848 27.4432C99.5272 27.3561 99.7375 27.2292 99.9155 27.0625C100.094 26.8958 100.228 26.6894 100.319 26.4432L102.239 26.6591C102.118 27.1667 101.887 27.6098 101.546 27.9886C101.209 28.3636 100.777 28.6553 100.251 28.8636C99.7242 29.0682 99.1219 29.1705 98.4439 29.1705ZM104.065 20.2727H106.121V29.5C106.121 30.1288 106.002 30.6477 105.763 31.0568C105.525 31.4659 105.18 31.7708 104.729 31.9716C104.279 32.1723 103.731 32.2727 103.087 32.2727C103.012 32.2727 102.942 32.2708 102.877 32.267C102.813 32.267 102.743 32.2652 102.667 32.2614V30.5852C102.724 30.589 102.775 30.5909 102.82 30.5909C102.866 30.5947 102.913 30.5966 102.962 30.5966C103.356 30.5966 103.638 30.5 103.809 30.3068C103.979 30.1174 104.065 29.839 104.065 29.4716V20.2727ZM105.087 19.0341C104.758 19.0341 104.476 18.9261 104.241 18.7102C104.01 18.4905 103.894 18.2273 103.894 17.9205C103.894 17.6098 104.01 17.3466 104.241 17.1307C104.476 16.911 104.758 16.8011 105.087 16.8011C105.413 16.8011 105.692 16.911 105.923 17.1307C106.157 17.3466 106.275 17.6098 106.275 17.9205C106.275 18.2273 106.157 18.4905 105.923 18.7102C105.692 18.9261 105.413 19.0341 105.087 19.0341ZM112.1 29.1705C111.225 29.1705 110.469 28.9886 109.833 28.625C109.201 28.2576 108.714 27.7386 108.373 27.0682C108.032 26.3939 107.862 25.6004 107.862 24.6875C107.862 23.7898 108.032 23.0019 108.373 22.3239C108.718 21.642 109.199 21.1117 109.816 20.733C110.433 20.3504 111.159 20.1591 111.992 20.1591C112.53 20.1591 113.038 20.2462 113.515 20.4205C113.996 20.5909 114.42 20.8561 114.788 21.2159C115.159 21.5758 115.451 22.0341 115.663 22.5909C115.875 23.1439 115.981 23.803 115.981 24.5682V25.1989H108.827V23.8125H114.009C114.005 23.4186 113.92 23.0682 113.754 22.7614C113.587 22.4508 113.354 22.2064 113.055 22.0284C112.759 21.8504 112.415 21.7614 112.021 21.7614C111.6 21.7614 111.231 21.8636 110.913 22.0682C110.594 22.2689 110.346 22.5341 110.168 22.8636C109.994 23.1894 109.905 23.5473 109.901 23.9375V25.1477C109.901 25.6553 109.994 26.0909 110.18 26.4545C110.365 26.8144 110.625 27.0909 110.958 27.2841C111.291 27.4735 111.682 27.5682 112.129 27.5682C112.428 27.5682 112.699 27.5265 112.941 27.4432C113.183 27.3561 113.394 27.2292 113.572 27.0625C113.75 26.8958 113.884 26.6894 113.975 26.4432L115.896 26.6591C115.774 27.1667 115.543 27.6098 115.202 27.9886C114.865 28.3636 114.433 28.6553 113.907 28.8636C113.38 29.0682 112.778 29.1705 112.1 29.1705ZM121.528 29.1705C120.656 29.1705 119.908 28.9792 119.283 28.5966C118.662 28.214 118.183 27.6856 117.846 27.0114C117.513 26.3333 117.346 25.553 117.346 24.6705C117.346 23.7841 117.516 23.0019 117.857 22.3239C118.198 21.642 118.679 21.1117 119.3 20.733C119.925 20.3504 120.664 20.1591 121.516 20.1591C122.225 20.1591 122.852 20.2898 123.397 20.5511C123.946 20.8087 124.384 21.1742 124.71 21.6477C125.035 22.1174 125.221 22.6667 125.266 23.2955H123.3C123.221 22.875 123.031 22.5246 122.732 22.2443C122.437 21.9602 122.041 21.8182 121.545 21.8182C121.124 21.8182 120.755 21.9318 120.437 22.1591C120.119 22.3826 119.871 22.7045 119.692 23.125C119.518 23.5455 119.431 24.0492 119.431 24.6364C119.431 25.2311 119.518 25.7424 119.692 26.1705C119.867 26.5947 120.111 26.9223 120.425 27.1534C120.744 27.3807 121.117 27.4943 121.545 27.4943C121.848 27.4943 122.119 27.4375 122.357 27.3239C122.6 27.2064 122.802 27.0379 122.965 26.8182C123.128 26.5985 123.24 26.3314 123.3 26.017H125.266C125.217 26.6345 125.035 27.1818 124.721 27.6591C124.406 28.1326 123.978 28.5038 123.437 28.7727C122.895 29.0379 122.259 29.1705 121.528 29.1705ZM131.313 20.2727V21.8636H126.296V20.2727H131.313ZM127.535 18.1818H129.592V26.375C129.592 26.6515 129.633 26.8636 129.717 27.0114C129.804 27.1553 129.917 27.2538 130.058 27.3068C130.198 27.3598 130.353 27.3864 130.523 27.3864C130.652 27.3864 130.77 27.3769 130.876 27.358C130.986 27.339 131.069 27.322 131.126 27.3068L131.472 28.9148C131.362 28.9527 131.205 28.9943 131.001 29.0398C130.8 29.0852 130.554 29.1117 130.262 29.1193C129.747 29.1345 129.283 29.0568 128.87 28.8864C128.457 28.7121 128.129 28.4432 127.887 28.0795C127.648 27.7159 127.531 27.2614 127.535 26.7159V18.1818ZM138.587 29H136.337L140.434 17.3636H143.036L147.138 29H144.888L141.781 19.75H141.69L138.587 29ZM138.661 24.4375H144.798V26.1307H138.661V24.4375ZM150.637 17.3636V29H148.58V17.3636H150.637ZM154.809 17.3636V29H152.752V17.3636H154.809ZM170.546 17.3636V29H168.671L163.188 21.0739H163.092V29H160.984V17.3636H162.87L168.347 25.2955H168.45V17.3636H170.546ZM176.559 29.1705C175.707 29.1705 174.968 28.983 174.343 28.608C173.718 28.233 173.233 27.7083 172.888 27.0341C172.548 26.3598 172.377 25.572 172.377 24.6705C172.377 23.7689 172.548 22.9792 172.888 22.3011C173.233 21.6231 173.718 21.0966 174.343 20.7216C174.968 20.3466 175.707 20.1591 176.559 20.1591C177.411 20.1591 178.15 20.3466 178.775 20.7216C179.4 21.0966 179.883 21.6231 180.224 22.3011C180.568 22.9792 180.741 23.7689 180.741 24.6705C180.741 25.572 180.568 26.3598 180.224 27.0341C179.883 27.7083 179.4 28.233 178.775 28.608C178.15 28.983 177.411 29.1705 176.559 29.1705ZM176.57 27.5227C177.032 27.5227 177.419 27.3958 177.729 27.142C178.04 26.8845 178.271 26.5398 178.423 26.108C178.578 25.6761 178.656 25.1951 178.656 24.6648C178.656 24.1307 178.578 23.6477 178.423 23.2159C178.271 22.7803 178.04 22.4337 177.729 22.1761C177.419 21.9186 177.032 21.7898 176.57 21.7898C176.097 21.7898 175.703 21.9186 175.388 22.1761C175.078 22.4337 174.845 22.7803 174.69 23.2159C174.538 23.6477 174.462 24.1307 174.462 24.6648C174.462 25.1951 174.538 25.6761 174.69 26.108C174.845 26.5398 175.078 26.8845 175.388 27.142C175.703 27.3958 176.097 27.5227 176.57 27.5227ZM184.543 23.8864V29H182.487V20.2727H184.452V21.7557H184.555C184.755 21.267 185.076 20.8788 185.515 20.5909C185.958 20.303 186.505 20.1591 187.157 20.1591C187.759 20.1591 188.284 20.2879 188.731 20.5455C189.182 20.803 189.53 21.1761 189.776 21.6648C190.026 22.1534 190.149 22.7462 190.146 23.4432V29H188.089V23.7614C188.089 23.178 187.937 22.7216 187.634 22.392C187.335 22.0625 186.92 21.8977 186.39 21.8977C186.03 21.8977 185.71 21.9773 185.43 22.1364C185.153 22.2917 184.935 22.517 184.776 22.8125C184.621 23.108 184.543 23.4659 184.543 23.8864ZM197.526 23.3068V25H192.288V23.3068H197.526ZM199.781 29V17.3636H207.349V19.1307H201.888V22.2898H206.957V24.0568H201.888V27.233H207.394V29H199.781ZM216.306 22.5795L214.431 22.7841C214.378 22.5947 214.285 22.4167 214.153 22.25C214.024 22.0833 213.85 21.9489 213.63 21.8466C213.41 21.7443 213.141 21.6932 212.823 21.6932C212.395 21.6932 212.035 21.786 211.744 21.9716C211.456 22.1572 211.314 22.3977 211.317 22.6932C211.314 22.947 211.406 23.1534 211.596 23.3125C211.789 23.4716 212.107 23.6023 212.55 23.7045L214.039 24.0227C214.865 24.2008 215.478 24.483 215.88 24.8693C216.285 25.2557 216.49 25.7614 216.494 26.3864C216.49 26.9356 216.329 27.4205 216.011 27.8409C215.696 28.2576 215.259 28.5833 214.698 28.8182C214.138 29.053 213.494 29.1705 212.766 29.1705C211.698 29.1705 210.838 28.947 210.187 28.5C209.535 28.0492 209.147 27.4223 209.022 26.6193L211.028 26.4261C211.119 26.8201 211.312 27.1174 211.607 27.3182C211.903 27.5189 212.287 27.6193 212.761 27.6193C213.249 27.6193 213.641 27.5189 213.937 27.3182C214.236 27.1174 214.386 26.8693 214.386 26.5739C214.386 26.3239 214.289 26.1174 214.096 25.9545C213.906 25.7917 213.611 25.6667 213.21 25.5795L211.721 25.267C210.884 25.0928 210.264 24.7992 209.863 24.3864C209.461 23.9697 209.263 23.4432 209.266 22.8068C209.263 22.2689 209.408 21.803 209.704 21.4091C210.003 21.0114 210.418 20.7045 210.948 20.4886C211.482 20.2689 212.098 20.1591 212.795 20.1591C213.817 20.1591 214.622 20.3769 215.21 20.8125C215.8 21.2481 216.166 21.8371 216.306 22.5795ZM225.087 22.5795L223.212 22.7841C223.159 22.5947 223.067 22.4167 222.934 22.25C222.805 22.0833 222.631 21.9489 222.411 21.8466C222.192 21.7443 221.923 21.6932 221.604 21.6932C221.176 21.6932 220.817 21.786 220.525 21.9716C220.237 22.1572 220.095 22.3977 220.099 22.6932C220.095 22.947 220.188 23.1534 220.377 23.3125C220.57 23.4716 220.888 23.6023 221.332 23.7045L222.82 24.0227C223.646 24.2008 224.26 24.483 224.661 24.8693C225.067 25.2557 225.271 25.7614 225.275 26.3864C225.271 26.9356 225.11 27.4205 224.792 27.8409C224.478 28.2576 224.04 28.5833 223.479 28.8182C222.919 29.053 222.275 29.1705 221.548 29.1705C220.479 29.1705 219.62 28.947 218.968 28.5C218.317 28.0492 217.928 27.4223 217.803 26.6193L219.809 26.4261C219.9 26.8201 220.093 27.1174 220.388 27.3182C220.684 27.5189 221.068 27.6193 221.542 27.6193C222.031 27.6193 222.423 27.5189 222.718 27.3182C223.017 27.1174 223.167 26.8693 223.167 26.5739C223.167 26.3239 223.07 26.1174 222.877 25.9545C222.688 25.7917 222.392 25.6667 221.991 25.5795L220.502 25.267C219.665 25.0928 219.046 24.7992 218.644 24.3864C218.243 23.9697 218.044 23.4432 218.048 22.8068C218.044 22.2689 218.19 21.803 218.485 21.4091C218.784 21.0114 219.199 20.7045 219.729 20.4886C220.263 20.2689 220.879 20.1591 221.576 20.1591C222.599 20.1591 223.404 20.3769 223.991 20.8125C224.582 21.2481 224.947 21.8371 225.087 22.5795ZM230.835 29.1705C229.96 29.1705 229.204 28.9886 228.567 28.625C227.935 28.2576 227.448 27.7386 227.107 27.0682C226.766 26.3939 226.596 25.6004 226.596 24.6875C226.596 23.7898 226.766 23.0019 227.107 22.3239C227.452 21.642 227.933 21.1117 228.55 20.733C229.168 20.3504 229.893 20.1591 230.727 20.1591C231.264 20.1591 231.772 20.2462 232.249 20.4205C232.73 20.5909 233.155 20.8561 233.522 21.2159C233.893 21.5758 234.185 22.0341 234.397 22.5909C234.609 23.1439 234.715 23.803 234.715 24.5682V25.1989H227.562V23.8125H232.744C232.74 23.4186 232.655 23.0682 232.488 22.7614C232.321 22.4508 232.088 22.2064 231.789 22.0284C231.494 21.8504 231.149 21.7614 230.755 21.7614C230.335 21.7614 229.965 21.8636 229.647 22.0682C229.329 22.2689 229.081 22.5341 228.903 22.8636C228.728 23.1894 228.639 23.5473 228.636 23.9375V25.1477C228.636 25.6553 228.728 26.0909 228.914 26.4545C229.1 26.8144 229.359 27.0909 229.692 27.2841C230.026 27.4735 230.416 27.5682 230.863 27.5682C231.162 27.5682 231.433 27.5265 231.675 27.4432C231.918 27.3561 232.128 27.2292 232.306 27.0625C232.484 26.8958 232.619 26.6894 232.71 26.4432L234.63 26.6591C234.509 27.1667 234.278 27.6098 233.937 27.9886C233.6 28.3636 233.168 28.6553 232.641 28.8636C232.115 29.0682 231.513 29.1705 230.835 29.1705ZM238.512 23.8864V29H236.455V20.2727H238.421V21.7557H238.523C238.724 21.267 239.044 20.8788 239.484 20.5909C239.927 20.303 240.474 20.1591 241.126 20.1591C241.728 20.1591 242.253 20.2879 242.7 20.5455C243.15 20.803 243.499 21.1761 243.745 21.6648C243.995 22.1534 244.118 22.7462 244.114 23.4432V29H242.058V23.7614C242.058 23.178 241.906 22.7216 241.603 22.392C241.304 22.0625 240.889 21.8977 240.359 21.8977C239.999 21.8977 239.679 21.9773 239.398 22.1364C239.122 22.2917 238.904 22.517 238.745 22.8125C238.59 23.108 238.512 23.4659 238.512 23.8864ZM250.563 20.2727V21.8636H245.546V20.2727H250.563ZM246.785 18.1818H248.842V26.375C248.842 26.6515 248.883 26.8636 248.967 27.0114C249.054 27.1553 249.167 27.2538 249.308 27.3068C249.448 27.3598 249.603 27.3864 249.773 27.3864C249.902 27.3864 250.02 27.3769 250.126 27.358C250.236 27.339 250.319 27.322 250.376 27.3068L250.722 28.9148C250.612 28.9527 250.455 28.9943 250.251 29.0398C250.05 29.0852 249.804 29.1117 249.512 29.1193C248.997 29.1345 248.533 29.0568 248.12 28.8864C247.707 28.7121 247.379 28.4432 247.137 28.0795C246.898 27.7159 246.781 27.2614 246.785 26.7159V18.1818ZM252.283 29V20.2727H254.34V29H252.283ZM253.317 19.0341C252.992 19.0341 252.711 18.9261 252.477 18.7102C252.242 18.4905 252.124 18.2273 252.124 17.9205C252.124 17.6098 252.242 17.3466 252.477 17.1307C252.711 16.911 252.992 16.8011 253.317 16.8011C253.647 16.8011 253.927 16.911 254.158 17.1307C254.393 17.3466 254.511 17.6098 254.511 17.9205C254.511 18.2273 254.393 18.4905 254.158 18.7102C253.927 18.9261 253.647 19.0341 253.317 19.0341ZM258.967 29.1761C258.414 29.1761 257.915 29.0777 257.472 28.8807C257.033 28.6799 256.684 28.3845 256.427 27.9943C256.173 27.6042 256.046 27.1231 256.046 26.5511C256.046 26.0587 256.137 25.6515 256.319 25.3295C256.501 25.0076 256.749 24.75 257.063 24.5568C257.378 24.3636 257.732 24.2178 258.126 24.1193C258.523 24.017 258.934 23.9432 259.359 23.8977C259.87 23.8447 260.285 23.7973 260.603 23.7557C260.921 23.7102 261.152 23.642 261.296 23.5511C261.444 23.4564 261.518 23.3106 261.518 23.1136V23.0795C261.518 22.6515 261.391 22.3201 261.137 22.0852C260.883 21.8504 260.518 21.733 260.04 21.733C259.537 21.733 259.137 21.8428 258.842 22.0625C258.55 22.2822 258.353 22.5417 258.251 22.8409L256.33 22.5682C256.482 22.0379 256.732 21.5947 257.08 21.2386C257.429 20.8788 257.855 20.6098 258.359 20.4318C258.862 20.25 259.419 20.1591 260.029 20.1591C260.45 20.1591 260.868 20.2083 261.285 20.3068C261.701 20.4053 262.082 20.5682 262.427 20.7955C262.772 21.0189 263.048 21.3239 263.256 21.7102C263.469 22.0966 263.575 22.5795 263.575 23.1591V29H261.597V27.8011H261.529C261.404 28.0436 261.228 28.2708 261.001 28.483C260.777 28.6913 260.495 28.8598 260.154 28.9886C259.817 29.1136 259.421 29.1761 258.967 29.1761ZM259.501 27.6648C259.914 27.6648 260.272 27.5833 260.575 27.4205C260.878 27.2538 261.111 27.0341 261.273 26.7614C261.44 26.4886 261.523 26.1913 261.523 25.8693V24.8409C261.459 24.8939 261.349 24.9432 261.194 24.9886C261.042 25.0341 260.872 25.0739 260.683 25.108C260.493 25.142 260.306 25.1723 260.12 25.1989C259.934 25.2254 259.773 25.2481 259.637 25.267C259.33 25.3087 259.056 25.3769 258.813 25.4716C258.571 25.5663 258.379 25.6989 258.239 25.8693C258.099 26.036 258.029 26.2519 258.029 26.517C258.029 26.8958 258.167 27.1818 258.444 27.375C258.72 27.5682 259.073 27.6648 259.501 27.6648ZM267.7 17.3636V29H265.643V17.3636H267.7Z" fill="white"/>
</svg>
