<svg width="188" height="48" viewBox="0 0 188 48" fill="none" xmlns="http://www.w3.org/2000/svg">
<path d="M179.453 0C183.871 6.98112e-07 187.453 3.58172 187.453 8V40C187.453 44.4183 183.871 48 179.453 48H8C3.58172 48 1.28855e-07 44.4183 0 40V8C5.15422e-07 3.58172 3.58172 0 8 0H179.453Z" fill="#F3F4F6"/>
<path d="M179.453 0C183.871 6.98112e-07 187.453 3.58172 187.453 8V40C187.453 44.4183 183.871 48 179.453 48H8C3.58172 48 1.28855e-07 44.4183 0 40V8C5.15422e-07 3.58172 3.58172 0 8 0H179.453Z" stroke="#E5E7EB"/>
<path d="M163.453 36H46V12H163.453V36Z" stroke="#E5E7EB"/>
<path d="M47.6321 29V17.3636H51.9957C52.8897 17.3636 53.6397 17.5189 54.2457 17.8295C54.8556 18.1402 55.3158 18.5758 55.6264 19.1364C55.9408 19.6932 56.098 20.3428 56.098 21.0852C56.098 21.8314 55.9389 22.4792 55.6207 23.0284C55.3063 23.5739 54.8423 23.9962 54.2287 24.2955C53.6151 24.5909 52.8613 24.7386 51.9673 24.7386H48.8594V22.9886H51.6832C52.206 22.9886 52.634 22.9167 52.9673 22.7727C53.3007 22.625 53.5469 22.411 53.706 22.1307C53.8688 21.8466 53.9503 21.4981 53.9503 21.0852C53.9503 20.6723 53.8688 20.3201 53.706 20.0284C53.5431 19.733 53.295 19.5095 52.9616 19.358C52.6283 19.2027 52.1984 19.125 51.6719 19.125H49.7401V29H47.6321ZM53.6435 23.7273L56.5241 29H54.1719L51.3423 23.7273H53.6435ZM61.6861 29.1705C60.8111 29.1705 60.0554 28.9886 59.419 28.625C58.7865 28.2576 58.2997 27.7386 57.9588 27.0682C57.6179 26.3939 57.4474 25.6004 57.4474 24.6875C57.4474 23.7898 57.6179 23.0019 57.9588 22.3239C58.3035 21.642 58.7846 21.1117 59.402 20.733C60.0194 20.3504 60.7448 20.1591 61.5781 20.1591C62.116 20.1591 62.6236 20.2462 63.1009 20.4205C63.5819 20.5909 64.0062 20.8561 64.3736 21.2159C64.7448 21.5758 65.0365 22.0341 65.2486 22.5909C65.4607 23.1439 65.5668 23.803 65.5668 24.5682V25.1989H58.4134V23.8125H63.5952C63.5914 23.4186 63.5062 23.0682 63.3395 22.7614C63.1728 22.4508 62.9399 22.2064 62.6406 22.0284C62.3452 21.8504 62.0005 21.7614 61.6065 21.7614C61.1861 21.7614 60.8168 21.8636 60.4986 22.0682C60.1804 22.2689 59.9323 22.5341 59.7543 22.8636C59.58 23.1894 59.491 23.5473 59.4872 23.9375V25.1477C59.4872 25.6553 59.58 26.0909 59.7656 26.4545C59.9512 26.8144 60.2107 27.0909 60.544 27.2841C60.8774 27.4735 61.2675 27.5682 61.7145 27.5682C62.0137 27.5682 62.2846 27.5265 62.527 27.4432C62.7694 27.3561 62.9796 27.2292 63.1577 27.0625C63.3357 26.8958 63.4702 26.6894 63.5611 26.4432L65.4815 26.6591C65.3603 27.1667 65.1293 27.6098 64.7884 27.9886C64.4512 28.3636 64.0194 28.6553 63.4929 28.8636C62.9664 29.0682 62.3641 29.1705 61.6861 29.1705ZM67.3068 32.2727V20.2727H69.3295V21.7159H69.4489C69.5549 21.5038 69.7045 21.2784 69.8977 21.0398C70.0909 20.7973 70.3523 20.5909 70.6818 20.4205C71.0114 20.2462 71.4318 20.1591 71.9432 20.1591C72.6174 20.1591 73.2254 20.3314 73.767 20.6761C74.3125 21.017 74.7443 21.5227 75.0625 22.1932C75.3845 22.8598 75.5455 23.678 75.5455 24.6477C75.5455 25.6061 75.3883 26.4205 75.0739 27.0909C74.7595 27.7614 74.3314 28.2727 73.7898 28.625C73.2481 28.9773 72.6345 29.1534 71.9489 29.1534C71.4489 29.1534 71.0341 29.0701 70.7045 28.9034C70.375 28.7367 70.1098 28.536 69.9091 28.3011C69.7121 28.0625 69.5587 27.8371 69.4489 27.625H69.3636V32.2727H67.3068ZM69.3239 24.6364C69.3239 25.2008 69.4034 25.6951 69.5625 26.1193C69.7254 26.5436 69.9583 26.875 70.2614 27.1136C70.5682 27.3485 70.9394 27.4659 71.375 27.4659C71.8295 27.4659 72.2102 27.3447 72.517 27.1023C72.8239 26.8561 73.0549 26.5208 73.2102 26.0966C73.3693 25.6686 73.4489 25.1818 73.4489 24.6364C73.4489 24.0947 73.3712 23.6136 73.2159 23.1932C73.0606 22.7727 72.8295 22.4432 72.5227 22.2045C72.2159 21.9659 71.8333 21.8466 71.375 21.8466C70.9356 21.8466 70.5625 21.9621 70.2557 22.1932C69.9489 22.4242 69.7159 22.7481 69.5568 23.1648C69.4015 23.5814 69.3239 24.072 69.3239 24.6364ZM81.1136 29.1705C80.2614 29.1705 79.5227 28.983 78.8977 28.608C78.2727 28.233 77.7879 27.7083 77.4432 27.0341C77.1023 26.3598 76.9318 25.572 76.9318 24.6705C76.9318 23.7689 77.1023 22.9792 77.4432 22.3011C77.7879 21.6231 78.2727 21.0966 78.8977 20.7216C79.5227 20.3466 80.2614 20.1591 81.1136 20.1591C81.9659 20.1591 82.7045 20.3466 83.3295 20.7216C83.9545 21.0966 84.4375 21.6231 84.7784 22.3011C85.1231 22.9792 85.2955 23.7689 85.2955 24.6705C85.2955 25.572 85.1231 26.3598 84.7784 27.0341C84.4375 27.7083 83.9545 28.233 83.3295 28.608C82.7045 28.983 81.9659 29.1705 81.1136 29.1705ZM81.125 27.5227C81.5871 27.5227 81.9735 27.3958 82.2841 27.142C82.5947 26.8845 82.8258 26.5398 82.9773 26.108C83.1326 25.6761 83.2102 25.1951 83.2102 24.6648C83.2102 24.1307 83.1326 23.6477 82.9773 23.2159C82.8258 22.7803 82.5947 22.4337 82.2841 22.1761C81.9735 21.9186 81.5871 21.7898 81.125 21.7898C80.6515 21.7898 80.2576 21.9186 79.9432 22.1761C79.6326 22.4337 79.3996 22.7803 79.2443 23.2159C79.0928 23.6477 79.017 24.1307 79.017 24.6648C79.017 25.1951 79.0928 25.6761 79.2443 26.108C79.3996 26.5398 79.6326 26.8845 79.9432 27.142C80.2576 27.3958 80.6515 27.5227 81.125 27.5227ZM87.0412 29V20.2727H89.0355V21.7273H89.1264C89.2855 21.2235 89.5582 20.8352 89.9446 20.5625C90.3348 20.286 90.7798 20.1477 91.2798 20.1477C91.3935 20.1477 91.5204 20.1534 91.6605 20.1648C91.8045 20.1723 91.9238 20.1856 92.0185 20.2045V22.0966C91.9313 22.0663 91.7931 22.0398 91.6037 22.017C91.4181 21.9905 91.2382 21.9773 91.0639 21.9773C90.6889 21.9773 90.3518 22.0587 90.0526 22.2216C89.7571 22.3807 89.5241 22.6023 89.3537 22.8864C89.1832 23.1705 89.098 23.4981 89.098 23.8693V29H87.0412ZM98.2116 20.2727V21.8636H93.1946V20.2727H98.2116ZM94.4332 18.1818H96.4901V26.375C96.4901 26.6515 96.5317 26.8636 96.6151 27.0114C96.7022 27.1553 96.8158 27.2538 96.956 27.3068C97.0961 27.3598 97.2514 27.3864 97.4219 27.3864C97.5507 27.3864 97.6681 27.3769 97.7741 27.358C97.884 27.339 97.9673 27.322 98.0241 27.3068L98.3707 28.9148C98.2609 28.9527 98.1037 28.9943 97.8991 29.0398C97.6984 29.0852 97.4522 29.1117 97.1605 29.1193C96.6454 29.1345 96.1813 29.0568 95.7685 28.8864C95.3556 28.7121 95.0279 28.4432 94.7855 28.0795C94.5469 27.7159 94.4295 27.2614 94.4332 26.7159V18.1818ZM113.952 21.2898H111.827C111.766 20.9413 111.654 20.6326 111.491 20.3636C111.329 20.0909 111.126 19.8598 110.884 19.6705C110.641 19.4811 110.365 19.339 110.054 19.2443C109.747 19.1458 109.416 19.0966 109.06 19.0966C108.427 19.0966 107.866 19.2557 107.378 19.5739C106.889 19.8883 106.507 20.3504 106.23 20.9602C105.954 21.5663 105.815 22.3068 105.815 23.1818C105.815 24.072 105.954 24.822 106.23 25.4318C106.51 26.0379 106.893 26.4962 107.378 26.8068C107.866 27.1136 108.425 27.267 109.054 27.267C109.402 27.267 109.728 27.2216 110.031 27.1307C110.338 27.036 110.613 26.8977 110.855 26.7159C111.101 26.5341 111.308 26.3106 111.474 26.0455C111.645 25.7803 111.762 25.4773 111.827 25.1364L113.952 25.1477C113.872 25.7008 113.7 26.2197 113.435 26.7045C113.173 27.1894 112.83 27.6174 112.406 27.9886C111.982 28.3561 111.486 28.6439 110.918 28.8523C110.349 29.0568 109.719 29.1591 109.026 29.1591C108.003 29.1591 107.09 28.9223 106.287 28.4489C105.484 27.9754 104.851 27.2917 104.389 26.3977C103.927 25.5038 103.696 24.4318 103.696 23.1818C103.696 21.928 103.929 20.8561 104.395 19.9659C104.861 19.072 105.495 18.3883 106.298 17.9148C107.101 17.4413 108.01 17.2045 109.026 17.2045C109.673 17.2045 110.276 17.2955 110.832 17.4773C111.389 17.6591 111.885 17.9261 112.321 18.2784C112.757 18.6269 113.115 19.0549 113.395 19.5625C113.679 20.0663 113.865 20.642 113.952 21.2898ZM119.598 29.1705C118.746 29.1705 118.007 28.983 117.382 28.608C116.757 28.233 116.272 27.7083 115.928 27.0341C115.587 26.3598 115.416 25.572 115.416 24.6705C115.416 23.7689 115.587 22.9792 115.928 22.3011C116.272 21.6231 116.757 21.0966 117.382 20.7216C118.007 20.3466 118.746 20.1591 119.598 20.1591C120.45 20.1591 121.189 20.3466 121.814 20.7216C122.439 21.0966 122.922 21.6231 123.263 22.3011C123.607 22.9792 123.78 23.7689 123.78 24.6705C123.78 25.572 123.607 26.3598 123.263 27.0341C122.922 27.7083 122.439 28.233 121.814 28.608C121.189 28.983 120.45 29.1705 119.598 29.1705ZM119.609 27.5227C120.071 27.5227 120.458 27.3958 120.768 27.142C121.079 26.8845 121.31 26.5398 121.462 26.108C121.617 25.6761 121.695 25.1951 121.695 24.6648C121.695 24.1307 121.617 23.6477 121.462 23.2159C121.31 22.7803 121.079 22.4337 120.768 22.1761C120.458 21.9186 120.071 21.7898 119.609 21.7898C119.136 21.7898 118.742 21.9186 118.428 22.1761C118.117 22.4337 117.884 22.7803 117.729 23.2159C117.577 23.6477 117.501 24.1307 117.501 24.6648C117.501 25.1951 117.577 25.6761 117.729 26.108C117.884 26.5398 118.117 26.8845 118.428 27.142C118.742 27.3958 119.136 27.5227 119.609 27.5227ZM127.582 23.8864V29H125.526V20.2727H127.491V21.7557H127.594C127.795 21.267 128.115 20.8788 128.554 20.5909C128.997 20.303 129.545 20.1591 130.196 20.1591C130.798 20.1591 131.323 20.2879 131.77 20.5455C132.221 20.803 132.569 21.1761 132.815 21.6648C133.065 22.1534 133.188 22.7462 133.185 23.4432V29H131.128V23.7614C131.128 23.178 130.976 22.7216 130.673 22.392C130.374 22.0625 129.959 21.8977 129.429 21.8977C129.069 21.8977 128.749 21.9773 128.469 22.1364C128.192 22.2917 127.974 22.517 127.815 22.8125C127.66 23.108 127.582 23.4659 127.582 23.8864ZM139.634 20.2727V21.8636H134.616V20.2727H139.634ZM135.855 18.1818H137.912V26.375C137.912 26.6515 137.954 26.8636 138.037 27.0114C138.124 27.1553 138.238 27.2538 138.378 27.3068C138.518 27.3598 138.673 27.3864 138.844 27.3864C138.973 27.3864 139.09 27.3769 139.196 27.358C139.306 27.339 139.389 27.322 139.446 27.3068L139.793 28.9148C139.683 28.9527 139.526 28.9943 139.321 29.0398C139.12 29.0852 138.874 29.1117 138.582 29.1193C138.067 29.1345 137.603 29.0568 137.19 28.8864C136.777 28.7121 136.45 28.4432 136.207 28.0795C135.969 27.7159 135.851 27.2614 135.855 26.7159V18.1818ZM145.124 29.1705C144.249 29.1705 143.493 28.9886 142.857 28.625C142.224 28.2576 141.737 27.7386 141.396 27.0682C141.055 26.3939 140.885 25.6004 140.885 24.6875C140.885 23.7898 141.055 23.0019 141.396 22.3239C141.741 21.642 142.222 21.1117 142.839 20.733C143.457 20.3504 144.182 20.1591 145.016 20.1591C145.554 20.1591 146.061 20.2462 146.538 20.4205C147.019 20.5909 147.444 20.8561 147.811 21.2159C148.182 21.5758 148.474 22.0341 148.686 22.5909C148.898 23.1439 149.004 23.803 149.004 24.5682V25.1989H141.851V23.8125H147.033C147.029 23.4186 146.944 23.0682 146.777 22.7614C146.61 22.4508 146.377 22.2064 146.078 22.0284C145.783 21.8504 145.438 21.7614 145.044 21.7614C144.624 21.7614 144.254 21.8636 143.936 22.0682C143.618 22.2689 143.37 22.5341 143.192 22.8636C143.018 23.1894 142.929 23.5473 142.925 23.9375V25.1477C142.925 25.6553 143.018 26.0909 143.203 26.4545C143.389 26.8144 143.648 27.0909 143.982 27.2841C144.315 27.4735 144.705 27.5682 145.152 27.5682C145.451 27.5682 145.722 27.5265 145.964 27.4432C146.207 27.3561 146.417 27.2292 146.595 27.0625C146.773 26.8958 146.908 26.6894 146.999 26.4432L148.919 26.6591C148.798 27.1667 148.567 27.6098 148.226 27.9886C147.889 28.3636 147.457 28.6553 146.93 28.8636C146.404 29.0682 145.802 29.1705 145.124 29.1705ZM152.801 23.8864V29H150.744V20.2727H152.71V21.7557H152.812C153.013 21.267 153.333 20.8788 153.773 20.5909C154.216 20.303 154.763 20.1591 155.415 20.1591C156.017 20.1591 156.542 20.2879 156.989 20.5455C157.439 20.803 157.788 21.1761 158.034 21.6648C158.284 22.1534 158.407 22.7462 158.403 23.4432V29H156.347V23.7614C156.347 23.178 156.195 22.7216 155.892 22.392C155.593 22.0625 155.178 21.8977 154.648 21.8977C154.288 21.8977 153.968 21.9773 153.688 22.1364C153.411 22.2917 153.193 22.517 153.034 22.8125C152.879 23.108 152.801 23.4659 152.801 23.8864ZM164.852 20.2727V21.8636H159.835V20.2727H164.852ZM161.074 18.1818H163.131V26.375C163.131 26.6515 163.172 26.8636 163.256 27.0114C163.343 27.1553 163.456 27.2538 163.597 27.3068C163.737 27.3598 163.892 27.3864 164.062 27.3864C164.191 27.3864 164.309 27.3769 164.415 27.358C164.525 27.339 164.608 27.322 164.665 27.3068L165.011 28.9148C164.902 28.9527 164.744 28.9943 164.54 29.0398C164.339 29.0852 164.093 29.1117 163.801 29.1193C163.286 29.1345 162.822 29.0568 162.409 28.8864C161.996 28.7121 161.669 28.4432 161.426 28.0795C161.188 27.7159 161.07 27.2614 161.074 26.7159V18.1818Z" fill="#1E293B"/>
<path d="M18.4531 36V18C18.4531 17.8448 18.4893 17.6916 18.5587 17.5528C18.6281 17.4139 18.7289 17.2931 18.8531 17.2C19.8917 16.4211 21.1549 16 22.4531 16C25.4531 16 27.4531 18 29.7861 18C31.1195 18 32.1418 17.7333 32.8531 17.2C33.0017 17.0886 33.1784 17.0207 33.3633 17.004C33.5483 16.9874 33.7342 17.0225 33.9003 17.1056C34.0664 17.1886 34.2061 17.3163 34.3038 17.4743C34.4014 17.6322 34.4531 17.8143 34.4531 18V28C34.4531 28.1552 34.417 28.3084 34.3476 28.4472C34.2781 28.5861 34.1773 28.7069 34.0531 28.8C33.0145 29.5789 31.7513 30 30.4531 30C27.4531 30 25.4531 28 22.4531 28C20.9772 28 19.5531 28.544 18.4531 29.528" stroke="black" stroke-width="2" stroke-linecap="round" stroke-linejoin="round"/>
</svg>
