<svg width="216" height="100" viewBox="0 0 216 100" fill="none" xmlns="http://www.w3.org/2000/svg">
<g filter="url(#filter0_d_99_43)">
<rect x="20" y="12" width="176" height="60" rx="12" fill="#6366F1" shape-rendering="crispEdges"/>
<path d="M65.9102 42C65.9102 43.1867 66.2621 44.3467 66.9213 45.3334C67.5806 46.3201 68.5177 47.0892 69.6141 47.5433C70.7104 47.9974 71.9168 48.1162 73.0807 47.8847C74.2446 47.6532 75.3137 47.0818 76.1528 46.2426C76.9919 45.4035 77.5634 44.3344 77.7949 43.1705C78.0264 42.0067 77.9076 40.8003 77.4534 39.7039C76.9993 38.6075 76.2303 37.6705 75.2436 37.0112C74.2569 36.3519 73.0968 36 71.9102 36C70.2328 36.0063 68.6228 36.6608 67.4168 37.8267L65.9102 39.3333" stroke="white" stroke-width="1.33333" stroke-linecap="round" stroke-linejoin="round"/>
<path d="M65.9102 36V39.3333H69.2435" stroke="white" stroke-width="1.33333" stroke-linecap="round" stroke-linejoin="round"/>
<path d="M88.9549 38.6406V37.3182H96.8348V38.6406H93.658V47.5H92.1267V38.6406H88.9549ZM97.6639 47.5V39.8636H99.1006V41.0767H99.1802C99.3194 40.6657 99.5647 40.3426 99.916 40.1072C100.271 39.8686 100.672 39.7493 101.119 39.7493C101.212 39.7493 101.321 39.7526 101.447 39.7592C101.576 39.7659 101.678 39.7741 101.75 39.7841V41.206C101.691 41.1894 101.585 41.1712 101.432 41.1513C101.28 41.1281 101.127 41.1165 100.975 41.1165C100.624 41.1165 100.31 41.1911 100.035 41.3402C99.7635 41.486 99.5481 41.6899 99.389 41.9517C99.2299 42.2102 99.1504 42.5052 99.1504 42.8366V47.5H97.6639ZM104.209 50.3636C103.987 50.3636 103.785 50.3454 103.602 50.3089C103.42 50.2758 103.284 50.2393 103.195 50.1996L103.553 48.9815C103.824 49.0545 104.066 49.0859 104.279 49.076C104.491 49.0661 104.678 48.9865 104.84 48.8374C105.006 48.6882 105.152 48.4446 105.278 48.1065L105.462 47.5994L102.668 39.8636H104.259L106.193 45.7898H106.272L108.206 39.8636H109.802L106.655 48.5192C106.509 48.9169 106.324 49.2533 106.098 49.5284C105.873 49.8068 105.604 50.0156 105.293 50.1548C104.981 50.294 104.62 50.3636 104.209 50.3636ZM115.883 47.5H114.253L117.917 37.3182H119.692L123.356 47.5H121.725L118.847 39.1676H118.767L115.883 47.5ZM116.157 43.5128H121.447V44.8054H116.157V43.5128ZM127.785 50.5227C127.179 50.5227 126.657 50.4432 126.219 50.2841C125.785 50.125 125.431 49.9145 125.156 49.6527C124.88 49.3909 124.675 49.1042 124.539 48.7926L125.817 48.2656C125.906 48.4115 126.026 48.5656 126.175 48.728C126.327 48.8937 126.533 49.0346 126.791 49.1506C127.053 49.2666 127.389 49.3246 127.8 49.3246C128.364 49.3246 128.83 49.187 129.197 48.9119C129.565 48.6402 129.749 48.206 129.749 47.6094V46.108H129.655C129.565 46.2704 129.436 46.451 129.267 46.6499C129.101 46.8487 128.873 47.0211 128.581 47.1669C128.289 47.3127 127.91 47.3857 127.442 47.3857C126.839 47.3857 126.296 47.2448 125.812 46.9631C125.331 46.678 124.95 46.2588 124.668 45.7053C124.39 45.1484 124.251 44.464 124.251 43.652C124.251 42.84 124.388 42.1439 124.663 41.5639C124.942 40.9839 125.323 40.5398 125.807 40.2315C126.291 39.92 126.839 39.7642 127.452 39.7642C127.926 39.7642 128.309 39.8438 128.601 40.0028C128.892 40.1586 129.12 40.3409 129.282 40.5497C129.448 40.7585 129.575 40.9425 129.665 41.1016H129.774V39.8636H131.231V47.669C131.231 48.3253 131.078 48.8639 130.773 49.2848C130.468 49.7057 130.056 50.0173 129.535 50.2195C129.018 50.4216 128.435 50.5227 127.785 50.5227ZM127.771 46.1527C128.198 46.1527 128.559 46.0533 128.854 45.8544C129.153 45.6522 129.378 45.3639 129.531 44.9893C129.686 44.6115 129.764 44.1591 129.764 43.6321C129.764 43.1184 129.688 42.666 129.535 42.2749C129.383 41.8838 129.159 41.5788 128.864 41.3601C128.569 41.138 128.205 41.027 127.771 41.027C127.323 41.027 126.95 41.143 126.652 41.375C126.354 41.6037 126.128 41.9152 125.976 42.3097C125.827 42.7041 125.752 43.1449 125.752 43.6321C125.752 44.1326 125.828 44.5717 125.981 44.9496C126.133 45.3274 126.359 45.6224 126.657 45.8345C126.959 46.0466 127.33 46.1527 127.771 46.1527ZM135.447 47.669C134.963 47.669 134.525 47.5795 134.134 47.4006C133.743 47.2183 133.433 46.9548 133.205 46.6101C132.979 46.2654 132.866 45.8428 132.866 45.3423C132.866 44.9115 132.949 44.5568 133.115 44.2784C133.281 44 133.504 43.7796 133.786 43.6172C134.068 43.4548 134.383 43.3321 134.731 43.2493C135.079 43.1664 135.433 43.1035 135.795 43.0604C136.252 43.0073 136.623 42.9643 136.908 42.9311C137.193 42.8946 137.401 42.8366 137.53 42.7571C137.659 42.6776 137.724 42.5483 137.724 42.3693V42.3345C137.724 41.9003 137.601 41.5639 137.356 41.3253C137.114 41.0866 136.753 40.9673 136.272 40.9673C135.772 40.9673 135.377 41.0784 135.089 41.3004C134.804 41.5192 134.607 41.7628 134.497 42.0312L133.1 41.7131C133.266 41.2491 133.508 40.8745 133.826 40.5895C134.147 40.3011 134.517 40.0923 134.935 39.9631C135.352 39.8305 135.791 39.7642 136.252 39.7642C136.557 39.7642 136.88 39.8007 137.222 39.8736C137.566 39.9432 137.888 40.0724 138.186 40.2614C138.488 40.4503 138.735 40.7204 138.927 41.0717C139.119 41.4197 139.215 41.8722 139.215 42.429V47.5H137.763V46.456H137.704C137.608 46.6482 137.464 46.8371 137.271 47.0227C137.079 47.2083 136.832 47.3625 136.531 47.4851C136.229 47.6077 135.868 47.669 135.447 47.669ZM135.77 46.4759C136.181 46.4759 136.532 46.3946 136.824 46.2322C137.119 46.0698 137.343 45.8577 137.495 45.5959C137.651 45.3307 137.729 45.0473 137.729 44.7457V43.7614C137.676 43.8144 137.573 43.8641 137.42 43.9105C137.271 43.9536 137.101 43.9917 136.908 44.0249C136.716 44.0547 136.529 44.0829 136.347 44.1094C136.164 44.1326 136.012 44.1525 135.889 44.169C135.601 44.2055 135.337 44.2668 135.099 44.353C134.863 44.4392 134.674 44.5634 134.532 44.7259C134.393 44.8849 134.323 45.0971 134.323 45.3622C134.323 45.7301 134.459 46.0085 134.731 46.1974C135.003 46.383 135.349 46.4759 135.77 46.4759ZM141.195 47.5V39.8636H142.682V47.5H141.195ZM141.946 38.6854C141.687 38.6854 141.465 38.5992 141.28 38.4268C141.097 38.2512 141.006 38.0424 141.006 37.8004C141.006 37.5552 141.097 37.3464 141.28 37.174C141.465 36.9983 141.687 36.9105 141.946 36.9105C142.204 36.9105 142.425 36.9983 142.607 37.174C142.793 37.3464 142.885 37.5552 142.885 37.8004C142.885 38.0424 142.793 38.2512 142.607 38.4268C142.425 38.5992 142.204 38.6854 141.946 38.6854ZM146.168 42.9659V47.5H144.681V39.8636H146.108V41.1065H146.203C146.378 40.7022 146.653 40.3774 147.028 40.1321C147.406 39.8868 147.881 39.7642 148.455 39.7642C148.975 39.7642 149.431 39.8736 149.822 40.0923C150.213 40.3078 150.516 40.6293 150.732 41.0568C150.947 41.4844 151.055 42.013 151.055 42.6428V47.5H149.569V42.8217C149.569 42.2682 149.424 41.8357 149.136 41.5241C148.848 41.2093 148.452 41.0518 147.948 41.0518C147.603 41.0518 147.296 41.1264 147.028 41.2756C146.763 41.4247 146.552 41.6435 146.397 41.9318C146.244 42.2169 146.168 42.5616 146.168 42.9659Z" fill="white"/>
</g>
<defs>
<filter id="filter0_d_99_43" x="0" y="0" width="216" height="100" filterUnits="userSpaceOnUse" color-interpolation-filters="sRGB">
<feFlood flood-opacity="0" result="BackgroundImageFix"/>
<feColorMatrix in="SourceAlpha" type="matrix" values="0 0 0 0 0 0 0 0 0 0 0 0 0 0 0 0 0 0 127 0" result="hardAlpha"/>
<feOffset dy="8"/>
<feGaussianBlur stdDeviation="10"/>
<feComposite in2="hardAlpha" operator="out"/>
<feColorMatrix type="matrix" values="0 0 0 0 0.701961 0 0 0 0 0.533333 0 0 0 0 1 0 0 0 0.25 0"/>
<feBlend mode="normal" in2="BackgroundImageFix" result="effect1_dropShadow_99_43"/>
<feBlend mode="normal" in="SourceGraphic" in2="effect1_dropShadow_99_43" result="shape"/>
</filter>
</defs>
</svg>
