<svg width="210" height="71" viewBox="0 0 210 71" fill="none" xmlns="http://www.w3.org/2000/svg">
<g filter="url(#filter0_d_99_40)">
<rect x="12" y="8" width="186" height="47" rx="10" fill="#7B61FF" shape-rendering="crispEdges"/>
<path d="M62.0573 26.8182L64.8911 35.1108H65.0054L67.8392 26.8182H69.4997L65.8357 37H64.0608L60.3968 26.8182H62.0573ZM70.8508 37V29.3636H72.3373V37H70.8508ZM71.6015 28.1854C71.343 28.1854 71.1209 28.0992 70.9353 27.9268C70.753 27.7512 70.6619 27.5424 70.6619 27.3004C70.6619 27.0552 70.753 26.8464 70.9353 26.674C71.1209 26.4983 71.343 26.4105 71.6015 26.4105C71.86 26.4105 72.0804 26.4983 72.2627 26.674C72.4483 26.8464 72.5411 27.0552 72.5411 27.3004C72.5411 27.5424 72.4483 27.7512 72.2627 27.9268C72.0804 28.0992 71.86 28.1854 71.6015 28.1854ZM77.6283 37.1541C76.8759 37.1541 76.228 36.9934 75.6844 36.6719C75.1442 36.3471 74.7265 35.8913 74.4316 35.3047C74.1399 34.7147 73.9941 34.0237 73.9941 33.2315C73.9941 32.4493 74.1399 31.7599 74.4316 31.1634C74.7265 30.5668 75.1375 30.1011 75.6645 29.7663C76.1948 29.4316 76.8146 29.2642 77.5239 29.2642C77.9548 29.2642 78.3724 29.3355 78.7767 29.478C79.1811 29.6205 79.544 29.8442 79.8655 30.1491C80.187 30.4541 80.4406 30.8501 80.6262 31.3374C80.8118 31.8213 80.9046 32.4096 80.9046 33.1023V33.6293H74.8343V32.5156H79.4479C79.4479 32.1245 79.3684 31.7782 79.2093 31.4766C79.0502 31.1716 78.8264 30.9313 78.5381 30.7557C78.2531 30.58 77.9183 30.4922 77.5338 30.4922C77.1162 30.4922 76.7516 30.5949 76.4401 30.8004C76.1318 31.0026 75.8932 31.2678 75.7242 31.5959C75.5585 31.9207 75.4756 32.2737 75.4756 32.6548V33.5249C75.4756 34.0353 75.5651 34.4695 75.7441 34.8274C75.9264 35.1854 76.1799 35.4588 76.5047 35.6477C76.8295 35.8333 77.209 35.9261 77.6432 35.9261C77.9249 35.9261 78.1818 35.8864 78.4138 35.8068C78.6458 35.724 78.8463 35.6013 79.0154 35.4389C79.1844 35.2765 79.3137 35.076 79.4032 34.8374L80.8101 35.0909C80.6974 35.5052 80.4952 35.8681 80.2036 36.1797C79.9152 36.4879 79.5523 36.7282 79.1148 36.9006C78.6806 37.0696 78.1851 37.1541 77.6283 37.1541ZM84.1958 37L81.9486 29.3636H83.4848L84.9813 34.9716H85.0559L86.5573 29.3636H88.0935L89.585 34.9467H89.6595L91.146 29.3636H92.6823L90.4401 37H88.9237L87.3726 31.4865H87.2583L85.7071 37H84.1958ZM106.374 30.1293H104.823C104.763 29.7978 104.652 29.5062 104.49 29.2543C104.327 29.0024 104.129 28.7886 103.893 28.6129C103.658 28.4373 103.394 28.3047 103.103 28.2152C102.814 28.1257 102.508 28.081 102.183 28.081C101.596 28.081 101.071 28.2285 100.607 28.5234C100.146 28.8184 99.7817 29.2509 99.5132 29.821C99.2481 30.3911 99.1155 31.0871 99.1155 31.9091C99.1155 32.7377 99.2481 33.437 99.5132 34.0071C99.7817 34.5772 100.148 35.008 100.612 35.2997C101.076 35.5914 101.598 35.7372 102.178 35.7372C102.5 35.7372 102.804 35.6941 103.093 35.608C103.384 35.5185 103.648 35.3875 103.883 35.2152C104.119 35.0429 104.317 34.8324 104.48 34.5838C104.646 34.3319 104.76 34.0436 104.823 33.7188L106.374 33.7237C106.291 34.2242 106.13 34.6849 105.892 35.1058C105.656 35.5234 105.353 35.8847 104.982 36.1896C104.614 36.4912 104.193 36.7249 103.719 36.8906C103.245 37.0563 102.728 37.1392 102.168 37.1392C101.286 37.1392 100.501 36.9304 99.8115 36.5128C99.1221 36.0919 98.5786 35.4903 98.1809 34.7081C97.7864 33.9259 97.5892 32.9929 97.5892 31.9091C97.5892 30.822 97.7881 29.889 98.1858 29.1101C98.5835 28.3279 99.1271 27.728 99.8165 27.3104C100.506 26.8894 101.29 26.679 102.168 26.679C102.708 26.679 103.212 26.7569 103.679 26.9126C104.15 27.0651 104.573 27.2905 104.947 27.5888C105.322 27.8838 105.632 28.245 105.877 28.6726C106.122 29.0968 106.288 29.5824 106.374 30.1293ZM111.31 37.1541C110.594 37.1541 109.969 36.9901 109.435 36.6619C108.902 36.3338 108.487 35.8748 108.192 35.2848C107.897 34.6948 107.75 34.0054 107.75 33.2166C107.75 32.4245 107.897 31.7318 108.192 31.1385C108.487 30.5452 108.902 30.0845 109.435 29.7564C109.969 29.4283 110.594 29.2642 111.31 29.2642C112.025 29.2642 112.65 29.4283 113.184 29.7564C113.717 30.0845 114.132 30.5452 114.427 31.1385C114.722 31.7318 114.869 32.4245 114.869 33.2166C114.869 34.0054 114.722 34.6948 114.427 35.2848C114.132 35.8748 113.717 36.3338 113.184 36.6619C112.65 36.9901 112.025 37.1541 111.31 37.1541ZM111.315 35.9062C111.779 35.9062 112.163 35.7836 112.468 35.5384C112.773 35.2931 112.998 34.9666 113.144 34.5589C113.293 34.1513 113.368 33.7022 113.368 33.2116C113.368 32.7244 113.293 32.277 113.144 31.8693C112.998 31.4583 112.773 31.1286 112.468 30.88C112.163 30.6314 111.779 30.5071 111.315 30.5071C110.847 30.5071 110.459 30.6314 110.151 30.88C109.846 31.1286 109.619 31.4583 109.47 31.8693C109.324 32.277 109.251 32.7244 109.251 33.2116C109.251 33.7022 109.324 34.1513 109.47 34.5589C109.619 34.9666 109.846 35.2931 110.151 35.5384C110.459 35.7836 110.847 35.9062 111.315 35.9062ZM118.015 32.4659V37H116.529V29.3636H117.955V30.6065H118.05C118.225 30.2022 118.501 29.8774 118.875 29.6321C119.253 29.3868 119.729 29.2642 120.302 29.2642C120.822 29.2642 121.278 29.3736 121.669 29.5923C122.06 29.8078 122.363 30.1293 122.579 30.5568C122.794 30.9844 122.902 31.513 122.902 32.1428V37H121.416V32.3217C121.416 31.7682 121.271 31.3357 120.983 31.0241C120.695 30.7093 120.299 30.5518 119.795 30.5518C119.45 30.5518 119.144 30.6264 118.875 30.7756C118.61 30.9247 118.399 31.1435 118.244 31.4318C118.091 31.7169 118.015 32.0616 118.015 32.4659ZM128.46 29.3636V30.5568H124.289V29.3636H128.46ZM125.408 27.5341H126.894V34.7578C126.894 35.0462 126.937 35.2633 127.024 35.4091C127.11 35.5516 127.221 35.6494 127.357 35.7024C127.496 35.7521 127.647 35.777 127.809 35.777C127.928 35.777 128.033 35.7687 128.122 35.7521C128.212 35.7356 128.281 35.7223 128.331 35.7124L128.6 36.9403C128.513 36.9735 128.391 37.0066 128.232 37.0398C128.073 37.0762 127.874 37.0961 127.635 37.0994C127.244 37.1061 126.879 37.0365 126.541 36.8906C126.203 36.7448 125.93 36.5194 125.721 36.2145C125.512 35.9096 125.408 35.5268 125.408 35.0661V27.5341ZM133.314 37.1541C132.561 37.1541 131.914 36.9934 131.37 36.6719C130.83 36.3471 130.412 35.8913 130.117 35.3047C129.825 34.7147 129.68 34.0237 129.68 33.2315C129.68 32.4493 129.825 31.7599 130.117 31.1634C130.412 30.5668 130.823 30.1011 131.35 29.7663C131.88 29.4316 132.5 29.2642 133.209 29.2642C133.64 29.2642 134.058 29.3355 134.462 29.478C134.867 29.6205 135.23 29.8442 135.551 30.1491C135.873 30.4541 136.126 30.8501 136.312 31.3374C136.497 31.8213 136.59 32.4096 136.59 33.1023V33.6293H130.52V32.5156H135.133C135.133 32.1245 135.054 31.7782 134.895 31.4766C134.736 31.1716 134.512 30.9313 134.224 30.7557C133.939 30.58 133.604 30.4922 133.219 30.4922C132.802 30.4922 132.437 30.5949 132.126 30.8004C131.817 31.0026 131.579 31.2678 131.41 31.5959C131.244 31.9207 131.161 32.2737 131.161 32.6548V33.5249C131.161 34.0353 131.251 34.4695 131.43 34.8274C131.612 35.1854 131.865 35.4588 132.19 35.6477C132.515 35.8333 132.895 35.9261 133.329 35.9261C133.61 35.9261 133.867 35.8864 134.099 35.8068C134.331 35.724 134.532 35.6013 134.701 35.4389C134.87 35.2765 134.999 35.076 135.089 34.8374L136.496 35.0909C136.383 35.5052 136.181 35.8681 135.889 36.1797C135.601 36.4879 135.238 36.7282 134.8 36.9006C134.366 37.0696 133.871 37.1541 133.314 37.1541ZM139.726 32.4659V37H138.239V29.3636H139.666V30.6065H139.761C139.936 30.2022 140.212 29.8774 140.586 29.6321C140.964 29.3868 141.439 29.2642 142.013 29.2642C142.533 29.2642 142.989 29.3736 143.38 29.5923C143.771 29.8078 144.074 30.1293 144.29 30.5568C144.505 30.9844 144.613 31.513 144.613 32.1428V37H143.127V32.3217C143.127 31.7682 142.982 31.3357 142.694 31.0241C142.406 30.7093 142.01 30.5518 141.506 30.5518C141.161 30.5518 140.855 30.6264 140.586 30.7756C140.321 30.9247 140.11 31.1435 139.955 31.4318C139.802 31.7169 139.726 32.0616 139.726 32.4659ZM150.171 29.3636V30.5568H146V29.3636H150.171ZM147.119 27.5341H148.605V34.7578C148.605 35.0462 148.648 35.2633 148.734 35.4091C148.821 35.5516 148.932 35.6494 149.068 35.7024C149.207 35.7521 149.358 35.777 149.52 35.777C149.639 35.777 149.744 35.7687 149.833 35.7521C149.923 35.7356 149.992 35.7223 150.042 35.7124L150.31 36.9403C150.224 36.9735 150.102 37.0066 149.943 37.0398C149.783 37.0762 149.585 37.0961 149.346 37.0994C148.955 37.1061 148.59 37.0365 148.252 36.8906C147.914 36.7448 147.641 36.5194 147.432 36.2145C147.223 35.9096 147.119 35.5268 147.119 35.0661V27.5341Z" fill="white"/>
</g>
<defs>
<filter id="filter0_d_99_40" x="0" y="0" width="210" height="71" filterUnits="userSpaceOnUse" color-interpolation-filters="sRGB">
<feFlood flood-opacity="0" result="BackgroundImageFix"/>
<feColorMatrix in="SourceAlpha" type="matrix" values="0 0 0 0 0 0 0 0 0 0 0 0 0 0 0 0 0 0 127 0" result="hardAlpha"/>
<feOffset dy="4"/>
<feGaussianBlur stdDeviation="6"/>
<feComposite in2="hardAlpha" operator="out"/>
<feColorMatrix type="matrix" values="0 0 0 0 0.482353 0 0 0 0 0.380392 0 0 0 0 1 0 0 0 0.18 0"/>
<feBlend mode="normal" in2="BackgroundImageFix" result="effect1_dropShadow_99_40"/>
<feBlend mode="normal" in="SourceGraphic" in2="effect1_dropShadow_99_40" result="shape"/>
</filter>
</defs>
</svg>
