<svg width="24" height="24" viewBox="0 0 24 24" fill="none" xmlns="http://www.w3.org/2000/svg">
<path d="M1.99994 2L21.9999 22M8.34994 2.69C10.1606 1.98282 12.138 1.81868 14.0405 2.21764C15.9429 2.61661 17.6878 3.56139 19.0618 4.93641C20.4358 6.31143 21.3792 8.05708 21.7767 9.95983C22.1742 11.8626 22.0085 13.8399 21.2999 15.65M19.0799 19.08C18.1502 20.0098 17.0464 20.7473 15.8316 21.2505C14.6168 21.7536 13.3148 22.0126 11.9999 22.0126C10.6851 22.0126 9.38306 21.7536 8.16827 21.2505C6.95348 20.7473 5.8497 20.0098 4.91994 19.08C3.99018 18.1502 3.25265 17.0465 2.74947 15.8317C2.24629 14.6169 1.9873 13.3149 1.9873 12C1.9873 10.6851 2.24629 9.38312 2.74947 8.16833C3.25265 6.95354 3.99018 5.84976 4.91994 4.92" stroke="#FF0000" stroke-width="2" stroke-linecap="round" stroke-linejoin="round"/>
</svg>
