<svg width="263" height="82" viewBox="0 0 263 82" fill="none" xmlns="http://www.w3.org/2000/svg">
<g filter="url(#filter0_dd_214_784)">
<path d="M15 17C15 10.3726 20.3726 5 27 5H235.031C241.659 5 247.031 10.3726 247.031 17V45C247.031 51.6274 241.659 57 235.031 57H27C20.3726 57 15 51.6274 15 45V17Z" fill="#6366F1"/>
<path d="M61 43H47V19H61V43Z" stroke="#E5E7EB"/>
<g clip-path="url(#clip0_214_784)">
<path d="M60.7062 26.2938C61.0968 26.6844 61.0968 27.3188 60.7062 27.7094L52.7062 35.7094C52.3155 36.1 51.6812 36.1 51.2905 35.7094L47.2905 31.7094C46.8999 31.3188 46.8999 30.6844 47.2905 30.2938C47.6812 29.9031 48.3155 29.9031 48.7062 30.2938L51.9999 33.5844L59.2937 26.2938C59.6843 25.9031 60.3187 25.9031 60.7093 26.2938H60.7062Z" fill="white"/>
</g>
<path d="M215.031 43H69V19H215.031V43Z" stroke="#E5E7EB"/>
<path d="M72.0874 36H69.8374L73.9339 24.3636H76.5362L80.6385 36H78.3885L75.2805 26.75H75.1896L72.0874 36ZM72.1612 31.4375H78.2976V33.1307H72.1612V31.4375ZM85.6214 36.1705C84.7502 36.1705 84.0021 35.9792 83.3771 35.5966C82.7559 35.214 82.2768 34.6856 81.9396 34.0114C81.6063 33.3333 81.4396 32.553 81.4396 31.6705C81.4396 30.7841 81.6101 30.0019 81.951 29.3239C82.2919 28.642 82.773 28.1117 83.3942 27.733C84.0192 27.3504 84.7578 27.1591 85.6101 27.1591C86.3184 27.1591 86.9453 27.2898 87.4908 27.5511C88.04 27.8087 88.4775 28.1742 88.8033 28.6477C89.129 29.1174 89.3146 29.6667 89.3601 30.2955H87.3942C87.3146 29.875 87.1252 29.5246 86.826 29.2443C86.5305 28.9602 86.1347 28.8182 85.6385 28.8182C85.218 28.8182 84.8487 28.9318 84.5305 29.1591C84.2124 29.3826 83.9643 29.7045 83.7862 30.125C83.612 30.5455 83.5249 31.0492 83.5249 31.6364C83.5249 32.2311 83.612 32.7424 83.7862 33.1705C83.9605 33.5947 84.2048 33.9223 84.5192 34.1534C84.8374 34.3807 85.2105 34.4943 85.6385 34.4943C85.9415 34.4943 86.2124 34.4375 86.451 34.3239C86.6934 34.2064 86.8961 34.0379 87.0589 33.8182C87.2218 33.5985 87.3336 33.3314 87.3942 33.017H89.3601C89.3108 33.6345 89.129 34.1818 88.8146 34.6591C88.5002 35.1326 88.0722 35.5038 87.5305 35.7727C86.9889 36.0379 86.3525 36.1705 85.6214 36.1705ZM94.8558 36.1705C93.9846 36.1705 93.2365 35.9792 92.6115 35.5966C91.9903 35.214 91.5111 34.6856 91.174 34.0114C90.8407 33.3333 90.674 32.553 90.674 31.6705C90.674 30.7841 90.8445 30.0019 91.1854 29.3239C91.5263 28.642 92.0073 28.1117 92.6286 27.733C93.2536 27.3504 93.9922 27.1591 94.8445 27.1591C95.5528 27.1591 96.1797 27.2898 96.7251 27.5511C97.2744 27.8087 97.7119 28.1742 98.0376 28.6477C98.3634 29.1174 98.549 29.6667 98.5945 30.2955H96.6286C96.549 29.875 96.3596 29.5246 96.0604 29.2443C95.7649 28.9602 95.3691 28.8182 94.8729 28.8182C94.4524 28.8182 94.0831 28.9318 93.7649 29.1591C93.4467 29.3826 93.1986 29.7045 93.0206 30.125C92.8464 30.5455 92.7592 31.0492 92.7592 31.6364C92.7592 32.2311 92.8464 32.7424 93.0206 33.1705C93.1948 33.5947 93.4392 33.9223 93.7536 34.1534C94.0717 34.3807 94.4448 34.4943 94.8729 34.4943C95.1759 34.4943 95.4467 34.4375 95.6854 34.3239C95.9278 34.2064 96.1304 34.0379 96.2933 33.8182C96.4562 33.5985 96.5679 33.3314 96.6286 33.017H98.5945C98.5452 33.6345 98.3634 34.1818 98.049 34.6591C97.7346 35.1326 97.3066 35.5038 96.7649 35.7727C96.2232 36.0379 95.5869 36.1705 94.8558 36.1705ZM104.147 36.1705C103.272 36.1705 102.516 35.9886 101.88 35.625C101.247 35.2576 100.761 34.7386 100.42 34.0682C100.079 33.3939 99.9084 32.6004 99.9084 31.6875C99.9084 30.7898 100.079 30.0019 100.42 29.3239C100.764 28.642 101.246 28.1117 101.863 27.733C102.48 27.3504 103.206 27.1591 104.039 27.1591C104.577 27.1591 105.085 27.2462 105.562 27.4205C106.043 27.5909 106.467 27.8561 106.835 28.2159C107.206 28.5758 107.497 29.0341 107.71 29.5909C107.922 30.1439 108.028 30.803 108.028 31.5682V32.1989H100.874V30.8125H106.056C106.052 30.4186 105.967 30.0682 105.8 29.7614C105.634 29.4508 105.401 29.2064 105.102 29.0284C104.806 28.8504 104.461 28.7614 104.067 28.7614C103.647 28.7614 103.278 28.8636 102.96 29.0682C102.641 29.2689 102.393 29.5341 102.215 29.8636C102.041 30.1894 101.952 30.5473 101.948 30.9375V32.1477C101.948 32.6553 102.041 33.0909 102.227 33.4545C102.412 33.8144 102.672 34.0909 103.005 34.2841C103.338 34.4735 103.728 34.5682 104.175 34.5682C104.475 34.5682 104.746 34.5265 104.988 34.4432C105.23 34.3561 105.441 34.2292 105.619 34.0625C105.797 33.8958 105.931 33.6894 106.022 33.4432L107.942 33.6591C107.821 34.1667 107.59 34.6098 107.249 34.9886C106.912 35.3636 106.48 35.6553 105.954 35.8636C105.427 36.0682 104.825 36.1705 104.147 36.1705ZM109.768 39.2727V27.2727H111.79V28.7159H111.91C112.016 28.5038 112.165 28.2784 112.359 28.0398C112.552 27.7973 112.813 27.5909 113.143 27.4205C113.472 27.2462 113.893 27.1591 114.404 27.1591C115.078 27.1591 115.686 27.3314 116.228 27.6761C116.773 28.017 117.205 28.5227 117.523 29.1932C117.845 29.8598 118.006 30.678 118.006 31.6477C118.006 32.6061 117.849 33.4205 117.535 34.0909C117.22 34.7614 116.792 35.2727 116.251 35.625C115.709 35.9773 115.095 36.1534 114.41 36.1534C113.91 36.1534 113.495 36.0701 113.165 35.9034C112.836 35.7367 112.571 35.536 112.37 35.3011C112.173 35.0625 112.02 34.8371 111.91 34.625H111.825V39.2727H109.768ZM111.785 31.6364C111.785 32.2008 111.864 32.6951 112.023 33.1193C112.186 33.5436 112.419 33.875 112.722 34.1136C113.029 34.3485 113.4 34.4659 113.836 34.4659C114.29 34.4659 114.671 34.3447 114.978 34.1023C115.285 33.8561 115.516 33.5208 115.671 33.0966C115.83 32.6686 115.91 32.1818 115.91 31.6364C115.91 31.0947 115.832 30.6136 115.677 30.1932C115.522 29.7727 115.29 29.4432 114.984 29.2045C114.677 28.9659 114.294 28.8466 113.836 28.8466C113.397 28.8466 113.023 28.9621 112.717 29.1932C112.41 29.4242 112.177 29.7481 112.018 30.1648C111.862 30.5814 111.785 31.072 111.785 31.6364ZM124.126 27.2727V28.8636H119.109V27.2727H124.126ZM120.347 25.1818H122.404V33.375C122.404 33.6515 122.446 33.8636 122.529 34.0114C122.616 34.1553 122.73 34.2538 122.87 34.3068C123.01 34.3598 123.165 34.3864 123.336 34.3864C123.465 34.3864 123.582 34.3769 123.688 34.358C123.798 34.339 123.881 34.322 123.938 34.3068L124.285 35.9148C124.175 35.9527 124.018 35.9943 123.813 36.0398C123.612 36.0852 123.366 36.1117 123.075 36.1193C122.559 36.1345 122.095 36.0568 121.683 35.8864C121.27 35.7121 120.942 35.4432 120.7 35.0795C120.461 34.7159 120.344 34.2614 120.347 33.7159V25.1818ZM131.4 36H129.15L133.246 24.3636H135.849L139.951 36H137.701L134.593 26.75H134.502L131.4 36ZM131.474 31.4375H137.61V33.1307H131.474V31.4375ZM143.45 24.3636V36H141.393V24.3636H143.45ZM147.621 24.3636V36H145.565V24.3636H147.621ZM163.756 28.2898H161.631C161.571 27.9413 161.459 27.6326 161.296 27.3636C161.133 27.0909 160.931 26.8598 160.688 26.6705C160.446 26.4811 160.169 26.339 159.859 26.2443C159.552 26.1458 159.22 26.0966 158.864 26.0966C158.232 26.0966 157.671 26.2557 157.183 26.5739C156.694 26.8883 156.311 27.3504 156.035 27.9602C155.758 28.5663 155.62 29.3068 155.62 30.1818C155.62 31.072 155.758 31.822 156.035 32.4318C156.315 33.0379 156.698 33.4962 157.183 33.8068C157.671 34.1136 158.23 34.267 158.859 34.267C159.207 34.267 159.533 34.2216 159.836 34.1307C160.143 34.036 160.417 33.8977 160.66 33.7159C160.906 33.5341 161.112 33.3106 161.279 33.0455C161.45 32.7803 161.567 32.4773 161.631 32.1364L163.756 32.1477C163.677 32.7008 163.504 33.2197 163.239 33.7045C162.978 34.1894 162.635 34.6174 162.211 34.9886C161.787 35.3561 161.29 35.6439 160.722 35.8523C160.154 36.0568 159.523 36.1591 158.83 36.1591C157.808 36.1591 156.895 35.9223 156.092 35.4489C155.289 34.9754 154.656 34.2917 154.194 33.3977C153.732 32.5038 153.501 31.4318 153.501 30.1818C153.501 28.928 153.734 27.8561 154.2 26.9659C154.665 26.072 155.3 25.3883 156.103 24.9148C156.906 24.4413 157.815 24.2045 158.83 24.2045C159.478 24.2045 160.08 24.2955 160.637 24.4773C161.194 24.6591 161.69 24.9261 162.126 25.2784C162.561 25.6269 162.919 26.0549 163.2 26.5625C163.484 27.0663 163.669 27.642 163.756 28.2898ZM169.403 36.1705C168.55 36.1705 167.812 35.983 167.187 35.608C166.562 35.233 166.077 34.7083 165.732 34.0341C165.391 33.3598 165.221 32.572 165.221 31.6705C165.221 30.7689 165.391 29.9792 165.732 29.3011C166.077 28.6231 166.562 28.0966 167.187 27.7216C167.812 27.3466 168.55 27.1591 169.403 27.1591C170.255 27.1591 170.994 27.3466 171.619 27.7216C172.244 28.0966 172.727 28.6231 173.067 29.3011C173.412 29.9792 173.585 30.7689 173.585 31.6705C173.585 32.572 173.412 33.3598 173.067 34.0341C172.727 34.7083 172.244 35.233 171.619 35.608C170.994 35.983 170.255 36.1705 169.403 36.1705ZM169.414 34.5227C169.876 34.5227 170.263 34.3958 170.573 34.142C170.884 33.8845 171.115 33.5398 171.266 33.108C171.422 32.6761 171.499 32.1951 171.499 31.6648C171.499 31.1307 171.422 30.6477 171.266 30.2159C171.115 29.7803 170.884 29.4337 170.573 29.1761C170.263 28.9186 169.876 28.7898 169.414 28.7898C168.941 28.7898 168.547 28.9186 168.232 29.1761C167.922 29.4337 167.689 29.7803 167.533 30.2159C167.382 30.6477 167.306 31.1307 167.306 31.6648C167.306 32.1951 167.382 32.6761 167.533 33.108C167.689 33.5398 167.922 33.8845 168.232 34.142C168.547 34.3958 168.941 34.5227 169.414 34.5227ZM179.137 36.1705C178.285 36.1705 177.546 35.983 176.921 35.608C176.296 35.233 175.811 34.7083 175.467 34.0341C175.126 33.3598 174.955 32.572 174.955 31.6705C174.955 30.7689 175.126 29.9792 175.467 29.3011C175.811 28.6231 176.296 28.0966 176.921 27.7216C177.546 27.3466 178.285 27.1591 179.137 27.1591C179.989 27.1591 180.728 27.3466 181.353 27.7216C181.978 28.0966 182.461 28.6231 182.802 29.3011C183.147 29.9792 183.319 30.7689 183.319 31.6705C183.319 32.572 183.147 33.3598 182.802 34.0341C182.461 34.7083 181.978 35.233 181.353 35.608C180.728 35.983 179.989 36.1705 179.137 36.1705ZM179.148 34.5227C179.611 34.5227 179.997 34.3958 180.308 34.142C180.618 33.8845 180.849 33.5398 181.001 33.108C181.156 32.6761 181.234 32.1951 181.234 31.6648C181.234 31.1307 181.156 30.6477 181.001 30.2159C180.849 29.7803 180.618 29.4337 180.308 29.1761C179.997 28.9186 179.611 28.7898 179.148 28.7898C178.675 28.7898 178.281 28.9186 177.967 29.1761C177.656 29.4337 177.423 29.7803 177.268 30.2159C177.116 30.6477 177.04 31.1307 177.04 31.6648C177.04 32.1951 177.116 32.6761 177.268 33.108C177.423 33.5398 177.656 33.8845 177.967 34.142C178.281 34.3958 178.675 34.5227 179.148 34.5227ZM186.94 33.2614L186.934 30.7784H187.263L190.4 27.2727H192.803L188.945 31.5682H188.519L186.94 33.2614ZM185.065 36V24.3636H187.121V36H185.065ZM190.542 36L187.701 32.0284L189.087 30.5795L193.002 36H190.542ZM194.174 36V27.2727H196.231V36H194.174ZM195.208 26.0341C194.882 26.0341 194.602 25.9261 194.367 25.7102C194.132 25.4905 194.015 25.2273 194.015 24.9205C194.015 24.6098 194.132 24.3466 194.367 24.1307C194.602 23.911 194.882 23.8011 195.208 23.8011C195.538 23.8011 195.818 23.911 196.049 24.1307C196.284 24.3466 196.401 24.6098 196.401 24.9205C196.401 25.2273 196.284 25.4905 196.049 25.7102C195.818 25.9261 195.538 26.0341 195.208 26.0341ZM202.21 36.1705C201.335 36.1705 200.579 35.9886 199.942 35.625C199.31 35.2576 198.823 34.7386 198.482 34.0682C198.141 33.3939 197.971 32.6004 197.971 31.6875C197.971 30.7898 198.141 30.0019 198.482 29.3239C198.827 28.642 199.308 28.1117 199.925 27.733C200.543 27.3504 201.268 27.1591 202.102 27.1591C202.639 27.1591 203.147 27.2462 203.624 27.4205C204.105 27.5909 204.53 27.8561 204.897 28.2159C205.268 28.5758 205.56 29.0341 205.772 29.5909C205.984 30.1439 206.09 30.803 206.09 31.5682V32.1989H198.937V30.8125H204.119C204.115 30.4186 204.03 30.0682 203.863 29.7614C203.696 29.4508 203.463 29.2064 203.164 29.0284C202.869 28.8504 202.524 28.7614 202.13 28.7614C201.71 28.7614 201.34 28.8636 201.022 29.0682C200.704 29.2689 200.456 29.5341 200.278 29.8636C200.103 30.1894 200.014 30.5473 200.011 30.9375V32.1477C200.011 32.6553 200.103 33.0909 200.289 33.4545C200.475 33.8144 200.734 34.0909 201.067 34.2841C201.401 34.4735 201.791 34.5682 202.238 34.5682C202.537 34.5682 202.808 34.5265 203.05 34.4432C203.293 34.3561 203.503 34.2292 203.681 34.0625C203.859 33.8958 203.994 33.6894 204.085 33.4432L206.005 33.6591C205.884 34.1667 205.653 34.6098 205.312 34.9886C204.975 35.3636 204.543 35.6553 204.016 35.8636C203.49 36.0682 202.888 36.1705 202.21 36.1705ZM214.728 29.5795L212.853 29.7841C212.8 29.5947 212.707 29.4167 212.575 29.25C212.446 29.0833 212.272 28.9489 212.052 28.8466C211.832 28.7443 211.563 28.6932 211.245 28.6932C210.817 28.6932 210.457 28.786 210.165 28.9716C209.878 29.1572 209.736 29.3977 209.739 29.6932C209.736 29.947 209.828 30.1534 210.018 30.3125C210.211 30.4716 210.529 30.6023 210.972 30.7045L212.461 31.0227C213.287 31.2008 213.9 31.483 214.302 31.8693C214.707 32.2557 214.912 32.7614 214.915 33.3864C214.912 33.9356 214.751 34.4205 214.433 34.8409C214.118 35.2576 213.681 35.5833 213.12 35.8182C212.559 36.053 211.915 36.1705 211.188 36.1705C210.12 36.1705 209.26 35.947 208.609 35.5C207.957 35.0492 207.569 34.4223 207.444 33.6193L209.45 33.4261C209.54 33.8201 209.734 34.1174 210.029 34.3182C210.325 34.5189 210.709 34.6193 211.183 34.6193C211.671 34.6193 212.063 34.5189 212.359 34.3182C212.658 34.1174 212.808 33.8693 212.808 33.5739C212.808 33.3239 212.711 33.1174 212.518 32.9545C212.328 32.7917 212.033 32.6667 211.631 32.5795L210.143 32.267C209.306 32.0928 208.686 31.7992 208.285 31.3864C207.883 30.9697 207.684 30.4432 207.688 29.8068C207.684 29.2689 207.83 28.803 208.126 28.4091C208.425 28.0114 208.84 27.7045 209.37 27.4886C209.904 27.2689 210.52 27.1591 211.217 27.1591C212.239 27.1591 213.044 27.3769 213.631 27.8125C214.222 28.2481 214.588 28.8371 214.728 29.5795Z" fill="white"/>
</g>
<defs>
<filter id="filter0_dd_214_784" x="0" y="0" width="262.031" height="82" filterUnits="userSpaceOnUse" color-interpolation-filters="sRGB">
<feFlood flood-opacity="0" result="BackgroundImageFix"/>
<feColorMatrix in="SourceAlpha" type="matrix" values="0 0 0 0 0 0 0 0 0 0 0 0 0 0 0 0 0 0 127 0" result="hardAlpha"/>
<feOffset dy="10"/>
<feGaussianBlur stdDeviation="7.5"/>
<feColorMatrix type="matrix" values="0 0 0 0 0.388235 0 0 0 0 0.4 0 0 0 0 0.945098 0 0 0 0.3 0"/>
<feBlend mode="normal" in2="BackgroundImageFix" result="effect1_dropShadow_214_784"/>
<feColorMatrix in="SourceAlpha" type="matrix" values="0 0 0 0 0 0 0 0 0 0 0 0 0 0 0 0 0 0 127 0" result="hardAlpha"/>
<feOffset dy="4"/>
<feGaussianBlur stdDeviation="3"/>
<feColorMatrix type="matrix" values="0 0 0 0 0.388235 0 0 0 0 0.4 0 0 0 0 0.945098 0 0 0 0.3 0"/>
<feBlend mode="normal" in2="effect1_dropShadow_214_784" result="effect2_dropShadow_214_784"/>
<feBlend mode="normal" in="SourceGraphic" in2="effect2_dropShadow_214_784" result="shape"/>
</filter>
<clipPath id="clip0_214_784">
<path d="M47 23H61V39H47V23Z" fill="white"/>
</clipPath>
</defs>
</svg>
