<svg width="328" height="94" viewBox="0 0 328 94" fill="none" xmlns="http://www.w3.org/2000/svg">
<g filter="url(#filter0_dd_134_31)">
<rect x="15" y="5" width="297.156" height="64" rx="16" fill="#6366F1"/>
<path d="M280.156 51H77V23H280.156V51Z" stroke="#E5E7EB"/>
<path d="M80.5993 30.9091L84.0062 41.2131H84.1404L87.541 30.9091H90.149L85.5339 44H82.6064L77.9977 30.9091H80.5993ZM91.771 44V34.1818H94.0849V44H91.771ZM92.9343 32.7884C92.5678 32.7884 92.2525 32.6669 91.9883 32.424C91.7241 32.1768 91.592 31.8807 91.592 31.5355C91.592 31.1861 91.7241 30.8899 91.9883 30.647C92.2525 30.3999 92.5678 30.2763 92.9343 30.2763C93.305 30.2763 93.6204 30.3999 93.8803 30.647C94.1445 30.8899 94.2766 31.1861 94.2766 31.5355C94.2766 31.8807 94.1445 32.1768 93.8803 32.424C93.6204 32.6669 93.305 32.7884 92.9343 32.7884ZM100.811 44.1918C99.8265 44.1918 98.9764 43.9872 98.2605 43.5781C97.5488 43.1648 97.0012 42.581 96.6177 41.8267C96.2342 41.0682 96.0424 40.1754 96.0424 39.1484C96.0424 38.1385 96.2342 37.2521 96.6177 36.4893C97.0055 35.7223 97.5467 35.1257 98.2413 34.6996C98.9359 34.2692 99.752 34.054 100.689 34.054C101.295 34.054 101.866 34.152 102.403 34.348C102.944 34.5398 103.421 34.8381 103.834 35.2429C104.252 35.6477 104.58 36.1634 104.819 36.7898C105.057 37.4119 105.177 38.1534 105.177 39.0142V39.7237H97.1291V38.1641H102.959C102.954 37.7209 102.858 37.3267 102.671 36.9815C102.483 36.6321 102.221 36.3572 101.885 36.157C101.552 35.9567 101.165 35.8565 100.721 35.8565C100.248 35.8565 99.8329 35.9716 99.475 36.2017C99.117 36.4276 98.8379 36.7259 98.6376 37.0966C98.4416 37.4631 98.3414 37.8658 98.3372 38.3047V39.6662C98.3372 40.2372 98.4416 40.7273 98.6504 41.1364C98.8592 41.5412 99.1511 41.8523 99.5261 42.0696C99.9011 42.2827 100.34 42.3892 100.843 42.3892C101.18 42.3892 101.484 42.3423 101.757 42.2486C102.03 42.1506 102.266 42.0078 102.466 41.8203C102.667 41.6328 102.818 41.4006 102.92 41.1236L105.081 41.3665C104.944 41.9375 104.684 42.4361 104.301 42.8622C103.922 43.2841 103.436 43.6122 102.844 43.8466C102.251 44.0767 101.574 44.1918 100.811 44.1918ZM109.108 44L106.334 34.1818H108.692L110.418 41.0852H110.508L112.272 34.1818H114.605L116.369 41.0469H116.465L118.165 34.1818H120.53L117.75 44H115.34L113.499 37.3651H113.365L111.524 44H109.108ZM126.713 30.9091H129.615L133.501 40.3949H133.655L137.541 30.9091H140.443V44H138.168V35.0064H138.046L134.428 43.9616H132.728L129.11 34.9872H128.989V44H126.713V30.9091ZM144.362 47.6818C144.046 47.6818 143.754 47.6563 143.486 47.6051C143.222 47.5582 143.011 47.5028 142.853 47.4389L143.39 45.6364C143.727 45.7344 144.027 45.7813 144.291 45.777C144.555 45.7727 144.788 45.6896 144.988 45.5277C145.192 45.37 145.365 45.1058 145.506 44.7351L145.704 44.2045L142.143 34.1818H144.598L146.861 41.5966H146.963L149.232 34.1818H151.693L147.762 45.1889C147.579 45.7088 147.336 46.1541 147.033 46.5249C146.731 46.8999 146.36 47.1854 145.921 47.3814C145.487 47.5817 144.967 47.6818 144.362 47.6818ZM159.543 44H157.011L161.62 30.9091H164.548L169.163 44H166.631L163.135 33.5938H163.033L159.543 44ZM159.626 38.8672H166.529V40.772H159.626V38.8672ZM174.768 44.1918C173.788 44.1918 172.947 43.9766 172.244 43.5462C171.545 43.1158 171.006 42.5213 170.626 41.7628C170.251 41 170.064 40.1222 170.064 39.1293C170.064 38.1321 170.256 37.2521 170.639 36.4893C171.023 35.7223 171.564 35.1257 172.263 34.6996C172.966 34.2692 173.797 34.054 174.756 34.054C175.553 34.054 176.258 34.201 176.871 34.495C177.489 34.7848 177.982 35.196 178.348 35.7287C178.714 36.2571 178.923 36.875 178.974 37.5824H176.763C176.673 37.1094 176.46 36.7152 176.124 36.3999C175.791 36.0803 175.346 35.9205 174.788 35.9205C174.315 35.9205 173.899 36.0483 173.541 36.304C173.183 36.5554 172.904 36.9176 172.704 37.3906C172.508 37.8636 172.41 38.4304 172.41 39.0909C172.41 39.7599 172.508 40.3352 172.704 40.8168C172.9 41.294 173.175 41.6626 173.528 41.9226C173.886 42.1783 174.306 42.3061 174.788 42.3061C175.129 42.3061 175.433 42.2422 175.702 42.1143C175.974 41.9822 176.202 41.7926 176.386 41.5455C176.569 41.2983 176.695 40.9979 176.763 40.6442H178.974C178.919 41.3388 178.714 41.9545 178.361 42.4915C178.007 43.0241 177.526 43.4418 176.916 43.7443C176.307 44.0426 175.591 44.1918 174.768 44.1918ZM185.777 34.1818V35.9716H180.133V34.1818H185.777ZM181.526 31.8295H183.84V41.0469C183.84 41.358 183.887 41.5966 183.981 41.7628C184.079 41.9247 184.207 42.0355 184.365 42.0952C184.522 42.1548 184.697 42.1847 184.889 42.1847C185.034 42.1847 185.166 42.174 185.285 42.1527C185.409 42.1314 185.502 42.1122 185.566 42.0952L185.956 43.9041C185.833 43.9467 185.656 43.9936 185.426 44.0447C185.2 44.0959 184.923 44.1257 184.595 44.1342C184.015 44.1513 183.493 44.0639 183.029 43.8722C182.564 43.6761 182.195 43.3736 181.923 42.9645C181.654 42.5554 181.522 42.044 181.526 41.4304V31.8295ZM187.712 44V34.1818H190.026V44H187.712ZM188.876 32.7884C188.509 32.7884 188.194 32.6669 187.93 32.424C187.665 32.1768 187.533 31.8807 187.533 31.5355C187.533 31.1861 187.665 30.8899 187.93 30.647C188.194 30.3999 188.509 30.2763 188.876 30.2763C189.246 30.2763 189.562 30.3999 189.822 30.647C190.086 30.8899 190.218 31.1861 190.218 31.5355C190.218 31.8807 190.086 32.1768 189.822 32.424C189.562 32.6669 189.246 32.7884 188.876 32.7884ZM201.176 34.1818L197.679 44H195.122L191.626 34.1818H194.093L196.35 41.4751H196.452L198.715 34.1818H201.176ZM206.789 44.1918C205.805 44.1918 204.955 43.9872 204.239 43.5781C203.527 43.1648 202.98 42.581 202.596 41.8267C202.213 41.0682 202.021 40.1754 202.021 39.1484C202.021 38.1385 202.213 37.2521 202.596 36.4893C202.984 35.7223 203.525 35.1257 204.22 34.6996C204.914 34.2692 205.73 34.054 206.668 34.054C207.273 34.054 207.844 34.152 208.381 34.348C208.922 34.5398 209.4 34.8381 209.813 35.2429C210.23 35.6477 210.559 36.1634 210.797 36.7898C211.036 37.4119 211.155 38.1534 211.155 39.0142V39.7237H203.108V38.1641H208.937C208.933 37.7209 208.837 37.3267 208.65 36.9815C208.462 36.6321 208.2 36.3572 207.863 36.157C207.531 35.9567 207.143 35.8565 206.7 35.8565C206.227 35.8565 205.811 35.9716 205.453 36.2017C205.096 36.4276 204.816 36.7259 204.616 37.0966C204.42 37.4631 204.32 37.8658 204.316 38.3047V39.6662C204.316 40.2372 204.42 40.7273 204.629 41.1364C204.838 41.5412 205.13 41.8523 205.505 42.0696C205.88 42.2827 206.319 42.3892 206.821 42.3892C207.158 42.3892 207.463 42.3423 207.735 42.2486C208.008 42.1506 208.245 42.0078 208.445 41.8203C208.645 41.6328 208.797 41.4006 208.899 41.1236L211.059 41.3665C210.923 41.9375 210.663 42.4361 210.279 42.8622C209.9 43.2841 209.414 43.6122 208.822 43.8466C208.23 44.0767 207.552 44.1918 206.789 44.1918ZM217.105 32.897V30.9091H227.549V32.897H223.503V44H221.151V32.897H217.105ZM229.46 44V34.1818H231.774V44H229.46ZM230.624 32.7884C230.257 32.7884 229.942 32.6669 229.678 32.424C229.414 32.1768 229.281 31.8807 229.281 31.5355C229.281 31.1861 229.414 30.8899 229.678 30.647C229.942 30.3999 230.257 30.2763 230.624 30.2763C230.994 30.2763 231.31 30.3999 231.57 30.647C231.834 30.8899 231.966 31.1861 231.966 31.5355C231.966 31.8807 231.834 32.1768 231.57 32.424C231.31 32.6669 230.994 32.7884 230.624 32.7884ZM238.436 44.1918C237.456 44.1918 236.615 43.9766 235.912 43.5462C235.213 43.1158 234.674 42.5213 234.294 41.7628C233.919 41 233.732 40.1222 233.732 39.1293C233.732 38.1321 233.924 37.2521 234.307 36.4893C234.691 35.7223 235.232 35.1257 235.931 34.6996C236.634 34.2692 237.465 34.054 238.424 34.054C239.221 34.054 239.926 34.201 240.539 34.495C241.157 34.7848 241.65 35.196 242.016 35.7287C242.382 36.2571 242.591 36.875 242.642 37.5824H240.431C240.341 37.1094 240.128 36.7152 239.792 36.3999C239.459 36.0803 239.014 35.9205 238.456 35.9205C237.983 35.9205 237.567 36.0483 237.209 36.304C236.851 36.5554 236.572 36.9176 236.372 37.3906C236.176 37.8636 236.078 38.4304 236.078 39.0909C236.078 39.7599 236.176 40.3352 236.372 40.8168C236.568 41.294 236.843 41.6626 237.196 41.9226C237.554 42.1783 237.974 42.3061 238.456 42.3061C238.797 42.3061 239.101 42.2422 239.37 42.1143C239.642 41.9822 239.87 41.7926 240.054 41.5455C240.237 41.2983 240.363 40.9979 240.431 40.6442H242.642C242.587 41.3388 242.382 41.9545 242.029 42.4915C241.675 43.0241 241.194 43.4418 240.584 43.7443C239.975 44.0426 239.259 44.1918 238.436 44.1918ZM246.652 40.919L246.645 38.1257H247.016L250.545 34.1818H253.248L248.908 39.0142H248.429L246.652 40.919ZM244.542 44V30.9091H246.856V44H244.542ZM250.704 44L247.508 39.532L249.068 37.902L253.472 44H250.704ZM258.733 44.1918C257.748 44.1918 256.898 43.9872 256.182 43.5781C255.471 43.1648 254.923 42.581 254.54 41.8267C254.156 41.0682 253.964 40.1754 253.964 39.1484C253.964 38.1385 254.156 37.2521 254.54 36.4893C254.927 35.7223 255.469 35.1257 256.163 34.6996C256.858 34.2692 257.674 34.054 258.611 34.054C259.216 34.054 259.787 34.152 260.324 34.348C260.866 34.5398 261.343 34.8381 261.756 35.2429C262.174 35.6477 262.502 36.1634 262.741 36.7898C262.979 37.4119 263.099 38.1534 263.099 39.0142V39.7237H255.051V38.1641H260.881C260.876 37.7209 260.78 37.3267 260.593 36.9815C260.405 36.6321 260.143 36.3572 259.807 36.157C259.474 35.9567 259.086 35.8565 258.643 35.8565C258.17 35.8565 257.755 35.9716 257.397 36.2017C257.039 36.4276 256.76 36.7259 256.559 37.0966C256.363 37.4631 256.263 37.8658 256.259 38.3047V39.6662C256.259 40.2372 256.363 40.7273 256.572 41.1364C256.781 41.5412 257.073 41.8523 257.448 42.0696C257.823 42.2827 258.262 42.3892 258.765 42.3892C259.101 42.3892 259.406 42.3423 259.679 42.2486C259.952 42.1506 260.188 42.0078 260.388 41.8203C260.589 41.6328 260.74 41.4006 260.842 41.1236L263.003 41.3665C262.866 41.9375 262.606 42.4361 262.223 42.8622C261.844 43.2841 261.358 43.6122 260.765 43.8466C260.173 44.0767 259.496 44.1918 258.733 44.1918ZM269.959 34.1818V35.9716H264.315V34.1818H269.959ZM265.708 31.8295H268.022V41.0469C268.022 41.358 268.069 41.5966 268.163 41.7628C268.261 41.9247 268.388 42.0355 268.546 42.0952C268.704 42.1548 268.879 42.1847 269.07 42.1847C269.215 42.1847 269.347 42.174 269.467 42.1527C269.59 42.1314 269.684 42.1122 269.748 42.0952L270.138 43.9041C270.014 43.9467 269.837 43.9936 269.607 44.0447C269.381 44.0959 269.104 44.1257 268.776 44.1342C268.197 44.1513 267.675 44.0639 267.21 43.8722C266.746 43.6761 266.377 43.3736 266.104 42.9645C265.836 42.5554 265.704 42.044 265.708 41.4304V31.8295ZM279.513 36.777L277.404 37.0071C277.344 36.794 277.24 36.5938 277.091 36.4062C276.946 36.2188 276.75 36.0675 276.503 35.9524C276.256 35.8374 275.953 35.7798 275.595 35.7798C275.113 35.7798 274.709 35.8842 274.381 36.093C274.057 36.3018 273.897 36.5724 273.901 36.9048C273.897 37.1903 274.001 37.4226 274.214 37.6016C274.432 37.7805 274.79 37.9276 275.288 38.0426L276.963 38.4006C277.892 38.6009 278.582 38.9183 279.034 39.353C279.49 39.7876 279.72 40.3565 279.724 41.0597C279.72 41.6776 279.539 42.223 279.181 42.696C278.827 43.1648 278.335 43.5312 277.704 43.7955C277.074 44.0597 276.349 44.1918 275.531 44.1918C274.329 44.1918 273.362 43.9403 272.629 43.4375C271.896 42.9304 271.459 42.2251 271.319 41.3217L273.575 41.1044C273.677 41.5476 273.895 41.8821 274.227 42.108C274.559 42.3338 274.992 42.4467 275.525 42.4467C276.074 42.4467 276.515 42.3338 276.848 42.108C277.184 41.8821 277.353 41.603 277.353 41.2706C277.353 40.9893 277.244 40.7571 277.027 40.5739C276.814 40.3906 276.481 40.25 276.03 40.152L274.355 39.8004C273.413 39.6044 272.716 39.2741 272.265 38.8097C271.813 38.3409 271.589 37.7486 271.594 37.0327C271.589 36.4276 271.753 35.9034 272.086 35.4602C272.422 35.0128 272.889 34.6676 273.486 34.4247C274.086 34.1776 274.779 34.054 275.563 34.054C276.714 34.054 277.619 34.299 278.28 34.7891C278.944 35.2791 279.356 35.9418 279.513 36.777Z" fill="white"/>
<path d="M57.2083 28.8334H66.875M57.2083 37H66.875M57.2083 45.1667H66.875M45.125 42.8334L47.5417 45.1667L52.375 40.5M45.125 31.1667L47.5417 33.5L52.375 28.8334" stroke="white" stroke-width="2" stroke-linecap="round" stroke-linejoin="round"/>
</g>
<defs>
<filter id="filter0_dd_134_31" x="0" y="0" width="327.156" height="94" filterUnits="userSpaceOnUse" color-interpolation-filters="sRGB">
<feFlood flood-opacity="0" result="BackgroundImageFix"/>
<feColorMatrix in="SourceAlpha" type="matrix" values="0 0 0 0 0 0 0 0 0 0 0 0 0 0 0 0 0 0 127 0" result="hardAlpha"/>
<feOffset dy="10"/>
<feGaussianBlur stdDeviation="7.5"/>
<feColorMatrix type="matrix" values="0 0 0 0 0 0 0 0 0 0 0 0 0 0 0 0 0 0 0.1 0"/>
<feBlend mode="normal" in2="BackgroundImageFix" result="effect1_dropShadow_134_31"/>
<feColorMatrix in="SourceAlpha" type="matrix" values="0 0 0 0 0 0 0 0 0 0 0 0 0 0 0 0 0 0 127 0" result="hardAlpha"/>
<feOffset dy="4"/>
<feGaussianBlur stdDeviation="3"/>
<feColorMatrix type="matrix" values="0 0 0 0 0 0 0 0 0 0 0 0 0 0 0 0 0 0 0.1 0"/>
<feBlend mode="normal" in2="effect1_dropShadow_134_31" result="effect2_dropShadow_134_31"/>
<feBlend mode="normal" in="SourceGraphic" in2="effect2_dropShadow_134_31" result="shape"/>
</filter>
</defs>
</svg>
