<svg width="260" height="64" viewBox="0 0 260 64" fill="none" xmlns="http://www.w3.org/2000/svg">
<rect x="1" y="1" width="257.828" height="62" rx="15" fill="white"/>
<rect x="1" y="1" width="257.828" height="62" rx="15" stroke="#1D3557" stroke-width="2"/>
<path d="M49.75 46H34V18H49.75V46Z" stroke="#E5E7EB"/>
<path d="M43.8444 40.0417L38.3027 34.5M38.3027 34.5L43.8444 28.9584M38.3027 34.5H49.3861" stroke="black" stroke-width="2" stroke-linecap="round" stroke-linejoin="round"/>
<path d="M225.828 46H61.75V18H225.828V46Z" stroke="#E5E7EB"/>
<path d="M63.3371 39V25.9091H68.3485C69.2945 25.9091 70.0807 26.0582 70.7071 26.3565C71.3378 26.6506 71.8087 27.0533 72.1198 27.5646C72.4351 28.076 72.5928 28.6555 72.5928 29.3033C72.5928 29.8359 72.4905 30.2919 72.286 30.6712C72.0814 31.0462 71.8066 31.3509 71.4614 31.5852C71.1162 31.8196 70.7306 31.9879 70.3044 32.0902V32.218C70.7689 32.2436 71.2142 32.3864 71.6404 32.6463C72.0708 32.902 72.4223 33.2642 72.695 33.733C72.9678 34.2017 73.1041 34.7685 73.1041 35.4332C73.1041 36.1108 72.9401 36.7202 72.612 37.2614C72.2838 37.7983 71.7895 38.2223 71.129 38.5334C70.4685 38.8445 69.6375 39 68.6361 39H63.3371ZM65.7085 37.0185H68.259C69.1198 37.0185 69.7398 36.8544 70.1191 36.5263C70.5026 36.1939 70.6943 35.7678 70.6943 35.2479C70.6943 34.8601 70.5985 34.5107 70.4067 34.1996C70.2149 33.8842 69.9422 33.6371 69.5885 33.4581C69.2348 33.2749 68.8129 33.1832 68.3229 33.1832H65.7085V37.0185ZM65.7085 31.4766H68.0544C68.4635 31.4766 68.8321 31.402 69.1602 31.2528C69.4884 31.0994 69.7462 30.8842 69.9337 30.6072C70.1254 30.326 70.2213 29.9936 70.2213 29.6101C70.2213 29.103 70.0423 28.6854 69.6844 28.3572C69.3307 28.0291 68.8044 27.8651 68.1056 27.8651H65.7085V31.4766ZM77.8902 39.1982C77.268 39.1982 76.7077 39.0874 76.2091 38.8658C75.7148 38.6399 75.3227 38.3075 75.0329 37.8686C74.7474 37.4297 74.6047 36.8885 74.6047 36.245C74.6047 35.6911 74.7069 35.233 74.9115 34.8707C75.116 34.5085 75.3952 34.2188 75.7488 34.0014C76.1025 33.7841 76.501 33.62 76.9442 33.5092C77.3916 33.3942 77.854 33.3111 78.3312 33.2599C78.9065 33.2003 79.3731 33.147 79.7311 33.1001C80.089 33.049 80.349 32.9723 80.5109 32.87C80.6771 32.7635 80.7602 32.5994 80.7602 32.3778V32.3395C80.7602 31.858 80.6175 31.4851 80.3319 31.2209C80.0464 30.9567 79.6352 30.8246 79.0983 30.8246C78.5315 30.8246 78.0819 30.9482 77.7496 31.1953C77.4214 31.4425 77.1998 31.7344 77.0848 32.071L74.9243 31.7642C75.0947 31.1676 75.376 30.669 75.768 30.2685C76.1601 29.8636 76.6395 29.5611 77.2062 29.3608C77.773 29.1562 78.3994 29.054 79.0855 29.054C79.5585 29.054 80.0294 29.1094 80.4981 29.2202C80.9669 29.331 81.3952 29.5142 81.7829 29.7699C82.1707 30.0213 82.4818 30.3643 82.7162 30.799C82.9548 31.2337 83.0741 31.777 83.0741 32.429V39H80.8497V37.6513H80.773C80.6324 37.924 80.4342 38.1797 80.1785 38.4183C79.9271 38.6527 79.6096 38.8423 79.2261 38.9872C78.8469 39.1278 78.4015 39.1982 77.8902 39.1982ZM78.491 37.4979C78.9555 37.4979 79.3582 37.4062 79.6991 37.223C80.04 37.0355 80.3021 36.7884 80.4854 36.4815C80.6729 36.1747 80.7666 35.8402 80.7666 35.478V34.321C80.6942 34.3807 80.5706 34.4361 80.3959 34.4872C80.2254 34.5384 80.0336 34.5831 79.8206 34.6214C79.6075 34.6598 79.3966 34.6939 79.1878 34.7237C78.979 34.7536 78.7979 34.7791 78.6444 34.8004C78.2993 34.8473 77.9903 34.924 77.7176 35.0305C77.4449 35.1371 77.2297 35.2862 77.072 35.478C76.9143 35.6655 76.8355 35.9084 76.8355 36.2067C76.8355 36.6328 76.991 36.9545 77.3021 37.1719C77.6132 37.3892 78.0095 37.4979 78.491 37.4979ZM89.6835 39.1918C88.7034 39.1918 87.8618 38.9766 87.1586 38.5462C86.4598 38.1158 85.9207 37.5213 85.5415 36.7628C85.1665 36 84.979 35.1222 84.979 34.1293C84.979 33.1321 85.1707 32.2521 85.5542 31.4893C85.9378 30.7223 86.479 30.1257 87.1778 29.6996C87.8809 29.2692 88.7119 29.054 89.6707 29.054C90.4676 29.054 91.1729 29.201 91.7865 29.495C92.4044 29.7848 92.8966 30.196 93.2631 30.7287C93.6295 31.2571 93.8383 31.875 93.8895 32.5824H91.6778C91.5883 32.1094 91.3753 31.7152 91.0386 31.3999C90.7062 31.0803 90.2609 30.9205 89.7027 30.9205C89.2297 30.9205 88.8142 31.0483 88.4562 31.304C88.0983 31.5554 87.8192 31.9176 87.6189 32.3906C87.4229 32.8636 87.3248 33.4304 87.3248 34.0909C87.3248 34.7599 87.4229 35.3352 87.6189 35.8168C87.8149 36.294 88.0898 36.6626 88.4434 36.9226C88.8014 37.1783 89.2211 37.3061 89.7027 37.3061C90.0436 37.3061 90.3483 37.2422 90.6167 37.1143C90.8895 36.9822 91.1175 36.7926 91.3007 36.5455C91.4839 36.2983 91.6096 35.9979 91.6778 35.6442H93.8895C93.8341 36.3388 93.6295 36.9545 93.2758 37.4915C92.9221 38.0241 92.4406 38.4418 91.8312 38.7443C91.2219 39.0426 90.5059 39.1918 89.6835 39.1918ZM97.8989 35.919L97.8925 33.1257H98.2632L101.792 29.1818H104.495L100.155 34.0142H99.6759L97.8989 35.919ZM95.7895 39V25.9091H98.1034V39H95.7895ZM101.951 39L98.7554 34.532L100.315 32.902L104.719 39H101.951ZM115.405 29.1818V30.9716H109.761V29.1818H115.405ZM111.154 26.8295H113.468V36.0469C113.468 36.358 113.515 36.5966 113.609 36.7628C113.707 36.9247 113.835 37.0355 113.992 37.0952C114.15 37.1548 114.325 37.1847 114.517 37.1847C114.661 37.1847 114.794 37.174 114.913 37.1527C115.036 37.1314 115.13 37.1122 115.194 37.0952L115.584 38.9041C115.46 38.9467 115.284 38.9936 115.054 39.0447C114.828 39.0959 114.551 39.1257 114.223 39.1342C113.643 39.1513 113.121 39.0639 112.657 38.8722C112.192 38.6761 111.823 38.3736 111.551 37.9645C111.282 37.5554 111.15 37.044 111.154 36.4304V26.8295ZM121.517 39.1918C120.559 39.1918 119.728 38.9808 119.025 38.5589C118.321 38.1371 117.776 37.5469 117.388 36.7884C117.005 36.0298 116.813 35.1435 116.813 34.1293C116.813 33.1151 117.005 32.2266 117.388 31.4638C117.776 30.701 118.321 30.1087 119.025 29.6868C119.728 29.2649 120.559 29.054 121.517 29.054C122.476 29.054 123.307 29.2649 124.01 29.6868C124.714 30.1087 125.257 30.701 125.64 31.4638C126.028 32.2266 126.222 33.1151 126.222 34.1293C126.222 35.1435 126.028 36.0298 125.64 36.7884C125.257 37.5469 124.714 38.1371 124.01 38.5589C123.307 38.9808 122.476 39.1918 121.517 39.1918ZM121.53 37.3381C122.05 37.3381 122.485 37.1953 122.834 36.9098C123.184 36.62 123.444 36.2322 123.614 35.7464C123.789 35.2607 123.876 34.7195 123.876 34.1229C123.876 33.522 123.789 32.9787 123.614 32.4929C123.444 32.0028 123.184 31.6129 122.834 31.3232C122.485 31.0334 122.05 30.8885 121.53 30.8885C120.998 30.8885 120.554 31.0334 120.201 31.3232C119.851 31.6129 119.589 32.0028 119.415 32.4929C119.244 32.9787 119.159 33.522 119.159 34.1229C119.159 34.7195 119.244 35.2607 119.415 35.7464C119.589 36.2322 119.851 36.62 120.201 36.9098C120.554 37.1953 120.998 37.3381 121.53 37.3381ZM137.189 39H132.753V25.9091H137.279C138.578 25.9091 139.695 26.1712 140.628 26.6953C141.566 27.2152 142.286 27.9631 142.789 28.9389C143.291 29.9148 143.543 31.0824 143.543 32.4418C143.543 33.8054 143.289 34.9773 142.782 35.9574C142.279 36.9375 141.553 37.6896 140.603 38.2138C139.657 38.7379 138.519 39 137.189 39ZM135.125 36.9482H137.074C137.986 36.9482 138.747 36.782 139.356 36.4496C139.965 36.1129 140.424 35.6122 140.73 34.9474C141.037 34.2784 141.191 33.4432 141.191 32.4418C141.191 31.4403 141.037 30.6094 140.73 29.9489C140.424 29.2841 139.97 28.7876 139.369 28.4595C138.772 28.1271 138.031 27.9609 137.144 27.9609H135.125V36.9482ZM148.519 39.1982C147.897 39.1982 147.337 39.0874 146.838 38.8658C146.344 38.6399 145.952 38.3075 145.662 37.8686C145.376 37.4297 145.234 36.8885 145.234 36.245C145.234 35.6911 145.336 35.233 145.54 34.8707C145.745 34.5085 146.024 34.2188 146.378 34.0014C146.731 33.7841 147.13 33.62 147.573 33.5092C148.021 33.3942 148.483 33.3111 148.96 33.2599C149.535 33.2003 150.002 33.147 150.36 33.1001C150.718 33.049 150.978 32.9723 151.14 32.87C151.306 32.7635 151.389 32.5994 151.389 32.3778V32.3395C151.389 31.858 151.246 31.4851 150.961 31.2209C150.675 30.9567 150.264 30.8246 149.727 30.8246C149.16 30.8246 148.711 30.9482 148.378 31.1953C148.05 31.4425 147.829 31.7344 147.714 32.071L145.553 31.7642C145.724 31.1676 146.005 30.669 146.397 30.2685C146.789 29.8636 147.268 29.5611 147.835 29.3608C148.402 29.1562 149.028 29.054 149.714 29.054C150.187 29.054 150.658 29.1094 151.127 29.2202C151.596 29.331 152.024 29.5142 152.412 29.7699C152.8 30.0213 153.111 30.3643 153.345 30.799C153.584 31.2337 153.703 31.777 153.703 32.429V39H151.479V37.6513H151.402C151.261 37.924 151.063 38.1797 150.807 38.4183C150.556 38.6527 150.239 38.8423 149.855 38.9872C149.476 39.1278 149.03 39.1982 148.519 39.1982ZM149.12 37.4979C149.584 37.4979 149.987 37.4062 150.328 37.223C150.669 37.0355 150.931 36.7884 151.114 36.4815C151.302 36.1747 151.396 35.8402 151.396 35.478V34.321C151.323 34.3807 151.199 34.4361 151.025 34.4872C150.854 34.5384 150.663 34.5831 150.449 34.6214C150.236 34.6598 150.025 34.6939 149.817 34.7237C149.608 34.7536 149.427 34.7791 149.273 34.8004C148.928 34.8473 148.619 34.924 148.347 35.0305C148.074 35.1371 147.859 35.2862 147.701 35.478C147.543 35.6655 147.464 35.9084 147.464 36.2067C147.464 36.6328 147.62 36.9545 147.931 37.1719C148.242 37.3892 148.638 37.4979 149.12 37.4979ZM163.79 31.777L161.68 32.0071C161.621 31.794 161.516 31.5938 161.367 31.4062C161.222 31.2188 161.026 31.0675 160.779 30.9524C160.532 30.8374 160.229 30.7798 159.871 30.7798C159.39 30.7798 158.985 30.8842 158.657 31.093C158.333 31.3018 158.173 31.5724 158.177 31.9048C158.173 32.1903 158.278 32.4226 158.491 32.6016C158.708 32.7805 159.066 32.9276 159.565 33.0426L161.239 33.4006C162.168 33.6009 162.859 33.9183 163.31 34.353C163.766 34.7876 163.996 35.3565 164.001 36.0597C163.996 36.6776 163.815 37.223 163.457 37.696C163.104 38.1648 162.611 38.5312 161.981 38.7955C161.35 39.0597 160.626 39.1918 159.807 39.1918C158.606 39.1918 157.638 38.9403 156.905 38.4375C156.172 37.9304 155.736 37.2251 155.595 36.3217L157.851 36.1044C157.954 36.5476 158.171 36.8821 158.503 37.108C158.836 37.3338 159.268 37.4467 159.801 37.4467C160.351 37.4467 160.792 37.3338 161.124 37.108C161.461 36.8821 161.629 36.603 161.629 36.2706C161.629 35.9893 161.521 35.7571 161.303 35.5739C161.09 35.3906 160.758 35.25 160.306 35.152L158.631 34.8004C157.69 34.6044 156.993 34.2741 156.541 33.8097C156.089 33.3409 155.866 32.7486 155.87 32.0327C155.866 31.4276 156.03 30.9034 156.362 30.4602C156.699 30.0128 157.165 29.6676 157.762 29.4247C158.363 29.1776 159.055 29.054 159.839 29.054C160.99 29.054 161.896 29.299 162.556 29.7891C163.221 30.2791 163.632 30.9418 163.79 31.777ZM168.223 33.2472V39H165.909V25.9091H168.171V30.8501H168.286C168.517 30.2962 168.872 29.8594 169.354 29.5398C169.84 29.2159 170.458 29.054 171.208 29.054C171.889 29.054 172.484 29.1967 172.991 29.4822C173.498 29.7678 173.89 30.1854 174.167 30.7351C174.448 31.2848 174.589 31.956 174.589 32.7486V39H172.275V33.1065C172.275 32.446 172.105 31.9325 171.764 31.5661C171.427 31.1953 170.954 31.0099 170.345 31.0099C169.936 31.0099 169.569 31.0994 169.245 31.2784C168.926 31.4531 168.674 31.7067 168.491 32.0391C168.312 32.3714 168.223 32.7741 168.223 33.2472ZM177.05 39V25.9091H179.364V30.8054H179.46C179.579 30.5668 179.747 30.3132 179.965 30.0447C180.182 29.772 180.476 29.5398 180.847 29.348C181.218 29.152 181.691 29.054 182.266 29.054C183.024 29.054 183.708 29.2479 184.318 29.6357C184.931 30.0192 185.417 30.5881 185.775 31.3423C186.137 32.0923 186.318 33.0128 186.318 34.1037C186.318 35.1818 186.142 36.098 185.788 36.8523C185.434 37.6065 184.953 38.1818 184.343 38.5781C183.734 38.9744 183.044 39.1726 182.272 39.1726C181.71 39.1726 181.243 39.0788 180.872 38.8913C180.502 38.7038 180.203 38.478 179.978 38.2138C179.756 37.9453 179.583 37.6918 179.46 37.4531H179.326V39H177.05ZM179.319 34.0909C179.319 34.7259 179.409 35.282 179.588 35.7592C179.771 36.2365 180.033 36.6094 180.374 36.8778C180.719 37.142 181.137 37.2741 181.627 37.2741C182.138 37.2741 182.566 37.1378 182.911 36.8651C183.257 36.5881 183.517 36.2109 183.691 35.7337C183.87 35.2521 183.96 34.7045 183.96 34.0909C183.96 33.4815 183.872 32.9403 183.698 32.4673C183.523 31.9943 183.263 31.6236 182.918 31.3551C182.573 31.0866 182.142 30.9524 181.627 30.9524C181.132 30.9524 180.713 31.0824 180.367 31.3423C180.022 31.6023 179.76 31.9666 179.581 32.4354C179.407 32.9041 179.319 33.456 179.319 34.0909ZM192.568 39.1918C191.609 39.1918 190.778 38.9808 190.075 38.5589C189.372 38.1371 188.827 37.5469 188.439 36.7884C188.055 36.0298 187.864 35.1435 187.864 34.1293C187.864 33.1151 188.055 32.2266 188.439 31.4638C188.827 30.701 189.372 30.1087 190.075 29.6868C190.778 29.2649 191.609 29.054 192.568 29.054C193.527 29.054 194.358 29.2649 195.061 29.6868C195.764 30.1087 196.308 30.701 196.691 31.4638C197.079 32.2266 197.273 33.1151 197.273 34.1293C197.273 35.1435 197.079 36.0298 196.691 36.7884C196.308 37.5469 195.764 38.1371 195.061 38.5589C194.358 38.9808 193.527 39.1918 192.568 39.1918ZM192.581 37.3381C193.101 37.3381 193.536 37.1953 193.885 36.9098C194.234 36.62 194.494 36.2322 194.665 35.7464C194.84 35.2607 194.927 34.7195 194.927 34.1229C194.927 33.522 194.84 32.9787 194.665 32.4929C194.494 32.0028 194.234 31.6129 193.885 31.3232C193.536 31.0334 193.101 30.8885 192.581 30.8885C192.048 30.8885 191.605 31.0334 191.252 31.3232C190.902 31.6129 190.64 32.0028 190.465 32.4929C190.295 32.9787 190.21 33.522 190.21 34.1229C190.21 34.7195 190.295 35.2607 190.465 35.7464C190.64 36.2322 190.902 36.62 191.252 36.9098C191.605 37.1953 192.048 37.3381 192.581 37.3381ZM202.062 39.1982C201.44 39.1982 200.88 39.0874 200.381 38.8658C199.887 38.6399 199.495 38.3075 199.205 37.8686C198.919 37.4297 198.777 36.8885 198.777 36.245C198.777 35.6911 198.879 35.233 199.083 34.8707C199.288 34.5085 199.567 34.2188 199.921 34.0014C200.274 33.7841 200.673 33.62 201.116 33.5092C201.563 33.3942 202.026 33.3111 202.503 33.2599C203.078 33.2003 203.545 33.147 203.903 33.1001C204.261 33.049 204.521 32.9723 204.683 32.87C204.849 32.7635 204.932 32.5994 204.932 32.3778V32.3395C204.932 31.858 204.789 31.4851 204.504 31.2209C204.218 30.9567 203.807 30.8246 203.27 30.8246C202.703 30.8246 202.254 30.9482 201.921 31.1953C201.593 31.4425 201.372 31.7344 201.257 32.071L199.096 31.7642C199.267 31.1676 199.548 30.669 199.94 30.2685C200.332 29.8636 200.811 29.5611 201.378 29.3608C201.945 29.1562 202.571 29.054 203.257 29.054C203.73 29.054 204.201 29.1094 204.67 29.2202C205.139 29.331 205.567 29.5142 205.955 29.7699C206.343 30.0213 206.654 30.3643 206.888 30.799C207.127 31.2337 207.246 31.777 207.246 32.429V39H205.022V37.6513H204.945C204.804 37.924 204.606 38.1797 204.35 38.4183C204.099 38.6527 203.782 38.8423 203.398 38.9872C203.019 39.1278 202.573 39.1982 202.062 39.1982ZM202.663 37.4979C203.127 37.4979 203.53 37.4062 203.871 37.223C204.212 37.0355 204.474 36.7884 204.657 36.4815C204.845 36.1747 204.938 35.8402 204.938 35.478V34.321C204.866 34.3807 204.742 34.4361 204.568 34.4872C204.397 34.5384 204.206 34.5831 203.992 34.6214C203.779 34.6598 203.568 34.6939 203.36 34.7237C203.151 34.7536 202.97 34.7791 202.816 34.8004C202.471 34.8473 202.162 34.924 201.889 35.0305C201.617 35.1371 201.402 35.2862 201.244 35.478C201.086 35.6655 201.007 35.9084 201.007 36.2067C201.007 36.6328 201.163 36.9545 201.474 37.1719C201.785 37.3892 202.181 37.4979 202.663 37.4979ZM209.573 39V29.1818H211.816V30.8182H211.919C212.098 30.2514 212.404 29.8146 212.839 29.5078C213.278 29.1967 213.779 29.0412 214.341 29.0412C214.469 29.0412 214.612 29.0476 214.769 29.0604C214.931 29.0689 215.066 29.0838 215.172 29.1051V31.2337C215.074 31.1996 214.919 31.1697 214.706 31.1442C214.497 31.1143 214.294 31.0994 214.098 31.0994C213.676 31.0994 213.297 31.1911 212.96 31.3743C212.628 31.5533 212.366 31.8026 212.174 32.1222C211.983 32.4418 211.887 32.8104 211.887 33.228V39H209.573ZM219.949 39.1726C219.177 39.1726 218.487 38.9744 217.878 38.5781C217.268 38.1818 216.787 37.6065 216.433 36.8523C216.079 36.098 215.902 35.1818 215.902 34.1037C215.902 33.0128 216.081 32.0923 216.439 31.3423C216.802 30.5881 217.29 30.0192 217.903 29.6357C218.517 29.2479 219.201 29.054 219.955 29.054C220.53 29.054 221.003 29.152 221.374 29.348C221.745 29.5398 222.039 29.772 222.256 30.0447C222.473 30.3132 222.642 30.5668 222.761 30.8054H222.857V25.9091H225.177V39H222.902V37.4531H222.761C222.642 37.6918 222.469 37.9453 222.243 38.2138C222.017 38.478 221.719 38.7038 221.348 38.8913C220.978 39.0788 220.511 39.1726 219.949 39.1726ZM220.594 37.2741C221.084 37.2741 221.502 37.142 221.847 36.8778C222.192 36.6094 222.454 36.2365 222.633 35.7592C222.812 35.282 222.902 34.7259 222.902 34.0909C222.902 33.456 222.812 32.9041 222.633 32.4354C222.459 31.9666 222.199 31.6023 221.853 31.3423C221.513 31.0824 221.093 30.9524 220.594 30.9524C220.079 30.9524 219.648 31.0866 219.303 31.3551C218.958 31.6236 218.698 31.9943 218.523 32.4673C218.348 32.9403 218.261 33.4815 218.261 34.0909C218.261 34.7045 218.348 35.2521 218.523 35.7337C218.702 36.2109 218.964 36.5881 219.309 36.8651C219.659 37.1378 220.087 37.2741 220.594 37.2741Z" fill="#1D3557"/>
</svg>
