<svg width="183" height="40" viewBox="0 0 183 40" fill="none" xmlns="http://www.w3.org/2000/svg">
<rect width="182.625" height="40" rx="16" fill="#6366F1"/>
<rect width="182.625" height="40" rx="16" stroke="#E5E7EB"/>
<path d="M32.6989 13.3636H34.4602V21.017C34.4602 21.8314 34.2689 22.553 33.8864 23.1818C33.5038 23.8068 32.9659 24.2992 32.2727 24.6591C31.5795 25.0152 30.767 25.1932 29.8352 25.1932C28.9072 25.1932 28.0966 25.0152 27.4034 24.6591C26.7102 24.2992 26.1723 23.8068 25.7898 23.1818C25.4072 22.553 25.2159 21.8314 25.2159 21.017V13.3636H26.9716V20.875C26.9716 21.4015 27.0871 21.8693 27.3182 22.2784C27.553 22.6875 27.8845 23.0095 28.3125 23.2443C28.7405 23.4754 29.2481 23.5909 29.8352 23.5909C30.4261 23.5909 30.9356 23.4754 31.3636 23.2443C31.7955 23.0095 32.125 22.6875 32.3523 22.2784C32.5833 21.8693 32.6989 21.4015 32.6989 20.875V13.3636ZM36.8764 28.2727V16.2727H38.5355V17.6875H38.6776C38.776 17.5057 38.9181 17.2955 39.1037 17.0568C39.2893 16.8182 39.5469 16.6098 39.8764 16.4318C40.206 16.25 40.6416 16.1591 41.1832 16.1591C41.8878 16.1591 42.5166 16.3371 43.0696 16.6932C43.6226 17.0492 44.0563 17.5625 44.3707 18.233C44.6889 18.9034 44.848 19.7102 44.848 20.6534C44.848 21.5966 44.6908 22.4053 44.3764 23.0795C44.062 23.75 43.6302 24.267 43.081 24.6307C42.5317 24.9905 41.9048 25.1705 41.2003 25.1705C40.67 25.1705 40.2363 25.0814 39.8991 24.9034C39.5658 24.7254 39.3045 24.517 39.1151 24.2784C38.9257 24.0398 38.7798 23.8277 38.6776 23.642H38.5753V28.2727H36.8764ZM38.5412 20.6364C38.5412 21.25 38.6302 21.7879 38.8082 22.25C38.9863 22.7121 39.2438 23.0739 39.581 23.3352C39.9181 23.5928 40.331 23.7216 40.8196 23.7216C41.3272 23.7216 41.7514 23.5871 42.0923 23.3182C42.4332 23.0455 42.6908 22.6761 42.8651 22.2102C43.0431 21.7443 43.1321 21.2197 43.1321 20.6364C43.1321 20.0606 43.045 19.5436 42.8707 19.0852C42.7003 18.6269 42.4427 18.2652 42.098 18C41.7571 17.7348 41.331 17.6023 40.8196 17.6023C40.3272 17.6023 39.9105 17.7292 39.5696 17.983C39.2325 18.2367 38.9768 18.5909 38.8026 19.0455C38.6283 19.5 38.5412 20.0303 38.5412 20.6364ZM50.0185 25.1705C49.3139 25.1705 48.6851 24.9905 48.1321 24.6307C47.5829 24.267 47.151 23.75 46.8366 23.0795C46.526 22.4053 46.3707 21.5966 46.3707 20.6534C46.3707 19.7102 46.5279 18.9034 46.8423 18.233C47.1605 17.5625 47.5961 17.0492 48.1491 16.6932C48.7022 16.3371 49.3291 16.1591 50.0298 16.1591C50.5715 16.1591 51.0071 16.25 51.3366 16.4318C51.67 16.6098 51.9276 16.8182 52.1094 17.0568C52.295 17.2955 52.4389 17.5057 52.5412 17.6875H52.6435V13.3636H54.3423V25H52.6832V23.642H52.5412C52.4389 23.8277 52.2912 24.0398 52.098 24.2784C51.9086 24.517 51.6473 24.7254 51.3139 24.9034C50.9806 25.0814 50.5488 25.1705 50.0185 25.1705ZM50.3935 23.7216C50.8821 23.7216 51.295 23.5928 51.6321 23.3352C51.973 23.0739 52.2306 22.7121 52.4048 22.25C52.5829 21.7879 52.6719 21.25 52.6719 20.6364C52.6719 20.0303 52.5848 19.5 52.4105 19.0455C52.2363 18.5909 51.9806 18.2367 51.6435 17.983C51.3063 17.7292 50.8897 17.6023 50.3935 17.6023C49.8821 17.6023 49.456 17.7348 49.1151 18C48.7741 18.2652 48.5166 18.6269 48.3423 19.0852C48.1719 19.5436 48.0866 20.0606 48.0866 20.6364C48.0866 21.2197 48.1738 21.7443 48.348 22.2102C48.5223 22.6761 48.7798 23.0455 49.1207 23.3182C49.4654 23.5871 49.8897 23.7216 50.3935 23.7216ZM59.3068 25.1932C58.7538 25.1932 58.2538 25.0909 57.8068 24.8864C57.3598 24.678 57.0057 24.3769 56.7443 23.983C56.4867 23.589 56.358 23.1061 56.358 22.5341C56.358 22.0417 56.4527 21.6364 56.642 21.3182C56.8314 21 57.0871 20.7481 57.4091 20.5625C57.7311 20.3769 58.0909 20.2367 58.4886 20.142C58.8864 20.0473 59.2917 19.9754 59.7045 19.9261C60.2273 19.8655 60.6515 19.8163 60.9773 19.7784C61.303 19.7367 61.5398 19.6705 61.6875 19.5795C61.8352 19.4886 61.9091 19.3409 61.9091 19.1364V19.0966C61.9091 18.6004 61.7689 18.2159 61.4886 17.9432C61.2121 17.6705 60.7992 17.5341 60.25 17.5341C59.678 17.5341 59.2273 17.661 58.8977 17.9148C58.572 18.1648 58.3466 18.4432 58.2216 18.75L56.625 18.3864C56.8144 17.8561 57.0909 17.428 57.4545 17.1023C57.822 16.7727 58.2443 16.5341 58.7216 16.3864C59.1989 16.2348 59.7008 16.1591 60.2273 16.1591C60.5758 16.1591 60.9451 16.2008 61.3352 16.2841C61.7292 16.3636 62.0966 16.5114 62.4375 16.7273C62.7822 16.9432 63.0644 17.2519 63.2841 17.6534C63.5038 18.0511 63.6136 18.5682 63.6136 19.2045V25H61.9545V23.8068H61.8864C61.7765 24.0265 61.6117 24.2424 61.392 24.4545C61.1723 24.6667 60.8902 24.8428 60.5455 24.983C60.2008 25.1231 59.7879 25.1932 59.3068 25.1932ZM59.6761 23.8295C60.1458 23.8295 60.5473 23.7367 60.8807 23.5511C61.2178 23.3655 61.4735 23.1231 61.6477 22.8239C61.8258 22.5208 61.9148 22.197 61.9148 21.8523V20.7273C61.8542 20.7879 61.7367 20.8447 61.5625 20.8977C61.392 20.947 61.197 20.9905 60.9773 21.0284C60.7576 21.0625 60.5436 21.0947 60.3352 21.125C60.1269 21.1515 59.9527 21.1742 59.8125 21.1932C59.483 21.2348 59.1818 21.3049 58.9091 21.4034C58.6402 21.5019 58.4242 21.6439 58.2614 21.8295C58.1023 22.0114 58.0227 22.2538 58.0227 22.5568C58.0227 22.9773 58.178 23.2955 58.4886 23.5114C58.7992 23.7235 59.1951 23.8295 59.6761 23.8295ZM69.9503 16.2727V17.6364H65.1832V16.2727H69.9503ZM66.4616 14.1818H68.1605V22.4375C68.1605 22.767 68.2098 23.0152 68.3082 23.1818C68.4067 23.3447 68.5336 23.4564 68.6889 23.517C68.848 23.5739 69.0204 23.6023 69.206 23.6023C69.3423 23.6023 69.4616 23.5928 69.5639 23.5739C69.6662 23.5549 69.7457 23.5398 69.8026 23.5284L70.1094 24.9318C70.0109 24.9697 69.8707 25.0076 69.6889 25.0455C69.5071 25.0871 69.2798 25.1098 69.0071 25.1136C68.5601 25.1212 68.1435 25.0417 67.7571 24.875C67.3707 24.7083 67.0582 24.4508 66.8196 24.1023C66.581 23.7538 66.4616 23.3163 66.4616 22.7898V14.1818ZM75.4972 25.1761C74.6373 25.1761 73.8968 24.9924 73.2756 24.625C72.6581 24.2538 72.1809 23.733 71.8438 23.0625C71.5104 22.3883 71.3438 21.5985 71.3438 20.6932C71.3438 19.7992 71.5104 19.0114 71.8438 18.3295C72.1809 17.6477 72.6506 17.1155 73.2528 16.733C73.8589 16.3504 74.5672 16.1591 75.3778 16.1591C75.8703 16.1591 76.3475 16.2405 76.8097 16.4034C77.2718 16.5663 77.6866 16.822 78.054 17.1705C78.4214 17.5189 78.7112 17.9716 78.9233 18.5284C79.1354 19.0814 79.2415 19.7538 79.2415 20.5455V21.1477H72.304V19.875H77.5767C77.5767 19.428 77.4858 19.0322 77.304 18.6875C77.1222 18.339 76.8665 18.0644 76.5369 17.8636C76.2112 17.6629 75.8286 17.5625 75.3892 17.5625C74.9119 17.5625 74.4953 17.6799 74.1392 17.9148C73.7869 18.1458 73.5142 18.4489 73.321 18.8239C73.1316 19.1951 73.0369 19.5985 73.0369 20.0341V21.0284C73.0369 21.6117 73.1392 22.108 73.3438 22.517C73.5521 22.9261 73.8419 23.2386 74.2131 23.4545C74.5843 23.6667 75.018 23.7727 75.5142 23.7727C75.8362 23.7727 76.1297 23.7273 76.3949 23.6364C76.66 23.5417 76.8892 23.4015 77.0824 23.2159C77.2756 23.0303 77.4233 22.8011 77.5256 22.5284L79.1335 22.8182C79.0047 23.2917 78.7737 23.7064 78.4403 24.0625C78.1108 24.4148 77.696 24.6894 77.196 24.8864C76.6998 25.0795 76.1335 25.1761 75.4972 25.1761ZM85.4972 25V13.3636H89.6449C90.5502 13.3636 91.3002 13.5284 91.8949 13.858C92.4896 14.1875 92.9347 14.6383 93.2301 15.2102C93.5256 15.7784 93.6733 16.4186 93.6733 17.1307C93.6733 17.8466 93.5237 18.4905 93.2244 19.0625C92.929 19.6307 92.482 20.0814 91.8835 20.4148C91.2888 20.7443 90.5407 20.9091 89.6392 20.9091H86.7869V19.4205H89.4801C90.0521 19.4205 90.5161 19.322 90.8722 19.125C91.2282 18.9242 91.4896 18.6515 91.6562 18.3068C91.8229 17.9621 91.9062 17.5701 91.9062 17.1307C91.9062 16.6913 91.8229 16.3011 91.6562 15.9602C91.4896 15.6193 91.2263 15.3523 90.8665 15.1591C90.5104 14.9659 90.0407 14.8693 89.4574 14.8693H87.2528V25H85.4972ZM98.0568 25.1932C97.5038 25.1932 97.0038 25.0909 96.5568 24.8864C96.1098 24.678 95.7557 24.3769 95.4943 23.983C95.2367 23.589 95.108 23.1061 95.108 22.5341C95.108 22.0417 95.2027 21.6364 95.392 21.3182C95.5814 21 95.8371 20.7481 96.1591 20.5625C96.4811 20.3769 96.8409 20.2367 97.2386 20.142C97.6364 20.0473 98.0417 19.9754 98.4545 19.9261C98.9773 19.8655 99.4015 19.8163 99.7273 19.7784C100.053 19.7367 100.29 19.6705 100.438 19.5795C100.585 19.4886 100.659 19.3409 100.659 19.1364V19.0966C100.659 18.6004 100.519 18.2159 100.239 17.9432C99.9621 17.6705 99.5492 17.5341 99 17.5341C98.428 17.5341 97.9773 17.661 97.6477 17.9148C97.322 18.1648 97.0966 18.4432 96.9716 18.75L95.375 18.3864C95.5644 17.8561 95.8409 17.428 96.2045 17.1023C96.572 16.7727 96.9943 16.5341 97.4716 16.3864C97.9489 16.2348 98.4508 16.1591 98.9773 16.1591C99.3258 16.1591 99.6951 16.2008 100.085 16.2841C100.479 16.3636 100.847 16.5114 101.188 16.7273C101.532 16.9432 101.814 17.2519 102.034 17.6534C102.254 18.0511 102.364 18.5682 102.364 19.2045V25H100.705V23.8068H100.636C100.527 24.0265 100.362 24.2424 100.142 24.4545C99.9223 24.6667 99.6402 24.8428 99.2955 24.983C98.9508 25.1231 98.5379 25.1932 98.0568 25.1932ZM98.4261 23.8295C98.8958 23.8295 99.2973 23.7367 99.6307 23.5511C99.9678 23.3655 100.223 23.1231 100.398 22.8239C100.576 22.5208 100.665 22.197 100.665 21.8523V20.7273C100.604 20.7879 100.487 20.8447 100.312 20.8977C100.142 20.947 99.947 20.9905 99.7273 21.0284C99.5076 21.0625 99.2936 21.0947 99.0852 21.125C98.8769 21.1515 98.7027 21.1742 98.5625 21.1932C98.233 21.2348 97.9318 21.3049 97.6591 21.4034C97.3902 21.5019 97.1742 21.6439 97.0114 21.8295C96.8523 22.0114 96.7727 22.2538 96.7727 22.5568C96.7727 22.9773 96.928 23.2955 97.2386 23.5114C97.5492 23.7235 97.9451 23.8295 98.4261 23.8295ZM111.166 18.4034L109.626 18.6761C109.562 18.4792 109.46 18.2917 109.32 18.1136C109.183 17.9356 108.998 17.7898 108.763 17.6761C108.528 17.5625 108.234 17.5057 107.882 17.5057C107.401 17.5057 107 17.6136 106.678 17.8295C106.356 18.0417 106.195 18.3163 106.195 18.6534C106.195 18.9451 106.303 19.1799 106.518 19.358C106.734 19.536 107.083 19.6818 107.564 19.7955L108.95 20.1136C109.753 20.2992 110.352 20.5852 110.746 20.9716C111.14 21.358 111.337 21.8598 111.337 22.4773C111.337 23 111.185 23.4659 110.882 23.875C110.583 24.2803 110.164 24.5985 109.626 24.8295C109.092 25.0606 108.473 25.1761 107.768 25.1761C106.791 25.1761 105.994 24.9678 105.376 24.5511C104.759 24.1307 104.38 23.5341 104.24 22.7614L105.882 22.5114C105.984 22.9394 106.195 23.2633 106.513 23.483C106.831 23.6989 107.246 23.8068 107.757 23.8068C108.314 23.8068 108.759 23.6913 109.092 23.4602C109.426 23.2254 109.592 22.9394 109.592 22.6023C109.592 22.3295 109.49 22.1004 109.286 21.9148C109.085 21.7292 108.776 21.589 108.359 21.4943L106.882 21.1705C106.068 20.9848 105.465 20.6894 105.075 20.2841C104.689 19.8788 104.496 19.3655 104.496 18.7443C104.496 18.2292 104.64 17.7784 104.928 17.392C105.215 17.0057 105.613 16.7045 106.121 16.4886C106.628 16.2689 107.21 16.1591 107.865 16.1591C108.808 16.1591 109.551 16.3636 110.092 16.7727C110.634 17.178 110.992 17.7216 111.166 18.4034ZM119.744 18.4034L118.205 18.6761C118.14 18.4792 118.038 18.2917 117.898 18.1136C117.761 17.9356 117.576 17.7898 117.341 17.6761C117.106 17.5625 116.813 17.5057 116.46 17.5057C115.979 17.5057 115.578 17.6136 115.256 17.8295C114.934 18.0417 114.773 18.3163 114.773 18.6534C114.773 18.9451 114.881 19.1799 115.097 19.358C115.313 19.536 115.661 19.6818 116.142 19.7955L117.528 20.1136C118.331 20.2992 118.93 20.5852 119.324 20.9716C119.718 21.358 119.915 21.8598 119.915 22.4773C119.915 23 119.763 23.4659 119.46 23.875C119.161 24.2803 118.742 24.5985 118.205 24.8295C117.67 25.0606 117.051 25.1761 116.347 25.1761C115.369 25.1761 114.572 24.9678 113.955 24.5511C113.337 24.1307 112.958 23.5341 112.818 22.7614L114.46 22.5114C114.563 22.9394 114.773 23.2633 115.091 23.483C115.409 23.6989 115.824 23.8068 116.335 23.8068C116.892 23.8068 117.337 23.6913 117.67 23.4602C118.004 23.2254 118.17 22.9394 118.17 22.6023C118.17 22.3295 118.068 22.1004 117.864 21.9148C117.663 21.7292 117.354 21.589 116.938 21.4943L115.46 21.1705C114.646 20.9848 114.044 20.6894 113.653 20.2841C113.267 19.8788 113.074 19.3655 113.074 18.7443C113.074 18.2292 113.218 17.7784 113.506 17.392C113.794 17.0057 114.191 16.7045 114.699 16.4886C115.206 16.2689 115.788 16.1591 116.443 16.1591C117.386 16.1591 118.129 16.3636 118.67 16.7727C119.212 17.178 119.57 17.7216 119.744 18.4034ZM123.675 25L121.107 16.2727H122.862L124.572 22.6818H124.658L126.374 16.2727H128.129L129.834 22.6534H129.919L131.618 16.2727H133.374L130.811 25H129.078L127.305 18.6989H127.175L125.402 25H123.675ZM138.396 25.1761C137.578 25.1761 136.864 24.9886 136.254 24.6136C135.644 24.2386 135.171 23.714 134.834 23.0398C134.497 22.3655 134.328 21.5777 134.328 20.6761C134.328 19.7708 134.497 18.9792 134.834 18.3011C135.171 17.6231 135.644 17.0966 136.254 16.7216C136.864 16.3466 137.578 16.1591 138.396 16.1591C139.214 16.1591 139.929 16.3466 140.538 16.7216C141.148 17.0966 141.622 17.6231 141.959 18.3011C142.296 18.9792 142.464 19.7708 142.464 20.6761C142.464 21.5777 142.296 22.3655 141.959 23.0398C141.622 23.714 141.148 24.2386 140.538 24.6136C139.929 24.9886 139.214 25.1761 138.396 25.1761ZM138.402 23.75C138.932 23.75 139.372 23.6098 139.72 23.3295C140.069 23.0492 140.326 22.6761 140.493 22.2102C140.663 21.7443 140.749 21.2311 140.749 20.6705C140.749 20.1136 140.663 19.6023 140.493 19.1364C140.326 18.6667 140.069 18.2898 139.72 18.0057C139.372 17.7216 138.932 17.5795 138.402 17.5795C137.868 17.5795 137.425 17.7216 137.072 18.0057C136.724 18.2898 136.464 18.6667 136.294 19.1364C136.127 19.6023 136.044 20.1136 136.044 20.6705C136.044 21.2311 136.127 21.7443 136.294 22.2102C136.464 22.6761 136.724 23.0492 137.072 23.3295C137.425 23.6098 137.868 23.75 138.402 23.75ZM144.361 25V16.2727H146.003V17.6591H146.094C146.253 17.1894 146.533 16.8201 146.935 16.5511C147.34 16.2784 147.798 16.142 148.31 16.142C148.416 16.142 148.541 16.1458 148.685 16.1534C148.832 16.161 148.948 16.1705 149.031 16.1818V17.8068C148.963 17.7879 148.842 17.767 148.668 17.7443C148.493 17.7178 148.319 17.7045 148.145 17.7045C147.743 17.7045 147.385 17.7898 147.071 17.9602C146.76 18.1269 146.514 18.3598 146.332 18.6591C146.151 18.9545 146.06 19.2917 146.06 19.6705V25H144.361ZM153.456 25.1705C152.751 25.1705 152.123 24.9905 151.57 24.6307C151.02 24.267 150.589 23.75 150.274 23.0795C149.964 22.4053 149.808 21.5966 149.808 20.6534C149.808 19.7102 149.965 18.9034 150.28 18.233C150.598 17.5625 151.034 17.0492 151.587 16.6932C152.14 16.3371 152.767 16.1591 153.467 16.1591C154.009 16.1591 154.445 16.25 154.774 16.4318C155.107 16.6098 155.365 16.8182 155.547 17.0568C155.732 17.2955 155.876 17.5057 155.979 17.6875H156.081V13.3636H157.78V25H156.121V23.642H155.979C155.876 23.8277 155.729 24.0398 155.536 24.2784C155.346 24.517 155.085 24.7254 154.751 24.9034C154.418 25.0814 153.986 25.1705 153.456 25.1705ZM153.831 23.7216C154.32 23.7216 154.732 23.5928 155.07 23.3352C155.411 23.0739 155.668 22.7121 155.842 22.25C156.02 21.7879 156.109 21.25 156.109 20.6364C156.109 20.0303 156.022 19.5 155.848 19.0455C155.674 18.5909 155.418 18.2367 155.081 17.983C154.744 17.7292 154.327 17.6023 153.831 17.6023C153.32 17.6023 152.893 17.7348 152.553 18C152.212 18.2652 151.954 18.6269 151.78 19.0852C151.609 19.5436 151.524 20.0606 151.524 20.6364C151.524 21.2197 151.611 21.7443 151.786 22.2102C151.96 22.6761 152.217 23.0455 152.558 23.3182C152.903 23.5871 153.327 23.7216 153.831 23.7216Z" fill="white"/>
</svg>
