<svg width="147" height="36" viewBox="0 0 147 36" fill="none" xmlns="http://www.w3.org/2000/svg">
<path d="M138.062 0C142.481 0 146.062 3.58172 146.062 8V28C146.062 32.4183 142.481 36 138.062 36H8C3.58172 36 0 32.4183 0 28V8C0 3.58172 3.58172 0 8 0H138.062Z" fill="#F3F4F6"/>
<path d="M138.062 0C142.481 0 146.062 3.58172 146.062 8V28C146.062 32.4183 142.481 36 138.062 36H8C3.58172 36 0 32.4183 0 28V8C0 3.58172 3.58172 0 8 0H138.062Z" stroke="#E5E7EB"/>
<path d="M28.25 26H16V9H28.25V26Z" stroke="#E5E7EB"/>
<g clip-path="url(#clip0_214_791)">
<path d="M19.6969 11.234C19.8445 10.9359 20.148 10.75 20.4789 10.75H23.7711C24.102 10.75 24.4055 10.9359 24.5531 11.234L24.75 11.625H27.375C27.859 11.625 28.25 12.016 28.25 12.5C28.25 12.984 27.859 13.375 27.375 13.375H16.875C16.391 13.375 16 12.984 16 12.5C16 12.016 16.391 11.625 16.875 11.625H19.5L19.6969 11.234ZM16.875 14.25H27.375V23C27.375 23.9652 26.5902 24.75 25.625 24.75H18.625C17.6598 24.75 16.875 23.9652 16.875 23V14.25ZM19.5 16C19.2594 16 19.0625 16.1969 19.0625 16.4375V22.5625C19.0625 22.8031 19.2594 23 19.5 23C19.7406 23 19.9375 22.8031 19.9375 22.5625V16.4375C19.9375 16.1969 19.7406 16 19.5 16ZM22.125 16C21.8844 16 21.6875 16.1969 21.6875 16.4375V22.5625C21.6875 22.8031 21.8844 23 22.125 23C22.3656 23 22.5625 22.8031 22.5625 22.5625V16.4375C22.5625 16.1969 22.3656 16 22.125 16ZM24.75 16C24.5094 16 24.3125 16.1969 24.3125 16.4375V22.5625C24.3125 22.8031 24.5094 23 24.75 23C24.9906 23 25.1875 22.8031 25.1875 22.5625V16.4375C25.1875 16.1969 24.9906 16 24.75 16Z" fill="#374151"/>
</g>
<path d="M48.6222 16.1293H47.071C47.0114 15.7978 46.9003 15.5062 46.7379 15.2543C46.5755 15.0024 46.3767 14.7886 46.1413 14.6129C45.906 14.4373 45.6425 14.3047 45.3509 14.2152C45.0625 14.1257 44.7559 14.081 44.4311 14.081C43.8445 14.081 43.3191 14.2285 42.8551 14.5234C42.3944 14.8184 42.0298 15.2509 41.7614 15.821C41.4962 16.3911 41.3636 17.0871 41.3636 17.9091C41.3636 18.7377 41.4962 19.437 41.7614 20.0071C42.0298 20.5772 42.3961 21.008 42.8601 21.2997C43.3241 21.5914 43.8461 21.7372 44.4261 21.7372C44.7476 21.7372 45.0526 21.6941 45.3409 21.608C45.6326 21.5185 45.8961 21.3875 46.1314 21.2152C46.3667 21.0429 46.5656 20.8324 46.728 20.5838C46.8937 20.3319 47.008 20.0436 47.071 19.7188L48.6222 19.7237C48.5393 20.2242 48.3786 20.6849 48.1399 21.1058C47.9046 21.5234 47.6013 21.8847 47.2301 22.1896C46.8622 22.4912 46.4413 22.7249 45.9673 22.8906C45.4934 23.0563 44.9763 23.1392 44.4162 23.1392C43.5346 23.1392 42.7491 22.9304 42.0597 22.5128C41.3703 22.0919 40.8267 21.4903 40.429 20.7081C40.0346 19.9259 39.8374 18.9929 39.8374 17.9091C39.8374 16.822 40.0362 15.889 40.4339 15.1101C40.8317 14.3279 41.3752 13.728 42.0646 13.3104C42.754 12.8894 43.5379 12.679 44.4162 12.679C44.9564 12.679 45.4602 12.7569 45.9276 12.9126C46.3982 13.0651 46.8208 13.2905 47.1953 13.5888C47.5698 13.8838 47.8797 14.245 48.125 14.6726C48.3703 15.0968 48.536 15.5824 48.6222 16.1293ZM51.8276 12.8182V23H50.3411V12.8182H51.8276ZM57.1186 23.1541C56.3662 23.1541 55.7183 22.9934 55.1747 22.6719C54.6345 22.3471 54.2169 21.8913 53.9219 21.3047C53.6302 20.7147 53.4844 20.0237 53.4844 19.2315C53.4844 18.4493 53.6302 17.7599 53.9219 17.1634C54.2169 16.5668 54.6278 16.1011 55.1548 15.7663C55.6851 15.4316 56.3049 15.2642 57.0142 15.2642C57.4451 15.2642 57.8627 15.3355 58.267 15.478C58.6714 15.6205 59.0343 15.8442 59.3558 16.1491C59.6773 16.4541 59.9309 16.8501 60.1165 17.3374C60.3021 17.8213 60.3949 18.4096 60.3949 19.1023V19.6293H54.3246V18.5156H58.9382C58.9382 18.1245 58.8587 17.7782 58.6996 17.4766C58.5405 17.1716 58.3168 16.9313 58.0284 16.7557C57.7434 16.58 57.4086 16.4922 57.0241 16.4922C56.6065 16.4922 56.242 16.5949 55.9304 16.8004C55.6222 17.0026 55.3835 17.2678 55.2145 17.5959C55.0488 17.9207 54.9659 18.2737 54.9659 18.6548V19.5249C54.9659 20.0353 55.0554 20.4695 55.2344 20.8274C55.4167 21.1854 55.6702 21.4588 55.995 21.6477C56.3198 21.8333 56.6993 21.9261 57.1335 21.9261C57.4152 21.9261 57.6721 21.8864 57.9041 21.8068C58.1361 21.724 58.3366 21.6013 58.5057 21.4389C58.6747 21.2765 58.804 21.076 58.8935 20.8374L60.3004 21.0909C60.1877 21.5052 59.9856 21.8681 59.6939 22.1797C59.4055 22.4879 59.0426 22.7282 58.6051 22.9006C58.1709 23.0696 57.6754 23.1541 57.1186 23.1541ZM64.2665 23.169C63.7826 23.169 63.3451 23.0795 62.954 22.9006C62.5629 22.7183 62.253 22.4548 62.0243 22.1101C61.7989 21.7654 61.6863 21.3428 61.6863 20.8423C61.6863 20.4115 61.7691 20.0568 61.9348 19.7784C62.1006 19.5 62.3243 19.2796 62.606 19.1172C62.8877 18.9548 63.2026 18.8321 63.5506 18.7493C63.8986 18.6664 64.2533 18.6035 64.6145 18.5604C65.0719 18.5073 65.4431 18.4643 65.7282 18.4311C66.0132 18.3946 66.2203 18.3366 66.3496 18.2571C66.4789 18.1776 66.5435 18.0483 66.5435 17.8693V17.8345C66.5435 17.4003 66.4209 17.0639 66.1756 16.8253C65.9337 16.5866 65.5724 16.4673 65.0918 16.4673C64.5913 16.4673 64.1969 16.5784 63.9086 16.8004C63.6235 17.0192 63.4263 17.2628 63.3169 17.5312L61.9199 17.2131C62.0856 16.7491 62.3276 16.3745 62.6458 16.0895C62.9673 15.8011 63.3368 15.5923 63.7544 15.4631C64.1721 15.3305 64.6112 15.2642 65.0719 15.2642C65.3768 15.2642 65.7 15.3007 66.0414 15.3736C66.3861 15.4432 66.7076 15.5724 67.0059 15.7614C67.3075 15.9503 67.5544 16.2204 67.7466 16.5717C67.9389 16.9197 68.035 17.3722 68.035 17.929V23H66.5833V21.956H66.5236C66.4275 22.1482 66.2833 22.3371 66.0911 22.5227C65.8989 22.7083 65.6519 22.8625 65.3503 22.9851C65.0487 23.1077 64.6874 23.169 64.2665 23.169ZM64.5897 21.9759C65.0007 21.9759 65.352 21.8946 65.6436 21.7322C65.9386 21.5698 66.1623 21.3577 66.3148 21.0959C66.4706 20.8307 66.5485 20.5473 66.5485 20.2457V19.2614C66.4954 19.3144 66.3927 19.3641 66.2402 19.4105C66.0911 19.4536 65.9204 19.4917 65.7282 19.5249C65.5359 19.5547 65.3487 19.5829 65.1664 19.6094C64.9841 19.6326 64.8316 19.6525 64.709 19.669C64.4206 19.7055 64.1571 19.7668 63.9185 19.853C63.6832 19.9392 63.4943 20.0634 63.3517 20.2259C63.2125 20.3849 63.1429 20.5971 63.1429 20.8622C63.1429 21.2301 63.2788 21.5085 63.5506 21.6974C63.8224 21.883 64.1687 21.9759 64.5897 21.9759ZM70.0149 23V15.3636H71.4517V16.5767H71.5312C71.6705 16.1657 71.9157 15.8426 72.267 15.6072C72.6217 15.3686 73.0227 15.2493 73.4702 15.2493C73.563 15.2493 73.6723 15.2526 73.7983 15.2592C73.9276 15.2659 74.0286 15.2741 74.1016 15.2841V16.706C74.0419 16.6894 73.9358 16.6712 73.7834 16.6513C73.6309 16.6281 73.4785 16.6165 73.326 16.6165C72.9747 16.6165 72.6615 16.6911 72.3864 16.8402C72.1146 16.986 71.8991 17.1899 71.7401 17.4517C71.581 17.7102 71.5014 18.0052 71.5014 18.3366V23H70.0149ZM80.0724 23H78.4418L82.1058 12.8182H83.8807L87.5447 23H85.9141L83.0355 14.6676H82.956L80.0724 23ZM80.3459 19.0128H85.6357V20.3054H80.3459V19.0128ZM90.3823 12.8182V23H88.8958V12.8182H90.3823ZM93.8686 12.8182V23H92.3821V12.8182H93.8686ZM99.6928 23V12.8182H103.322C104.111 12.8182 104.766 12.9541 105.286 13.2259C105.81 13.4976 106.201 13.8738 106.459 14.3544C106.718 14.8317 106.847 15.3835 106.847 16.0099C106.847 16.633 106.716 17.1816 106.454 17.6555C106.196 18.1262 105.805 18.4924 105.281 18.7543C104.761 19.0161 104.106 19.147 103.317 19.147H100.568V17.8246H103.178C103.675 17.8246 104.079 17.7533 104.391 17.6108C104.706 17.4683 104.936 17.2611 105.082 16.9893C105.228 16.7176 105.301 16.3911 105.301 16.0099C105.301 15.6255 105.226 15.2924 105.077 15.0107C104.931 14.7289 104.701 14.5135 104.386 14.3643C104.074 14.2119 103.665 14.1357 103.158 14.1357H101.229V23H99.6928ZM104.719 18.4062L107.235 23H105.485L103.019 18.4062H104.719ZM111.792 23.1541C111.04 23.1541 110.392 22.9934 109.849 22.6719C109.308 22.3471 108.891 21.8913 108.596 21.3047C108.304 20.7147 108.158 20.0237 108.158 19.2315C108.158 18.4493 108.304 17.7599 108.596 17.1634C108.891 16.5668 109.302 16.1011 109.829 15.7663C110.359 15.4316 110.979 15.2642 111.688 15.2642C112.119 15.2642 112.537 15.3355 112.941 15.478C113.345 15.6205 113.708 15.8442 114.03 16.1491C114.351 16.4541 114.605 16.8501 114.79 17.3374C114.976 17.8213 115.069 18.4096 115.069 19.1023V19.6293H108.998V18.5156H113.612C113.612 18.1245 113.532 17.7782 113.373 17.4766C113.214 17.1716 112.991 16.9313 112.702 16.7557C112.417 16.58 112.082 16.4922 111.698 16.4922C111.28 16.4922 110.916 16.5949 110.604 16.8004C110.296 17.0026 110.057 17.2678 109.888 17.5959C109.723 17.9207 109.64 18.2737 109.64 18.6548V19.5249C109.64 20.0353 109.729 20.4695 109.908 20.8274C110.09 21.1854 110.344 21.4588 110.669 21.6477C110.994 21.8333 111.373 21.9261 111.807 21.9261C112.089 21.9261 112.346 21.8864 112.578 21.8068C112.81 21.724 113.01 21.6013 113.18 21.4389C113.349 21.2765 113.478 21.076 113.567 20.8374L114.974 21.0909C114.862 21.5052 114.659 21.8681 114.368 22.1797C114.079 22.4879 113.716 22.7282 113.279 22.9006C112.845 23.0696 112.349 23.1541 111.792 23.1541ZM118.94 23.169C118.456 23.169 118.019 23.0795 117.628 22.9006C117.237 22.7183 116.927 22.4548 116.698 22.1101C116.473 21.7654 116.36 21.3428 116.36 20.8423C116.36 20.4115 116.443 20.0568 116.609 19.7784C116.774 19.5 116.998 19.2796 117.28 19.1172C117.562 18.9548 117.876 18.8321 118.224 18.7493C118.572 18.6664 118.927 18.6035 119.288 18.5604C119.746 18.5073 120.117 18.4643 120.402 18.4311C120.687 18.3946 120.894 18.3366 121.023 18.2571C121.153 18.1776 121.217 18.0483 121.217 17.8693V17.8345C121.217 17.4003 121.095 17.0639 120.849 16.8253C120.607 16.5866 120.246 16.4673 119.766 16.4673C119.265 16.4673 118.871 16.5784 118.582 16.8004C118.297 17.0192 118.1 17.2628 117.991 17.5312L116.594 17.2131C116.759 16.7491 117.001 16.3745 117.32 16.0895C117.641 15.8011 118.011 15.5923 118.428 15.4631C118.846 15.3305 119.285 15.2642 119.746 15.2642C120.051 15.2642 120.374 15.3007 120.715 15.3736C121.06 15.4432 121.381 15.5724 121.68 15.7614C121.981 15.9503 122.228 16.2204 122.42 16.5717C122.613 16.9197 122.709 17.3722 122.709 17.929V23H121.257V21.956H121.197C121.101 22.1482 120.957 22.3371 120.765 22.5227C120.573 22.7083 120.326 22.8625 120.024 22.9851C119.723 23.1077 119.361 23.169 118.94 23.169ZM119.263 21.9759C119.674 21.9759 120.026 21.8946 120.317 21.7322C120.612 21.5698 120.836 21.3577 120.989 21.0959C121.144 20.8307 121.222 20.5473 121.222 20.2457V19.2614C121.169 19.3144 121.067 19.3641 120.914 19.4105C120.765 19.4536 120.594 19.4917 120.402 19.5249C120.21 19.5547 120.022 19.5829 119.84 19.6094C119.658 19.6326 119.505 19.6525 119.383 19.669C119.094 19.7055 118.831 19.7668 118.592 19.853C118.357 19.9392 118.168 20.0634 118.026 20.2259C117.886 20.3849 117.817 20.5971 117.817 20.8622C117.817 21.2301 117.953 21.5085 118.224 21.6974C118.496 21.883 118.843 21.9759 119.263 21.9759ZM127.547 23.1491C126.931 23.1491 126.381 22.9917 125.897 22.6768C125.416 22.3587 125.038 21.9062 124.763 21.3196C124.492 20.7296 124.356 20.022 124.356 19.1967C124.356 18.3714 124.493 17.6655 124.768 17.0788C125.047 16.4922 125.428 16.0431 125.912 15.7315C126.396 15.42 126.944 15.2642 127.557 15.2642C128.031 15.2642 128.412 15.3438 128.701 15.5028C128.992 15.6586 129.218 15.8409 129.377 16.0497C129.539 16.2585 129.665 16.4425 129.755 16.6016H129.844V12.8182H131.331V23H129.879V21.8118H129.755C129.665 21.9742 129.536 22.1598 129.367 22.3686C129.201 22.5774 128.973 22.7597 128.681 22.9155C128.389 23.0713 128.011 23.1491 127.547 23.1491ZM127.876 21.8814C128.303 21.8814 128.664 21.7687 128.959 21.5433C129.258 21.3146 129.483 20.9981 129.635 20.5938C129.791 20.1894 129.869 19.7187 129.869 19.1818C129.869 18.6515 129.793 18.1875 129.64 17.7898C129.488 17.392 129.264 17.0821 128.969 16.8601C128.674 16.638 128.31 16.527 127.876 16.527C127.428 16.527 127.055 16.643 126.757 16.875C126.459 17.107 126.233 17.4235 126.081 17.8246C125.932 18.2256 125.857 18.678 125.857 19.1818C125.857 19.6922 125.933 20.1513 126.086 20.5589C126.238 20.9666 126.464 21.2898 126.762 21.5284C127.064 21.7637 127.435 21.8814 127.876 21.8814Z" fill="#374151"/>
<defs>
<clipPath id="clip0_214_791">
<path d="M16 10.75H28.25V24.75H16V10.75Z" fill="white"/>
</clipPath>
</defs>
</svg>
