<svg width="289" height="48" viewBox="0 0 289 48" fill="none" xmlns="http://www.w3.org/2000/svg">
<path d="M276.219 0C282.846 0 288.219 5.37258 288.219 12V36C288.219 42.6274 282.846 48 276.219 48H12C5.37258 48 0 42.6274 0 36V12C0 5.37258 5.37258 0 12 0H276.219Z" fill="#D1D5DB"/>
<path d="M276.219 0C282.846 0 288.219 5.37258 288.219 12V36C288.219 42.6274 282.846 48 276.219 48H12C5.37258 48 0 42.6274 0 36V12C0 5.37258 5.37258 0 12 0H276.219Z" stroke="#E5E7EB"/>
<path d="M84.0455 21.2898H81.9205C81.8598 20.9413 81.7481 20.6326 81.5852 20.3636C81.4223 20.0909 81.2197 19.8598 80.9773 19.6705C80.7348 19.4811 80.4583 19.339 80.1477 19.2443C79.8409 19.1458 79.5095 19.0966 79.1534 19.0966C78.5208 19.0966 77.9602 19.2557 77.4716 19.5739C76.983 19.8883 76.6004 20.3504 76.3239 20.9602C76.0473 21.5663 75.9091 22.3068 75.9091 23.1818C75.9091 24.072 76.0473 24.822 76.3239 25.4318C76.6042 26.0379 76.9867 26.4962 77.4716 26.8068C77.9602 27.1136 78.5189 27.267 79.1477 27.267C79.4962 27.267 79.822 27.2216 80.125 27.1307C80.4318 27.036 80.7064 26.8977 80.9489 26.7159C81.1951 26.5341 81.4015 26.3106 81.5682 26.0455C81.7386 25.7803 81.8561 25.4773 81.9205 25.1364L84.0455 25.1477C83.9659 25.7008 83.7936 26.2197 83.5284 26.7045C83.267 27.1894 82.9242 27.6174 82.5 27.9886C82.0758 28.3561 81.5795 28.6439 81.0114 28.8523C80.4432 29.0568 79.8125 29.1591 79.1193 29.1591C78.0966 29.1591 77.1837 28.9223 76.3807 28.4489C75.5777 27.9754 74.9451 27.2917 74.483 26.3977C74.0208 25.5038 73.7898 24.4318 73.7898 23.1818C73.7898 21.928 74.0227 20.8561 74.4886 19.9659C74.9545 19.072 75.589 18.3883 76.392 17.9148C77.1951 17.4413 78.1042 17.2045 79.1193 17.2045C79.767 17.2045 80.3693 17.2955 80.9261 17.4773C81.483 17.6591 81.9792 17.9261 82.4148 18.2784C82.8504 18.6269 83.2083 19.0549 83.4886 19.5625C83.7727 20.0663 83.9583 20.642 84.0455 21.2898ZM89.6918 29.1705C88.8395 29.1705 88.1009 28.983 87.4759 28.608C86.8509 28.233 86.366 27.7083 86.0213 27.0341C85.6804 26.3598 85.5099 25.572 85.5099 24.6705C85.5099 23.7689 85.6804 22.9792 86.0213 22.3011C86.366 21.6231 86.8509 21.0966 87.4759 20.7216C88.1009 20.3466 88.8395 20.1591 89.6918 20.1591C90.544 20.1591 91.2827 20.3466 91.9077 20.7216C92.5327 21.0966 93.0156 21.6231 93.3565 22.3011C93.7012 22.9792 93.8736 23.7689 93.8736 24.6705C93.8736 25.572 93.7012 26.3598 93.3565 27.0341C93.0156 27.7083 92.5327 28.233 91.9077 28.608C91.2827 28.983 90.544 29.1705 89.6918 29.1705ZM89.7031 27.5227C90.1652 27.5227 90.5516 27.3958 90.8622 27.142C91.1728 26.8845 91.4039 26.5398 91.5554 26.108C91.7107 25.6761 91.7884 25.1951 91.7884 24.6648C91.7884 24.1307 91.7107 23.6477 91.5554 23.2159C91.4039 22.7803 91.1728 22.4337 90.8622 22.1761C90.5516 21.9186 90.1652 21.7898 89.7031 21.7898C89.2296 21.7898 88.8357 21.9186 88.5213 22.1761C88.2107 22.4337 87.9777 22.7803 87.8224 23.2159C87.6709 23.6477 87.5952 24.1307 87.5952 24.6648C87.5952 25.1951 87.6709 25.6761 87.8224 26.108C87.9777 26.5398 88.2107 26.8845 88.5213 27.142C88.8357 27.3958 89.2296 27.5227 89.7031 27.5227ZM97.6761 23.8864V29H95.6193V20.2727H97.5852V21.7557H97.6875C97.8883 21.267 98.2083 20.8788 98.6477 20.5909C99.0909 20.303 99.6383 20.1591 100.29 20.1591C100.892 20.1591 101.417 20.2879 101.864 20.5455C102.314 20.803 102.663 21.1761 102.909 21.6648C103.159 22.1534 103.282 22.7462 103.278 23.4432V29H101.222V23.7614C101.222 23.178 101.07 22.7216 100.767 22.392C100.468 22.0625 100.053 21.8977 99.5227 21.8977C99.1629 21.8977 98.8428 21.9773 98.5625 22.1364C98.286 22.2917 98.0682 22.517 97.9091 22.8125C97.7538 23.108 97.6761 23.4659 97.6761 23.8864ZM109.79 20.2727V21.8636H104.631V20.2727H109.79ZM105.92 29V19.4489C105.92 18.8617 106.042 18.3731 106.284 17.983C106.53 17.5928 106.86 17.3011 107.273 17.108C107.686 16.9148 108.144 16.8182 108.648 16.8182C109.004 16.8182 109.32 16.8466 109.597 16.9034C109.873 16.9602 110.078 17.0114 110.21 17.0568L109.801 18.6477C109.714 18.6212 109.604 18.5947 109.472 18.5682C109.339 18.5379 109.191 18.5227 109.028 18.5227C108.646 18.5227 108.375 18.6155 108.216 18.8011C108.061 18.983 107.983 19.2443 107.983 19.5852V29H105.92ZM111.401 29V20.2727H113.457V29H111.401ZM112.435 19.0341C112.109 19.0341 111.829 18.9261 111.594 18.7102C111.359 18.4905 111.241 18.2273 111.241 17.9205C111.241 17.6098 111.359 17.3466 111.594 17.1307C111.829 16.911 112.109 16.8011 112.435 16.8011C112.764 16.8011 113.045 16.911 113.276 17.1307C113.51 17.3466 113.628 17.6098 113.628 17.9205C113.628 18.2273 113.51 18.4905 113.276 18.7102C113.045 18.9261 112.764 19.0341 112.435 19.0341ZM115.572 29V20.2727H117.567V21.7273H117.658C117.817 21.2235 118.089 20.8352 118.476 20.5625C118.866 20.286 119.311 20.1477 119.811 20.1477C119.925 20.1477 120.052 20.1534 120.192 20.1648C120.336 20.1723 120.455 20.1856 120.55 20.2045V22.0966C120.463 22.0663 120.324 22.0398 120.135 22.017C119.949 21.9905 119.769 21.9773 119.595 21.9773C119.22 21.9773 118.883 22.0587 118.584 22.2216C118.288 22.3807 118.055 22.6023 117.885 22.8864C117.714 23.1705 117.629 23.4981 117.629 23.8693V29H115.572ZM121.916 29V20.2727H123.882V21.7557H123.984C124.166 21.2557 124.467 20.8655 124.888 20.5852C125.308 20.3011 125.81 20.1591 126.393 20.1591C126.984 20.1591 127.482 20.303 127.888 20.5909C128.297 20.875 128.585 21.2633 128.751 21.7557H128.842C129.036 21.2708 129.361 20.8845 129.82 20.5966C130.282 20.3049 130.829 20.1591 131.462 20.1591C132.265 20.1591 132.92 20.4129 133.428 20.9205C133.935 21.428 134.189 22.1686 134.189 23.142V29H132.126V23.4602C132.126 22.9186 131.982 22.5227 131.695 22.2727C131.407 22.0189 131.054 21.892 130.638 21.892C130.142 21.892 129.753 22.0473 129.473 22.358C129.196 22.6648 129.058 23.0644 129.058 23.5568V29H127.041V23.375C127.041 22.9242 126.905 22.5644 126.632 22.2955C126.363 22.0265 126.011 21.892 125.575 21.892C125.28 21.892 125.011 21.9678 124.768 22.1193C124.526 22.267 124.333 22.4773 124.189 22.75C124.045 23.0189 123.973 23.3333 123.973 23.6932V29H121.916ZM143.722 29.1705C142.926 29.1705 142.242 29.0265 141.67 28.7386C141.098 28.4508 140.657 28.0625 140.347 27.5739C140.04 27.0814 139.886 26.5265 139.886 25.9091C139.886 25.4432 139.981 25.0303 140.17 24.6705C140.364 24.3106 140.629 23.9773 140.966 23.6705C141.307 23.3636 141.701 23.0587 142.148 22.7557L144.21 21.3523C144.513 21.1553 144.742 20.947 144.898 20.7273C145.057 20.5076 145.136 20.25 145.136 19.9545C145.136 19.7045 145.03 19.4678 144.818 19.2443C144.61 19.0208 144.322 18.9091 143.955 18.9091C143.708 18.9091 143.491 18.9678 143.301 19.0852C143.116 19.1989 142.97 19.3485 142.864 19.5341C142.761 19.7197 142.71 19.9167 142.71 20.125C142.71 20.3788 142.78 20.6364 142.92 20.8977C143.064 21.1591 143.25 21.4299 143.477 21.7102C143.708 21.9905 143.955 22.2879 144.216 22.6023L149.676 29H147.449L142.915 23.8068C142.578 23.4129 142.252 23.0246 141.938 22.642C141.627 22.2595 141.371 21.8617 141.17 21.4489C140.973 21.0322 140.875 20.5814 140.875 20.0966C140.875 19.5473 141.002 19.0568 141.256 18.625C141.509 18.1894 141.864 17.8466 142.318 17.5966C142.777 17.3466 143.313 17.2216 143.926 17.2216C144.54 17.2216 145.066 17.3428 145.506 17.5852C145.945 17.8277 146.284 18.1496 146.523 18.5511C146.761 18.9527 146.881 19.3902 146.881 19.8636C146.881 20.4129 146.744 20.9053 146.472 21.3409C146.199 21.7727 145.82 22.1648 145.335 22.517L142.983 24.2386C142.597 24.5189 142.32 24.803 142.153 25.0909C141.987 25.375 141.903 25.6174 141.903 25.8182C141.903 26.125 141.981 26.4034 142.136 26.6534C142.292 26.9034 142.509 27.1042 142.79 27.2557C143.074 27.4034 143.405 27.4773 143.784 27.4773C144.201 27.4773 144.612 27.3845 145.017 27.1989C145.422 27.0095 145.792 26.7405 146.125 26.392C146.458 26.0436 146.723 25.6269 146.92 25.142C147.117 24.6534 147.216 24.1117 147.216 23.517H148.983C148.983 24.2519 148.902 24.892 148.739 25.4375C148.576 25.9792 148.366 26.4375 148.108 26.8125C147.85 27.1837 147.578 27.4811 147.29 27.7045C147.199 27.7689 147.112 27.8333 147.028 27.8977C146.945 27.9621 146.858 28.0265 146.767 28.0909C146.358 28.4621 145.879 28.7348 145.33 28.9091C144.784 29.0833 144.248 29.1705 143.722 29.1705ZM154.913 29V17.3636H159.277C160.171 17.3636 160.921 17.5189 161.527 17.8295C162.137 18.1402 162.597 18.5758 162.908 19.1364C163.222 19.6932 163.379 20.3428 163.379 21.0852C163.379 21.8314 163.22 22.4792 162.902 23.0284C162.588 23.5739 162.124 23.9962 161.51 24.2955C160.896 24.5909 160.143 24.7386 159.249 24.7386H156.141V22.9886H158.964C159.487 22.9886 159.915 22.9167 160.249 22.7727C160.582 22.625 160.828 22.411 160.987 22.1307C161.15 21.8466 161.232 21.4981 161.232 21.0852C161.232 20.6723 161.15 20.3201 160.987 20.0284C160.824 19.733 160.576 19.5095 160.243 19.358C159.91 19.2027 159.48 19.125 158.953 19.125H157.021V29H154.913ZM160.925 23.7273L163.805 29H161.453L158.624 23.7273H160.925ZM168.967 29.1705C168.092 29.1705 167.337 28.9886 166.7 28.625C166.068 28.2576 165.581 27.7386 165.24 27.0682C164.899 26.3939 164.729 25.6004 164.729 24.6875C164.729 23.7898 164.899 23.0019 165.24 22.3239C165.585 21.642 166.066 21.1117 166.683 20.733C167.301 20.3504 168.026 20.1591 168.859 20.1591C169.397 20.1591 169.905 20.2462 170.382 20.4205C170.863 20.5909 171.287 20.8561 171.655 21.2159C172.026 21.5758 172.318 22.0341 172.53 22.5909C172.742 23.1439 172.848 23.803 172.848 24.5682V25.1989H165.695V23.8125H170.876C170.873 23.4186 170.787 23.0682 170.621 22.7614C170.454 22.4508 170.221 22.2064 169.922 22.0284C169.626 21.8504 169.282 21.7614 168.888 21.7614C168.467 21.7614 168.098 21.8636 167.78 22.0682C167.462 22.2689 167.214 22.5341 167.036 22.8636C166.861 23.1894 166.772 23.5473 166.768 23.9375V25.1477C166.768 25.6553 166.861 26.0909 167.047 26.4545C167.232 26.8144 167.492 27.0909 167.825 27.2841C168.159 27.4735 168.549 27.5682 168.996 27.5682C169.295 27.5682 169.566 27.5265 169.808 27.4432C170.051 27.3561 170.261 27.2292 170.439 27.0625C170.617 26.8958 170.751 26.6894 170.842 26.4432L172.763 26.6591C172.642 27.1667 172.411 27.6098 172.07 27.9886C171.732 28.3636 171.301 28.6553 170.774 28.8636C170.248 29.0682 169.645 29.1705 168.967 29.1705ZM180.412 32.2727V27.625H180.327C180.221 27.8371 180.067 28.0625 179.866 28.3011C179.666 28.536 179.401 28.7367 179.071 28.9034C178.741 29.0701 178.327 29.1534 177.827 29.1534C177.141 29.1534 176.527 28.9773 175.986 28.625C175.444 28.2727 175.016 27.7614 174.702 27.0909C174.387 26.4205 174.23 25.6061 174.23 24.6477C174.23 23.678 174.389 22.8598 174.707 22.1932C175.029 21.5227 175.463 21.017 176.009 20.6761C176.554 20.3314 177.162 20.1591 177.832 20.1591C178.344 20.1591 178.764 20.2462 179.094 20.4205C179.423 20.5909 179.685 20.7973 179.878 21.0398C180.071 21.2784 180.221 21.5038 180.327 21.7159H180.452V20.2727H182.474V32.2727H180.412ZM178.401 27.4659C178.836 27.4659 179.207 27.3485 179.514 27.1136C179.821 26.875 180.054 26.5436 180.213 26.1193C180.372 25.6951 180.452 25.2008 180.452 24.6364C180.452 24.072 180.372 23.5814 180.213 23.1648C180.058 22.7481 179.827 22.4242 179.52 22.1932C179.217 21.9621 178.844 21.8466 178.401 21.8466C177.942 21.8466 177.56 21.9659 177.253 22.2045C176.946 22.4432 176.715 22.7727 176.56 23.1932C176.404 23.6136 176.327 24.0947 176.327 24.6364C176.327 25.1818 176.404 25.6686 176.56 26.0966C176.719 26.5208 176.952 26.8561 177.259 27.1023C177.569 27.3447 177.95 27.4659 178.401 27.4659ZM190.151 25.3295V20.2727H192.207V29H190.213V27.4489H190.122C189.925 27.9375 189.601 28.3371 189.151 28.6477C188.704 28.9583 188.152 29.1136 187.497 29.1136C186.925 29.1136 186.42 28.9867 185.98 28.733C185.545 28.4754 185.204 28.1023 184.957 27.6136C184.711 27.1212 184.588 26.5265 184.588 25.8295V20.2727H186.645V25.5114C186.645 26.0644 186.796 26.5038 187.099 26.8295C187.402 27.1553 187.8 27.3182 188.293 27.3182C188.596 27.3182 188.889 27.2443 189.173 27.0966C189.457 26.9489 189.69 26.7292 189.872 26.4375C190.058 26.142 190.151 25.7727 190.151 25.3295ZM198.186 29.1705C197.311 29.1705 196.555 28.9886 195.919 28.625C195.286 28.2576 194.8 27.7386 194.459 27.0682C194.118 26.3939 193.947 25.6004 193.947 24.6875C193.947 23.7898 194.118 23.0019 194.459 22.3239C194.804 21.642 195.285 21.1117 195.902 20.733C196.519 20.3504 197.245 20.1591 198.078 20.1591C198.616 20.1591 199.124 20.2462 199.601 20.4205C200.082 20.5909 200.506 20.8561 200.874 21.2159C201.245 21.5758 201.536 22.0341 201.749 22.5909C201.961 23.1439 202.067 23.803 202.067 24.5682V25.1989H194.913V23.8125H200.095C200.091 23.4186 200.006 23.0682 199.839 22.7614C199.673 22.4508 199.44 22.2064 199.141 22.0284C198.845 21.8504 198.5 21.7614 198.107 21.7614C197.686 21.7614 197.317 21.8636 196.999 22.0682C196.68 22.2689 196.432 22.5341 196.254 22.8636C196.08 23.1894 195.991 23.5473 195.987 23.9375V25.1477C195.987 25.6553 196.08 26.0909 196.266 26.4545C196.451 26.8144 196.711 27.0909 197.044 27.2841C197.377 27.4735 197.768 27.5682 198.214 27.5682C198.514 27.5682 198.785 27.5265 199.027 27.4432C199.269 27.3561 199.48 27.2292 199.658 27.0625C199.836 26.8958 199.97 26.6894 200.061 26.4432L201.982 26.6591C201.86 27.1667 201.629 27.6098 201.288 27.9886C200.951 28.3636 200.519 28.6553 199.993 28.8636C199.466 29.0682 198.864 29.1705 198.186 29.1705ZM210.705 22.5795L208.83 22.7841C208.777 22.5947 208.684 22.4167 208.551 22.25C208.422 22.0833 208.248 21.9489 208.028 21.8466C207.809 21.7443 207.54 21.6932 207.222 21.6932C206.794 21.6932 206.434 21.786 206.142 21.9716C205.854 22.1572 205.712 22.3977 205.716 22.6932C205.712 22.947 205.805 23.1534 205.994 23.3125C206.188 23.4716 206.506 23.6023 206.949 23.7045L208.438 24.0227C209.263 24.2008 209.877 24.483 210.278 24.8693C210.684 25.2557 210.888 25.7614 210.892 26.3864C210.888 26.9356 210.727 27.4205 210.409 27.8409C210.095 28.2576 209.657 28.5833 209.097 28.8182C208.536 29.053 207.892 29.1705 207.165 29.1705C206.097 29.1705 205.237 28.947 204.585 28.5C203.934 28.0492 203.545 27.4223 203.42 26.6193L205.426 26.4261C205.517 26.8201 205.71 27.1174 206.006 27.3182C206.301 27.5189 206.686 27.6193 207.159 27.6193C207.648 27.6193 208.04 27.5189 208.335 27.3182C208.634 27.1174 208.784 26.8693 208.784 26.5739C208.784 26.3239 208.688 26.1174 208.494 25.9545C208.305 25.7917 208.009 25.6667 207.608 25.5795L206.119 25.267C205.282 25.0928 204.663 24.7992 204.261 24.3864C203.86 23.9697 203.661 23.4432 203.665 22.8068C203.661 22.2689 203.807 21.803 204.102 21.4091C204.402 21.0114 204.816 20.7045 205.347 20.4886C205.881 20.2689 206.496 20.1591 207.193 20.1591C208.216 20.1591 209.021 20.3769 209.608 20.8125C210.199 21.2481 210.564 21.8371 210.705 22.5795ZM216.946 20.2727V21.8636H211.929V20.2727H216.946ZM213.168 18.1818H215.224V26.375C215.224 26.6515 215.266 26.8636 215.349 27.0114C215.437 27.1553 215.55 27.2538 215.69 27.3068C215.83 27.3598 215.986 27.3864 216.156 27.3864C216.285 27.3864 216.402 27.3769 216.509 27.358C216.618 27.339 216.702 27.322 216.759 27.3068L217.105 28.9148C216.995 28.9527 216.838 28.9943 216.634 29.0398C216.433 29.0852 216.187 29.1117 215.895 29.1193C215.38 29.1345 214.916 29.0568 214.503 28.8864C214.09 28.7121 213.762 28.4432 213.52 28.0795C213.281 27.7159 213.164 27.2614 213.168 26.7159V18.1818ZM222.726 29V17.3636H227.089C227.983 17.3636 228.733 17.5303 229.339 17.8636C229.949 18.197 230.41 18.6553 230.72 19.2386C231.035 19.8182 231.192 20.4773 231.192 21.2159C231.192 21.9621 231.035 22.625 230.72 23.2045C230.406 23.7841 229.942 24.2405 229.328 24.5739C228.714 24.9034 227.959 25.0682 227.061 25.0682H224.169V23.3352H226.777C227.3 23.3352 227.728 23.2443 228.061 23.0625C228.394 22.8807 228.641 22.6307 228.8 22.3125C228.963 21.9943 229.044 21.6288 229.044 21.2159C229.044 20.803 228.963 20.4394 228.8 20.125C228.641 19.8106 228.393 19.5663 228.055 19.392C227.722 19.214 227.292 19.125 226.766 19.125H224.834V29H222.726ZM235.287 29.1761C234.734 29.1761 234.236 29.0777 233.793 28.8807C233.353 28.6799 233.005 28.3845 232.747 27.9943C232.493 27.6042 232.366 27.1231 232.366 26.5511C232.366 26.0587 232.457 25.6515 232.639 25.3295C232.821 25.0076 233.069 24.75 233.384 24.5568C233.698 24.3636 234.052 24.2178 234.446 24.1193C234.844 24.017 235.255 23.9432 235.679 23.8977C236.19 23.8447 236.605 23.7973 236.923 23.7557C237.241 23.7102 237.473 23.642 237.616 23.5511C237.764 23.4564 237.838 23.3106 237.838 23.1136V23.0795C237.838 22.6515 237.711 22.3201 237.457 22.0852C237.204 21.8504 236.838 21.733 236.361 21.733C235.857 21.733 235.457 21.8428 235.162 22.0625C234.87 22.2822 234.673 22.5417 234.571 22.8409L232.651 22.5682C232.802 22.0379 233.052 21.5947 233.401 21.2386C233.749 20.8788 234.175 20.6098 234.679 20.4318C235.183 20.25 235.74 20.1591 236.349 20.1591C236.77 20.1591 237.188 20.2083 237.605 20.3068C238.022 20.4053 238.402 20.5682 238.747 20.7955C239.092 21.0189 239.368 21.3239 239.577 21.7102C239.789 22.0966 239.895 22.5795 239.895 23.1591V29H237.918V27.8011H237.849C237.724 28.0436 237.548 28.2708 237.321 28.483C237.098 28.6913 236.815 28.8598 236.474 28.9886C236.137 29.1136 235.741 29.1761 235.287 29.1761ZM235.821 27.6648C236.234 27.6648 236.592 27.5833 236.895 27.4205C237.198 27.2538 237.431 27.0341 237.594 26.7614C237.76 26.4886 237.844 26.1913 237.844 25.8693V24.8409C237.779 24.8939 237.67 24.9432 237.514 24.9886C237.363 25.0341 237.192 25.0739 237.003 25.108C236.813 25.142 236.626 25.1723 236.44 25.1989C236.255 25.2254 236.094 25.2481 235.957 25.267C235.651 25.3087 235.376 25.3769 235.134 25.4716C234.891 25.5663 234.7 25.6989 234.56 25.8693C234.42 26.036 234.349 26.2519 234.349 26.517C234.349 26.8958 234.488 27.1818 234.764 27.375C235.041 27.5682 235.393 27.6648 235.821 27.6648ZM242.929 32.2727C242.649 32.2727 242.389 32.25 242.151 32.2045C241.916 32.1629 241.728 32.1136 241.588 32.0568L242.065 30.4545C242.365 30.5417 242.632 30.5833 242.866 30.5795C243.101 30.5758 243.308 30.5019 243.486 30.358C243.668 30.2178 243.821 29.983 243.946 29.6534L244.122 29.1818L240.957 20.2727H243.139L245.151 26.8636H245.241L247.259 20.2727H249.446L245.952 30.0568C245.789 30.5189 245.573 30.9148 245.304 31.2443C245.035 31.5777 244.705 31.8314 244.315 32.0057C243.929 32.1837 243.467 32.2727 242.929 32.2727ZM254.379 29.1705C253.527 29.1705 252.788 28.983 252.163 28.608C251.538 28.233 251.054 27.7083 250.709 27.0341C250.368 26.3598 250.197 25.572 250.197 24.6705C250.197 23.7689 250.368 22.9792 250.709 22.3011C251.054 21.6231 251.538 21.0966 252.163 20.7216C252.788 20.3466 253.527 20.1591 254.379 20.1591C255.232 20.1591 255.97 20.3466 256.595 20.7216C257.22 21.0966 257.703 21.6231 258.044 22.3011C258.389 22.9792 258.561 23.7689 258.561 24.6705C258.561 25.572 258.389 26.3598 258.044 27.0341C257.703 27.7083 257.22 28.233 256.595 28.608C255.97 28.983 255.232 29.1705 254.379 29.1705ZM254.391 27.5227C254.853 27.5227 255.239 27.3958 255.55 27.142C255.86 26.8845 256.091 26.5398 256.243 26.108C256.398 25.6761 256.476 25.1951 256.476 24.6648C256.476 24.1307 256.398 23.6477 256.243 23.2159C256.091 22.7803 255.86 22.4337 255.55 22.1761C255.239 21.9186 254.853 21.7898 254.391 21.7898C253.917 21.7898 253.523 21.9186 253.209 22.1761C252.898 22.4337 252.665 22.7803 252.51 23.2159C252.358 23.6477 252.283 24.1307 252.283 24.6648C252.283 25.1951 252.358 25.6761 252.51 26.108C252.665 26.5398 252.898 26.8845 253.209 27.142C253.523 27.3958 253.917 27.5227 254.391 27.5227ZM265.869 25.3295V20.2727H267.926V29H265.932V27.4489H265.841C265.644 27.9375 265.32 28.3371 264.869 28.6477C264.422 28.9583 263.871 29.1136 263.216 29.1136C262.644 29.1136 262.138 28.9867 261.699 28.733C261.263 28.4754 260.922 28.1023 260.676 27.6136C260.43 27.1212 260.307 26.5265 260.307 25.8295V20.2727H262.364V25.5114C262.364 26.0644 262.515 26.5038 262.818 26.8295C263.121 27.1553 263.519 27.3182 264.011 27.3182C264.314 27.3182 264.608 27.2443 264.892 27.0966C265.176 26.9489 265.409 26.7292 265.591 26.4375C265.777 26.142 265.869 25.7727 265.869 25.3295ZM274.399 20.2727V21.8636H269.382V20.2727H274.399ZM270.621 18.1818H272.678V26.375C272.678 26.6515 272.719 26.8636 272.803 27.0114C272.89 27.1553 273.003 27.2538 273.143 27.3068C273.284 27.3598 273.439 27.3864 273.609 27.3864C273.738 27.3864 273.856 27.3769 273.962 27.358C274.071 27.339 274.155 27.322 274.212 27.3068L274.558 28.9148C274.448 28.9527 274.291 28.9943 274.087 29.0398C273.886 29.0852 273.64 29.1117 273.348 29.1193C272.833 29.1345 272.369 29.0568 271.956 28.8864C271.543 28.7121 271.215 28.4432 270.973 28.0795C270.734 27.7159 270.617 27.2614 270.621 26.7159V18.1818Z" fill="white"/>
<path d="M49.2188 23.25V19.25C49.2188 17.9239 49.7455 16.6521 50.6832 15.7145C51.6209 14.7768 52.8927 14.25 54.2188 14.25C55.5448 14.25 56.8166 14.7768 57.7543 15.7145C58.692 16.6521 59.2188 17.9239 59.2188 19.25V23.25M47.2188 23.25H61.2188C62.3233 23.25 63.2188 24.1454 63.2188 25.25V32.25C63.2188 33.3546 62.3233 34.25 61.2188 34.25H47.2188C46.1142 34.25 45.2188 33.3546 45.2188 32.25V25.25C45.2188 24.1454 46.1142 23.25 47.2188 23.25Z" stroke="#989494" stroke-width="2" stroke-linecap="round" stroke-linejoin="round"/>
</svg>
