<svg width="204" height="52" viewBox="0 0 204 52" fill="none" xmlns="http://www.w3.org/2000/svg">
<path d="M8 1H195.969C199.835 1 202.969 4.13401 202.969 8V44C202.969 47.866 199.835 51 195.969 51H8C4.13401 51 1 47.866 1 44V8C1 4.13401 4.13401 1 8 1Z" stroke="#E74C3C" stroke-width="2"/>
<path d="M30.88 31H26.9368V19.3636H30.9595C32.1148 19.3636 33.1072 19.5966 33.9368 20.0625C34.7701 20.5246 35.4103 21.1894 35.8572 22.0568C36.3042 22.9242 36.5277 23.9621 36.5277 25.1705C36.5277 26.3826 36.3023 27.4242 35.8516 28.2955C35.4046 29.1667 34.7588 29.8352 33.9141 30.3011C33.0732 30.767 32.0618 31 30.88 31ZM29.0447 29.1761H30.7777C31.5883 29.1761 32.2644 29.0284 32.8061 28.733C33.3478 28.4337 33.755 27.9886 34.0277 27.3977C34.3004 26.803 34.4368 26.0606 34.4368 25.1705C34.4368 24.2803 34.3004 23.5417 34.0277 22.9545C33.755 22.3636 33.3516 21.9223 32.8175 21.6307C32.2872 21.3352 31.6281 21.1875 30.8402 21.1875H29.0447V29.1761ZM42.3033 31.1705C41.4283 31.1705 40.6726 30.9886 40.0362 30.625C39.4036 30.2576 38.9169 29.7386 38.576 29.0682C38.2351 28.3939 38.0646 27.6004 38.0646 26.6875C38.0646 25.7898 38.2351 25.0019 38.576 24.3239C38.9207 23.642 39.4018 23.1117 40.0192 22.733C40.6366 22.3504 41.362 22.1591 42.1953 22.1591C42.7332 22.1591 43.2408 22.2462 43.718 22.4205C44.1991 22.5909 44.6233 22.8561 44.9908 23.2159C45.362 23.5758 45.6536 24.0341 45.8658 24.5909C46.0779 25.1439 46.1839 25.803 46.1839 26.5682V27.1989H39.0305V25.8125H44.2124C44.2086 25.4186 44.1233 25.0682 43.9567 24.7614C43.79 24.4508 43.5571 24.2064 43.2578 24.0284C42.9624 23.8504 42.6177 23.7614 42.2237 23.7614C41.8033 23.7614 41.4339 23.8636 41.1158 24.0682C40.7976 24.2689 40.5495 24.5341 40.3714 24.8636C40.1972 25.1894 40.1082 25.5473 40.1044 25.9375V27.1477C40.1044 27.6553 40.1972 28.0909 40.3828 28.4545C40.5684 28.8144 40.8279 29.0909 41.1612 29.2841C41.4946 29.4735 41.8847 29.5682 42.3317 29.5682C42.6309 29.5682 42.9018 29.5265 43.1442 29.4432C43.3866 29.3561 43.5968 29.2292 43.7749 29.0625C43.9529 28.8958 44.0874 28.6894 44.1783 28.4432L46.0987 28.6591C45.9775 29.1667 45.7464 29.6098 45.4055 29.9886C45.0684 30.3636 44.6366 30.6553 44.1101 30.8636C43.5836 31.0682 42.9813 31.1705 42.3033 31.1705ZM50.4354 31.1761C49.8823 31.1761 49.3842 31.0777 48.9411 30.8807C48.5017 30.6799 48.1532 30.3845 47.8956 29.9943C47.6418 29.6042 47.5149 29.1231 47.5149 28.5511C47.5149 28.0587 47.6058 27.6515 47.7876 27.3295C47.9695 27.0076 48.2176 26.75 48.532 26.5568C48.8464 26.3636 49.2005 26.2178 49.5945 26.1193C49.9922 26.017 50.4032 25.9432 50.8274 25.8977C51.3388 25.8447 51.7536 25.7973 52.0717 25.7557C52.3899 25.7102 52.621 25.642 52.7649 25.5511C52.9126 25.4564 52.9865 25.3106 52.9865 25.1136V25.0795C52.9865 24.6515 52.8596 24.3201 52.6058 24.0852C52.352 23.8504 51.9865 23.733 51.5092 23.733C51.0054 23.733 50.6058 23.8428 50.3104 24.0625C50.0187 24.2822 49.8217 24.5417 49.7195 24.8409L47.799 24.5682C47.9505 24.0379 48.2005 23.5947 48.549 23.2386C48.8975 22.8788 49.3236 22.6098 49.8274 22.4318C50.3312 22.25 50.888 22.1591 51.4979 22.1591C51.9183 22.1591 52.3369 22.2083 52.7536 22.3068C53.1702 22.4053 53.5509 22.5682 53.8956 22.7955C54.2403 23.0189 54.5168 23.3239 54.7251 23.7102C54.9373 24.0966 55.0433 24.5795 55.0433 25.1591V31H53.0661V29.8011H52.9979C52.8729 30.0436 52.6967 30.2708 52.4695 30.483C52.246 30.6913 51.9638 30.8598 51.6229 30.9886C51.2857 31.1136 50.8899 31.1761 50.4354 31.1761ZM50.9695 29.6648C51.3823 29.6648 51.7403 29.5833 52.0433 29.4205C52.3464 29.2538 52.5793 29.0341 52.7422 28.7614C52.9089 28.4886 52.9922 28.1913 52.9922 27.8693V26.8409C52.9278 26.8939 52.8179 26.9432 52.6626 26.9886C52.5111 27.0341 52.3407 27.0739 52.1513 27.108C51.9619 27.142 51.7744 27.1723 51.5888 27.1989C51.4032 27.2254 51.2422 27.2481 51.1058 27.267C50.799 27.3087 50.5244 27.3769 50.282 27.4716C50.0395 27.5663 49.8482 27.6989 49.7081 27.8693C49.5679 28.036 49.4979 28.2519 49.4979 28.517C49.4979 28.8958 49.6361 29.1818 49.9126 29.375C50.1892 29.5682 50.5414 29.6648 50.9695 29.6648ZM60.9183 31.1705C60.0471 31.1705 59.299 30.9792 58.674 30.5966C58.0528 30.214 57.5736 29.6856 57.2365 29.0114C56.9032 28.3333 56.7365 27.553 56.7365 26.6705C56.7365 25.7841 56.907 25.0019 57.2479 24.3239C57.5888 23.642 58.0698 23.1117 58.6911 22.733C59.3161 22.3504 60.0547 22.1591 60.907 22.1591C61.6153 22.1591 62.2422 22.2898 62.7876 22.5511C63.3369 22.8087 63.7744 23.1742 64.1001 23.6477C64.4259 24.1174 64.6115 24.6667 64.657 25.2955H62.6911C62.6115 24.875 62.4221 24.5246 62.1229 24.2443C61.8274 23.9602 61.4316 23.8182 60.9354 23.8182C60.5149 23.8182 60.1456 23.9318 59.8274 24.1591C59.5092 24.3826 59.2611 24.7045 59.0831 25.125C58.9089 25.5455 58.8217 26.0492 58.8217 26.6364C58.8217 27.2311 58.9089 27.7424 59.0831 28.1705C59.2573 28.5947 59.5017 28.9223 59.8161 29.1534C60.1342 29.3807 60.5073 29.4943 60.9354 29.4943C61.2384 29.4943 61.5092 29.4375 61.7479 29.3239C61.9903 29.2064 62.1929 29.0379 62.3558 28.8182C62.5187 28.5985 62.6304 28.3314 62.6911 28.017H64.657C64.6077 28.6345 64.4259 29.1818 64.1115 29.6591C63.7971 30.1326 63.3691 30.5038 62.8274 30.7727C62.2857 31.0379 61.6494 31.1705 60.9183 31.1705ZM70.7038 22.2727V23.8636H65.6868V22.2727H70.7038ZM66.9254 20.1818H68.9822V28.375C68.9822 28.6515 69.0239 28.8636 69.1072 29.0114C69.1944 29.1553 69.308 29.2538 69.4482 29.3068C69.5883 29.3598 69.7436 29.3864 69.9141 29.3864C70.0429 29.3864 70.1603 29.3769 70.2663 29.358C70.3762 29.339 70.4595 29.322 70.5163 29.3068L70.8629 30.9148C70.7531 30.9527 70.5959 30.9943 70.3913 31.0398C70.1906 31.0852 69.9444 31.1117 69.6527 31.1193C69.1375 31.1345 68.6735 31.0568 68.2607 30.8864C67.8478 30.7121 67.5201 30.4432 67.2777 30.0795C67.0391 29.7159 66.9216 29.2614 66.9254 28.7159V20.1818ZM72.424 31V22.2727H74.4808V31H72.424ZM73.4581 21.0341C73.1323 21.0341 72.852 20.9261 72.6172 20.7102C72.3823 20.4905 72.2649 20.2273 72.2649 19.9205C72.2649 19.6098 72.3823 19.3466 72.6172 19.1307C72.852 18.911 73.1323 18.8011 73.4581 18.8011C73.7876 18.8011 74.0679 18.911 74.299 19.1307C74.5339 19.3466 74.6513 19.6098 74.6513 19.9205C74.6513 20.2273 74.5339 20.4905 74.299 20.7102C74.0679 20.9261 73.7876 21.0341 73.4581 21.0341ZM84.3913 22.2727L81.2834 31H79.0107L75.9027 22.2727H78.0959L80.1016 28.7557H80.1925L82.2038 22.2727H84.3913ZM88.076 31.1761C87.523 31.1761 87.0249 31.0777 86.5817 30.8807C86.1423 30.6799 85.7938 30.3845 85.5362 29.9943C85.2824 29.6042 85.1555 29.1231 85.1555 28.5511C85.1555 28.0587 85.2464 27.6515 85.4283 27.3295C85.6101 27.0076 85.8582 26.75 86.1726 26.5568C86.487 26.3636 86.8411 26.2178 87.2351 26.1193C87.6328 26.017 88.0438 25.9432 88.468 25.8977C88.9794 25.8447 89.3942 25.7973 89.7124 25.7557C90.0305 25.7102 90.2616 25.642 90.4055 25.5511C90.5533 25.4564 90.6271 25.3106 90.6271 25.1136V25.0795C90.6271 24.6515 90.5002 24.3201 90.2464 24.0852C89.9927 23.8504 89.6271 23.733 89.1499 23.733C88.6461 23.733 88.2464 23.8428 87.951 24.0625C87.6593 24.2822 87.4624 24.5417 87.3601 24.8409L85.4396 24.5682C85.5911 24.0379 85.8411 23.5947 86.1896 23.2386C86.5381 22.8788 86.9643 22.6098 87.468 22.4318C87.9718 22.25 88.5286 22.1591 89.1385 22.1591C89.5589 22.1591 89.9775 22.2083 90.3942 22.3068C90.8108 22.4053 91.1915 22.5682 91.5362 22.7955C91.8809 23.0189 92.1574 23.3239 92.3658 23.7102C92.5779 24.0966 92.6839 24.5795 92.6839 25.1591V31H90.7067V29.8011H90.6385C90.5135 30.0436 90.3374 30.2708 90.1101 30.483C89.8866 30.6913 89.6044 30.8598 89.2635 30.9886C88.9264 31.1136 88.5305 31.1761 88.076 31.1761ZM88.6101 29.6648C89.023 29.6648 89.3809 29.5833 89.6839 29.4205C89.987 29.2538 90.2199 29.0341 90.3828 28.7614C90.5495 28.4886 90.6328 28.1913 90.6328 27.8693V26.8409C90.5684 26.8939 90.4586 26.9432 90.3033 26.9886C90.1518 27.0341 89.9813 27.0739 89.7919 27.108C89.6025 27.142 89.415 27.1723 89.2294 27.1989C89.0438 27.2254 88.8828 27.2481 88.7464 27.267C88.4396 27.3087 88.165 27.3769 87.9226 27.4716C87.6802 27.5663 87.4889 27.6989 87.3487 27.8693C87.2086 28.036 87.1385 28.2519 87.1385 28.517C87.1385 28.8958 87.2768 29.1818 87.5533 29.375C87.8298 29.5682 88.1821 29.6648 88.6101 29.6648ZM99.1101 22.2727V23.8636H94.093V22.2727H99.1101ZM95.3317 20.1818H97.3885V28.375C97.3885 28.6515 97.4302 28.8636 97.5135 29.0114C97.6006 29.1553 97.7143 29.2538 97.8544 29.3068C97.9946 29.3598 98.1499 29.3864 98.3203 29.3864C98.4491 29.3864 98.5665 29.3769 98.6726 29.358C98.7824 29.339 98.8658 29.322 98.9226 29.3068L99.2692 30.9148C99.1593 30.9527 99.0021 30.9943 98.7976 31.0398C98.5968 31.0852 98.3506 31.1117 98.0589 31.1193C97.5438 31.1345 97.0798 31.0568 96.6669 30.8864C96.254 30.7121 95.9264 30.4432 95.6839 30.0795C95.4453 29.7159 95.3279 29.2614 95.3317 28.7159V20.1818ZM104.6 31.1705C103.725 31.1705 102.969 30.9886 102.333 30.625C101.701 30.2576 101.214 29.7386 100.873 29.0682C100.532 28.3939 100.362 27.6004 100.362 26.6875C100.362 25.7898 100.532 25.0019 100.873 24.3239C101.218 23.642 101.699 23.1117 102.316 22.733C102.933 22.3504 103.659 22.1591 104.492 22.1591C105.03 22.1591 105.538 22.2462 106.015 22.4205C106.496 22.5909 106.92 22.8561 107.288 23.2159C107.659 23.5758 107.951 24.0341 108.163 24.5909C108.375 25.1439 108.481 25.803 108.481 26.5682V27.1989H101.327V25.8125H106.509C106.505 25.4186 106.42 25.0682 106.254 24.7614C106.087 24.4508 105.854 24.2064 105.555 24.0284C105.259 23.8504 104.915 23.7614 104.521 23.7614C104.1 23.7614 103.731 23.8636 103.413 24.0682C103.094 24.2689 102.846 24.5341 102.668 24.8636C102.494 25.1894 102.405 25.5473 102.401 25.9375V27.1477C102.401 27.6553 102.494 28.0909 102.68 28.4545C102.865 28.8144 103.125 29.0909 103.458 29.2841C103.791 29.4735 104.182 29.5682 104.629 29.5682C104.928 29.5682 105.199 29.5265 105.441 29.4432C105.683 29.3561 105.894 29.2292 106.072 29.0625C106.25 28.8958 106.384 28.6894 106.475 28.4432L108.396 28.6591C108.274 29.1667 108.043 29.6098 107.702 29.9886C107.365 30.3636 106.933 30.6553 106.407 30.8636C105.88 31.0682 105.278 31.1705 104.6 31.1705ZM115.775 31H113.525L117.621 19.3636H120.224L124.326 31H122.076L118.968 21.75H118.877L115.775 31ZM115.849 26.4375H121.985V28.1307H115.849V26.4375ZM129.309 31.1705C128.438 31.1705 127.69 30.9792 127.065 30.5966C126.443 30.214 125.964 29.6856 125.627 29.0114C125.294 28.3333 125.127 27.553 125.127 26.6705C125.127 25.7841 125.298 25.0019 125.638 24.3239C125.979 23.642 126.46 23.1117 127.082 22.733C127.707 22.3504 128.445 22.1591 129.298 22.1591C130.006 22.1591 130.633 22.2898 131.178 22.5511C131.728 22.8087 132.165 23.1742 132.491 23.6477C132.817 24.1174 133.002 24.6667 133.048 25.2955H131.082C131.002 24.875 130.813 24.5246 130.513 24.2443C130.218 23.9602 129.822 23.8182 129.326 23.8182C128.906 23.8182 128.536 23.9318 128.218 24.1591C127.9 24.3826 127.652 24.7045 127.474 25.125C127.299 25.5455 127.212 26.0492 127.212 26.6364C127.212 27.2311 127.299 27.7424 127.474 28.1705C127.648 28.5947 127.892 28.9223 128.207 29.1534C128.525 29.3807 128.898 29.4943 129.326 29.4943C129.629 29.4943 129.9 29.4375 130.138 29.3239C130.381 29.2064 130.584 29.0379 130.746 28.8182C130.909 28.5985 131.021 28.3314 131.082 28.017H133.048C132.998 28.6345 132.817 29.1818 132.502 29.6591C132.188 30.1326 131.76 30.5038 131.218 30.7727C130.676 31.0379 130.04 31.1705 129.309 31.1705ZM138.543 31.1705C137.672 31.1705 136.924 30.9792 136.299 30.5966C135.678 30.214 135.199 29.6856 134.862 29.0114C134.528 28.3333 134.362 27.553 134.362 26.6705C134.362 25.7841 134.532 25.0019 134.873 24.3239C135.214 23.642 135.695 23.1117 136.316 22.733C136.941 22.3504 137.68 22.1591 138.532 22.1591C139.24 22.1591 139.867 22.2898 140.413 22.5511C140.962 22.8087 141.399 23.1742 141.725 23.6477C142.051 24.1174 142.237 24.6667 142.282 25.2955H140.316C140.237 24.875 140.047 24.5246 139.748 24.2443C139.452 23.9602 139.057 23.8182 138.56 23.8182C138.14 23.8182 137.771 23.9318 137.452 24.1591C137.134 24.3826 136.886 24.7045 136.708 25.125C136.534 25.5455 136.447 26.0492 136.447 26.6364C136.447 27.2311 136.534 27.7424 136.708 28.1705C136.882 28.5947 137.127 28.9223 137.441 29.1534C137.759 29.3807 138.132 29.4943 138.56 29.4943C138.863 29.4943 139.134 29.4375 139.373 29.3239C139.615 29.2064 139.818 29.0379 139.981 28.8182C140.144 28.5985 140.255 28.3314 140.316 28.017H142.282C142.233 28.6345 142.051 29.1818 141.737 29.6591C141.422 30.1326 140.994 30.5038 140.452 30.7727C139.911 31.0379 139.274 31.1705 138.543 31.1705ZM147.778 31.1705C146.925 31.1705 146.187 30.983 145.562 30.608C144.937 30.233 144.452 29.7083 144.107 29.0341C143.766 28.3598 143.596 27.572 143.596 26.6705C143.596 25.7689 143.766 24.9792 144.107 24.3011C144.452 23.6231 144.937 23.0966 145.562 22.7216C146.187 22.3466 146.925 22.1591 147.778 22.1591C148.63 22.1591 149.369 22.3466 149.994 22.7216C150.619 23.0966 151.102 23.6231 151.442 24.3011C151.787 24.9792 151.96 25.7689 151.96 26.6705C151.96 27.572 151.787 28.3598 151.442 29.0341C151.102 29.7083 150.619 30.233 149.994 30.608C149.369 30.983 148.63 31.1705 147.778 31.1705ZM147.789 29.5227C148.251 29.5227 148.638 29.3958 148.948 29.142C149.259 28.8845 149.49 28.5398 149.641 28.108C149.797 27.6761 149.874 27.1951 149.874 26.6648C149.874 26.1307 149.797 25.6477 149.641 25.2159C149.49 24.7803 149.259 24.4337 148.948 24.1761C148.638 23.9186 148.251 23.7898 147.789 23.7898C147.316 23.7898 146.922 23.9186 146.607 24.1761C146.297 24.4337 146.064 24.7803 145.908 25.2159C145.757 25.6477 145.681 26.1307 145.681 26.6648C145.681 27.1951 145.757 27.6761 145.908 28.108C146.064 28.5398 146.297 28.8845 146.607 29.142C146.922 29.3958 147.316 29.5227 147.789 29.5227ZM159.268 27.3295V22.2727H161.325V31H159.33V29.4489H159.239C159.042 29.9375 158.719 30.3371 158.268 30.6477C157.821 30.9583 157.27 31.1136 156.614 31.1136C156.042 31.1136 155.537 30.9867 155.097 30.733C154.662 30.4754 154.321 30.1023 154.075 29.6136C153.828 29.1212 153.705 28.5265 153.705 27.8295V22.2727H155.762V27.5114C155.762 28.0644 155.914 28.5038 156.217 28.8295C156.52 29.1553 156.917 29.3182 157.41 29.3182C157.713 29.3182 158.006 29.2443 158.29 29.0966C158.575 28.9489 158.808 28.7292 158.989 28.4375C159.175 28.142 159.268 27.7727 159.268 27.3295ZM165.496 25.8864V31H163.44V22.2727H165.406V23.7557H165.508C165.709 23.267 166.029 22.8788 166.468 22.5909C166.911 22.303 167.459 22.1591 168.11 22.1591C168.712 22.1591 169.237 22.2879 169.684 22.5455C170.135 22.803 170.483 23.1761 170.729 23.6648C170.979 24.1534 171.103 24.7462 171.099 25.4432V31H169.042V25.7614C169.042 25.178 168.89 24.7216 168.587 24.392C168.288 24.0625 167.873 23.8977 167.343 23.8977C166.983 23.8977 166.663 23.9773 166.383 24.1364C166.106 24.2917 165.888 24.517 165.729 24.8125C165.574 25.108 165.496 25.4659 165.496 25.8864ZM177.548 22.2727V23.8636H172.531V22.2727H177.548ZM173.769 20.1818H175.826V28.375C175.826 28.6515 175.868 28.8636 175.951 29.0114C176.038 29.1553 176.152 29.2538 176.292 29.3068C176.432 29.3598 176.587 29.3864 176.758 29.3864C176.887 29.3864 177.004 29.3769 177.11 29.358C177.22 29.339 177.303 29.322 177.36 29.3068L177.707 30.9148C177.597 30.9527 177.44 30.9943 177.235 31.0398C177.034 31.0852 176.788 31.1117 176.496 31.1193C175.981 31.1345 175.517 31.0568 175.104 30.8864C174.692 30.7121 174.364 30.4432 174.121 30.0795C173.883 29.7159 173.765 29.2614 173.769 28.7159V20.1818Z" fill="#E74C3C"/>
</svg>
