<svg width="269" height="48" viewBox="0 0 269 48" fill="none" xmlns="http://www.w3.org/2000/svg">
<path d="M260.922 0C265.34 3.35416e-06 268.922 3.58172 268.922 8V40C268.922 44.4183 265.34 48 260.922 48H8C3.58173 48 1.28856e-07 44.4183 0 40V8C5.15422e-07 3.58172 3.58172 1.05635e-07 8 0H260.922Z" fill="#E74C3C"/>
<path d="M260.922 0C265.34 3.35416e-06 268.922 3.58172 268.922 8V40C268.922 44.4183 265.34 48 260.922 48H8C3.58173 48 1.28856e-07 44.4183 0 40V8C5.15422e-07 3.58172 3.58172 1.05635e-07 8 0H260.922Z" stroke="#E5E7EB"/>
<path d="M28.8878 29H24.9446V17.3636H28.9673C30.1226 17.3636 31.1151 17.5966 31.9446 18.0625C32.7779 18.5246 33.4181 19.1894 33.8651 20.0568C34.312 20.9242 34.5355 21.9621 34.5355 23.1705C34.5355 24.3826 34.3101 25.4242 33.8594 26.2955C33.4124 27.1667 32.7666 27.8352 31.9219 28.3011C31.081 28.767 30.0696 29 28.8878 29ZM27.0526 27.1761H28.7855C29.5961 27.1761 30.2723 27.0284 30.8139 26.733C31.3556 26.4337 31.7628 25.9886 32.0355 25.3977C32.3082 24.803 32.4446 24.0606 32.4446 23.1705C32.4446 22.2803 32.3082 21.5417 32.0355 20.9545C31.7628 20.3636 31.3594 19.9223 30.8253 19.6307C30.295 19.3352 29.6359 19.1875 28.848 19.1875H27.0526V27.1761ZM40.3111 29.1705C39.4361 29.1705 38.6804 28.9886 38.044 28.625C37.4115 28.2576 36.9247 27.7386 36.5838 27.0682C36.2429 26.3939 36.0724 25.6004 36.0724 24.6875C36.0724 23.7898 36.2429 23.0019 36.5838 22.3239C36.9285 21.642 37.4096 21.1117 38.027 20.733C38.6444 20.3504 39.3698 20.1591 40.2031 20.1591C40.741 20.1591 41.2486 20.2462 41.7259 20.4205C42.2069 20.5909 42.6312 20.8561 42.9986 21.2159C43.3698 21.5758 43.6615 22.0341 43.8736 22.5909C44.0857 23.1439 44.1918 23.803 44.1918 24.5682V25.1989H37.0384V23.8125H42.2202C42.2164 23.4186 42.1312 23.0682 41.9645 22.7614C41.7978 22.4508 41.5649 22.2064 41.2656 22.0284C40.9702 21.8504 40.6255 21.7614 40.2315 21.7614C39.8111 21.7614 39.4418 21.8636 39.1236 22.0682C38.8054 22.2689 38.5573 22.5341 38.3793 22.8636C38.205 23.1894 38.116 23.5473 38.1122 23.9375V25.1477C38.1122 25.6553 38.205 26.0909 38.3906 26.4545C38.5762 26.8144 38.8357 27.0909 39.169 27.2841C39.5024 27.4735 39.8925 27.5682 40.3395 27.5682C40.6387 27.5682 40.9096 27.5265 41.152 27.4432C41.3944 27.3561 41.6046 27.2292 41.7827 27.0625C41.9607 26.8958 42.0952 26.6894 42.1861 26.4432L44.1065 26.6591C43.9853 27.1667 43.7543 27.6098 43.4134 27.9886C43.0762 28.3636 42.6444 28.6553 42.1179 28.8636C41.5914 29.0682 40.9891 29.1705 40.3111 29.1705ZM47.9886 17.3636V29H45.9318V17.3636H47.9886ZM53.9673 29.1705C53.0923 29.1705 52.3366 28.9886 51.7003 28.625C51.0677 28.2576 50.581 27.7386 50.2401 27.0682C49.8991 26.3939 49.7287 25.6004 49.7287 24.6875C49.7287 23.7898 49.8991 23.0019 50.2401 22.3239C50.5848 21.642 51.0658 21.1117 51.6832 20.733C52.3007 20.3504 53.026 20.1591 53.8594 20.1591C54.3973 20.1591 54.9048 20.2462 55.3821 20.4205C55.8632 20.5909 56.2874 20.8561 56.6548 21.2159C57.026 21.5758 57.3177 22.0341 57.5298 22.5909C57.742 23.1439 57.848 23.803 57.848 24.5682V25.1989H50.6946V23.8125H55.8764C55.8726 23.4186 55.7874 23.0682 55.6207 22.7614C55.4541 22.4508 55.2211 22.2064 54.9219 22.0284C54.6264 21.8504 54.2817 21.7614 53.8878 21.7614C53.4673 21.7614 53.098 21.8636 52.7798 22.0682C52.4616 22.2689 52.2135 22.5341 52.0355 22.8636C51.8613 23.1894 51.7723 23.5473 51.7685 23.9375V25.1477C51.7685 25.6553 51.8613 26.0909 52.0469 26.4545C52.2325 26.8144 52.492 27.0909 52.8253 27.2841C53.1586 27.4735 53.5488 27.5682 53.9957 27.5682C54.295 27.5682 54.5658 27.5265 54.8082 27.4432C55.0507 27.3561 55.2609 27.2292 55.4389 27.0625C55.617 26.8958 55.7514 26.6894 55.8423 26.4432L57.7628 26.6591C57.6416 27.1667 57.4105 27.6098 57.0696 27.9886C56.7325 28.3636 56.3007 28.6553 55.7741 28.8636C55.2476 29.0682 54.6454 29.1705 53.9673 29.1705ZM63.946 20.2727V21.8636H58.929V20.2727H63.946ZM60.1676 18.1818H62.2244V26.375C62.2244 26.6515 62.2661 26.8636 62.3494 27.0114C62.4366 27.1553 62.5502 27.2538 62.6903 27.3068C62.8305 27.3598 62.9858 27.3864 63.1562 27.3864C63.285 27.3864 63.4025 27.3769 63.5085 27.358C63.6184 27.339 63.7017 27.322 63.7585 27.3068L64.1051 28.9148C63.9953 28.9527 63.8381 28.9943 63.6335 29.0398C63.4328 29.0852 63.1866 29.1117 62.8949 29.1193C62.3797 29.1345 61.9157 29.0568 61.5028 28.8864C61.09 28.7121 60.7623 28.4432 60.5199 28.0795C60.2813 27.7159 60.1638 27.2614 60.1676 26.7159V18.1818ZM69.4361 29.1705C68.5611 29.1705 67.8054 28.9886 67.169 28.625C66.5365 28.2576 66.0497 27.7386 65.7088 27.0682C65.3679 26.3939 65.1974 25.6004 65.1974 24.6875C65.1974 23.7898 65.3679 23.0019 65.7088 22.3239C66.0535 21.642 66.5346 21.1117 67.152 20.733C67.7694 20.3504 68.4948 20.1591 69.3281 20.1591C69.866 20.1591 70.3736 20.2462 70.8509 20.4205C71.3319 20.5909 71.7562 20.8561 72.1236 21.2159C72.4948 21.5758 72.7865 22.0341 72.9986 22.5909C73.2107 23.1439 73.3168 23.803 73.3168 24.5682V25.1989H66.1634V23.8125H71.3452C71.3414 23.4186 71.2562 23.0682 71.0895 22.7614C70.9228 22.4508 70.6899 22.2064 70.3906 22.0284C70.0952 21.8504 69.7505 21.7614 69.3565 21.7614C68.9361 21.7614 68.5668 21.8636 68.2486 22.0682C67.9304 22.2689 67.6823 22.5341 67.5043 22.8636C67.33 23.1894 67.241 23.5473 67.2372 23.9375V25.1477C67.2372 25.6553 67.33 26.0909 67.5156 26.4545C67.7012 26.8144 67.9607 27.0909 68.294 27.2841C68.6274 27.4735 69.0175 27.5682 69.4645 27.5682C69.7637 27.5682 70.0346 27.5265 70.277 27.4432C70.5194 27.3561 70.7296 27.2292 70.9077 27.0625C71.0857 26.8958 71.2202 26.6894 71.3111 26.4432L73.2315 26.6591C73.1103 27.1667 72.8793 27.6098 72.5384 27.9886C72.2012 28.3636 71.7694 28.6553 71.2429 28.8636C70.7164 29.0682 70.1141 29.1705 69.4361 29.1705ZM80.6108 29H78.3608L82.4574 17.3636H85.0597L89.1619 29H86.9119L83.804 19.75H83.7131L80.6108 29ZM80.6847 24.4375H86.821V26.1307H80.6847V24.4375ZM94.1449 29.1705C93.2737 29.1705 92.5256 28.9792 91.9006 28.5966C91.2794 28.214 90.8002 27.6856 90.4631 27.0114C90.1297 26.3333 89.9631 25.553 89.9631 24.6705C89.9631 23.7841 90.1335 23.0019 90.4744 22.3239C90.8153 21.642 91.2964 21.1117 91.9176 20.733C92.5426 20.3504 93.2813 20.1591 94.1335 20.1591C94.8419 20.1591 95.4688 20.2898 96.0142 20.5511C96.5634 20.8087 97.0009 21.1742 97.3267 21.6477C97.6525 22.1174 97.8381 22.6667 97.8835 23.2955H95.9176C95.8381 22.875 95.6487 22.5246 95.3494 22.2443C95.054 21.9602 94.6581 21.8182 94.1619 21.8182C93.7415 21.8182 93.3722 21.9318 93.054 22.1591C92.7358 22.3826 92.4877 22.7045 92.3097 23.125C92.1354 23.5455 92.0483 24.0492 92.0483 24.6364C92.0483 25.2311 92.1354 25.7424 92.3097 26.1705C92.4839 26.5947 92.7282 26.9223 93.0426 27.1534C93.3608 27.3807 93.7339 27.4943 94.1619 27.4943C94.465 27.4943 94.7358 27.4375 94.9744 27.3239C95.2169 27.2064 95.4195 27.0379 95.5824 26.8182C95.7453 26.5985 95.857 26.3314 95.9176 26.017H97.8835C97.8343 26.6345 97.6525 27.1818 97.3381 27.6591C97.0237 28.1326 96.5956 28.5038 96.054 28.7727C95.5123 29.0379 94.8759 29.1705 94.1449 29.1705ZM103.379 29.1705C102.508 29.1705 101.76 28.9792 101.135 28.5966C100.514 28.214 100.035 27.6856 99.6974 27.0114C99.3641 26.3333 99.1974 25.553 99.1974 24.6705C99.1974 23.7841 99.3679 23.0019 99.7088 22.3239C100.05 21.642 100.531 21.1117 101.152 20.733C101.777 20.3504 102.516 20.1591 103.368 20.1591C104.076 20.1591 104.703 20.2898 105.249 20.5511C105.798 20.8087 106.235 21.1742 106.561 21.6477C106.887 22.1174 107.072 22.6667 107.118 23.2955H105.152C105.072 22.875 104.883 22.5246 104.584 22.2443C104.288 21.9602 103.893 21.8182 103.396 21.8182C102.976 21.8182 102.607 21.9318 102.288 22.1591C101.97 22.3826 101.722 22.7045 101.544 23.125C101.37 23.5455 101.283 24.0492 101.283 24.6364C101.283 25.2311 101.37 25.7424 101.544 26.1705C101.718 26.5947 101.963 26.9223 102.277 27.1534C102.595 27.3807 102.968 27.4943 103.396 27.4943C103.699 27.4943 103.97 27.4375 104.209 27.3239C104.451 27.2064 104.654 27.0379 104.817 26.8182C104.98 26.5985 105.091 26.3314 105.152 26.017H107.118C107.069 26.6345 106.887 27.1818 106.572 27.6591C106.258 28.1326 105.83 28.5038 105.288 28.7727C104.747 29.0379 104.11 29.1705 103.379 29.1705ZM112.614 29.1705C111.761 29.1705 111.023 28.983 110.398 28.608C109.773 28.233 109.288 27.7083 108.943 27.0341C108.602 26.3598 108.432 25.572 108.432 24.6705C108.432 23.7689 108.602 22.9792 108.943 22.3011C109.288 21.6231 109.773 21.0966 110.398 20.7216C111.023 20.3466 111.761 20.1591 112.614 20.1591C113.466 20.1591 114.205 20.3466 114.83 20.7216C115.455 21.0966 115.938 21.6231 116.278 22.3011C116.623 22.9792 116.795 23.7689 116.795 24.6705C116.795 25.572 116.623 26.3598 116.278 27.0341C115.938 27.7083 115.455 28.233 114.83 28.608C114.205 28.983 113.466 29.1705 112.614 29.1705ZM112.625 27.5227C113.087 27.5227 113.473 27.3958 113.784 27.142C114.095 26.8845 114.326 26.5398 114.477 26.108C114.633 25.6761 114.71 25.1951 114.71 24.6648C114.71 24.1307 114.633 23.6477 114.477 23.2159C114.326 22.7803 114.095 22.4337 113.784 22.1761C113.473 21.9186 113.087 21.7898 112.625 21.7898C112.152 21.7898 111.758 21.9186 111.443 22.1761C111.133 22.4337 110.9 22.7803 110.744 23.2159C110.593 23.6477 110.517 24.1307 110.517 24.6648C110.517 25.1951 110.593 25.6761 110.744 26.108C110.9 26.5398 111.133 26.8845 111.443 27.142C111.758 27.3958 112.152 27.5227 112.625 27.5227ZM124.104 25.3295V20.2727H126.161V29H124.166V27.4489H124.075C123.878 27.9375 123.554 28.3371 123.104 28.6477C122.657 28.9583 122.106 29.1136 121.45 29.1136C120.878 29.1136 120.373 28.9867 119.933 28.733C119.498 28.4754 119.157 28.1023 118.911 27.6136C118.664 27.1212 118.541 26.5265 118.541 25.8295V20.2727H120.598V25.5114C120.598 26.0644 120.75 26.5038 121.053 26.8295C121.356 27.1553 121.753 27.3182 122.246 27.3182C122.549 27.3182 122.842 27.2443 123.126 27.0966C123.411 26.9489 123.643 26.7292 123.825 26.4375C124.011 26.142 124.104 25.7727 124.104 25.3295ZM130.332 23.8864V29H128.276V20.2727H130.241V21.7557H130.344C130.545 21.267 130.865 20.8788 131.304 20.5909C131.747 20.303 132.295 20.1591 132.946 20.1591C133.548 20.1591 134.073 20.2879 134.52 20.5455C134.971 20.803 135.319 21.1761 135.565 21.6648C135.815 22.1534 135.938 22.7462 135.935 23.4432V29H133.878V23.7614C133.878 23.178 133.726 22.7216 133.423 22.392C133.124 22.0625 132.709 21.8977 132.179 21.8977C131.819 21.8977 131.499 21.9773 131.219 22.1364C130.942 22.2917 130.724 22.517 130.565 22.8125C130.41 23.108 130.332 23.4659 130.332 23.8864ZM142.384 20.2727V21.8636H137.366V20.2727H142.384ZM138.605 18.1818H140.662V26.375C140.662 26.6515 140.704 26.8636 140.787 27.0114C140.874 27.1553 140.988 27.2538 141.128 27.3068C141.268 27.3598 141.423 27.3864 141.594 27.3864C141.723 27.3864 141.84 27.3769 141.946 27.358C142.056 27.339 142.139 27.322 142.196 27.3068L142.543 28.9148C142.433 28.9527 142.276 28.9943 142.071 29.0398C141.87 29.0852 141.624 29.1117 141.332 29.1193C140.817 29.1345 140.353 29.0568 139.94 28.8864C139.527 28.7121 139.2 28.4432 138.957 28.0795C138.719 27.7159 138.601 27.2614 138.605 26.7159V18.1818ZM148.163 29V17.3636H152.527C153.421 17.3636 154.171 17.5303 154.777 17.8636C155.387 18.197 155.847 18.6553 156.158 19.2386C156.472 19.8182 156.629 20.4773 156.629 21.2159C156.629 21.9621 156.472 22.625 156.158 23.2045C155.843 23.7841 155.379 24.2405 154.766 24.5739C154.152 24.9034 153.396 25.0682 152.499 25.0682H149.607V23.3352H152.214C152.737 23.3352 153.165 23.2443 153.499 23.0625C153.832 22.8807 154.078 22.6307 154.237 22.3125C154.4 21.9943 154.482 21.6288 154.482 21.2159C154.482 20.803 154.4 20.4394 154.237 20.125C154.078 19.8106 153.83 19.5663 153.493 19.392C153.16 19.214 152.73 19.125 152.203 19.125H150.271V29H148.163ZM162.108 29.1705C161.233 29.1705 160.477 28.9886 159.841 28.625C159.208 28.2576 158.722 27.7386 158.381 27.0682C158.04 26.3939 157.869 25.6004 157.869 24.6875C157.869 23.7898 158.04 23.0019 158.381 22.3239C158.725 21.642 159.206 21.1117 159.824 20.733C160.441 20.3504 161.167 20.1591 162 20.1591C162.538 20.1591 163.045 20.2462 163.523 20.4205C164.004 20.5909 164.428 20.8561 164.795 21.2159C165.167 21.5758 165.458 22.0341 165.67 22.5909C165.883 23.1439 165.989 23.803 165.989 24.5682V25.1989H158.835V23.8125H164.017C164.013 23.4186 163.928 23.0682 163.761 22.7614C163.595 22.4508 163.362 22.2064 163.062 22.0284C162.767 21.8504 162.422 21.7614 162.028 21.7614C161.608 21.7614 161.239 21.8636 160.92 22.0682C160.602 22.2689 160.354 22.5341 160.176 22.8636C160.002 23.1894 159.913 23.5473 159.909 23.9375V25.1477C159.909 25.6553 160.002 26.0909 160.188 26.4545C160.373 26.8144 160.633 27.0909 160.966 27.2841C161.299 27.4735 161.689 27.5682 162.136 27.5682C162.436 27.5682 162.706 27.5265 162.949 27.4432C163.191 27.3561 163.402 27.2292 163.58 27.0625C163.758 26.8958 163.892 26.6894 163.983 26.4432L165.903 26.6591C165.782 27.1667 165.551 27.6098 165.21 27.9886C164.873 28.3636 164.441 28.6553 163.915 28.8636C163.388 29.0682 162.786 29.1705 162.108 29.1705ZM167.729 29V20.2727H169.723V21.7273H169.814C169.973 21.2235 170.246 20.8352 170.632 20.5625C171.022 20.286 171.467 20.1477 171.967 20.1477C172.081 20.1477 172.208 20.1534 172.348 20.1648C172.492 20.1723 172.611 20.1856 172.706 20.2045V22.0966C172.619 22.0663 172.481 22.0398 172.291 22.017C172.106 21.9905 171.926 21.9773 171.751 21.9773C171.376 21.9773 171.039 22.0587 170.74 22.2216C170.445 22.3807 170.212 22.6023 170.041 22.8864C169.871 23.1705 169.786 23.4981 169.786 23.8693V29H167.729ZM174.072 29V20.2727H176.038V21.7557H176.141C176.322 21.2557 176.624 20.8655 177.044 20.5852C177.464 20.3011 177.966 20.1591 178.55 20.1591C179.141 20.1591 179.639 20.303 180.044 20.5909C180.453 20.875 180.741 21.2633 180.908 21.7557H180.999C181.192 21.2708 181.518 20.8845 181.976 20.5966C182.438 20.3049 182.985 20.1591 183.618 20.1591C184.421 20.1591 185.076 20.4129 185.584 20.9205C186.091 21.428 186.345 22.1686 186.345 23.142V29H184.283V23.4602C184.283 22.9186 184.139 22.5227 183.851 22.2727C183.563 22.0189 183.211 21.892 182.794 21.892C182.298 21.892 181.91 22.0473 181.629 22.358C181.353 22.6648 181.214 23.0644 181.214 23.5568V29H179.197V23.375C179.197 22.9242 179.061 22.5644 178.788 22.2955C178.519 22.0265 178.167 21.892 177.732 21.892C177.436 21.892 177.167 21.9678 176.925 22.1193C176.682 22.267 176.489 22.4773 176.345 22.75C176.201 23.0189 176.129 23.3333 176.129 23.6932V29H174.072ZM190.943 29.1761C190.39 29.1761 189.892 29.0777 189.449 28.8807C189.009 28.6799 188.661 28.3845 188.403 27.9943C188.15 27.6042 188.023 27.1231 188.023 26.5511C188.023 26.0587 188.114 25.6515 188.295 25.3295C188.477 25.0076 188.725 24.75 189.04 24.5568C189.354 24.3636 189.708 24.2178 190.102 24.1193C190.5 24.017 190.911 23.9432 191.335 23.8977C191.847 23.8447 192.261 23.7973 192.58 23.7557C192.898 23.7102 193.129 23.642 193.273 23.5511C193.42 23.4564 193.494 23.3106 193.494 23.1136V23.0795C193.494 22.6515 193.367 22.3201 193.114 22.0852C192.86 21.8504 192.494 21.733 192.017 21.733C191.513 21.733 191.114 21.8428 190.818 22.0625C190.527 22.2822 190.33 22.5417 190.227 22.8409L188.307 22.5682C188.458 22.0379 188.708 21.5947 189.057 21.2386C189.405 20.8788 189.831 20.6098 190.335 20.4318C190.839 20.25 191.396 20.1591 192.006 20.1591C192.426 20.1591 192.845 20.2083 193.261 20.3068C193.678 20.4053 194.059 20.5682 194.403 20.7955C194.748 21.0189 195.025 21.3239 195.233 21.7102C195.445 22.0966 195.551 22.5795 195.551 23.1591V29H193.574V27.8011H193.506C193.381 28.0436 193.205 28.2708 192.977 28.483C192.754 28.6913 192.472 28.8598 192.131 28.9886C191.794 29.1136 191.398 29.1761 190.943 29.1761ZM191.477 27.6648C191.89 27.6648 192.248 27.5833 192.551 27.4205C192.854 27.2538 193.087 27.0341 193.25 26.7614C193.417 26.4886 193.5 26.1913 193.5 25.8693V24.8409C193.436 24.8939 193.326 24.9432 193.17 24.9886C193.019 25.0341 192.848 25.0739 192.659 25.108C192.47 25.142 192.282 25.1723 192.097 25.1989C191.911 25.2254 191.75 25.2481 191.614 25.267C191.307 25.3087 191.032 25.3769 190.79 25.4716C190.547 25.5663 190.356 25.6989 190.216 25.8693C190.076 26.036 190.006 26.2519 190.006 26.517C190.006 26.8958 190.144 27.1818 190.42 27.375C190.697 27.5682 191.049 27.6648 191.477 27.6648ZM199.676 23.8864V29H197.619V20.2727H199.585V21.7557H199.688C199.888 21.267 200.208 20.8788 200.648 20.5909C201.091 20.303 201.638 20.1591 202.29 20.1591C202.892 20.1591 203.417 20.2879 203.864 20.5455C204.314 20.803 204.663 21.1761 204.909 21.6648C205.159 22.1534 205.282 22.7462 205.278 23.4432V29H203.222V23.7614C203.222 23.178 203.07 22.7216 202.767 22.392C202.468 22.0625 202.053 21.8977 201.523 21.8977C201.163 21.8977 200.843 21.9773 200.562 22.1364C200.286 22.2917 200.068 22.517 199.909 22.8125C199.754 23.108 199.676 23.4659 199.676 23.8864ZM211.233 29.1705C210.358 29.1705 209.602 28.9886 208.966 28.625C208.333 28.2576 207.847 27.7386 207.506 27.0682C207.165 26.3939 206.994 25.6004 206.994 24.6875C206.994 23.7898 207.165 23.0019 207.506 22.3239C207.85 21.642 208.331 21.1117 208.949 20.733C209.566 20.3504 210.292 20.1591 211.125 20.1591C211.663 20.1591 212.17 20.2462 212.648 20.4205C213.129 20.5909 213.553 20.8561 213.92 21.2159C214.292 21.5758 214.583 22.0341 214.795 22.5909C215.008 23.1439 215.114 23.803 215.114 24.5682V25.1989H207.96V23.8125H213.142C213.138 23.4186 213.053 23.0682 212.886 22.7614C212.72 22.4508 212.487 22.2064 212.188 22.0284C211.892 21.8504 211.547 21.7614 211.153 21.7614C210.733 21.7614 210.364 21.8636 210.045 22.0682C209.727 22.2689 209.479 22.5341 209.301 22.8636C209.127 23.1894 209.038 23.5473 209.034 23.9375V25.1477C209.034 25.6553 209.127 26.0909 209.312 26.4545C209.498 26.8144 209.758 27.0909 210.091 27.2841C210.424 27.4735 210.814 27.5682 211.261 27.5682C211.561 27.5682 211.831 27.5265 212.074 27.4432C212.316 27.3561 212.527 27.2292 212.705 27.0625C212.883 26.8958 213.017 26.6894 213.108 26.4432L215.028 26.6591C214.907 27.1667 214.676 27.6098 214.335 27.9886C213.998 28.3636 213.566 28.6553 213.04 28.8636C212.513 29.0682 211.911 29.1705 211.233 29.1705ZM218.911 23.8864V29H216.854V20.2727H218.82V21.7557H218.922C219.123 21.267 219.443 20.8788 219.882 20.5909C220.325 20.303 220.873 20.1591 221.524 20.1591C222.126 20.1591 222.651 20.2879 223.098 20.5455C223.549 20.803 223.897 21.1761 224.143 21.6648C224.393 22.1534 224.517 22.7462 224.513 23.4432V29H222.456V23.7614C222.456 23.178 222.304 22.7216 222.001 22.392C221.702 22.0625 221.287 21.8977 220.757 21.8977C220.397 21.8977 220.077 21.9773 219.797 22.1364C219.52 22.2917 219.303 22.517 219.143 22.8125C218.988 23.108 218.911 23.4659 218.911 23.8864ZM230.962 20.2727V21.8636H225.945V20.2727H230.962ZM227.183 18.1818H229.24V26.375C229.24 26.6515 229.282 26.8636 229.365 27.0114C229.452 27.1553 229.566 27.2538 229.706 27.3068C229.846 27.3598 230.001 27.3864 230.172 27.3864C230.301 27.3864 230.418 27.3769 230.524 27.358C230.634 27.339 230.717 27.322 230.774 27.3068L231.121 28.9148C231.011 28.9527 230.854 28.9943 230.649 29.0398C230.448 29.0852 230.202 29.1117 229.911 29.1193C229.395 29.1345 228.931 29.0568 228.518 28.8864C228.106 28.7121 227.778 28.4432 227.536 28.0795C227.297 27.7159 227.179 27.2614 227.183 26.7159V18.1818ZM234.926 17.3636V29H232.869V17.3636H234.926ZM238.32 32.2727C238.039 32.2727 237.78 32.25 237.541 32.2045C237.306 32.1629 237.119 32.1136 236.979 32.0568L237.456 30.4545C237.755 30.5417 238.022 30.5833 238.257 30.5795C238.492 30.5758 238.698 30.5019 238.876 30.358C239.058 30.2178 239.212 29.983 239.337 29.6534L239.513 29.1818L236.348 20.2727H238.53L240.541 26.8636H240.632L242.649 20.2727H244.837L241.342 30.0568C241.179 30.5189 240.964 30.9148 240.695 31.2443C240.426 31.5777 240.096 31.8314 239.706 32.0057C239.32 32.1837 238.857 32.2727 238.32 32.2727Z" fill="white"/>
</svg>
