<svg width="576" height="60" viewBox="0 0 576 60" fill="none" xmlns="http://www.w3.org/2000/svg">
<rect width="576" height="60" rx="16" fill="#6366F1"/>
<rect width="576" height="60" rx="16" stroke="#E5E7EB"/>
<path d="M179.876 33V19.9091H188.263V21.897H182.248V25.451H187.687V27.4389H182.248V33H179.876ZM190.321 33V23.1818H192.635V33H190.321ZM191.484 21.7884C191.118 21.7884 190.802 21.6669 190.538 21.424C190.274 21.1768 190.142 20.8807 190.142 20.5355C190.142 20.1861 190.274 19.8899 190.538 19.647C190.802 19.3999 191.118 19.2763 191.484 19.2763C191.855 19.2763 192.17 19.3999 192.43 19.647C192.694 19.8899 192.826 20.1861 192.826 20.5355C192.826 20.8807 192.694 21.1768 192.43 21.424C192.17 21.6669 191.855 21.7884 191.484 21.7884ZM197.328 27.2472V33H195.014V23.1818H197.226V24.8501H197.341C197.567 24.3004 197.927 23.8636 198.421 23.5398C198.92 23.2159 199.535 23.054 200.268 23.054C200.946 23.054 201.536 23.1989 202.039 23.4886C202.546 23.7784 202.938 24.1982 203.215 24.7479C203.496 25.2976 203.635 25.9645 203.631 26.7486V33H201.317V27.1065C201.317 26.4503 201.146 25.9368 200.805 25.5661C200.469 25.1953 200.002 25.0099 199.405 25.0099C199.001 25.0099 198.641 25.0994 198.325 25.2784C198.014 25.4531 197.769 25.7067 197.59 26.0391C197.415 26.3714 197.328 26.7741 197.328 27.2472ZM205.983 33V23.1818H208.297V33H205.983ZM207.146 21.7884C206.78 21.7884 206.464 21.6669 206.2 21.424C205.936 21.1768 205.804 20.8807 205.804 20.5355C205.804 20.1861 205.936 19.8899 206.2 19.647C206.464 19.3999 206.78 19.2763 207.146 19.2763C207.517 19.2763 207.832 19.3999 208.092 19.647C208.356 19.8899 208.489 20.1861 208.489 20.5355C208.489 20.8807 208.356 21.1768 208.092 21.424C207.832 21.6669 207.517 21.7884 207.146 21.7884ZM218.436 25.777L216.327 26.0071C216.267 25.794 216.163 25.5938 216.014 25.4062C215.869 25.2188 215.673 25.0675 215.426 24.9524C215.178 24.8374 214.876 24.7798 214.518 24.7798C214.036 24.7798 213.631 24.8842 213.303 25.093C212.979 25.3018 212.82 25.5724 212.824 25.9048C212.82 26.1903 212.924 26.4226 213.137 26.6016C213.354 26.7805 213.712 26.9276 214.211 27.0426L215.886 27.4006C216.815 27.6009 217.505 27.9183 217.957 28.353C218.413 28.7876 218.643 29.3565 218.647 30.0597C218.643 30.6776 218.462 31.223 218.104 31.696C217.75 32.1648 217.258 32.5312 216.627 32.7955C215.997 33.0597 215.272 33.1918 214.454 33.1918C213.252 33.1918 212.285 32.9403 211.552 32.4375C210.819 31.9304 210.382 31.2251 210.242 30.3217L212.498 30.1044C212.6 30.5476 212.818 30.8821 213.15 31.108C213.482 31.3338 213.915 31.4467 214.448 31.4467C214.997 31.4467 215.438 31.3338 215.771 31.108C216.107 30.8821 216.276 30.603 216.276 30.2706C216.276 29.9893 216.167 29.7571 215.95 29.5739C215.737 29.3906 215.404 29.25 214.953 29.152L213.278 28.8004C212.336 28.6044 211.639 28.2741 211.188 27.8097C210.736 27.3409 210.512 26.7486 210.516 26.0327C210.512 25.4276 210.676 24.9034 211.009 24.4602C211.345 24.0128 211.812 23.6676 212.408 23.4247C213.009 23.1776 213.702 23.054 214.486 23.054C215.636 23.054 216.542 23.299 217.203 23.7891C217.867 24.2791 218.278 24.9418 218.436 25.777ZM222.869 27.2472V33H220.555V19.9091H222.818V24.8501H222.933C223.163 24.2962 223.519 23.8594 224 23.5398C224.486 23.2159 225.104 23.054 225.854 23.054C226.536 23.054 227.13 23.1967 227.638 23.4822C228.145 23.7678 228.537 24.1854 228.814 24.7351C229.095 25.2848 229.236 25.956 229.236 26.7486V33H226.922V27.1065C226.922 26.446 226.751 25.9325 226.41 25.5661C226.074 25.1953 225.601 25.0099 224.991 25.0099C224.582 25.0099 224.216 25.0994 223.892 25.2784C223.572 25.4531 223.321 25.7067 223.138 26.0391C222.959 26.3714 222.869 26.7741 222.869 27.2472ZM239.971 33.1918C239.076 33.1918 238.307 33.0298 237.663 32.706C237.02 32.3821 236.524 31.9453 236.174 31.3956C235.829 30.8416 235.656 30.2173 235.656 29.5227C235.656 28.9986 235.763 28.5341 235.976 28.1293C236.193 27.7244 236.492 27.3494 236.871 27.0043C237.254 26.6591 237.698 26.3161 238.2 25.9751L240.521 24.3963C240.862 24.1747 241.119 23.9403 241.294 23.6932C241.473 23.446 241.563 23.1562 241.563 22.8239C241.563 22.5426 241.443 22.2763 241.205 22.0249C240.97 21.7734 240.646 21.6477 240.233 21.6477C239.956 21.6477 239.711 21.7138 239.498 21.8459C239.289 21.9737 239.125 22.142 239.006 22.3509C238.891 22.5597 238.833 22.7812 238.833 23.0156C238.833 23.3011 238.912 23.5909 239.07 23.8849C239.232 24.179 239.44 24.4837 239.696 24.799C239.956 25.1143 240.233 25.4489 240.527 25.8026L246.67 33H244.164L239.063 27.1577C238.684 26.7145 238.318 26.2777 237.964 25.8473C237.614 25.4169 237.327 24.9695 237.101 24.505C236.879 24.0362 236.769 23.5291 236.769 22.9837C236.769 22.3658 236.911 21.8139 237.197 21.3281C237.482 20.8381 237.881 20.4524 238.392 20.1712C238.908 19.8899 239.511 19.7493 240.201 19.7493C240.891 19.7493 241.484 19.8857 241.978 20.1584C242.472 20.4311 242.854 20.7933 243.122 21.245C243.391 21.6967 243.525 22.1889 243.525 22.7216C243.525 23.3395 243.372 23.8935 243.065 24.3835C242.758 24.8693 242.332 25.3104 241.786 25.7067L239.14 27.6435C238.705 27.9588 238.394 28.2784 238.207 28.6023C238.019 28.9219 237.926 29.1946 237.926 29.4205C237.926 29.7656 238.013 30.0788 238.188 30.3601C238.362 30.6413 238.607 30.8672 238.923 31.0376C239.242 31.2038 239.615 31.2869 240.041 31.2869C240.51 31.2869 240.972 31.1825 241.428 30.9737C241.884 30.7607 242.3 30.4581 242.675 30.0661C243.05 29.674 243.348 29.2053 243.57 28.6598C243.791 28.1101 243.902 27.5007 243.902 26.8317H245.89C245.89 27.6584 245.798 28.3786 245.615 28.9922C245.432 29.6016 245.195 30.1172 244.906 30.5391C244.616 30.9567 244.309 31.2912 243.985 31.5426C243.883 31.6151 243.785 31.6875 243.691 31.7599C243.597 31.8324 243.499 31.9048 243.397 31.9773C242.937 32.3949 242.398 32.7017 241.78 32.8977C241.166 33.0938 240.563 33.1918 239.971 33.1918ZM261.332 24.0895C261.225 23.7443 261.078 23.4354 260.891 23.1626C260.707 22.8857 260.486 22.6491 260.226 22.4531C259.97 22.2571 259.676 22.1101 259.344 22.0121C259.011 21.9098 258.649 21.8587 258.257 21.8587C257.554 21.8587 256.927 22.0355 256.378 22.3892C255.828 22.7429 255.396 23.2628 255.08 23.9489C254.769 24.6307 254.614 25.4616 254.614 26.4418C254.614 27.4304 254.769 28.2678 255.08 28.9538C255.391 29.6399 255.824 30.1619 256.378 30.5199C256.932 30.8736 257.575 31.0504 258.308 31.0504C258.973 31.0504 259.548 30.9226 260.034 30.6669C260.524 30.4112 260.901 30.049 261.165 29.5803C261.43 29.1072 261.562 28.5533 261.562 27.9183L262.099 28.0014H258.545V26.1477H263.856V27.7202C263.856 28.8409 263.618 29.8104 263.141 30.6286C262.663 31.4467 262.007 32.0774 261.172 32.5206C260.337 32.9595 259.378 33.179 258.295 33.179C257.089 33.179 256.03 32.9084 255.119 32.3672C254.211 31.8217 253.501 31.0483 252.99 30.0469C252.483 29.0412 252.229 27.848 252.229 26.4673C252.229 25.4105 252.378 24.4666 252.677 23.6357C252.979 22.8047 253.401 22.0994 253.942 21.5199C254.484 20.9361 255.119 20.4929 255.847 20.1903C256.576 19.8835 257.369 19.7301 258.225 19.7301C258.949 19.7301 259.625 19.8366 260.251 20.0497C260.878 20.2585 261.434 20.5568 261.92 20.9446C262.41 21.3324 262.812 21.7926 263.128 22.3253C263.443 22.858 263.65 23.446 263.748 24.0895H261.332ZM270.33 33.1918C269.371 33.1918 268.54 32.9808 267.837 32.5589C267.134 32.1371 266.589 31.5469 266.201 30.7884C265.817 30.0298 265.625 29.1435 265.625 28.1293C265.625 27.1151 265.817 26.2266 266.201 25.4638C266.589 24.701 267.134 24.1087 267.837 23.6868C268.54 23.2649 269.371 23.054 270.33 23.054C271.289 23.054 272.12 23.2649 272.823 23.6868C273.526 24.1087 274.069 24.701 274.453 25.4638C274.841 26.2266 275.035 27.1151 275.035 28.1293C275.035 29.1435 274.841 30.0298 274.453 30.7884C274.069 31.5469 273.526 32.1371 272.823 32.5589C272.12 32.9808 271.289 33.1918 270.33 33.1918ZM270.343 31.3381C270.863 31.3381 271.297 31.1953 271.647 30.9098C271.996 30.62 272.256 30.2322 272.427 29.7464C272.601 29.2607 272.689 28.7195 272.689 28.1229C272.689 27.522 272.601 26.9787 272.427 26.4929C272.256 26.0028 271.996 25.6129 271.647 25.3232C271.297 25.0334 270.863 24.8885 270.343 24.8885C269.81 24.8885 269.367 25.0334 269.013 25.3232C268.664 25.6129 268.402 26.0028 268.227 26.4929C268.057 26.9787 267.971 27.522 267.971 28.1229C267.971 28.7195 268.057 29.2607 268.227 29.7464C268.402 30.2322 268.664 30.62 269.013 30.9098C269.367 31.1953 269.81 31.3381 270.343 31.3381ZM286.366 23.1818V24.9716H280.722V23.1818H286.366ZM282.115 20.8295H284.429V30.0469C284.429 30.358 284.476 30.5966 284.57 30.7628C284.668 30.9247 284.796 31.0355 284.953 31.0952C285.111 31.1548 285.286 31.1847 285.478 31.1847C285.622 31.1847 285.755 31.174 285.874 31.1527C285.997 31.1314 286.091 31.1122 286.155 31.0952L286.545 32.9041C286.421 32.9467 286.245 32.9936 286.014 33.0447C285.789 33.0959 285.512 33.1257 285.184 33.1342C284.604 33.1513 284.082 33.0639 283.617 32.8722C283.153 32.6761 282.784 32.3736 282.512 31.9645C282.243 31.5554 282.111 31.044 282.115 30.4304V20.8295ZM292.478 33.1918C291.52 33.1918 290.689 32.9808 289.986 32.5589C289.282 32.1371 288.737 31.5469 288.349 30.7884C287.966 30.0298 287.774 29.1435 287.774 28.1293C287.774 27.1151 287.966 26.2266 288.349 25.4638C288.737 24.701 289.282 24.1087 289.986 23.6868C290.689 23.2649 291.52 23.054 292.478 23.054C293.437 23.054 294.268 23.2649 294.971 23.6868C295.674 24.1087 296.218 24.701 296.601 25.4638C296.989 26.2266 297.183 27.1151 297.183 28.1293C297.183 29.1435 296.989 30.0298 296.601 30.7884C296.218 31.5469 295.674 32.1371 294.971 32.5589C294.268 32.9808 293.437 33.1918 292.478 33.1918ZM292.491 31.3381C293.011 31.3381 293.446 31.1953 293.795 30.9098C294.145 30.62 294.405 30.2322 294.575 29.7464C294.75 29.2607 294.837 28.7195 294.837 28.1229C294.837 27.522 294.75 26.9787 294.575 26.4929C294.405 26.0028 294.145 25.6129 293.795 25.3232C293.446 25.0334 293.011 24.8885 292.491 24.8885C291.959 24.8885 291.515 25.0334 291.162 25.3232C290.812 25.6129 290.55 26.0028 290.375 26.4929C290.205 26.9787 290.12 27.522 290.12 28.1229C290.12 28.7195 290.205 29.2607 290.375 29.7464C290.55 30.2322 290.812 30.62 291.162 30.9098C291.515 31.1953 291.959 31.3381 292.491 31.3381ZM308.15 33H303.714V19.9091H308.24C309.539 19.9091 310.656 20.1712 311.589 20.6953C312.527 21.2152 313.247 21.9631 313.75 22.9389C314.252 23.9148 314.504 25.0824 314.504 26.4418C314.504 27.8054 314.25 28.9773 313.743 29.9574C313.24 30.9375 312.514 31.6896 311.563 32.2138C310.617 32.7379 309.48 33 308.15 33ZM306.085 30.9482H308.035C308.947 30.9482 309.708 30.782 310.317 30.4496C310.926 30.1129 311.384 29.6122 311.691 28.9474C311.998 28.2784 312.152 27.4432 312.152 26.4418C312.152 25.4403 311.998 24.6094 311.691 23.9489C311.384 23.2841 310.931 22.7876 310.33 22.4595C309.733 22.1271 308.992 21.9609 308.105 21.9609H306.085V30.9482ZM319.48 33.1982C318.858 33.1982 318.297 33.0874 317.799 32.8658C317.305 32.6399 316.913 32.3075 316.623 31.8686C316.337 31.4297 316.195 30.8885 316.195 30.245C316.195 29.6911 316.297 29.233 316.501 28.8707C316.706 28.5085 316.985 28.2188 317.339 28.0014C317.692 27.7841 318.091 27.62 318.534 27.5092C318.981 27.3942 319.444 27.3111 319.921 27.2599C320.496 27.2003 320.963 27.147 321.321 27.1001C321.679 27.049 321.939 26.9723 322.101 26.87C322.267 26.7635 322.35 26.5994 322.35 26.3778V26.3395C322.35 25.858 322.207 25.4851 321.922 25.2209C321.636 24.9567 321.225 24.8246 320.688 24.8246C320.121 24.8246 319.672 24.9482 319.339 25.1953C319.011 25.4425 318.79 25.7344 318.675 26.071L316.514 25.7642C316.685 25.1676 316.966 24.669 317.358 24.2685C317.75 23.8636 318.229 23.5611 318.796 23.3608C319.363 23.1562 319.989 23.054 320.675 23.054C321.148 23.054 321.619 23.1094 322.088 23.2202C322.557 23.331 322.985 23.5142 323.373 23.7699C323.761 24.0213 324.072 24.3643 324.306 24.799C324.545 25.2337 324.664 25.777 324.664 26.429V33H322.44V31.6513H322.363C322.222 31.924 322.024 32.1797 321.768 32.4183C321.517 32.6527 321.199 32.8423 320.816 32.9872C320.437 33.1278 319.991 33.1982 319.48 33.1982ZM320.081 31.4979C320.545 31.4979 320.948 31.4062 321.289 31.223C321.63 31.0355 321.892 30.7884 322.075 30.4815C322.263 30.1747 322.356 29.8402 322.356 29.478V28.321C322.284 28.3807 322.16 28.4361 321.986 28.4872C321.815 28.5384 321.623 28.5831 321.41 28.6214C321.197 28.6598 320.986 28.6939 320.778 28.7237C320.569 28.7536 320.388 28.7791 320.234 28.8004C319.889 28.8473 319.58 28.924 319.307 29.0305C319.035 29.1371 318.82 29.2862 318.662 29.478C318.504 29.6655 318.425 29.9084 318.425 30.2067C318.425 30.6328 318.581 30.9545 318.892 31.1719C319.203 31.3892 319.599 31.4979 320.081 31.4979ZM334.751 25.777L332.641 26.0071C332.582 25.794 332.477 25.5938 332.328 25.4062C332.183 25.2188 331.987 25.0675 331.74 24.9524C331.493 24.8374 331.19 24.7798 330.832 24.7798C330.351 24.7798 329.946 24.8842 329.618 25.093C329.294 25.3018 329.134 25.5724 329.138 25.9048C329.134 26.1903 329.239 26.4226 329.452 26.6016C329.669 26.7805 330.027 26.9276 330.525 27.0426L332.2 27.4006C333.129 27.6009 333.82 27.9183 334.271 28.353C334.727 28.7876 334.957 29.3565 334.962 30.0597C334.957 30.6776 334.776 31.223 334.418 31.696C334.065 32.1648 333.572 32.5312 332.942 32.7955C332.311 33.0597 331.587 33.1918 330.768 33.1918C329.567 33.1918 328.599 32.9403 327.866 32.4375C327.133 31.9304 326.697 31.2251 326.556 30.3217L328.812 30.1044C328.915 30.5476 329.132 30.8821 329.464 31.108C329.797 31.3338 330.229 31.4467 330.762 31.4467C331.312 31.4467 331.753 31.3338 332.085 31.108C332.422 30.8821 332.59 30.603 332.59 30.2706C332.59 29.9893 332.481 29.7571 332.264 29.5739C332.051 29.3906 331.719 29.25 331.267 29.152L329.592 28.8004C328.65 28.6044 327.954 28.2741 327.502 27.8097C327.05 27.3409 326.827 26.7486 326.831 26.0327C326.827 25.4276 326.991 24.9034 327.323 24.4602C327.66 24.0128 328.126 23.6676 328.723 23.4247C329.324 23.1776 330.016 23.054 330.8 23.054C331.951 23.054 332.856 23.299 333.517 23.7891C334.182 24.2791 334.593 24.9418 334.751 25.777ZM339.184 27.2472V33H336.87V19.9091H339.132V24.8501H339.247C339.478 24.2962 339.833 23.8594 340.315 23.5398C340.801 23.2159 341.419 23.054 342.169 23.054C342.85 23.054 343.445 23.1967 343.952 23.4822C344.459 23.7678 344.851 24.1854 345.128 24.7351C345.409 25.2848 345.55 25.956 345.55 26.7486V33H343.236V27.1065C343.236 26.446 343.066 25.9325 342.725 25.5661C342.388 25.1953 341.915 25.0099 341.306 25.0099C340.897 25.0099 340.53 25.0994 340.206 25.2784C339.887 25.4531 339.635 25.7067 339.452 26.0391C339.273 26.3714 339.184 26.7741 339.184 27.2472ZM348.011 33V19.9091H350.325V24.8054H350.421C350.54 24.5668 350.708 24.3132 350.926 24.0447C351.143 23.772 351.437 23.5398 351.808 23.348C352.179 23.152 352.652 23.054 353.227 23.054C353.985 23.054 354.669 23.2479 355.279 23.6357C355.892 24.0192 356.378 24.5881 356.736 25.3423C357.098 26.0923 357.279 27.0128 357.279 28.1037C357.279 29.1818 357.103 30.098 356.749 30.8523C356.395 31.6065 355.914 32.1818 355.304 32.5781C354.695 32.9744 354.005 33.1726 353.233 33.1726C352.671 33.1726 352.204 33.0788 351.833 32.8913C351.463 32.7038 351.164 32.478 350.938 32.2138C350.717 31.9453 350.544 31.6918 350.421 31.4531H350.286V33H348.011ZM350.28 28.0909C350.28 28.7259 350.37 29.282 350.549 29.7592C350.732 30.2365 350.994 30.6094 351.335 30.8778C351.68 31.142 352.098 31.2741 352.588 31.2741C353.099 31.2741 353.527 31.1378 353.872 30.8651C354.218 30.5881 354.478 30.2109 354.652 29.7337C354.831 29.2521 354.921 28.7045 354.921 28.0909C354.921 27.4815 354.833 26.9403 354.659 26.4673C354.484 25.9943 354.224 25.6236 353.879 25.3551C353.534 25.0866 353.103 24.9524 352.588 24.9524C352.093 24.9524 351.674 25.0824 351.328 25.3423C350.983 25.6023 350.721 25.9666 350.542 26.4354C350.367 26.9041 350.28 27.456 350.28 28.0909ZM363.529 33.1918C362.57 33.1918 361.739 32.9808 361.036 32.5589C360.333 32.1371 359.788 31.5469 359.4 30.7884C359.016 30.0298 358.825 29.1435 358.825 28.1293C358.825 27.1151 359.016 26.2266 359.4 25.4638C359.788 24.701 360.333 24.1087 361.036 23.6868C361.739 23.2649 362.57 23.054 363.529 23.054C364.488 23.054 365.319 23.2649 366.022 23.6868C366.725 24.1087 367.269 24.701 367.652 25.4638C368.04 26.2266 368.234 27.1151 368.234 28.1293C368.234 29.1435 368.04 30.0298 367.652 30.7884C367.269 31.5469 366.725 32.1371 366.022 32.5589C365.319 32.9808 364.488 33.1918 363.529 33.1918ZM363.542 31.3381C364.062 31.3381 364.497 31.1953 364.846 30.9098C365.195 30.62 365.455 30.2322 365.626 29.7464C365.801 29.2607 365.888 28.7195 365.888 28.1229C365.888 27.522 365.801 26.9787 365.626 26.4929C365.455 26.0028 365.195 25.6129 364.846 25.3232C364.497 25.0334 364.062 24.8885 363.542 24.8885C363.009 24.8885 362.566 25.0334 362.212 25.3232C361.863 25.6129 361.601 26.0028 361.426 26.4929C361.256 26.9787 361.171 27.522 361.171 28.1229C361.171 28.7195 361.256 29.2607 361.426 29.7464C361.601 30.2322 361.863 30.62 362.212 30.9098C362.566 31.1953 363.009 31.3381 363.542 31.3381ZM373.023 33.1982C372.401 33.1982 371.84 33.0874 371.342 32.8658C370.848 32.6399 370.456 32.3075 370.166 31.8686C369.88 31.4297 369.737 30.8885 369.737 30.245C369.737 29.6911 369.84 29.233 370.044 28.8707C370.249 28.5085 370.528 28.2188 370.882 28.0014C371.235 27.7841 371.634 27.62 372.077 27.5092C372.524 27.3942 372.987 27.3111 373.464 27.2599C374.039 27.2003 374.506 27.147 374.864 27.1001C375.222 27.049 375.482 26.9723 375.644 26.87C375.81 26.7635 375.893 26.5994 375.893 26.3778V26.3395C375.893 25.858 375.75 25.4851 375.465 25.2209C375.179 24.9567 374.768 24.8246 374.231 24.8246C373.664 24.8246 373.215 24.9482 372.882 25.1953C372.554 25.4425 372.333 25.7344 372.218 26.071L370.057 25.7642C370.228 25.1676 370.509 24.669 370.901 24.2685C371.293 23.8636 371.772 23.5611 372.339 23.3608C372.906 23.1562 373.532 23.054 374.218 23.054C374.691 23.054 375.162 23.1094 375.631 23.2202C376.1 23.331 376.528 23.5142 376.916 23.7699C377.304 24.0213 377.615 24.3643 377.849 24.799C378.088 25.2337 378.207 25.777 378.207 26.429V33H375.983V31.6513H375.906C375.765 31.924 375.567 32.1797 375.311 32.4183C375.06 32.6527 374.742 32.8423 374.359 32.9872C373.98 33.1278 373.534 33.1982 373.023 33.1982ZM373.624 31.4979C374.088 31.4979 374.491 31.4062 374.832 31.223C375.173 31.0355 375.435 30.7884 375.618 30.4815C375.806 30.1747 375.899 29.8402 375.899 29.478V28.321C375.827 28.3807 375.703 28.4361 375.529 28.4872C375.358 28.5384 375.166 28.5831 374.953 28.6214C374.74 28.6598 374.529 28.6939 374.321 28.7237C374.112 28.7536 373.931 28.7791 373.777 28.8004C373.432 28.8473 373.123 28.924 372.85 29.0305C372.578 29.1371 372.362 29.2862 372.205 29.478C372.047 29.6655 371.968 29.9084 371.968 30.2067C371.968 30.6328 372.124 30.9545 372.435 31.1719C372.746 31.3892 373.142 31.4979 373.624 31.4979ZM380.534 33V23.1818H382.777V24.8182H382.88C383.059 24.2514 383.365 23.8146 383.8 23.5078C384.239 23.1967 384.74 23.0412 385.302 23.0412C385.43 23.0412 385.573 23.0476 385.73 23.0604C385.892 23.0689 386.027 23.0838 386.133 23.1051V25.2337C386.035 25.1996 385.88 25.1697 385.666 25.1442C385.458 25.1143 385.255 25.0994 385.059 25.0994C384.637 25.0994 384.258 25.1911 383.921 25.3743C383.589 25.5533 383.327 25.8026 383.135 26.1222C382.943 26.4418 382.848 26.8104 382.848 27.228V33H380.534ZM390.91 33.1726C390.138 33.1726 389.448 32.9744 388.839 32.5781C388.229 32.1818 387.748 31.6065 387.394 30.8523C387.04 30.098 386.863 29.1818 386.863 28.1037C386.863 27.0128 387.042 26.0923 387.4 25.3423C387.763 24.5881 388.25 24.0192 388.864 23.6357C389.478 23.2479 390.162 23.054 390.916 23.054C391.491 23.054 391.964 23.152 392.335 23.348C392.706 23.5398 393 23.772 393.217 24.0447C393.434 24.3132 393.603 24.5668 393.722 24.8054H393.818V19.9091H396.138V33H393.863V31.4531H393.722C393.603 31.6918 393.43 31.9453 393.204 32.2138C392.978 32.478 392.68 32.7038 392.309 32.8913C391.939 33.0788 391.472 33.1726 390.91 33.1726ZM391.555 31.2741C392.045 31.2741 392.463 31.142 392.808 30.8778C393.153 30.6094 393.415 30.2365 393.594 29.7592C393.773 29.282 393.863 28.7259 393.863 28.0909C393.863 27.456 393.773 26.9041 393.594 26.4354C393.419 25.9666 393.16 25.6023 392.814 25.3423C392.473 25.0824 392.054 24.9524 391.555 24.9524C391.04 24.9524 390.609 25.0866 390.264 25.3551C389.919 25.6236 389.659 25.9943 389.484 26.4673C389.309 26.9403 389.222 27.4815 389.222 28.0909C389.222 28.7045 389.309 29.2521 389.484 29.7337C389.663 30.2109 389.925 30.5881 390.27 30.8651C390.62 31.1378 391.048 31.2741 391.555 31.2741Z" fill="white"/>
</svg>
