<svg width="198" height="47" viewBox="0 0 198 47" fill="none" xmlns="http://www.w3.org/2000/svg">
<rect x="0.5" y="0.5" width="197" height="46" rx="9.5" fill="#6366F1"/>
<rect x="0.5" y="0.5" width="197" height="46" rx="9.5" stroke="#6366F1"/>
<path d="M44.7143 24.0348C44.6182 23.7332 44.4889 23.4631 44.3265 23.2244C44.1674 22.9825 43.9769 22.777 43.7548 22.608C43.5327 22.4356 43.2792 22.3047 42.9941 22.2152C42.7124 22.1257 42.4025 22.081 42.0645 22.081C41.4911 22.081 40.974 22.2285 40.5133 22.5234C40.0526 22.8184 39.688 23.2509 39.4196 23.821C39.1544 24.3878 39.0218 25.0821 39.0218 25.9041C39.0218 26.7294 39.1561 27.4271 39.4245 27.9972C39.693 28.5672 40.0609 28.9998 40.5282 29.2947C40.9956 29.5897 41.5275 29.7372 42.1241 29.7372C42.6776 29.7372 43.1599 29.6245 43.5708 29.3991C43.9851 29.1738 44.305 28.8556 44.5304 28.4446C44.7591 28.0303 44.8734 27.5431 44.8734 26.983L45.2711 27.0575H42.3578V25.7898H46.3599V26.9482C46.3599 27.8033 46.1776 28.5457 45.813 29.1754C45.4518 29.8018 44.9513 30.2857 44.3116 30.6271C43.6752 30.9685 42.9461 31.1392 42.1241 31.1392C41.2027 31.1392 40.394 30.9271 39.698 30.5028C39.0053 30.0786 38.465 29.477 38.0772 28.6982C37.6895 27.916 37.4956 26.9879 37.4956 25.9141C37.4956 25.102 37.6083 24.3729 37.8336 23.7266C38.059 23.0803 38.3755 22.5317 38.7832 22.081C39.1942 21.6269 39.6764 21.2805 40.2299 21.0419C40.7868 20.8 41.3949 20.679 42.0545 20.679C42.6047 20.679 43.1168 20.7602 43.5907 20.9226C44.068 21.085 44.4922 21.3153 44.8635 21.6136C45.238 21.9119 45.5479 22.2666 45.7931 22.6776C46.0384 23.0852 46.2041 23.5376 46.2903 24.0348H44.7143ZM51.4819 31.1541C50.7295 31.1541 50.0816 30.9934 49.538 30.6719C48.9978 30.3471 48.5801 29.8913 48.2852 29.3047C47.9935 28.7147 47.8477 28.0237 47.8477 27.2315C47.8477 26.4493 47.9935 25.7599 48.2852 25.1634C48.5801 24.5668 48.9911 24.1011 49.5181 23.7663C50.0484 23.4316 50.6682 23.2642 51.3775 23.2642C51.8084 23.2642 52.226 23.3355 52.6303 23.478C53.0347 23.6205 53.3976 23.8442 53.7191 24.1491C54.0406 24.4541 54.2942 24.8501 54.4798 25.3374C54.6654 25.8213 54.7582 26.4096 54.7582 27.1023V27.6293H48.6879V26.5156H53.3015C53.3015 26.1245 53.2219 25.7782 53.0629 25.4766C52.9038 25.1716 52.68 24.9313 52.3917 24.7557C52.1067 24.58 51.7719 24.4922 51.3874 24.4922C50.9698 24.4922 50.6052 24.5949 50.2937 24.8004C49.9854 25.0026 49.7468 25.2678 49.5778 25.5959C49.4121 25.9207 49.3292 26.2737 49.3292 26.6548V27.5249C49.3292 28.0353 49.4187 28.4695 49.5977 28.8274C49.7799 29.1854 50.0335 29.4588 50.3583 29.6477C50.6831 29.8333 51.0626 29.9261 51.4968 29.9261C51.7785 29.9261 52.0354 29.8864 52.2674 29.8068C52.4994 29.724 52.6999 29.6013 52.869 29.4389C53.038 29.2765 53.1673 29.076 53.2567 28.8374L54.6637 29.0909C54.551 29.5052 54.3488 29.8681 54.0572 30.1797C53.7688 30.4879 53.4059 30.7282 52.9684 30.9006C52.5342 31.0696 52.0387 31.1541 51.4819 31.1541ZM57.894 26.4659V31H56.4075V23.3636H57.8343V24.6065H57.9288C58.1045 24.2022 58.3796 23.8774 58.7541 23.6321C59.1319 23.3868 59.6075 23.2642 60.1809 23.2642C60.7013 23.2642 61.157 23.3736 61.5481 23.5923C61.9392 23.8078 62.2425 24.1293 62.4579 24.5568C62.6734 24.9844 62.7811 25.513 62.7811 26.1428V31H61.2946V26.3217C61.2946 25.7682 61.1504 25.3357 60.862 25.0241C60.5737 24.7093 60.1776 24.5518 59.6738 24.5518C59.3291 24.5518 59.0225 24.6264 58.7541 24.7756C58.4889 24.9247 58.2785 25.1435 58.1227 25.4318C57.9702 25.7169 57.894 26.0616 57.894 26.4659ZM68.0659 31.1541C67.3135 31.1541 66.6655 30.9934 66.122 30.6719C65.5817 30.3471 65.1641 29.8913 64.8691 29.3047C64.5775 28.7147 64.4316 28.0237 64.4316 27.2315C64.4316 26.4493 64.5775 25.7599 64.8691 25.1634C65.1641 24.5668 65.5751 24.1011 66.1021 23.7663C66.6324 23.4316 67.2522 23.2642 67.9615 23.2642C68.3923 23.2642 68.81 23.3355 69.2143 23.478C69.6187 23.6205 69.9816 23.8442 70.3031 24.1491C70.6246 24.4541 70.8781 24.8501 71.0637 25.3374C71.2493 25.8213 71.3422 26.4096 71.3422 27.1023V27.6293H65.2718V26.5156H69.8855C69.8855 26.1245 69.8059 25.7782 69.6468 25.4766C69.4877 25.1716 69.264 24.9313 68.9757 24.7557C68.6906 24.58 68.3559 24.4922 67.9714 24.4922C67.5538 24.4922 67.1892 24.5949 66.8777 24.8004C66.5694 25.0026 66.3308 25.2678 66.1618 25.5959C65.996 25.9207 65.9132 26.2737 65.9132 26.6548V27.5249C65.9132 28.0353 66.0027 28.4695 66.1816 28.8274C66.3639 29.1854 66.6175 29.4588 66.9423 29.6477C67.2671 29.8333 67.6466 29.9261 68.0808 29.9261C68.3625 29.9261 68.6194 29.8864 68.8514 29.8068C69.0834 29.724 69.2839 29.6013 69.4529 29.4389C69.622 29.2765 69.7512 29.076 69.8407 28.8374L71.2477 29.0909C71.135 29.5052 70.9328 29.8681 70.6412 30.1797C70.3528 30.4879 69.9899 30.7282 69.5524 30.9006C69.1182 31.0696 68.6227 31.1541 68.0659 31.1541ZM72.9915 31V23.3636H74.4283V24.5767H74.5078C74.647 24.1657 74.8923 23.8426 75.2436 23.6072C75.5982 23.3686 75.9993 23.2493 76.4467 23.2493C76.5395 23.2493 76.6489 23.2526 76.7749 23.2592C76.9041 23.2659 77.0052 23.2741 77.0781 23.2841V24.706C77.0185 24.6894 76.9124 24.6712 76.7599 24.6513C76.6075 24.6281 76.455 24.6165 76.3026 24.6165C75.9512 24.6165 75.638 24.6911 75.3629 24.8402C75.0911 24.986 74.8757 25.1899 74.7166 25.4517C74.5575 25.7102 74.478 26.0052 74.478 26.3366V31H72.9915ZM80.5185 31.169C80.0346 31.169 79.5971 31.0795 79.206 30.9006C78.8149 30.7183 78.505 30.4548 78.2763 30.1101C78.0509 29.7654 77.9382 29.3428 77.9382 28.8423C77.9382 28.4115 78.0211 28.0568 78.1868 27.7784C78.3525 27.5 78.5762 27.2796 78.858 27.1172C79.1397 26.9548 79.4545 26.8321 79.8026 26.7493C80.1506 26.6664 80.5052 26.6035 80.8665 26.5604C81.3239 26.5073 81.6951 26.4643 81.9801 26.4311C82.2652 26.3946 82.4723 26.3366 82.6016 26.2571C82.7308 26.1776 82.7955 26.0483 82.7955 25.8693V25.8345C82.7955 25.4003 82.6728 25.0639 82.4276 24.8253C82.1856 24.5866 81.8243 24.4673 81.3438 24.4673C80.8433 24.4673 80.4489 24.5784 80.1605 24.8004C79.8755 25.0192 79.6783 25.2628 79.5689 25.5312L78.1719 25.2131C78.3376 24.7491 78.5795 24.3745 78.8977 24.0895C79.2192 23.8011 79.5888 23.5923 80.0064 23.4631C80.424 23.3305 80.8632 23.2642 81.3239 23.2642C81.6288 23.2642 81.9519 23.3007 82.2933 23.3736C82.638 23.4432 82.9595 23.5724 83.2578 23.7614C83.5594 23.9503 83.8063 24.2204 83.9986 24.5717C84.1908 24.9197 84.2869 25.3722 84.2869 25.929V31H82.8352V29.956H82.7756C82.6795 30.1482 82.5353 30.3371 82.343 30.5227C82.1508 30.7083 81.9039 30.8625 81.6023 30.9851C81.3007 31.1077 80.9394 31.169 80.5185 31.169ZM80.8416 29.9759C81.2526 29.9759 81.6039 29.8946 81.8956 29.7322C82.1906 29.5698 82.4143 29.3577 82.5668 29.0959C82.7225 28.8307 82.8004 28.5473 82.8004 28.2457V27.2614C82.7474 27.3144 82.6446 27.3641 82.4922 27.4105C82.343 27.4536 82.1723 27.4917 81.9801 27.5249C81.7879 27.5547 81.6006 27.5829 81.4183 27.6094C81.236 27.6326 81.0836 27.6525 80.9609 27.669C80.6726 27.7055 80.4091 27.7668 80.1705 27.853C79.9351 27.9392 79.7462 28.0634 79.6037 28.2259C79.4645 28.3849 79.3949 28.5971 79.3949 28.8622C79.3949 29.2301 79.5308 29.5085 79.8026 29.6974C80.0743 29.883 80.4207 29.9759 80.8416 29.9759ZM89.8315 23.3636V24.5568H85.6603V23.3636H89.8315ZM86.7789 21.5341H88.2654V28.7578C88.2654 29.0462 88.3085 29.2633 88.3947 29.4091C88.4809 29.5516 88.5919 29.6494 88.7278 29.7024C88.867 29.7521 89.0178 29.777 89.1802 29.777C89.2995 29.777 89.4039 29.7687 89.4934 29.7521C89.5829 29.7356 89.6525 29.7223 89.7022 29.7124L89.9707 30.9403C89.8845 30.9735 89.7619 31.0066 89.6028 31.0398C89.4437 31.0762 89.2449 31.0961 89.0062 31.0994C88.6151 31.1061 88.2505 31.0365 87.9125 30.8906C87.5744 30.7448 87.301 30.5194 87.0922 30.2145C86.8833 29.9096 86.7789 29.5268 86.7789 29.0661V21.5341ZM94.685 31.1541C93.9326 31.1541 93.2847 30.9934 92.7411 30.6719C92.2009 30.3471 91.7833 29.8913 91.4883 29.3047C91.1966 28.7147 91.0508 28.0237 91.0508 27.2315C91.0508 26.4493 91.1966 25.7599 91.4883 25.1634C91.7833 24.5668 92.1942 24.1011 92.7212 23.7663C93.2515 23.4316 93.8713 23.2642 94.5806 23.2642C95.0115 23.2642 95.4291 23.3355 95.8335 23.478C96.2378 23.6205 96.6007 23.8442 96.9222 24.1491C97.2437 24.4541 97.4973 24.8501 97.6829 25.3374C97.8685 25.8213 97.9613 26.4096 97.9613 27.1023V27.6293H91.891V26.5156H96.5046C96.5046 26.1245 96.4251 25.7782 96.266 25.4766C96.1069 25.1716 95.8832 24.9313 95.5948 24.7557C95.3098 24.58 94.975 24.4922 94.5906 24.4922C94.1729 24.4922 93.8084 24.5949 93.4968 24.8004C93.1886 25.0026 92.9499 25.2678 92.7809 25.5959C92.6152 25.9207 92.5323 26.2737 92.5323 26.6548V27.5249C92.5323 28.0353 92.6218 28.4695 92.8008 28.8274C92.9831 29.1854 93.2366 29.4588 93.5614 29.6477C93.8862 29.8333 94.2657 29.9261 94.6999 29.9261C94.9817 29.9261 95.2385 29.8864 95.4705 29.8068C95.7025 29.724 95.9031 29.6013 96.0721 29.4389C96.2411 29.2765 96.3704 29.076 96.4599 28.8374L97.8668 29.0909C97.7541 29.5052 97.552 29.8681 97.2603 30.1797C96.9719 30.4879 96.609 30.7282 96.1715 30.9006C95.7373 31.0696 95.2418 31.1541 94.685 31.1541ZM103.435 20.8182H105.299L108.541 28.733H108.66L111.902 20.8182H113.766V31H112.304V23.6321H112.21L109.207 30.9851H107.994L104.991 23.6271H104.897V31H103.435V20.8182ZM116.82 33.8636C116.598 33.8636 116.396 33.8454 116.213 33.8089C116.031 33.7758 115.895 33.7393 115.806 33.6996L116.164 32.4815C116.435 32.5545 116.677 32.5859 116.889 32.576C117.102 32.5661 117.289 32.4865 117.451 32.3374C117.617 32.1882 117.763 31.9446 117.889 31.6065L118.073 31.0994L115.279 23.3636H116.869L118.803 29.2898H118.883L120.817 23.3636H122.413L119.266 32.0192C119.12 32.4169 118.934 32.7533 118.709 33.0284C118.484 33.3068 118.215 33.5156 117.904 33.6548C117.592 33.794 117.231 33.8636 116.82 33.8636ZM127.634 31V20.8182H129.17V29.6776H133.784V31H127.634ZM135.417 31V23.3636H136.904V31H135.417ZM136.168 22.1854C135.909 22.1854 135.687 22.0992 135.502 21.9268C135.319 21.7512 135.228 21.5424 135.228 21.3004C135.228 21.0552 135.319 20.8464 135.502 20.674C135.687 20.4983 135.909 20.4105 136.168 20.4105C136.426 20.4105 136.647 20.4983 136.829 20.674C137.015 20.8464 137.108 21.0552 137.108 21.3004C137.108 21.5424 137.015 21.7512 136.829 21.9268C136.647 22.0992 136.426 22.1854 136.168 22.1854ZM140.39 26.4659V31H138.904V23.3636H140.33V24.6065H140.425C140.601 24.2022 140.876 23.8774 141.25 23.6321C141.628 23.3868 142.104 23.2642 142.677 23.2642C143.197 23.2642 143.653 23.3736 144.044 23.5923C144.435 23.8078 144.739 24.1293 144.954 24.5568C145.169 24.9844 145.277 25.513 145.277 26.1428V31H143.791V26.3217C143.791 25.7682 143.646 25.3357 143.358 25.0241C143.07 24.7093 142.674 24.5518 142.17 24.5518C141.825 24.5518 141.519 24.6264 141.25 24.7756C140.985 24.9247 140.775 25.1435 140.619 25.4318C140.466 25.7169 140.39 26.0616 140.39 26.4659ZM148.638 28.4098L148.628 26.5952H148.887L151.929 23.3636H153.709L150.239 27.0426H150.005L148.638 28.4098ZM147.271 31V20.8182H148.757V31H147.271ZM152.093 31L149.359 27.3707L150.383 26.3317L153.918 31H152.093Z" fill="white"/>
</svg>
