<svg width="474" height="80" viewBox="0 0 474 80" fill="none" xmlns="http://www.w3.org/2000/svg">
<rect width="473.28" height="80" rx="8" fill="#6366F1"/>
<path d="M75.2685 35.3438C75.189 34.5994 74.8538 34.0199 74.2629 33.6051C73.6776 33.1903 72.9163 32.983 71.9788 32.983C71.3197 32.983 70.7543 33.0824 70.2827 33.2812C69.8112 33.4801 69.4504 33.75 69.2004 34.0909C68.9504 34.4318 68.8225 34.821 68.8168 35.2585C68.8168 35.6222 68.8992 35.9375 69.064 36.2045C69.2345 36.4716 69.4646 36.6989 69.7543 36.8864C70.0441 37.0682 70.3651 37.2216 70.7174 37.3466C71.0697 37.4716 71.4248 37.5767 71.7827 37.6619L73.4191 38.071C74.0782 38.2244 74.7117 38.4318 75.3197 38.6932C75.9333 38.9545 76.4816 39.2841 76.9646 39.6818C77.4532 40.0795 77.8396 40.5597 78.1237 41.1222C78.4077 41.6847 78.5498 42.3437 78.5498 43.0994C78.5498 44.1222 78.2884 45.0227 77.7657 45.8011C77.243 46.5739 76.4873 47.179 75.4987 47.6165C74.5157 48.0483 73.3254 48.2642 71.9276 48.2642C70.5697 48.2642 69.3907 48.054 68.3907 47.6335C67.3964 47.2131 66.618 46.5994 66.0555 45.7926C65.4987 44.9858 65.1975 44.0028 65.1521 42.8438H68.2629C68.3083 43.4517 68.4958 43.9574 68.8254 44.3608C69.1549 44.7642 69.5839 45.0653 70.1123 45.2642C70.6464 45.4631 71.243 45.5625 71.9021 45.5625C72.5896 45.5625 73.1918 45.4602 73.7089 45.2557C74.2316 45.0455 74.6407 44.7557 74.9362 44.3864C75.2316 44.0114 75.3822 43.5739 75.3879 43.0739C75.3822 42.6193 75.2487 42.2443 74.9873 41.9489C74.7259 41.6477 74.3595 41.3977 73.8879 41.1989C73.422 40.9943 72.8765 40.8125 72.2515 40.6534L70.2657 40.142C68.8282 39.7727 67.6918 39.2131 66.8566 38.4631C66.0271 37.7074 65.6123 36.7045 65.6123 35.4545C65.6123 34.4261 65.8907 33.5256 66.4475 32.7528C67.01 31.9801 67.7742 31.3807 68.7401 30.9545C69.706 30.5227 70.7998 30.3068 72.0214 30.3068C73.26 30.3068 74.3452 30.5227 75.2771 30.9545C76.2146 31.3807 76.9504 31.9744 77.4845 32.7358C78.0185 33.4915 78.2941 34.3608 78.3112 35.3438H75.2685ZM81.2323 48V34.9091H84.3175V48H81.2323ZM82.7835 33.0511C82.2948 33.0511 81.8744 32.8892 81.5221 32.5653C81.1698 32.2358 80.9937 31.8409 80.9937 31.3807C80.9937 30.9148 81.1698 30.5199 81.5221 30.196C81.8744 29.8665 82.2948 29.7017 82.7835 29.7017C83.2778 29.7017 83.6982 29.8665 84.0448 30.196C84.3971 30.5199 84.5732 30.9148 84.5732 31.3807C84.5732 31.8409 84.3971 32.2358 84.0448 32.5653C83.6982 32.8892 83.2778 33.0511 82.7835 33.0511ZM93.1833 53.1818C92.0754 53.1818 91.1237 53.0313 90.3282 52.7301C89.5327 52.4347 88.8935 52.0369 88.4106 51.5369C87.9276 51.0369 87.5924 50.483 87.4049 49.875L90.1833 49.2017C90.3083 49.4574 90.4901 49.7102 90.7288 49.9602C90.9674 50.2159 91.2884 50.4261 91.6918 50.5909C92.1009 50.7614 92.6151 50.8466 93.2345 50.8466C94.1095 50.8466 94.8339 50.6335 95.4077 50.2074C95.9816 49.7869 96.2685 49.0938 96.2685 48.1278V45.6477H96.1151C95.956 45.9659 95.7231 46.2926 95.4163 46.6278C95.1151 46.9631 94.7146 47.2443 94.2146 47.4716C93.7202 47.6989 93.0981 47.8125 92.3481 47.8125C91.3424 47.8125 90.4305 47.5767 89.6123 47.1051C88.7998 46.6278 88.1521 45.9176 87.6691 44.9744C87.1918 44.0256 86.9532 42.8381 86.9532 41.4119C86.9532 39.9744 87.1918 38.7614 87.6691 37.7727C88.1521 36.7784 88.8026 36.0256 89.6208 35.5142C90.439 34.9972 91.3509 34.7386 92.3566 34.7386C93.1237 34.7386 93.7543 34.8693 94.2487 35.1307C94.7487 35.3864 95.1464 35.696 95.4418 36.0597C95.7373 36.4176 95.9617 36.7557 96.1151 37.0739H96.2856V34.9091H99.3282V48.2131C99.3282 49.3324 99.0612 50.2585 98.5271 50.9915C97.993 51.7244 97.2629 52.2727 96.3367 52.6364C95.4106 53 94.3595 53.1818 93.1833 53.1818ZM93.2089 45.392C93.8623 45.392 94.4191 45.233 94.8793 44.9148C95.3396 44.5966 95.689 44.1392 95.9276 43.5426C96.1663 42.946 96.2856 42.2301 96.2856 41.3949C96.2856 40.571 96.1663 39.8494 95.9276 39.2301C95.6947 38.6108 95.3481 38.1307 94.8879 37.7898C94.4333 37.4432 93.8737 37.2699 93.2089 37.2699C92.5214 37.2699 91.9475 37.4489 91.4873 37.8068C91.0271 38.1648 90.6805 38.6562 90.4475 39.2812C90.2146 39.9006 90.0981 40.6051 90.0981 41.3949C90.0981 42.196 90.2146 42.8977 90.4475 43.5C90.6862 44.0966 91.0356 44.5625 91.4958 44.8977C91.9617 45.2273 92.5327 45.392 93.2089 45.392ZM105.575 40.3295V48H102.49V34.9091H105.439V37.1335H105.592C105.894 36.4006 106.374 35.8182 107.033 35.3864C107.698 34.9545 108.519 34.7386 109.496 34.7386C110.399 34.7386 111.186 34.9318 111.857 35.3182C112.533 35.7045 113.055 36.2642 113.425 36.9972C113.8 37.7301 113.984 38.6193 113.979 39.6648V48H110.894V40.142C110.894 39.267 110.666 38.5824 110.212 38.0881C109.763 37.5937 109.141 37.3466 108.345 37.3466C107.805 37.3466 107.325 37.4659 106.905 37.7045C106.49 37.9375 106.163 38.2756 105.925 38.7188C105.692 39.1619 105.575 39.6989 105.575 40.3295ZM134.207 30.5455H137.369V41.9489C137.369 43.1989 137.074 44.2983 136.483 45.2472C135.898 46.196 135.074 46.9375 134.011 47.4716C132.949 48 131.707 48.2642 130.287 48.2642C128.861 48.2642 127.617 48 126.554 47.4716C125.492 46.9375 124.668 46.196 124.082 45.2472C123.497 44.2983 123.205 43.1989 123.205 41.9489V30.5455H126.367V41.6847C126.367 42.4119 126.526 43.0597 126.844 43.6278C127.168 44.196 127.622 44.642 128.207 44.9659C128.793 45.2841 129.486 45.4432 130.287 45.4432C131.088 45.4432 131.781 45.2841 132.367 44.9659C132.957 44.642 133.412 44.196 133.73 43.6278C134.048 43.0597 134.207 42.4119 134.207 41.6847V30.5455ZM140.67 52.9091V34.9091H143.704V37.0739H143.883C144.042 36.7557 144.266 36.4176 144.556 36.0597C144.846 35.696 145.238 35.3864 145.732 35.1307C146.227 34.8693 146.857 34.7386 147.624 34.7386C148.636 34.7386 149.548 34.9972 150.36 35.5142C151.178 36.0256 151.826 36.7841 152.303 37.7898C152.786 38.7898 153.028 40.017 153.028 41.4716C153.028 42.9091 152.792 44.1307 152.32 45.1364C151.849 46.142 151.207 46.9091 150.394 47.4375C149.582 47.9659 148.661 48.2301 147.633 48.2301C146.883 48.2301 146.261 48.1051 145.766 47.8551C145.272 47.6051 144.874 47.304 144.573 46.9517C144.278 46.5937 144.048 46.2557 143.883 45.9375H143.755V52.9091H140.67ZM143.695 41.4545C143.695 42.3011 143.815 43.0426 144.053 43.679C144.298 44.3153 144.647 44.8125 145.102 45.1705C145.562 45.5227 146.119 45.6989 146.772 45.6989C147.454 45.6989 148.025 45.517 148.485 45.1534C148.945 44.7841 149.292 44.2812 149.525 43.6449C149.764 43.0028 149.883 42.2727 149.883 41.4545C149.883 40.642 149.766 39.9205 149.533 39.2898C149.301 38.6591 148.954 38.1648 148.494 37.8068C148.033 37.4489 147.46 37.2699 146.772 37.2699C146.113 37.2699 145.553 37.4432 145.093 37.7898C144.633 38.1364 144.283 38.6222 144.045 39.2472C143.812 39.8722 143.695 40.608 143.695 41.4545ZM176.103 30.5455V48H173.291L165.066 36.1108H164.921V48H161.759V30.5455H164.589L172.805 42.4432H172.958V30.5455H176.103ZM185.122 48.2557C183.844 48.2557 182.736 47.9744 181.798 47.4119C180.861 46.8494 180.134 46.0625 179.617 45.0511C179.105 44.0398 178.85 42.858 178.85 41.5057C178.85 40.1534 179.105 38.9687 179.617 37.9517C180.134 36.9347 180.861 36.1449 181.798 35.5824C182.736 35.0199 183.844 34.7386 185.122 34.7386C186.401 34.7386 187.509 35.0199 188.446 35.5824C189.384 36.1449 190.108 36.9347 190.619 37.9517C191.136 38.9687 191.395 40.1534 191.395 41.5057C191.395 42.858 191.136 44.0398 190.619 45.0511C190.108 46.0625 189.384 46.8494 188.446 47.4119C187.509 47.9744 186.401 48.2557 185.122 48.2557ZM185.139 45.7841C185.832 45.7841 186.412 45.5937 186.878 45.2131C187.344 44.8267 187.69 44.3097 187.918 43.6619C188.151 43.0142 188.267 42.2926 188.267 41.4972C188.267 40.696 188.151 39.9716 187.918 39.3239C187.69 38.6705 187.344 38.1506 186.878 37.7642C186.412 37.3778 185.832 37.1847 185.139 37.1847C184.429 37.1847 183.838 37.3778 183.367 37.7642C182.901 38.1506 182.551 38.6705 182.318 39.3239C182.091 39.9716 181.977 40.696 181.977 41.4972C181.977 42.2926 182.091 43.0142 182.318 43.6619C182.551 44.3097 182.901 44.8267 183.367 45.2131C183.838 45.5937 184.429 45.7841 185.139 45.7841ZM196.34 48L192.641 34.9091H195.786L198.087 44.1136H198.207L200.559 34.9091H203.67L206.022 44.0625H206.15L208.417 34.9091H211.57L207.863 48H204.65L202.195 39.1534H202.016L199.562 48H196.34ZM223.445 48.2642C222.615 48.2642 221.868 48.1165 221.203 47.821C220.544 47.5199 220.021 47.0767 219.635 46.4915C219.254 45.9062 219.064 45.1847 219.064 44.3267C219.064 43.5881 219.2 42.9773 219.473 42.4943C219.746 42.0114 220.118 41.625 220.59 41.3352C221.061 41.0455 221.592 40.8267 222.183 40.679C222.78 40.5256 223.396 40.4148 224.033 40.3466C224.8 40.267 225.422 40.196 225.899 40.1335C226.376 40.0653 226.723 39.9631 226.939 39.8267C227.161 39.6847 227.271 39.4659 227.271 39.1705V39.1193C227.271 38.4773 227.081 37.9801 226.7 37.6278C226.32 37.2756 225.771 37.0994 225.055 37.0994C224.3 37.0994 223.7 37.2642 223.257 37.5938C222.82 37.9233 222.524 38.3125 222.371 38.7614L219.49 38.3523C219.717 37.5568 220.092 36.892 220.615 36.358C221.138 35.8182 221.777 35.4148 222.533 35.1477C223.288 34.875 224.124 34.7386 225.038 34.7386C225.669 34.7386 226.297 34.8125 226.922 34.9602C227.547 35.108 228.118 35.3523 228.635 35.6932C229.152 36.0284 229.567 36.4858 229.879 37.0653C230.198 37.6449 230.357 38.3693 230.357 39.2386V48H227.391V46.2017H227.288C227.101 46.5653 226.837 46.9062 226.496 47.2244C226.161 47.5369 225.737 47.7898 225.226 47.983C224.72 48.1705 224.126 48.2642 223.445 48.2642ZM224.246 45.9972C224.865 45.9972 225.402 45.875 225.857 45.6307C226.311 45.3807 226.661 45.0511 226.905 44.642C227.155 44.233 227.28 43.7869 227.28 43.304V41.7614C227.183 41.8409 227.019 41.9148 226.786 41.983C226.558 42.0511 226.303 42.1108 226.019 42.1619C225.734 42.2131 225.453 42.2585 225.175 42.2983C224.896 42.3381 224.655 42.3722 224.45 42.4006C223.99 42.4631 223.578 42.5653 223.215 42.7074C222.851 42.8494 222.564 43.0483 222.354 43.304C222.144 43.554 222.038 43.8778 222.038 44.2756C222.038 44.8438 222.246 45.2727 222.661 45.5625C223.075 45.8523 223.604 45.9972 224.246 45.9972ZM236.544 40.3295V48H233.459V34.9091H236.408V37.1335H236.561C236.862 36.4006 237.342 35.8182 238.001 35.3864C238.666 34.9545 239.487 34.7386 240.465 34.7386C241.368 34.7386 242.155 34.9318 242.825 35.3182C243.501 35.7045 244.024 36.2642 244.394 36.9972C244.769 37.7301 244.953 38.6193 244.948 39.6648V48H241.862V40.142C241.862 39.267 241.635 38.5824 241.18 38.0881C240.732 37.5937 240.109 37.3466 239.314 37.3466C238.774 37.3466 238.294 37.4659 237.874 37.7045C237.459 37.9375 237.132 38.2756 236.894 38.7188C236.661 39.1619 236.544 39.6989 236.544 40.3295ZM252.942 48.2301C251.913 48.2301 250.993 47.9659 250.18 47.4375C249.368 46.9091 248.726 46.142 248.254 45.1364C247.783 44.1307 247.547 42.9091 247.547 41.4716C247.547 40.017 247.786 38.7898 248.263 37.7898C248.746 36.7841 249.396 36.0256 250.215 35.5142C251.033 34.9972 251.945 34.7386 252.95 34.7386C253.717 34.7386 254.348 34.8693 254.842 35.1307C255.337 35.3864 255.729 35.696 256.019 36.0597C256.308 36.4176 256.533 36.7557 256.692 37.0739H256.82V30.5455H259.913V48H256.879V45.9375H256.692C256.533 46.2557 256.303 46.5937 256.001 46.9517C255.7 47.304 255.303 47.6051 254.808 47.8551C254.314 48.1051 253.692 48.2301 252.942 48.2301ZM253.803 45.6989C254.456 45.6989 255.013 45.5227 255.473 45.1705C255.933 44.8125 256.283 44.3153 256.521 43.679C256.76 43.0426 256.879 42.3011 256.879 41.4545C256.879 40.608 256.76 39.8722 256.521 39.2472C256.288 38.6222 255.942 38.1364 255.482 37.7898C255.027 37.4432 254.467 37.2699 253.803 37.2699C253.115 37.2699 252.541 37.4489 252.081 37.8068C251.621 38.1648 251.274 38.6591 251.041 39.2898C250.808 39.9205 250.692 40.642 250.692 41.4545C250.692 42.2727 250.808 43.0028 251.041 43.6449C251.28 44.2812 251.629 44.7841 252.09 45.1534C252.555 45.517 253.126 45.6989 253.803 45.6989ZM278.776 35.3438C278.697 34.5994 278.362 34.0199 277.771 33.6051C277.185 33.1903 276.424 32.983 275.487 32.983C274.827 32.983 274.262 33.0824 273.791 33.2812C273.319 33.4801 272.958 33.75 272.708 34.0909C272.458 34.4318 272.33 34.821 272.325 35.2585C272.325 35.6222 272.407 35.9375 272.572 36.2045C272.742 36.4716 272.972 36.6989 273.262 36.8864C273.552 37.0682 273.873 37.2216 274.225 37.3466C274.577 37.4716 274.933 37.5767 275.291 37.6619L276.927 38.071C277.586 38.2244 278.22 38.4318 278.827 38.6932C279.441 38.9545 279.989 39.2841 280.472 39.6818C280.961 40.0795 281.347 40.5597 281.631 41.1222C281.916 41.6847 282.058 42.3437 282.058 43.0994C282.058 44.1222 281.796 45.0227 281.274 45.8011C280.751 46.5739 279.995 47.179 279.006 47.6165C278.024 48.0483 276.833 48.2642 275.435 48.2642C274.077 48.2642 272.899 48.054 271.899 47.6335C270.904 47.2131 270.126 46.5994 269.563 45.7926C269.006 44.9858 268.705 44.0028 268.66 42.8438H271.771C271.816 43.4517 272.004 43.9574 272.333 44.3608C272.663 44.7642 273.092 45.0653 273.62 45.2642C274.154 45.4631 274.751 45.5625 275.41 45.5625C276.097 45.5625 276.7 45.4602 277.217 45.2557C277.739 45.0455 278.149 44.7557 278.444 44.3864C278.739 44.0114 278.89 43.5739 278.896 43.0739C278.89 42.6193 278.756 42.2443 278.495 41.9489C278.234 41.6477 277.867 41.3977 277.396 41.1989C276.93 40.9943 276.384 40.8125 275.759 40.6534L273.774 40.142C272.336 39.7727 271.2 39.2131 270.364 38.4631C269.535 37.7074 269.12 36.7045 269.12 35.4545C269.12 34.4261 269.399 33.5256 269.955 32.7528C270.518 31.9801 271.282 31.3807 272.248 30.9545C273.214 30.5227 274.308 30.3068 275.529 30.3068C276.768 30.3068 277.853 30.5227 278.785 30.9545C279.722 31.3807 280.458 31.9744 280.992 32.7358C281.526 33.4915 281.802 34.3608 281.819 35.3438H278.776ZM291.277 34.9091V37.2955H283.751V34.9091H291.277ZM285.609 31.7727H288.695V44.0625C288.695 44.4773 288.757 44.7955 288.882 45.017C289.013 45.233 289.183 45.3807 289.394 45.4602C289.604 45.5398 289.837 45.5795 290.092 45.5795C290.286 45.5795 290.462 45.5653 290.621 45.5369C290.786 45.5085 290.911 45.483 290.996 45.4602L291.516 47.8722C291.351 47.929 291.115 47.9915 290.808 48.0597C290.507 48.1278 290.138 48.1676 289.7 48.179C288.928 48.2017 288.232 48.0852 287.612 47.8295C286.993 47.5682 286.501 47.1648 286.138 46.6193C285.78 46.0739 285.604 45.392 285.609 44.5739V31.7727ZM297.624 48.2642C296.795 48.2642 296.048 48.1165 295.383 47.821C294.724 47.5199 294.201 47.0767 293.815 46.4915C293.434 45.9062 293.244 45.1847 293.244 44.3267C293.244 43.5881 293.38 42.9773 293.653 42.4943C293.926 42.0114 294.298 41.625 294.769 41.3352C295.241 41.0455 295.772 40.8267 296.363 40.679C296.96 40.5256 297.576 40.4148 298.212 40.3466C298.979 40.267 299.602 40.196 300.079 40.1335C300.556 40.0653 300.903 39.9631 301.119 39.8267C301.34 39.6847 301.451 39.4659 301.451 39.1705V39.1193C301.451 38.4773 301.261 37.9801 300.88 37.6278C300.499 37.2756 299.951 37.0994 299.235 37.0994C298.479 37.0994 297.88 37.2642 297.437 37.5938C296.999 37.9233 296.704 38.3125 296.551 38.7614L293.67 38.3523C293.897 37.5568 294.272 36.892 294.795 36.358C295.318 35.8182 295.957 35.4148 296.712 35.1477C297.468 34.875 298.303 34.7386 299.218 34.7386C299.849 34.7386 300.477 34.8125 301.102 34.9602C301.727 35.108 302.298 35.3523 302.815 35.6932C303.332 36.0284 303.747 36.4858 304.059 37.0653C304.377 37.6449 304.536 38.3693 304.536 39.2386V48H301.57V46.2017H301.468C301.281 46.5653 301.016 46.9062 300.676 47.2244C300.34 47.5369 299.917 47.7898 299.406 47.983C298.9 48.1705 298.306 48.2642 297.624 48.2642ZM298.426 45.9972C299.045 45.9972 299.582 45.875 300.036 45.6307C300.491 45.3807 300.84 45.0511 301.085 44.642C301.335 44.233 301.46 43.7869 301.46 43.304V41.7614C301.363 41.8409 301.198 41.9148 300.965 41.983C300.738 42.0511 300.482 42.1108 300.198 42.1619C299.914 42.2131 299.633 42.2585 299.354 42.2983C299.076 42.3381 298.835 42.3722 298.63 42.4006C298.17 42.4631 297.758 42.5653 297.394 42.7074C297.031 42.8494 296.744 43.0483 296.533 43.304C296.323 43.554 296.218 43.8778 296.218 44.2756C296.218 44.8438 296.426 45.2727 296.84 45.5625C297.255 45.8523 297.783 45.9972 298.426 45.9972ZM307.639 48V34.9091H310.63V37.0909H310.766C311.005 36.3352 311.414 35.7528 311.994 35.3438C312.579 34.929 313.247 34.7216 313.997 34.7216C314.167 34.7216 314.357 34.7301 314.568 34.7472C314.783 34.7585 314.962 34.7784 315.104 34.8068V37.6449C314.974 37.5994 314.766 37.5597 314.482 37.5256C314.204 37.4858 313.934 37.4659 313.673 37.4659C313.11 37.4659 312.604 37.5881 312.156 37.8324C311.712 38.071 311.363 38.4034 311.107 38.8295C310.852 39.2557 310.724 39.7472 310.724 40.304V48H307.639ZM324.394 34.9091V37.2955H316.869V34.9091H324.394ZM318.727 31.7727H321.812V44.0625C321.812 44.4773 321.874 44.7955 321.999 45.017C322.13 45.233 322.301 45.3807 322.511 45.4602C322.721 45.5398 322.954 45.5795 323.21 45.5795C323.403 45.5795 323.579 45.5653 323.738 45.5369C323.903 45.5085 324.028 45.483 324.113 45.4602L324.633 47.8722C324.468 47.929 324.232 47.9915 323.926 48.0597C323.624 48.1278 323.255 48.1676 322.818 48.179C322.045 48.2017 321.349 48.0852 320.729 47.8295C320.11 47.5682 319.619 47.1648 319.255 46.6193C318.897 46.0739 318.721 45.392 318.727 44.5739V31.7727ZM342.55 35.3438C342.47 34.5994 342.135 34.0199 341.544 33.6051C340.959 33.1903 340.198 32.983 339.26 32.983C338.601 32.983 338.036 33.0824 337.564 33.2812C337.092 33.4801 336.732 33.75 336.482 34.0909C336.232 34.4318 336.104 34.821 336.098 35.2585C336.098 35.6222 336.18 35.9375 336.345 36.2045C336.516 36.4716 336.746 36.6989 337.036 36.8864C337.325 37.0682 337.646 37.2216 337.999 37.3466C338.351 37.4716 338.706 37.5767 339.064 37.6619L340.7 38.071C341.359 38.2244 341.993 38.4318 342.601 38.6932C343.215 38.9545 343.763 39.2841 344.246 39.6818C344.734 40.0795 345.121 40.5597 345.405 41.1222C345.689 41.6847 345.831 42.3437 345.831 43.0994C345.831 44.1222 345.57 45.0227 345.047 45.8011C344.524 46.5739 343.769 47.179 342.78 47.6165C341.797 48.0483 340.607 48.2642 339.209 48.2642C337.851 48.2642 336.672 48.054 335.672 47.6335C334.678 47.2131 333.899 46.5994 333.337 45.7926C332.78 44.9858 332.479 44.0028 332.433 42.8438H335.544C335.59 43.4517 335.777 43.9574 336.107 44.3608C336.436 44.7642 336.865 45.0653 337.394 45.2642C337.928 45.4631 338.524 45.5625 339.183 45.5625C339.871 45.5625 340.473 45.4602 340.99 45.2557C341.513 45.0455 341.922 44.7557 342.217 44.3864C342.513 44.0114 342.663 43.5739 342.669 43.0739C342.663 42.6193 342.53 42.2443 342.269 41.9489C342.007 41.6477 341.641 41.3977 341.169 41.1989C340.703 40.9943 340.158 40.8125 339.533 40.6534L337.547 40.142C336.109 39.7727 334.973 39.2131 334.138 38.4631C333.308 37.7074 332.894 36.7045 332.894 35.4545C332.894 34.4261 333.172 33.5256 333.729 32.7528C334.291 31.9801 335.055 31.3807 336.021 30.9545C336.987 30.5227 338.081 30.3068 339.303 30.3068C340.541 30.3068 341.626 30.5227 342.558 30.9545C343.496 31.3807 344.232 31.9744 344.766 32.7358C345.3 33.4915 345.575 34.3608 345.592 35.3438H342.55ZM354.309 48.2557C352.997 48.2557 351.863 47.983 350.908 47.4375C349.96 46.8864 349.229 46.108 348.718 45.1023C348.207 44.0909 347.951 42.9006 347.951 41.5312C347.951 40.1847 348.207 39.0028 348.718 37.9858C349.235 36.9631 349.957 36.1676 350.883 35.5994C351.809 35.0256 352.897 34.7386 354.147 34.7386C354.954 34.7386 355.715 34.8693 356.431 35.1307C357.153 35.3864 357.789 35.7841 358.34 36.3239C358.897 36.8636 359.335 37.5511 359.653 38.3864C359.971 39.2159 360.13 40.2045 360.13 41.3523V42.2983H349.4V40.2188H357.173C357.167 39.6278 357.039 39.1023 356.789 38.642C356.539 38.1761 356.19 37.8097 355.741 37.5426C355.298 37.2756 354.781 37.142 354.19 37.142C353.559 37.142 353.005 37.2955 352.528 37.6023C352.051 37.9034 351.678 38.3011 351.411 38.7955C351.15 39.2841 351.016 39.821 351.011 40.4062V42.2216C351.011 42.983 351.15 43.6364 351.428 44.1818C351.707 44.7216 352.096 45.1364 352.596 45.4261C353.096 45.7102 353.681 45.8523 354.352 45.8523C354.801 45.8523 355.207 45.7898 355.57 45.6648C355.934 45.5341 356.249 45.3438 356.516 45.0938C356.783 44.8438 356.985 44.5341 357.122 44.1648L360.002 44.4886C359.82 45.25 359.474 45.9148 358.962 46.483C358.457 47.0455 357.809 47.483 357.019 47.7955C356.229 48.1023 355.326 48.2557 354.309 48.2557ZM365.825 30.5455V48H362.74V30.5455H365.825ZM372.083 30.5455V48H368.998V30.5455H372.083ZM375.256 48V34.9091H378.341V48H375.256ZM376.807 33.0511C376.318 33.0511 375.898 32.8892 375.546 32.5653C375.193 32.2358 375.017 31.8409 375.017 31.3807C375.017 30.9148 375.193 30.5199 375.546 30.196C375.898 29.8665 376.318 29.7017 376.807 29.7017C377.301 29.7017 377.722 29.8665 378.068 30.196C378.421 30.5199 378.597 30.9148 378.597 31.3807C378.597 31.8409 378.421 32.2358 378.068 32.5653C377.722 32.8892 377.301 33.0511 376.807 33.0511ZM384.599 40.3295V48H381.514V34.9091H384.462V37.1335H384.616C384.917 36.4006 385.397 35.8182 386.056 35.3864C386.721 34.9545 387.542 34.7386 388.519 34.7386C389.423 34.7386 390.21 34.9318 390.88 35.3182C391.556 35.7045 392.079 36.2642 392.448 36.9972C392.823 37.7301 393.008 38.6193 393.002 39.6648V48H389.917V40.142C389.917 39.267 389.69 38.5824 389.235 38.0881C388.786 37.5937 388.164 37.3466 387.369 37.3466C386.829 37.3466 386.349 37.4659 385.928 37.7045C385.514 37.9375 385.187 38.2756 384.948 38.7188C384.715 39.1619 384.599 39.6989 384.599 40.3295ZM401.832 53.1818C400.724 53.1818 399.772 53.0313 398.977 52.7301C398.181 52.4347 397.542 52.0369 397.059 51.5369C396.576 51.0369 396.241 50.483 396.053 49.875L398.832 49.2017C398.957 49.4574 399.139 49.7102 399.377 49.9602C399.616 50.2159 399.937 50.4261 400.34 50.5909C400.749 50.7614 401.264 50.8466 401.883 50.8466C402.758 50.8466 403.482 50.6335 404.056 50.2074C404.63 49.7869 404.917 49.0938 404.917 48.1278V45.6477H404.764C404.604 45.9659 404.372 46.2926 404.065 46.6278C403.764 46.9631 403.363 47.2443 402.863 47.4716C402.369 47.6989 401.747 47.8125 400.997 47.8125C399.991 47.8125 399.079 47.5767 398.261 47.1051C397.448 46.6278 396.801 45.9176 396.318 44.9744C395.84 44.0256 395.602 42.8381 395.602 41.4119C395.602 39.9744 395.84 38.7614 396.318 37.7727C396.801 36.7784 397.451 36.0256 398.269 35.5142C399.087 34.9972 399.999 34.7386 401.005 34.7386C401.772 34.7386 402.403 34.8693 402.897 35.1307C403.397 35.3864 403.795 35.696 404.09 36.0597C404.386 36.4176 404.61 36.7557 404.764 37.0739H404.934V34.9091H407.977V48.2131C407.977 49.3324 407.71 50.2585 407.176 50.9915C406.641 51.7244 405.911 52.2727 404.985 52.6364C404.059 53 403.008 53.1818 401.832 53.1818ZM401.857 45.392C402.511 45.392 403.068 45.233 403.528 44.9148C403.988 44.5966 404.337 44.1392 404.576 43.5426C404.815 42.946 404.934 42.2301 404.934 41.3949C404.934 40.571 404.815 39.8494 404.576 39.2301C404.343 38.6108 403.997 38.1307 403.536 37.7898C403.082 37.4432 402.522 37.2699 401.857 37.2699C401.17 37.2699 400.596 37.4489 400.136 37.8068C399.676 38.1648 399.329 38.6562 399.096 39.2812C398.863 39.9006 398.747 40.6051 398.747 41.3949C398.747 42.196 398.863 42.8977 399.096 43.5C399.335 44.0966 399.684 44.5625 400.144 44.8977C400.61 45.2273 401.181 45.392 401.857 45.392Z" fill="white"/>
</svg>
