<svg width="576" height="56" viewBox="0 0 576 56" fill="none" xmlns="http://www.w3.org/2000/svg">
<rect width="576" height="56" rx="16" fill="#6366F1"/>
<rect width="576" height="56" rx="16" stroke="#E5E7EB"/>
<path d="M397.312 40H178.688V16H397.312V40Z" stroke="#E5E7EB"/>
<path d="M186.315 24.5625C186.262 24.0663 186.039 23.6799 185.645 23.4034C185.255 23.1269 184.747 22.9886 184.122 22.9886C183.683 22.9886 183.306 23.0549 182.991 23.1875C182.677 23.3201 182.437 23.5 182.27 23.7273C182.103 23.9545 182.018 24.214 182.014 24.5057C182.014 24.7481 182.069 24.9583 182.179 25.1364C182.293 25.3144 182.446 25.4659 182.639 25.5909C182.832 25.7121 183.046 25.8144 183.281 25.8977C183.516 25.9811 183.753 26.0511 183.991 26.108L185.082 26.3807C185.522 26.483 185.944 26.6212 186.349 26.7955C186.759 26.9697 187.124 27.1894 187.446 27.4545C187.772 27.7197 188.029 28.0398 188.219 28.4148C188.408 28.7898 188.503 29.2292 188.503 29.733C188.503 30.4148 188.329 31.0152 187.98 31.5341C187.632 32.0492 187.128 32.4527 186.469 32.7443C185.813 33.0322 185.02 33.1761 184.088 33.1761C183.183 33.1761 182.397 33.036 181.73 32.7557C181.067 32.4754 180.548 32.0663 180.173 31.5284C179.802 30.9905 179.601 30.3352 179.571 29.5625H181.645C181.675 29.9678 181.8 30.3049 182.02 30.5739C182.24 30.8428 182.526 31.0436 182.878 31.1761C183.234 31.3087 183.632 31.375 184.071 31.375C184.529 31.375 184.931 31.3068 185.276 31.1705C185.624 31.0303 185.897 30.8371 186.094 30.5909C186.291 30.3409 186.391 30.0492 186.395 29.7159C186.391 29.4129 186.302 29.1629 186.128 28.9659C185.954 28.7652 185.709 28.5985 185.395 28.4659C185.084 28.3295 184.721 28.2083 184.304 28.1023L182.98 27.7614C182.022 27.5152 181.264 27.142 180.707 26.642C180.154 26.1383 179.878 25.4697 179.878 24.6364C179.878 23.9508 180.063 23.3504 180.435 22.8352C180.81 22.3201 181.319 21.9205 181.963 21.6364C182.607 21.3485 183.336 21.2045 184.151 21.2045C184.976 21.2045 185.7 21.3485 186.321 21.6364C186.946 21.9205 187.437 22.3163 187.793 22.8239C188.149 23.3277 188.332 23.9072 188.344 24.5625H186.315ZM194.649 24.2727V25.8636H189.632V24.2727H194.649ZM190.871 22.1818H192.928V30.375C192.928 30.6515 192.969 30.8636 193.053 31.0114C193.14 31.1553 193.253 31.2538 193.393 31.3068C193.534 31.3598 193.689 31.3864 193.859 31.3864C193.988 31.3864 194.106 31.3769 194.212 31.358C194.321 31.339 194.405 31.322 194.462 31.3068L194.808 32.9148C194.698 32.9527 194.541 32.9943 194.337 33.0398C194.136 33.0852 193.89 33.1117 193.598 33.1193C193.083 33.1345 192.619 33.0568 192.206 32.8864C191.793 32.7121 191.465 32.4432 191.223 32.0795C190.984 31.7159 190.867 31.2614 190.871 30.7159V22.1818ZM198.881 33.1761C198.328 33.1761 197.83 33.0777 197.386 32.8807C196.947 32.6799 196.598 32.3845 196.341 31.9943C196.087 31.6042 195.96 31.1231 195.96 30.5511C195.96 30.0587 196.051 29.6515 196.233 29.3295C196.415 29.0076 196.663 28.75 196.977 28.5568C197.292 28.3636 197.646 28.2178 198.04 28.1193C198.438 28.017 198.848 27.9432 199.273 27.8977C199.784 27.8447 200.199 27.7973 200.517 27.7557C200.835 27.7102 201.066 27.642 201.21 27.5511C201.358 27.4564 201.432 27.3106 201.432 27.1136V27.0795C201.432 26.6515 201.305 26.3201 201.051 26.0852C200.797 25.8504 200.432 25.733 199.955 25.733C199.451 25.733 199.051 25.8428 198.756 26.0625C198.464 26.2822 198.267 26.5417 198.165 26.8409L196.244 26.5682C196.396 26.0379 196.646 25.5947 196.994 25.2386C197.343 24.8788 197.769 24.6098 198.273 24.4318C198.777 24.25 199.333 24.1591 199.943 24.1591C200.364 24.1591 200.782 24.2083 201.199 24.3068C201.616 24.4053 201.996 24.5682 202.341 24.7955C202.686 25.0189 202.962 25.3239 203.17 25.7102C203.383 26.0966 203.489 26.5795 203.489 27.1591V33H201.511V31.8011H201.443C201.318 32.0436 201.142 32.2708 200.915 32.483C200.691 32.6913 200.409 32.8598 200.068 32.9886C199.731 33.1136 199.335 33.1761 198.881 33.1761ZM199.415 31.6648C199.828 31.6648 200.186 31.5833 200.489 31.4205C200.792 31.2538 201.025 31.0341 201.188 30.7614C201.354 30.4886 201.438 30.1913 201.438 29.8693V28.8409C201.373 28.8939 201.263 28.9432 201.108 28.9886C200.956 29.0341 200.786 29.0739 200.597 29.108C200.407 29.142 200.22 29.1723 200.034 29.1989C199.848 29.2254 199.688 29.2481 199.551 29.267C199.244 29.3087 198.97 29.3769 198.727 29.4716C198.485 29.5663 198.294 29.6989 198.153 29.8693C198.013 30.036 197.943 30.2519 197.943 30.517C197.943 30.8958 198.081 31.1818 198.358 31.375C198.634 31.5682 198.987 31.6648 199.415 31.6648ZM205.557 33V24.2727H207.551V25.7273H207.642C207.801 25.2235 208.074 24.8352 208.46 24.5625C208.85 24.286 209.295 24.1477 209.795 24.1477C209.909 24.1477 210.036 24.1534 210.176 24.1648C210.32 24.1723 210.439 24.1856 210.534 24.2045V26.0966C210.447 26.0663 210.309 26.0398 210.119 26.017C209.934 25.9905 209.754 25.9773 209.58 25.9773C209.205 25.9773 208.867 26.0587 208.568 26.2216C208.273 26.3807 208.04 26.6023 207.869 26.8864C207.699 27.1705 207.614 27.4981 207.614 27.8693V33H205.557ZM216.727 24.2727V25.8636H211.71V24.2727H216.727ZM212.949 22.1818H215.006V30.375C215.006 30.6515 215.047 30.8636 215.131 31.0114C215.218 31.1553 215.331 31.2538 215.472 31.3068C215.612 31.3598 215.767 31.3864 215.938 31.3864C216.066 31.3864 216.184 31.3769 216.29 31.358C216.4 31.339 216.483 31.322 216.54 31.3068L216.886 32.9148C216.777 32.9527 216.619 32.9943 216.415 33.0398C216.214 33.0852 215.968 33.1117 215.676 33.1193C215.161 33.1345 214.697 33.0568 214.284 32.8864C213.871 32.7121 213.544 32.4432 213.301 32.0795C213.063 31.7159 212.945 31.2614 212.949 30.7159V22.1818ZM224.064 21.3636L227.092 30.5227H227.212L230.234 21.3636H232.553L228.45 33H225.848L221.751 21.3636H224.064ZM236.92 33.1705C236.045 33.1705 235.29 32.9886 234.653 32.625C234.021 32.2576 233.534 31.7386 233.193 31.0682C232.852 30.3939 232.682 29.6004 232.682 28.6875C232.682 27.7898 232.852 27.0019 233.193 26.3239C233.538 25.642 234.019 25.1117 234.636 24.733C235.254 24.3504 235.979 24.1591 236.812 24.1591C237.35 24.1591 237.858 24.2462 238.335 24.4205C238.816 24.5909 239.241 24.8561 239.608 25.2159C239.979 25.5758 240.271 26.0341 240.483 26.5909C240.695 27.1439 240.801 27.803 240.801 28.5682V29.1989H233.648V27.8125H238.83C238.826 27.4186 238.741 27.0682 238.574 26.7614C238.407 26.4508 238.174 26.2064 237.875 26.0284C237.58 25.8504 237.235 25.7614 236.841 25.7614C236.42 25.7614 236.051 25.8636 235.733 26.0682C235.415 26.2689 235.167 26.5341 234.989 26.8636C234.814 27.1894 234.725 27.5473 234.722 27.9375V29.1477C234.722 29.6553 234.814 30.0909 235 30.4545C235.186 30.8144 235.445 31.0909 235.778 31.2841C236.112 31.4735 236.502 31.5682 236.949 31.5682C237.248 31.5682 237.519 31.5265 237.761 31.4432C238.004 31.3561 238.214 31.2292 238.392 31.0625C238.57 30.8958 238.705 30.6894 238.795 30.4432L240.716 30.6591C240.595 31.1667 240.364 31.6098 240.023 31.9886C239.686 32.3636 239.254 32.6553 238.727 32.8636C238.201 33.0682 237.598 33.1705 236.92 33.1705ZM242.541 33V24.2727H244.536V25.7273H244.626C244.786 25.2235 245.058 24.8352 245.445 24.5625C245.835 24.286 246.28 24.1477 246.78 24.1477C246.893 24.1477 247.02 24.1534 247.161 24.1648C247.304 24.1723 247.424 24.1856 247.518 24.2045V26.0966C247.431 26.0663 247.293 26.0398 247.104 26.017C246.918 25.9905 246.738 25.9773 246.564 25.9773C246.189 25.9773 245.852 26.0587 245.553 26.2216C245.257 26.3807 245.024 26.6023 244.854 26.8864C244.683 27.1705 244.598 27.4981 244.598 27.8693V33H242.541ZM248.885 33V24.2727H250.942V33H248.885ZM249.919 23.0341C249.593 23.0341 249.313 22.9261 249.078 22.7102C248.843 22.4905 248.726 22.2273 248.726 21.9205C248.726 21.6098 248.843 21.3466 249.078 21.1307C249.313 20.911 249.593 20.8011 249.919 20.8011C250.249 20.8011 250.529 20.911 250.76 21.1307C250.995 21.3466 251.112 21.6098 251.112 21.9205C251.112 22.2273 250.995 22.4905 250.76 22.7102C250.529 22.9261 250.249 23.0341 249.919 23.0341ZM257.477 24.2727V25.8636H252.318V24.2727H257.477ZM253.608 33V23.4489C253.608 22.8617 253.729 22.3731 253.972 21.983C254.218 21.5928 254.547 21.3011 254.96 21.108C255.373 20.9148 255.831 20.8182 256.335 20.8182C256.691 20.8182 257.008 20.8466 257.284 20.9034C257.561 20.9602 257.765 21.0114 257.898 21.0568L257.489 22.6477C257.402 22.6212 257.292 22.5947 257.159 22.5682C257.027 22.5379 256.879 22.5227 256.716 22.5227C256.333 22.5227 256.063 22.6155 255.903 22.8011C255.748 22.983 255.67 23.2443 255.67 23.5852V33H253.608ZM259.088 33V24.2727H261.145V33H259.088ZM260.122 23.0341C259.796 23.0341 259.516 22.9261 259.281 22.7102C259.046 22.4905 258.929 22.2273 258.929 21.9205C258.929 21.6098 259.046 21.3466 259.281 21.1307C259.516 20.911 259.796 20.8011 260.122 20.8011C260.452 20.8011 260.732 20.911 260.963 21.1307C261.198 21.3466 261.315 21.6098 261.315 21.9205C261.315 22.2273 261.198 22.4905 260.963 22.7102C260.732 22.9261 260.452 23.0341 260.122 23.0341ZM267.067 33.1705C266.196 33.1705 265.447 32.9792 264.822 32.5966C264.201 32.214 263.722 31.6856 263.385 31.0114C263.052 30.3333 262.885 29.553 262.885 28.6705C262.885 27.7841 263.055 27.0019 263.396 26.3239C263.737 25.642 264.218 25.1117 264.839 24.733C265.464 24.3504 266.203 24.1591 267.055 24.1591C267.764 24.1591 268.391 24.2898 268.936 24.5511C269.485 24.8087 269.923 25.1742 270.249 25.6477C270.574 26.1174 270.76 26.6667 270.805 27.2955H268.839C268.76 26.875 268.571 26.5246 268.271 26.2443C267.976 25.9602 267.58 25.8182 267.084 25.8182C266.663 25.8182 266.294 25.9318 265.976 26.1591C265.658 26.3826 265.41 26.7045 265.232 27.125C265.057 27.5455 264.97 28.0492 264.97 28.6364C264.97 29.2311 265.057 29.7424 265.232 30.1705C265.406 30.5947 265.65 30.9223 265.964 31.1534C266.283 31.3807 266.656 31.4943 267.084 31.4943C267.387 31.4943 267.658 31.4375 267.896 31.3239C268.139 31.2064 268.341 31.0379 268.504 30.8182C268.667 30.5985 268.779 30.3314 268.839 30.017H270.805C270.756 30.6345 270.574 31.1818 270.26 31.6591C269.946 32.1326 269.518 32.5038 268.976 32.7727C268.434 33.0379 267.798 33.1705 267.067 33.1705ZM275.006 33.1761C274.453 33.1761 273.955 33.0777 273.511 32.8807C273.072 32.6799 272.723 32.3845 272.466 31.9943C272.212 31.6042 272.085 31.1231 272.085 30.5511C272.085 30.0587 272.176 29.6515 272.358 29.3295C272.54 29.0076 272.788 28.75 273.102 28.5568C273.417 28.3636 273.771 28.2178 274.165 28.1193C274.563 28.017 274.973 27.9432 275.398 27.8977C275.909 27.8447 276.324 27.7973 276.642 27.7557C276.96 27.7102 277.191 27.642 277.335 27.5511C277.483 27.4564 277.557 27.3106 277.557 27.1136V27.0795C277.557 26.6515 277.43 26.3201 277.176 26.0852C276.922 25.8504 276.557 25.733 276.08 25.733C275.576 25.733 275.176 25.8428 274.881 26.0625C274.589 26.2822 274.392 26.5417 274.29 26.8409L272.369 26.5682C272.521 26.0379 272.771 25.5947 273.119 25.2386C273.468 24.8788 273.894 24.6098 274.398 24.4318C274.902 24.25 275.458 24.1591 276.068 24.1591C276.489 24.1591 276.907 24.2083 277.324 24.3068C277.741 24.4053 278.121 24.5682 278.466 24.7955C278.811 25.0189 279.087 25.3239 279.295 25.7102C279.508 26.0966 279.614 26.5795 279.614 27.1591V33H277.636V31.8011H277.568C277.443 32.0436 277.267 32.2708 277.04 32.483C276.816 32.6913 276.534 32.8598 276.193 32.9886C275.856 33.1136 275.46 33.1761 275.006 33.1761ZM275.54 31.6648C275.953 31.6648 276.311 31.5833 276.614 31.4205C276.917 31.2538 277.15 31.0341 277.312 30.7614C277.479 30.4886 277.562 30.1913 277.562 29.8693V28.8409C277.498 28.8939 277.388 28.9432 277.233 28.9886C277.081 29.0341 276.911 29.0739 276.722 29.108C276.532 29.142 276.345 29.1723 276.159 29.1989C275.973 29.2254 275.813 29.2481 275.676 29.267C275.369 29.3087 275.095 29.3769 274.852 29.4716C274.61 29.5663 274.419 29.6989 274.278 29.8693C274.138 30.036 274.068 30.2519 274.068 30.517C274.068 30.8958 274.206 31.1818 274.483 31.375C274.759 31.5682 275.112 31.6648 275.54 31.6648ZM286.04 24.2727V25.8636H281.023V24.2727H286.04ZM282.261 22.1818H284.318V30.375C284.318 30.6515 284.36 30.8636 284.443 31.0114C284.53 31.1553 284.644 31.2538 284.784 31.3068C284.924 31.3598 285.08 31.3864 285.25 31.3864C285.379 31.3864 285.496 31.3769 285.602 31.358C285.712 31.339 285.795 31.322 285.852 31.3068L286.199 32.9148C286.089 32.9527 285.932 32.9943 285.727 33.0398C285.527 33.0852 285.28 33.1117 284.989 33.1193C284.473 33.1345 284.009 33.0568 283.597 32.8864C283.184 32.7121 282.856 32.4432 282.614 32.0795C282.375 31.7159 282.258 31.2614 282.261 30.7159V22.1818ZM287.76 33V24.2727H289.817V33H287.76ZM288.794 23.0341C288.468 23.0341 288.188 22.9261 287.953 22.7102C287.718 22.4905 287.601 22.2273 287.601 21.9205C287.601 21.6098 287.718 21.3466 287.953 21.1307C288.188 20.911 288.468 20.8011 288.794 20.8011C289.124 20.8011 289.404 20.911 289.635 21.1307C289.87 21.3466 289.987 21.6098 289.987 21.9205C289.987 22.2273 289.87 22.4905 289.635 22.7102C289.404 22.9261 289.124 23.0341 288.794 23.0341ZM295.739 33.1705C294.886 33.1705 294.148 32.983 293.523 32.608C292.898 32.233 292.413 31.7083 292.068 31.0341C291.727 30.3598 291.557 29.572 291.557 28.6705C291.557 27.7689 291.727 26.9792 292.068 26.3011C292.413 25.6231 292.898 25.0966 293.523 24.7216C294.148 24.3466 294.886 24.1591 295.739 24.1591C296.591 24.1591 297.33 24.3466 297.955 24.7216C298.58 25.0966 299.063 25.6231 299.403 26.3011C299.748 26.9792 299.92 27.7689 299.92 28.6705C299.92 29.572 299.748 30.3598 299.403 31.0341C299.063 31.7083 298.58 32.233 297.955 32.608C297.33 32.983 296.591 33.1705 295.739 33.1705ZM295.75 31.5227C296.212 31.5227 296.598 31.3958 296.909 31.142C297.22 30.8845 297.451 30.5398 297.602 30.108C297.758 29.6761 297.835 29.1951 297.835 28.6648C297.835 28.1307 297.758 27.6477 297.602 27.2159C297.451 26.7803 297.22 26.4337 296.909 26.1761C296.598 25.9186 296.212 25.7898 295.75 25.7898C295.277 25.7898 294.883 25.9186 294.568 26.1761C294.258 26.4337 294.025 26.7803 293.869 27.2159C293.718 27.6477 293.642 28.1307 293.642 28.6648C293.642 29.1951 293.718 29.6761 293.869 30.108C294.025 30.5398 294.258 30.8845 294.568 31.142C294.883 31.3958 295.277 31.5227 295.75 31.5227ZM303.723 27.8864V33H301.666V24.2727H303.632V25.7557H303.734C303.935 25.267 304.255 24.8788 304.695 24.5909C305.138 24.303 305.685 24.1591 306.337 24.1591C306.939 24.1591 307.464 24.2879 307.911 24.5455C308.361 24.803 308.71 25.1761 308.956 25.6648C309.206 26.1534 309.329 26.7462 309.325 27.4432V33H307.268V27.7614C307.268 27.178 307.117 26.7216 306.814 26.392C306.515 26.0625 306.1 25.8977 305.57 25.8977C305.21 25.8977 304.89 25.9773 304.609 26.1364C304.333 26.2917 304.115 26.517 303.956 26.8125C303.801 27.108 303.723 27.4659 303.723 27.8864ZM315.896 27.1818C315.896 25.7614 316.084 24.4564 316.459 23.267C316.838 22.0739 317.4 20.9716 318.146 19.9602H320.084C319.796 20.3352 319.527 20.7955 319.277 21.3409C319.027 21.8826 318.809 22.4773 318.624 23.125C318.442 23.7689 318.298 24.4375 318.192 25.1307C318.089 25.8239 318.038 26.5076 318.038 27.1818C318.038 28.0795 318.127 28.9886 318.305 29.9091C318.487 30.8295 318.732 31.6837 319.038 32.4716C319.349 33.2557 319.697 33.8977 320.084 34.3977H318.146C317.4 33.3864 316.838 32.286 316.459 31.0966C316.084 29.9034 315.896 28.5985 315.896 27.1818ZM323.33 21.3636L326.358 30.5227H326.477L329.5 21.3636H331.818L327.716 33H325.114L321.017 21.3636H323.33ZM333.26 33V24.2727H335.317V33H333.26ZM334.294 23.0341C333.968 23.0341 333.688 22.9261 333.453 22.7102C333.218 22.4905 333.101 22.2273 333.101 21.9205C333.101 21.6098 333.218 21.3466 333.453 21.1307C333.688 20.911 333.968 20.8011 334.294 20.8011C334.624 20.8011 334.904 20.911 335.135 21.1307C335.37 21.3466 335.487 21.6098 335.487 21.9205C335.487 22.2273 335.37 22.4905 335.135 22.7102C334.904 22.9261 334.624 23.0341 334.294 23.0341ZM339.943 33.1761C339.39 33.1761 338.892 33.0777 338.449 32.8807C338.009 32.6799 337.661 32.3845 337.403 31.9943C337.15 31.6042 337.023 31.1231 337.023 30.5511C337.023 30.0587 337.114 29.6515 337.295 29.3295C337.477 29.0076 337.725 28.75 338.04 28.5568C338.354 28.3636 338.708 28.2178 339.102 28.1193C339.5 28.017 339.911 27.9432 340.335 27.8977C340.847 27.8447 341.261 27.7973 341.58 27.7557C341.898 27.7102 342.129 27.642 342.273 27.5511C342.42 27.4564 342.494 27.3106 342.494 27.1136V27.0795C342.494 26.6515 342.367 26.3201 342.114 26.0852C341.86 25.8504 341.494 25.733 341.017 25.733C340.513 25.733 340.114 25.8428 339.818 26.0625C339.527 26.2822 339.33 26.5417 339.227 26.8409L337.307 26.5682C337.458 26.0379 337.708 25.5947 338.057 25.2386C338.405 24.8788 338.831 24.6098 339.335 24.4318C339.839 24.25 340.396 24.1591 341.006 24.1591C341.426 24.1591 341.845 24.2083 342.261 24.3068C342.678 24.4053 343.059 24.5682 343.403 24.7955C343.748 25.0189 344.025 25.3239 344.233 25.7102C344.445 26.0966 344.551 26.5795 344.551 27.1591V33H342.574V31.8011H342.506C342.381 32.0436 342.205 32.2708 341.977 32.483C341.754 32.6913 341.472 32.8598 341.131 32.9886C340.794 33.1136 340.398 33.1761 339.943 33.1761ZM340.477 31.6648C340.89 31.6648 341.248 31.5833 341.551 31.4205C341.854 31.2538 342.087 31.0341 342.25 30.7614C342.417 30.4886 342.5 30.1913 342.5 29.8693V28.8409C342.436 28.8939 342.326 28.9432 342.17 28.9886C342.019 29.0341 341.848 29.0739 341.659 29.108C341.47 29.142 341.282 29.1723 341.097 29.1989C340.911 29.2254 340.75 29.2481 340.614 29.267C340.307 29.3087 340.032 29.3769 339.79 29.4716C339.547 29.5663 339.356 29.6989 339.216 29.8693C339.076 30.036 339.006 30.2519 339.006 30.517C339.006 30.8958 339.144 31.1818 339.42 31.375C339.697 31.5682 340.049 31.6648 340.477 31.6648ZM352.236 21.3636L355.264 30.5227H355.384L358.406 21.3636H360.724L356.622 33H354.02L349.923 21.3636H352.236ZM365.092 33.1705C364.217 33.1705 363.462 32.9886 362.825 32.625C362.193 32.2576 361.706 31.7386 361.365 31.0682C361.024 30.3939 360.854 29.6004 360.854 28.6875C360.854 27.7898 361.024 27.0019 361.365 26.3239C361.71 25.642 362.191 25.1117 362.808 24.733C363.426 24.3504 364.151 24.1591 364.984 24.1591C365.522 24.1591 366.03 24.2462 366.507 24.4205C366.988 24.5909 367.412 24.8561 367.78 25.2159C368.151 25.5758 368.443 26.0341 368.655 26.5909C368.867 27.1439 368.973 27.803 368.973 28.5682V29.1989H361.82V27.8125H367.001C366.998 27.4186 366.912 27.0682 366.746 26.7614C366.579 26.4508 366.346 26.2064 366.047 26.0284C365.751 25.8504 365.407 25.7614 365.013 25.7614C364.592 25.7614 364.223 25.8636 363.905 26.0682C363.587 26.2689 363.339 26.5341 363.161 26.8636C362.986 27.1894 362.897 27.5473 362.893 27.9375V29.1477C362.893 29.6553 362.986 30.0909 363.172 30.4545C363.357 30.8144 363.617 31.0909 363.95 31.2841C364.284 31.4735 364.674 31.5682 365.121 31.5682C365.42 31.5682 365.691 31.5265 365.933 31.4432C366.176 31.3561 366.386 31.2292 366.564 31.0625C366.742 30.8958 366.876 30.6894 366.967 30.4432L368.888 30.6591C368.767 31.1667 368.536 31.6098 368.195 31.9886C367.857 32.3636 367.426 32.6553 366.899 32.8636C366.373 33.0682 365.77 33.1705 365.092 33.1705ZM370.713 33V24.2727H372.707V25.7273H372.798C372.957 25.2235 373.23 24.8352 373.616 24.5625C374.007 24.286 374.452 24.1477 374.952 24.1477C375.065 24.1477 375.192 24.1534 375.332 24.1648C375.476 24.1723 375.596 24.1856 375.69 24.2045V26.0966C375.603 26.0663 375.465 26.0398 375.276 26.017C375.09 25.9905 374.91 25.9773 374.736 25.9773C374.361 25.9773 374.024 26.0587 373.724 26.2216C373.429 26.3807 373.196 26.6023 373.026 26.8864C372.855 27.1705 372.77 27.4981 372.77 27.8693V33H370.713ZM377.057 33V24.2727H379.114V33H377.057ZM378.091 23.0341C377.765 23.0341 377.485 22.9261 377.25 22.7102C377.015 22.4905 376.898 22.2273 376.898 21.9205C376.898 21.6098 377.015 21.3466 377.25 21.1307C377.485 20.911 377.765 20.8011 378.091 20.8011C378.42 20.8011 378.701 20.911 378.932 21.1307C379.167 21.3466 379.284 21.6098 379.284 21.9205C379.284 22.2273 379.167 22.4905 378.932 22.7102C378.701 22.9261 378.42 23.0341 378.091 23.0341ZM385.649 24.2727V25.8636H380.49V24.2727H385.649ZM381.78 33V23.4489C381.78 22.8617 381.901 22.3731 382.143 21.983C382.39 21.5928 382.719 21.3011 383.132 21.108C383.545 20.9148 384.003 20.8182 384.507 20.8182C384.863 20.8182 385.179 20.8466 385.456 20.9034C385.732 20.9602 385.937 21.0114 386.07 21.0568L385.661 22.6477C385.573 22.6212 385.464 22.5947 385.331 22.5682C385.198 22.5379 385.051 22.5227 384.888 22.5227C384.505 22.5227 384.234 22.6155 384.075 22.8011C383.92 22.983 383.842 23.2443 383.842 23.5852V33H381.78ZM391.68 24.2727V25.8636H386.521V24.2727H391.68ZM387.811 33V23.4489C387.811 22.8617 387.932 22.3731 388.175 21.983C388.421 21.5928 388.75 21.3011 389.163 21.108C389.576 20.9148 390.035 20.8182 390.538 20.8182C390.894 20.8182 391.211 20.8466 391.487 20.9034C391.764 20.9602 391.968 21.0114 392.101 21.0568L391.692 22.6477C391.605 22.6212 391.495 22.5947 391.362 22.5682C391.23 22.5379 391.082 22.5227 390.919 22.5227C390.536 22.5227 390.266 22.6155 390.107 22.8011C389.951 22.983 389.874 23.2443 389.874 23.5852V33H387.811ZM396.962 28.2557C396.962 29.6723 396.772 30.9773 396.393 32.1705C396.018 33.3598 395.458 34.4602 394.712 35.4716H392.774C393.066 35.0966 393.335 34.6383 393.581 34.0966C393.831 33.5549 394.047 32.9602 394.229 32.3125C394.414 31.6648 394.558 30.9943 394.661 30.3011C394.767 29.608 394.82 28.9261 394.82 28.2557C394.82 27.358 394.729 26.4489 394.547 25.5284C394.369 24.608 394.125 23.7538 393.814 22.9659C393.507 22.178 393.161 21.5341 392.774 21.0341H394.712C395.458 22.0455 396.018 23.1477 396.393 24.3409C396.772 25.5303 396.962 26.8352 396.962 28.2557Z" fill="white"/>
</svg>
