<svg width="468" height="71" viewBox="0 0 468 71" fill="none" xmlns="http://www.w3.org/2000/svg">
<g filter="url(#filter0_d_215_744)">
<rect x="14" y="8" width="440" height="43" rx="8" fill="#6366F1" shape-rendering="crispEdges"/>
<rect x="14.5" y="8.5" width="439" height="42" rx="7.5" stroke="#6366F1" shape-rendering="crispEdges"/>
<path d="M216.859 35V24.8182H218.395V33.6776H223.009V35H216.859ZM227.858 35.1541C227.143 35.1541 226.518 34.9901 225.984 34.6619C225.451 34.3338 225.036 33.8748 224.741 33.2848C224.446 32.6948 224.299 32.0054 224.299 31.2166C224.299 30.4245 224.446 29.7318 224.741 29.1385C225.036 28.5452 225.451 28.0845 225.984 27.7564C226.518 27.4283 227.143 27.2642 227.858 27.2642C228.574 27.2642 229.199 27.4283 229.733 27.7564C230.266 28.0845 230.681 28.5452 230.976 29.1385C231.271 29.7318 231.418 30.4245 231.418 31.2166C231.418 32.0054 231.271 32.6948 230.976 33.2848C230.681 33.8748 230.266 34.3338 229.733 34.6619C229.199 34.9901 228.574 35.1541 227.858 35.1541ZM227.863 33.9062C228.327 33.9062 228.712 33.7836 229.017 33.5384C229.322 33.2931 229.547 32.9666 229.693 32.5589C229.842 32.1513 229.917 31.7022 229.917 31.2116C229.917 30.7244 229.842 30.277 229.693 29.8693C229.547 29.4583 229.322 29.1286 229.017 28.88C228.712 28.6314 228.327 28.5071 227.863 28.5071C227.396 28.5071 227.008 28.6314 226.7 28.88C226.395 29.1286 226.168 29.4583 226.019 29.8693C225.873 30.277 225.8 30.7244 225.8 31.2116C225.8 31.7022 225.873 32.1513 226.019 32.5589C226.168 32.9666 226.395 33.2931 226.7 33.5384C227.008 33.7836 227.396 33.9062 227.863 33.9062ZM236.279 38.0227C235.673 38.0227 235.151 37.9432 234.713 37.7841C234.279 37.625 233.924 37.4145 233.649 37.1527C233.374 36.8909 233.169 36.6042 233.033 36.2926L234.31 35.7656C234.4 35.9115 234.519 36.0656 234.668 36.228C234.821 36.3937 235.026 36.5346 235.285 36.6506C235.547 36.7666 235.883 36.8246 236.294 36.8246C236.857 36.8246 237.323 36.687 237.691 36.4119C238.059 36.1402 238.243 35.706 238.243 35.1094V33.608H238.148C238.059 33.7704 237.93 33.951 237.761 34.1499C237.595 34.3487 237.366 34.5211 237.075 34.6669C236.783 34.8127 236.403 34.8857 235.936 34.8857C235.333 34.8857 234.789 34.7448 234.305 34.4631C233.825 34.178 233.444 33.7588 233.162 33.2053C232.884 32.6484 232.744 31.964 232.744 31.152C232.744 30.34 232.882 29.6439 233.157 29.0639C233.435 28.4839 233.817 28.0398 234.3 27.7315C234.784 27.42 235.333 27.2642 235.946 27.2642C236.42 27.2642 236.803 27.3438 237.094 27.5028C237.386 27.6586 237.613 27.8409 237.776 28.0497C237.941 28.2585 238.069 28.4425 238.158 28.6016H238.268V27.3636H239.724V35.169C239.724 35.8253 239.572 36.3639 239.267 36.7848C238.962 37.2057 238.549 37.5173 238.029 37.7195C237.512 37.9216 236.929 38.0227 236.279 38.0227ZM236.264 33.6527C236.692 33.6527 237.053 33.5533 237.348 33.3544C237.646 33.1522 237.872 32.8639 238.024 32.4893C238.18 32.1115 238.258 31.6591 238.258 31.1321C238.258 30.6184 238.182 30.166 238.029 29.7749C237.877 29.3838 237.653 29.0788 237.358 28.8601C237.063 28.638 236.698 28.527 236.264 28.527C235.817 28.527 235.444 28.643 235.146 28.875C234.847 29.1037 234.622 29.4152 234.469 29.8097C234.32 30.2041 234.246 30.6449 234.246 31.1321C234.246 31.6326 234.322 32.0717 234.474 32.4496C234.627 32.8274 234.852 33.1224 235.151 33.3345C235.452 33.5466 235.823 33.6527 236.264 33.6527ZM241.718 35V27.3636H243.205V35H241.718ZM242.469 26.1854C242.21 26.1854 241.988 26.0992 241.803 25.9268C241.62 25.7512 241.529 25.5424 241.529 25.3004C241.529 25.0552 241.62 24.8464 241.803 24.674C241.988 24.4983 242.21 24.4105 242.469 24.4105C242.727 24.4105 242.948 24.4983 243.13 24.674C243.316 24.8464 243.408 25.0552 243.408 25.3004C243.408 25.5424 243.316 25.7512 243.13 25.9268C242.948 26.0992 242.727 26.1854 242.469 26.1854ZM246.691 30.4659V35H245.204V27.3636H246.631V28.6065H246.726C246.901 28.2022 247.176 27.8774 247.551 27.6321C247.929 27.3868 248.404 27.2642 248.978 27.2642C249.498 27.2642 249.954 27.3736 250.345 27.5923C250.736 27.8078 251.039 28.1293 251.255 28.5568C251.47 28.9844 251.578 29.513 251.578 30.1428V35H250.091V30.3217C250.091 29.7682 249.947 29.3357 249.659 29.0241C249.371 28.7093 248.974 28.5518 248.471 28.5518C248.126 28.5518 247.819 28.6264 247.551 28.7756C247.286 28.9247 247.075 29.1435 246.92 29.4318C246.767 29.7169 246.691 30.0616 246.691 30.4659Z" fill="white"/>
</g>
<defs>
<filter id="filter0_d_215_744" x="0" y="0" width="468" height="71" filterUnits="userSpaceOnUse" color-interpolation-filters="sRGB">
<feFlood flood-opacity="0" result="BackgroundImageFix"/>
<feColorMatrix in="SourceAlpha" type="matrix" values="0 0 0 0 0 0 0 0 0 0 0 0 0 0 0 0 0 0 127 0" result="hardAlpha"/>
<feOffset dy="6"/>
<feGaussianBlur stdDeviation="7"/>
<feComposite in2="hardAlpha" operator="out"/>
<feColorMatrix type="matrix" values="0 0 0 0 0.701961 0 0 0 0 0.533333 0 0 0 0 1 0 0 0 0.35 0"/>
<feBlend mode="normal" in2="BackgroundImageFix" result="effect1_dropShadow_215_744"/>
<feBlend mode="normal" in="SourceGraphic" in2="effect1_dropShadow_215_744" result="shape"/>
</filter>
</defs>
</svg>
