<svg width="140" height="39" viewBox="0 0 140 39" fill="none" xmlns="http://www.w3.org/2000/svg">
<rect x="0.5" y="0.5" width="139" height="38" rx="11.5" fill="#F8FAFC"/>
<rect x="0.5" y="0.5" width="139" height="38" rx="11.5" stroke="#6366F1"/>
<path d="M56.5967 18.1293H55.0456C54.9859 17.7978 54.8749 17.5062 54.7125 17.2543C54.5501 17.0024 54.3512 16.7886 54.1159 16.6129C53.8806 16.4373 53.6171 16.3047 53.3254 16.2152C53.037 16.1257 52.7305 16.081 52.4056 16.081C51.819 16.081 51.2937 16.2285 50.8297 16.5234C50.369 16.8184 50.0044 17.2509 49.7359 17.821C49.4708 18.3911 49.3382 19.0871 49.3382 19.9091C49.3382 20.7377 49.4708 21.437 49.7359 22.0071C50.0044 22.5772 50.3706 23.008 50.8346 23.2997C51.2986 23.5914 51.8207 23.7372 52.4007 23.7372C52.7222 23.7372 53.0271 23.6941 53.3154 23.608C53.6071 23.5185 53.8706 23.3875 54.1059 23.2152C54.3413 23.0429 54.5401 22.8324 54.7025 22.5838C54.8682 22.3319 54.9826 22.0436 55.0456 21.7188L56.5967 21.7237C56.5138 22.2242 56.3531 22.6849 56.1145 23.1058C55.8791 23.5234 55.5759 23.8847 55.2047 24.1896C54.8368 24.4912 54.4158 24.7249 53.9419 24.8906C53.4679 25.0563 52.9509 25.1392 52.3907 25.1392C51.5091 25.1392 50.7236 24.9304 50.0342 24.5128C49.3448 24.0919 48.8012 23.4903 48.4035 22.7081C48.0091 21.9259 47.8119 20.9929 47.8119 19.9091C47.8119 18.822 48.0108 17.889 48.4085 17.1101C48.8062 16.3279 49.3498 15.728 50.0392 15.3104C50.7286 14.8894 51.5124 14.679 52.3907 14.679C52.931 14.679 53.4348 14.7569 53.9021 14.9126C54.3727 15.0651 54.7953 15.2905 55.1699 15.5888C55.5444 15.8838 55.8543 16.245 56.0995 16.6726C56.3448 17.0968 56.5105 17.5824 56.5967 18.1293ZM60.5379 25.169C60.054 25.169 59.6165 25.0795 59.2254 24.9006C58.8343 24.7183 58.5244 24.4548 58.2957 24.1101C58.0704 23.7654 57.9577 23.3428 57.9577 22.8423C57.9577 22.4115 58.0405 22.0568 58.2063 21.7784C58.372 21.5 58.5957 21.2796 58.8774 21.1172C59.1591 20.9548 59.474 20.8321 59.822 20.7493C60.17 20.6664 60.5247 20.6035 60.8859 20.5604C61.3433 20.5073 61.7145 20.4643 61.9996 20.4311C62.2846 20.3946 62.4918 20.3366 62.621 20.2571C62.7503 20.1776 62.8149 20.0483 62.8149 19.8693V19.8345C62.8149 19.4003 62.6923 19.0639 62.447 18.8253C62.2051 18.5866 61.8438 18.4673 61.3632 18.4673C60.8627 18.4673 60.4683 18.5784 60.18 18.8004C59.8949 19.0192 59.6977 19.2628 59.5884 19.5312L58.1913 19.2131C58.3571 18.7491 58.599 18.3745 58.9172 18.0895C59.2387 17.8011 59.6082 17.5923 60.0259 17.4631C60.4435 17.3305 60.8826 17.2642 61.3433 17.2642C61.6482 17.2642 61.9714 17.3007 62.3128 17.3736C62.6575 17.4432 62.979 17.5724 63.2773 17.7614C63.5789 17.9503 63.8258 18.2204 64.018 18.5717C64.2103 18.9197 64.3064 19.3722 64.3064 19.929V25H62.8547V23.956H62.795C62.6989 24.1482 62.5547 24.3371 62.3625 24.5227C62.1703 24.7083 61.9233 24.8625 61.6217 24.9851C61.3201 25.1077 60.9589 25.169 60.5379 25.169ZM60.8611 23.9759C61.2721 23.9759 61.6234 23.8946 61.9151 23.7322C62.21 23.5698 62.4338 23.3577 62.5862 23.0959C62.742 22.8307 62.8199 22.5473 62.8199 22.2457V21.2614C62.7669 21.3144 62.6641 21.3641 62.5116 21.4105C62.3625 21.4536 62.1918 21.4917 61.9996 21.5249C61.8073 21.5547 61.6201 21.5829 61.4378 21.6094C61.2555 21.6326 61.103 21.6525 60.9804 21.669C60.692 21.7055 60.4286 21.7668 60.1899 21.853C59.9546 21.9392 59.7657 22.0634 59.6232 22.2259C59.4839 22.3849 59.4143 22.5971 59.4143 22.8622C59.4143 23.2301 59.5502 23.5085 59.822 23.6974C60.0938 23.883 60.4402 23.9759 60.8611 23.9759ZM67.7728 20.4659V25H66.2863V17.3636H67.7132V18.6065H67.8076C67.9833 18.2022 68.2584 17.8774 68.6329 17.6321C69.0108 17.3868 69.4864 17.2642 70.0598 17.2642C70.5801 17.2642 71.0359 17.3736 71.427 17.5923C71.8181 17.8078 72.1213 18.1293 72.3368 18.5568C72.5522 18.9844 72.6599 19.513 72.6599 20.1428V25H71.1734V20.3217C71.1734 19.7682 71.0292 19.3357 70.7409 19.0241C70.4525 18.7093 70.0565 18.5518 69.5527 18.5518C69.208 18.5518 68.9014 18.6264 68.6329 18.7756C68.3678 18.9247 68.1573 19.1435 68.0015 19.4318C67.8491 19.7169 67.7728 20.0616 67.7728 20.4659ZM77.8701 25.1541C77.131 25.1541 76.4947 24.9867 75.961 24.652C75.4307 24.3139 75.0231 23.8482 74.738 23.255C74.453 22.6617 74.3105 21.9822 74.3105 21.2166C74.3105 20.4411 74.4563 19.7566 74.748 19.1634C75.0396 18.5668 75.4506 18.1011 75.9809 17.7663C76.5112 17.4316 77.136 17.2642 77.8552 17.2642C78.4352 17.2642 78.9523 17.3719 79.4064 17.5874C79.8604 17.7995 80.2267 18.0978 80.5051 18.4822C80.7868 18.8667 80.9542 19.3158 81.0072 19.8295H79.5605C79.4809 19.4716 79.2986 19.1634 79.0136 18.9048C78.7319 18.6463 78.354 18.517 77.8801 18.517C77.4658 18.517 77.1029 18.6264 76.7913 18.8452C76.4831 19.0606 76.2428 19.3688 76.0704 19.7699C75.8981 20.1676 75.8119 20.6383 75.8119 21.1818C75.8119 21.7386 75.8964 22.2192 76.0654 22.6236C76.2345 23.0279 76.4731 23.3411 76.7814 23.5632C77.0929 23.7853 77.4592 23.8963 77.8801 23.8963C78.1618 23.8963 78.417 23.8449 78.6457 23.7422C78.8777 23.6361 79.0716 23.4853 79.2274 23.2898C79.3865 23.0942 79.4975 22.8589 79.5605 22.5838H81.0072C80.9542 23.0777 80.7934 23.5185 80.525 23.9062C80.2565 24.294 79.8969 24.599 79.4461 24.821C78.9987 25.0431 78.4734 25.1541 77.8701 25.1541ZM85.8881 25.1541C85.1357 25.1541 84.4877 24.9934 83.9442 24.6719C83.4039 24.3471 82.9863 23.8913 82.6913 23.3047C82.3997 22.7147 82.2538 22.0237 82.2538 21.2315C82.2538 20.4493 82.3997 19.7599 82.6913 19.1634C82.9863 18.5668 83.3973 18.1011 83.9243 17.7663C84.4546 17.4316 85.0744 17.2642 85.7837 17.2642C86.2145 17.2642 86.6322 17.3355 87.0365 17.478C87.4409 17.6205 87.8038 17.8442 88.1253 18.1491C88.4468 18.4541 88.7003 18.8501 88.8859 19.3374C89.0715 19.8213 89.1643 20.4096 89.1643 21.1023V21.6293H83.094V20.5156H87.7077C87.7077 20.1245 87.6281 19.7782 87.469 19.4766C87.3099 19.1716 87.0862 18.9313 86.7979 18.7557C86.5128 18.58 86.1781 18.4922 85.7936 18.4922C85.376 18.4922 85.0114 18.5949 84.6999 18.8004C84.3916 19.0026 84.153 19.2678 83.984 19.5959C83.8182 19.9207 83.7354 20.2737 83.7354 20.6548V21.5249C83.7354 22.0353 83.8249 22.4695 84.0038 22.8274C84.1861 23.1854 84.4397 23.4588 84.7645 23.6477C85.0893 23.8333 85.4688 23.9261 85.903 23.9261C86.1847 23.9261 86.4416 23.8864 86.6736 23.8068C86.9056 23.724 87.1061 23.6013 87.2751 23.4389C87.4442 23.2765 87.5734 23.076 87.6629 22.8374L89.0699 23.0909C88.9572 23.5052 88.755 23.8681 88.4634 24.1797C88.175 24.4879 87.8121 24.7282 87.3746 24.9006C86.9404 25.0696 86.4449 25.1541 85.8881 25.1541ZM92.3002 14.8182V25H90.8137V14.8182H92.3002Z" fill="#111827"/>
</svg>
