<svg width="140" height="39" viewBox="0 0 140 39" fill="none" xmlns="http://www.w3.org/2000/svg">
<rect x="0.5" y="0.5" width="139" height="38" rx="11.5" fill="#6366F1"/>
<rect x="0.5" y="0.5" width="139" height="38" rx="11.5" stroke="#B388FF"/>
<path d="M47.7592 25V14.8182H49.2955V23.6776H53.9091V25H47.7592ZM58.7589 25.1541C58.043 25.1541 57.4182 24.9901 56.8846 24.6619C56.351 24.3338 55.9367 23.8748 55.6417 23.2848C55.3467 22.6948 55.1992 22.0054 55.1992 21.2166C55.1992 20.4245 55.3467 19.7318 55.6417 19.1385C55.9367 18.5452 56.351 18.0845 56.8846 17.7564C57.4182 17.4283 58.043 17.2642 58.7589 17.2642C59.4748 17.2642 60.0996 17.4283 60.6332 17.7564C61.1668 18.0845 61.5811 18.5452 61.8761 19.1385C62.171 19.7318 62.3185 20.4245 62.3185 21.2166C62.3185 22.0054 62.171 22.6948 61.8761 23.2848C61.5811 23.8748 61.1668 24.3338 60.6332 24.6619C60.0996 24.9901 59.4748 25.1541 58.7589 25.1541ZM58.7638 23.9062C59.2279 23.9062 59.6123 23.7836 59.9173 23.5384C60.2222 23.2931 60.4476 22.9666 60.5934 22.5589C60.7425 22.1513 60.8171 21.7022 60.8171 21.2116C60.8171 20.7244 60.7425 20.277 60.5934 19.8693C60.4476 19.4583 60.2222 19.1286 59.9173 18.88C59.6123 18.6314 59.2279 18.5071 58.7638 18.5071C58.2965 18.5071 57.9087 18.6314 57.6005 18.88C57.2956 19.1286 57.0685 19.4583 56.9194 19.8693C56.7736 20.277 56.7006 20.7244 56.7006 21.2116C56.7006 21.7022 56.7736 22.1513 56.9194 22.5589C57.0685 22.9666 57.2956 23.2931 57.6005 23.5384C57.9087 23.7836 58.2965 23.9062 58.7638 23.9062ZM67.1795 28.0227C66.573 28.0227 66.051 27.9432 65.6135 27.7841C65.1793 27.625 64.8246 27.4145 64.5495 27.1527C64.2744 26.8909 64.069 26.6042 63.9331 26.2926L65.2108 25.7656C65.3002 25.9115 65.4196 26.0656 65.5687 26.228C65.7212 26.3937 65.9267 26.5346 66.1852 26.6506C66.447 26.7666 66.7834 26.8246 67.1944 26.8246C67.7579 26.8246 68.2235 26.687 68.5914 26.4119C68.9593 26.1402 69.1433 25.706 69.1433 25.1094V23.608H69.0488C68.9593 23.7704 68.8301 23.951 68.661 24.1499C68.4953 24.3487 68.2666 24.5211 67.975 24.6669C67.6833 24.8127 67.3038 24.8857 66.8365 24.8857C66.2333 24.8857 65.6897 24.7448 65.2058 24.4631C64.7252 24.178 64.344 23.7588 64.0623 23.2053C63.7839 22.6484 63.6447 21.964 63.6447 21.152C63.6447 20.34 63.7823 19.6439 64.0574 19.0639C64.3358 18.4839 64.7169 18.0398 65.2008 17.7315C65.6847 17.42 66.2333 17.2642 66.8464 17.2642C67.3204 17.2642 67.7032 17.3438 67.9949 17.5028C68.2865 17.6586 68.5136 17.8409 68.676 18.0497C68.8417 18.2585 68.9693 18.4425 69.0588 18.6016H69.1681V17.3636H70.6248V25.169C70.6248 25.8253 70.4724 26.3639 70.1674 26.7848C69.8625 27.2057 69.4499 27.5173 68.9295 27.7195C68.4125 27.9216 67.8291 28.0227 67.1795 28.0227ZM67.1646 23.6527C67.5922 23.6527 67.9534 23.5533 68.2484 23.3544C68.5467 23.1522 68.7721 22.8639 68.9245 22.4893C69.0803 22.1115 69.1582 21.6591 69.1582 21.1321C69.1582 20.6184 69.082 20.166 68.9295 19.7749C68.777 19.3838 68.5533 19.0788 68.2583 18.8601C67.9634 18.638 67.5988 18.527 67.1646 18.527C66.7172 18.527 66.3443 18.643 66.046 18.875C65.7477 19.1037 65.5223 19.4152 65.3699 19.8097C65.2207 20.2041 65.1461 20.6449 65.1461 21.1321C65.1461 21.6326 65.2224 22.0717 65.3748 22.4496C65.5273 22.8274 65.7527 23.1224 66.051 23.3345C66.3526 23.5466 66.7238 23.6527 67.1646 23.6527ZM75.835 25.1541C75.1191 25.1541 74.4944 24.9901 73.9608 24.6619C73.4271 24.3338 73.0128 23.8748 72.7179 23.2848C72.4229 22.6948 72.2754 22.0054 72.2754 21.2166C72.2754 20.4245 72.4229 19.7318 72.7179 19.1385C73.0128 18.5452 73.4271 18.0845 73.9608 17.7564C74.4944 17.4283 75.1191 17.2642 75.835 17.2642C76.551 17.2642 77.1757 17.4283 77.7093 17.7564C78.243 18.0845 78.6573 18.5452 78.9522 19.1385C79.2472 19.7318 79.3947 20.4245 79.3947 21.2166C79.3947 22.0054 79.2472 22.6948 78.9522 23.2848C78.6573 23.8748 78.243 24.3338 77.7093 24.6619C77.1757 24.9901 76.551 25.1541 75.835 25.1541ZM75.84 23.9062C76.304 23.9062 76.6885 23.7836 76.9934 23.5384C77.2984 23.2931 77.5237 22.9666 77.6696 22.5589C77.8187 22.1513 77.8933 21.7022 77.8933 21.2116C77.8933 20.7244 77.8187 20.277 77.6696 19.8693C77.5237 19.4583 77.2984 19.1286 76.9934 18.88C76.6885 18.6314 76.304 18.5071 75.84 18.5071C75.3727 18.5071 74.9849 18.6314 74.6767 18.88C74.3717 19.1286 74.1447 19.4583 73.9956 19.8693C73.8497 20.277 73.7768 20.7244 73.7768 21.2116C73.7768 21.7022 73.8497 22.1513 73.9956 22.5589C74.1447 22.9666 74.3717 23.2931 74.6767 23.5384C74.9849 23.7836 75.3727 23.9062 75.84 23.9062ZM85.8913 21.8331V17.3636H87.3828V25H85.9212V23.6776H85.8416C85.666 24.0852 85.3842 24.425 84.9964 24.6967C84.612 24.9652 84.133 25.0994 83.5597 25.0994C83.0691 25.0994 82.6349 24.9917 82.2571 24.7763C81.8826 24.5575 81.5876 24.2344 81.3722 23.8068C81.16 23.3793 81.054 22.8506 81.054 22.2209V17.3636H82.5405V22.0419C82.5405 22.5623 82.6847 22.9766 82.973 23.2848C83.2614 23.593 83.6359 23.7472 84.0966 23.7472C84.375 23.7472 84.6518 23.6776 84.9268 23.5384C85.2053 23.3991 85.4356 23.1887 85.6179 22.907C85.8035 22.6252 85.8946 22.2673 85.8913 21.8331ZM92.9448 17.3636V18.5568H88.7736V17.3636H92.9448ZM89.8922 15.5341H91.3787V22.7578C91.3787 23.0462 91.4218 23.2633 91.508 23.4091C91.5942 23.5516 91.7052 23.6494 91.8411 23.7024C91.9803 23.7521 92.1311 23.777 92.2935 23.777C92.4128 23.777 92.5172 23.7687 92.6067 23.7521C92.6962 23.7356 92.7658 23.7223 92.8155 23.7124L93.084 24.9403C92.9978 24.9735 92.8752 25.0066 92.7161 25.0398C92.557 25.0762 92.3581 25.0961 92.1195 25.0994C91.7284 25.1061 91.3638 25.0365 91.0257 24.8906C90.6877 24.7448 90.4142 24.5194 90.2054 24.2145C89.9966 23.9096 89.8922 23.5268 89.8922 23.0661V15.5341Z" fill="#F8FAFC"/>
</svg>
