<svg width="172" height="36" viewBox="0 0 172 36" fill="none" xmlns="http://www.w3.org/2000/svg">
<path d="M163.953 0C168.371 0 171.953 3.58172 171.953 8V28C171.953 32.4183 168.371 36 163.953 36H8C3.58172 36 0 32.4183 0 28V8C0 3.58172 3.58172 0 8 0H163.953Z" fill="#6366F1"/>
<path d="M163.953 0C168.371 0 171.953 3.58172 171.953 8V28C171.953 32.4183 168.371 36 163.953 36H8C3.58172 36 0 32.4183 0 28V8C0 3.58172 3.58172 0 8 0H163.953Z" stroke="#E5E7EB"/>
<path d="M32.25 26H20V9H32.25V26Z" stroke="#E5E7EB"/>
<g clip-path="url(#clip0_214_790)">
<path d="M29.3681 13.118C29.7099 12.7762 29.7099 12.2211 29.3681 11.8793C29.0263 11.5375 28.4712 11.5375 28.1294 11.8793L24.3751 15.6363L22.8056 14.0668C22.4638 13.725 21.9087 13.725 21.5669 14.0668C21.2251 14.4086 21.2251 14.9637 21.5669 15.3055L23.7544 17.493C24.0962 17.8348 24.6513 17.8348 24.9931 17.493L29.3681 13.118ZM31.9931 16.618C32.3349 16.2762 32.3349 15.7211 31.9931 15.3793C31.6513 15.0375 31.0962 15.0375 30.7544 15.3793L24.3751 21.7613L21.4931 18.882C21.1513 18.5402 20.5962 18.5402 20.2544 18.882C19.9126 19.2238 19.9126 19.7789 20.2544 20.1207L23.7544 23.6207C24.0962 23.9625 24.6513 23.9625 24.9931 23.6207L31.9931 16.6207V16.618Z" fill="white"/>
</g>
<path d="M44.395 12.8182H46.2593L49.5008 20.733H49.6201L52.8616 12.8182H54.7259V23H53.2643V15.6321H53.1698L50.167 22.9851H48.9539L45.9511 15.6271H45.8566V23H44.395V12.8182ZM59.0624 23.169C58.5785 23.169 58.141 23.0795 57.7499 22.9006C57.3588 22.7183 57.0489 22.4548 56.8202 22.1101C56.5948 21.7654 56.4822 21.3428 56.4822 20.8423C56.4822 20.4115 56.565 20.0568 56.7307 19.7784C56.8965 19.5 57.1202 19.2796 57.4019 19.1172C57.6836 18.9548 57.9985 18.8321 58.3465 18.7493C58.6945 18.6664 59.0492 18.6035 59.4104 18.5604C59.8678 18.5073 60.239 18.4643 60.5241 18.4311C60.8091 18.3946 61.0162 18.3366 61.1455 18.2571C61.2748 18.1776 61.3394 18.0483 61.3394 17.8693V17.8345C61.3394 17.4003 61.2168 17.0639 60.9715 16.8253C60.7296 16.5866 60.3683 16.4673 59.8877 16.4673C59.3872 16.4673 58.9928 16.5784 58.7045 16.8004C58.4194 17.0192 58.2222 17.2628 58.1128 17.5312L56.7158 17.2131C56.8815 16.7491 57.1235 16.3745 57.4417 16.0895C57.7632 15.8011 58.1327 15.5923 58.5503 15.4631C58.968 15.3305 59.4071 15.2642 59.8678 15.2642C60.1727 15.2642 60.4959 15.3007 60.8373 15.3736C61.182 15.4432 61.5035 15.5724 61.8018 15.7614C62.1034 15.9503 62.3503 16.2204 62.5425 16.5717C62.7348 16.9197 62.8309 17.3722 62.8309 17.929V23H61.3792V21.956H61.3195C61.2234 22.1482 61.0792 22.3371 60.887 22.5227C60.6948 22.7083 60.4478 22.8625 60.1462 22.9851C59.8446 23.1077 59.4833 23.169 59.0624 23.169ZM59.3856 21.9759C59.7965 21.9759 60.1479 21.8946 60.4395 21.7322C60.7345 21.5698 60.9582 21.3577 61.1107 21.0959C61.2665 20.8307 61.3444 20.5473 61.3444 20.2457V19.2614C61.2913 19.3144 61.1886 19.3641 61.0361 19.4105C60.887 19.4536 60.7163 19.4917 60.5241 19.5249C60.3318 19.5547 60.1446 19.5829 59.9623 19.6094C59.78 19.6326 59.6275 19.6525 59.5049 19.669C59.2165 19.7055 58.953 19.7668 58.7144 19.853C58.4791 19.9392 58.2902 20.0634 58.1476 20.2259C58.0084 20.3849 57.9388 20.5971 57.9388 20.8622C57.9388 21.2301 58.0747 21.5085 58.3465 21.6974C58.6183 21.883 58.9646 21.9759 59.3856 21.9759ZM64.8108 23V15.3636H66.2476V16.5767H66.3271C66.4664 16.1657 66.7116 15.8426 67.0629 15.6072C67.4176 15.3686 67.8186 15.2493 68.2661 15.2493C68.3589 15.2493 68.4682 15.2526 68.5942 15.2592C68.7235 15.2659 68.8245 15.2741 68.8975 15.2841V16.706C68.8378 16.6894 68.7317 16.6712 68.5793 16.6513C68.4268 16.6281 68.2744 16.6165 68.1219 16.6165C67.7706 16.6165 67.4574 16.6911 67.1823 16.8402C66.9105 16.986 66.695 17.1899 66.536 17.4517C66.3769 17.7102 66.2973 18.0052 66.2973 18.3366V23H64.8108ZM71.551 20.4098L71.5411 18.5952H71.7996L74.8422 15.3636H76.6221L73.1519 19.0426H72.9182L71.551 20.4098ZM70.1839 23V12.8182H71.6704V23H70.1839ZM75.0063 23L72.2719 19.3707L73.2961 18.3317L76.8309 23H75.0063ZM82.6613 23H81.0306L84.6947 12.8182H86.4695L90.1336 23H88.5029L85.6244 14.6676H85.5448L82.6613 23ZM82.9347 19.0128H88.2245V20.3054H82.9347V19.0128ZM92.9711 12.8182V23H91.4846V12.8182H92.9711ZM96.4575 12.8182V23H94.971V12.8182H96.4575ZM104.385 23.169C103.901 23.169 103.463 23.0795 103.072 22.9006C102.681 22.7183 102.371 22.4548 102.142 22.1101C101.917 21.7654 101.804 21.3428 101.804 20.8423C101.804 20.4115 101.887 20.0568 102.053 19.7784C102.219 19.5 102.442 19.2796 102.724 19.1172C103.006 18.9548 103.321 18.8321 103.669 18.7493C104.017 18.6664 104.371 18.6035 104.733 18.5604C105.19 18.5073 105.561 18.4643 105.846 18.4311C106.131 18.3946 106.339 18.3366 106.468 18.2571C106.597 18.1776 106.662 18.0483 106.662 17.8693V17.8345C106.662 17.4003 106.539 17.0639 106.294 16.8253C106.052 16.5866 105.691 16.4673 105.21 16.4673C104.709 16.4673 104.315 16.5784 104.027 16.8004C103.742 17.0192 103.544 17.2628 103.435 17.5312L102.038 17.2131C102.204 16.7491 102.446 16.3745 102.764 16.0895C103.085 15.8011 103.455 15.5923 103.873 15.4631C104.29 15.3305 104.729 15.2642 105.19 15.2642C105.495 15.2642 105.818 15.3007 106.16 15.3736C106.504 15.4432 106.826 15.5724 107.124 15.7614C107.426 15.9503 107.673 16.2204 107.865 16.5717C108.057 16.9197 108.153 17.3722 108.153 17.929V23H106.701V21.956H106.642C106.546 22.1482 106.401 22.3371 106.209 22.5227C106.017 22.7083 105.77 22.8625 105.468 22.9851C105.167 23.1077 104.806 23.169 104.385 23.169ZM104.708 21.9759C105.119 21.9759 105.47 21.8946 105.762 21.7322C106.057 21.5698 106.281 21.3577 106.433 21.0959C106.589 20.8307 106.667 20.5473 106.667 20.2457V19.2614C106.614 19.3144 106.511 19.3641 106.358 19.4105C106.209 19.4536 106.039 19.4917 105.846 19.5249C105.654 19.5547 105.467 19.5829 105.285 19.6094C105.102 19.6326 104.95 19.6525 104.827 19.669C104.539 19.7055 104.275 19.7668 104.037 19.853C103.801 19.9392 103.612 20.0634 103.47 20.2259C103.331 20.3849 103.261 20.5971 103.261 20.8622C103.261 21.2301 103.397 21.5085 103.669 21.6974C103.941 21.883 104.287 21.9759 104.708 21.9759ZM115.855 17.228L114.508 17.4666C114.452 17.2943 114.362 17.1302 114.24 16.9744C114.12 16.8187 113.958 16.6911 113.752 16.5916C113.547 16.4922 113.29 16.4425 112.982 16.4425C112.561 16.4425 112.21 16.5369 111.928 16.7259C111.646 16.9115 111.505 17.1518 111.505 17.4467C111.505 17.7019 111.6 17.9074 111.789 18.0632C111.978 18.219 112.282 18.3466 112.703 18.446L113.916 18.7244C114.619 18.8868 115.143 19.1371 115.487 19.4751C115.832 19.8132 116.005 20.2524 116.005 20.7926C116.005 21.25 115.872 21.6577 115.607 22.0156C115.345 22.3703 114.979 22.6487 114.508 22.8509C114.041 23.053 113.499 23.1541 112.882 23.1541C112.027 23.1541 111.33 22.9718 110.789 22.6072C110.249 22.2393 109.918 21.7173 109.795 21.0412L111.232 20.8224C111.321 21.197 111.505 21.4804 111.784 21.6726C112.062 21.8615 112.425 21.956 112.872 21.956C113.36 21.956 113.749 21.8549 114.041 21.6527C114.332 21.4472 114.478 21.197 114.478 20.902C114.478 20.6634 114.389 20.4628 114.21 20.3004C114.034 20.138 113.764 20.0154 113.399 19.9325L112.107 19.6491C111.394 19.4867 110.867 19.2282 110.526 18.8736C110.188 18.5189 110.019 18.0698 110.019 17.5263C110.019 17.0755 110.145 16.6811 110.397 16.343C110.648 16.005 110.996 15.7415 111.441 15.5526C111.885 15.3603 112.393 15.2642 112.967 15.2642C113.792 15.2642 114.442 15.4432 114.916 15.8011C115.39 16.1558 115.703 16.6314 115.855 17.228ZM121.463 23V12.8182H125.093C125.881 12.8182 126.536 12.9541 127.056 13.2259C127.58 13.4976 127.971 13.8738 128.23 14.3544C128.488 14.8317 128.617 15.3835 128.617 16.0099C128.617 16.633 128.487 17.1816 128.225 17.6555C127.966 18.1262 127.575 18.4924 127.051 18.7543C126.531 19.0161 125.876 19.147 125.088 19.147H122.338V17.8246H124.948C125.446 17.8246 125.85 17.7533 126.161 17.6108C126.476 17.4683 126.707 17.2611 126.853 16.9893C126.998 16.7176 127.071 16.3911 127.071 16.0099C127.071 15.6255 126.997 15.2924 126.848 15.0107C126.702 14.7289 126.471 14.5135 126.157 14.3643C125.845 14.2119 125.436 14.1357 124.929 14.1357H123V23H121.463ZM126.49 18.4062L129.005 23H127.255L124.789 18.4062H126.49ZM133.563 23.1541C132.811 23.1541 132.163 22.9934 131.619 22.6719C131.079 22.3471 130.661 21.8913 130.366 21.3047C130.075 20.7147 129.929 20.0237 129.929 19.2315C129.929 18.4493 130.075 17.7599 130.366 17.1634C130.661 16.5668 131.072 16.1011 131.599 15.7663C132.129 15.4316 132.749 15.2642 133.459 15.2642C133.889 15.2642 134.307 15.3355 134.711 15.478C135.116 15.6205 135.479 15.8442 135.8 16.1491C136.122 16.4541 136.375 16.8501 136.561 17.3374C136.746 17.8213 136.839 18.4096 136.839 19.1023V19.6293H130.769V18.5156H135.383C135.383 18.1245 135.303 17.7782 135.144 17.4766C134.985 17.1716 134.761 16.9313 134.473 16.7557C134.188 16.58 133.853 16.4922 133.468 16.4922C133.051 16.4922 132.686 16.5949 132.375 16.8004C132.066 17.0026 131.828 17.2678 131.659 17.5959C131.493 17.9207 131.41 18.2737 131.41 18.6548V19.5249C131.41 20.0353 131.5 20.4695 131.679 20.8274C131.861 21.1854 132.115 21.4588 132.439 21.6477C132.764 21.8333 133.144 21.9261 133.578 21.9261C133.86 21.9261 134.116 21.8864 134.348 21.8068C134.58 21.724 134.781 21.6013 134.95 21.4389C135.119 21.2765 135.248 21.076 135.338 20.8374L136.745 21.0909C136.632 21.5052 136.43 21.8681 136.138 22.1797C135.85 22.4879 135.487 22.7282 135.049 22.9006C134.615 23.0696 134.12 23.1541 133.563 23.1541ZM140.711 23.169C140.227 23.169 139.789 23.0795 139.398 22.9006C139.007 22.7183 138.697 22.4548 138.469 22.1101C138.243 21.7654 138.131 21.3428 138.131 20.8423C138.131 20.4115 138.213 20.0568 138.379 19.7784C138.545 19.5 138.769 19.2796 139.05 19.1172C139.332 18.9548 139.647 18.8321 139.995 18.7493C140.343 18.6664 140.698 18.6035 141.059 18.5604C141.516 18.5073 141.887 18.4643 142.172 18.4311C142.458 18.3946 142.665 18.3366 142.794 18.2571C142.923 18.1776 142.988 18.0483 142.988 17.8693V17.8345C142.988 17.4003 142.865 17.0639 142.62 16.8253C142.378 16.5866 142.017 16.4673 141.536 16.4673C141.036 16.4673 140.641 16.5784 140.353 16.8004C140.068 17.0192 139.871 17.2628 139.761 17.5312L138.364 17.2131C138.53 16.7491 138.772 16.3745 139.09 16.0895C139.412 15.8011 139.781 15.5923 140.199 15.4631C140.616 15.3305 141.056 15.2642 141.516 15.2642C141.821 15.2642 142.144 15.3007 142.486 15.3736C142.83 15.4432 143.152 15.5724 143.45 15.7614C143.752 15.9503 143.999 16.2204 144.191 16.5717C144.383 16.9197 144.479 17.3722 144.479 17.929V23H143.028V21.956H142.968C142.872 22.1482 142.728 22.3371 142.535 22.5227C142.343 22.7083 142.096 22.8625 141.795 22.9851C141.493 23.1077 141.132 23.169 140.711 23.169ZM141.034 21.9759C141.445 21.9759 141.796 21.8946 142.088 21.7322C142.383 21.5698 142.607 21.3577 142.759 21.0959C142.915 20.8307 142.993 20.5473 142.993 20.2457V19.2614C142.94 19.3144 142.837 19.3641 142.685 19.4105C142.535 19.4536 142.365 19.4917 142.172 19.5249C141.98 19.5547 141.793 19.5829 141.611 19.6094C141.428 19.6326 141.276 19.6525 141.153 19.669C140.865 19.7055 140.601 19.7668 140.363 19.853C140.128 19.9392 139.939 20.0634 139.796 20.2259C139.657 20.3849 139.587 20.5971 139.587 20.8622C139.587 21.2301 139.723 21.5085 139.995 21.6974C140.267 21.883 140.613 21.9759 141.034 21.9759ZM149.318 23.1491C148.701 23.1491 148.151 22.9917 147.667 22.6768C147.187 22.3587 146.809 21.9062 146.534 21.3196C146.262 20.7296 146.126 20.022 146.126 19.1967C146.126 18.3714 146.264 17.6655 146.539 17.0788C146.817 16.4922 147.198 16.0431 147.682 15.7315C148.166 15.42 148.715 15.2642 149.328 15.2642C149.802 15.2642 150.183 15.3438 150.471 15.5028C150.763 15.6586 150.988 15.8409 151.147 16.0497C151.31 16.2585 151.436 16.4425 151.525 16.6016H151.615V12.8182H153.101V23H151.65V21.8118H151.525C151.436 21.9742 151.307 22.1598 151.138 22.3686C150.972 22.5774 150.743 22.7597 150.451 22.9155C150.16 23.0713 149.782 23.1491 149.318 23.1491ZM149.646 21.8814C150.074 21.8814 150.435 21.7687 150.73 21.5433C151.028 21.3146 151.254 20.9981 151.406 20.5938C151.562 20.1894 151.64 19.7187 151.64 19.1818C151.64 18.6515 151.563 18.1875 151.411 17.7898C151.258 17.392 151.035 17.0821 150.74 16.8601C150.445 16.638 150.08 16.527 149.646 16.527C149.199 16.527 148.826 16.643 148.527 16.875C148.229 17.107 148.004 17.4235 147.851 17.8246C147.702 18.2256 147.628 18.678 147.628 19.1818C147.628 19.6922 147.704 20.1513 147.856 20.5589C148.009 20.9666 148.234 21.2898 148.532 21.5284C148.834 21.7637 149.205 21.8814 149.646 21.8814Z" fill="white"/>
<defs>
<clipPath id="clip0_214_790">
<path d="M20 10.75H32.25V24.75H20V10.75Z" fill="white"/>
</clipPath>
</defs>
</svg>
