<svg width="201" height="88" viewBox="0 0 201 88" fill="none" xmlns="http://www.w3.org/2000/svg">
<rect width="201" height="88" rx="16" fill="#6366F1"/>
<rect width="201" height="88" rx="16" stroke="#E5E7EB"/>
<path d="M52.5453 30.4545C52.5453 31.8651 52.2811 33.0732 51.7527 34.0788C51.2285 35.0803 50.5126 35.8473 49.6049 36.38C48.7015 36.9126 47.6767 37.179 46.5304 37.179C45.3841 37.179 44.3571 36.9126 43.4494 36.38C42.546 35.843 41.8301 35.0739 41.3017 34.0724C40.7775 33.0668 40.5154 31.8608 40.5154 30.4545C40.5154 29.044 40.7775 27.8381 41.3017 26.8366C41.8301 25.831 42.546 25.0618 43.4494 24.5291C44.3571 23.9964 45.3841 23.7301 46.5304 23.7301C47.6767 23.7301 48.7015 23.9964 49.6049 24.5291C50.5126 25.0618 51.2285 25.831 51.7527 26.8366C52.2811 27.8381 52.5453 29.044 52.5453 30.4545ZM50.161 30.4545C50.161 29.4616 50.0055 28.6243 49.6944 27.9425C49.3876 27.2564 48.9615 26.7386 48.416 26.3892C47.8706 26.0355 47.242 25.8587 46.5304 25.8587C45.8187 25.8587 45.1902 26.0355 44.6447 26.3892C44.0993 26.7386 43.671 27.2564 43.3599 27.9425C43.0531 28.6243 42.8997 29.4616 42.8997 30.4545C42.8997 31.4474 43.0531 32.2869 43.3599 32.973C43.671 33.6548 44.0993 34.1726 44.6447 34.5263C45.1902 34.8757 45.8187 35.0504 46.5304 35.0504C47.242 35.0504 47.8706 34.8757 48.416 34.5263C48.9615 34.1726 49.3876 33.6548 49.6944 32.973C50.0055 32.2869 50.161 31.4474 50.161 30.4545ZM54.685 40.6818V27.1818H56.9606V28.8054H57.0948C57.2141 28.5668 57.3825 28.3132 57.5998 28.0447C57.8171 27.772 58.1112 27.5398 58.4819 27.348C58.8526 27.152 59.3256 27.054 59.9009 27.054C60.6594 27.054 61.3434 27.2479 61.9528 27.6357C62.5664 28.0192 63.0522 28.5881 63.4102 29.3423C63.7724 30.0923 63.9535 31.0128 63.9535 32.1037C63.9535 33.1818 63.7766 34.098 63.4229 34.8523C63.0692 35.6065 62.5877 36.1818 61.9783 36.5781C61.369 36.9744 60.6786 37.1726 59.9073 37.1726C59.3448 37.1726 58.8782 37.0788 58.5075 36.8913C58.1367 36.7038 57.8384 36.478 57.6126 36.2138C57.391 35.9453 57.2184 35.6918 57.0948 35.4531H56.9989V40.6818H54.685ZM56.9542 32.0909C56.9542 32.7259 57.0437 33.282 57.2227 33.7592C57.4059 34.2365 57.668 34.6094 58.0089 34.8778C58.354 35.142 58.7717 35.2741 59.2617 35.2741C59.7731 35.2741 60.2013 35.1378 60.5465 34.8651C60.8917 34.5881 61.1516 34.2109 61.3263 33.7337C61.5053 33.2521 61.5948 32.7045 61.5948 32.0909C61.5948 31.4815 61.5075 30.9403 61.3327 30.4673C61.158 29.9943 60.8981 29.6236 60.5529 29.3551C60.2077 29.0866 59.7773 28.9524 59.2617 28.9524C58.7674 28.9524 58.3477 29.0824 58.0025 29.3423C57.6573 29.6023 57.3952 29.9666 57.2163 30.4354C57.0415 30.9041 56.9542 31.456 56.9542 32.0909ZM70.2816 37.1918C69.2972 37.1918 68.4471 36.9872 67.7312 36.5781C67.0195 36.1648 66.4719 35.581 66.0884 34.8267C65.7049 34.0682 65.5131 33.1754 65.5131 32.1484C65.5131 31.1385 65.7049 30.2521 66.0884 29.4893C66.4762 28.7223 67.0174 28.1257 67.712 27.6996C68.4066 27.2692 69.2227 27.054 70.1602 27.054C70.7653 27.054 71.3363 27.152 71.8732 27.348C72.4144 27.5398 72.8917 27.8381 73.305 28.2429C73.7227 28.6477 74.0508 29.1634 74.2894 29.7898C74.5281 30.4119 74.6474 31.1534 74.6474 32.0142V32.7237H66.5998V31.1641H72.4293C72.4251 30.7209 72.3292 30.3267 72.1417 29.9815C71.9542 29.6321 71.6921 29.3572 71.3555 29.157C71.0231 28.9567 70.6353 28.8565 70.1921 28.8565C69.7191 28.8565 69.3036 28.9716 68.9457 29.2017C68.5877 29.4276 68.3086 29.7259 68.1083 30.0966C67.9123 30.4631 67.8121 30.8658 67.8079 31.3047V32.6662C67.8079 33.2372 67.9123 33.7273 68.1211 34.1364C68.3299 34.5412 68.6218 34.8523 68.9968 35.0696C69.3718 35.2827 69.8107 35.3892 70.3136 35.3892C70.6502 35.3892 70.9549 35.3423 71.2276 35.2486C71.5004 35.1506 71.7369 35.0078 71.9371 34.8203C72.1374 34.6328 72.2887 34.4006 72.391 34.1236L74.5515 34.3665C74.4151 34.9375 74.1552 35.4361 73.7717 35.8622C73.3924 36.2841 72.9066 36.6122 72.3143 36.8466C71.7219 37.0767 71.0444 37.1918 70.2816 37.1918ZM78.9189 31.2472V37H76.6049V27.1818H78.8166V28.8501H78.9316C79.1575 28.3004 79.5176 27.8636 80.0119 27.5398C80.5105 27.2159 81.1262 27.054 81.8592 27.054C82.5368 27.054 83.127 27.1989 83.6298 27.4886C84.1369 27.7784 84.5289 28.1982 84.8059 28.7479C85.0872 29.2976 85.2257 29.9645 85.2214 30.7486V37H82.9075V31.1065C82.9075 30.4503 82.737 29.9368 82.3961 29.5661C82.0595 29.1953 81.5929 29.0099 80.9963 29.0099C80.5914 29.0099 80.2314 29.0994 79.916 29.2784C79.6049 29.4531 79.3599 29.7067 79.1809 30.0391C79.0062 30.3714 78.9189 30.7741 78.9189 31.2472ZM99.2551 27.5078C99.1955 26.9496 98.9441 26.5149 98.5009 26.2038C98.062 25.8928 97.4909 25.7372 96.7878 25.7372C96.2935 25.7372 95.8695 25.8118 95.5158 25.9609C95.1621 26.1101 94.8915 26.3125 94.704 26.5682C94.5165 26.8239 94.4206 27.1158 94.4164 27.4439C94.4164 27.7166 94.4782 27.9531 94.6017 28.1534C94.7296 28.3537 94.9022 28.5241 95.1195 28.6648C95.3368 28.8011 95.5776 28.9162 95.8418 29.0099C96.106 29.1037 96.3723 29.1825 96.6408 29.2464L97.8681 29.5533C98.3624 29.6683 98.8375 29.8239 99.2935 30.0199C99.7537 30.2159 100.165 30.4631 100.527 30.7614C100.894 31.0597 101.183 31.4197 101.396 31.8416C101.61 32.2635 101.716 32.7578 101.716 33.3246C101.716 34.0916 101.52 34.767 101.128 35.3509C100.736 35.9304 100.169 36.3842 99.4277 36.7124C98.6905 37.0362 97.7978 37.1982 96.7495 37.1982C95.731 37.1982 94.8468 37.0405 94.0968 36.7251C93.351 36.4098 92.7672 35.9496 92.3453 35.3445C91.9277 34.7393 91.7019 34.0021 91.6678 33.1328H94.0009C94.035 33.5888 94.1756 33.968 94.4228 34.2706C94.6699 34.5732 94.9917 34.799 95.388 34.9482C95.7885 35.0973 96.236 35.1719 96.7303 35.1719C97.2459 35.1719 97.6976 35.0952 98.0854 34.9418C98.4775 34.7841 98.7843 34.5668 99.0059 34.2898C99.2275 34.0085 99.3404 33.6804 99.3446 33.3054C99.3404 32.9645 99.2402 32.6832 99.0442 32.4616C98.8482 32.2358 98.5733 32.0483 98.2196 31.8991C97.8702 31.7457 97.4611 31.6094 96.9924 31.4901L95.503 31.1065C94.4249 30.8295 93.5726 30.4098 92.9462 29.8473C92.324 29.2805 92.013 28.5284 92.013 27.5909C92.013 26.8196 92.2218 26.1442 92.6394 25.5646C93.0613 24.9851 93.6344 24.5355 94.3588 24.2159C95.0833 23.892 95.9036 23.7301 96.8198 23.7301C97.7488 23.7301 98.5627 23.892 99.2615 24.2159C99.9647 24.5355 100.517 24.9808 100.917 25.5518C101.318 26.1186 101.524 26.7706 101.537 27.5078H99.2551ZM109.986 32.8707V27.1818H112.3V37H110.056V35.255H109.954C109.732 35.8047 109.368 36.2543 108.861 36.6037C108.358 36.9531 107.738 37.1278 107.001 37.1278C106.357 37.1278 105.788 36.9851 105.294 36.6996C104.804 36.4098 104.42 35.9901 104.143 35.4403C103.866 34.8864 103.728 34.2173 103.728 33.4332V27.1818H106.042V33.0753C106.042 33.6974 106.212 34.1918 106.553 34.5582C106.894 34.9247 107.342 35.108 107.896 35.108C108.237 35.108 108.567 35.0249 108.886 34.8587C109.206 34.6925 109.468 34.4453 109.673 34.1172C109.881 33.7848 109.986 33.3693 109.986 32.8707ZM114.679 40.6818V27.1818H116.955V28.8054H117.089C117.208 28.5668 117.377 28.3132 117.594 28.0447C117.811 27.772 118.105 27.5398 118.476 27.348C118.847 27.152 119.32 27.054 119.895 27.054C120.654 27.054 121.338 27.2479 121.947 27.6357C122.561 28.0192 123.046 28.5881 123.404 29.3423C123.767 30.0923 123.948 31.0128 123.948 32.1037C123.948 33.1818 123.771 34.098 123.417 34.8523C123.063 35.6065 122.582 36.1818 121.972 36.5781C121.363 36.9744 120.673 37.1726 119.901 37.1726C119.339 37.1726 118.872 37.0788 118.502 36.8913C118.131 36.7038 117.833 36.478 117.607 36.2138C117.385 35.9453 117.213 35.6918 117.089 35.4531H116.993V40.6818H114.679ZM116.948 32.0909C116.948 32.7259 117.038 33.282 117.217 33.7592C117.4 34.2365 117.662 34.6094 118.003 34.8778C118.348 35.142 118.766 35.2741 119.256 35.2741C119.767 35.2741 120.195 35.1378 120.541 34.8651C120.886 34.5881 121.146 34.2109 121.32 33.7337C121.499 33.2521 121.589 32.7045 121.589 32.0909C121.589 31.4815 121.502 30.9403 121.327 30.4673C121.152 29.9943 120.892 29.6236 120.547 29.3551C120.202 29.0866 119.771 28.9524 119.256 28.9524C118.762 28.9524 118.342 29.0824 117.997 29.3423C117.651 29.6023 117.389 29.9666 117.21 30.4354C117.036 30.9041 116.948 31.456 116.948 32.0909ZM125.929 40.6818V27.1818H128.205V28.8054H128.339C128.458 28.5668 128.627 28.3132 128.844 28.0447C129.061 27.772 129.355 27.5398 129.726 27.348C130.097 27.152 130.57 27.054 131.145 27.054C131.904 27.054 132.588 27.2479 133.197 27.6357C133.811 28.0192 134.296 28.5881 134.654 29.3423C135.017 30.0923 135.198 31.0128 135.198 32.1037C135.198 33.1818 135.021 34.098 134.667 34.8523C134.313 35.6065 133.832 36.1818 133.222 36.5781C132.613 36.9744 131.923 37.1726 131.151 37.1726C130.589 37.1726 130.122 37.0788 129.752 36.8913C129.381 36.7038 129.083 36.478 128.857 36.2138C128.635 35.9453 128.463 35.6918 128.339 35.4531H128.243V40.6818H125.929ZM128.198 32.0909C128.198 32.7259 128.288 33.282 128.467 33.7592C128.65 34.2365 128.912 34.6094 129.253 34.8778C129.598 35.142 130.016 35.2741 130.506 35.2741C131.017 35.2741 131.445 35.1378 131.791 34.8651C132.136 34.5881 132.396 34.2109 132.57 33.7337C132.749 33.2521 132.839 32.7045 132.839 32.0909C132.839 31.4815 132.752 30.9403 132.577 30.4673C132.402 29.9943 132.142 29.6236 131.797 29.3551C131.452 29.0866 131.021 28.9524 130.506 28.9524C130.012 28.9524 129.592 29.0824 129.247 29.3423C128.901 29.6023 128.639 29.9666 128.46 30.4354C128.286 30.9041 128.198 31.456 128.198 32.0909ZM141.462 37.1918C140.503 37.1918 139.672 36.9808 138.969 36.5589C138.266 36.1371 137.72 35.5469 137.333 34.7884C136.949 34.0298 136.757 33.1435 136.757 32.1293C136.757 31.1151 136.949 30.2266 137.333 29.4638C137.72 28.701 138.266 28.1087 138.969 27.6868C139.672 27.2649 140.503 27.054 141.462 27.054C142.421 27.054 143.252 27.2649 143.955 27.6868C144.658 28.1087 145.201 28.701 145.585 29.4638C145.972 30.2266 146.166 31.1151 146.166 32.1293C146.166 33.1435 145.972 34.0298 145.585 34.7884C145.201 35.5469 144.658 36.1371 143.955 36.5589C143.252 36.9808 142.421 37.1918 141.462 37.1918ZM141.475 35.3381C141.994 35.3381 142.429 35.1953 142.779 34.9098C143.128 34.62 143.388 34.2322 143.558 33.7464C143.733 33.2607 143.82 32.7195 143.82 32.1229C143.82 31.522 143.733 30.9787 143.558 30.4929C143.388 30.0028 143.128 29.6129 142.779 29.3232C142.429 29.0334 141.994 28.8885 141.475 28.8885C140.942 28.8885 140.499 29.0334 140.145 29.3232C139.796 29.6129 139.534 30.0028 139.359 30.4929C139.188 30.9787 139.103 31.522 139.103 32.1229C139.103 32.7195 139.188 33.2607 139.359 33.7464C139.534 34.2322 139.796 34.62 140.145 34.9098C140.499 35.1953 140.942 35.3381 141.475 35.3381ZM148.13 37V27.1818H150.374V28.8182H150.476C150.655 28.2514 150.962 27.8146 151.397 27.5078C151.836 27.1967 152.336 27.0412 152.899 27.0412C153.027 27.0412 153.169 27.0476 153.327 27.0604C153.489 27.0689 153.623 27.0838 153.73 27.1051V29.2337C153.632 29.1996 153.476 29.1697 153.263 29.1442C153.054 29.1143 152.852 29.0994 152.656 29.0994C152.234 29.0994 151.855 29.1911 151.518 29.3743C151.186 29.5533 150.924 29.8026 150.732 30.1222C150.54 30.4418 150.444 30.8104 150.444 31.228V37H148.13ZM160.697 27.1818V28.9716H155.053V27.1818H160.697ZM156.446 24.8295H158.76V34.0469C158.76 34.358 158.807 34.5966 158.901 34.7628C158.999 34.9247 159.127 35.0355 159.284 35.0952C159.442 35.1548 159.617 35.1847 159.809 35.1847C159.953 35.1847 160.086 35.174 160.205 35.1527C160.328 35.1314 160.422 35.1122 160.486 35.0952L160.876 36.9041C160.752 36.9467 160.576 36.9936 160.346 37.0447C160.12 37.0959 159.843 37.1257 159.515 37.1342C158.935 37.1513 158.413 37.0639 157.949 36.8722C157.484 36.6761 157.115 36.3736 156.843 35.9645C156.574 35.5554 156.442 35.044 156.446 34.4304V24.8295Z" fill="white"/>
<path d="M79.757 65V51.9091H88.1434V53.897H82.1285V57.451H87.5681V59.4389H82.1285V65H79.757ZM93.7636 65.1918C92.8048 65.1918 91.9738 64.9808 91.2707 64.5589C90.5676 64.1371 90.0221 63.5469 89.6343 62.7884C89.2508 62.0298 89.059 61.1435 89.059 60.1293C89.059 59.1151 89.2508 58.2266 89.6343 57.4638C90.0221 56.701 90.5676 56.1087 91.2707 55.6868C91.9738 55.2649 92.8048 55.054 93.7636 55.054C94.7224 55.054 95.5534 55.2649 96.2565 55.6868C96.9596 56.1087 97.5029 56.701 97.8865 57.4638C98.2742 58.2266 98.4681 59.1151 98.4681 60.1293C98.4681 61.1435 98.2742 62.0298 97.8865 62.7884C97.5029 63.5469 96.9596 64.1371 96.2565 64.5589C95.5534 64.9808 94.7224 65.1918 93.7636 65.1918ZM93.7764 63.3381C94.2963 63.3381 94.7309 63.1953 95.0803 62.9098C95.4298 62.62 95.6897 62.2322 95.8602 61.7464C96.0349 61.2607 96.1222 60.7195 96.1222 60.1229C96.1222 59.522 96.0349 58.9787 95.8602 58.4929C95.6897 58.0028 95.4298 57.6129 95.0803 57.3232C94.7309 57.0334 94.2963 56.8885 93.7764 56.8885C93.2437 56.8885 92.8005 57.0334 92.4468 57.3232C92.0974 57.6129 91.8353 58.0028 91.6606 58.4929C91.4901 58.9787 91.4049 59.522 91.4049 60.1229C91.4049 60.7195 91.4901 61.2607 91.6606 61.7464C91.8353 62.2322 92.0974 62.62 92.4468 62.9098C92.8005 63.1953 93.2437 63.3381 93.7764 63.3381ZM100.432 65V55.1818H102.676V56.8182H102.778C102.957 56.2514 103.264 55.8146 103.698 55.5078C104.137 55.1967 104.638 55.0412 105.201 55.0412C105.328 55.0412 105.471 55.0476 105.629 55.0604C105.791 55.0689 105.925 55.0838 106.032 55.1051V57.2337C105.934 57.1996 105.778 57.1697 105.565 57.1442C105.356 57.1143 105.154 57.0994 104.958 57.0994C104.536 57.0994 104.157 57.1911 103.82 57.3743C103.487 57.5533 103.225 57.8026 103.034 58.1222C102.842 58.4418 102.746 58.8104 102.746 59.228V65H100.432ZM107.569 65V55.1818H109.78V56.8501H109.896C110.1 56.2876 110.439 55.8487 110.912 55.5334C111.385 55.2138 111.949 55.054 112.606 55.054C113.271 55.054 113.831 55.2159 114.287 55.5398C114.747 55.8594 115.071 56.2962 115.258 56.8501H115.361C115.578 56.3047 115.945 55.87 116.46 55.5462C116.98 55.218 117.596 55.054 118.307 55.054C119.211 55.054 119.948 55.3395 120.519 55.9105C121.09 56.4815 121.376 57.3146 121.376 58.4098V65H119.055V58.7678C119.055 58.1584 118.893 57.7131 118.57 57.4318C118.246 57.1463 117.849 57.0036 117.381 57.0036C116.822 57.0036 116.386 57.1783 116.07 57.5277C115.759 57.8729 115.604 58.3224 115.604 58.8764V65H113.334V58.6719C113.334 58.1648 113.181 57.7599 112.874 57.4574C112.572 57.1548 112.175 57.0036 111.685 57.0036C111.353 57.0036 111.05 57.0888 110.778 57.2592C110.505 57.4254 110.288 57.6619 110.126 57.9688C109.964 58.2713 109.883 58.625 109.883 59.0298V65H107.569Z" fill="white"/>
</svg>
