<svg width="384" height="48" viewBox="0 0 384 48" fill="none" xmlns="http://www.w3.org/2000/svg">
<rect width="384" height="48" rx="16" fill="#6366F1"/>
<path d="M110.433 22.1477H108.66C108.592 21.7689 108.465 21.4356 108.279 21.1477C108.094 20.8598 107.867 20.6155 107.598 20.4148C107.329 20.214 107.028 20.0625 106.694 19.9602C106.365 19.858 106.014 19.8068 105.643 19.8068C104.973 19.8068 104.372 19.9754 103.842 20.3125C103.315 20.6496 102.899 21.1439 102.592 21.7955C102.289 22.447 102.137 23.2424 102.137 24.1818C102.137 25.1288 102.289 25.928 102.592 26.5795C102.899 27.2311 103.317 27.7235 103.848 28.0568C104.378 28.3902 104.975 28.5568 105.637 28.5568C106.005 28.5568 106.353 28.5076 106.683 28.4091C107.016 28.3068 107.317 28.1572 107.586 27.9602C107.855 27.7633 108.083 27.5227 108.268 27.2386C108.458 26.9508 108.588 26.6212 108.66 26.25L110.433 26.2557C110.338 26.8277 110.154 27.3542 109.882 27.8352C109.613 28.3125 109.266 28.7254 108.842 29.0739C108.422 29.4186 107.94 29.6856 107.399 29.875C106.857 30.0644 106.266 30.1591 105.626 30.1591C104.618 30.1591 103.721 29.9205 102.933 29.4432C102.145 28.9621 101.524 28.2746 101.069 27.3807C100.618 26.4867 100.393 25.4205 100.393 24.1818C100.393 22.9394 100.62 21.8731 101.075 20.983C101.529 20.089 102.151 19.4034 102.939 18.9261C103.726 18.4451 104.622 18.2045 105.626 18.2045C106.243 18.2045 106.819 18.2936 107.353 18.4716C107.891 18.6458 108.374 18.9034 108.802 19.2443C109.23 19.5814 109.584 19.9943 109.865 20.483C110.145 20.9678 110.334 21.5227 110.433 22.1477ZM116.074 30.1761C115.255 30.1761 114.541 29.9886 113.931 29.6136C113.322 29.2386 112.848 28.714 112.511 28.0398C112.174 27.3655 112.005 26.5777 112.005 25.6761C112.005 24.7708 112.174 23.9792 112.511 23.3011C112.848 22.6231 113.322 22.0966 113.931 21.7216C114.541 21.3466 115.255 21.1591 116.074 21.1591C116.892 21.1591 117.606 21.3466 118.216 21.7216C118.825 22.0966 119.299 22.6231 119.636 23.3011C119.973 23.9792 120.142 24.7708 120.142 25.6761C120.142 26.5777 119.973 27.3655 119.636 28.0398C119.299 28.714 118.825 29.2386 118.216 29.6136C117.606 29.9886 116.892 30.1761 116.074 30.1761ZM116.079 28.75C116.609 28.75 117.049 28.6098 117.397 28.3295C117.746 28.0492 118.003 27.6761 118.17 27.2102C118.341 26.7443 118.426 26.2311 118.426 25.6705C118.426 25.1136 118.341 24.6023 118.17 24.1364C118.003 23.6667 117.746 23.2898 117.397 23.0057C117.049 22.7216 116.609 22.5795 116.079 22.5795C115.545 22.5795 115.102 22.7216 114.75 23.0057C114.401 23.2898 114.142 23.6667 113.971 24.1364C113.805 24.6023 113.721 25.1136 113.721 25.6705C113.721 26.2311 113.805 26.7443 113.971 27.2102C114.142 27.6761 114.401 28.0492 114.75 28.3295C115.102 28.6098 115.545 28.75 116.079 28.75ZM123.737 24.8182V30H122.038V21.2727H123.669V22.6932H123.777C123.977 22.2311 124.292 21.8598 124.72 21.5795C125.152 21.2992 125.695 21.1591 126.351 21.1591C126.945 21.1591 127.466 21.2841 127.913 21.5341C128.36 21.7803 128.707 22.1477 128.953 22.6364C129.199 23.125 129.322 23.7292 129.322 24.4489V30H127.623V24.6534C127.623 24.0208 127.458 23.5265 127.129 23.1705C126.799 22.8106 126.347 22.6307 125.771 22.6307C125.377 22.6307 125.027 22.7159 124.72 22.8864C124.417 23.0568 124.176 23.3068 123.998 23.6364C123.824 23.9621 123.737 24.3561 123.737 24.8182ZM135.674 21.2727V22.6364H130.907V21.2727H135.674ZM132.186 19.1818H133.885V27.4375C133.885 27.767 133.934 28.0152 134.032 28.1818C134.131 28.3447 134.258 28.4564 134.413 28.517C134.572 28.5739 134.744 28.6023 134.93 28.6023C135.066 28.6023 135.186 28.5928 135.288 28.5739C135.39 28.5549 135.47 28.5398 135.527 28.5284L135.833 29.9318C135.735 29.9697 135.595 30.0076 135.413 30.0455C135.231 30.0871 135.004 30.1098 134.731 30.1136C134.284 30.1212 133.868 30.0417 133.481 29.875C133.095 29.7083 132.782 29.4508 132.544 29.1023C132.305 28.7538 132.186 28.3163 132.186 27.7898V19.1818ZM137.554 30V21.2727H139.252V30H137.554ZM138.412 19.9261C138.116 19.9261 137.862 19.8277 137.65 19.6307C137.442 19.4299 137.338 19.1913 137.338 18.9148C137.338 18.6345 137.442 18.3958 137.65 18.1989C137.862 17.9981 138.116 17.8977 138.412 17.8977C138.707 17.8977 138.959 17.9981 139.167 18.1989C139.379 18.3958 139.485 18.6345 139.485 18.9148C139.485 19.1913 139.379 19.4299 139.167 19.6307C138.959 19.8277 138.707 19.9261 138.412 19.9261ZM143.237 24.8182V30H141.538V21.2727H143.169V22.6932H143.277C143.477 22.2311 143.792 21.8598 144.22 21.5795C144.652 21.2992 145.195 21.1591 145.851 21.1591C146.445 21.1591 146.966 21.2841 147.413 21.5341C147.86 21.7803 148.207 22.1477 148.453 22.6364C148.699 23.125 148.822 23.7292 148.822 24.4489V30H147.123V24.6534C147.123 24.0208 146.958 23.5265 146.629 23.1705C146.299 22.8106 145.847 22.6307 145.271 22.6307C144.877 22.6307 144.527 22.7159 144.22 22.8864C143.917 23.0568 143.676 23.3068 143.498 23.6364C143.324 23.9621 143.237 24.3561 143.237 24.8182ZM156.629 26.3807V21.2727H158.333V30H156.663V28.4886H156.572C156.371 28.9545 156.049 29.3428 155.606 29.6534C155.167 29.9602 154.619 30.1136 153.964 30.1136C153.404 30.1136 152.907 29.9905 152.476 29.7443C152.047 29.4943 151.71 29.125 151.464 28.6364C151.222 28.1477 151.101 27.5436 151.101 26.8239V21.2727H152.799V26.6193C152.799 27.214 152.964 27.6875 153.294 28.0398C153.623 28.392 154.051 28.5682 154.578 28.5682C154.896 28.5682 155.212 28.4886 155.527 28.3295C155.845 28.1705 156.108 27.9299 156.316 27.608C156.529 27.286 156.633 26.8769 156.629 26.3807ZM164.377 30.1761C163.518 30.1761 162.777 29.9924 162.156 29.625C161.538 29.2538 161.061 28.733 160.724 28.0625C160.391 27.3883 160.224 26.5985 160.224 25.6932C160.224 24.7992 160.391 24.0114 160.724 23.3295C161.061 22.6477 161.531 22.1155 162.133 21.733C162.739 21.3504 163.448 21.1591 164.258 21.1591C164.751 21.1591 165.228 21.2405 165.69 21.4034C166.152 21.5663 166.567 21.822 166.934 22.1705C167.302 22.5189 167.592 22.9716 167.804 23.5284C168.016 24.0814 168.122 24.7538 168.122 25.5455V26.1477H161.184V24.875H166.457C166.457 24.428 166.366 24.0322 166.184 23.6875C166.002 23.339 165.747 23.0644 165.417 22.8636C165.092 22.6629 164.709 22.5625 164.27 22.5625C163.792 22.5625 163.376 22.6799 163.02 22.9148C162.667 23.1458 162.395 23.4489 162.201 23.8239C162.012 24.1951 161.917 24.5985 161.917 25.0341V26.0284C161.917 26.6117 162.02 27.108 162.224 27.517C162.432 27.9261 162.722 28.2386 163.093 28.4545C163.465 28.6667 163.898 28.7727 164.395 28.7727C164.717 28.7727 165.01 28.7273 165.275 28.6364C165.54 28.5417 165.77 28.4015 165.963 28.2159C166.156 28.0303 166.304 27.8011 166.406 27.5284L168.014 27.8182C167.885 28.2917 167.654 28.7064 167.321 29.0625C166.991 29.4148 166.576 29.6894 166.076 29.8864C165.58 30.0795 165.014 30.1761 164.377 30.1761ZM174.735 24.1818C174.735 22.7576 174.923 21.447 175.298 20.25C175.673 19.053 176.22 17.9489 176.94 16.9375H178.497C178.217 17.3125 177.955 17.7727 177.713 18.3182C177.47 18.8636 177.258 19.4621 177.076 20.1136C176.895 20.7614 176.752 21.4337 176.65 22.1307C176.548 22.8239 176.497 23.5076 176.497 24.1818C176.497 25.0833 176.586 25.9962 176.764 26.9205C176.942 27.8447 177.182 28.7027 177.485 29.4943C177.788 30.286 178.126 30.9318 178.497 31.4318H176.94C176.22 30.4205 175.673 29.3163 175.298 28.1193C174.923 26.9223 174.735 25.6098 174.735 24.1818ZM180.424 30V18.3636H184.572C185.477 18.3636 186.227 18.5284 186.822 18.858C187.417 19.1875 187.862 19.6383 188.157 20.2102C188.453 20.7784 188.601 21.4186 188.601 22.1307C188.601 22.8466 188.451 23.4905 188.152 24.0625C187.856 24.6307 187.409 25.0814 186.811 25.4148C186.216 25.7443 185.468 25.9091 184.566 25.9091H181.714V24.4205H184.407C184.979 24.4205 185.443 24.322 185.799 24.125C186.155 23.9242 186.417 23.6515 186.583 23.3068C186.75 22.9621 186.833 22.5701 186.833 22.1307C186.833 21.6913 186.75 21.3011 186.583 20.9602C186.417 20.6193 186.154 20.3523 185.794 20.1591C185.438 19.9659 184.968 19.8693 184.385 19.8693H182.18V30H180.424ZM194.174 30.1761C193.315 30.1761 192.574 29.9924 191.953 29.625C191.335 29.2538 190.858 28.733 190.521 28.0625C190.188 27.3883 190.021 26.5985 190.021 25.6932C190.021 24.7992 190.188 24.0114 190.521 23.3295C190.858 22.6477 191.328 22.1155 191.93 21.733C192.536 21.3504 193.244 21.1591 194.055 21.1591C194.547 21.1591 195.025 21.2405 195.487 21.4034C195.949 21.5663 196.364 21.822 196.731 22.1705C197.099 22.5189 197.388 22.9716 197.601 23.5284C197.813 24.0814 197.919 24.7538 197.919 25.5455V26.1477H190.981V24.875H196.254C196.254 24.428 196.163 24.0322 195.981 23.6875C195.799 23.339 195.544 23.0644 195.214 22.8636C194.888 22.6629 194.506 22.5625 194.066 22.5625C193.589 22.5625 193.172 22.6799 192.816 22.9148C192.464 23.1458 192.191 23.4489 191.998 23.8239C191.809 24.1951 191.714 24.5985 191.714 25.0341V26.0284C191.714 26.6117 191.816 27.108 192.021 27.517C192.229 27.9261 192.519 28.2386 192.89 28.4545C193.261 28.6667 193.695 28.7727 194.191 28.7727C194.513 28.7727 194.807 28.7273 195.072 28.6364C195.337 28.5417 195.566 28.4015 195.76 28.2159C195.953 28.0303 196.101 27.8011 196.203 27.5284L197.811 27.8182C197.682 28.2917 197.451 28.7064 197.118 29.0625C196.788 29.4148 196.373 29.6894 195.873 29.8864C195.377 30.0795 194.811 30.1761 194.174 30.1761ZM199.804 30V21.2727H201.446V22.6591H201.537C201.696 22.1894 201.976 21.8201 202.377 21.5511C202.783 21.2784 203.241 21.142 203.752 21.142C203.859 21.142 203.984 21.1458 204.127 21.1534C204.275 21.161 204.391 21.1705 204.474 21.1818V22.8068C204.406 22.7879 204.285 22.767 204.11 22.7443C203.936 22.7178 203.762 22.7045 203.588 22.7045C203.186 22.7045 202.828 22.7898 202.514 22.9602C202.203 23.1269 201.957 23.3598 201.775 23.6591C201.593 23.9545 201.502 24.2917 201.502 24.6705V30H199.804ZM212.484 23.4034L210.944 23.6761C210.88 23.4792 210.778 23.2917 210.637 23.1136C210.501 22.9356 210.315 22.7898 210.081 22.6761C209.846 22.5625 209.552 22.5057 209.2 22.5057C208.719 22.5057 208.317 22.6136 207.995 22.8295C207.673 23.0417 207.512 23.3163 207.512 23.6534C207.512 23.9451 207.62 24.1799 207.836 24.358C208.052 24.536 208.401 24.6818 208.882 24.7955L210.268 25.1136C211.071 25.2992 211.67 25.5852 212.064 25.9716C212.458 26.358 212.654 26.8598 212.654 27.4773C212.654 28 212.503 28.4659 212.2 28.875C211.901 29.2803 211.482 29.5985 210.944 29.8295C210.41 30.0606 209.791 30.1761 209.086 30.1761C208.109 30.1761 207.312 29.9678 206.694 29.5511C206.077 29.1307 205.698 28.5341 205.558 27.7614L207.2 27.5114C207.302 27.9394 207.512 28.2633 207.831 28.483C208.149 28.6989 208.564 28.8068 209.075 28.8068C209.632 28.8068 210.077 28.6913 210.41 28.4602C210.743 28.2254 210.91 27.9394 210.91 27.6023C210.91 27.3295 210.808 27.1004 210.603 26.9148C210.403 26.7292 210.094 26.589 209.677 26.4943L208.2 26.1705C207.386 25.9848 206.783 25.6894 206.393 25.2841C206.007 24.8788 205.814 24.3655 205.814 23.7443C205.814 23.2292 205.958 22.7784 206.245 22.392C206.533 22.0057 206.931 21.7045 207.439 21.4886C207.946 21.2689 208.528 21.1591 209.183 21.1591C210.126 21.1591 210.868 21.3636 211.41 21.7727C211.952 22.178 212.31 22.7216 212.484 23.4034ZM218.199 30.1761C217.38 30.1761 216.666 29.9886 216.056 29.6136C215.447 29.2386 214.973 28.714 214.636 28.0398C214.299 27.3655 214.13 26.5777 214.13 25.6761C214.13 24.7708 214.299 23.9792 214.636 23.3011C214.973 22.6231 215.447 22.0966 216.056 21.7216C216.666 21.3466 217.38 21.1591 218.199 21.1591C219.017 21.1591 219.731 21.3466 220.341 21.7216C220.95 22.0966 221.424 22.6231 221.761 23.3011C222.098 23.9792 222.267 24.7708 222.267 25.6761C222.267 26.5777 222.098 27.3655 221.761 28.0398C221.424 28.714 220.95 29.2386 220.341 29.6136C219.731 29.9886 219.017 30.1761 218.199 30.1761ZM218.204 28.75C218.734 28.75 219.174 28.6098 219.522 28.3295C219.871 28.0492 220.128 27.6761 220.295 27.2102C220.466 26.7443 220.551 26.2311 220.551 25.6705C220.551 25.1136 220.466 24.6023 220.295 24.1364C220.128 23.6667 219.871 23.2898 219.522 23.0057C219.174 22.7216 218.734 22.5795 218.204 22.5795C217.67 22.5795 217.227 22.7216 216.875 23.0057C216.526 23.2898 216.267 23.6667 216.096 24.1364C215.93 24.6023 215.846 25.1136 215.846 25.6705C215.846 26.2311 215.93 26.7443 216.096 27.2102C216.267 27.6761 216.526 28.0492 216.875 28.3295C217.227 28.6098 217.67 28.75 218.204 28.75ZM225.862 24.8182V30H224.163V21.2727H225.794V22.6932H225.902C226.102 22.2311 226.417 21.8598 226.845 21.5795C227.277 21.2992 227.82 21.1591 228.476 21.1591C229.07 21.1591 229.591 21.2841 230.038 21.5341C230.485 21.7803 230.832 22.1477 231.078 22.6364C231.324 23.125 231.447 23.7292 231.447 24.4489V30H229.748V24.6534C229.748 24.0208 229.583 23.5265 229.254 23.1705C228.924 22.8106 228.472 22.6307 227.896 22.6307C227.502 22.6307 227.152 22.7159 226.845 22.8864C226.542 23.0568 226.301 23.3068 226.123 23.6364C225.949 23.9621 225.862 24.3561 225.862 24.8182ZM236.265 30.1932C235.712 30.1932 235.212 30.0909 234.765 29.8864C234.318 29.678 233.964 29.3769 233.703 28.983C233.445 28.589 233.316 28.1061 233.316 27.5341C233.316 27.0417 233.411 26.6364 233.601 26.3182C233.79 26 234.046 25.7481 234.368 25.5625C234.69 25.3769 235.049 25.2367 235.447 25.142C235.845 25.0473 236.25 24.9754 236.663 24.9261C237.186 24.8655 237.61 24.8163 237.936 24.7784C238.261 24.7367 238.498 24.6705 238.646 24.5795C238.794 24.4886 238.868 24.3409 238.868 24.1364V24.0966C238.868 23.6004 238.727 23.2159 238.447 22.9432C238.171 22.6705 237.758 22.5341 237.208 22.5341C236.636 22.5341 236.186 22.661 235.856 22.9148C235.53 23.1648 235.305 23.4432 235.18 23.75L233.583 23.3864C233.773 22.8561 234.049 22.428 234.413 22.1023C234.78 21.7727 235.203 21.5341 235.68 21.3864C236.157 21.2348 236.659 21.1591 237.186 21.1591C237.534 21.1591 237.904 21.2008 238.294 21.2841C238.688 21.3636 239.055 21.5114 239.396 21.7273C239.741 21.9432 240.023 22.2519 240.243 22.6534C240.462 23.0511 240.572 23.5682 240.572 24.2045V30H238.913V28.8068H238.845C238.735 29.0265 238.57 29.2424 238.351 29.4545C238.131 29.6667 237.849 29.8428 237.504 29.983C237.159 30.1231 236.746 30.1932 236.265 30.1932ZM236.635 28.8295C237.104 28.8295 237.506 28.7367 237.839 28.5511C238.176 28.3655 238.432 28.1231 238.606 27.8239C238.784 27.5208 238.873 27.197 238.873 26.8523V25.7273C238.813 25.7879 238.695 25.8447 238.521 25.8977C238.351 25.947 238.155 25.9905 237.936 26.0284C237.716 26.0625 237.502 26.0947 237.294 26.125C237.085 26.1515 236.911 26.1742 236.771 26.1932C236.441 26.2348 236.14 26.3049 235.868 26.4034C235.599 26.5019 235.383 26.6439 235.22 26.8295C235.061 27.0114 234.981 27.2538 234.981 27.5568C234.981 27.9773 235.136 28.2955 235.447 28.5114C235.758 28.7235 236.154 28.8295 236.635 28.8295ZM244.534 18.3636V30H242.835V18.3636H244.534ZM252.946 18.3636V30H251.19V18.3636H252.946ZM257.065 24.8182V30H255.366V21.2727H256.997V22.6932H257.105C257.306 22.2311 257.62 21.8598 258.048 21.5795C258.48 21.2992 259.023 21.1591 259.679 21.1591C260.273 21.1591 260.794 21.2841 261.241 21.5341C261.688 21.7803 262.035 22.1477 262.281 22.6364C262.527 23.125 262.65 23.7292 262.65 24.4489V30H260.951V24.6534C260.951 24.0208 260.787 23.5265 260.457 23.1705C260.127 22.8106 259.675 22.6307 259.099 22.6307C258.705 22.6307 258.355 22.7159 258.048 22.8864C257.745 23.0568 257.504 23.3068 257.326 23.6364C257.152 23.9621 257.065 24.3561 257.065 24.8182ZM269.082 21.2727V22.6364H264.15V21.2727H269.082ZM265.502 30V20.2614C265.502 19.7159 265.622 19.2633 265.86 18.9034C266.099 18.5398 266.415 18.2689 266.809 18.0909C267.203 17.9091 267.631 17.8182 268.093 17.8182C268.434 17.8182 268.726 17.8466 268.968 17.9034C269.211 17.9564 269.391 18.0057 269.508 18.0511L269.11 19.4261C269.031 19.4034 268.929 19.3769 268.804 19.3466C268.679 19.3125 268.527 19.2955 268.349 19.2955C267.936 19.2955 267.641 19.3977 267.463 19.6023C267.288 19.8068 267.201 20.1023 267.201 20.4886V30H265.502ZM274.167 30.1761C273.349 30.1761 272.635 29.9886 272.025 29.6136C271.415 29.2386 270.942 28.714 270.605 28.0398C270.268 27.3655 270.099 26.5777 270.099 25.6761C270.099 24.7708 270.268 23.9792 270.605 23.3011C270.942 22.6231 271.415 22.0966 272.025 21.7216C272.635 21.3466 273.349 21.1591 274.167 21.1591C274.985 21.1591 275.699 21.3466 276.309 21.7216C276.919 22.0966 277.393 22.6231 277.73 23.3011C278.067 23.9792 278.235 24.7708 278.235 25.6761C278.235 26.5777 278.067 27.3655 277.73 28.0398C277.393 28.714 276.919 29.2386 276.309 29.6136C275.699 29.9886 274.985 30.1761 274.167 30.1761ZM274.173 28.75C274.703 28.75 275.143 28.6098 275.491 28.3295C275.84 28.0492 276.097 27.6761 276.264 27.2102C276.434 26.7443 276.52 26.2311 276.52 25.6705C276.52 25.1136 276.434 24.6023 276.264 24.1364C276.097 23.6667 275.84 23.2898 275.491 23.0057C275.143 22.7216 274.703 22.5795 274.173 22.5795C273.639 22.5795 273.196 22.7216 272.843 23.0057C272.495 23.2898 272.235 23.6667 272.065 24.1364C271.898 24.6023 271.815 25.1136 271.815 25.6705C271.815 26.2311 271.898 26.7443 272.065 27.2102C272.235 27.6761 272.495 28.0492 272.843 28.3295C273.196 28.6098 273.639 28.75 274.173 28.75ZM283.196 25.1705C283.196 26.5985 283.008 27.911 282.633 29.108C282.258 30.3049 281.711 31.4091 280.991 32.4205H279.434C279.715 32.0455 279.976 31.5852 280.218 31.0398C280.461 30.4943 280.673 29.8977 280.855 29.25C281.037 28.5985 281.179 27.9242 281.281 27.2273C281.383 26.5303 281.434 25.8447 281.434 25.1705C281.434 24.2727 281.345 23.3617 281.167 22.4375C280.989 21.5133 280.749 20.6553 280.446 19.8636C280.143 19.072 279.806 18.4261 279.434 17.9261H280.991C281.711 18.9375 282.258 20.0417 282.633 21.2386C283.008 22.4356 283.196 23.7462 283.196 25.1705Z" fill="white"/>
</svg>
