<svg width="203" height="64" viewBox="0 0 203 64" fill="none" xmlns="http://www.w3.org/2000/svg">
<g clip-path="url(#clip0_214_734)">
<path d="M53.0484 41.344C53.5583 41.8219 53.5892 41.2416 53.6923 40.9301C56.1389 33.536 57.2515 25.6939 59.6878 18.2827C61.9954 17.6597 64.3906 17.8475 66.6878 18.4363L58.0859 46.8181L57.3442 47.2917C54.1713 47.3088 48.7371 48.5248 47.0889 45.3717L38.7188 18.688C41.3714 17.8859 45.0646 16.9088 46.8107 19.5541C48.1757 21.6235 50.303 30.1525 51.1065 33.0069C51.4516 34.2443 52.7136 41.0325 53.0433 41.3397L53.0484 41.344Z" fill="#231F20"/>
<path d="M113.112 25.5616C122.868 24.3157 127.282 30.3573 126.566 38.3829C125.953 45.248 119.756 49.3397 112.169 47.4923C101.517 44.8981 102.068 26.9696 113.112 25.5616ZM113.606 30.9547C111.551 32.6443 110.65 44.3093 116.784 42.7008C119.545 41.9755 119.118 34.5429 118.448 32.5632C117.778 30.5835 115.528 29.3803 113.606 30.9589V30.9547Z" fill="#231F20"/>
<path d="M86.4563 38.7968H74.0479C73.9191 39.8763 74.5012 41.5275 75.521 42.1589C78.5034 44.0064 83.9684 41.2373 84.808 41.6768C85.2355 41.9029 86.5696 44.8725 86.4769 45.4059C79.6263 49.3483 68.9074 49.2544 66.8676 40.7893C65.3533 34.5131 67.0994 26.0096 75.7786 25.472C85.1016 24.8917 88.6918 31.4197 86.4511 38.7925L86.4563 38.7968ZM80.095 34.2656C80.8831 28.7147 73.404 28.6464 74.0479 34.2656H80.095Z" fill="#231F20"/>
<path d="M102.327 42.5173C102.687 42.7776 102.852 46.8309 102.672 46.9931C97.5466 47.3984 92.1227 48.6699 91.5407 42.6283C90.7475 34.3936 92.1691 25.1776 91.5407 16.8363C91.3656 15.4965 93.7401 15.7653 94.8939 15.8635C98.1441 16.1365 98.6489 17.2331 98.8858 19.9552C99.4781 26.6923 98.4016 34.0907 98.8961 40.9003C99.2618 42.9995 101.693 42.0523 102.332 42.5173H102.327Z" fill="#231F20"/>
<path d="M32.9959 0H32.043V64H32.9959V0Z" fill="#231F20"/>
<path d="M134.735 21.2352H136.147V46.2763H149.817V47.3856H134.735V21.2352Z" fill="#231F20"/>
<path d="M154.051 22.2677C154.051 21.3973 154.756 20.9195 155.55 20.9195C156.343 20.9195 157.049 21.3931 157.049 22.2677C157.049 23.0613 156.343 23.616 155.55 23.616C154.756 23.616 154.051 23.0613 154.051 22.2677ZM154.844 28.4459H156.168V47.3856H154.844V28.4459Z" fill="#231F20"/>
<path d="M164.636 28.4459H165.784L165.96 31.4581H166.047C168.252 29.4784 170.456 27.9723 173.366 27.9723C177.688 27.9723 179.717 30.272 179.717 35.1829V47.3856H178.394V35.3408C178.394 31.1424 176.895 29.0816 173.279 29.0816C170.631 29.0816 168.695 30.3488 165.96 32.8875V47.3899H164.636V28.4501V28.4459Z" fill="#231F20"/>
<path d="M187.83 18.7819H189.154V40.4949H189.241L200.177 28.4501H201.763L194.974 35.8997L202.999 47.3899H201.5L194.181 36.8512L189.154 42.1589V47.3899H187.83V18.7819Z" fill="#231F20"/>
<path d="M20.6908 29.4144C20.8556 29.4144 21.0256 29.4101 21.1853 29.4144C21.3346 29.4229 21.4634 29.4229 21.5922 29.4315C21.721 29.4357 21.8497 29.4613 22.0043 29.4613C22.4524 29.4699 22.4884 29.4357 22.6327 29.4699C22.7254 29.4912 22.8181 29.4315 22.8129 29.3504C22.7151 25.3227 23.8998 21.7643 18.6768 18.3339C14.6746 15.7056 8.52449 16.2475 5.14038 19.4133C1.75628 22.5792 2.38983 23.9104 2.38468 27.2725C2.38468 27.5243 2.64737 27.7205 2.94612 27.6992C3.7136 27.6352 5.04767 27.5712 5.76879 27.5456C6.03663 27.5371 6.24782 27.3579 6.26327 27.1403C6.39204 24.5035 5.36187 23.296 8.32361 21.1712C10.2449 19.7931 13.5826 19.4688 15.7923 20.5013C20.3457 22.6304 18.8313 26.1504 19.0889 29.4187C19.2743 29.4187 19.4597 29.4187 19.6452 29.4187C19.8306 29.4187 20.016 29.4187 20.2015 29.4187C20.3663 29.4187 20.5311 29.4187 20.6959 29.4187L20.6908 29.4144Z" fill="#231F20"/>
<path d="M22.9725 29.9349C22.6273 29.824 22.4677 29.7856 22.0968 29.7429C21.9474 29.7259 21.8135 29.7173 21.6847 29.7131C21.556 29.7088 21.4272 29.7045 21.2778 29.696C21.113 29.6875 20.9482 29.6917 20.7833 29.696C20.6185 29.7003 20.4485 29.7045 20.2889 29.696C20.1034 29.696 19.918 29.696 19.7326 29.696C19.5471 29.696 19.3617 29.696 19.1763 29.696C14.9062 29.6405 10.595 29.6448 6.32492 29.696C5.97466 29.7003 5.62441 29.6875 5.27415 29.696C4.9857 29.7003 4.68695 29.6832 4.39851 29.696C4.09976 29.7088 3.7495 29.6704 3.4662 29.696C3.15715 29.7259 2.76569 29.8411 2.47209 29.9349C1.18953 30.3573 0.334488 31.3813 0.195416 32.4992C-0.396932 37.2992 0.643539 42.9184 0.195416 47.7995C0.385997 49.2373 1.68401 50.3125 3.44045 50.4619C9.25575 50.9568 16.1012 50.0907 22.0196 50.4619C23.673 50.304 24.9864 49.3397 25.2646 47.9915V32.3072C25.0276 31.2405 24.2293 30.336 22.9879 29.9349H22.9725Z" fill="#231F20"/>
<path d="M13.9016 41.088C14.7515 41.6725 13.8861 42.4789 12.7478 42.4789C11.6095 42.4789 9.68306 40.6912 8.57562 41.7792C7.74119 42.5984 9.08041 43.3707 10.1466 43.7419C10.4402 43.8443 11.1871 43.9083 11.3056 44.0277C11.6764 44.3947 11.012 45.1157 12.7478 45.0688C14.1643 45.0261 13.7316 44.1856 14.1076 43.9808C14.4527 43.7931 15.385 43.7077 15.9619 43.3195C17.4402 42.3211 17.2187 40.5547 15.3438 39.808C14.2364 39.3643 10.5845 39.2448 11.3983 38.2549C12.3512 37.0944 14.324 38.5877 15.1584 38.6048C16.1268 38.6261 16.5646 38.0203 16.2864 37.4613C15.9104 36.7104 14.3343 36.6592 13.9428 36.3947C13.5719 36.1429 13.711 35.4432 12.4336 35.52C11.2129 35.5968 11.5271 36.1813 11.048 36.4885C10.6669 36.736 9.79638 36.8341 9.24523 37.2864C8.16356 38.1739 8.41595 39.6715 10.0385 40.2176C10.9965 40.5419 13.3144 40.6869 13.8964 41.088H13.9016Z" fill="white"/>
</g>
<defs>
<clipPath id="clip0_214_734">
<rect width="203" height="64" fill="white"/>
</clipPath>
</defs>
</svg>
