<svg width="300" height="82" viewBox="0 0 300 82" fill="none" xmlns="http://www.w3.org/2000/svg">
<g filter="url(#filter0_dd_214_785)">
<path d="M15 17C15 10.3726 20.3726 5 27 5H272.25C278.877 5 284.25 10.3726 284.25 17V45C284.25 51.6274 278.877 57 272.25 57H27C20.3726 57 15 51.6274 15 45V17Z" fill="#374151"/>
<path d="M59 43H47V19H59V43Z" stroke="#E5E7EB"/>
<path d="M59 39H47V23H59V39Z" stroke="#E5E7EB"/>
<path d="M57.7062 27.7063C58.0968 27.3156 58.0968 26.6813 57.7062 26.2906C57.3155 25.9 56.6812 25.9 56.2905 26.2906L52.9999 29.5844L49.7062 26.2938C49.3155 25.9031 48.6812 25.9031 48.2905 26.2938C47.8999 26.6844 47.8999 27.3188 48.2905 27.7094L51.5843 31L48.2937 34.2938C47.903 34.6844 47.903 35.3188 48.2937 35.7094C48.6843 36.1 49.3187 36.1 49.7093 35.7094L52.9999 32.4156L56.2937 35.7063C56.6843 36.0969 57.3187 36.0969 57.7093 35.7063C58.0999 35.3156 58.0999 34.6813 57.7093 34.2906L54.4155 31L57.7062 27.7063Z" fill="white"/>
<path d="M252.25 43H67V19H252.25V43Z" stroke="#E5E7EB"/>
<path d="M68.3899 36V24.3636H72.7536C73.6475 24.3636 74.3975 24.5189 75.0036 24.8295C75.6134 25.1402 76.0736 25.5758 76.3842 26.1364C76.6986 26.6932 76.8558 27.3428 76.8558 28.0852C76.8558 28.8314 76.6967 29.4792 76.3786 30.0284C76.0642 30.5739 75.6001 30.9962 74.9865 31.2955C74.3729 31.5909 73.6191 31.7386 72.7251 31.7386H69.6172V29.9886H72.4411C72.9638 29.9886 73.3918 29.9167 73.7251 29.7727C74.0585 29.625 74.3047 29.411 74.4638 29.1307C74.6267 28.8466 74.7081 28.4981 74.7081 28.0852C74.7081 27.6723 74.6267 27.3201 74.4638 27.0284C74.3009 26.733 74.0528 26.5095 73.7195 26.358C73.3861 26.2027 72.9562 26.125 72.4297 26.125H70.4979V36H68.3899ZM74.4013 30.7273L77.282 36H74.9297L72.1001 30.7273H74.4013ZM82.4439 36.1705C81.5689 36.1705 80.8132 35.9886 80.1768 35.625C79.5443 35.2576 79.0575 34.7386 78.7166 34.0682C78.3757 33.3939 78.2053 32.6004 78.2053 31.6875C78.2053 30.7898 78.3757 30.0019 78.7166 29.3239C79.0613 28.642 79.5424 28.1117 80.1598 27.733C80.7772 27.3504 81.5026 27.1591 82.3359 27.1591C82.8738 27.1591 83.3814 27.2462 83.8587 27.4205C84.3397 27.5909 84.764 27.8561 85.1314 28.2159C85.5026 28.5758 85.7943 29.0341 86.0064 29.5909C86.2185 30.1439 86.3246 30.803 86.3246 31.5682V32.1989H79.1712V30.8125H84.353C84.3492 30.4186 84.264 30.0682 84.0973 29.7614C83.9306 29.4508 83.6977 29.2064 83.3984 29.0284C83.103 28.8504 82.7583 28.7614 82.3643 28.7614C81.9439 28.7614 81.5746 28.8636 81.2564 29.0682C80.9382 29.2689 80.6901 29.5341 80.5121 29.8636C80.3378 30.1894 80.2488 30.5473 80.245 30.9375V32.1477C80.245 32.6553 80.3378 33.0909 80.5234 33.4545C80.709 33.8144 80.9685 34.0909 81.3018 34.2841C81.6352 34.4735 82.0253 34.5682 82.4723 34.5682C82.7715 34.5682 83.0424 34.5265 83.2848 34.4432C83.5272 34.3561 83.7375 34.2292 83.9155 34.0625C84.0935 33.8958 84.228 33.6894 84.3189 33.4432L86.2393 33.6591C86.1181 34.1667 85.8871 34.6098 85.5462 34.9886C85.209 35.3636 84.7772 35.6553 84.2507 35.8636C83.7242 36.0682 83.1219 36.1705 82.4439 36.1705ZM88.0646 27.2727H90.1214V36.5C90.1214 37.1288 90.0021 37.6477 89.7635 38.0568C89.5249 38.4659 89.1802 38.7708 88.7294 38.9716C88.2786 39.1723 87.7313 39.2727 87.0874 39.2727C87.0116 39.2727 86.9415 39.2708 86.8771 39.267C86.8127 39.267 86.7427 39.2652 86.6669 39.2614V37.5852C86.7237 37.589 86.7749 37.5909 86.8203 37.5909C86.8658 37.5947 86.9131 37.5966 86.9624 37.5966C87.3563 37.5966 87.6385 37.5 87.8089 37.3068C87.9794 37.1174 88.0646 36.839 88.0646 36.4716V27.2727ZM89.0874 26.0341C88.7578 26.0341 88.4756 25.9261 88.2408 25.7102C88.0097 25.4905 87.8942 25.2273 87.8942 24.9205C87.8942 24.6098 88.0097 24.3466 88.2408 24.1307C88.4756 23.911 88.7578 23.8011 89.0874 23.8011C89.4131 23.8011 89.6915 23.911 89.9226 24.1307C90.1574 24.3466 90.2749 24.6098 90.2749 24.9205C90.2749 25.2273 90.1574 25.4905 89.9226 25.7102C89.6915 25.9261 89.4131 26.0341 89.0874 26.0341ZM96.1001 36.1705C95.2251 36.1705 94.4695 35.9886 93.8331 35.625C93.2005 35.2576 92.7138 34.7386 92.3729 34.0682C92.032 33.3939 91.8615 32.6004 91.8615 31.6875C91.8615 30.7898 92.032 30.0019 92.3729 29.3239C92.7176 28.642 93.1986 28.1117 93.8161 27.733C94.4335 27.3504 95.1589 27.1591 95.9922 27.1591C96.5301 27.1591 97.0376 27.2462 97.5149 27.4205C97.996 27.5909 98.4202 27.8561 98.7876 28.2159C99.1589 28.5758 99.4505 29.0341 99.6626 29.5909C99.8748 30.1439 99.9808 30.803 99.9808 31.5682V32.1989H92.8274V30.8125H98.0092C98.0054 30.4186 97.9202 30.0682 97.7536 29.7614C97.5869 29.4508 97.3539 29.2064 97.0547 29.0284C96.7592 28.8504 96.4145 28.7614 96.0206 28.7614C95.6001 28.7614 95.2308 28.8636 94.9126 29.0682C94.5945 29.2689 94.3464 29.5341 94.1683 29.8636C93.9941 30.1894 93.9051 30.5473 93.9013 30.9375V32.1477C93.9013 32.6553 93.9941 33.0909 94.1797 33.4545C94.3653 33.8144 94.6248 34.0909 94.9581 34.2841C95.2914 34.4735 95.6816 34.5682 96.1286 34.5682C96.4278 34.5682 96.6986 34.5265 96.9411 34.4432C97.1835 34.3561 97.3937 34.2292 97.5717 34.0625C97.7498 33.8958 97.8842 33.6894 97.9751 33.4432L99.8956 33.6591C99.7744 34.1667 99.5433 34.6098 99.2024 34.9886C98.8653 35.3636 98.4335 35.6553 97.907 35.8636C97.3804 36.0682 96.7782 36.1705 96.1001 36.1705ZM105.528 36.1705C104.656 36.1705 103.908 35.9792 103.283 35.5966C102.662 35.214 102.183 34.6856 101.846 34.0114C101.513 33.3333 101.346 32.553 101.346 31.6705C101.346 30.7841 101.516 30.0019 101.857 29.3239C102.198 28.642 102.679 28.1117 103.3 27.733C103.925 27.3504 104.664 27.1591 105.516 27.1591C106.225 27.1591 106.852 27.2898 107.397 27.5511C107.946 27.8087 108.384 28.1742 108.71 28.6477C109.035 29.1174 109.221 29.6667 109.266 30.2955H107.3C107.221 29.875 107.031 29.5246 106.732 29.2443C106.437 28.9602 106.041 28.8182 105.545 28.8182C105.124 28.8182 104.755 28.9318 104.437 29.1591C104.119 29.3826 103.871 29.7045 103.692 30.125C103.518 30.5455 103.431 31.0492 103.431 31.6364C103.431 32.2311 103.518 32.7424 103.692 33.1705C103.867 33.5947 104.111 33.9223 104.425 34.1534C104.744 34.3807 105.117 34.4943 105.545 34.4943C105.848 34.4943 106.119 34.4375 106.357 34.3239C106.6 34.2064 106.802 34.0379 106.965 33.8182C107.128 33.5985 107.24 33.3314 107.3 33.017H109.266C109.217 33.6345 109.035 34.1818 108.721 34.6591C108.406 35.1326 107.978 35.5038 107.437 35.7727C106.895 36.0379 106.259 36.1705 105.528 36.1705ZM115.313 27.2727V28.8636H110.296V27.2727H115.313ZM111.535 25.1818H113.592V33.375C113.592 33.6515 113.633 33.8636 113.717 34.0114C113.804 34.1553 113.917 34.2538 114.058 34.3068C114.198 34.3598 114.353 34.3864 114.523 34.3864C114.652 34.3864 114.77 34.3769 114.876 34.358C114.986 34.339 115.069 34.322 115.126 34.3068L115.472 35.9148C115.362 35.9527 115.205 35.9943 115.001 36.0398C114.8 36.0852 114.554 36.1117 114.262 36.1193C113.747 36.1345 113.283 36.0568 112.87 35.8864C112.457 35.7121 112.129 35.4432 111.887 35.0795C111.648 34.7159 111.531 34.2614 111.535 33.7159V25.1818ZM122.587 36H120.337L124.434 24.3636H127.036L131.138 36H128.888L125.781 26.75H125.69L122.587 36ZM122.661 31.4375H128.798V33.1307H122.661V31.4375ZM134.637 24.3636V36H132.58V24.3636H134.637ZM138.809 24.3636V36H136.752V24.3636H138.809ZM154.546 24.3636V36H152.671L147.188 28.0739H147.092V36H144.984V24.3636H146.87L152.347 32.2955H152.45V24.3636H154.546ZM160.559 36.1705C159.707 36.1705 158.968 35.983 158.343 35.608C157.718 35.233 157.233 34.7083 156.888 34.0341C156.548 33.3598 156.377 32.572 156.377 31.6705C156.377 30.7689 156.548 29.9792 156.888 29.3011C157.233 28.6231 157.718 28.0966 158.343 27.7216C158.968 27.3466 159.707 27.1591 160.559 27.1591C161.411 27.1591 162.15 27.3466 162.775 27.7216C163.4 28.0966 163.883 28.6231 164.224 29.3011C164.568 29.9792 164.741 30.7689 164.741 31.6705C164.741 32.572 164.568 33.3598 164.224 34.0341C163.883 34.7083 163.4 35.233 162.775 35.608C162.15 35.983 161.411 36.1705 160.559 36.1705ZM160.57 34.5227C161.032 34.5227 161.419 34.3958 161.729 34.142C162.04 33.8845 162.271 33.5398 162.423 33.108C162.578 32.6761 162.656 32.1951 162.656 31.6648C162.656 31.1307 162.578 30.6477 162.423 30.2159C162.271 29.7803 162.04 29.4337 161.729 29.1761C161.419 28.9186 161.032 28.7898 160.57 28.7898C160.097 28.7898 159.703 28.9186 159.388 29.1761C159.078 29.4337 158.845 29.7803 158.69 30.2159C158.538 30.6477 158.462 31.1307 158.462 31.6648C158.462 32.1951 158.538 32.6761 158.69 33.108C158.845 33.5398 159.078 33.8845 159.388 34.142C159.703 34.3958 160.097 34.5227 160.57 34.5227ZM168.543 30.8864V36H166.487V27.2727H168.452V28.7557H168.555C168.755 28.267 169.076 27.8788 169.515 27.5909C169.958 27.303 170.505 27.1591 171.157 27.1591C171.759 27.1591 172.284 27.2879 172.731 27.5455C173.182 27.803 173.53 28.1761 173.776 28.6648C174.026 29.1534 174.149 29.7462 174.146 30.4432V36H172.089V30.7614C172.089 30.178 171.937 29.7216 171.634 29.392C171.335 29.0625 170.92 28.8977 170.39 28.8977C170.03 28.8977 169.71 28.9773 169.43 29.1364C169.153 29.2917 168.935 29.517 168.776 29.8125C168.621 30.108 168.543 30.4659 168.543 30.8864ZM181.526 30.3068V32H176.288V30.3068H181.526ZM183.781 36V24.3636H191.349V26.1307H185.888V29.2898H190.957V31.0568H185.888V34.233H191.394V36H183.781ZM200.306 29.5795L198.431 29.7841C198.378 29.5947 198.285 29.4167 198.153 29.25C198.024 29.0833 197.85 28.9489 197.63 28.8466C197.41 28.7443 197.141 28.6932 196.823 28.6932C196.395 28.6932 196.035 28.786 195.744 28.9716C195.456 29.1572 195.314 29.3977 195.317 29.6932C195.314 29.947 195.406 30.1534 195.596 30.3125C195.789 30.4716 196.107 30.6023 196.55 30.7045L198.039 31.0227C198.865 31.2008 199.478 31.483 199.88 31.8693C200.285 32.2557 200.49 32.7614 200.494 33.3864C200.49 33.9356 200.329 34.4205 200.011 34.8409C199.696 35.2576 199.259 35.5833 198.698 35.8182C198.138 36.053 197.494 36.1705 196.766 36.1705C195.698 36.1705 194.838 35.947 194.187 35.5C193.535 35.0492 193.147 34.4223 193.022 33.6193L195.028 33.4261C195.119 33.8201 195.312 34.1174 195.607 34.3182C195.903 34.5189 196.287 34.6193 196.761 34.6193C197.249 34.6193 197.641 34.5189 197.937 34.3182C198.236 34.1174 198.386 33.8693 198.386 33.5739C198.386 33.3239 198.289 33.1174 198.096 32.9545C197.906 32.7917 197.611 32.6667 197.21 32.5795L195.721 32.267C194.884 32.0928 194.264 31.7992 193.863 31.3864C193.461 30.9697 193.263 30.4432 193.266 29.8068C193.263 29.2689 193.408 28.803 193.704 28.4091C194.003 28.0114 194.418 27.7045 194.948 27.4886C195.482 27.2689 196.098 27.1591 196.795 27.1591C197.817 27.1591 198.622 27.3769 199.21 27.8125C199.8 28.2481 200.166 28.8371 200.306 29.5795ZM209.087 29.5795L207.212 29.7841C207.159 29.5947 207.067 29.4167 206.934 29.25C206.805 29.0833 206.631 28.9489 206.411 28.8466C206.192 28.7443 205.923 28.6932 205.604 28.6932C205.176 28.6932 204.817 28.786 204.525 28.9716C204.237 29.1572 204.095 29.3977 204.099 29.6932C204.095 29.947 204.188 30.1534 204.377 30.3125C204.57 30.4716 204.888 30.6023 205.332 30.7045L206.82 31.0227C207.646 31.2008 208.26 31.483 208.661 31.8693C209.067 32.2557 209.271 32.7614 209.275 33.3864C209.271 33.9356 209.11 34.4205 208.792 34.8409C208.478 35.2576 208.04 35.5833 207.479 35.8182C206.919 36.053 206.275 36.1705 205.548 36.1705C204.479 36.1705 203.62 35.947 202.968 35.5C202.317 35.0492 201.928 34.4223 201.803 33.6193L203.809 33.4261C203.9 33.8201 204.093 34.1174 204.388 34.3182C204.684 34.5189 205.068 34.6193 205.542 34.6193C206.031 34.6193 206.423 34.5189 206.718 34.3182C207.017 34.1174 207.167 33.8693 207.167 33.5739C207.167 33.3239 207.07 33.1174 206.877 32.9545C206.688 32.7917 206.392 32.6667 205.991 32.5795L204.502 32.267C203.665 32.0928 203.046 31.7992 202.644 31.3864C202.243 30.9697 202.044 30.4432 202.048 29.8068C202.044 29.2689 202.19 28.803 202.485 28.4091C202.784 28.0114 203.199 27.7045 203.729 27.4886C204.263 27.2689 204.879 27.1591 205.576 27.1591C206.599 27.1591 207.404 27.3769 207.991 27.8125C208.582 28.2481 208.947 28.8371 209.087 29.5795ZM214.835 36.1705C213.96 36.1705 213.204 35.9886 212.567 35.625C211.935 35.2576 211.448 34.7386 211.107 34.0682C210.766 33.3939 210.596 32.6004 210.596 31.6875C210.596 30.7898 210.766 30.0019 211.107 29.3239C211.452 28.642 211.933 28.1117 212.55 27.733C213.168 27.3504 213.893 27.1591 214.727 27.1591C215.264 27.1591 215.772 27.2462 216.249 27.4205C216.73 27.5909 217.155 27.8561 217.522 28.2159C217.893 28.5758 218.185 29.0341 218.397 29.5909C218.609 30.1439 218.715 30.803 218.715 31.5682V32.1989H211.562V30.8125H216.744C216.74 30.4186 216.655 30.0682 216.488 29.7614C216.321 29.4508 216.088 29.2064 215.789 29.0284C215.494 28.8504 215.149 28.7614 214.755 28.7614C214.335 28.7614 213.965 28.8636 213.647 29.0682C213.329 29.2689 213.081 29.5341 212.903 29.8636C212.728 30.1894 212.639 30.5473 212.636 30.9375V32.1477C212.636 32.6553 212.728 33.0909 212.914 33.4545C213.1 33.8144 213.359 34.0909 213.692 34.2841C214.026 34.4735 214.416 34.5682 214.863 34.5682C215.162 34.5682 215.433 34.5265 215.675 34.4432C215.918 34.3561 216.128 34.2292 216.306 34.0625C216.484 33.8958 216.619 33.6894 216.71 33.4432L218.63 33.6591C218.509 34.1667 218.278 34.6098 217.937 34.9886C217.6 35.3636 217.168 35.6553 216.641 35.8636C216.115 36.0682 215.513 36.1705 214.835 36.1705ZM222.512 30.8864V36H220.455V27.2727H222.421V28.7557H222.523C222.724 28.267 223.044 27.8788 223.484 27.5909C223.927 27.303 224.474 27.1591 225.126 27.1591C225.728 27.1591 226.253 27.2879 226.7 27.5455C227.15 27.803 227.499 28.1761 227.745 28.6648C227.995 29.1534 228.118 29.7462 228.114 30.4432V36H226.058V30.7614C226.058 30.178 225.906 29.7216 225.603 29.392C225.304 29.0625 224.889 28.8977 224.359 28.8977C223.999 28.8977 223.679 28.9773 223.398 29.1364C223.122 29.2917 222.904 29.517 222.745 29.8125C222.59 30.108 222.512 30.4659 222.512 30.8864ZM234.563 27.2727V28.8636H229.546V27.2727H234.563ZM230.785 25.1818H232.842V33.375C232.842 33.6515 232.883 33.8636 232.967 34.0114C233.054 34.1553 233.167 34.2538 233.308 34.3068C233.448 34.3598 233.603 34.3864 233.773 34.3864C233.902 34.3864 234.02 34.3769 234.126 34.358C234.236 34.339 234.319 34.322 234.376 34.3068L234.722 35.9148C234.612 35.9527 234.455 35.9943 234.251 36.0398C234.05 36.0852 233.804 36.1117 233.512 36.1193C232.997 36.1345 232.533 36.0568 232.12 35.8864C231.707 35.7121 231.379 35.4432 231.137 35.0795C230.898 34.7159 230.781 34.2614 230.785 33.7159V25.1818ZM236.283 36V27.2727H238.34V36H236.283ZM237.317 26.0341C236.992 26.0341 236.711 25.9261 236.477 25.7102C236.242 25.4905 236.124 25.2273 236.124 24.9205C236.124 24.6098 236.242 24.3466 236.477 24.1307C236.711 23.911 236.992 23.8011 237.317 23.8011C237.647 23.8011 237.927 23.911 238.158 24.1307C238.393 24.3466 238.511 24.6098 238.511 24.9205C238.511 25.2273 238.393 25.4905 238.158 25.7102C237.927 25.9261 237.647 26.0341 237.317 26.0341ZM242.967 36.1761C242.414 36.1761 241.915 36.0777 241.472 35.8807C241.033 35.6799 240.684 35.3845 240.427 34.9943C240.173 34.6042 240.046 34.1231 240.046 33.5511C240.046 33.0587 240.137 32.6515 240.319 32.3295C240.501 32.0076 240.749 31.75 241.063 31.5568C241.378 31.3636 241.732 31.2178 242.126 31.1193C242.523 31.017 242.934 30.9432 243.359 30.8977C243.87 30.8447 244.285 30.7973 244.603 30.7557C244.921 30.7102 245.152 30.642 245.296 30.5511C245.444 30.4564 245.518 30.3106 245.518 30.1136V30.0795C245.518 29.6515 245.391 29.3201 245.137 29.0852C244.883 28.8504 244.518 28.733 244.04 28.733C243.537 28.733 243.137 28.8428 242.842 29.0625C242.55 29.2822 242.353 29.5417 242.251 29.8409L240.33 29.5682C240.482 29.0379 240.732 28.5947 241.08 28.2386C241.429 27.8788 241.855 27.6098 242.359 27.4318C242.862 27.25 243.419 27.1591 244.029 27.1591C244.45 27.1591 244.868 27.2083 245.285 27.3068C245.701 27.4053 246.082 27.5682 246.427 27.7955C246.772 28.0189 247.048 28.3239 247.256 28.7102C247.469 29.0966 247.575 29.5795 247.575 30.1591V36H245.597V34.8011H245.529C245.404 35.0436 245.228 35.2708 245.001 35.483C244.777 35.6913 244.495 35.8598 244.154 35.9886C243.817 36.1136 243.421 36.1761 242.967 36.1761ZM243.501 34.6648C243.914 34.6648 244.272 34.5833 244.575 34.4205C244.878 34.2538 245.111 34.0341 245.273 33.7614C245.44 33.4886 245.523 33.1913 245.523 32.8693V31.8409C245.459 31.8939 245.349 31.9432 245.194 31.9886C245.042 32.0341 244.872 32.0739 244.683 32.108C244.493 32.142 244.306 32.1723 244.12 32.1989C243.934 32.2254 243.773 32.2481 243.637 32.267C243.33 32.3087 243.056 32.3769 242.813 32.4716C242.571 32.5663 242.379 32.6989 242.239 32.8693C242.099 33.036 242.029 33.2519 242.029 33.517C242.029 33.8958 242.167 34.1818 242.444 34.375C242.72 34.5682 243.073 34.6648 243.501 34.6648ZM251.7 24.3636V36H249.643V24.3636H251.7Z" fill="white"/>
</g>
<defs>
<filter id="filter0_dd_214_785" x="0" y="0" width="299.25" height="82" filterUnits="userSpaceOnUse" color-interpolation-filters="sRGB">
<feFlood flood-opacity="0" result="BackgroundImageFix"/>
<feColorMatrix in="SourceAlpha" type="matrix" values="0 0 0 0 0 0 0 0 0 0 0 0 0 0 0 0 0 0 127 0" result="hardAlpha"/>
<feOffset dy="10"/>
<feGaussianBlur stdDeviation="7.5"/>
<feColorMatrix type="matrix" values="0 0 0 0 0 0 0 0 0 0 0 0 0 0 0 0 0 0 0.1 0"/>
<feBlend mode="normal" in2="BackgroundImageFix" result="effect1_dropShadow_214_785"/>
<feColorMatrix in="SourceAlpha" type="matrix" values="0 0 0 0 0 0 0 0 0 0 0 0 0 0 0 0 0 0 127 0" result="hardAlpha"/>
<feOffset dy="4"/>
<feGaussianBlur stdDeviation="3"/>
<feColorMatrix type="matrix" values="0 0 0 0 0 0 0 0 0 0 0 0 0 0 0 0 0 0 0.1 0"/>
<feBlend mode="normal" in2="effect1_dropShadow_214_785" result="effect2_dropShadow_214_785"/>
<feBlend mode="normal" in="SourceGraphic" in2="effect2_dropShadow_214_785" result="shape"/>
</filter>
</defs>
</svg>
