<svg width="322" height="60" viewBox="0 0 322 60" fill="none" xmlns="http://www.w3.org/2000/svg">
<g filter="url(#filter0_dd_192_4381)">
<path d="M6 14C6 7.37258 11.3726 2 18 2H303.328C309.956 2 315.328 7.37258 315.328 14V38C315.328 44.6274 309.956 50 303.328 50H18C11.3726 50 6 44.6274 6 38V14Z" fill="white"/>
<path d="M115.749 31V19.3636H120.113C121.007 19.3636 121.757 19.5189 122.363 19.8295C122.973 20.1402 123.433 20.5758 123.744 21.1364C124.058 21.6932 124.215 22.3428 124.215 23.0852C124.215 23.8314 124.056 24.4792 123.738 25.0284C123.424 25.5739 122.96 25.9962 122.346 26.2955C121.732 26.5909 120.978 26.7386 120.085 26.7386H116.977V24.9886H119.8C120.323 24.9886 120.751 24.9167 121.085 24.7727C121.418 24.625 121.664 24.411 121.823 24.1307C121.986 23.8466 122.067 23.4981 122.067 23.0852C122.067 22.6723 121.986 22.3201 121.823 22.0284C121.66 21.733 121.412 21.5095 121.079 21.358C120.746 21.2027 120.316 21.125 119.789 21.125H117.857V31H115.749ZM121.761 25.7273L124.641 31H122.289L119.46 25.7273H121.761ZM129.803 31.1705C128.928 31.1705 128.173 30.9886 127.536 30.625C126.904 30.2576 126.417 29.7386 126.076 29.0682C125.735 28.3939 125.565 27.6004 125.565 26.6875C125.565 25.7898 125.735 25.0019 126.076 24.3239C126.421 23.642 126.902 23.1117 127.519 22.733C128.137 22.3504 128.862 22.1591 129.695 22.1591C130.233 22.1591 130.741 22.2462 131.218 22.4205C131.699 22.5909 132.123 22.8561 132.491 23.2159C132.862 23.5758 133.154 24.0341 133.366 24.5909C133.578 25.1439 133.684 25.803 133.684 26.5682V27.1989H126.531V25.8125H131.712C131.709 25.4186 131.623 25.0682 131.457 24.7614C131.29 24.4508 131.057 24.2064 130.758 24.0284C130.462 23.8504 130.118 23.7614 129.724 23.7614C129.303 23.7614 128.934 23.8636 128.616 24.0682C128.298 24.2689 128.049 24.5341 127.871 24.8636C127.697 25.1894 127.608 25.5473 127.604 25.9375V27.1477C127.604 27.6553 127.697 28.0909 127.883 28.4545C128.068 28.8144 128.328 29.0909 128.661 29.2841C128.995 29.4735 129.385 29.5682 129.832 29.5682C130.131 29.5682 130.402 29.5265 130.644 29.4432C130.887 29.3561 131.097 29.2292 131.275 29.0625C131.453 28.8958 131.587 28.6894 131.678 28.4432L133.599 28.6591C133.478 29.1667 133.246 29.6098 132.906 29.9886C132.568 30.3636 132.137 30.6553 131.61 30.8636C131.084 31.0682 130.481 31.1705 129.803 31.1705ZM141.248 34.2727V29.625H141.163C141.057 29.8371 140.903 30.0625 140.702 30.3011C140.502 30.536 140.237 30.7367 139.907 30.9034C139.577 31.0701 139.163 31.1534 138.663 31.1534C137.977 31.1534 137.363 30.9773 136.822 30.625C136.28 30.2727 135.852 29.7614 135.538 29.0909C135.223 28.4205 135.066 27.6061 135.066 26.6477C135.066 25.678 135.225 24.8598 135.543 24.1932C135.865 23.5227 136.299 23.017 136.844 22.6761C137.39 22.3314 137.998 22.1591 138.668 22.1591C139.18 22.1591 139.6 22.2462 139.93 22.4205C140.259 22.5909 140.521 22.7973 140.714 23.0398C140.907 23.2784 141.057 23.5038 141.163 23.7159H141.288V22.2727H143.31V34.2727H141.248ZM139.237 29.4659C139.672 29.4659 140.043 29.3485 140.35 29.1136C140.657 28.875 140.89 28.5436 141.049 28.1193C141.208 27.6951 141.288 27.2008 141.288 26.6364C141.288 26.072 141.208 25.5814 141.049 25.1648C140.894 24.7481 140.663 24.4242 140.356 24.1932C140.053 23.9621 139.68 23.8466 139.237 23.8466C138.778 23.8466 138.396 23.9659 138.089 24.2045C137.782 24.4432 137.551 24.7727 137.396 25.1932C137.24 25.6136 137.163 26.0947 137.163 26.6364C137.163 27.1818 137.24 27.6686 137.396 28.0966C137.555 28.5208 137.788 28.8561 138.094 29.1023C138.405 29.3447 138.786 29.4659 139.237 29.4659ZM150.987 27.3295V22.2727H153.043V31H151.049V29.4489H150.958C150.761 29.9375 150.437 30.3371 149.987 30.6477C149.54 30.9583 148.988 31.1136 148.333 31.1136C147.761 31.1136 147.255 30.9867 146.816 30.733C146.38 30.4754 146.04 30.1023 145.793 29.6136C145.547 29.1212 145.424 28.5265 145.424 27.8295V22.2727H147.481V27.5114C147.481 28.0644 147.632 28.5038 147.935 28.8295C148.238 29.1553 148.636 29.3182 149.129 29.3182C149.432 29.3182 149.725 29.2443 150.009 29.0966C150.293 28.9489 150.526 28.7292 150.708 28.4375C150.894 28.142 150.987 27.7727 150.987 27.3295ZM159.022 31.1705C158.147 31.1705 157.391 30.9886 156.755 30.625C156.122 30.2576 155.636 29.7386 155.295 29.0682C154.954 28.3939 154.783 27.6004 154.783 26.6875C154.783 25.7898 154.954 25.0019 155.295 24.3239C155.639 23.642 156.121 23.1117 156.738 22.733C157.355 22.3504 158.081 22.1591 158.914 22.1591C159.452 22.1591 159.96 22.2462 160.437 22.4205C160.918 22.5909 161.342 22.8561 161.71 23.2159C162.081 23.5758 162.372 24.0341 162.585 24.5909C162.797 25.1439 162.903 25.803 162.903 26.5682V27.1989H155.749V25.8125H160.931C160.927 25.4186 160.842 25.0682 160.675 24.7614C160.509 24.4508 160.276 24.2064 159.977 24.0284C159.681 23.8504 159.336 23.7614 158.942 23.7614C158.522 23.7614 158.153 23.8636 157.835 24.0682C157.516 24.2689 157.268 24.5341 157.09 24.8636C156.916 25.1894 156.827 25.5473 156.823 25.9375V27.1477C156.823 27.6553 156.916 28.0909 157.102 28.4545C157.287 28.8144 157.547 29.0909 157.88 29.2841C158.213 29.4735 158.603 29.5682 159.05 29.5682C159.35 29.5682 159.621 29.5265 159.863 29.4432C160.105 29.3561 160.316 29.2292 160.494 29.0625C160.672 28.8958 160.806 28.6894 160.897 28.4432L162.817 28.6591C162.696 29.1667 162.465 29.6098 162.124 29.9886C161.787 30.3636 161.355 30.6553 160.829 30.8636C160.302 31.0682 159.7 31.1705 159.022 31.1705ZM171.54 24.5795L169.665 24.7841C169.612 24.5947 169.52 24.4167 169.387 24.25C169.258 24.0833 169.084 23.9489 168.864 23.8466C168.645 23.7443 168.376 23.6932 168.058 23.6932C167.629 23.6932 167.27 23.786 166.978 23.9716C166.69 24.1572 166.548 24.3977 166.552 24.6932C166.548 24.947 166.641 25.1534 166.83 25.3125C167.023 25.4716 167.342 25.6023 167.785 25.7045L169.273 26.0227C170.099 26.2008 170.713 26.483 171.114 26.8693C171.52 27.2557 171.724 27.7614 171.728 28.3864C171.724 28.9356 171.563 29.4205 171.245 29.8409C170.931 30.2576 170.493 30.5833 169.933 30.8182C169.372 31.053 168.728 31.1705 168.001 31.1705C166.933 31.1705 166.073 30.947 165.421 30.5C164.77 30.0492 164.381 29.4223 164.256 28.6193L166.262 28.4261C166.353 28.8201 166.546 29.1174 166.842 29.3182C167.137 29.5189 167.522 29.6193 167.995 29.6193C168.484 29.6193 168.876 29.5189 169.171 29.3182C169.47 29.1174 169.62 28.8693 169.62 28.5739C169.62 28.3239 169.523 28.1174 169.33 27.9545C169.141 27.7917 168.845 27.6667 168.444 27.5795L166.955 27.267C166.118 27.0928 165.499 26.7992 165.097 26.3864C164.696 25.9697 164.497 25.4432 164.501 24.8068C164.497 24.2689 164.643 23.803 164.938 23.4091C165.237 23.0114 165.652 22.7045 166.183 22.4886C166.717 22.2689 167.332 22.1591 168.029 22.1591C169.052 22.1591 169.857 22.3769 170.444 22.8125C171.035 23.2481 171.4 23.8371 171.54 24.5795ZM177.782 22.2727V23.8636H172.765V22.2727H177.782ZM174.004 20.1818H176.06V28.375C176.06 28.6515 176.102 28.8636 176.185 29.0114C176.272 29.1553 176.386 29.2538 176.526 29.3068C176.666 29.3598 176.822 29.3864 176.992 29.3864C177.121 29.3864 177.238 29.3769 177.344 29.358C177.454 29.339 177.538 29.322 177.594 29.3068L177.941 30.9148C177.831 30.9527 177.674 30.9943 177.469 31.0398C177.269 31.0852 177.022 31.1117 176.731 31.1193C176.216 31.1345 175.752 31.0568 175.339 30.8864C174.926 30.7121 174.598 30.4432 174.356 30.0795C174.117 29.7159 174 29.2614 174.004 28.7159V20.1818ZM183.562 31V19.3636H187.925C188.819 19.3636 189.569 19.5303 190.175 19.8636C190.785 20.197 191.246 20.6553 191.556 21.2386C191.871 21.8182 192.028 22.4773 192.028 23.2159C192.028 23.9621 191.871 24.625 191.556 25.2045C191.242 25.7841 190.778 26.2405 190.164 26.5739C189.55 26.9034 188.795 27.0682 187.897 27.0682H185.005V25.3352H187.613C188.136 25.3352 188.564 25.2443 188.897 25.0625C189.23 24.8807 189.477 24.6307 189.636 24.3125C189.799 23.9943 189.88 23.6288 189.88 23.2159C189.88 22.803 189.799 22.4394 189.636 22.125C189.477 21.8106 189.228 21.5663 188.891 21.392C188.558 21.214 188.128 21.125 187.602 21.125H185.67V31H183.562ZM196.123 31.1761C195.57 31.1761 195.072 31.0777 194.629 30.8807C194.189 30.6799 193.841 30.3845 193.583 29.9943C193.329 29.6042 193.202 29.1231 193.202 28.5511C193.202 28.0587 193.293 27.6515 193.475 27.3295C193.657 27.0076 193.905 26.75 194.219 26.5568C194.534 26.3636 194.888 26.2178 195.282 26.1193C195.68 26.017 196.091 25.9432 196.515 25.8977C197.026 25.8447 197.441 25.7973 197.759 25.7557C198.077 25.7102 198.308 25.642 198.452 25.5511C198.6 25.4564 198.674 25.3106 198.674 25.1136V25.0795C198.674 24.6515 198.547 24.3201 198.293 24.0852C198.04 23.8504 197.674 23.733 197.197 23.733C196.693 23.733 196.293 23.8428 195.998 24.0625C195.706 24.2822 195.509 24.5417 195.407 24.8409L193.487 24.5682C193.638 24.0379 193.888 23.5947 194.237 23.2386C194.585 22.8788 195.011 22.6098 195.515 22.4318C196.019 22.25 196.576 22.1591 197.185 22.1591C197.606 22.1591 198.024 22.2083 198.441 22.3068C198.858 22.4053 199.238 22.5682 199.583 22.7955C199.928 23.0189 200.204 23.3239 200.413 23.7102C200.625 24.0966 200.731 24.5795 200.731 25.1591V31H198.754V29.8011H198.685C198.56 30.0436 198.384 30.2708 198.157 30.483C197.933 30.6913 197.651 30.8598 197.31 30.9886C196.973 31.1136 196.577 31.1761 196.123 31.1761ZM196.657 29.6648C197.07 29.6648 197.428 29.5833 197.731 29.4205C198.034 29.2538 198.267 29.0341 198.43 28.7614C198.596 28.4886 198.68 28.1913 198.68 27.8693V26.8409C198.615 26.8939 198.505 26.9432 198.35 26.9886C198.199 27.0341 198.028 27.0739 197.839 27.108C197.649 27.142 197.462 27.1723 197.276 27.1989C197.091 27.2254 196.93 27.2481 196.793 27.267C196.487 27.3087 196.212 27.3769 195.969 27.4716C195.727 27.5663 195.536 27.6989 195.396 27.8693C195.255 28.036 195.185 28.2519 195.185 28.517C195.185 28.8958 195.324 29.1818 195.6 29.375C195.877 29.5682 196.229 29.6648 196.657 29.6648ZM203.765 34.2727C203.485 34.2727 203.225 34.25 202.987 34.2045C202.752 34.1629 202.564 34.1136 202.424 34.0568L202.901 32.4545C203.201 32.5417 203.468 32.5833 203.702 32.5795C203.937 32.5758 204.144 32.5019 204.322 32.358C204.504 32.2178 204.657 31.983 204.782 31.6534L204.958 31.1818L201.793 22.2727H203.975L205.987 28.8636H206.077L208.094 22.2727H210.282L206.788 32.0568C206.625 32.5189 206.409 32.9148 206.14 33.2443C205.871 33.5777 205.541 33.8314 205.151 34.0057C204.765 34.1837 204.303 34.2727 203.765 34.2727ZM215.215 31.1705C214.363 31.1705 213.624 30.983 212.999 30.608C212.374 30.233 211.889 29.7083 211.545 29.0341C211.204 28.3598 211.033 27.572 211.033 26.6705C211.033 25.7689 211.204 24.9792 211.545 24.3011C211.889 23.6231 212.374 23.0966 212.999 22.7216C213.624 22.3466 214.363 22.1591 215.215 22.1591C216.067 22.1591 216.806 22.3466 217.431 22.7216C218.056 23.0966 218.539 23.6231 218.88 24.3011C219.225 24.9792 219.397 25.7689 219.397 26.6705C219.397 27.572 219.225 28.3598 218.88 29.0341C218.539 29.7083 218.056 30.233 217.431 30.608C216.806 30.983 216.067 31.1705 215.215 31.1705ZM215.227 29.5227C215.689 29.5227 216.075 29.3958 216.386 29.142C216.696 28.8845 216.927 28.5398 217.079 28.108C217.234 27.6761 217.312 27.1951 217.312 26.6648C217.312 26.1307 217.234 25.6477 217.079 25.2159C216.927 24.7803 216.696 24.4337 216.386 24.1761C216.075 23.9186 215.689 23.7898 215.227 23.7898C214.753 23.7898 214.359 23.9186 214.045 24.1761C213.734 24.4337 213.501 24.7803 213.346 25.2159C213.194 25.6477 213.119 26.1307 213.119 26.6648C213.119 27.1951 213.194 27.6761 213.346 28.108C213.501 28.5398 213.734 28.8845 214.045 29.142C214.359 29.3958 214.753 29.5227 215.227 29.5227ZM226.705 27.3295V22.2727H228.762V31H226.768V29.4489H226.677C226.48 29.9375 226.156 30.3371 225.705 30.6477C225.258 30.9583 224.707 31.1136 224.052 31.1136C223.48 31.1136 222.974 30.9867 222.535 30.733C222.099 30.4754 221.758 30.1023 221.512 29.6136C221.266 29.1212 221.143 28.5265 221.143 27.8295V22.2727H223.2V27.5114C223.2 28.0644 223.351 28.5038 223.654 28.8295C223.957 29.1553 224.355 29.3182 224.847 29.3182C225.15 29.3182 225.444 29.2443 225.728 29.0966C226.012 28.9489 226.245 28.7292 226.427 28.4375C226.612 28.142 226.705 27.7727 226.705 27.3295ZM235.235 22.2727V23.8636H230.218V22.2727H235.235ZM231.457 20.1818H233.513V28.375C233.513 28.6515 233.555 28.8636 233.638 29.0114C233.726 29.1553 233.839 29.2538 233.979 29.3068C234.12 29.3598 234.275 29.3864 234.445 29.3864C234.574 29.3864 234.692 29.3769 234.798 29.358C234.907 29.339 234.991 29.322 235.048 29.3068L235.394 30.9148C235.284 30.9527 235.127 30.9943 234.923 31.0398C234.722 31.0852 234.476 31.1117 234.184 31.1193C233.669 31.1345 233.205 31.0568 232.792 30.8864C232.379 30.7121 232.051 30.4432 231.809 30.0795C231.57 29.7159 231.453 29.2614 231.457 28.7159V20.1818Z" fill="#16A34A"/>
<path d="M83 21H93M93 21V31M93 21L83 31" stroke="#0A9843" stroke-width="2" stroke-linecap="round" stroke-linejoin="round"/>
</g>
<defs>
<filter id="filter0_dd_192_4381" x="0" y="0" width="321.328" height="60" filterUnits="userSpaceOnUse" color-interpolation-filters="sRGB">
<feFlood flood-opacity="0" result="BackgroundImageFix"/>
<feColorMatrix in="SourceAlpha" type="matrix" values="0 0 0 0 0 0 0 0 0 0 0 0 0 0 0 0 0 0 127 0" result="hardAlpha"/>
<feOffset dy="4"/>
<feGaussianBlur stdDeviation="3"/>
<feColorMatrix type="matrix" values="0 0 0 0 0 0 0 0 0 0 0 0 0 0 0 0 0 0 0.1 0"/>
<feBlend mode="normal" in2="BackgroundImageFix" result="effect1_dropShadow_192_4381"/>
<feColorMatrix in="SourceAlpha" type="matrix" values="0 0 0 0 0 0 0 0 0 0 0 0 0 0 0 0 0 0 127 0" result="hardAlpha"/>
<feOffset dy="2"/>
<feGaussianBlur stdDeviation="2"/>
<feColorMatrix type="matrix" values="0 0 0 0 0 0 0 0 0 0 0 0 0 0 0 0 0 0 0.1 0"/>
<feBlend mode="normal" in2="effect1_dropShadow_192_4381" result="effect2_dropShadow_192_4381"/>
<feBlend mode="normal" in="SourceGraphic" in2="effect2_dropShadow_192_4381" result="shape"/>
</filter>
</defs>
</svg>
