<svg width="486" height="100" viewBox="0 0 486 100" fill="none" xmlns="http://www.w3.org/2000/svg">
<g filter="url(#filter0_d_215_745)">
<rect x="28" y="18" width="430" height="44" rx="10" fill="#6366F1"/>
<rect x="28.5" y="18.5" width="429" height="43" rx="9.5" stroke="#6366F1"/>
<path d="M195.149 37.9929C195.096 37.5223 194.877 37.1577 194.492 36.8991C194.108 36.6373 193.624 36.5064 193.041 36.5064C192.623 36.5064 192.262 36.5727 191.957 36.7053C191.652 36.8345 191.415 37.0135 191.246 37.2422C191.08 37.4676 190.997 37.7244 190.997 38.0128C190.997 38.2547 191.054 38.4635 191.166 38.6392C191.282 38.8149 191.433 38.9624 191.619 39.0817C191.808 39.1977 192.01 39.2955 192.225 39.375C192.441 39.4512 192.648 39.5142 192.847 39.5639L193.841 39.8224C194.166 39.902 194.499 40.0097 194.84 40.1456C195.182 40.2815 195.498 40.4605 195.79 40.6825C196.082 40.9046 196.317 41.1797 196.496 41.5078C196.678 41.8359 196.769 42.2287 196.769 42.6861C196.769 43.2628 196.62 43.7749 196.322 44.2223C196.027 44.6697 195.598 45.0227 195.034 45.2812C194.474 45.5398 193.796 45.669 193.001 45.669C192.239 45.669 191.579 45.5481 191.022 45.3061C190.465 45.0642 190.029 44.7211 189.715 44.277C189.4 43.8295 189.226 43.2992 189.193 42.6861H190.734C190.764 43.054 190.883 43.3606 191.092 43.6058C191.304 43.8478 191.574 44.0284 191.902 44.1477C192.234 44.2637 192.596 44.3217 192.991 44.3217C193.425 44.3217 193.811 44.2538 194.149 44.1179C194.491 43.9787 194.759 43.7865 194.955 43.5412C195.15 43.2926 195.248 43.0026 195.248 42.6712C195.248 42.3696 195.162 42.1226 194.989 41.9304C194.82 41.7382 194.59 41.5791 194.298 41.4531C194.01 41.3272 193.684 41.2161 193.319 41.12L192.116 40.7919C191.301 40.5698 190.654 40.2434 190.177 39.8125C189.703 39.3816 189.466 38.8116 189.466 38.1023C189.466 37.5156 189.625 37.0036 189.943 36.5661C190.261 36.1286 190.692 35.7888 191.236 35.5469C191.779 35.3016 192.393 35.179 193.075 35.179C193.765 35.179 194.373 35.3 194.9 35.5419C195.43 35.7839 195.848 36.117 196.153 36.5412C196.458 36.9621 196.617 37.446 196.63 37.9929H195.149ZM201.777 45.6541C201.025 45.6541 200.377 45.4934 199.833 45.1719C199.293 44.8471 198.875 44.3913 198.58 43.8047C198.289 43.2147 198.143 42.5237 198.143 41.7315C198.143 40.9493 198.289 40.2599 198.58 39.6634C198.875 39.0668 199.286 38.6011 199.813 38.2663C200.343 37.9316 200.963 37.7642 201.673 37.7642C202.103 37.7642 202.521 37.8355 202.925 37.978C203.33 38.1205 203.693 38.3442 204.014 38.6491C204.336 38.9541 204.589 39.3501 204.775 39.8374C204.96 40.3213 205.053 40.9096 205.053 41.6023V42.1293H198.983V41.0156H203.597C203.597 40.6245 203.517 40.2782 203.358 39.9766C203.199 39.6716 202.975 39.4313 202.687 39.2557C202.402 39.08 202.067 38.9922 201.682 38.9922C201.265 38.9922 200.9 39.0949 200.589 39.3004C200.28 39.5026 200.042 39.7678 199.873 40.0959C199.707 40.4207 199.624 40.7737 199.624 41.1548V42.0249C199.624 42.5353 199.714 42.9695 199.893 43.3274C200.075 43.6854 200.329 43.9588 200.653 44.1477C200.978 44.3333 201.358 44.4261 201.792 44.4261C202.074 44.4261 202.33 44.3864 202.562 44.3068C202.794 44.224 202.995 44.1013 203.164 43.9389C203.333 43.7765 203.462 43.576 203.552 43.3374L204.959 43.5909C204.846 44.0052 204.644 44.3681 204.352 44.6797C204.064 44.9879 203.701 45.2282 203.263 45.4006C202.829 45.5696 202.334 45.6541 201.777 45.6541ZM208.189 40.9659V45.5H206.703V37.8636H208.129V39.1065H208.224C208.399 38.7022 208.675 38.3774 209.049 38.1321C209.427 37.8868 209.903 37.7642 210.476 37.7642C210.996 37.7642 211.452 37.8736 211.843 38.0923C212.234 38.3078 212.538 38.6293 212.753 39.0568C212.968 39.4844 213.076 40.013 213.076 40.6428V45.5H211.59V40.8217C211.59 40.2682 211.445 39.8357 211.157 39.5241C210.869 39.2093 210.473 39.0518 209.969 39.0518C209.624 39.0518 209.318 39.1264 209.049 39.2756C208.784 39.4247 208.574 39.6435 208.418 39.9318C208.265 40.2169 208.189 40.5616 208.189 40.9659ZM217.928 45.6491C217.312 45.6491 216.762 45.4917 216.278 45.1768C215.797 44.8587 215.419 44.4062 215.144 43.8196C214.873 43.2296 214.737 42.522 214.737 41.6967C214.737 40.8714 214.874 40.1655 215.149 39.5788C215.428 38.9922 215.809 38.5431 216.293 38.2315C216.777 37.92 217.325 37.7642 217.938 37.7642C218.412 37.7642 218.793 37.8438 219.082 38.0028C219.373 38.1586 219.599 38.3409 219.758 38.5497C219.92 38.7585 220.046 38.9425 220.136 39.1016H220.225V35.3182H221.712V45.5H220.26V44.3118H220.136C220.046 44.4742 219.917 44.6598 219.748 44.8686C219.582 45.0774 219.354 45.2597 219.062 45.4155C218.77 45.5713 218.392 45.6491 217.928 45.6491ZM218.257 44.3814C218.684 44.3814 219.045 44.2687 219.34 44.0433C219.639 43.8146 219.864 43.4981 220.016 43.0938C220.172 42.6894 220.25 42.2187 220.25 41.6818C220.25 41.1515 220.174 40.6875 220.021 40.2898C219.869 39.892 219.645 39.5821 219.35 39.3601C219.055 39.138 218.691 39.027 218.257 39.027C217.809 39.027 217.436 39.143 217.138 39.375C216.84 39.607 216.614 39.9235 216.462 40.3246C216.313 40.7256 216.238 41.178 216.238 41.6818C216.238 42.1922 216.314 42.6513 216.467 43.0589C216.619 43.4666 216.845 43.7898 217.143 44.0284C217.444 44.2637 217.816 44.3814 218.257 44.3814ZM227.658 45.5V35.3182H231.287C232.076 35.3182 232.73 35.4541 233.251 35.7259C233.774 35.9976 234.166 36.3738 234.424 36.8544C234.683 37.3317 234.812 37.8835 234.812 38.5099C234.812 39.133 234.681 39.6816 234.419 40.1555C234.161 40.6262 233.77 40.9924 233.246 41.2543C232.725 41.5161 232.071 41.647 231.282 41.647H228.533V40.3246H231.143C231.64 40.3246 232.044 40.2533 232.356 40.1108C232.671 39.9683 232.901 39.7611 233.047 39.4893C233.193 39.2176 233.266 38.8911 233.266 38.5099C233.266 38.1255 233.191 37.7924 233.042 37.5107C232.896 37.2289 232.666 37.0135 232.351 36.8643C232.039 36.7119 231.63 36.6357 231.123 36.6357H229.194V45.5H227.658ZM232.684 40.9062L235.2 45.5H233.45L230.984 40.9062H232.684ZM239.757 45.6541C239.005 45.6541 238.357 45.4934 237.813 45.1719C237.273 44.8471 236.856 44.3913 236.561 43.8047C236.269 43.2147 236.123 42.5237 236.123 41.7315C236.123 40.9493 236.269 40.2599 236.561 39.6634C236.856 39.0668 237.267 38.6011 237.794 38.2663C238.324 37.9316 238.944 37.7642 239.653 37.7642C240.084 37.7642 240.501 37.8355 240.906 37.978C241.31 38.1205 241.673 38.3442 241.995 38.6491C242.316 38.9541 242.57 39.3501 242.755 39.8374C242.941 40.3213 243.034 40.9096 243.034 41.6023V42.1293H236.963V41.0156H241.577C241.577 40.6245 241.497 40.2782 241.338 39.9766C241.179 39.6716 240.956 39.4313 240.667 39.2557C240.382 39.08 240.047 38.9922 239.663 38.9922C239.245 38.9922 238.881 39.0949 238.569 39.3004C238.261 39.5026 238.022 39.7678 237.853 40.0959C237.688 40.4207 237.605 40.7737 237.605 41.1548V42.0249C237.605 42.5353 237.694 42.9695 237.873 43.3274C238.055 43.6854 238.309 43.9588 238.634 44.1477C238.959 44.3333 239.338 44.4261 239.772 44.4261C240.054 44.4261 240.311 44.3864 240.543 44.3068C240.775 44.224 240.975 44.1013 241.144 43.9389C241.313 43.7765 241.443 43.576 241.532 43.3374L242.939 43.5909C242.827 44.0052 242.624 44.3681 242.333 44.6797C242.044 44.9879 241.681 45.2282 241.244 45.4006C240.81 45.5696 240.314 45.6541 239.757 45.6541ZM250.405 39.728L249.058 39.9666C249.002 39.7943 248.912 39.6302 248.79 39.4744C248.67 39.3187 248.508 39.1911 248.302 39.0916C248.097 38.9922 247.84 38.9425 247.532 38.9425C247.111 38.9425 246.759 39.0369 246.478 39.2259C246.196 39.4115 246.055 39.6518 246.055 39.9467C246.055 40.2019 246.15 40.4074 246.339 40.5632C246.527 40.719 246.832 40.8466 247.253 40.946L248.466 41.2244C249.169 41.3868 249.693 41.6371 250.037 41.9751C250.382 42.3132 250.554 42.7524 250.554 43.2926C250.554 43.75 250.422 44.1577 250.157 44.5156C249.895 44.8703 249.529 45.1487 249.058 45.3509C248.591 45.553 248.049 45.6541 247.432 45.6541C246.577 45.6541 245.879 45.4718 245.339 45.1072C244.799 44.7393 244.468 44.2173 244.345 43.5412L245.782 43.3224C245.871 43.697 246.055 43.9804 246.334 44.1726C246.612 44.3615 246.975 44.456 247.422 44.456C247.91 44.456 248.299 44.3549 248.591 44.1527C248.882 43.9472 249.028 43.697 249.028 43.402C249.028 43.1634 248.939 42.9628 248.76 42.8004C248.584 42.638 248.314 42.5154 247.949 42.4325L246.657 42.1491C245.944 41.9867 245.417 41.7282 245.076 41.3736C244.738 41.0189 244.569 40.5698 244.569 40.0263C244.569 39.5755 244.695 39.1811 244.946 38.843C245.198 38.505 245.546 38.2415 245.991 38.0526C246.435 37.8603 246.943 37.7642 247.517 37.7642C248.342 37.7642 248.992 37.9432 249.466 38.3011C249.94 38.6558 250.253 39.1314 250.405 39.728ZM255.48 45.6541C254.728 45.6541 254.08 45.4934 253.536 45.1719C252.996 44.8471 252.578 44.3913 252.283 43.8047C251.992 43.2147 251.846 42.5237 251.846 41.7315C251.846 40.9493 251.992 40.2599 252.283 39.6634C252.578 39.0668 252.989 38.6011 253.516 38.2663C254.047 37.9316 254.666 37.7642 255.376 37.7642C255.807 37.7642 256.224 37.8355 256.628 37.978C257.033 38.1205 257.396 38.3442 257.717 38.6491C258.039 38.9541 258.292 39.3501 258.478 39.8374C258.664 40.3213 258.756 40.9096 258.756 41.6023V42.1293H252.686V41.0156H257.3C257.3 40.6245 257.22 40.2782 257.061 39.9766C256.902 39.6716 256.678 39.4313 256.39 39.2557C256.105 39.08 255.77 38.9922 255.386 38.9922C254.968 38.9922 254.603 39.0949 254.292 39.3004C253.984 39.5026 253.745 39.7678 253.576 40.0959C253.41 40.4207 253.327 40.7737 253.327 41.1548V42.0249C253.327 42.5353 253.417 42.9695 253.596 43.3274C253.778 43.6854 254.032 43.9588 254.356 44.1477C254.681 44.3333 255.061 44.4261 255.495 44.4261C255.777 44.4261 256.034 44.3864 256.266 44.3068C256.498 44.224 256.698 44.1013 256.867 43.9389C257.036 43.7765 257.165 43.576 257.255 43.3374L258.662 43.5909C258.549 44.0052 258.347 44.3681 258.055 44.6797C257.767 44.9879 257.404 45.2282 256.967 45.4006C256.532 45.5696 256.037 45.6541 255.48 45.6541ZM263.97 37.8636V39.0568H259.799V37.8636H263.97ZM260.918 36.0341H262.404V43.2578C262.404 43.5462 262.447 43.7633 262.533 43.9091C262.62 44.0516 262.731 44.1494 262.867 44.2024C263.006 44.2521 263.157 44.277 263.319 44.277C263.438 44.277 263.543 44.2687 263.632 44.2521C263.722 44.2356 263.791 44.2223 263.841 44.2124L264.109 45.4403C264.023 45.4735 263.901 45.5066 263.742 45.5398C263.582 45.5762 263.384 45.5961 263.145 45.5994C262.754 45.6061 262.389 45.5365 262.051 45.3906C261.713 45.2448 261.44 45.0194 261.231 44.7145C261.022 44.4096 260.918 44.0268 260.918 43.5661V36.0341ZM269.439 45.5V35.3182H270.975V44.1776H275.589V45.5H269.439ZM277.222 45.5V37.8636H278.709V45.5H277.222ZM277.973 36.6854C277.714 36.6854 277.492 36.5992 277.307 36.4268C277.124 36.2512 277.033 36.0424 277.033 35.8004C277.033 35.5552 277.124 35.3464 277.307 35.174C277.492 34.9983 277.714 34.9105 277.973 34.9105C278.231 34.9105 278.452 34.9983 278.634 35.174C278.82 35.3464 278.912 35.5552 278.912 35.8004C278.912 36.0424 278.82 36.2512 278.634 36.4268C278.452 36.5992 278.231 36.6854 277.973 36.6854ZM282.195 40.9659V45.5H280.708V37.8636H282.135V39.1065H282.23C282.405 38.7022 282.68 38.3774 283.055 38.1321C283.433 37.8868 283.908 37.7642 284.482 37.7642C285.002 37.7642 285.458 37.8736 285.849 38.0923C286.24 38.3078 286.543 38.6293 286.759 39.0568C286.974 39.4844 287.082 40.013 287.082 40.6428V45.5H285.595V40.8217C285.595 40.2682 285.451 39.8357 285.163 39.5241C284.875 39.2093 284.479 39.0518 283.975 39.0518C283.63 39.0518 283.323 39.1264 283.055 39.2756C282.79 39.4247 282.579 39.6435 282.424 39.9318C282.271 40.2169 282.195 40.5616 282.195 40.9659ZM290.443 42.9098L290.433 41.0952H290.691L293.734 37.8636H295.514L292.044 41.5426H291.81L290.443 42.9098ZM289.076 45.5V35.3182H290.562V45.5H289.076ZM293.898 45.5L291.164 41.8707L292.188 40.8317L295.723 45.5H293.898Z" fill="white"/>
</g>
<defs>
<filter id="filter0_d_215_745" x="0" y="0" width="486" height="100" filterUnits="userSpaceOnUse" color-interpolation-filters="sRGB">
<feFlood flood-opacity="0" result="BackgroundImageFix"/>
<feColorMatrix in="SourceAlpha" type="matrix" values="0 0 0 0 0 0 0 0 0 0 0 0 0 0 0 0 0 0 127 0" result="hardAlpha"/>
<feOffset dy="10"/>
<feGaussianBlur stdDeviation="14"/>
<feComposite in2="hardAlpha" operator="out"/>
<feColorMatrix type="matrix" values="0 0 0 0 0.701961 0 0 0 0 0.533333 0 0 0 0 1 0 0 0 0.35 0"/>
<feBlend mode="normal" in2="BackgroundImageFix" result="effect1_dropShadow_215_745"/>
<feBlend mode="normal" in="SourceGraphic" in2="effect1_dropShadow_215_745" result="shape"/>
</filter>
</defs>
</svg>
