<svg width="486" height="100" viewBox="0 0 486 100" fill="none" xmlns="http://www.w3.org/2000/svg">
<g filter="url(#filter0_d_214_782)">
<rect x="28" y="18" width="430" height="44" rx="10" fill="#6366F1"/>
<rect x="28.5" y="18.5" width="429" height="43" rx="9.5" stroke="#6366F1"/>
<path d="M203.662 45.5V35.3182H207.291C208.08 35.3182 208.734 35.4541 209.255 35.7259C209.778 35.9976 210.169 36.3738 210.428 36.8544C210.686 37.3317 210.816 37.8835 210.816 38.5099C210.816 39.133 210.685 39.6816 210.423 40.1555C210.164 40.6262 209.773 40.9924 209.25 41.2543C208.729 41.5161 208.075 41.647 207.286 41.647H204.537V40.3246H207.147C207.644 40.3246 208.048 40.2533 208.36 40.1108C208.675 39.9683 208.905 39.7611 209.051 39.4893C209.197 39.2176 209.27 38.8911 209.27 38.5099C209.27 38.1255 209.195 37.7924 209.046 37.5107C208.9 37.2289 208.67 37.0135 208.355 36.8643C208.043 36.7119 207.634 36.6357 207.127 36.6357H205.198V45.5H203.662ZM208.688 40.9062L211.204 45.5H209.454L206.988 40.9062H208.688ZM215.761 45.6541C215.009 45.6541 214.361 45.4934 213.817 45.1719C213.277 44.8471 212.859 44.3913 212.565 43.8047C212.273 43.2147 212.127 42.5237 212.127 41.7315C212.127 40.9493 212.273 40.2599 212.565 39.6634C212.859 39.0668 213.27 38.6011 213.797 38.2663C214.328 37.9316 214.948 37.7642 215.657 37.7642C216.088 37.7642 216.505 37.8355 216.91 37.978C217.314 38.1205 217.677 38.3442 217.998 38.6491C218.32 38.9541 218.574 39.3501 218.759 39.8374C218.945 40.3213 219.038 40.9096 219.038 41.6023V42.1293H212.967V41.0156H217.581C217.581 40.6245 217.501 40.2782 217.342 39.9766C217.183 39.6716 216.959 39.4313 216.671 39.2557C216.386 39.08 216.051 38.9922 215.667 38.9922C215.249 38.9922 214.885 39.0949 214.573 39.3004C214.265 39.5026 214.026 39.7678 213.857 40.0959C213.691 40.4207 213.609 40.7737 213.609 41.1548V42.0249C213.609 42.5353 213.698 42.9695 213.877 43.3274C214.059 43.6854 214.313 43.9588 214.638 44.1477C214.962 44.3333 215.342 44.4261 215.776 44.4261C216.058 44.4261 216.315 44.3864 216.547 44.3068C216.779 44.224 216.979 44.1013 217.148 43.9389C217.317 43.7765 217.447 43.576 217.536 43.3374L218.943 43.5909C218.83 44.0052 218.628 44.3681 218.337 44.6797C218.048 44.9879 217.685 45.2282 217.248 45.4006C216.814 45.5696 216.318 45.6541 215.761 45.6541ZM226.409 39.728L225.062 39.9666C225.006 39.7943 224.916 39.6302 224.793 39.4744C224.674 39.3187 224.512 39.1911 224.306 39.0916C224.101 38.9922 223.844 38.9425 223.536 38.9425C223.115 38.9425 222.763 39.0369 222.482 39.2259C222.2 39.4115 222.059 39.6518 222.059 39.9467C222.059 40.2019 222.153 40.4074 222.342 40.5632C222.531 40.719 222.836 40.8466 223.257 40.946L224.47 41.2244C225.173 41.3868 225.697 41.6371 226.041 41.9751C226.386 42.3132 226.558 42.7524 226.558 43.2926C226.558 43.75 226.426 44.1577 226.161 44.5156C225.899 44.8703 225.532 45.1487 225.062 45.3509C224.595 45.553 224.053 45.6541 223.436 45.6541C222.581 45.6541 221.883 45.4718 221.343 45.1072C220.803 44.7393 220.471 44.2173 220.349 43.5412L221.786 43.3224C221.875 43.697 222.059 43.9804 222.337 44.1726C222.616 44.3615 222.979 44.456 223.426 44.456C223.913 44.456 224.303 44.3549 224.595 44.1527C224.886 43.9472 225.032 43.697 225.032 43.402C225.032 43.1634 224.943 42.9628 224.764 42.8004C224.588 42.638 224.318 42.5154 223.953 42.4325L222.661 42.1491C221.948 41.9867 221.421 41.7282 221.08 41.3736C220.742 41.0189 220.573 40.5698 220.573 40.0263C220.573 39.5755 220.698 39.1811 220.95 38.843C221.202 38.505 221.55 38.2415 221.994 38.0526C222.439 37.8603 222.947 37.7642 223.521 37.7642C224.346 37.7642 224.996 37.9432 225.47 38.3011C225.943 38.6558 226.257 39.1314 226.409 39.728ZM231.484 45.6541C230.732 45.6541 230.084 45.4934 229.54 45.1719C229 44.8471 228.582 44.3913 228.287 43.8047C227.996 43.2147 227.85 42.5237 227.85 41.7315C227.85 40.9493 227.996 40.2599 228.287 39.6634C228.582 39.0668 228.993 38.6011 229.52 38.2663C230.05 37.9316 230.67 37.7642 231.38 37.7642C231.81 37.7642 232.228 37.8355 232.632 37.978C233.037 38.1205 233.4 38.3442 233.721 38.6491C234.043 38.9541 234.296 39.3501 234.482 39.8374C234.667 40.3213 234.76 40.9096 234.76 41.6023V42.1293H228.69V41.0156H233.304C233.304 40.6245 233.224 40.2782 233.065 39.9766C232.906 39.6716 232.682 39.4313 232.394 39.2557C232.109 39.08 231.774 38.9922 231.389 38.9922C230.972 38.9922 230.607 39.0949 230.296 39.3004C229.987 39.5026 229.749 39.7678 229.58 40.0959C229.414 40.4207 229.331 40.7737 229.331 41.1548V42.0249C229.331 42.5353 229.421 42.9695 229.6 43.3274C229.782 43.6854 230.036 43.9588 230.36 44.1477C230.685 44.3333 231.065 44.4261 231.499 44.4261C231.781 44.4261 232.037 44.3864 232.269 44.3068C232.501 44.224 232.702 44.1013 232.871 43.9389C233.04 43.7765 233.169 43.576 233.259 43.3374L234.666 43.5909C234.553 44.0052 234.351 44.3681 234.059 44.6797C233.771 44.9879 233.408 45.2282 232.97 45.4006C232.536 45.5696 232.041 45.6541 231.484 45.6541ZM239.974 37.8636V39.0568H235.803V37.8636H239.974ZM236.922 36.0341H238.408V43.2578C238.408 43.5462 238.451 43.7633 238.537 43.9091C238.624 44.0516 238.735 44.1494 238.87 44.2024C239.01 44.2521 239.16 44.277 239.323 44.277C239.442 44.277 239.547 44.2687 239.636 44.2521C239.726 44.2356 239.795 44.2223 239.845 44.2124L240.113 45.4403C240.027 45.4735 239.905 45.5066 239.745 45.5398C239.586 45.5762 239.387 45.5961 239.149 45.5994C238.758 45.6061 238.393 45.5365 238.055 45.3906C237.717 45.2448 237.444 45.0194 237.235 44.7145C237.026 44.4096 236.922 44.0268 236.922 43.5661V36.0341ZM245.443 45.5V35.3182H249.072C249.864 35.3182 250.521 35.4624 251.041 35.7507C251.561 36.0391 251.951 36.4335 252.209 36.9339C252.468 37.4311 252.597 37.9912 252.597 38.6143C252.597 39.2408 252.466 39.8042 252.204 40.3047C251.946 40.8018 251.555 41.1963 251.031 41.4879C250.511 41.7763 249.856 41.9205 249.067 41.9205H246.571V40.6179H248.928C249.428 40.6179 249.834 40.5317 250.146 40.3594C250.458 40.1837 250.686 39.9451 250.832 39.6435C250.978 39.3419 251.051 38.9988 251.051 38.6143C251.051 38.2299 250.978 37.8885 250.832 37.5902C250.686 37.2919 250.456 37.0582 250.141 36.8892C249.829 36.7202 249.419 36.6357 248.908 36.6357H246.979V45.5H245.443ZM256.433 45.669C255.949 45.669 255.511 45.5795 255.12 45.4006C254.729 45.2183 254.419 44.9548 254.19 44.6101C253.965 44.2654 253.852 43.8428 253.852 43.3423C253.852 42.9115 253.935 42.5568 254.101 42.2784C254.267 42 254.49 41.7796 254.772 41.6172C255.054 41.4548 255.369 41.3321 255.717 41.2493C256.065 41.1664 256.419 41.1035 256.781 41.0604C257.238 41.0073 257.609 40.9643 257.894 40.9311C258.179 40.8946 258.386 40.8366 258.516 40.7571C258.645 40.6776 258.71 40.5483 258.71 40.3693V40.3345C258.71 39.9003 258.587 39.5639 258.342 39.3253C258.1 39.0866 257.738 38.9673 257.258 38.9673C256.757 38.9673 256.363 39.0784 256.075 39.3004C255.79 39.5192 255.592 39.7628 255.483 40.0312L254.086 39.7131C254.252 39.2491 254.494 38.8745 254.812 38.5895C255.133 38.3011 255.503 38.0923 255.921 37.9631C256.338 37.8305 256.777 37.7642 257.238 37.7642C257.543 37.7642 257.866 37.8007 258.207 37.8736C258.552 37.9432 258.874 38.0724 259.172 38.2614C259.474 38.4503 259.72 38.7204 259.913 39.0717C260.105 39.4197 260.201 39.8722 260.201 40.429V45.5H258.749V44.456H258.69C258.594 44.6482 258.449 44.8371 258.257 45.0227C258.065 45.2083 257.818 45.3625 257.516 45.4851C257.215 45.6077 256.854 45.669 256.433 45.669ZM256.756 44.4759C257.167 44.4759 257.518 44.3946 257.81 44.2322C258.105 44.0698 258.328 43.8577 258.481 43.5959C258.637 43.3307 258.715 43.0473 258.715 42.7457V41.7614C258.662 41.8144 258.559 41.8641 258.406 41.9105C258.257 41.9536 258.086 41.9917 257.894 42.0249C257.702 42.0547 257.515 42.0829 257.332 42.1094C257.15 42.1326 256.998 42.1525 256.875 42.169C256.587 42.2055 256.323 42.2668 256.085 42.353C255.849 42.4392 255.66 42.5634 255.518 42.7259C255.379 42.8849 255.309 43.0971 255.309 43.3622C255.309 43.7301 255.445 44.0085 255.717 44.1974C255.988 44.383 256.335 44.4759 256.756 44.4759ZM267.903 39.728L266.556 39.9666C266.5 39.7943 266.41 39.6302 266.288 39.4744C266.168 39.3187 266.006 39.1911 265.8 39.0916C265.595 38.9922 265.338 38.9425 265.03 38.9425C264.609 38.9425 264.257 39.0369 263.976 39.2259C263.694 39.4115 263.553 39.6518 263.553 39.9467C263.553 40.2019 263.648 40.4074 263.837 40.5632C264.025 40.719 264.33 40.8466 264.751 40.946L265.964 41.2244C266.667 41.3868 267.191 41.6371 267.535 41.9751C267.88 42.3132 268.052 42.7524 268.052 43.2926C268.052 43.75 267.92 44.1577 267.655 44.5156C267.393 44.8703 267.027 45.1487 266.556 45.3509C266.089 45.553 265.547 45.6541 264.93 45.6541C264.075 45.6541 263.377 45.4718 262.837 45.1072C262.297 44.7393 261.966 44.2173 261.843 43.5412L263.28 43.3224C263.369 43.697 263.553 43.9804 263.832 44.1726C264.11 44.3615 264.473 44.456 264.92 44.456C265.408 44.456 265.797 44.3549 266.089 44.1527C266.38 43.9472 266.526 43.697 266.526 43.402C266.526 43.1634 266.437 42.9628 266.258 42.8004C266.082 42.638 265.812 42.5154 265.447 42.4325L264.155 42.1491C263.442 41.9867 262.915 41.7282 262.574 41.3736C262.236 41.0189 262.067 40.5698 262.067 40.0263C262.067 39.5755 262.193 39.1811 262.444 38.843C262.696 38.505 263.044 38.2415 263.489 38.0526C263.933 37.8603 264.441 37.7642 265.015 37.7642C265.84 37.7642 266.49 37.9432 266.964 38.3011C267.438 38.6558 267.751 39.1314 267.903 39.728ZM275.409 39.728L274.062 39.9666C274.006 39.7943 273.916 39.6302 273.793 39.4744C273.674 39.3187 273.512 39.1911 273.306 39.0916C273.101 38.9922 272.844 38.9425 272.536 38.9425C272.115 38.9425 271.763 39.0369 271.482 39.2259C271.2 39.4115 271.059 39.6518 271.059 39.9467C271.059 40.2019 271.153 40.4074 271.342 40.5632C271.531 40.719 271.836 40.8466 272.257 40.946L273.47 41.2244C274.173 41.3868 274.697 41.6371 275.041 41.9751C275.386 42.3132 275.558 42.7524 275.558 43.2926C275.558 43.75 275.426 44.1577 275.161 44.5156C274.899 44.8703 274.532 45.1487 274.062 45.3509C273.595 45.553 273.053 45.6541 272.436 45.6541C271.581 45.6541 270.883 45.4718 270.343 45.1072C269.803 44.7393 269.471 44.2173 269.349 43.5412L270.786 43.3224C270.875 43.697 271.059 43.9804 271.337 44.1726C271.616 44.3615 271.979 44.456 272.426 44.456C272.913 44.456 273.303 44.3549 273.595 44.1527C273.886 43.9472 274.032 43.697 274.032 43.402C274.032 43.1634 273.943 42.9628 273.764 42.8004C273.588 42.638 273.318 42.5154 272.953 42.4325L271.661 42.1491C270.948 41.9867 270.421 41.7282 270.08 41.3736C269.742 41.0189 269.573 40.5698 269.573 40.0263C269.573 39.5755 269.698 39.1811 269.95 38.843C270.202 38.505 270.55 38.2415 270.994 38.0526C271.439 37.8603 271.947 37.7642 272.521 37.7642C273.346 37.7642 273.996 37.9432 274.47 38.3011C274.943 38.6558 275.257 39.1314 275.409 39.728ZM278.848 45.5L276.601 37.8636H278.137L279.634 43.4716H279.708L281.21 37.8636H282.746L284.237 43.4467H284.312L285.799 37.8636H287.335L285.093 45.5H283.576L282.025 39.9865H281.911L280.36 45.5H278.848ZM291.73 45.6541C291.014 45.6541 290.389 45.4901 289.855 45.1619C289.322 44.8338 288.907 44.3748 288.612 43.7848C288.317 43.1948 288.17 42.5054 288.17 41.7166C288.17 40.9245 288.317 40.2318 288.612 39.6385C288.907 39.0452 289.322 38.5845 289.855 38.2564C290.389 37.9283 291.014 37.7642 291.73 37.7642C292.446 37.7642 293.07 37.9283 293.604 38.2564C294.138 38.5845 294.552 39.0452 294.847 39.6385C295.142 40.2318 295.289 40.9245 295.289 41.7166C295.289 42.5054 295.142 43.1948 294.847 43.7848C294.552 44.3748 294.138 44.8338 293.604 45.1619C293.07 45.4901 292.446 45.6541 291.73 45.6541ZM291.735 44.4062C292.199 44.4062 292.583 44.2836 292.888 44.0384C293.193 43.7931 293.418 43.4666 293.564 43.0589C293.713 42.6513 293.788 42.2022 293.788 41.7116C293.788 41.2244 293.713 40.777 293.564 40.3693C293.418 39.9583 293.193 39.6286 292.888 39.38C292.583 39.1314 292.199 39.0071 291.735 39.0071C291.267 39.0071 290.88 39.1314 290.571 39.38C290.266 39.6286 290.039 39.9583 289.89 40.3693C289.744 40.777 289.671 41.2244 289.671 41.7116C289.671 42.2022 289.744 42.6513 289.89 43.0589C290.039 43.4666 290.266 43.7931 290.571 44.0384C290.88 44.2836 291.267 44.4062 291.735 44.4062ZM296.949 45.5V37.8636H298.385V39.0767H298.465C298.604 38.6657 298.849 38.3426 299.201 38.1072C299.555 37.8686 299.956 37.7493 300.404 37.7493C300.497 37.7493 300.606 37.7526 300.732 37.7592C300.861 37.7659 300.962 37.7741 301.035 37.7841V39.206C300.976 39.1894 300.869 39.1712 300.717 39.1513C300.565 39.1281 300.412 39.1165 300.26 39.1165C299.908 39.1165 299.595 39.1911 299.32 39.3402C299.048 39.486 298.833 39.6899 298.674 39.9517C298.515 40.2102 298.435 40.5052 298.435 40.8366V45.5H296.949ZM304.907 45.6491C304.29 45.6491 303.74 45.4917 303.256 45.1768C302.776 44.8587 302.398 44.4062 302.123 43.8196C301.851 43.2296 301.715 42.522 301.715 41.6967C301.715 40.8714 301.853 40.1655 302.128 39.5788C302.406 38.9922 302.787 38.5431 303.271 38.2315C303.755 37.92 304.304 37.7642 304.917 37.7642C305.391 37.7642 305.772 37.8438 306.06 38.0028C306.352 38.1586 306.577 38.3409 306.736 38.5497C306.899 38.7585 307.025 38.9425 307.114 39.1016H307.204V35.3182H308.69V45.5H307.239V44.3118H307.114C307.025 44.4742 306.895 44.6598 306.726 44.8686C306.561 45.0774 306.332 45.2597 306.04 45.4155C305.749 45.5713 305.371 45.6491 304.907 45.6491ZM305.235 44.3814C305.663 44.3814 306.024 44.2687 306.319 44.0433C306.617 43.8146 306.842 43.4981 306.995 43.0938C307.151 42.6894 307.229 42.2187 307.229 41.6818C307.229 41.1515 307.152 40.6875 307 40.2898C306.847 39.892 306.624 39.5821 306.329 39.3601C306.034 39.138 305.669 39.027 305.235 39.027C304.788 39.027 304.415 39.143 304.116 39.375C303.818 39.607 303.593 39.9235 303.44 40.3246C303.291 40.7256 303.217 41.178 303.217 41.6818C303.217 42.1922 303.293 42.6513 303.445 43.0589C303.598 43.4666 303.823 43.7898 304.121 44.0284C304.423 44.2637 304.794 44.3814 305.235 44.3814Z" fill="white"/>
</g>
<defs>
<filter id="filter0_d_214_782" x="0" y="0" width="486" height="100" filterUnits="userSpaceOnUse" color-interpolation-filters="sRGB">
<feFlood flood-opacity="0" result="BackgroundImageFix"/>
<feColorMatrix in="SourceAlpha" type="matrix" values="0 0 0 0 0 0 0 0 0 0 0 0 0 0 0 0 0 0 127 0" result="hardAlpha"/>
<feOffset dy="10"/>
<feGaussianBlur stdDeviation="14"/>
<feComposite in2="hardAlpha" operator="out"/>
<feColorMatrix type="matrix" values="0 0 0 0 0.701961 0 0 0 0 0.533333 0 0 0 0 1 0 0 0 0.35 0"/>
<feBlend mode="normal" in2="BackgroundImageFix" result="effect1_dropShadow_214_782"/>
<feBlend mode="normal" in="SourceGraphic" in2="effect1_dropShadow_214_782" result="shape"/>
</filter>
</defs>
</svg>
