<svg width="158" height="48" viewBox="0 0 158 48" fill="none" xmlns="http://www.w3.org/2000/svg">
<rect width="157.734" height="48" rx="16" fill="#6366F1"/>
<rect width="157.734" height="48" rx="16" stroke="#E5E7EB"/>
<path d="M31.9297 20.4205C31.8691 19.8826 31.6191 19.4659 31.1797 19.1705C30.7403 18.8712 30.1873 18.7216 29.5206 18.7216C29.0433 18.7216 28.6304 18.7973 28.282 18.9489C27.9335 19.0966 27.6626 19.3011 27.4695 19.5625C27.2801 19.8201 27.1854 20.1136 27.1854 20.4432C27.1854 20.7197 27.2498 20.9583 27.3786 21.1591C27.5111 21.3598 27.6835 21.5284 27.8956 21.6648C28.1115 21.7973 28.3426 21.9091 28.5888 22C28.835 22.0871 29.0717 22.1591 29.299 22.2159L30.4354 22.5114C30.8066 22.6023 31.1873 22.7254 31.5774 22.8807C31.9676 23.036 32.3293 23.2405 32.6626 23.4943C32.996 23.7481 33.2649 24.0625 33.4695 24.4375C33.6778 24.8125 33.782 25.2614 33.782 25.7841C33.782 26.4432 33.6115 27.0284 33.2706 27.5398C32.9335 28.0511 32.4429 28.4545 31.799 28.75C31.1589 29.0455 30.3842 29.1932 29.4751 29.1932C28.6039 29.1932 27.8501 29.0549 27.2138 28.7784C26.5774 28.5019 26.0793 28.1098 25.7195 27.6023C25.3596 27.0909 25.1607 26.4848 25.1229 25.7841H26.8842C26.9183 26.2045 27.0547 26.5549 27.2933 26.8352C27.5357 27.1117 27.8445 27.3182 28.2195 27.4545C28.5982 27.5871 29.013 27.6534 29.4638 27.6534C29.96 27.6534 30.4013 27.5758 30.7876 27.4205C31.1778 27.2614 31.4846 27.0417 31.7081 26.7614C31.9316 26.4773 32.0433 26.1458 32.0433 25.767C32.0433 25.4223 31.9448 25.1402 31.7479 24.9205C31.5547 24.7008 31.2914 24.5189 30.9581 24.375C30.6286 24.2311 30.2554 24.1042 29.8388 23.9943L28.4638 23.6193C27.532 23.3655 26.7933 22.9924 26.2479 22.5C25.7062 22.0076 25.4354 21.3561 25.4354 20.5455C25.4354 19.875 25.6172 19.2898 25.9808 18.7898C26.3445 18.2898 26.8369 17.9015 27.4581 17.625C28.0793 17.3447 28.7801 17.2045 29.5604 17.2045C30.3482 17.2045 31.0433 17.3428 31.6456 17.6193C32.2517 17.8958 32.7289 18.2765 33.0774 18.7614C33.4259 19.2424 33.6077 19.7955 33.6229 20.4205H31.9297ZM38.2834 29.1932C37.7304 29.1932 37.2304 29.0909 36.7834 28.8864C36.3364 28.678 35.9822 28.3769 35.7209 27.983C35.4633 27.589 35.3345 27.1061 35.3345 26.5341C35.3345 26.0417 35.4292 25.6364 35.6186 25.3182C35.808 25 36.0637 24.7481 36.3857 24.5625C36.7076 24.3769 37.0675 24.2367 37.4652 24.142C37.8629 24.0473 38.2682 23.9754 38.6811 23.9261C39.2038 23.8655 39.6281 23.8163 39.9538 23.7784C40.2796 23.7367 40.5163 23.6705 40.6641 23.5795C40.8118 23.4886 40.8857 23.3409 40.8857 23.1364V23.0966C40.8857 22.6004 40.7455 22.2159 40.4652 21.9432C40.1887 21.6705 39.7758 21.5341 39.2266 21.5341C38.6546 21.5341 38.2038 21.661 37.8743 21.9148C37.5485 22.1648 37.3232 22.4432 37.1982 22.75L35.6016 22.3864C35.791 21.8561 36.0675 21.428 36.4311 21.1023C36.7985 20.7727 37.2209 20.5341 37.6982 20.3864C38.1754 20.2348 38.6773 20.1591 39.2038 20.1591C39.5523 20.1591 39.9216 20.2008 40.3118 20.2841C40.7057 20.3636 41.0732 20.5114 41.4141 20.7273C41.7588 20.9432 42.041 21.2519 42.2607 21.6534C42.4804 22.0511 42.5902 22.5682 42.5902 23.2045V29H40.9311V27.8068H40.8629C40.7531 28.0265 40.5883 28.2424 40.3686 28.4545C40.1489 28.6667 39.8667 28.8428 39.522 28.983C39.1773 29.1231 38.7644 29.1932 38.2834 29.1932ZM38.6527 27.8295C39.1224 27.8295 39.5239 27.7367 39.8572 27.5511C40.1944 27.3655 40.45 27.1231 40.6243 26.8239C40.8023 26.5208 40.8913 26.197 40.8913 25.8523V24.7273C40.8307 24.7879 40.7133 24.8447 40.5391 24.8977C40.3686 24.947 40.1735 24.9905 39.9538 25.0284C39.7341 25.0625 39.5201 25.0947 39.3118 25.125C39.1035 25.1515 38.9292 25.1742 38.7891 25.1932C38.4595 25.2348 38.1584 25.3049 37.8857 25.4034C37.6167 25.5019 37.4008 25.6439 37.2379 25.8295C37.0788 26.0114 36.9993 26.2538 36.9993 26.5568C36.9993 26.9773 37.1546 27.2955 37.4652 27.5114C37.7758 27.7235 38.1716 27.8295 38.6527 27.8295ZM52.0064 20.2727L48.8416 29H47.0234L43.853 20.2727H45.6768L47.8871 26.9886H47.978L50.1825 20.2727H52.0064ZM57.0675 29.1761C56.2076 29.1761 55.4671 28.9924 54.8459 28.625C54.2285 28.2538 53.7512 27.733 53.4141 27.0625C53.0807 26.3883 52.9141 25.5985 52.9141 24.6932C52.9141 23.7992 53.0807 23.0114 53.4141 22.3295C53.7512 21.6477 54.2209 21.1155 54.8232 20.733C55.4292 20.3504 56.1375 20.1591 56.9482 20.1591C57.4406 20.1591 57.9179 20.2405 58.38 20.4034C58.8421 20.5663 59.2569 20.822 59.6243 21.1705C59.9917 21.5189 60.2815 21.9716 60.4936 22.5284C60.7057 23.0814 60.8118 23.7538 60.8118 24.5455V25.1477H53.8743V23.875H59.147C59.147 23.428 59.0561 23.0322 58.8743 22.6875C58.6925 22.339 58.4368 22.0644 58.1072 21.8636C57.7815 21.6629 57.3989 21.5625 56.9595 21.5625C56.4822 21.5625 56.0656 21.6799 55.7095 21.9148C55.3572 22.1458 55.0845 22.4489 54.8913 22.8239C54.7019 23.1951 54.6072 23.5985 54.6072 24.0341V25.0284C54.6072 25.6117 54.7095 26.108 54.9141 26.517C55.1224 26.9261 55.4122 27.2386 55.7834 27.4545C56.1546 27.6667 56.5883 27.7727 57.0845 27.7727C57.4065 27.7727 57.7 27.7273 57.9652 27.6364C58.2304 27.5417 58.4595 27.4015 58.6527 27.2159C58.8459 27.0303 58.9936 26.8011 59.0959 26.5284L60.7038 26.8182C60.575 27.2917 60.344 27.7064 60.0107 28.0625C59.6811 28.4148 59.2663 28.6894 58.7663 28.8864C58.2701 29.0795 57.7038 29.1761 57.0675 29.1761ZM76.7322 21.1477H74.9595C74.8913 20.7689 74.7644 20.4356 74.5788 20.1477C74.3932 19.8598 74.166 19.6155 73.897 19.4148C73.6281 19.214 73.3269 19.0625 72.9936 18.9602C72.6641 18.858 72.3137 18.8068 71.9425 18.8068C71.272 18.8068 70.6716 18.9754 70.1413 19.3125C69.6148 19.6496 69.1982 20.1439 68.8913 20.7955C68.5883 21.447 68.4368 22.2424 68.4368 23.1818C68.4368 24.1288 68.5883 24.928 68.8913 25.5795C69.1982 26.2311 69.6167 26.7235 70.147 27.0568C70.6773 27.3902 71.2739 27.5568 71.9368 27.5568C72.3042 27.5568 72.6527 27.5076 72.9822 27.4091C73.3156 27.3068 73.6167 27.1572 73.8857 26.9602C74.1546 26.7633 74.3819 26.5227 74.5675 26.2386C74.7569 25.9508 74.8875 25.6212 74.9595 25.25L76.7322 25.2557C76.6375 25.8277 76.4538 26.3542 76.1811 26.8352C75.9122 27.3125 75.5656 27.7254 75.1413 28.0739C74.7209 28.4186 74.2398 28.6856 73.6982 28.875C73.1565 29.0644 72.5656 29.1591 71.9254 29.1591C70.9179 29.1591 70.0201 28.9205 69.2322 28.4432C68.4444 27.9621 67.8232 27.2746 67.3686 26.3807C66.9179 25.4867 66.6925 24.4205 66.6925 23.1818C66.6925 21.9394 66.9197 20.8731 67.3743 19.983C67.8288 19.089 68.45 18.4034 69.2379 17.9261C70.0258 17.4451 70.9216 17.2045 71.9254 17.2045C72.5429 17.2045 73.1186 17.2936 73.6527 17.4716C74.1906 17.6458 74.6735 17.9034 75.1016 18.2443C75.5296 18.5814 75.8838 18.9943 76.1641 19.483C76.4444 19.9678 76.6338 20.5227 76.7322 21.1477ZM80.3956 23.8182V29H78.6967V17.3636H80.3729V21.6932H80.4808C80.6854 21.2235 80.9979 20.8504 81.4183 20.5739C81.8388 20.2973 82.388 20.1591 83.0661 20.1591C83.6645 20.1591 84.1873 20.2822 84.6342 20.5284C85.085 20.7746 85.4335 21.142 85.6797 21.6307C85.9297 22.1155 86.0547 22.7216 86.0547 23.4489V29H84.3558V23.6534C84.3558 23.0133 84.1911 22.517 83.8615 22.1648C83.532 21.8087 83.0736 21.6307 82.4865 21.6307C82.085 21.6307 81.7251 21.7159 81.407 21.8864C81.0926 22.0568 80.8445 22.3068 80.6626 22.6364C80.4846 22.9621 80.3956 23.3561 80.3956 23.8182ZM90.8615 29.1932C90.3085 29.1932 89.8085 29.0909 89.3615 28.8864C88.9145 28.678 88.5604 28.3769 88.299 27.983C88.0414 27.589 87.9126 27.1061 87.9126 26.5341C87.9126 26.0417 88.0073 25.6364 88.1967 25.3182C88.3861 25 88.6418 24.7481 88.9638 24.5625C89.2857 24.3769 89.6456 24.2367 90.0433 24.142C90.4411 24.0473 90.8464 23.9754 91.2592 23.9261C91.782 23.8655 92.2062 23.8163 92.532 23.7784C92.8577 23.7367 93.0945 23.6705 93.2422 23.5795C93.3899 23.4886 93.4638 23.3409 93.4638 23.1364V23.0966C93.4638 22.6004 93.3236 22.2159 93.0433 21.9432C92.7668 21.6705 92.3539 21.5341 91.8047 21.5341C91.2327 21.5341 90.782 21.661 90.4524 21.9148C90.1267 22.1648 89.9013 22.4432 89.7763 22.75L88.1797 22.3864C88.3691 21.8561 88.6456 21.428 89.0092 21.1023C89.3767 20.7727 89.799 20.5341 90.2763 20.3864C90.7536 20.2348 91.2554 20.1591 91.782 20.1591C92.1304 20.1591 92.4998 20.2008 92.8899 20.2841C93.2839 20.3636 93.6513 20.5114 93.9922 20.7273C94.3369 20.9432 94.6191 21.2519 94.8388 21.6534C95.0585 22.0511 95.1683 22.5682 95.1683 23.2045V29H93.5092V27.8068H93.4411C93.3312 28.0265 93.1664 28.2424 92.9467 28.4545C92.727 28.6667 92.4448 28.8428 92.1001 28.983C91.7554 29.1231 91.3426 29.1932 90.8615 29.1932ZM91.2308 27.8295C91.7005 27.8295 92.102 27.7367 92.4354 27.5511C92.7725 27.3655 93.0282 27.1231 93.2024 26.8239C93.3804 26.5208 93.4695 26.197 93.4695 25.8523V24.7273C93.4089 24.7879 93.2914 24.8447 93.1172 24.8977C92.9467 24.947 92.7517 24.9905 92.532 25.0284C92.3123 25.0625 92.0982 25.0947 91.8899 25.125C91.6816 25.1515 91.5073 25.1742 91.3672 25.1932C91.0376 25.2348 90.7365 25.3049 90.4638 25.4034C90.1948 25.5019 89.9789 25.6439 89.8161 25.8295C89.657 26.0114 89.5774 26.2538 89.5774 26.5568C89.5774 26.9773 89.7327 27.2955 90.0433 27.5114C90.3539 27.7235 90.7498 27.8295 91.2308 27.8295ZM99.13 23.8182V29H97.4311V20.2727H99.0618V21.6932H99.1697C99.3705 21.2311 99.6849 20.8598 100.113 20.5795C100.545 20.2992 101.088 20.1591 101.744 20.1591C102.338 20.1591 102.859 20.2841 103.306 20.5341C103.753 20.7803 104.1 21.1477 104.346 21.6364C104.592 22.125 104.715 22.7292 104.715 23.4489V29H103.016V23.6534C103.016 23.0208 102.852 22.5265 102.522 22.1705C102.192 21.8106 101.74 21.6307 101.164 21.6307C100.77 21.6307 100.42 21.7159 100.113 21.8864C99.8099 22.0568 99.5694 22.3068 99.3913 22.6364C99.2171 22.9621 99.13 23.3561 99.13 23.8182ZM110.653 32.4545C109.96 32.4545 109.363 32.3636 108.863 32.1818C108.367 32 107.961 31.7595 107.647 31.4602C107.333 31.161 107.098 30.8333 106.942 30.4773L108.403 29.875C108.505 30.0417 108.641 30.2178 108.812 30.4034C108.986 30.5928 109.221 30.7538 109.516 30.8864C109.816 31.0189 110.2 31.0852 110.67 31.0852C111.314 31.0852 111.846 30.928 112.266 30.6136C112.687 30.303 112.897 29.8068 112.897 29.125V27.4091H112.789C112.687 27.5947 112.539 27.8011 112.346 28.0284C112.156 28.2557 111.895 28.4527 111.562 28.6193C111.228 28.786 110.795 28.8693 110.261 28.8693C109.571 28.8693 108.95 28.7083 108.397 28.3864C107.848 28.0606 107.412 27.5814 107.09 26.9489C106.772 26.3125 106.613 25.5303 106.613 24.6023C106.613 23.6742 106.77 22.8788 107.085 22.2159C107.403 21.553 107.838 21.0455 108.391 20.6932C108.944 20.3371 109.571 20.1591 110.272 20.1591C110.814 20.1591 111.251 20.25 111.585 20.4318C111.918 20.6098 112.177 20.8182 112.363 21.0568C112.552 21.2955 112.698 21.5057 112.8 21.6875H112.925V20.2727H114.59V29.1932C114.59 29.9432 114.416 30.5587 114.067 31.0398C113.719 31.5208 113.247 31.8769 112.653 32.108C112.062 32.339 111.395 32.4545 110.653 32.4545ZM110.636 27.4602C111.124 27.4602 111.537 27.3466 111.874 27.1193C112.215 26.8883 112.473 26.5587 112.647 26.1307C112.825 25.6989 112.914 25.1818 112.914 24.5795C112.914 23.9924 112.827 23.4754 112.653 23.0284C112.478 22.5814 112.223 22.233 111.886 21.983C111.549 21.7292 111.132 21.6023 110.636 21.6023C110.124 21.6023 109.698 21.7348 109.357 22C109.016 22.2614 108.759 22.6174 108.585 23.0682C108.414 23.5189 108.329 24.0227 108.329 24.5795C108.329 25.1515 108.416 25.6534 108.59 26.0852C108.764 26.517 109.022 26.8542 109.363 27.0966C109.708 27.339 110.132 27.4602 110.636 27.4602ZM120.63 29.1761C119.77 29.1761 119.03 28.9924 118.408 28.625C117.791 28.2538 117.314 27.733 116.977 27.0625C116.643 26.3883 116.477 25.5985 116.477 24.6932C116.477 23.7992 116.643 23.0114 116.977 22.3295C117.314 21.6477 117.783 21.1155 118.386 20.733C118.992 20.3504 119.7 20.1591 120.511 20.1591C121.003 20.1591 121.48 20.2405 121.942 20.4034C122.405 20.5663 122.819 20.822 123.187 21.1705C123.554 21.5189 123.844 21.9716 124.056 22.5284C124.268 23.0814 124.374 23.7538 124.374 24.5455V25.1477H117.437V23.875H122.71C122.71 23.428 122.619 23.0322 122.437 22.6875C122.255 22.339 121.999 22.0644 121.67 21.8636C121.344 21.6629 120.961 21.5625 120.522 21.5625C120.045 21.5625 119.628 21.6799 119.272 21.9148C118.92 22.1458 118.647 22.4489 118.454 22.8239C118.264 23.1951 118.17 23.5985 118.17 24.0341V25.0284C118.17 25.6117 118.272 26.108 118.477 26.517C118.685 26.9261 118.975 27.2386 119.346 27.4545C119.717 27.6667 120.151 27.7727 120.647 27.7727C120.969 27.7727 121.263 27.7273 121.528 27.6364C121.793 27.5417 122.022 27.4015 122.215 27.2159C122.408 27.0303 122.556 26.8011 122.658 26.5284L124.266 26.8182C124.138 27.2917 123.906 27.7064 123.573 28.0625C123.244 28.4148 122.829 28.6894 122.329 28.8864C121.833 29.0795 121.266 29.1761 120.63 29.1761ZM132.799 22.4034L131.259 22.6761C131.195 22.4792 131.093 22.2917 130.952 22.1136C130.816 21.9356 130.63 21.7898 130.396 21.6761C130.161 21.5625 129.867 21.5057 129.515 21.5057C129.034 21.5057 128.632 21.6136 128.31 21.8295C127.988 22.0417 127.827 22.3163 127.827 22.6534C127.827 22.9451 127.935 23.1799 128.151 23.358C128.367 23.536 128.716 23.6818 129.197 23.7955L130.583 24.1136C131.386 24.2992 131.985 24.5852 132.379 24.9716C132.772 25.358 132.969 25.8598 132.969 26.4773C132.969 27 132.818 27.4659 132.515 27.875C132.216 28.2803 131.797 28.5985 131.259 28.8295C130.725 29.0606 130.106 29.1761 129.401 29.1761C128.424 29.1761 127.627 28.9678 127.009 28.5511C126.392 28.1307 126.013 27.5341 125.873 26.7614L127.515 26.5114C127.617 26.9394 127.827 27.2633 128.146 27.483C128.464 27.6989 128.879 27.8068 129.39 27.8068C129.947 27.8068 130.392 27.6913 130.725 27.4602C131.058 27.2254 131.225 26.9394 131.225 26.6023C131.225 26.3295 131.123 26.1004 130.918 25.9148C130.718 25.7292 130.409 25.589 129.992 25.4943L128.515 25.1705C127.701 24.9848 127.098 24.6894 126.708 24.2841C126.322 23.8788 126.129 23.3655 126.129 22.7443C126.129 22.2292 126.272 21.7784 126.56 21.392C126.848 21.0057 127.246 20.7045 127.754 20.4886C128.261 20.2689 128.843 20.1591 129.498 20.1591C130.441 20.1591 131.183 20.3636 131.725 20.7727C132.267 21.178 132.625 21.7216 132.799 22.4034Z" fill="white"/>
</svg>
