<svg width="212" height="48" viewBox="0 0 212 48" fill="none" xmlns="http://www.w3.org/2000/svg">
<rect width="211.391" height="48" rx="16" fill="#6366F1"/>
<rect width="211.391" height="48" rx="16" stroke="#E5E7EB"/>
<path d="M32.3281 20.4205C32.2675 19.8826 32.0175 19.4659 31.5781 19.1705C31.1387 18.8712 30.5857 18.7216 29.919 18.7216C29.4418 18.7216 29.0289 18.7973 28.6804 18.9489C28.3319 19.0966 28.0611 19.3011 27.8679 19.5625C27.6785 19.8201 27.5838 20.1136 27.5838 20.4432C27.5838 20.7197 27.6482 20.9583 27.777 21.1591C27.9096 21.3598 28.0819 21.5284 28.294 21.6648C28.5099 21.7973 28.741 21.9091 28.9872 22C29.2334 22.0871 29.4702 22.1591 29.6974 22.2159L30.8338 22.5114C31.205 22.6023 31.5857 22.7254 31.9759 22.8807C32.366 23.036 32.7277 23.2405 33.0611 23.4943C33.3944 23.7481 33.6634 24.0625 33.8679 24.4375C34.0762 24.8125 34.1804 25.2614 34.1804 25.7841C34.1804 26.4432 34.0099 27.0284 33.669 27.5398C33.3319 28.0511 32.8414 28.4545 32.1974 28.75C31.5573 29.0455 30.7827 29.1932 29.8736 29.1932C29.0024 29.1932 28.2486 29.0549 27.6122 28.7784C26.9759 28.5019 26.4777 28.1098 26.1179 27.6023C25.758 27.0909 25.5592 26.4848 25.5213 25.7841H27.2827C27.3168 26.2045 27.4531 26.5549 27.6918 26.8352C27.9342 27.1117 28.2429 27.3182 28.6179 27.4545C28.9967 27.5871 29.4115 27.6534 29.8622 27.6534C30.3584 27.6534 30.7997 27.5758 31.1861 27.4205C31.5762 27.2614 31.883 27.0417 32.1065 26.7614C32.33 26.4773 32.4418 26.1458 32.4418 25.767C32.4418 25.4223 32.3433 25.1402 32.1463 24.9205C31.9531 24.7008 31.6899 24.5189 31.3565 24.375C31.027 24.2311 30.6539 24.1042 30.2372 23.9943L28.8622 23.6193C27.9304 23.3655 27.1918 22.9924 26.6463 22.5C26.1046 22.0076 25.8338 21.3561 25.8338 20.5455C25.8338 19.875 26.0156 19.2898 26.3793 18.7898C26.7429 18.2898 27.2353 17.9015 27.8565 17.625C28.4777 17.3447 29.1785 17.2045 29.9588 17.2045C30.7467 17.2045 31.4418 17.3428 32.044 17.6193C32.6501 17.8958 33.1274 18.2765 33.4759 18.7614C33.8243 19.2424 34.0062 19.7955 34.0213 20.4205H32.3281ZM38.6818 29.1932C38.1288 29.1932 37.6288 29.0909 37.1818 28.8864C36.7348 28.678 36.3807 28.3769 36.1193 27.983C35.8617 27.589 35.733 27.1061 35.733 26.5341C35.733 26.0417 35.8277 25.6364 36.017 25.3182C36.2064 25 36.4621 24.7481 36.7841 24.5625C37.1061 24.3769 37.4659 24.2367 37.8636 24.142C38.2614 24.0473 38.6667 23.9754 39.0795 23.9261C39.6023 23.8655 40.0265 23.8163 40.3523 23.7784C40.678 23.7367 40.9148 23.6705 41.0625 23.5795C41.2102 23.4886 41.2841 23.3409 41.2841 23.1364V23.0966C41.2841 22.6004 41.1439 22.2159 40.8636 21.9432C40.5871 21.6705 40.1742 21.5341 39.625 21.5341C39.053 21.5341 38.6023 21.661 38.2727 21.9148C37.947 22.1648 37.7216 22.4432 37.5966 22.75L36 22.3864C36.1894 21.8561 36.4659 21.428 36.8295 21.1023C37.197 20.7727 37.6193 20.5341 38.0966 20.3864C38.5739 20.2348 39.0758 20.1591 39.6023 20.1591C39.9508 20.1591 40.3201 20.2008 40.7102 20.2841C41.1042 20.3636 41.4716 20.5114 41.8125 20.7273C42.1572 20.9432 42.4394 21.2519 42.6591 21.6534C42.8788 22.0511 42.9886 22.5682 42.9886 23.2045V29H41.3295V27.8068H41.2614C41.1515 28.0265 40.9867 28.2424 40.767 28.4545C40.5473 28.6667 40.2652 28.8428 39.9205 28.983C39.5758 29.1231 39.1629 29.1932 38.6818 29.1932ZM39.0511 27.8295C39.5208 27.8295 39.9223 27.7367 40.2557 27.5511C40.5928 27.3655 40.8485 27.1231 41.0227 26.8239C41.2008 26.5208 41.2898 26.197 41.2898 25.8523V24.7273C41.2292 24.7879 41.1117 24.8447 40.9375 24.8977C40.767 24.947 40.572 24.9905 40.3523 25.0284C40.1326 25.0625 39.9186 25.0947 39.7102 25.125C39.5019 25.1515 39.3277 25.1742 39.1875 25.1932C38.858 25.2348 38.5568 25.3049 38.2841 25.4034C38.0152 25.5019 37.7992 25.6439 37.6364 25.8295C37.4773 26.0114 37.3977 26.2538 37.3977 26.5568C37.3977 26.9773 37.553 27.2955 37.8636 27.5114C38.1742 27.7235 38.5701 27.8295 39.0511 27.8295ZM52.4048 20.2727L49.2401 29H47.4219L44.2514 20.2727H46.0753L48.2855 26.9886H48.3764L50.581 20.2727H52.4048ZM57.4659 29.1761C56.6061 29.1761 55.8655 28.9924 55.2443 28.625C54.6269 28.2538 54.1496 27.733 53.8125 27.0625C53.4792 26.3883 53.3125 25.5985 53.3125 24.6932C53.3125 23.7992 53.4792 23.0114 53.8125 22.3295C54.1496 21.6477 54.6193 21.1155 55.2216 20.733C55.8277 20.3504 56.536 20.1591 57.3466 20.1591C57.839 20.1591 58.3163 20.2405 58.7784 20.4034C59.2405 20.5663 59.6553 20.822 60.0227 21.1705C60.3902 21.5189 60.6799 21.9716 60.892 22.5284C61.1042 23.0814 61.2102 23.7538 61.2102 24.5455V25.1477H54.2727V23.875H59.5455C59.5455 23.428 59.4545 23.0322 59.2727 22.6875C59.0909 22.339 58.8352 22.0644 58.5057 21.8636C58.1799 21.6629 57.7973 21.5625 57.358 21.5625C56.8807 21.5625 56.464 21.6799 56.108 21.9148C55.7557 22.1458 55.483 22.4489 55.2898 22.8239C55.1004 23.1951 55.0057 23.5985 55.0057 24.0341V25.0284C55.0057 25.6117 55.108 26.108 55.3125 26.517C55.5208 26.9261 55.8106 27.2386 56.1818 27.4545C56.553 27.6667 56.9867 27.7727 57.483 27.7727C57.8049 27.7727 58.0985 27.7273 58.3636 27.6364C58.6288 27.5417 58.858 27.4015 59.0511 27.2159C59.2443 27.0303 59.392 26.8011 59.4943 26.5284L61.1023 26.8182C60.9735 27.2917 60.7424 27.7064 60.4091 28.0625C60.0795 28.4148 59.6648 28.6894 59.1648 28.8864C58.6686 29.0795 58.1023 29.1761 57.4659 29.1761ZM67.4659 29V17.3636H71.6136C72.5189 17.3636 73.2689 17.5284 73.8636 17.858C74.4583 18.1875 74.9034 18.6383 75.1989 19.2102C75.4943 19.7784 75.642 20.4186 75.642 21.1307C75.642 21.8466 75.4924 22.4905 75.1932 23.0625C74.8977 23.6307 74.4508 24.0814 73.8523 24.4148C73.2576 24.7443 72.5095 24.9091 71.608 24.9091H68.7557V23.4205H71.4489C72.0208 23.4205 72.4848 23.322 72.8409 23.125C73.197 22.9242 73.4583 22.6515 73.625 22.3068C73.7917 21.9621 73.875 21.5701 73.875 21.1307C73.875 20.6913 73.7917 20.3011 73.625 19.9602C73.4583 19.6193 73.1951 19.3523 72.8352 19.1591C72.4792 18.9659 72.0095 18.8693 71.4261 18.8693H69.2216V29H67.4659ZM77.5639 29V20.2727H79.206V21.6591H79.2969C79.456 21.1894 79.7363 20.8201 80.1378 20.5511C80.5431 20.2784 81.0014 20.142 81.5128 20.142C81.6188 20.142 81.7438 20.1458 81.8878 20.1534C82.0355 20.161 82.151 20.1705 82.2344 20.1818V21.8068C82.1662 21.7879 82.045 21.767 81.8707 21.7443C81.6965 21.7178 81.5223 21.7045 81.348 21.7045C80.9465 21.7045 80.5885 21.7898 80.2741 21.9602C79.9635 22.1269 79.7173 22.3598 79.5355 22.6591C79.3537 22.9545 79.2628 23.2917 79.2628 23.6705V29H77.5639ZM87.0682 29.1761C86.25 29.1761 85.536 28.9886 84.9261 28.6136C84.3163 28.2386 83.8428 27.714 83.5057 27.0398C83.1686 26.3655 83 25.5777 83 24.6761C83 23.7708 83.1686 22.9792 83.5057 22.3011C83.8428 21.6231 84.3163 21.0966 84.9261 20.7216C85.536 20.3466 86.25 20.1591 87.0682 20.1591C87.8864 20.1591 88.6004 20.3466 89.2102 20.7216C89.8201 21.0966 90.2936 21.6231 90.6307 22.3011C90.9678 22.9792 91.1364 23.7708 91.1364 24.6761C91.1364 25.5777 90.9678 26.3655 90.6307 27.0398C90.2936 27.714 89.8201 28.2386 89.2102 28.6136C88.6004 28.9886 87.8864 29.1761 87.0682 29.1761ZM87.0739 27.75C87.6042 27.75 88.0436 27.6098 88.392 27.3295C88.7405 27.0492 88.9981 26.6761 89.1648 26.2102C89.3352 25.7443 89.4205 25.2311 89.4205 24.6705C89.4205 24.1136 89.3352 23.6023 89.1648 23.1364C88.9981 22.6667 88.7405 22.2898 88.392 22.0057C88.0436 21.7216 87.6042 21.5795 87.0739 21.5795C86.5398 21.5795 86.0966 21.7216 85.7443 22.0057C85.3958 22.2898 85.1364 22.6667 84.9659 23.1364C84.7992 23.6023 84.7159 24.1136 84.7159 24.6705C84.7159 25.2311 84.7992 25.7443 84.9659 26.2102C85.1364 26.6761 85.3958 27.0492 85.7443 27.3295C86.0966 27.6098 86.5398 27.75 87.0739 27.75ZM97.1861 20.2727V21.6364H92.2543V20.2727H97.1861ZM93.6065 29V19.2614C93.6065 18.7159 93.7259 18.2633 93.9645 17.9034C94.2031 17.5398 94.5194 17.2689 94.9134 17.0909C95.3073 16.9091 95.7353 16.8182 96.1974 16.8182C96.5384 16.8182 96.83 16.8466 97.0724 16.9034C97.3149 16.9564 97.4948 17.0057 97.6122 17.0511L97.2145 18.4261C97.1349 18.4034 97.0327 18.3769 96.9077 18.3466C96.7827 18.3125 96.6312 18.2955 96.4531 18.2955C96.0402 18.2955 95.7448 18.3977 95.5668 18.6023C95.3925 18.8068 95.3054 19.1023 95.3054 19.4886V29H93.6065ZM98.9389 29V20.2727H100.638V29H98.9389ZM99.7969 18.9261C99.5014 18.9261 99.2476 18.8277 99.0355 18.6307C98.8272 18.4299 98.723 18.1913 98.723 17.9148C98.723 17.6345 98.8272 17.3958 99.0355 17.1989C99.2476 16.9981 99.5014 16.8977 99.7969 16.8977C100.092 16.8977 100.344 16.9981 100.553 17.1989C100.765 17.3958 100.871 17.6345 100.871 17.9148C100.871 18.1913 100.765 18.4299 100.553 18.6307C100.344 18.8277 100.092 18.9261 99.7969 18.9261ZM104.622 17.3636V29H102.923V17.3636H104.622ZM110.669 29.1761C109.809 29.1761 109.069 28.9924 108.447 28.625C107.83 28.2538 107.353 27.733 107.016 27.0625C106.682 26.3883 106.516 25.5985 106.516 24.6932C106.516 23.7992 106.682 23.0114 107.016 22.3295C107.353 21.6477 107.822 21.1155 108.425 20.733C109.031 20.3504 109.739 20.1591 110.55 20.1591C111.042 20.1591 111.519 20.2405 111.982 20.4034C112.444 20.5663 112.858 20.822 113.226 21.1705C113.593 21.5189 113.883 21.9716 114.095 22.5284C114.307 23.0814 114.413 23.7538 114.413 24.5455V25.1477H107.476V23.875H112.749C112.749 23.428 112.658 23.0322 112.476 22.6875C112.294 22.339 112.038 22.0644 111.709 21.8636C111.383 21.6629 111 21.5625 110.561 21.5625C110.084 21.5625 109.667 21.6799 109.311 21.9148C108.959 22.1458 108.686 22.4489 108.493 22.8239C108.304 23.1951 108.209 23.5985 108.209 24.0341V25.0284C108.209 25.6117 108.311 26.108 108.516 26.517C108.724 26.9261 109.014 27.2386 109.385 27.4545C109.756 27.6667 110.19 27.7727 110.686 27.7727C111.008 27.7727 111.302 27.7273 111.567 27.6364C111.832 27.5417 112.061 27.4015 112.254 27.2159C112.447 27.0303 112.595 26.8011 112.697 26.5284L114.305 26.8182C114.177 27.2917 113.946 27.7064 113.612 28.0625C113.283 28.4148 112.868 28.6894 112.368 28.8864C111.872 29.0795 111.305 29.1761 110.669 29.1761ZM130.334 21.1477H128.561C128.493 20.7689 128.366 20.4356 128.18 20.1477C127.995 19.8598 127.768 19.6155 127.499 19.4148C127.23 19.214 126.929 19.0625 126.595 18.9602C126.266 18.858 125.915 18.8068 125.544 18.8068C124.874 18.8068 124.273 18.9754 123.743 19.3125C123.216 19.6496 122.8 20.1439 122.493 20.7955C122.19 21.447 122.038 22.2424 122.038 23.1818C122.038 24.1288 122.19 24.928 122.493 25.5795C122.8 26.2311 123.218 26.7235 123.749 27.0568C124.279 27.3902 124.875 27.5568 125.538 27.5568C125.906 27.5568 126.254 27.5076 126.584 27.4091C126.917 27.3068 127.218 27.1572 127.487 26.9602C127.756 26.7633 127.983 26.5227 128.169 26.2386C128.358 25.9508 128.489 25.6212 128.561 25.25L130.334 25.2557C130.239 25.8277 130.055 26.3542 129.783 26.8352C129.514 27.3125 129.167 27.7254 128.743 28.0739C128.322 28.4186 127.841 28.6856 127.3 28.875C126.758 29.0644 126.167 29.1591 125.527 29.1591C124.519 29.1591 123.622 28.9205 122.834 28.4432C122.046 27.9621 121.425 27.2746 120.97 26.3807C120.519 25.4867 120.294 24.4205 120.294 23.1818C120.294 21.9394 120.521 20.8731 120.976 19.983C121.43 19.089 122.052 18.4034 122.839 17.9261C123.627 17.4451 124.523 17.2045 125.527 17.2045C126.144 17.2045 126.72 17.2936 127.254 17.4716C127.792 17.6458 128.275 17.9034 128.703 18.2443C129.131 18.5814 129.485 18.9943 129.766 19.483C130.046 19.9678 130.235 20.5227 130.334 21.1477ZM133.997 23.8182V29H132.298V17.3636H133.974V21.6932H134.082C134.287 21.2235 134.599 20.8504 135.02 20.5739C135.44 20.2973 135.99 20.1591 136.668 20.1591C137.266 20.1591 137.789 20.2822 138.236 20.5284C138.687 20.7746 139.035 21.142 139.281 21.6307C139.531 22.1155 139.656 22.7216 139.656 23.4489V29H137.957V23.6534C137.957 23.0133 137.793 22.517 137.463 22.1648C137.134 21.8087 136.675 21.6307 136.088 21.6307C135.687 21.6307 135.327 21.7159 135.009 21.8864C134.694 22.0568 134.446 22.3068 134.264 22.6364C134.086 22.9621 133.997 23.3561 133.997 23.8182ZM144.463 29.1932C143.91 29.1932 143.41 29.0909 142.963 28.8864C142.516 28.678 142.162 28.3769 141.901 27.983C141.643 27.589 141.514 27.1061 141.514 26.5341C141.514 26.0417 141.609 25.6364 141.798 25.3182C141.988 25 142.243 24.7481 142.565 24.5625C142.887 24.3769 143.247 24.2367 143.645 24.142C144.043 24.0473 144.448 23.9754 144.861 23.9261C145.384 23.8655 145.808 23.8163 146.134 23.7784C146.459 23.7367 146.696 23.6705 146.844 23.5795C146.991 23.4886 147.065 23.3409 147.065 23.1364V23.0966C147.065 22.6004 146.925 22.2159 146.645 21.9432C146.368 21.6705 145.955 21.5341 145.406 21.5341C144.834 21.5341 144.384 21.661 144.054 21.9148C143.728 22.1648 143.503 22.4432 143.378 22.75L141.781 22.3864C141.971 21.8561 142.247 21.428 142.611 21.1023C142.978 20.7727 143.401 20.5341 143.878 20.3864C144.355 20.2348 144.857 20.1591 145.384 20.1591C145.732 20.1591 146.101 20.2008 146.491 20.2841C146.885 20.3636 147.253 20.5114 147.594 20.7273C147.938 20.9432 148.221 21.2519 148.44 21.6534C148.66 22.0511 148.77 22.5682 148.77 23.2045V29H147.111V27.8068H147.043C146.933 28.0265 146.768 28.2424 146.548 28.4545C146.329 28.6667 146.046 28.8428 145.702 28.983C145.357 29.1231 144.944 29.1932 144.463 29.1932ZM144.832 27.8295C145.302 27.8295 145.704 27.7367 146.037 27.5511C146.374 27.3655 146.63 27.1231 146.804 26.8239C146.982 26.5208 147.071 26.197 147.071 25.8523V24.7273C147.01 24.7879 146.893 24.8447 146.719 24.8977C146.548 24.947 146.353 24.9905 146.134 25.0284C145.914 25.0625 145.7 25.0947 145.491 25.125C145.283 25.1515 145.109 25.1742 144.969 25.1932C144.639 25.2348 144.338 25.3049 144.065 25.4034C143.796 25.5019 143.58 25.6439 143.418 25.8295C143.259 26.0114 143.179 26.2538 143.179 26.5568C143.179 26.9773 143.334 27.2955 143.645 27.5114C143.955 27.7235 144.351 27.8295 144.832 27.8295ZM152.732 23.8182V29H151.033V20.2727H152.663V21.6932H152.771C152.972 21.2311 153.286 20.8598 153.714 20.5795C154.146 20.2992 154.69 20.1591 155.345 20.1591C155.94 20.1591 156.461 20.2841 156.908 20.5341C157.355 20.7803 157.701 21.1477 157.947 21.6364C158.194 22.125 158.317 22.7292 158.317 23.4489V29H156.618V23.6534C156.618 23.0208 156.453 22.5265 156.124 22.1705C155.794 21.8106 155.341 21.6307 154.766 21.6307C154.372 21.6307 154.021 21.7159 153.714 21.8864C153.411 22.0568 153.171 22.3068 152.993 22.6364C152.819 22.9621 152.732 23.3561 152.732 23.8182ZM164.254 32.4545C163.561 32.4545 162.964 32.3636 162.464 32.1818C161.968 32 161.563 31.7595 161.249 31.4602C160.934 31.161 160.699 30.8333 160.544 30.4773L162.004 29.875C162.107 30.0417 162.243 30.2178 162.413 30.4034C162.588 30.5928 162.822 30.7538 163.118 30.8864C163.417 31.0189 163.802 31.0852 164.271 31.0852C164.915 31.0852 165.447 30.928 165.868 30.6136C166.288 30.303 166.499 29.8068 166.499 29.125V27.4091H166.391C166.288 27.5947 166.141 27.8011 165.947 28.0284C165.758 28.2557 165.497 28.4527 165.163 28.6193C164.83 28.786 164.396 28.8693 163.862 28.8693C163.173 28.8693 162.552 28.7083 161.999 28.3864C161.449 28.0606 161.014 27.5814 160.692 26.9489C160.374 26.3125 160.214 25.5303 160.214 24.6023C160.214 23.6742 160.372 22.8788 160.686 22.2159C161.004 21.553 161.44 21.0455 161.993 20.6932C162.546 20.3371 163.173 20.1591 163.874 20.1591C164.415 20.1591 164.853 20.25 165.186 20.4318C165.519 20.6098 165.779 20.8182 165.964 21.0568C166.154 21.2955 166.3 21.5057 166.402 21.6875H166.527V20.2727H168.192V29.1932C168.192 29.9432 168.018 30.5587 167.669 31.0398C167.321 31.5208 166.849 31.8769 166.254 32.108C165.663 32.339 164.997 32.4545 164.254 32.4545ZM164.237 27.4602C164.726 27.4602 165.139 27.3466 165.476 27.1193C165.817 26.8883 166.074 26.5587 166.249 26.1307C166.427 25.6989 166.516 25.1818 166.516 24.5795C166.516 23.9924 166.429 23.4754 166.254 23.0284C166.08 22.5814 165.824 22.233 165.487 21.983C165.15 21.7292 164.733 21.6023 164.237 21.6023C163.726 21.6023 163.3 21.7348 162.959 22C162.618 22.2614 162.36 22.6174 162.186 23.0682C162.016 23.5189 161.93 24.0227 161.93 24.5795C161.93 25.1515 162.018 25.6534 162.192 26.0852C162.366 26.517 162.624 26.8542 162.964 27.0966C163.309 27.339 163.733 27.4602 164.237 27.4602ZM174.232 29.1761C173.372 29.1761 172.631 28.9924 172.01 28.625C171.393 28.2538 170.915 27.733 170.578 27.0625C170.245 26.3883 170.078 25.5985 170.078 24.6932C170.078 23.7992 170.245 23.0114 170.578 22.3295C170.915 21.6477 171.385 21.1155 171.987 20.733C172.593 20.3504 173.302 20.1591 174.112 20.1591C174.605 20.1591 175.082 20.2405 175.544 20.4034C176.006 20.5663 176.421 20.822 176.788 21.1705C177.156 21.5189 177.446 21.9716 177.658 22.5284C177.87 23.0814 177.976 23.7538 177.976 24.5455V25.1477H171.038V23.875H176.311C176.311 23.428 176.22 23.0322 176.038 22.6875C175.857 22.339 175.601 22.0644 175.271 21.8636C174.946 21.6629 174.563 21.5625 174.124 21.5625C173.646 21.5625 173.23 21.6799 172.874 21.9148C172.521 22.1458 172.249 22.4489 172.055 22.8239C171.866 23.1951 171.771 23.5985 171.771 24.0341V25.0284C171.771 25.6117 171.874 26.108 172.078 26.517C172.286 26.9261 172.576 27.2386 172.947 27.4545C173.319 27.6667 173.752 27.7727 174.249 27.7727C174.571 27.7727 174.864 27.7273 175.129 27.6364C175.394 27.5417 175.624 27.4015 175.817 27.2159C176.01 27.0303 176.158 26.8011 176.26 26.5284L177.868 26.8182C177.739 27.2917 177.508 27.7064 177.175 28.0625C176.845 28.4148 176.43 28.6894 175.93 28.8864C175.434 29.0795 174.868 29.1761 174.232 29.1761ZM186.401 22.4034L184.861 22.6761C184.796 22.4792 184.694 22.2917 184.554 22.1136C184.418 21.9356 184.232 21.7898 183.997 21.6761C183.762 21.5625 183.469 21.5057 183.116 21.5057C182.635 21.5057 182.234 21.6136 181.912 21.8295C181.59 22.0417 181.429 22.3163 181.429 22.6534C181.429 22.9451 181.537 23.1799 181.753 23.358C181.969 23.536 182.317 23.6818 182.798 23.7955L184.185 24.1136C184.988 24.2992 185.586 24.5852 185.98 24.9716C186.374 25.358 186.571 25.8598 186.571 26.4773C186.571 27 186.42 27.4659 186.116 27.875C185.817 28.2803 185.399 28.5985 184.861 28.8295C184.327 29.0606 183.707 29.1761 183.003 29.1761C182.026 29.1761 181.228 28.9678 180.611 28.5511C179.993 28.1307 179.615 27.5341 179.474 26.7614L181.116 26.5114C181.219 26.9394 181.429 27.2633 181.747 27.483C182.065 27.6989 182.48 27.8068 182.991 27.8068C183.548 27.8068 183.993 27.6913 184.327 27.4602C184.66 27.2254 184.827 26.9394 184.827 26.6023C184.827 26.3295 184.724 26.1004 184.52 25.9148C184.319 25.7292 184.01 25.589 183.594 25.4943L182.116 25.1705C181.302 24.9848 180.7 24.6894 180.31 24.2841C179.923 23.8788 179.73 23.3655 179.73 22.7443C179.73 22.2292 179.874 21.7784 180.162 21.392C180.45 21.0057 180.848 20.7045 181.355 20.4886C181.863 20.2689 182.444 20.1591 183.099 20.1591C184.043 20.1591 184.785 20.3636 185.327 20.7727C185.868 21.178 186.226 21.7216 186.401 22.4034Z" fill="white"/>
</svg>
