<svg width="240" height="1018" viewBox="0 0 240 1018" fill="none" xmlns="http://www.w3.org/2000/svg">
<path d="M0 0H240V1018H0V0Z" fill="white"/>
<g clip-path="url(#clip0_177_1804)">
<path d="M63.1984 54.362C63.5752 54.7129 63.598 54.2868 63.6742 54.0581C65.482 48.628 66.3041 42.8689 68.1044 37.4263C69.8095 36.9689 71.5793 37.1067 73.2768 37.5391L66.9207 58.3821L66.3726 58.7299C64.0281 58.7424 60.0127 59.6354 58.7948 57.3199L52.61 37.724C54.5701 37.1349 57.299 36.4174 58.5893 38.3601C59.5979 39.8797 61.1698 46.1433 61.7635 48.2395C62.0185 49.1481 62.951 54.1333 63.1946 54.3589L63.1984 54.362Z" fill="#231F20"/>
<path d="M107.581 42.7718C114.789 41.8569 118.051 46.2937 117.522 52.1875C117.069 57.229 112.49 60.2339 106.884 58.8771C99.0132 56.9721 99.4205 43.8058 107.581 42.7718ZM107.946 46.7323C106.427 47.9731 105.761 56.5397 110.294 55.3584C112.334 54.8257 112.018 49.3675 111.524 47.9136C111.029 46.4597 109.366 45.5761 107.946 46.7355V46.7323Z" fill="#231F20"/>
<path d="M87.8845 52.4914H78.7157C78.6205 53.2841 79.0506 54.4967 79.8042 54.9605C82.0079 56.3172 86.0461 54.2837 86.6665 54.6064C86.9824 54.7725 87.9682 56.9533 87.8997 57.3449C82.8376 60.2401 74.9173 60.1712 73.4101 53.9547C72.2911 49.3455 73.5813 43.1008 79.9945 42.706C86.8835 42.2799 89.5363 47.0739 87.8806 52.4883L87.8845 52.4914ZM83.184 49.1638C83.7663 45.0873 78.2399 45.0372 78.7157 49.1638H83.184Z" fill="#231F20"/>
<path d="M99.6108 55.2237C99.8772 55.4148 99.999 58.3915 99.8658 58.5105C96.0788 58.8082 92.071 59.7419 91.6409 55.3051C91.0548 49.2578 92.1053 42.4898 91.6409 36.3641C91.5115 35.3803 93.2661 35.5777 94.1187 35.6497C96.5203 35.8503 96.8933 36.6555 97.0683 38.6546C97.506 43.6021 96.7106 49.0353 97.076 54.0361C97.3462 55.5777 99.1426 54.8821 99.6146 55.2237H99.6108Z" fill="#231F20"/>
<path d="M48.3815 24H47.6774V71H48.3815V24Z" fill="#231F20"/>
<path d="M123.558 39.5946H124.601V57.9841H134.703V58.7988H123.558V39.5946Z" fill="#231F20"/>
<path d="M137.831 40.3529C137.831 39.7137 138.353 39.3627 138.939 39.3627C139.525 39.3627 140.046 39.7105 140.046 40.3529C140.046 40.9357 139.525 41.343 138.939 41.343C138.353 41.343 137.831 40.9357 137.831 40.3529ZM138.417 44.8899H139.395V58.7988H138.417V44.8899Z" fill="#231F20"/>
<path d="M145.653 44.8899H146.501L146.631 47.1021H146.695C148.324 45.6482 149.953 44.5421 152.104 44.5421C155.297 44.5421 156.797 46.231 156.797 49.8375V58.7988H155.819V49.9534C155.819 46.8702 154.711 45.3568 152.039 45.3568C150.083 45.3568 148.652 46.2874 146.631 48.1517V58.8019H145.653V44.8931V44.8899Z" fill="#231F20"/>
<path d="M162.791 37.7929H163.769V53.7385H163.834L171.914 44.8931H173.086L168.07 50.3639L174 58.8019H172.892L167.484 51.0626L163.769 54.9605V58.8019H162.791V37.7929Z" fill="#231F20"/>
<path d="M39.2888 45.6012C39.4106 45.6012 39.5362 45.5981 39.6542 45.6012C39.7646 45.6075 39.8597 45.6075 39.9549 45.6137C40.05 45.6169 40.1452 45.6357 40.2594 45.6357C40.5905 45.6419 40.6171 45.6169 40.7237 45.6419C40.7922 45.6576 40.8607 45.6137 40.8569 45.5542C40.7846 42.5963 41.66 39.9831 37.8007 37.4639C34.8434 35.5338 30.299 35.9317 27.7984 38.2567C25.2978 40.5816 25.766 41.5592 25.7621 44.0283C25.7621 44.2131 25.9563 44.3573 26.177 44.3416C26.7441 44.2946 27.7299 44.2476 28.2627 44.2288C28.4606 44.2225 28.6167 44.0909 28.6281 43.9311C28.7232 41.9947 27.962 41.108 30.1505 39.5476C31.5702 38.5355 34.0365 38.2974 35.6693 39.0557C39.0338 40.6192 37.9148 43.2042 38.1051 45.6043C38.2422 45.6043 38.3792 45.6043 38.5162 45.6043C38.6532 45.6043 38.7902 45.6043 38.9273 45.6043C39.049 45.6043 39.1708 45.6043 39.2926 45.6043L39.2888 45.6012Z" fill="#231F20"/>
<path d="M40.9749 45.9835C40.7199 45.902 40.6019 45.8738 40.3279 45.8425C40.2175 45.8299 40.1186 45.8237 40.0234 45.8205C39.9283 45.8174 39.8331 45.8143 39.7227 45.808C39.601 45.8017 39.4792 45.8049 39.3574 45.808C39.2356 45.8111 39.11 45.8143 38.992 45.808C38.855 45.808 38.7179 45.808 38.5809 45.808C38.4439 45.808 38.3069 45.808 38.1699 45.808C35.0147 45.7673 31.829 45.7704 28.6738 45.808C28.415 45.8111 28.1562 45.8017 27.8974 45.808C27.6842 45.8111 27.4635 45.7986 27.2503 45.808C27.0296 45.8174 26.7708 45.7892 26.5614 45.808C26.3331 45.8299 26.0438 45.9145 25.8269 45.9835C24.8792 46.2937 24.2474 47.0457 24.1446 47.8666C23.7069 51.3916 24.4757 55.5182 24.1446 59.1027C24.2854 60.1587 25.2446 60.9483 26.5424 61.0579C30.8394 61.4214 35.8977 60.7853 40.2708 61.0579C41.4926 60.942 42.4631 60.2339 42.6686 59.2437V47.7256C42.4935 46.9423 41.9036 46.278 40.9864 45.9835H40.9749Z" fill="#231F20"/>
<path d="M34.2725 54.174C34.9005 54.6033 34.2611 55.1955 33.4199 55.1955C32.5788 55.1955 31.1553 53.8826 30.337 54.6816C29.7204 55.2832 30.71 55.8503 31.4979 56.1229C31.7148 56.1981 32.2667 56.2451 32.3542 56.3329C32.6283 56.6023 32.1373 57.1319 33.4199 57.0974C34.4666 57.0661 34.1469 56.4488 34.4247 56.2984C34.6797 56.1605 35.3686 56.0979 35.7949 55.8127C36.8872 55.0795 36.7236 53.7823 35.3382 53.234C34.5199 52.9081 31.8214 52.8204 32.4227 52.0935C33.1269 51.2412 34.5846 52.3379 35.2012 52.3504C35.9167 52.3661 36.2402 51.9211 36.0347 51.5107C35.7568 50.9592 34.5922 50.9216 34.3029 50.7273C34.0289 50.5425 34.1317 50.0286 33.1878 50.085C32.2857 50.1414 32.5179 50.5707 32.1639 50.7963C31.8823 50.978 31.2391 51.0501 30.8318 51.3822C30.0325 52.0339 30.219 53.1337 31.4179 53.5348C32.1259 53.7729 33.8386 53.8795 34.2687 54.174H34.2725Z" fill="white"/>
</g>
<rect x="12" y="95" width="215" height="38" rx="10" fill="#EFE8FF"/>
<path d="M30 105H25C24.4477 105 24 105.448 24 106V113C24 113.552 24.4477 114 25 114H30C30.5523 114 31 113.552 31 113V106C31 105.448 30.5523 105 30 105Z" stroke="black" stroke-width="2" stroke-linecap="round" stroke-linejoin="round"/>
<path d="M41 105H36C35.4477 105 35 105.448 35 106V109C35 109.552 35.4477 110 36 110H41C41.5523 110 42 109.552 42 109V106C42 105.448 41.5523 105 41 105Z" stroke="black" stroke-width="2" stroke-linecap="round" stroke-linejoin="round"/>
<path d="M41 114H36C35.4477 114 35 114.448 35 115V122C35 122.552 35.4477 123 36 123H41C41.5523 123 42 122.552 42 122V115C42 114.448 41.5523 114 41 114Z" stroke="black" stroke-width="2" stroke-linecap="round" stroke-linejoin="round"/>
<path d="M30 118H25C24.4477 118 24 118.448 24 119V122C24 122.552 24.4477 123 25 123H30C30.5523 123 31 122.552 31 122V119C31 118.448 30.5523 118 30 118Z" stroke="black" stroke-width="2" stroke-linecap="round" stroke-linejoin="round"/>
<path d="M56.375 119.5H53.233V109.318H56.5142C57.5019 109.318 58.3471 109.522 59.0497 109.93C59.7524 110.334 60.291 110.916 60.6655 111.675C61.04 112.43 61.2273 113.335 61.2273 114.389C61.2273 115.45 61.0384 116.363 60.6605 117.129C60.2827 117.891 59.7325 118.478 59.0099 118.888C58.2874 119.296 57.4091 119.5 56.375 119.5ZM54.4659 118.406H56.2955C57.1373 118.406 57.835 118.244 58.3885 117.919C58.942 117.594 59.3546 117.132 59.6264 116.532C59.8982 115.932 60.0341 115.218 60.0341 114.389C60.0341 113.567 59.8999 112.86 59.6314 112.266C59.3629 111.67 58.9619 111.212 58.4283 110.894C57.8946 110.573 57.2301 110.412 56.4347 110.412H54.4659V118.406ZM65.3835 119.679C64.8996 119.679 64.4605 119.588 64.0661 119.406C63.6716 119.22 63.3584 118.953 63.1264 118.605C62.8944 118.254 62.7784 117.83 62.7784 117.332C62.7784 116.895 62.8646 116.54 63.0369 116.268C63.2093 115.993 63.4396 115.778 63.728 115.622C64.0163 115.466 64.3345 115.35 64.6825 115.274C65.0339 115.195 65.3868 115.132 65.7415 115.085C66.2055 115.026 66.5817 114.981 66.87 114.951C67.1617 114.918 67.3738 114.863 67.5064 114.787C67.6423 114.711 67.7102 114.578 67.7102 114.389V114.349C67.7102 113.859 67.576 113.478 67.3075 113.206C67.0424 112.934 66.6397 112.798 66.0994 112.798C65.5393 112.798 65.1001 112.921 64.782 113.166C64.4638 113.411 64.2401 113.673 64.1108 113.952L62.9972 113.554C63.196 113.09 63.4612 112.729 63.7926 112.47C64.1274 112.208 64.492 112.026 64.8864 111.923C65.2841 111.817 65.6752 111.764 66.0597 111.764C66.3049 111.764 66.5866 111.794 66.9048 111.854C67.2263 111.91 67.5362 112.028 67.8345 112.207C68.1361 112.386 68.3864 112.656 68.5852 113.017C68.7841 113.378 68.8835 113.862 68.8835 114.469V119.5H67.7102V118.466H67.6506C67.571 118.632 67.4384 118.809 67.2528 118.998C67.0672 119.187 66.8203 119.348 66.5121 119.48C66.2038 119.613 65.8277 119.679 65.3835 119.679ZM65.5625 118.625C66.0265 118.625 66.4176 118.534 66.7358 118.352C67.0573 118.169 67.2992 117.934 67.4616 117.646C67.6274 117.357 67.7102 117.054 67.7102 116.736V115.662C67.6605 115.722 67.5511 115.776 67.3821 115.826C67.2164 115.872 67.0241 115.914 66.8054 115.95C66.59 115.983 66.3795 116.013 66.174 116.04C65.9718 116.063 65.8078 116.083 65.6818 116.099C65.3769 116.139 65.0919 116.204 64.8267 116.293C64.5649 116.379 64.3527 116.51 64.1903 116.686C64.0313 116.858 63.9517 117.094 63.9517 117.392C63.9517 117.8 64.1025 118.108 64.4041 118.317C64.709 118.522 65.0952 118.625 65.5625 118.625ZM76.4341 113.574L75.3801 113.872C75.3139 113.696 75.2161 113.526 75.0868 113.36C74.9609 113.191 74.7885 113.052 74.5698 112.942C74.351 112.833 74.071 112.778 73.7296 112.778C73.2623 112.778 72.8728 112.886 72.5613 113.102C72.253 113.314 72.0989 113.584 72.0989 113.912C72.0989 114.204 72.205 114.434 72.4171 114.603C72.6292 114.772 72.9606 114.913 73.4114 115.026L74.5449 115.304C75.2277 115.47 75.7364 115.723 76.0712 116.065C76.406 116.403 76.5733 116.839 76.5733 117.372C76.5733 117.81 76.4474 118.201 76.1955 118.545C75.9469 118.89 75.5989 119.162 75.1515 119.361C74.704 119.56 74.1837 119.659 73.5904 119.659C72.8115 119.659 72.1668 119.49 71.6564 119.152C71.146 118.814 70.8229 118.32 70.687 117.67L71.8006 117.392C71.9067 117.803 72.1072 118.111 72.4022 118.317C72.7005 118.522 73.0899 118.625 73.5705 118.625C74.1174 118.625 74.5516 118.509 74.873 118.277C75.1979 118.042 75.3603 117.76 75.3603 117.432C75.3603 117.167 75.2675 116.945 75.0819 116.766C74.8962 116.583 74.6112 116.447 74.2267 116.358L72.954 116.06C72.2547 115.894 71.7409 115.637 71.4128 115.289C71.088 114.938 70.9256 114.499 70.9256 113.972C70.9256 113.541 71.0466 113.16 71.2885 112.828C71.5338 112.497 71.8669 112.237 72.2878 112.048C72.7121 111.859 73.1926 111.764 73.7296 111.764C74.4853 111.764 75.0785 111.93 75.5094 112.261C75.9436 112.593 76.2518 113.03 76.4341 113.574ZM79.5128 114.906V119.5H78.3395V109.318H79.5128V113.057H79.6122C79.7912 112.662 80.0597 112.349 80.4176 112.117C80.7789 111.882 81.2595 111.764 81.8594 111.764C82.3797 111.764 82.8355 111.869 83.2266 112.077C83.6177 112.283 83.9209 112.599 84.1364 113.027C84.3551 113.451 84.4645 113.991 84.4645 114.648V119.5H83.2912V114.727C83.2912 114.121 83.1338 113.652 82.8189 113.32C82.5073 112.986 82.0748 112.818 81.5213 112.818C81.1368 112.818 80.7921 112.899 80.4872 113.062C80.1856 113.224 79.947 113.461 79.7713 113.773C79.599 114.084 79.5128 114.462 79.5128 114.906ZM86.7701 119.5V109.318H87.9434V113.077H88.0428C88.129 112.944 88.2483 112.775 88.4007 112.57C88.5565 112.361 88.7786 112.175 89.0669 112.013C89.3586 111.847 89.753 111.764 90.2502 111.764C90.8932 111.764 91.4599 111.925 91.9505 112.246C92.441 112.568 92.8238 113.024 93.0989 113.614C93.374 114.204 93.5115 114.9 93.5115 115.702C93.5115 116.51 93.374 117.211 93.0989 117.805C92.8238 118.395 92.4426 118.852 91.9554 119.177C91.4682 119.498 90.9064 119.659 90.2701 119.659C89.7795 119.659 89.3868 119.578 89.0918 119.415C88.7968 119.25 88.5698 119.062 88.4107 118.854C88.2516 118.642 88.129 118.466 88.0428 118.327H87.9036V119.5H86.7701ZM87.9235 115.682C87.9235 116.259 88.008 116.767 88.177 117.208C88.3461 117.646 88.593 117.989 88.9178 118.237C89.2426 118.482 89.6403 118.605 90.111 118.605C90.6015 118.605 91.0108 118.476 91.339 118.217C91.6704 117.955 91.919 117.604 92.0847 117.163C92.2537 116.719 92.3382 116.225 92.3382 115.682C92.3382 115.145 92.2554 114.661 92.0897 114.23C91.9273 113.796 91.6803 113.453 91.3489 113.201C91.0208 112.946 90.6081 112.818 90.111 112.818C89.6337 112.818 89.2327 112.939 88.9078 113.181C88.583 113.42 88.3378 113.754 88.1721 114.185C88.0063 114.613 87.9235 115.112 87.9235 115.682ZM98.4086 119.659C97.7192 119.659 97.1143 119.495 96.5939 119.167C96.0769 118.839 95.6725 118.38 95.3809 117.79C95.0925 117.2 94.9483 116.51 94.9483 115.722C94.9483 114.926 95.0925 114.232 95.3809 113.638C95.6725 113.045 96.0769 112.585 96.5939 112.256C97.1143 111.928 97.7192 111.764 98.4086 111.764C99.098 111.764 99.7012 111.928 100.218 112.256C100.739 112.585 101.143 113.045 101.431 113.638C101.723 114.232 101.869 114.926 101.869 115.722C101.869 116.51 101.723 117.2 101.431 117.79C101.143 118.38 100.739 118.839 100.218 119.167C99.7012 119.495 99.098 119.659 98.4086 119.659ZM98.4086 118.605C98.9322 118.605 99.3631 118.471 99.7012 118.202C100.039 117.934 100.289 117.581 100.452 117.143C100.614 116.706 100.695 116.232 100.695 115.722C100.695 115.211 100.614 114.736 100.452 114.295C100.289 113.854 100.039 113.498 99.7012 113.226C99.3631 112.954 98.9322 112.818 98.4086 112.818C97.8849 112.818 97.454 112.954 97.1159 113.226C96.7779 113.498 96.5276 113.854 96.3652 114.295C96.2028 114.736 96.1216 115.211 96.1216 115.722C96.1216 116.232 96.2028 116.706 96.3652 117.143C96.5276 117.581 96.7779 117.934 97.1159 118.202C97.454 118.471 97.8849 118.605 98.4086 118.605ZM105.907 119.679C105.423 119.679 104.984 119.588 104.589 119.406C104.195 119.22 103.882 118.953 103.65 118.605C103.418 118.254 103.302 117.83 103.302 117.332C103.302 116.895 103.388 116.54 103.56 116.268C103.733 115.993 103.963 115.778 104.251 115.622C104.54 115.466 104.858 115.35 105.206 115.274C105.557 115.195 105.91 115.132 106.265 115.085C106.729 115.026 107.105 114.981 107.393 114.951C107.685 114.918 107.897 114.863 108.03 114.787C108.166 114.711 108.234 114.578 108.234 114.389V114.349C108.234 113.859 108.099 113.478 107.831 113.206C107.566 112.934 107.163 112.798 106.623 112.798C106.063 112.798 105.624 112.921 105.305 113.166C104.987 113.411 104.763 113.673 104.634 113.952L103.521 113.554C103.719 113.09 103.985 112.729 104.316 112.47C104.651 112.208 105.015 112.026 105.41 111.923C105.808 111.817 106.199 111.764 106.583 111.764C106.828 111.764 107.11 111.794 107.428 111.854C107.75 111.91 108.06 112.028 108.358 112.207C108.66 112.386 108.91 112.656 109.109 113.017C109.308 113.378 109.407 113.862 109.407 114.469V119.5H108.234V118.466H108.174C108.094 118.632 107.962 118.809 107.776 118.998C107.591 119.187 107.344 119.348 107.036 119.48C106.727 119.613 106.351 119.679 105.907 119.679ZM106.086 118.625C106.55 118.625 106.941 118.534 107.259 118.352C107.581 118.169 107.823 117.934 107.985 117.646C108.151 117.357 108.234 117.054 108.234 116.736V115.662C108.184 115.722 108.075 115.776 107.906 115.826C107.74 115.872 107.548 115.914 107.329 115.95C107.113 115.983 106.903 116.013 106.697 116.04C106.495 116.063 106.331 116.083 106.205 116.099C105.9 116.139 105.615 116.204 105.35 116.293C105.088 116.379 104.876 116.51 104.714 116.686C104.555 116.858 104.475 117.094 104.475 117.392C104.475 117.8 104.626 118.108 104.928 118.317C105.232 118.522 105.619 118.625 106.086 118.625ZM111.548 119.5V111.864H112.682V113.017H112.762C112.901 112.639 113.153 112.333 113.517 112.097C113.882 111.862 114.293 111.744 114.75 111.744C114.836 111.744 114.944 111.746 115.073 111.749C115.203 111.753 115.3 111.758 115.367 111.764V112.957C115.327 112.947 115.236 112.933 115.093 112.913C114.954 112.889 114.807 112.878 114.651 112.878C114.28 112.878 113.948 112.956 113.656 113.112C113.368 113.264 113.139 113.476 112.97 113.748C112.805 114.016 112.722 114.323 112.722 114.668V119.5H111.548ZM119.409 119.659C118.772 119.659 118.21 119.498 117.723 119.177C117.236 118.852 116.855 118.395 116.58 117.805C116.305 117.211 116.167 116.51 116.167 115.702C116.167 114.9 116.305 114.204 116.58 113.614C116.855 113.024 117.238 112.568 117.728 112.246C118.219 111.925 118.785 111.764 119.428 111.764C119.926 111.764 120.318 111.847 120.607 112.013C120.898 112.175 121.12 112.361 121.273 112.57C121.429 112.775 121.55 112.944 121.636 113.077H121.735V109.318H122.909V119.5H121.775V118.327H121.636C121.55 118.466 121.427 118.642 121.268 118.854C121.109 119.062 120.882 119.25 120.587 119.415C120.292 119.578 119.899 119.659 119.409 119.659ZM119.568 118.605C120.038 118.605 120.436 118.482 120.761 118.237C121.086 117.989 121.333 117.646 121.502 117.208C121.671 116.767 121.755 116.259 121.755 115.682C121.755 115.112 121.672 114.613 121.507 114.185C121.341 113.754 121.096 113.42 120.771 113.181C120.446 112.939 120.045 112.818 119.568 112.818C119.07 112.818 118.656 112.946 118.325 113.201C117.997 113.453 117.75 113.796 117.584 114.23C117.422 114.661 117.34 115.145 117.34 115.682C117.34 116.225 117.423 116.719 117.589 117.163C117.758 117.604 118.007 117.955 118.335 118.217C118.666 118.476 119.077 118.605 119.568 118.605Z" fill="#1A1A1A"/>
<rect x="12" y="101" width="3" height="26" rx="1.5" fill="#6366F1"/>
<path d="M33 149V161M33 149L38 154M33 149L28 154M42 161V165C42 165.53 41.7893 166.039 41.4142 166.414C41.0391 166.789 40.5304 167 40 167H26C25.4696 167 24.9609 166.789 24.5858 166.414C24.2107 166.039 24 165.53 24 165V161" stroke="black" stroke-width="2" stroke-linecap="round" stroke-linejoin="round"/>
<path d="M59.9148 153.318H61.1477V160.06C61.1477 160.756 60.9837 161.377 60.6555 161.924C60.3307 162.468 59.8717 162.897 59.2784 163.212C58.6851 163.523 57.9891 163.679 57.1903 163.679C56.3916 163.679 55.6955 163.523 55.1023 163.212C54.509 162.897 54.0483 162.468 53.7202 161.924C53.3954 161.377 53.233 160.756 53.233 160.06V153.318H54.4659V159.96C54.4659 160.457 54.5753 160.9 54.794 161.288C55.0128 161.672 55.3243 161.975 55.7287 162.197C56.1364 162.416 56.6236 162.526 57.1903 162.526C57.7571 162.526 58.2443 162.416 58.652 162.197C59.0597 161.975 59.3712 161.672 59.5866 161.288C59.8054 160.9 59.9148 160.457 59.9148 159.96V153.318ZM63.4508 166.364V155.864H64.5843V157.077H64.7235C64.8097 156.944 64.929 156.775 65.0815 156.57C65.2373 156.361 65.4593 156.175 65.7477 156.013C66.0394 155.847 66.4338 155.764 66.9309 155.764C67.5739 155.764 68.1407 155.925 68.6312 156.246C69.1217 156.568 69.5046 157.024 69.7797 157.614C70.0547 158.204 70.1923 158.9 70.1923 159.702C70.1923 160.51 70.0547 161.211 69.7797 161.805C69.5046 162.395 69.1234 162.852 68.6362 163.177C68.149 163.498 67.5872 163.659 66.9508 163.659C66.4603 163.659 66.0675 163.578 65.7725 163.415C65.4776 163.25 65.2505 163.062 65.0914 162.854C64.9324 162.642 64.8097 162.466 64.7235 162.327H64.6241V166.364H63.4508ZM64.6042 159.682C64.6042 160.259 64.6887 160.767 64.8578 161.208C65.0268 161.646 65.2737 161.989 65.5985 162.237C65.9234 162.482 66.3211 162.605 66.7917 162.605C67.2823 162.605 67.6916 162.476 68.0197 162.217C68.3511 161.955 68.5997 161.604 68.7654 161.163C68.9345 160.719 69.019 160.225 69.019 159.682C69.019 159.145 68.9361 158.661 68.7704 158.23C68.608 157.796 68.3611 157.453 68.0297 157.201C67.7015 156.946 67.2889 156.818 66.7917 156.818C66.3145 156.818 65.9134 156.939 65.5886 157.181C65.2638 157.42 65.0185 157.754 64.8528 158.185C64.6871 158.613 64.6042 159.112 64.6042 159.682ZM73.1554 153.318V163.5H71.9821V153.318H73.1554ZM78.4066 163.659C77.7172 163.659 77.1123 163.495 76.592 163.167C76.0749 162.839 75.6706 162.38 75.3789 161.79C75.0906 161.2 74.9464 160.51 74.9464 159.722C74.9464 158.926 75.0906 158.232 75.3789 157.638C75.6706 157.045 76.0749 156.585 76.592 156.256C77.1123 155.928 77.7172 155.764 78.4066 155.764C79.096 155.764 79.6992 155.928 80.2163 156.256C80.7366 156.585 81.141 157.045 81.4293 157.638C81.721 158.232 81.8668 158.926 81.8668 159.722C81.8668 160.51 81.721 161.2 81.4293 161.79C81.141 162.38 80.7366 162.839 80.2163 163.167C79.6992 163.495 79.096 163.659 78.4066 163.659ZM78.4066 162.605C78.9303 162.605 79.3612 162.471 79.6992 162.202C80.0373 161.934 80.2875 161.581 80.4499 161.143C80.6123 160.706 80.6935 160.232 80.6935 159.722C80.6935 159.211 80.6123 158.736 80.4499 158.295C80.2875 157.854 80.0373 157.498 79.6992 157.226C79.3612 156.954 78.9303 156.818 78.4066 156.818C77.8829 156.818 77.4521 156.954 77.114 157.226C76.7759 157.498 76.5257 157.854 76.3633 158.295C76.2009 158.736 76.1197 159.211 76.1197 159.722C76.1197 160.232 76.2009 160.706 76.3633 161.143C76.5257 161.581 76.7759 161.934 77.114 162.202C77.4521 162.471 77.8829 162.605 78.4066 162.605ZM85.905 163.679C85.4211 163.679 84.9819 163.588 84.5875 163.406C84.1931 163.22 83.8799 162.953 83.6479 162.605C83.4159 162.254 83.2999 161.83 83.2999 161.332C83.2999 160.895 83.3861 160.54 83.5584 160.268C83.7308 159.993 83.9611 159.778 84.2495 159.622C84.5378 159.466 84.856 159.35 85.204 159.274C85.5553 159.195 85.9083 159.132 86.263 159.085C86.727 159.026 87.1032 158.981 87.3915 158.951C87.6832 158.918 87.8953 158.863 88.0279 158.787C88.1638 158.711 88.2317 158.578 88.2317 158.389V158.349C88.2317 157.859 88.0975 157.478 87.829 157.206C87.5639 156.934 87.1612 156.798 86.6209 156.798C86.0608 156.798 85.6216 156.921 85.3034 157.166C84.9853 157.411 84.7615 157.673 84.6323 157.952L83.5186 157.554C83.7175 157.09 83.9827 156.729 84.3141 156.47C84.6489 156.208 85.0134 156.026 85.4078 155.923C85.8056 155.817 86.1967 155.764 86.5811 155.764C86.8264 155.764 87.1081 155.794 87.4263 155.854C87.7478 155.91 88.0577 156.028 88.356 156.207C88.6576 156.386 88.9078 156.656 89.1067 157.017C89.3056 157.378 89.405 157.862 89.405 158.469V163.5H88.2317V162.466H88.1721C88.0925 162.632 87.9599 162.809 87.7743 162.998C87.5887 163.187 87.3418 163.348 87.0336 163.48C86.7253 163.613 86.3491 163.679 85.905 163.679ZM86.084 162.625C86.548 162.625 86.9391 162.534 87.2573 162.352C87.5788 162.169 87.8207 161.934 87.9831 161.646C88.1489 161.357 88.2317 161.054 88.2317 160.736V159.662C88.182 159.722 88.0726 159.776 87.9036 159.826C87.7379 159.872 87.5456 159.914 87.3269 159.95C87.1114 159.983 86.901 160.013 86.6955 160.04C86.4933 160.063 86.3292 160.083 86.2033 160.099C85.8984 160.139 85.6133 160.204 85.3482 160.293C85.0864 160.379 84.8742 160.51 84.7118 160.686C84.5527 160.858 84.4732 161.094 84.4732 161.392C84.4732 161.8 84.624 162.108 84.9256 162.317C85.2305 162.522 85.6167 162.625 86.084 162.625ZM94.43 163.659C93.7937 163.659 93.2319 163.498 92.7447 163.177C92.2575 162.852 91.8763 162.395 91.6012 161.805C91.3261 161.211 91.1886 160.51 91.1886 159.702C91.1886 158.9 91.3261 158.204 91.6012 157.614C91.8763 157.024 92.2591 156.568 92.7496 156.246C93.2402 155.925 93.8069 155.764 94.4499 155.764C94.9471 155.764 95.3398 155.847 95.6282 156.013C95.9199 156.175 96.1419 156.361 96.2944 156.57C96.4502 156.775 96.5711 156.944 96.6573 157.077H96.7567V153.318H97.93V163.5H96.7965V162.327H96.6573C96.5711 162.466 96.4485 162.642 96.2894 162.854C96.1303 163.062 95.9033 163.25 95.6083 163.415C95.3133 163.578 94.9206 163.659 94.43 163.659ZM94.5891 162.605C95.0598 162.605 95.4575 162.482 95.7823 162.237C96.1071 161.989 96.354 161.646 96.5231 161.208C96.6921 160.767 96.7766 160.259 96.7766 159.682C96.7766 159.112 96.6938 158.613 96.5281 158.185C96.3623 157.754 96.1171 157.42 95.7923 157.181C95.4674 156.939 95.0664 156.818 94.5891 156.818C94.092 156.818 93.6777 156.946 93.3462 157.201C93.0181 157.453 92.7712 157.796 92.6055 158.23C92.4431 158.661 92.3619 159.145 92.3619 159.682C92.3619 160.225 92.4447 160.719 92.6104 161.163C92.7795 161.604 93.0281 161.955 93.3562 162.217C93.6876 162.476 94.0986 162.605 94.5891 162.605ZM112.532 156.5H111.299C111.226 156.145 111.098 155.834 110.916 155.565C110.737 155.297 110.518 155.071 110.26 154.889C110.004 154.704 109.721 154.564 109.409 154.472C109.098 154.379 108.773 154.332 108.435 154.332C107.819 154.332 107.26 154.488 106.76 154.8C106.262 155.111 105.866 155.57 105.571 156.177C105.28 156.783 105.134 157.527 105.134 158.409C105.134 159.291 105.28 160.035 105.571 160.641C105.866 161.248 106.262 161.707 106.76 162.018C107.26 162.33 107.819 162.486 108.435 162.486C108.773 162.486 109.098 162.439 109.409 162.347C109.721 162.254 110.004 162.116 110.26 161.934C110.518 161.748 110.737 161.521 110.916 161.253C111.098 160.981 111.226 160.67 111.299 160.318H112.532C112.439 160.839 112.27 161.304 112.025 161.715C111.779 162.126 111.474 162.476 111.11 162.764C110.745 163.049 110.336 163.266 109.882 163.415C109.431 163.565 108.949 163.639 108.435 163.639C107.567 163.639 106.794 163.427 106.118 163.003C105.442 162.579 104.91 161.975 104.522 161.193C104.135 160.411 103.941 159.483 103.941 158.409C103.941 157.335 104.135 156.407 104.522 155.625C104.91 154.843 105.442 154.24 106.118 153.815C106.794 153.391 107.567 153.179 108.435 153.179C108.949 153.179 109.431 153.254 109.882 153.403C110.336 153.552 110.745 153.771 111.11 154.059C111.474 154.344 111.779 154.692 112.025 155.103C112.27 155.511 112.439 155.976 112.532 156.5ZM117.467 163.659C116.778 163.659 116.173 163.495 115.653 163.167C115.135 162.839 114.731 162.38 114.439 161.79C114.151 161.2 114.007 160.51 114.007 159.722C114.007 158.926 114.151 158.232 114.439 157.638C114.731 157.045 115.135 156.585 115.653 156.256C116.173 155.928 116.778 155.764 117.467 155.764C118.157 155.764 118.76 155.928 119.277 156.256C119.797 156.585 120.202 157.045 120.49 157.638C120.782 158.232 120.927 158.926 120.927 159.722C120.927 160.51 120.782 161.2 120.49 161.79C120.202 162.38 119.797 162.839 119.277 163.167C118.76 163.495 118.157 163.659 117.467 163.659ZM117.467 162.605C117.991 162.605 118.422 162.471 118.76 162.202C119.098 161.934 119.348 161.581 119.51 161.143C119.673 160.706 119.754 160.232 119.754 159.722C119.754 159.211 119.673 158.736 119.51 158.295C119.348 157.854 119.098 157.498 118.76 157.226C118.422 156.954 117.991 156.818 117.467 156.818C116.943 156.818 116.513 156.954 116.175 157.226C115.836 157.498 115.586 157.854 115.424 158.295C115.261 158.736 115.18 159.211 115.18 159.722C115.18 160.232 115.261 160.706 115.424 161.143C115.586 161.581 115.836 161.934 116.175 162.202C116.513 162.471 116.943 162.605 117.467 162.605ZM123.892 158.906V163.5H122.718V155.864H123.852V157.057H123.951C124.13 156.669 124.402 156.357 124.767 156.122C125.131 155.884 125.602 155.764 126.179 155.764C126.696 155.764 127.148 155.87 127.536 156.082C127.924 156.291 128.225 156.609 128.441 157.037C128.656 157.461 128.764 157.998 128.764 158.648V163.5H127.591V158.727C127.591 158.127 127.435 157.66 127.123 157.325C126.812 156.987 126.384 156.818 125.841 156.818C125.466 156.818 125.131 156.899 124.836 157.062C124.545 157.224 124.314 157.461 124.145 157.773C123.976 158.084 123.892 158.462 123.892 158.906ZM134.229 155.864V156.858H130.271V155.864H134.229ZM131.425 154.034H132.598V161.312C132.598 161.644 132.646 161.893 132.742 162.058C132.842 162.221 132.968 162.33 133.12 162.386C133.276 162.439 133.44 162.466 133.612 162.466C133.742 162.466 133.848 162.459 133.931 162.446C134.013 162.429 134.08 162.416 134.129 162.406L134.368 163.46C134.289 163.49 134.177 163.52 134.035 163.55C133.892 163.583 133.712 163.599 133.493 163.599C133.162 163.599 132.837 163.528 132.519 163.386C132.204 163.243 131.942 163.026 131.733 162.734C131.528 162.443 131.425 162.075 131.425 161.631V154.034ZM139.113 163.659C138.378 163.659 137.743 163.497 137.209 163.172C136.679 162.844 136.27 162.386 135.981 161.8C135.696 161.21 135.554 160.524 135.554 159.741C135.554 158.959 135.696 158.27 135.981 157.673C136.27 157.073 136.671 156.606 137.184 156.271C137.702 155.933 138.305 155.764 138.994 155.764C139.392 155.764 139.785 155.83 140.172 155.963C140.56 156.096 140.913 156.311 141.231 156.609C141.55 156.904 141.803 157.295 141.992 157.783C142.181 158.27 142.275 158.87 142.275 159.582V160.08H136.389V159.065H141.082C141.082 158.634 140.996 158.25 140.824 157.912C140.655 157.574 140.413 157.307 140.098 157.112C139.786 156.916 139.418 156.818 138.994 156.818C138.527 156.818 138.122 156.934 137.781 157.166C137.443 157.395 137.183 157.693 137.001 158.061C136.818 158.429 136.727 158.823 136.727 159.244V159.92C136.727 160.497 136.827 160.986 137.025 161.387C137.228 161.785 137.508 162.088 137.866 162.297C138.224 162.502 138.64 162.605 139.113 162.605C139.422 162.605 139.7 162.562 139.949 162.476C140.201 162.386 140.418 162.254 140.6 162.078C140.782 161.899 140.923 161.677 141.023 161.412L142.156 161.73C142.037 162.115 141.836 162.453 141.555 162.744C141.273 163.033 140.925 163.258 140.51 163.42C140.096 163.58 139.631 163.659 139.113 163.659ZM145.233 158.906V163.5H144.06V155.864H145.194V157.057H145.293C145.472 156.669 145.744 156.357 146.108 156.122C146.473 155.884 146.944 155.764 147.52 155.764C148.037 155.764 148.49 155.87 148.878 156.082C149.265 156.291 149.567 156.609 149.782 157.037C149.998 157.461 150.106 157.998 150.106 158.648V163.5H148.932V158.727C148.932 158.127 148.777 157.66 148.465 157.325C148.153 156.987 147.726 156.818 147.182 156.818C146.808 156.818 146.473 156.899 146.178 157.062C145.886 157.224 145.656 157.461 145.487 157.773C145.318 158.084 145.233 158.462 145.233 158.906ZM155.571 155.864V156.858H151.613V155.864H155.571ZM152.767 154.034H153.94V161.312C153.94 161.644 153.988 161.893 154.084 162.058C154.184 162.221 154.31 162.33 154.462 162.386C154.618 162.439 154.782 162.466 154.954 162.466C155.083 162.466 155.19 162.459 155.272 162.446C155.355 162.429 155.422 162.416 155.471 162.406L155.71 163.46C155.63 163.49 155.519 163.52 155.377 163.55C155.234 163.583 155.054 163.599 154.835 163.599C154.503 163.599 154.179 163.528 153.86 163.386C153.546 163.243 153.284 163.026 153.075 162.734C152.869 162.443 152.767 162.075 152.767 161.631V154.034Z" fill="#1A1A1A"/>
<path d="M24 193V209C24 209.53 24.2107 210.039 24.5858 210.414C24.9609 210.789 25.4696 211 26 211H42M28 206C28.5 204 29.5 199 32 199C34 199 34 202 36 202C38.5 202 40.5 197 41 195" stroke="black" stroke-width="2" stroke-linecap="round" stroke-linejoin="round"/>
<path d="M53.6506 207.5H52.358L56.0966 197.318H57.3693L61.108 207.5H59.8153L56.7727 198.929H56.6932L53.6506 207.5ZM54.1278 203.523H59.3381V204.616H54.1278V203.523ZM63.7081 202.906V207.5H62.5348V199.864H63.6683V201.057H63.7678C63.9467 200.669 64.2185 200.357 64.5831 200.122C64.9477 199.884 65.4183 199.764 65.995 199.764C66.5121 199.764 66.9645 199.87 67.3523 200.082C67.7401 200.291 68.0417 200.609 68.2571 201.037C68.4725 201.461 68.5803 201.998 68.5803 202.648V207.5H67.407V202.727C67.407 202.127 67.2512 201.66 66.9396 201.325C66.6281 200.987 66.2005 200.818 65.657 200.818C65.2824 200.818 64.9477 200.899 64.6527 201.062C64.361 201.224 64.1307 201.461 63.9616 201.773C63.7926 202.084 63.7081 202.462 63.7081 202.906ZM72.9714 207.679C72.4875 207.679 72.0484 207.588 71.6539 207.406C71.2595 207.22 70.9463 206.953 70.7143 206.605C70.4823 206.254 70.3663 205.83 70.3663 205.332C70.3663 204.895 70.4525 204.54 70.6248 204.268C70.7972 203.993 71.0275 203.778 71.3159 203.622C71.6042 203.466 71.9224 203.35 72.2704 203.274C72.6217 203.195 72.9747 203.132 73.3294 203.085C73.7934 203.026 74.1696 202.981 74.4579 202.951C74.7496 202.918 74.9617 202.863 75.0943 202.787C75.2302 202.711 75.2981 202.578 75.2981 202.389V202.349C75.2981 201.859 75.1639 201.478 74.8954 201.206C74.6303 200.934 74.2276 200.798 73.6873 200.798C73.1272 200.798 72.688 200.921 72.3699 201.166C72.0517 201.411 71.8279 201.673 71.6987 201.952L70.585 201.554C70.7839 201.09 71.0491 200.729 71.3805 200.47C71.7153 200.208 72.0798 200.026 72.4743 199.923C72.872 199.817 73.2631 199.764 73.6475 199.764C73.8928 199.764 74.1745 199.794 74.4927 199.854C74.8142 199.91 75.1241 200.028 75.4224 200.207C75.724 200.386 75.9743 200.656 76.1731 201.017C76.372 201.378 76.4714 201.862 76.4714 202.469V207.5H75.2981V206.466H75.2385C75.1589 206.632 75.0263 206.809 74.8407 206.998C74.6551 207.187 74.4082 207.348 74.1 207.48C73.7917 207.613 73.4155 207.679 72.9714 207.679ZM73.1504 206.625C73.6144 206.625 74.0055 206.534 74.3237 206.352C74.6452 206.169 74.8871 205.934 75.0495 205.646C75.2153 205.357 75.2981 205.054 75.2981 204.736V203.662C75.2484 203.722 75.139 203.776 74.97 203.826C74.8043 203.872 74.612 203.914 74.3933 203.95C74.1779 203.983 73.9674 204.013 73.7619 204.04C73.5597 204.063 73.3957 204.083 73.2697 204.099C72.9648 204.139 72.6797 204.204 72.4146 204.293C72.1528 204.379 71.9406 204.51 71.7782 204.686C71.6191 204.858 71.5396 205.094 71.5396 205.392C71.5396 205.8 71.6904 206.108 71.992 206.317C72.2969 206.522 72.6831 206.625 73.1504 206.625ZM79.7862 197.318V207.5H78.6129V197.318H79.7862ZM82.6909 210.364C82.492 210.364 82.3147 210.347 82.1589 210.314C82.0031 210.284 81.8954 210.254 81.8358 210.224L82.1341 209.19C82.4191 209.263 82.671 209.29 82.8897 209.27C83.1085 209.25 83.3024 209.152 83.4714 208.977C83.6438 208.804 83.8012 208.524 83.9437 208.136L84.1625 207.54L81.3386 199.864H82.6113L84.7193 205.949H84.7988L86.9068 199.864H88.1795L84.938 208.614C84.7922 209.008 84.6116 209.335 84.3961 209.593C84.1807 209.855 83.9305 210.049 83.6454 210.175C83.3637 210.301 83.0455 210.364 82.6909 210.364ZM93.0492 199.864V200.858H89.0918V199.864H93.0492ZM90.2452 198.034H91.4185V205.312C91.4185 205.644 91.4666 205.893 91.5627 206.058C91.6621 206.221 91.7881 206.33 91.9405 206.386C92.0963 206.439 92.2604 206.466 92.4327 206.466C92.562 206.466 92.668 206.459 92.7509 206.446C92.8337 206.429 92.9 206.416 92.9498 206.406L93.1884 207.46C93.1088 207.49 92.9978 207.52 92.8553 207.55C92.7128 207.583 92.5321 207.599 92.3134 207.599C91.9819 207.599 91.6571 207.528 91.339 207.386C91.0241 207.243 90.7623 207.026 90.5534 206.734C90.348 206.443 90.2452 206.075 90.2452 205.631V198.034ZM94.8141 207.5V199.864H95.9874V207.5H94.8141ZM95.4107 198.591C95.182 198.591 94.9848 198.513 94.8191 198.357C94.6567 198.201 94.5755 198.014 94.5755 197.795C94.5755 197.577 94.6567 197.389 94.8191 197.234C94.9848 197.078 95.182 197 95.4107 197C95.6394 197 95.8349 197.078 95.9973 197.234C96.1631 197.389 96.2459 197.577 96.2459 197.795C96.2459 198.014 96.1631 198.201 95.9973 198.357C95.8349 198.513 95.6394 198.591 95.4107 198.591ZM101.239 207.659C100.523 207.659 99.9063 207.49 99.3892 207.152C98.8722 206.814 98.4744 206.348 98.196 205.755C97.9176 205.162 97.7784 204.484 97.7784 203.722C97.7784 202.946 97.9209 202.262 98.206 201.668C98.4943 201.072 98.8954 200.606 99.4091 200.271C99.9261 199.933 100.529 199.764 101.219 199.764C101.756 199.764 102.24 199.864 102.67 200.062C103.101 200.261 103.454 200.54 103.729 200.898C104.004 201.256 104.175 201.673 104.241 202.151H103.068C102.979 201.803 102.78 201.494 102.472 201.226C102.167 200.954 101.756 200.818 101.239 200.818C100.781 200.818 100.38 200.937 100.036 201.176C99.6941 201.411 99.4273 201.745 99.2351 202.175C99.0462 202.603 98.9517 203.105 98.9517 203.682C98.9517 204.272 99.0445 204.786 99.2301 205.223C99.419 205.661 99.6842 206 100.026 206.242C100.37 206.484 100.775 206.605 101.239 206.605C101.544 206.605 101.82 206.552 102.069 206.446C102.317 206.34 102.528 206.188 102.7 205.989C102.873 205.79 102.995 205.551 103.068 205.273H104.241C104.175 205.723 104.011 206.129 103.749 206.491C103.491 206.849 103.148 207.134 102.72 207.346C102.296 207.555 101.802 207.659 101.239 207.659ZM111.366 201.574L110.312 201.872C110.246 201.696 110.148 201.526 110.018 201.36C109.893 201.191 109.72 201.052 109.501 200.942C109.283 200.833 109.003 200.778 108.661 200.778C108.194 200.778 107.804 200.886 107.493 201.102C107.185 201.314 107.031 201.584 107.031 201.912C107.031 202.204 107.137 202.434 107.349 202.603C107.561 202.772 107.892 202.913 108.343 203.026L109.477 203.304C110.159 203.47 110.668 203.723 111.003 204.065C111.338 204.403 111.505 204.839 111.505 205.372C111.505 205.81 111.379 206.201 111.127 206.545C110.879 206.89 110.531 207.162 110.083 207.361C109.636 207.56 109.115 207.659 108.522 207.659C107.743 207.659 107.098 207.49 106.588 207.152C106.078 206.814 105.754 206.32 105.619 205.67L106.732 205.392C106.838 205.803 107.039 206.111 107.334 206.317C107.632 206.522 108.022 206.625 108.502 206.625C109.049 206.625 109.483 206.509 109.805 206.277C110.129 206.042 110.292 205.76 110.292 205.432C110.292 205.167 110.199 204.945 110.013 204.766C109.828 204.583 109.543 204.447 109.158 204.358L107.886 204.06C107.186 203.894 106.673 203.637 106.344 203.289C106.02 202.938 105.857 202.499 105.857 201.972C105.857 201.541 105.978 201.16 106.22 200.828C106.465 200.497 106.799 200.237 107.219 200.048C107.644 199.859 108.124 199.764 108.661 199.764C109.417 199.764 110.01 199.93 110.441 200.261C110.875 200.593 111.183 201.03 111.366 201.574Z" fill="#1A1A1A"/>
<path d="M40 241V238C40 237.735 39.8946 237.48 39.7071 237.293C39.5196 237.105 39.2652 237 39 237H26C25.4696 237 24.9609 237.211 24.5858 237.586C24.2107 237.961 24 238.47 24 239M24 239C24 239.53 24.2107 240.039 24.5858 240.414C24.9609 240.789 25.4696 241 26 241H41C41.2652 241 41.5196 241.105 41.7071 241.293C41.8946 241.48 42 241.735 42 242V246M24 239V253C24 253.53 24.2107 254.039 24.5858 254.414C24.9609 254.789 25.4696 255 26 255H41C41.2652 255 41.5196 254.895 41.7071 254.707C41.8946 254.52 42 254.265 42 254V250M42 246H39C38.4696 246 37.9609 246.211 37.5858 246.586C37.2107 246.961 37 247.47 37 248C37 248.53 37.2107 249.039 37.5858 249.414C37.9609 249.789 38.4696 250 39 250H42M42 246C42.2652 246 42.5196 246.105 42.7071 246.293C42.8946 246.48 43 246.735 43 247V249C43 249.265 42.8946 249.52 42.7071 249.707C42.5196 249.895 42.2652 250 42 250" stroke="black" stroke-width="2" stroke-linecap="round" stroke-linejoin="round"/>
<path d="M53.233 251.5V241.318H59.3778V242.412H54.4659V245.852H59.0597V246.946H54.4659V250.406H59.4574V251.5H53.233ZM63.6882 251.679C63.2043 251.679 62.7652 251.588 62.3707 251.406C61.9763 251.22 61.6631 250.953 61.4311 250.605C61.1991 250.254 61.0831 249.83 61.0831 249.332C61.0831 248.895 61.1693 248.54 61.3416 248.268C61.514 247.993 61.7443 247.778 62.0327 247.622C62.321 247.466 62.6392 247.35 62.9872 247.274C63.3385 247.195 63.6915 247.132 64.0462 247.085C64.5102 247.026 64.8864 246.981 65.1747 246.951C65.4664 246.918 65.6785 246.863 65.8111 246.787C65.947 246.711 66.0149 246.578 66.0149 246.389V246.349C66.0149 245.859 65.8807 245.478 65.6122 245.206C65.3471 244.934 64.9444 244.798 64.4041 244.798C63.844 244.798 63.4048 244.921 63.0866 245.166C62.7685 245.411 62.5447 245.673 62.4155 245.952L61.3018 245.554C61.5007 245.09 61.7659 244.729 62.0973 244.47C62.4321 244.208 62.7966 244.026 63.1911 243.923C63.5888 243.817 63.9799 243.764 64.3643 243.764C64.6096 243.764 64.8913 243.794 65.2095 243.854C65.531 243.91 65.8409 244.028 66.1392 244.207C66.4408 244.386 66.6911 244.656 66.8899 245.017C67.0888 245.378 67.1882 245.862 67.1882 246.469V251.5H66.0149V250.466H65.9553C65.8757 250.632 65.7431 250.809 65.5575 250.998C65.3719 251.187 65.125 251.348 64.8168 251.48C64.5085 251.613 64.1323 251.679 63.6882 251.679ZM63.8672 250.625C64.3312 250.625 64.7223 250.534 65.0405 250.352C65.362 250.169 65.6039 249.934 65.7663 249.646C65.9321 249.357 66.0149 249.054 66.0149 248.736V247.662C65.9652 247.722 65.8558 247.776 65.6868 247.826C65.5211 247.872 65.3288 247.914 65.1101 247.95C64.8946 247.983 64.6842 248.013 64.4787 248.04C64.2765 248.063 64.1125 248.083 63.9865 248.099C63.6816 248.139 63.3965 248.204 63.1314 248.293C62.8696 248.379 62.6574 248.51 62.495 248.686C62.3359 248.858 62.2564 249.094 62.2564 249.392C62.2564 249.8 62.4072 250.108 62.7088 250.317C63.0137 250.522 63.3999 250.625 63.8672 250.625ZM69.3297 251.5V243.864H70.4632V245.017H70.5428C70.682 244.639 70.9339 244.333 71.2985 244.097C71.6631 243.862 72.074 243.744 72.5314 243.744C72.6176 243.744 72.7253 243.746 72.8546 243.749C72.9838 243.753 73.0816 243.758 73.1479 243.764V244.957C73.1081 244.947 73.017 244.933 72.8745 244.913C72.7353 244.889 72.5878 244.878 72.432 244.878C72.0608 244.878 71.7293 244.956 71.4377 245.112C71.1493 245.264 70.9206 245.476 70.7516 245.748C70.5859 246.016 70.503 246.323 70.503 246.668V251.5H69.3297ZM75.712 246.906V251.5H74.5387V243.864H75.6722V245.057H75.7717C75.9506 244.669 76.2224 244.357 76.587 244.122C76.9516 243.884 77.4222 243.764 77.9989 243.764C78.516 243.764 78.9684 243.87 79.3562 244.082C79.744 244.291 80.0456 244.609 80.261 245.037C80.4764 245.461 80.5842 245.998 80.5842 246.648V251.5H79.4109V246.727C79.4109 246.127 79.2551 245.66 78.9435 245.325C78.632 244.987 78.2044 244.818 77.6609 244.818C77.2863 244.818 76.9516 244.899 76.6566 245.062C76.3649 245.224 76.1346 245.461 75.9656 245.773C75.7965 246.084 75.712 246.462 75.712 246.906ZM82.7282 251.5V243.864H83.9015V251.5H82.7282ZM83.3248 242.591C83.0961 242.591 82.8989 242.513 82.7331 242.357C82.5707 242.201 82.4895 242.014 82.4895 241.795C82.4895 241.577 82.5707 241.389 82.7331 241.234C82.8989 241.078 83.0961 241 83.3248 241C83.5534 241 83.749 241.078 83.9114 241.234C84.0771 241.389 84.16 241.577 84.16 241.795C84.16 242.014 84.0771 242.201 83.9114 242.357C83.749 242.513 83.5534 242.591 83.3248 242.591ZM87.2237 246.906V251.5H86.0504V243.864H87.1839V245.057H87.2834C87.4624 244.669 87.7341 244.357 88.0987 244.122C88.4633 243.884 88.9339 243.764 89.5107 243.764C90.0277 243.764 90.4801 243.87 90.8679 244.082C91.2557 244.291 91.5573 244.609 91.7727 245.037C91.9882 245.461 92.0959 245.998 92.0959 246.648V251.5H90.9226V246.727C90.9226 246.127 90.7668 245.66 90.4553 245.325C90.1437 244.987 89.7161 244.818 89.1726 244.818C88.7981 244.818 88.4633 244.899 88.1683 245.062C87.8767 245.224 87.6463 245.461 87.4773 245.773C87.3082 246.084 87.2237 246.462 87.2237 246.906ZM97.3223 254.523C96.7555 254.523 96.2683 254.45 95.8606 254.304C95.4529 254.161 95.1132 253.973 94.8414 253.737C94.573 253.505 94.3592 253.257 94.2001 252.991L95.1348 252.335C95.2408 252.474 95.3751 252.634 95.5375 252.812C95.6999 252.995 95.9219 253.152 96.2037 253.285C96.4887 253.421 96.8616 253.489 97.3223 253.489C97.9387 253.489 98.4475 253.339 98.8485 253.041C99.2496 252.743 99.4501 252.276 99.4501 251.639V250.088H99.3507C99.2645 250.227 99.1419 250.4 98.9828 250.605C98.827 250.807 98.6016 250.988 98.3066 251.147C98.015 251.303 97.6206 251.381 97.1234 251.381C96.5069 251.381 95.9534 251.235 95.4629 250.943C94.9757 250.652 94.5895 250.227 94.3045 249.67C94.0228 249.114 93.8819 248.437 93.8819 247.642C93.8819 246.86 94.0195 246.179 94.2946 245.599C94.5697 245.015 94.9525 244.565 95.443 244.246C95.9335 243.925 96.5003 243.764 97.1433 243.764C97.6404 243.764 98.0349 243.847 98.3265 244.013C98.6215 244.175 98.8469 244.361 99.0027 244.57C99.1618 244.775 99.2844 244.944 99.3706 245.077H99.4899V243.864H100.623V251.719C100.623 252.375 100.474 252.909 100.176 253.32C99.881 253.734 99.4833 254.037 98.9828 254.229C98.4856 254.425 97.9321 254.523 97.3223 254.523ZM97.2825 250.327C97.7531 250.327 98.1509 250.219 98.4757 250.004C98.8005 249.788 99.0474 249.478 99.2164 249.074C99.3855 248.67 99.47 248.186 99.47 247.622C99.47 247.072 99.3871 246.586 99.2214 246.165C99.0557 245.745 98.8104 245.415 98.4856 245.176C98.1608 244.937 97.7598 244.818 97.2825 244.818C96.7853 244.818 96.371 244.944 96.0396 245.196C95.7115 245.448 95.4645 245.786 95.2988 246.21C95.1364 246.634 95.0552 247.105 95.0552 247.622C95.0552 248.152 95.1381 248.621 95.3038 249.029C95.4728 249.433 95.7214 249.752 96.0495 249.984C96.381 250.212 96.792 250.327 97.2825 250.327ZM108.18 245.574L107.126 245.872C107.06 245.696 106.962 245.526 106.833 245.36C106.707 245.191 106.535 245.052 106.316 244.942C106.097 244.833 105.817 244.778 105.476 244.778C105.008 244.778 104.619 244.886 104.307 245.102C103.999 245.314 103.845 245.584 103.845 245.912C103.845 246.204 103.951 246.434 104.163 246.603C104.375 246.772 104.707 246.913 105.157 247.026L106.291 247.304C106.974 247.47 107.483 247.723 107.817 248.065C108.152 248.403 108.319 248.839 108.319 249.372C108.319 249.81 108.193 250.201 107.942 250.545C107.693 250.89 107.345 251.162 106.898 251.361C106.45 251.56 105.93 251.659 105.336 251.659C104.558 251.659 103.913 251.49 103.403 251.152C102.892 250.814 102.569 250.32 102.433 249.67L103.547 249.392C103.653 249.803 103.853 250.111 104.148 250.317C104.447 250.522 104.836 250.625 105.317 250.625C105.863 250.625 106.298 250.509 106.619 250.277C106.944 250.042 107.106 249.76 107.106 249.432C107.106 249.167 107.014 248.945 106.828 248.766C106.642 248.583 106.357 248.447 105.973 248.358L104.7 248.06C104.001 247.894 103.487 247.637 103.159 247.289C102.834 246.938 102.672 246.499 102.672 245.972C102.672 245.541 102.793 245.16 103.035 244.828C103.28 244.497 103.613 244.237 104.034 244.048C104.458 243.859 104.939 243.764 105.476 243.764C106.231 243.764 106.825 243.93 107.256 244.261C107.69 244.593 107.998 245.03 108.18 245.574Z" fill="#1A1A1A"/>
<path d="M31.268 299C31.4435 299.304 31.696 299.556 32 299.732C32.3041 299.907 32.6489 300 33 300C33.351 300 33.6959 299.907 33.9999 299.732C34.304 299.556 34.5564 299.304 34.732 299M36 286H42M39 283V289M41.002 292.464C41.2296 292.767 41.4761 293.055 41.74 293.327C41.8704 293.47 41.9564 293.648 41.9874 293.84C42.0185 294.031 41.9933 294.227 41.9149 294.405C41.8365 294.582 41.7083 294.732 41.5459 294.838C41.3834 294.944 41.1938 295 41 295H25C24.8062 295 24.6165 294.944 24.4541 294.838C24.2917 294.732 24.1635 294.582 24.0851 294.405C24.0067 294.227 23.9815 294.031 24.0126 293.84C24.0436 293.648 24.1296 293.47 24.26 293.327C25.59 291.956 27 290.499 27 286C27.0001 284.971 27.2649 283.959 27.7688 283.062C28.2728 282.165 28.9991 281.412 29.8778 280.877C30.7565 280.342 31.7582 280.041 32.7865 280.004C33.8149 279.968 34.8354 280.196 35.75 280.668" stroke="black" stroke-width="2" stroke-linecap="round" stroke-linejoin="round"/>
<path d="M61.3068 285.318V295.5H60.1136L54.5653 287.506H54.4659V295.5H53.233V285.318H54.4261L59.9943 293.332H60.0938V285.318H61.3068ZM66.7172 295.659C66.0278 295.659 65.4229 295.495 64.9025 295.167C64.3855 294.839 63.9811 294.38 63.6895 293.79C63.4011 293.2 63.2569 292.51 63.2569 291.722C63.2569 290.926 63.4011 290.232 63.6895 289.638C63.9811 289.045 64.3855 288.585 64.9025 288.256C65.4229 287.928 66.0278 287.764 66.7172 287.764C67.4065 287.764 68.0098 287.928 68.5268 288.256C69.0472 288.585 69.4515 289.045 69.7399 289.638C70.0315 290.232 70.1774 290.926 70.1774 291.722C70.1774 292.51 70.0315 293.2 69.7399 293.79C69.4515 294.38 69.0472 294.839 68.5268 295.167C68.0098 295.495 67.4065 295.659 66.7172 295.659ZM66.7172 294.605C67.2408 294.605 67.6717 294.471 68.0098 294.202C68.3478 293.934 68.5981 293.581 68.7605 293.143C68.9229 292.706 69.0041 292.232 69.0041 291.722C69.0041 291.211 68.9229 290.736 68.7605 290.295C68.5981 289.854 68.3478 289.498 68.0098 289.226C67.6717 288.954 67.2408 288.818 66.7172 288.818C66.1935 288.818 65.7626 288.954 65.4245 289.226C65.0865 289.498 64.8362 289.854 64.6738 290.295C64.5114 290.736 64.4302 291.211 64.4302 291.722C64.4302 292.232 64.5114 292.706 64.6738 293.143C64.8362 293.581 65.0865 293.934 65.4245 294.202C65.7626 294.471 66.1935 294.605 66.7172 294.605ZM75.2894 287.864V288.858H71.332V287.864H75.2894ZM72.4854 286.034H73.6587V293.312C73.6587 293.644 73.7068 293.893 73.8029 294.058C73.9023 294.221 74.0283 294.33 74.1808 294.386C74.3365 294.439 74.5006 294.466 74.6729 294.466C74.8022 294.466 74.9083 294.459 74.9911 294.446C75.074 294.429 75.1403 294.416 75.19 294.406L75.4286 295.46C75.3491 295.49 75.238 295.52 75.0955 295.55C74.953 295.583 74.7724 295.599 74.5536 295.599C74.2222 295.599 73.8974 295.528 73.5792 295.386C73.2643 295.243 73.0025 295.026 72.7937 294.734C72.5882 294.443 72.4854 294.075 72.4854 293.631V286.034ZM77.0543 295.5V287.864H78.2276V295.5H77.0543ZM77.6509 286.591C77.4222 286.591 77.225 286.513 77.0593 286.357C76.8969 286.201 76.8157 286.014 76.8157 285.795C76.8157 285.577 76.8969 285.389 77.0593 285.234C77.225 285.078 77.4222 285 77.6509 285C77.8796 285 78.0752 285.078 78.2376 285.234C78.4033 285.389 78.4862 285.577 78.4862 285.795C78.4862 286.014 78.4033 286.201 78.2376 286.357C78.0752 286.513 77.8796 286.591 77.6509 286.591ZM83.7772 287.864V288.858H79.6607V287.864H83.7772ZM80.8936 295.5V286.81C80.8936 286.372 80.9964 286.008 81.2019 285.716C81.4074 285.424 81.6742 285.205 82.0023 285.06C82.3304 284.914 82.6768 284.841 83.0414 284.841C83.3297 284.841 83.565 284.864 83.7473 284.911C83.9296 284.957 84.0655 285 84.155 285.04L83.8169 286.054C83.7573 286.034 83.6744 286.009 83.5684 285.979C83.4656 285.95 83.3297 285.935 83.1607 285.935C82.7729 285.935 82.4928 286.032 82.3205 286.228C82.1515 286.424 82.0669 286.71 82.0669 287.088V295.5H80.8936ZM85.4215 295.5V287.864H86.5948V295.5H85.4215ZM86.0181 286.591C85.7894 286.591 85.5922 286.513 85.4265 286.357C85.2641 286.201 85.1829 286.014 85.1829 285.795C85.1829 285.577 85.2641 285.389 85.4265 285.234C85.5922 285.078 85.7894 285 86.0181 285C86.2468 285 86.4424 285.078 86.6048 285.234C86.7705 285.389 86.8533 285.577 86.8533 285.795C86.8533 286.014 86.7705 286.201 86.6048 286.357C86.4424 286.513 86.2468 286.591 86.0181 286.591ZM91.8461 295.659C91.1301 295.659 90.5137 295.49 89.9966 295.152C89.4796 294.814 89.0819 294.348 88.8034 293.755C88.525 293.162 88.3858 292.484 88.3858 291.722C88.3858 290.946 88.5283 290.262 88.8134 289.668C89.1017 289.072 89.5028 288.606 90.0165 288.271C90.5336 287.933 91.1368 287.764 91.8262 287.764C92.3631 287.764 92.847 287.864 93.2779 288.062C93.7087 288.261 94.0617 288.54 94.3368 288.898C94.6119 289.256 94.7826 289.673 94.8489 290.151H93.6756C93.5861 289.803 93.3873 289.494 93.079 289.226C92.7741 288.954 92.3631 288.818 91.8461 288.818C91.3887 288.818 90.9876 288.937 90.6429 289.176C90.3016 289.411 90.0347 289.745 89.8425 290.175C89.6536 290.603 89.5591 291.105 89.5591 291.682C89.5591 292.272 89.6519 292.786 89.8375 293.223C90.0265 293.661 90.2916 294 90.633 294.242C90.9777 294.484 91.382 294.605 91.8461 294.605C92.151 294.605 92.4277 294.552 92.6763 294.446C92.9249 294.34 93.1354 294.188 93.3077 293.989C93.4801 293.79 93.6027 293.551 93.6756 293.273H94.8489C94.7826 293.723 94.6185 294.129 94.3567 294.491C94.0982 294.849 93.7551 295.134 93.3276 295.346C92.9034 295.555 92.4095 295.659 91.8461 295.659ZM98.8113 295.679C98.3274 295.679 97.8882 295.588 97.4938 295.406C97.0994 295.22 96.7862 294.953 96.5542 294.605C96.3221 294.254 96.2061 293.83 96.2061 293.332C96.2061 292.895 96.2923 292.54 96.4647 292.268C96.637 291.993 96.8674 291.778 97.1557 291.622C97.4441 291.466 97.7623 291.35 98.1103 291.274C98.4616 291.195 98.8146 291.132 99.1692 291.085C99.6332 291.026 100.009 290.981 100.298 290.951C100.589 290.918 100.802 290.863 100.934 290.787C101.07 290.711 101.138 290.578 101.138 290.389V290.349C101.138 289.859 101.004 289.478 100.735 289.206C100.47 288.934 100.067 288.798 99.5272 288.798C98.967 288.798 98.5279 288.921 98.2097 289.166C97.8915 289.411 97.6678 289.673 97.5385 289.952L96.4249 289.554C96.6238 289.09 96.8889 288.729 97.2203 288.47C97.5551 288.208 97.9197 288.026 98.3141 287.923C98.7118 287.817 99.1029 287.764 99.4874 287.764C99.7327 287.764 100.014 287.794 100.333 287.854C100.654 287.91 100.964 288.028 101.262 288.207C101.564 288.386 101.814 288.656 102.013 289.017C102.212 289.378 102.311 289.862 102.311 290.469V295.5H101.138V294.466H101.078C100.999 294.632 100.866 294.809 100.681 294.998C100.495 295.187 100.248 295.348 99.9398 295.48C99.6316 295.613 99.2554 295.679 98.8113 295.679ZM98.9902 294.625C99.4542 294.625 99.8453 294.534 100.164 294.352C100.485 294.169 100.727 293.934 100.889 293.646C101.055 293.357 101.138 293.054 101.138 292.736V291.662C101.088 291.722 100.979 291.776 100.81 291.826C100.644 291.872 100.452 291.914 100.233 291.95C100.018 291.983 99.8072 292.013 99.6017 292.04C99.3996 292.063 99.2355 292.083 99.1096 292.099C98.8046 292.139 98.5196 292.204 98.2544 292.293C97.9926 292.379 97.7805 292.51 97.6181 292.686C97.459 292.858 97.3794 293.094 97.3794 293.392C97.3794 293.8 97.5302 294.108 97.8319 294.317C98.1368 294.522 98.5229 294.625 98.9902 294.625ZM107.774 287.864V288.858H103.816V287.864H107.774ZM104.97 286.034H106.143V293.312C106.143 293.644 106.191 293.893 106.287 294.058C106.387 294.221 106.513 294.33 106.665 294.386C106.821 294.439 106.985 294.466 107.157 294.466C107.287 294.466 107.393 294.459 107.475 294.446C107.558 294.429 107.625 294.416 107.674 294.406L107.913 295.46C107.833 295.49 107.722 295.52 107.58 295.55C107.437 295.583 107.257 295.599 107.038 295.599C106.707 295.599 106.382 295.528 106.064 295.386C105.749 295.243 105.487 295.026 105.278 294.734C105.073 294.443 104.97 294.075 104.97 293.631V286.034ZM109.539 295.5V287.864H110.712V295.5H109.539ZM110.135 286.591C109.907 286.591 109.709 286.513 109.544 286.357C109.381 286.201 109.3 286.014 109.3 285.795C109.3 285.577 109.381 285.389 109.544 285.234C109.709 285.078 109.907 285 110.135 285C110.364 285 110.56 285.078 110.722 285.234C110.888 285.389 110.971 285.577 110.971 285.795C110.971 286.014 110.888 286.201 110.722 286.357C110.56 286.513 110.364 286.591 110.135 286.591ZM115.963 295.659C115.274 295.659 114.669 295.495 114.149 295.167C113.632 294.839 113.227 294.38 112.936 293.79C112.647 293.2 112.503 292.51 112.503 291.722C112.503 290.926 112.647 290.232 112.936 289.638C113.227 289.045 113.632 288.585 114.149 288.256C114.669 287.928 115.274 287.764 115.963 287.764C116.653 287.764 117.256 287.928 117.773 288.256C118.293 288.585 118.698 289.045 118.986 289.638C119.278 290.232 119.423 290.926 119.423 291.722C119.423 292.51 119.278 293.2 118.986 293.79C118.698 294.38 118.293 294.839 117.773 295.167C117.256 295.495 116.653 295.659 115.963 295.659ZM115.963 294.605C116.487 294.605 116.918 294.471 117.256 294.202C117.594 293.934 117.844 293.581 118.007 293.143C118.169 292.706 118.25 292.232 118.25 291.722C118.25 291.211 118.169 290.736 118.007 290.295C117.844 289.854 117.594 289.498 117.256 289.226C116.918 288.954 116.487 288.818 115.963 288.818C115.44 288.818 115.009 288.954 114.671 289.226C114.333 289.498 114.082 289.854 113.92 290.295C113.758 290.736 113.676 291.211 113.676 291.722C113.676 292.232 113.758 292.706 113.92 293.143C114.082 293.581 114.333 293.934 114.671 294.202C115.009 294.471 115.44 294.605 115.963 294.605ZM122.388 290.906V295.5H121.214V287.864H122.348V289.057H122.447C122.626 288.669 122.898 288.357 123.263 288.122C123.627 287.884 124.098 287.764 124.675 287.764C125.192 287.764 125.644 287.87 126.032 288.082C126.42 288.291 126.721 288.609 126.937 289.037C127.152 289.461 127.26 289.998 127.26 290.648V295.5H126.087V290.727C126.087 290.127 125.931 289.66 125.619 289.325C125.308 288.987 124.88 288.818 124.337 288.818C123.962 288.818 123.627 288.899 123.332 289.062C123.041 289.224 122.81 289.461 122.641 289.773C122.472 290.084 122.388 290.462 122.388 290.906ZM134.813 289.574L133.759 289.872C133.693 289.696 133.595 289.526 133.466 289.36C133.34 289.191 133.167 289.052 132.949 288.942C132.73 288.833 132.45 288.778 132.108 288.778C131.641 288.778 131.252 288.886 130.94 289.102C130.632 289.314 130.478 289.584 130.478 289.912C130.478 290.204 130.584 290.434 130.796 290.603C131.008 290.772 131.34 290.913 131.79 291.026L132.924 291.304C133.607 291.47 134.115 291.723 134.45 292.065C134.785 292.403 134.952 292.839 134.952 293.372C134.952 293.81 134.826 294.201 134.574 294.545C134.326 294.89 133.978 295.162 133.53 295.361C133.083 295.56 132.563 295.659 131.969 295.659C131.19 295.659 130.546 295.49 130.035 295.152C129.525 294.814 129.202 294.32 129.066 293.67L130.18 293.392C130.286 293.803 130.486 294.111 130.781 294.317C131.079 294.522 131.469 294.625 131.949 294.625C132.496 294.625 132.93 294.509 133.252 294.277C133.577 294.042 133.739 293.76 133.739 293.432C133.739 293.167 133.646 292.945 133.461 292.766C133.275 292.583 132.99 292.447 132.606 292.358L131.333 292.06C130.634 291.894 130.12 291.637 129.792 291.289C129.467 290.938 129.305 290.499 129.305 289.972C129.305 289.541 129.425 289.16 129.667 288.828C129.913 288.497 130.246 288.237 130.667 288.048C131.091 287.859 131.572 287.764 132.108 287.764C132.864 287.764 133.457 287.93 133.888 288.261C134.323 288.593 134.631 289.03 134.813 289.574Z" fill="#1A1A1A"/>
<path d="M30.6711 326.136C30.7262 325.556 30.9954 325.018 31.4262 324.626C31.8569 324.235 32.4183 324.017 33.0006 324.017C33.5828 324.017 34.1442 324.235 34.575 324.626C35.0057 325.018 35.275 325.556 35.3301 326.136C35.3632 326.51 35.486 326.871 35.6882 327.188C35.8904 327.505 36.1659 327.769 36.4915 327.957C36.8171 328.145 37.1832 328.251 37.5588 328.268C37.9343 328.284 38.3083 328.21 38.6491 328.051C39.1782 327.811 39.7777 327.776 40.3311 327.953C40.8844 328.131 41.3519 328.508 41.6426 329.011C41.9333 329.514 42.0263 330.108 41.9037 330.676C41.7811 331.244 41.4515 331.746 40.9791 332.084C40.6714 332.3 40.4203 332.587 40.247 332.92C40.0736 333.253 39.9831 333.624 39.9831 333.999C39.9831 334.375 40.0736 334.746 40.247 335.079C40.4203 335.412 40.6714 335.699 40.9791 335.915C41.4515 336.253 41.7811 336.755 41.9037 337.323C42.0263 337.891 41.9333 338.485 41.6426 338.988C41.3519 339.491 40.8844 339.868 40.3311 340.046C39.7777 340.223 39.1782 340.188 38.6491 339.948C38.3083 339.789 37.9343 339.715 37.5588 339.731C37.1832 339.748 36.8171 339.854 36.4915 340.042C36.1659 340.23 35.8904 340.494 35.6882 340.811C35.486 341.128 35.3632 341.489 35.3301 341.863C35.275 342.443 35.0057 342.981 34.575 343.373C34.1442 343.764 33.5828 343.982 33.0006 343.982C32.4183 343.982 31.8569 343.764 31.4262 343.373C30.9954 342.981 30.7262 342.443 30.6711 341.863C30.638 341.488 30.5152 341.127 30.3129 340.81C30.1107 340.493 29.835 340.23 29.5093 340.042C29.1836 339.854 28.8173 339.747 28.4416 339.731C28.0659 339.715 27.6919 339.789 27.3511 339.948C26.8219 340.188 26.2224 340.223 25.6691 340.046C25.1157 339.868 24.6482 339.491 24.3575 338.988C24.0669 338.485 23.9738 337.891 24.0964 337.323C24.2191 336.755 24.5487 336.253 25.0211 335.915C25.3287 335.699 25.5798 335.412 25.7531 335.079C25.9265 334.746 26.017 334.375 26.017 333.999C26.017 333.624 25.9265 333.253 25.7531 332.92C25.5798 332.587 25.3287 332.3 25.0211 332.084C24.5493 331.745 24.2203 331.244 24.098 330.676C23.9756 330.108 24.0687 329.516 24.359 329.013C24.6494 328.51 25.1164 328.133 25.6692 327.955C26.2219 327.778 26.821 327.812 27.3501 328.051C27.6908 328.21 28.0648 328.284 28.4404 328.268C28.8159 328.251 29.182 328.145 29.5076 327.957C29.8332 327.769 30.1088 327.505 30.3109 327.188C30.5131 326.871 30.6359 326.51 30.6691 326.136M36.0001 334C36.0001 335.657 34.6569 337 33.0001 337C31.3432 337 30.0001 335.657 30.0001 334C30.0001 332.343 31.3432 331 33.0001 331C34.6569 331 36.0001 332.343 36.0001 334Z" stroke="black" stroke-width="2" stroke-linecap="round" stroke-linejoin="round"/>
<path d="M58.8011 331.864C58.7415 331.36 58.4995 330.969 58.0753 330.69C57.651 330.412 57.1307 330.273 56.5142 330.273C56.0634 330.273 55.669 330.346 55.331 330.491C54.9962 330.637 54.7344 330.838 54.5455 331.093C54.3598 331.348 54.267 331.638 54.267 331.963C54.267 332.235 54.3317 332.469 54.4609 332.664C54.5935 332.856 54.7625 333.017 54.968 333.146C55.1735 333.272 55.389 333.377 55.6143 333.46C55.8397 333.539 56.0469 333.604 56.2358 333.653L57.2699 333.932C57.535 334.001 57.83 334.098 58.1548 334.22C58.483 334.343 58.7962 334.51 59.0945 334.722C59.3961 334.931 59.6446 335.2 59.8402 335.528C60.0357 335.856 60.1335 336.259 60.1335 336.736C60.1335 337.286 59.9893 337.783 59.701 338.227C59.416 338.671 58.9983 339.024 58.4482 339.286C57.9013 339.548 57.2367 339.679 56.4545 339.679C55.7254 339.679 55.094 339.561 54.5604 339.326C54.0301 339.091 53.6125 338.763 53.3075 338.342C53.0059 337.921 52.8352 337.432 52.7955 336.875H54.0682C54.1013 337.259 54.2306 337.578 54.456 337.83C54.6847 338.078 54.973 338.264 55.321 338.386C55.6723 338.506 56.0502 338.565 56.4545 338.565C56.9252 338.565 57.3478 338.489 57.7223 338.337C58.0968 338.181 58.3935 337.965 58.6122 337.69C58.831 337.412 58.9403 337.087 58.9403 336.716C58.9403 336.378 58.8459 336.103 58.657 335.891C58.468 335.679 58.2195 335.506 57.9112 335.374C57.603 335.241 57.2699 335.125 56.9119 335.026L55.6591 334.668C54.8636 334.439 54.2339 334.112 53.7699 333.688C53.3059 333.264 53.0739 332.709 53.0739 332.023C53.0739 331.453 53.228 330.955 53.5362 330.531C53.8478 330.104 54.2654 329.772 54.7891 329.537C55.3161 329.298 55.9044 329.179 56.554 329.179C57.2102 329.179 57.7936 329.297 58.304 329.532C58.8144 329.764 59.2188 330.082 59.517 330.487C59.8187 330.891 59.9777 331.35 59.9943 331.864H58.8011ZM65.2033 339.659C64.4675 339.659 63.8328 339.497 63.2992 339.172C62.7689 338.844 62.3596 338.386 62.0712 337.8C61.7862 337.21 61.6436 336.524 61.6436 335.741C61.6436 334.959 61.7862 334.27 62.0712 333.673C62.3596 333.073 62.7606 332.606 63.2743 332.271C63.7914 331.933 64.3946 331.764 65.084 331.764C65.4817 331.764 65.8745 331.83 66.2623 331.963C66.65 332.096 67.003 332.311 67.3212 332.609C67.6394 332.904 67.8929 333.295 68.0819 333.783C68.2708 334.27 68.3652 334.87 68.3652 335.582V336.08H62.4789V335.065H67.1721C67.1721 334.634 67.0859 334.25 66.9135 333.912C66.7445 333.574 66.5025 333.307 66.1877 333.112C65.8761 332.916 65.5082 332.818 65.084 332.818C64.6167 332.818 64.2123 332.934 63.8709 333.166C63.5328 333.395 63.2727 333.693 63.0904 334.061C62.9081 334.429 62.8169 334.823 62.8169 335.244V335.92C62.8169 336.497 62.9164 336.986 63.1152 337.387C63.3174 337.785 63.5975 338.088 63.9554 338.297C64.3134 338.502 64.7293 338.605 65.2033 338.605C65.5115 338.605 65.79 338.562 66.0385 338.476C66.2904 338.386 66.5075 338.254 66.6898 338.078C66.8721 337.899 67.013 337.677 67.1124 337.412L68.2459 337.73C68.1266 338.115 67.9261 338.453 67.6444 338.744C67.3626 339.033 67.0146 339.258 66.6003 339.42C66.186 339.58 65.7203 339.659 65.2033 339.659ZM73.4711 331.864V332.858H69.5137V331.864H73.4711ZM70.6671 330.034H71.8404V337.312C71.8404 337.644 71.8884 337.893 71.9846 338.058C72.084 338.221 72.2099 338.33 72.3624 338.386C72.5182 338.439 72.6822 338.466 72.8546 338.466C72.9838 338.466 73.0899 338.459 73.1728 338.446C73.2556 338.429 73.3219 338.416 73.3716 338.406L73.6103 339.46C73.5307 339.49 73.4197 339.52 73.2772 339.55C73.1346 339.583 72.954 339.599 72.7353 339.599C72.4038 339.599 72.079 339.528 71.7608 339.386C71.446 339.243 71.1841 339.026 70.9753 338.734C70.7698 338.443 70.6671 338.075 70.6671 337.631V330.034ZM78.557 331.864V332.858H74.5996V331.864H78.557ZM75.753 330.034H76.9263V337.312C76.9263 337.644 76.9744 337.893 77.0705 338.058C77.1699 338.221 77.2959 338.33 77.4483 338.386C77.6041 338.439 77.7682 338.466 77.9405 338.466C78.0698 338.466 78.1758 338.459 78.2587 338.446C78.3416 338.429 78.4078 338.416 78.4576 338.406L78.6962 339.46C78.6167 339.49 78.5056 339.52 78.3631 339.55C78.2206 339.583 78.04 339.599 77.8212 339.599C77.4898 339.599 77.165 339.528 76.8468 339.386C76.5319 339.243 76.2701 339.026 76.0613 338.734C75.8558 338.443 75.753 338.075 75.753 337.631V330.034ZM80.3219 339.5V331.864H81.4952V339.5H80.3219ZM80.9185 330.591C80.6898 330.591 80.4926 330.513 80.3269 330.357C80.1645 330.201 80.0833 330.014 80.0833 329.795C80.0833 329.577 80.1645 329.389 80.3269 329.234C80.4926 329.078 80.6898 329 80.9185 329C81.1472 329 81.3427 329.078 81.5051 329.234C81.6709 329.389 81.7537 329.577 81.7537 329.795C81.7537 330.014 81.6709 330.201 81.5051 330.357C81.3427 330.513 81.1472 330.591 80.9185 330.591ZM84.8175 334.906V339.5H83.6442V331.864H84.7777V333.057H84.8771C85.0561 332.669 85.3279 332.357 85.6925 332.122C86.0571 331.884 86.5277 331.764 87.1044 331.764C87.6214 331.764 88.0739 331.87 88.4616 332.082C88.8494 332.291 89.151 332.609 89.3665 333.037C89.5819 333.461 89.6896 333.998 89.6896 334.648V339.5H88.5163V334.727C88.5163 334.127 88.3606 333.66 88.049 333.325C87.7375 332.987 87.3099 332.818 86.7663 332.818C86.3918 332.818 86.0571 332.899 85.7621 333.062C85.4704 333.224 85.2401 333.461 85.071 333.773C84.902 334.084 84.8175 334.462 84.8175 334.906ZM94.916 342.523C94.3493 342.523 93.862 342.45 93.4544 342.304C93.0467 342.161 92.707 341.973 92.4352 341.737C92.1667 341.505 91.9529 341.257 91.7939 340.991L92.7285 340.335C92.8346 340.474 92.9688 340.634 93.1312 340.812C93.2936 340.995 93.5157 341.152 93.7974 341.285C94.0824 341.421 94.4553 341.489 94.916 341.489C95.5325 341.489 96.0413 341.339 96.4423 341.041C96.8433 340.743 97.0439 340.276 97.0439 339.639V338.088H96.9444C96.8583 338.227 96.7356 338.4 96.5765 338.605C96.4208 338.807 96.1954 338.988 95.9004 339.147C95.6087 339.303 95.2143 339.381 94.7172 339.381C94.1007 339.381 93.5472 339.235 93.0566 338.943C92.5694 338.652 92.1833 338.227 91.8983 337.67C91.6165 337.114 91.4757 336.437 91.4757 335.642C91.4757 334.86 91.6132 334.179 91.8883 333.599C92.1634 333.015 92.5462 332.565 93.0368 332.246C93.5273 331.925 94.094 331.764 94.737 331.764C95.2342 331.764 95.6286 331.847 95.9203 332.013C96.2153 332.175 96.4406 332.361 96.5964 332.57C96.7555 332.775 96.8781 332.944 96.9643 333.077H97.0836V331.864H98.2172V339.719C98.2172 340.375 98.068 340.909 97.7697 341.32C97.4747 341.734 97.077 342.037 96.5765 342.229C96.0794 342.425 95.5259 342.523 94.916 342.523ZM94.8762 338.327C95.3469 338.327 95.7446 338.219 96.0694 338.004C96.3942 337.788 96.6412 337.478 96.8102 337.074C96.9792 336.67 97.0637 336.186 97.0637 335.622C97.0637 335.072 96.9809 334.586 96.8152 334.165C96.6494 333.745 96.4042 333.415 96.0794 333.176C95.7546 332.937 95.3535 332.818 94.8762 332.818C94.3791 332.818 93.9648 332.944 93.6333 333.196C93.3052 333.448 93.0583 333.786 92.8926 334.21C92.7302 334.634 92.649 335.105 92.649 335.622C92.649 336.152 92.7318 336.621 92.8975 337.029C93.0666 337.433 93.3152 337.752 93.6433 337.984C93.9747 338.212 94.3857 338.327 94.8762 338.327ZM105.774 333.574L104.72 333.872C104.654 333.696 104.556 333.526 104.427 333.36C104.301 333.191 104.128 333.052 103.91 332.942C103.691 332.833 103.411 332.778 103.069 332.778C102.602 332.778 102.213 332.886 101.901 333.102C101.593 333.314 101.439 333.584 101.439 333.912C101.439 334.204 101.545 334.434 101.757 334.603C101.969 334.772 102.3 334.913 102.751 335.026L103.885 335.304C104.568 335.47 105.076 335.723 105.411 336.065C105.746 336.403 105.913 336.839 105.913 337.372C105.913 337.81 105.787 338.201 105.535 338.545C105.287 338.89 104.939 339.162 104.491 339.361C104.044 339.56 103.523 339.659 102.93 339.659C102.151 339.659 101.507 339.49 100.996 339.152C100.486 338.814 100.163 338.32 100.027 337.67L101.14 337.392C101.247 337.803 101.447 338.111 101.742 338.317C102.04 338.522 102.43 338.625 102.91 338.625C103.457 338.625 103.891 338.509 104.213 338.277C104.538 338.042 104.7 337.76 104.7 337.432C104.7 337.167 104.607 336.945 104.422 336.766C104.236 336.583 103.951 336.447 103.567 336.358L102.294 336.06C101.595 335.894 101.081 335.637 100.753 335.289C100.428 334.938 100.265 334.499 100.265 333.972C100.265 333.541 100.386 333.16 100.628 332.828C100.874 332.497 101.207 332.237 101.628 332.048C102.052 331.859 102.532 331.764 103.069 331.764C103.825 331.764 104.418 331.93 104.849 332.261C105.283 332.593 105.592 333.03 105.774 333.574Z" fill="#1A1A1A"/>
<path d="M24 377H27C27.5304 377 28.0391 377.211 28.4142 377.586C28.7893 377.961 29 378.47 29 379V382C29 382.53 28.7893 383.039 28.4142 383.414C28.0391 383.789 27.5304 384 27 384H26C25.4696 384 24.9609 383.789 24.5858 383.414C24.2107 383.039 24 382.53 24 382V377ZM24 377C24 375.818 24.2328 374.648 24.6851 373.556C25.1374 372.464 25.8003 371.472 26.636 370.636C27.4718 369.8 28.4639 369.137 29.5558 368.685C30.6478 368.233 31.8181 368 33 368C34.1819 368 35.3522 368.233 36.4442 368.685C37.5361 369.137 38.5282 369.8 39.364 370.636C40.1997 371.472 40.8626 372.464 41.3149 373.556C41.7672 374.648 42 375.818 42 377M42 377V382M42 377H39C38.4696 377 37.9609 377.211 37.5858 377.586C37.2107 377.961 37 378.47 37 379V382C37 382.53 37.2107 383.039 37.5858 383.414C37.9609 383.789 38.4696 384 39 384H40C40.5304 384 41.0391 383.789 41.4142 383.414C41.7893 383.039 42 382.53 42 382M42 382V384C42 385.061 41.5786 386.078 40.8284 386.828C40.0783 387.579 39.0609 388 38 388H33" stroke="black" stroke-width="2" stroke-linecap="round" stroke-linejoin="round"/>
<path d="M58.8011 375.864C58.7415 375.36 58.4995 374.969 58.0753 374.69C57.651 374.412 57.1307 374.273 56.5142 374.273C56.0634 374.273 55.669 374.346 55.331 374.491C54.9962 374.637 54.7344 374.838 54.5455 375.093C54.3598 375.348 54.267 375.638 54.267 375.963C54.267 376.235 54.3317 376.469 54.4609 376.664C54.5935 376.856 54.7625 377.017 54.968 377.146C55.1735 377.272 55.389 377.377 55.6143 377.46C55.8397 377.539 56.0469 377.604 56.2358 377.653L57.2699 377.932C57.535 378.001 57.83 378.098 58.1548 378.22C58.483 378.343 58.7962 378.51 59.0945 378.722C59.3961 378.931 59.6446 379.2 59.8402 379.528C60.0357 379.856 60.1335 380.259 60.1335 380.736C60.1335 381.286 59.9893 381.783 59.701 382.227C59.416 382.671 58.9983 383.024 58.4482 383.286C57.9013 383.548 57.2367 383.679 56.4545 383.679C55.7254 383.679 55.094 383.561 54.5604 383.326C54.0301 383.091 53.6125 382.763 53.3075 382.342C53.0059 381.921 52.8352 381.432 52.7955 380.875H54.0682C54.1013 381.259 54.2306 381.578 54.456 381.83C54.6847 382.078 54.973 382.264 55.321 382.386C55.6723 382.506 56.0502 382.565 56.4545 382.565C56.9252 382.565 57.3478 382.489 57.7223 382.337C58.0968 382.181 58.3935 381.965 58.6122 381.69C58.831 381.412 58.9403 381.087 58.9403 380.716C58.9403 380.378 58.8459 380.103 58.657 379.891C58.468 379.679 58.2195 379.506 57.9112 379.374C57.603 379.241 57.2699 379.125 56.9119 379.026L55.6591 378.668C54.8636 378.439 54.2339 378.112 53.7699 377.688C53.3059 377.264 53.0739 376.709 53.0739 376.023C53.0739 375.453 53.228 374.955 53.5362 374.531C53.8478 374.104 54.2654 373.772 54.7891 373.537C55.3161 373.298 55.9044 373.179 56.554 373.179C57.2102 373.179 57.7936 373.297 58.304 373.532C58.8144 373.764 59.2188 374.082 59.517 374.487C59.8187 374.891 59.9777 375.35 59.9943 375.864H58.8011ZM66.8141 380.378V375.864H67.9874V383.5H66.8141V382.207H66.7346C66.5556 382.595 66.2772 382.925 65.8993 383.197C65.5215 383.465 65.0442 383.599 64.4675 383.599C63.9902 383.599 63.566 383.495 63.1948 383.286C62.8236 383.074 62.5319 382.756 62.3198 382.332C62.1077 381.904 62.0016 381.366 62.0016 380.716V375.864H63.1749V380.636C63.1749 381.193 63.3307 381.637 63.6422 381.969C63.9571 382.3 64.3581 382.466 64.8453 382.466C65.137 382.466 65.4337 382.391 65.7353 382.242C66.0402 382.093 66.2954 381.864 66.5009 381.556C66.7097 381.248 66.8141 380.855 66.8141 380.378ZM70.1364 386.364V375.864H71.2699V377.077H71.4091C71.4953 376.944 71.6146 376.775 71.767 376.57C71.9228 376.361 72.1449 376.175 72.4332 376.013C72.7249 375.847 73.1193 375.764 73.6165 375.764C74.2595 375.764 74.8262 375.925 75.3168 376.246C75.8073 376.568 76.1901 377.024 76.4652 377.614C76.7403 378.204 76.8778 378.9 76.8778 379.702C76.8778 380.51 76.7403 381.211 76.4652 381.805C76.1901 382.395 75.8089 382.852 75.3217 383.177C74.8345 383.498 74.2727 383.659 73.6364 383.659C73.1458 383.659 72.7531 383.578 72.4581 383.415C72.1631 383.25 71.9361 383.062 71.777 382.854C71.6179 382.642 71.4953 382.466 71.4091 382.327H71.3097V386.364H70.1364ZM71.2898 379.682C71.2898 380.259 71.3743 380.767 71.5433 381.208C71.7124 381.646 71.9593 381.989 72.2841 382.237C72.6089 382.482 73.0066 382.605 73.4773 382.605C73.9678 382.605 74.3771 382.476 74.7053 382.217C75.0367 381.955 75.2853 381.604 75.451 381.163C75.62 380.719 75.7045 380.225 75.7045 379.682C75.7045 379.145 75.6217 378.661 75.456 378.23C75.2936 377.796 75.0466 377.453 74.7152 377.201C74.3871 376.946 73.9744 376.818 73.4773 376.818C73 376.818 72.599 376.939 72.2741 377.181C71.9493 377.42 71.7041 377.754 71.5384 378.185C71.3726 378.613 71.2898 379.112 71.2898 379.682ZM78.6676 386.364V375.864H79.8011V377.077H79.9403C80.0265 376.944 80.1458 376.775 80.2983 376.57C80.4541 376.361 80.6761 376.175 80.9645 376.013C81.2562 375.847 81.6506 375.764 82.1477 375.764C82.7907 375.764 83.3575 375.925 83.848 376.246C84.3385 376.568 84.7214 377.024 84.9964 377.614C85.2715 378.204 85.4091 378.9 85.4091 379.702C85.4091 380.51 85.2715 381.211 84.9964 381.805C84.7214 382.395 84.3402 382.852 83.853 383.177C83.3658 383.498 82.804 383.659 82.1676 383.659C81.6771 383.659 81.2843 383.578 80.9893 383.415C80.6944 383.25 80.4673 383.062 80.3082 382.854C80.1491 382.642 80.0265 382.466 79.9403 382.327H79.8409V386.364H78.6676ZM79.821 379.682C79.821 380.259 79.9055 380.767 80.0746 381.208C80.2436 381.646 80.4905 381.989 80.8153 382.237C81.1402 382.482 81.5379 382.605 82.0085 382.605C82.4991 382.605 82.9084 382.476 83.2365 382.217C83.5679 381.955 83.8165 381.604 83.9822 381.163C84.1513 380.719 84.2358 380.225 84.2358 379.682C84.2358 379.145 84.1529 378.661 83.9872 378.23C83.8248 377.796 83.5779 377.453 83.2464 377.201C82.9183 376.946 82.5057 376.818 82.0085 376.818C81.5313 376.818 81.1302 376.939 80.8054 377.181C80.4806 377.42 80.2353 377.754 80.0696 378.185C79.9039 378.613 79.821 379.112 79.821 379.682ZM90.3011 383.659C89.6117 383.659 89.0069 383.495 88.4865 383.167C87.9695 382.839 87.5651 382.38 87.2734 381.79C86.9851 381.2 86.8409 380.51 86.8409 379.722C86.8409 378.926 86.9851 378.232 87.2734 377.638C87.5651 377.045 87.9695 376.585 88.4865 376.256C89.0069 375.928 89.6117 375.764 90.3011 375.764C90.9905 375.764 91.5938 375.928 92.1108 376.256C92.6312 376.585 93.0355 377.045 93.3239 377.638C93.6155 378.232 93.7614 378.926 93.7614 379.722C93.7614 380.51 93.6155 381.2 93.3239 381.79C93.0355 382.38 92.6312 382.839 92.1108 383.167C91.5938 383.495 90.9905 383.659 90.3011 383.659ZM90.3011 382.605C90.8248 382.605 91.2557 382.471 91.5938 382.202C91.9318 381.934 92.1821 381.581 92.3445 381.143C92.5069 380.706 92.5881 380.232 92.5881 379.722C92.5881 379.211 92.5069 378.736 92.3445 378.295C92.1821 377.854 91.9318 377.498 91.5938 377.226C91.2557 376.954 90.8248 376.818 90.3011 376.818C89.7775 376.818 89.3466 376.954 89.0085 377.226C88.6705 377.498 88.4202 377.854 88.2578 378.295C88.0954 378.736 88.0142 379.211 88.0142 379.722C88.0142 380.232 88.0954 380.706 88.2578 381.143C88.4202 381.581 88.6705 381.934 89.0085 382.202C89.3466 382.471 89.7775 382.605 90.3011 382.605ZM95.5524 383.5V375.864H96.6859V377.017H96.7654C96.9047 376.639 97.1565 376.333 97.5211 376.097C97.8857 375.862 98.2967 375.744 98.7541 375.744C98.8403 375.744 98.948 375.746 99.0772 375.749C99.2065 375.753 99.3043 375.758 99.3706 375.764V376.957C99.3308 376.947 99.2396 376.933 99.0971 376.913C98.9579 376.889 98.8104 376.878 98.6547 376.878C98.2834 376.878 97.952 376.956 97.6603 377.112C97.372 377.264 97.1433 377.476 96.9743 377.748C96.8085 378.016 96.7257 378.323 96.7257 378.668V383.5H95.5524ZM104.561 375.864V376.858H100.604V375.864H104.561ZM101.757 374.034H102.93V381.312C102.93 381.644 102.978 381.893 103.074 382.058C103.174 382.221 103.3 382.33 103.452 382.386C103.608 382.439 103.772 382.466 103.944 382.466C104.074 382.466 104.18 382.459 104.263 382.446C104.345 382.429 104.412 382.416 104.461 382.406L104.7 383.46C104.621 383.49 104.51 383.52 104.367 383.55C104.224 383.583 104.044 383.599 103.825 383.599C103.494 383.599 103.169 383.528 102.851 383.386C102.536 383.243 102.274 383.026 102.065 382.734C101.86 382.443 101.757 382.075 101.757 381.631V374.034Z" fill="#1A1A1A"/>
<path d="M37 427L42 422M42 422L37 417M42 422H30M30 431H26C25.4696 431 24.9609 430.789 24.5858 430.414C24.2107 430.039 24 429.53 24 429V415C24 414.47 24.2107 413.961 24.5858 413.586C24.9609 413.211 25.4696 413 26 413H30" stroke="black" stroke-width="2" stroke-linecap="round" stroke-linejoin="round"/>
<path d="M53.233 427.5V417.318H54.4659V426.406H59.1989V427.5H53.233ZM64.0511 427.659C63.3617 427.659 62.7569 427.495 62.2365 427.167C61.7195 426.839 61.3151 426.38 61.0234 425.79C60.7351 425.2 60.5909 424.51 60.5909 423.722C60.5909 422.926 60.7351 422.232 61.0234 421.638C61.3151 421.045 61.7195 420.585 62.2365 420.256C62.7569 419.928 63.3617 419.764 64.0511 419.764C64.7405 419.764 65.3438 419.928 65.8608 420.256C66.3812 420.585 66.7855 421.045 67.0739 421.638C67.3655 422.232 67.5114 422.926 67.5114 423.722C67.5114 424.51 67.3655 425.2 67.0739 425.79C66.7855 426.38 66.3812 426.839 65.8608 427.167C65.3438 427.495 64.7405 427.659 64.0511 427.659ZM64.0511 426.605C64.5748 426.605 65.0057 426.471 65.3438 426.202C65.6818 425.934 65.9321 425.581 66.0945 425.143C66.2569 424.706 66.3381 424.232 66.3381 423.722C66.3381 423.211 66.2569 422.736 66.0945 422.295C65.9321 421.854 65.6818 421.498 65.3438 421.226C65.0057 420.954 64.5748 420.818 64.0511 420.818C63.5275 420.818 63.0966 420.954 62.7585 421.226C62.4205 421.498 62.1702 421.854 62.0078 422.295C61.8454 422.736 61.7642 423.211 61.7642 423.722C61.7642 424.232 61.8454 424.706 62.0078 425.143C62.1702 425.581 62.4205 425.934 62.7585 426.202C63.0966 426.471 63.5275 426.605 64.0511 426.605ZM72.3848 430.523C71.818 430.523 71.3308 430.45 70.9231 430.304C70.5154 430.161 70.1757 429.973 69.9039 429.737C69.6355 429.505 69.4217 429.257 69.2626 428.991L70.1973 428.335C70.3033 428.474 70.4376 428.634 70.6 428.812C70.7624 428.995 70.9844 429.152 71.2662 429.285C71.5512 429.421 71.9241 429.489 72.3848 429.489C73.0012 429.489 73.51 429.339 73.911 429.041C74.3121 428.743 74.5126 428.276 74.5126 427.639V426.088H74.4132C74.327 426.227 74.2044 426.4 74.0453 426.605C73.8895 426.807 73.6641 426.988 73.3691 427.147C73.0775 427.303 72.6831 427.381 72.1859 427.381C71.5694 427.381 71.0159 427.235 70.5254 426.943C70.0382 426.652 69.652 426.227 69.367 425.67C69.0853 425.114 68.9444 424.437 68.9444 423.642C68.9444 422.86 69.082 422.179 69.3571 421.599C69.6322 421.015 70.015 420.565 70.5055 420.246C70.996 419.925 71.5628 419.764 72.2058 419.764C72.7029 419.764 73.0974 419.847 73.389 420.013C73.684 420.175 73.9094 420.361 74.0652 420.57C74.2243 420.775 74.3469 420.944 74.4331 421.077H74.5524V419.864H75.6859V427.719C75.6859 428.375 75.5368 428.909 75.2385 429.32C74.9435 429.734 74.5458 430.037 74.0453 430.229C73.5481 430.425 72.9946 430.523 72.3848 430.523ZM72.345 426.327C72.8156 426.327 73.2134 426.219 73.5382 426.004C73.863 425.788 74.1099 425.478 74.2789 425.074C74.448 424.67 74.5325 424.186 74.5325 423.622C74.5325 423.072 74.4496 422.586 74.2839 422.165C74.1182 421.745 73.8729 421.415 73.5481 421.176C73.2233 420.937 72.8223 420.818 72.345 420.818C71.8478 420.818 71.4335 420.944 71.1021 421.196C70.774 421.448 70.527 421.786 70.3613 422.21C70.1989 422.634 70.1177 423.105 70.1177 423.622C70.1177 424.152 70.2006 424.621 70.3663 425.029C70.5353 425.433 70.7839 425.752 71.112 425.984C71.4435 426.212 71.8545 426.327 72.345 426.327ZM80.9359 427.659C80.2465 427.659 79.6416 427.495 79.1213 427.167C78.6042 426.839 78.1999 426.38 77.9082 425.79C77.6199 425.2 77.4757 424.51 77.4757 423.722C77.4757 422.926 77.6199 422.232 77.9082 421.638C78.1999 421.045 78.6042 420.585 79.1213 420.256C79.6416 419.928 80.2465 419.764 80.9359 419.764C81.6253 419.764 82.2285 419.928 82.7456 420.256C83.2659 420.585 83.6703 421.045 83.9586 421.638C84.2503 422.232 84.3961 422.926 84.3961 423.722C84.3961 424.51 84.2503 425.2 83.9586 425.79C83.6703 426.38 83.2659 426.839 82.7456 427.167C82.2285 427.495 81.6253 427.659 80.9359 427.659ZM80.9359 426.605C81.4596 426.605 81.8904 426.471 82.2285 426.202C82.5666 425.934 82.8168 425.581 82.9792 425.143C83.1416 424.706 83.2228 424.232 83.2228 423.722C83.2228 423.211 83.1416 422.736 82.9792 422.295C82.8168 421.854 82.5666 421.498 82.2285 421.226C81.8904 420.954 81.4596 420.818 80.9359 420.818C80.4122 420.818 79.9814 420.954 79.6433 421.226C79.3052 421.498 79.055 421.854 78.8926 422.295C78.7302 422.736 78.649 423.211 78.649 423.722C78.649 424.232 78.7302 424.706 78.8926 425.143C79.055 425.581 79.3052 425.934 79.6433 426.202C79.9814 426.471 80.4122 426.605 80.9359 426.605ZM90.9996 424.378V419.864H92.1729V427.5H90.9996V426.207H90.9201C90.7411 426.595 90.4627 426.925 90.0849 427.197C89.707 427.465 89.2298 427.599 88.6531 427.599C88.1758 427.599 87.7515 427.495 87.3803 427.286C87.0091 427.074 86.7174 426.756 86.5053 426.332C86.2932 425.904 86.1871 425.366 86.1871 424.716V419.864H87.3604V424.636C87.3604 425.193 87.5162 425.637 87.8278 425.969C88.1426 426.3 88.5437 426.466 89.0309 426.466C89.3226 426.466 89.6192 426.391 89.9208 426.242C90.2257 426.093 90.4809 425.864 90.6864 425.556C90.8952 425.248 90.9996 424.855 90.9996 424.378ZM97.6429 419.864V420.858H93.6855V419.864H97.6429ZM94.839 418.034H96.0123V425.312C96.0123 425.644 96.0603 425.893 96.1564 426.058C96.2559 426.221 96.3818 426.33 96.5343 426.386C96.69 426.439 96.8541 426.466 97.0265 426.466C97.1557 426.466 97.2618 426.459 97.3446 426.446C97.4275 426.429 97.4938 426.416 97.5435 426.406L97.7821 427.46C97.7026 427.49 97.5916 427.52 97.449 427.55C97.3065 427.583 97.1259 427.599 96.9071 427.599C96.5757 427.599 96.2509 427.528 95.9327 427.386C95.6178 427.243 95.356 427.026 95.1472 426.734C94.9417 426.443 94.839 426.075 94.839 425.631V418.034Z" fill="#1A1A1A"/>
<defs>
<clipPath id="clip0_177_1804">
<rect width="150" height="47" fill="white" transform="translate(24 24)"/>
</clipPath>
</defs>
</svg>
