<svg width="214" height="58" viewBox="0 0 214 58" fill="none" xmlns="http://www.w3.org/2000/svg">
<g filter="url(#filter0_dd_214_748)">
<rect x="5" y="1" width="203.92" height="48" rx="24" fill="#6366F1"/>
<path d="M44.5155 22.5625C44.4625 22.0663 44.239 21.6799 43.8451 21.4034C43.4549 21.1269 42.9474 20.9886 42.3224 20.9886C41.883 20.9886 41.5061 21.0549 41.1917 21.1875C40.8773 21.3201 40.6368 21.5 40.4701 21.7273C40.3034 21.9545 40.2182 22.214 40.2144 22.5057C40.2144 22.7481 40.2693 22.9583 40.3792 23.1364C40.4928 23.3144 40.6462 23.4659 40.8394 23.5909C41.0326 23.7121 41.2466 23.8144 41.4815 23.8977C41.7163 23.9811 41.953 24.0511 42.1917 24.108L43.2826 24.3807C43.722 24.483 44.1443 24.6212 44.5496 24.7955C44.9587 24.9697 45.3243 25.1894 45.6462 25.4545C45.972 25.7197 46.2296 26.0398 46.419 26.4148C46.6083 26.7898 46.703 27.2292 46.703 27.733C46.703 28.4148 46.5288 29.0152 46.1803 29.5341C45.8318 30.0492 45.328 30.4527 44.669 30.7443C44.0136 31.0322 43.2201 31.1761 42.2883 31.1761C41.383 31.1761 40.597 31.036 39.9303 30.7557C39.2674 30.4754 38.7485 30.0663 38.3735 29.5284C38.0023 28.9905 37.8015 28.3352 37.7712 27.5625H39.8451C39.8754 27.9678 40.0004 28.3049 40.2201 28.5739C40.4398 28.8428 40.7258 29.0436 41.078 29.1761C41.4341 29.3087 41.8318 29.375 42.2712 29.375C42.7296 29.375 43.1311 29.3068 43.4758 29.1705C43.8243 29.0303 44.097 28.8371 44.294 28.5909C44.4909 28.3409 44.5913 28.0492 44.5951 27.7159C44.5913 27.4129 44.5023 27.1629 44.328 26.9659C44.1538 26.7652 43.9095 26.5985 43.5951 26.4659C43.2845 26.3295 42.9208 26.2083 42.5042 26.1023L41.1803 25.7614C40.222 25.5152 39.4644 25.142 38.9076 24.642C38.3546 24.1383 38.078 23.4697 38.078 22.6364C38.078 21.9508 38.2636 21.3504 38.6349 20.8352C39.0099 20.3201 39.5193 19.9205 40.1633 19.6364C40.8072 19.3485 41.5364 19.2045 42.3508 19.2045C43.1765 19.2045 43.9 19.3485 44.5212 19.6364C45.1462 19.9205 45.6368 20.3163 45.9928 20.8239C46.3489 21.3277 46.5326 21.9072 46.544 22.5625H44.5155ZM52.8494 22.2727V23.8636H47.8323V22.2727H52.8494ZM49.0709 20.1818H51.1278V28.375C51.1278 28.6515 51.1694 28.8636 51.2528 29.0114C51.3399 29.1553 51.4535 29.2538 51.5937 29.3068C51.7338 29.3598 51.8891 29.3864 52.0596 29.3864C52.1884 29.3864 52.3058 29.3769 52.4119 29.358C52.5217 29.339 52.605 29.322 52.6619 29.3068L53.0084 30.9148C52.8986 30.9527 52.7414 30.9943 52.5369 31.0398C52.3361 31.0852 52.0899 31.1117 51.7982 31.1193C51.2831 31.1345 50.819 31.0568 50.4062 30.8864C49.9933 30.7121 49.6656 30.4432 49.4232 30.0795C49.1846 29.7159 49.0672 29.2614 49.0709 28.7159V20.1818ZM57.0809 31.1761C56.5279 31.1761 56.0297 31.0777 55.5866 30.8807C55.1472 30.6799 54.7987 30.3845 54.5411 29.9943C54.2873 29.6042 54.1604 29.1231 54.1604 28.5511C54.1604 28.0587 54.2513 27.6515 54.4332 27.3295C54.615 27.0076 54.8631 26.75 55.1775 26.5568C55.4919 26.3636 55.846 26.2178 56.24 26.1193C56.6377 26.017 57.0487 25.9432 57.4729 25.8977C57.9843 25.8447 58.3991 25.7973 58.7172 25.7557C59.0354 25.7102 59.2665 25.642 59.4104 25.5511C59.5582 25.4564 59.632 25.3106 59.632 25.1136V25.0795C59.632 24.6515 59.5051 24.3201 59.2513 24.0852C58.9976 23.8504 58.632 23.733 58.1547 23.733C57.651 23.733 57.2513 23.8428 56.9559 24.0625C56.6642 24.2822 56.4672 24.5417 56.365 24.8409L54.4445 24.5682C54.596 24.0379 54.846 23.5947 55.1945 23.2386C55.543 22.8788 55.9691 22.6098 56.4729 22.4318C56.9767 22.25 57.5335 22.1591 58.1434 22.1591C58.5638 22.1591 58.9824 22.2083 59.3991 22.3068C59.8157 22.4053 60.1964 22.5682 60.5411 22.7955C60.8858 23.0189 61.1623 23.3239 61.3707 23.7102C61.5828 24.0966 61.6888 24.5795 61.6888 25.1591V31H59.7116V29.8011H59.6434C59.5184 30.0436 59.3422 30.2708 59.115 30.483C58.8915 30.6913 58.6093 30.8598 58.2684 30.9886C57.9313 31.1136 57.5354 31.1761 57.0809 31.1761ZM57.615 29.6648C58.0279 29.6648 58.3858 29.5833 58.6888 29.4205C58.9919 29.2538 59.2248 29.0341 59.3877 28.7614C59.5544 28.4886 59.6377 28.1913 59.6377 27.8693V26.8409C59.5733 26.8939 59.4635 26.9432 59.3082 26.9886C59.1566 27.0341 58.9862 27.0739 58.7968 27.108C58.6074 27.142 58.4199 27.1723 58.2343 27.1989C58.0487 27.2254 57.8877 27.2481 57.7513 27.267C57.4445 27.3087 57.1699 27.3769 56.9275 27.4716C56.6851 27.5663 56.4938 27.6989 56.3536 27.8693C56.2135 28.036 56.1434 28.2519 56.1434 28.517C56.1434 28.8958 56.2816 29.1818 56.5582 29.375C56.8347 29.5682 57.1869 29.6648 57.615 29.6648ZM63.757 31V22.2727H65.7513V23.7273H65.8422C66.0013 23.2235 66.2741 22.8352 66.6604 22.5625C67.0506 22.286 67.4957 22.1477 67.9957 22.1477C68.1093 22.1477 68.2362 22.1534 68.3763 22.1648C68.5203 22.1723 68.6396 22.1856 68.7343 22.2045V24.0966C68.6472 24.0663 68.5089 24.0398 68.3195 24.017C68.1339 23.9905 67.954 23.9773 67.7797 23.9773C67.4047 23.9773 67.0676 24.0587 66.7684 24.2216C66.4729 24.3807 66.24 24.6023 66.0695 24.8864C65.8991 25.1705 65.8138 25.4981 65.8138 25.8693V31H63.757ZM74.9275 22.2727V23.8636H69.9104V22.2727H74.9275ZM71.1491 20.1818H73.2059V28.375C73.2059 28.6515 73.2476 28.8636 73.3309 29.0114C73.418 29.1553 73.5316 29.2538 73.6718 29.3068C73.8119 29.3598 73.9672 29.3864 74.1377 29.3864C74.2665 29.3864 74.3839 29.3769 74.49 29.358C74.5998 29.339 74.6832 29.322 74.74 29.3068L75.0866 30.9148C74.9767 30.9527 74.8195 30.9943 74.615 31.0398C74.4142 31.0852 74.168 31.1117 73.8763 31.1193C73.3612 31.1345 72.8972 31.0568 72.4843 30.8864C72.0714 30.7121 71.7438 30.4432 71.5013 30.0795C71.2627 29.7159 71.1453 29.2614 71.1491 28.7159V20.1818ZM80.7073 31V19.3636H88.2755V21.1307H82.8153V24.2898H87.8834V26.0568H82.8153V29.233H88.3209V31H80.7073ZM92.8465 31.1761C92.2935 31.1761 91.7954 31.0777 91.3522 30.8807C90.9128 30.6799 90.5643 30.3845 90.3067 29.9943C90.0529 29.6042 89.9261 29.1231 89.9261 28.5511C89.9261 28.0587 90.017 27.6515 90.1988 27.3295C90.3806 27.0076 90.6287 26.75 90.9431 26.5568C91.2575 26.3636 91.6117 26.2178 92.0056 26.1193C92.4033 26.017 92.8143 25.9432 93.2386 25.8977C93.7499 25.8447 94.1647 25.7973 94.4829 25.7557C94.8011 25.7102 95.0321 25.642 95.1761 25.5511C95.3238 25.4564 95.3976 25.3106 95.3976 25.1136V25.0795C95.3976 24.6515 95.2708 24.3201 95.017 24.0852C94.7632 23.8504 94.3976 23.733 93.9204 23.733C93.4166 23.733 93.017 23.8428 92.7215 24.0625C92.4298 24.2822 92.2329 24.5417 92.1306 24.8409L90.2101 24.5682C90.3617 24.0379 90.6117 23.5947 90.9601 23.2386C91.3086 22.8788 91.7348 22.6098 92.2386 22.4318C92.7423 22.25 93.2992 22.1591 93.909 22.1591C94.3295 22.1591 94.748 22.2083 95.1647 22.3068C95.5814 22.4053 95.962 22.5682 96.3067 22.7955C96.6514 23.0189 96.9279 23.3239 97.1363 23.7102C97.3484 24.0966 97.4545 24.5795 97.4545 25.1591V31H95.4772V29.8011H95.409C95.284 30.0436 95.1079 30.2708 94.8806 30.483C94.6571 30.6913 94.3749 30.8598 94.034 30.9886C93.6969 31.1136 93.3011 31.1761 92.8465 31.1761ZM93.3806 29.6648C93.7935 29.6648 94.1514 29.5833 94.4545 29.4205C94.7575 29.2538 94.9904 29.0341 95.1533 28.7614C95.32 28.4886 95.4033 28.1913 95.4033 27.8693V26.8409C95.3389 26.8939 95.2291 26.9432 95.0738 26.9886C94.9223 27.0341 94.7518 27.0739 94.5624 27.108C94.373 27.142 94.1855 27.1723 93.9999 27.1989C93.8143 27.2254 93.6533 27.2481 93.517 27.267C93.2101 27.3087 92.9355 27.3769 92.6931 27.4716C92.4507 27.5663 92.2594 27.6989 92.1192 27.8693C91.9791 28.036 91.909 28.2519 91.909 28.517C91.909 28.8958 92.0473 29.1818 92.3238 29.375C92.6003 29.5682 92.9526 29.6648 93.3806 29.6648ZM99.5226 31V22.2727H101.517V23.7273H101.608C101.767 23.2235 102.04 22.8352 102.426 22.5625C102.816 22.286 103.261 22.1477 103.761 22.1477C103.875 22.1477 104.002 22.1534 104.142 22.1648C104.286 22.1723 104.405 22.1856 104.5 22.2045V24.0966C104.413 24.0663 104.275 24.0398 104.085 24.017C103.9 23.9905 103.72 23.9773 103.545 23.9773C103.17 23.9773 102.833 24.0587 102.534 24.2216C102.239 24.3807 102.006 24.6023 101.835 24.8864C101.665 25.1705 101.579 25.4981 101.579 25.8693V31H99.5226ZM107.923 25.8864V31H105.866V22.2727H107.832V23.7557H107.935C108.135 23.267 108.455 22.8788 108.895 22.5909C109.338 22.303 109.885 22.1591 110.537 22.1591C111.139 22.1591 111.664 22.2879 112.111 22.5455C112.561 22.803 112.91 23.1761 113.156 23.6648C113.406 24.1534 113.529 24.7462 113.525 25.4432V31H111.469V25.7614C111.469 25.178 111.317 24.7216 111.014 24.392C110.715 24.0625 110.3 23.8977 109.77 23.8977C109.41 23.8977 109.09 23.9773 108.81 24.1364C108.533 24.2917 108.315 24.517 108.156 24.8125C108.001 25.108 107.923 25.4659 107.923 25.8864ZM115.616 31V22.2727H117.673V31H115.616ZM116.65 21.0341C116.325 21.0341 116.044 20.9261 115.81 20.7102C115.575 20.4905 115.457 20.2273 115.457 19.9205C115.457 19.6098 115.575 19.3466 115.81 19.1307C116.044 18.911 116.325 18.8011 116.65 18.8011C116.98 18.8011 117.26 18.911 117.491 19.1307C117.726 19.3466 117.844 19.6098 117.844 19.9205C117.844 20.2273 117.726 20.4905 117.491 20.7102C117.26 20.9261 116.98 21.0341 116.65 21.0341ZM121.845 25.8864V31H119.788V22.2727H121.754V23.7557H121.856C122.057 23.267 122.377 22.8788 122.817 22.5909C123.26 22.303 123.807 22.1591 124.459 22.1591C125.061 22.1591 125.586 22.2879 126.033 22.5455C126.483 22.803 126.832 23.1761 127.078 23.6648C127.328 24.1534 127.451 24.7462 127.447 25.4432V31H125.391V25.7614C125.391 25.178 125.239 24.7216 124.936 24.392C124.637 24.0625 124.222 23.8977 123.692 23.8977C123.332 23.8977 123.012 23.9773 122.731 24.1364C122.455 24.2917 122.237 24.517 122.078 24.8125C121.923 25.108 121.845 25.4659 121.845 25.8864ZM133.334 34.4545C132.595 34.4545 131.961 34.3542 131.43 34.1534C130.9 33.9564 130.474 33.6913 130.152 33.358C129.83 33.0246 129.606 32.6553 129.481 32.25L131.334 31.8011C131.417 31.9716 131.538 32.1402 131.697 32.3068C131.856 32.4773 132.07 32.6174 132.339 32.7273C132.612 32.8409 132.955 32.8977 133.368 32.8977C133.951 32.8977 134.434 32.7557 134.817 32.4716C135.199 32.1913 135.391 31.7292 135.391 31.0852V29.4318H135.288C135.182 29.6439 135.027 29.8617 134.822 30.0852C134.622 30.3087 134.355 30.4962 134.021 30.6477C133.692 30.7992 133.277 30.875 132.777 30.875C132.106 30.875 131.498 30.7178 130.953 30.4034C130.411 30.0852 129.98 29.6117 129.658 28.983C129.339 28.3504 129.18 27.5587 129.18 26.608C129.18 25.6496 129.339 24.8409 129.658 24.1818C129.98 23.5189 130.413 23.017 130.959 22.6761C131.504 22.3314 132.112 22.1591 132.783 22.1591C133.294 22.1591 133.714 22.2462 134.044 22.4205C134.377 22.5909 134.642 22.7973 134.839 23.0398C135.036 23.2784 135.186 23.5038 135.288 23.7159H135.402V22.2727H137.43V31.142C137.43 31.8883 137.252 32.5057 136.896 32.9943C136.54 33.483 136.053 33.8485 135.436 34.0909C134.819 34.3333 134.118 34.4545 133.334 34.4545ZM133.351 29.2614C133.786 29.2614 134.158 29.1553 134.464 28.9432C134.771 28.7311 135.004 28.4261 135.163 28.0284C135.322 27.6307 135.402 27.1534 135.402 26.5966C135.402 26.0473 135.322 25.5663 135.163 25.1534C135.008 24.7405 134.777 24.4205 134.47 24.1932C134.167 23.9621 133.794 23.8466 133.351 23.8466C132.892 23.8466 132.51 23.9659 132.203 24.2045C131.896 24.4432 131.665 24.7708 131.51 25.1875C131.355 25.6004 131.277 26.0701 131.277 26.5966C131.277 27.1307 131.355 27.5985 131.51 28C131.669 28.3977 131.902 28.7083 132.209 28.9318C132.519 29.1515 132.9 29.2614 133.351 29.2614ZM153.16 19.3636V31H151.285L145.802 23.0739H145.706V31H143.598V19.3636H145.484L150.962 27.2955H151.064V19.3636H153.16ZM159.173 31.1705C158.321 31.1705 157.582 30.983 156.957 30.608C156.332 30.233 155.847 29.7083 155.503 29.0341C155.162 28.3598 154.991 27.572 154.991 26.6705C154.991 25.7689 155.162 24.9792 155.503 24.3011C155.847 23.6231 156.332 23.0966 156.957 22.7216C157.582 22.3466 158.321 22.1591 159.173 22.1591C160.025 22.1591 160.764 22.3466 161.389 22.7216C162.014 23.0966 162.497 23.6231 162.838 24.3011C163.183 24.9792 163.355 25.7689 163.355 26.6705C163.355 27.572 163.183 28.3598 162.838 29.0341C162.497 29.7083 162.014 30.233 161.389 30.608C160.764 30.983 160.025 31.1705 159.173 31.1705ZM159.185 29.5227C159.647 29.5227 160.033 29.3958 160.344 29.142C160.654 28.8845 160.885 28.5398 161.037 28.108C161.192 27.6761 161.27 27.1951 161.27 26.6648C161.27 26.1307 161.192 25.6477 161.037 25.2159C160.885 24.7803 160.654 24.4337 160.344 24.1761C160.033 23.9186 159.647 23.7898 159.185 23.7898C158.711 23.7898 158.317 23.9186 158.003 24.1761C157.692 24.4337 157.459 24.7803 157.304 25.2159C157.152 25.6477 157.077 26.1307 157.077 26.6648C157.077 27.1951 157.152 27.6761 157.304 28.108C157.459 28.5398 157.692 28.8845 158.003 29.142C158.317 29.3958 158.711 29.5227 159.185 29.5227ZM166.652 31L164.186 22.2727H166.283L167.817 28.4091H167.896L169.464 22.2727H171.538L173.106 28.375H173.192L174.703 22.2727H176.805L174.334 31H172.192L170.555 25.1023H170.436L168.8 31H166.652Z" fill="white"/>
</g>
<defs>
<filter id="filter0_dd_214_748" x="0" y="0" width="213.92" height="58" filterUnits="userSpaceOnUse" color-interpolation-filters="sRGB">
<feFlood flood-opacity="0" result="BackgroundImageFix"/>
<feColorMatrix in="SourceAlpha" type="matrix" values="0 0 0 0 0 0 0 0 0 0 0 0 0 0 0 0 0 0 127 0" result="hardAlpha"/>
<feMorphology radius="2" operator="erode" in="SourceAlpha" result="effect1_dropShadow_214_748"/>
<feOffset dy="2"/>
<feGaussianBlur stdDeviation="2"/>
<feComposite in2="hardAlpha" operator="out"/>
<feColorMatrix type="matrix" values="0 0 0 0 0 0 0 0 0 0 0 0 0 0 0 0 0 0 0.1 0"/>
<feBlend mode="normal" in2="BackgroundImageFix" result="effect1_dropShadow_214_748"/>
<feColorMatrix in="SourceAlpha" type="matrix" values="0 0 0 0 0 0 0 0 0 0 0 0 0 0 0 0 0 0 127 0" result="hardAlpha"/>
<feMorphology radius="1" operator="erode" in="SourceAlpha" result="effect2_dropShadow_214_748"/>
<feOffset dy="4"/>
<feGaussianBlur stdDeviation="3"/>
<feComposite in2="hardAlpha" operator="out"/>
<feColorMatrix type="matrix" values="0 0 0 0 0 0 0 0 0 0 0 0 0 0 0 0 0 0 0.1 0"/>
<feBlend mode="normal" in2="effect1_dropShadow_214_748" result="effect2_dropShadow_214_748"/>
<feBlend mode="normal" in="SourceGraphic" in2="effect2_dropShadow_214_748" result="shape"/>
</filter>
</defs>
</svg>
