<svg width="223" height="78" viewBox="0 0 223 78" fill="none" xmlns="http://www.w3.org/2000/svg">
<g filter="url(#filter0_dd_130_360)">
<rect x="15" y="5" width="192.391" height="48" rx="16" fill="#6366F1"/>
<path d="M153.391 41H47V17H153.391V41Z" stroke="#E5E7EB"/>
<path d="M54.9403 25.5625C54.8873 25.0663 54.6638 24.6799 54.2699 24.4034C53.8797 24.1269 53.3722 23.9886 52.7472 23.9886C52.3078 23.9886 51.9309 24.0549 51.6165 24.1875C51.3021 24.3201 51.0616 24.5 50.8949 24.7273C50.7282 24.9545 50.643 25.214 50.6392 25.5057C50.6392 25.7481 50.6941 25.9583 50.804 26.1364C50.9176 26.3144 51.071 26.4659 51.2642 26.5909C51.4574 26.7121 51.6714 26.8144 51.9062 26.8977C52.1411 26.9811 52.3778 27.0511 52.6165 27.108L53.7074 27.3807C54.1468 27.483 54.5691 27.6212 54.9744 27.7955C55.3835 27.9697 55.7491 28.1894 56.071 28.4545C56.3968 28.7197 56.6544 29.0398 56.8438 29.4148C57.0331 29.7898 57.1278 30.2292 57.1278 30.733C57.1278 31.4148 56.9536 32.0152 56.6051 32.5341C56.2566 33.0492 55.7528 33.4527 55.0938 33.7443C54.4384 34.0322 53.6449 34.1761 52.7131 34.1761C51.8078 34.1761 51.0218 34.036 50.3551 33.7557C49.6922 33.4754 49.1733 33.0663 48.7983 32.5284C48.4271 31.9905 48.2263 31.3352 48.196 30.5625H50.2699C50.3002 30.9678 50.4252 31.3049 50.6449 31.5739C50.8646 31.8428 51.1506 32.0436 51.5028 32.1761C51.8589 32.3087 52.2566 32.375 52.696 32.375C53.1544 32.375 53.5559 32.3068 53.9006 32.1705C54.2491 32.0303 54.5218 31.8371 54.7188 31.5909C54.9157 31.3409 55.0161 31.0492 55.0199 30.7159C55.0161 30.4129 54.9271 30.1629 54.7528 29.9659C54.5786 29.7652 54.3343 29.5985 54.0199 29.4659C53.7093 29.3295 53.3456 29.2083 52.929 29.1023L51.6051 28.7614C50.6468 28.5152 49.8892 28.142 49.3324 27.642C48.7794 27.1383 48.5028 26.4697 48.5028 25.6364C48.5028 24.9508 48.6884 24.3504 49.0597 23.8352C49.4347 23.3201 49.9441 22.9205 50.5881 22.6364C51.232 22.3485 51.9612 22.2045 52.7756 22.2045C53.6013 22.2045 54.3248 22.3485 54.946 22.6364C55.571 22.9205 56.0616 23.3163 56.4176 23.8239C56.7737 24.3277 56.9574 24.9072 56.9688 25.5625H54.9403ZM64.4787 30.3295V25.2727H66.5355V34H64.5412V32.4489H64.4503C64.2533 32.9375 63.9295 33.3371 63.4787 33.6477C63.0317 33.9583 62.4806 34.1136 61.8253 34.1136C61.2533 34.1136 60.7476 33.9867 60.3082 33.733C59.8726 33.4754 59.5317 33.1023 59.2855 32.6136C59.0393 32.1212 58.9162 31.5265 58.9162 30.8295V25.2727H60.973V30.5114C60.973 31.0644 61.1245 31.5038 61.4276 31.8295C61.7306 32.1553 62.1283 32.3182 62.6207 32.3182C62.9238 32.3182 63.2173 32.2443 63.5014 32.0966C63.7855 31.9489 64.0185 31.7292 64.2003 31.4375C64.3859 31.142 64.4787 30.7727 64.4787 30.3295ZM68.7415 34V22.3636H70.7983V26.7159H70.8835C70.9896 26.5038 71.1392 26.2784 71.3324 26.0398C71.5256 25.7973 71.7869 25.5909 72.1165 25.4205C72.446 25.2462 72.8665 25.1591 73.3778 25.1591C74.0521 25.1591 74.66 25.3314 75.2017 25.6761C75.7472 26.017 76.179 26.5227 76.4972 27.1932C76.8191 27.8598 76.9801 28.678 76.9801 29.6477C76.9801 30.6061 76.8229 31.4205 76.5085 32.0909C76.1941 32.7614 75.7661 33.2727 75.2244 33.625C74.6828 33.9773 74.0691 34.1534 73.3835 34.1534C72.8835 34.1534 72.4688 34.0701 72.1392 33.9034C71.8097 33.7367 71.5445 33.536 71.3438 33.3011C71.1468 33.0625 70.9934 32.8371 70.8835 32.625H70.7642V34H68.7415ZM70.7585 29.6364C70.7585 30.2008 70.8381 30.6951 70.9972 31.1193C71.16 31.5436 71.393 31.875 71.696 32.1136C72.0028 32.3485 72.3741 32.4659 72.8097 32.4659C73.2642 32.4659 73.6449 32.3447 73.9517 32.1023C74.2585 31.8561 74.4896 31.5208 74.6449 31.0966C74.804 30.6686 74.8835 30.1818 74.8835 29.6364C74.8835 29.0947 74.8059 28.6136 74.6506 28.1932C74.4953 27.7727 74.2642 27.4432 73.9574 27.2045C73.6506 26.9659 73.268 26.8466 72.8097 26.8466C72.3703 26.8466 71.9972 26.9621 71.6903 27.1932C71.3835 27.4242 71.1506 27.7481 70.9915 28.1648C70.8362 28.5814 70.7585 29.072 70.7585 29.6364ZM78.7287 34V25.2727H80.6946V26.7557H80.7969C80.9787 26.2557 81.2798 25.8655 81.7003 25.5852C82.1207 25.3011 82.6226 25.1591 83.206 25.1591C83.7969 25.1591 84.295 25.303 84.7003 25.5909C85.1094 25.875 85.3973 26.2633 85.5639 26.7557H85.6548C85.848 26.2708 86.1738 25.8845 86.6321 25.5966C87.0942 25.3049 87.6416 25.1591 88.2741 25.1591C89.0772 25.1591 89.7325 25.4129 90.2401 25.9205C90.7476 26.428 91.0014 27.1686 91.0014 28.142V34H88.9389V28.4602C88.9389 27.9186 88.795 27.5227 88.5071 27.2727C88.2192 27.0189 87.867 26.892 87.4503 26.892C86.9541 26.892 86.5658 27.0473 86.2855 27.358C86.009 27.6648 85.8707 28.0644 85.8707 28.5568V34H83.8537V28.375C83.8537 27.9242 83.7173 27.5644 83.4446 27.2955C83.1757 27.0265 82.8234 26.892 82.3878 26.892C82.0923 26.892 81.8234 26.9678 81.581 27.1193C81.3385 27.267 81.1454 27.4773 81.0014 27.75C80.8575 28.0189 80.7855 28.3333 80.7855 28.6932V34H78.7287ZM93.0881 34V25.2727H95.1449V34H93.0881ZM94.1222 24.0341C93.7964 24.0341 93.5161 23.9261 93.2812 23.7102C93.0464 23.4905 92.929 23.2273 92.929 22.9205C92.929 22.6098 93.0464 22.3466 93.2812 22.1307C93.5161 21.911 93.7964 21.8011 94.1222 21.8011C94.4517 21.8011 94.732 21.911 94.9631 22.1307C95.1979 22.3466 95.3153 22.6098 95.3153 22.9205C95.3153 23.2273 95.1979 23.4905 94.9631 23.7102C94.732 23.9261 94.4517 24.0341 94.1222 24.0341ZM101.618 25.2727V26.8636H96.6009V25.2727H101.618ZM97.8395 23.1818H99.8963V31.375C99.8963 31.6515 99.938 31.8636 100.021 32.0114C100.108 32.1553 100.222 32.2538 100.362 32.3068C100.502 32.3598 100.658 32.3864 100.828 32.3864C100.957 32.3864 101.074 32.3769 101.18 32.358C101.29 32.339 101.374 32.322 101.43 32.3068L101.777 33.9148C101.667 33.9527 101.51 33.9943 101.305 34.0398C101.105 34.0852 100.858 34.1117 100.567 34.1193C100.052 34.1345 99.5876 34.0568 99.1747 33.8864C98.7618 33.7121 98.4342 33.4432 98.1918 33.0795C97.9531 32.7159 97.8357 32.2614 97.8395 31.7159V23.1818ZM106.886 24.1307V22.3636H116.17V24.1307H112.574V34H110.483V24.1307H106.886ZM117.869 34V25.2727H119.926V34H117.869ZM118.903 24.0341C118.578 24.0341 118.297 23.9261 118.062 23.7102C117.828 23.4905 117.71 23.2273 117.71 22.9205C117.71 22.6098 117.828 22.3466 118.062 22.1307C118.297 21.911 118.578 21.8011 118.903 21.8011C119.233 21.8011 119.513 21.911 119.744 22.1307C119.979 22.3466 120.097 22.6098 120.097 22.9205C120.097 23.2273 119.979 23.4905 119.744 23.7102C119.513 23.9261 119.233 24.0341 118.903 24.0341ZM125.848 34.1705C124.977 34.1705 124.229 33.9792 123.604 33.5966C122.982 33.214 122.503 32.6856 122.166 32.0114C121.833 31.3333 121.666 30.553 121.666 29.6705C121.666 28.7841 121.837 28.0019 122.178 27.3239C122.518 26.642 123 26.1117 123.621 25.733C124.246 25.3504 124.984 25.1591 125.837 25.1591C126.545 25.1591 127.172 25.2898 127.717 25.5511C128.267 25.8087 128.704 26.1742 129.03 26.6477C129.356 27.1174 129.541 27.6667 129.587 28.2955H127.621C127.541 27.875 127.352 27.5246 127.053 27.2443C126.757 26.9602 126.361 26.8182 125.865 26.8182C125.445 26.8182 125.075 26.9318 124.757 27.1591C124.439 27.3826 124.191 27.7045 124.013 28.125C123.839 28.5455 123.751 29.0492 123.751 29.6364C123.751 30.2311 123.839 30.7424 124.013 31.1705C124.187 31.5947 124.431 31.9223 124.746 32.1534C125.064 32.3807 125.437 32.4943 125.865 32.4943C126.168 32.4943 126.439 32.4375 126.678 32.3239C126.92 32.2064 127.123 32.0379 127.286 31.8182C127.448 31.5985 127.56 31.3314 127.621 31.017H129.587C129.537 31.6345 129.356 32.1818 129.041 32.6591C128.727 33.1326 128.299 33.5038 127.757 33.7727C127.215 34.0379 126.579 34.1705 125.848 34.1705ZM133.151 31.2614L133.145 28.7784H133.474L136.611 25.2727H139.014L135.156 29.5682H134.73L133.151 31.2614ZM131.276 34V22.3636H133.332V34H131.276ZM136.753 34L133.912 30.0284L135.298 28.5795L139.213 34H136.753ZM143.889 34.1705C143.014 34.1705 142.259 33.9886 141.622 33.625C140.99 33.2576 140.503 32.7386 140.162 32.0682C139.821 31.3939 139.651 30.6004 139.651 29.6875C139.651 28.7898 139.821 28.0019 140.162 27.3239C140.507 26.642 140.988 26.1117 141.605 25.733C142.223 25.3504 142.948 25.1591 143.781 25.1591C144.319 25.1591 144.827 25.2462 145.304 25.4205C145.785 25.5909 146.209 25.8561 146.577 26.2159C146.948 26.5758 147.24 27.0341 147.452 27.5909C147.664 28.1439 147.77 28.803 147.77 29.5682V30.1989H140.616V28.8125H145.798C145.795 28.4186 145.709 28.0682 145.543 27.7614C145.376 27.4508 145.143 27.2064 144.844 27.0284C144.548 26.8504 144.204 26.7614 143.81 26.7614C143.389 26.7614 143.02 26.8636 142.702 27.0682C142.384 27.2689 142.135 27.5341 141.957 27.8636C141.783 28.1894 141.694 28.5473 141.69 28.9375V30.1477C141.69 30.6553 141.783 31.0909 141.969 31.4545C142.154 31.8144 142.414 32.0909 142.747 32.2841C143.08 32.4735 143.471 32.5682 143.918 32.5682C144.217 32.5682 144.488 32.5265 144.73 32.4432C144.973 32.3561 145.183 32.2292 145.361 32.0625C145.539 31.8958 145.673 31.6894 145.764 31.4432L147.685 31.6591C147.563 32.1667 147.332 32.6098 146.991 32.9886C146.654 33.3636 146.223 33.6553 145.696 33.8636C145.17 34.0682 144.567 34.1705 143.889 34.1705ZM153.868 25.2727V26.8636H148.851V25.2727H153.868ZM150.089 23.1818H152.146V31.375C152.146 31.6515 152.188 31.8636 152.271 32.0114C152.358 32.1553 152.472 32.2538 152.612 32.3068C152.752 32.3598 152.908 32.3864 153.078 32.3864C153.207 32.3864 153.324 32.3769 153.43 32.358C153.54 32.339 153.624 32.322 153.68 32.3068L154.027 33.9148C153.917 33.9527 153.76 33.9943 153.555 34.0398C153.355 34.0852 153.108 34.1117 152.817 34.1193C152.302 34.1345 151.838 34.0568 151.425 33.8864C151.012 33.7121 150.684 33.4432 150.442 33.0795C150.203 32.7159 150.086 32.2614 150.089 31.7159V23.1818Z" fill="white"/>
<path d="M173.406 29H187.406M187.406 29L180.406 22M187.406 29L180.406 36" stroke="white" stroke-width="2" stroke-linecap="round" stroke-linejoin="round"/>
</g>
<defs>
<filter id="filter0_dd_130_360" x="0" y="0" width="222.391" height="78" filterUnits="userSpaceOnUse" color-interpolation-filters="sRGB">
<feFlood flood-opacity="0" result="BackgroundImageFix"/>
<feColorMatrix in="SourceAlpha" type="matrix" values="0 0 0 0 0 0 0 0 0 0 0 0 0 0 0 0 0 0 127 0" result="hardAlpha"/>
<feOffset dy="10"/>
<feGaussianBlur stdDeviation="7.5"/>
<feColorMatrix type="matrix" values="0 0 0 0 0 0 0 0 0 0 0 0 0 0 0 0 0 0 0.1 0"/>
<feBlend mode="normal" in2="BackgroundImageFix" result="effect1_dropShadow_130_360"/>
<feColorMatrix in="SourceAlpha" type="matrix" values="0 0 0 0 0 0 0 0 0 0 0 0 0 0 0 0 0 0 127 0" result="hardAlpha"/>
<feOffset dy="4"/>
<feGaussianBlur stdDeviation="3"/>
<feColorMatrix type="matrix" values="0 0 0 0 0 0 0 0 0 0 0 0 0 0 0 0 0 0 0.1 0"/>
<feBlend mode="normal" in2="effect1_dropShadow_130_360" result="effect2_dropShadow_130_360"/>
<feBlend mode="normal" in="SourceGraphic" in2="effect2_dropShadow_130_360" result="shape"/>
</filter>
</defs>
</svg>
