<svg width="237" height="40" viewBox="0 0 237 40" fill="none" xmlns="http://www.w3.org/2000/svg">
<rect width="236.484" height="40" rx="16" fill="#6366F1"/>
<rect width="236.484" height="40" rx="16" stroke="#E5E7EB"/>
<path d="M56.3161 14.3636H58.0774V22.017C58.0774 22.8314 57.8861 23.553 57.5036 24.1818C57.121 24.8068 56.5831 25.2992 55.8899 25.6591C55.1967 26.0152 54.3842 26.1932 53.4524 26.1932C52.5244 26.1932 51.7138 26.0152 51.0206 25.6591C50.3274 25.2992 49.7895 24.8068 49.407 24.1818C49.0244 23.553 48.8331 22.8314 48.8331 22.017V14.3636H50.5888V21.875C50.5888 22.4015 50.7043 22.8693 50.9354 23.2784C51.1702 23.6875 51.5017 24.0095 51.9297 24.2443C52.3577 24.4754 52.8653 24.5909 53.4524 24.5909C54.0433 24.5909 54.5528 24.4754 54.9808 24.2443C55.4126 24.0095 55.7422 23.6875 55.9695 23.2784C56.2005 22.8693 56.3161 22.4015 56.3161 21.875V14.3636ZM60.4936 29.2727V17.2727H62.1527V18.6875H62.2947C62.3932 18.5057 62.5353 18.2955 62.7209 18.0568C62.9065 17.8182 63.1641 17.6098 63.4936 17.4318C63.8232 17.25 64.2588 17.1591 64.8004 17.1591C65.505 17.1591 66.1338 17.3371 66.6868 17.6932C67.2398 18.0492 67.6735 18.5625 67.9879 19.233C68.3061 19.9034 68.4652 20.7102 68.4652 21.6534C68.4652 22.5966 68.308 23.4053 67.9936 24.0795C67.6792 24.75 67.2474 25.267 66.6982 25.6307C66.1489 25.9905 65.522 26.1705 64.8175 26.1705C64.2872 26.1705 63.8535 26.0814 63.5163 25.9034C63.183 25.7254 62.9216 25.517 62.7322 25.2784C62.5429 25.0398 62.397 24.8277 62.2947 24.642H62.1925V29.2727H60.4936ZM62.1584 21.6364C62.1584 22.25 62.2474 22.7879 62.4254 23.25C62.6035 23.7121 62.861 24.0739 63.1982 24.3352C63.5353 24.5928 63.9482 24.7216 64.4368 24.7216C64.9444 24.7216 65.3686 24.5871 65.7095 24.3182C66.0504 24.0455 66.308 23.6761 66.4822 23.2102C66.6603 22.7443 66.7493 22.2197 66.7493 21.6364C66.7493 21.0606 66.6622 20.5436 66.4879 20.0852C66.3175 19.6269 66.0599 19.2652 65.7152 19C65.3743 18.7348 64.9482 18.6023 64.4368 18.6023C63.9444 18.6023 63.5277 18.7292 63.1868 18.983C62.8497 19.2367 62.594 19.5909 62.4197 20.0455C62.2455 20.5 62.1584 21.0303 62.1584 21.6364ZM73.6357 26.1705C72.9311 26.1705 72.3023 25.9905 71.7493 25.6307C71.2 25.267 70.7682 24.75 70.4538 24.0795C70.1432 23.4053 69.9879 22.5966 69.9879 21.6534C69.9879 20.7102 70.1451 19.9034 70.4595 19.233C70.7777 18.5625 71.2133 18.0492 71.7663 17.6932C72.3194 17.3371 72.9463 17.1591 73.647 17.1591C74.1887 17.1591 74.6243 17.25 74.9538 17.4318C75.2872 17.6098 75.5447 17.8182 75.7266 18.0568C75.9122 18.2955 76.0561 18.5057 76.1584 18.6875H76.2607V14.3636H77.9595V26H76.3004V24.642H76.1584C76.0561 24.8277 75.9084 25.0398 75.7152 25.2784C75.5258 25.517 75.2644 25.7254 74.9311 25.9034C74.5978 26.0814 74.166 26.1705 73.6357 26.1705ZM74.0107 24.7216C74.4993 24.7216 74.9122 24.5928 75.2493 24.3352C75.5902 24.0739 75.8478 23.7121 76.022 23.25C76.2 22.7879 76.2891 22.25 76.2891 21.6364C76.2891 21.0303 76.2019 20.5 76.0277 20.0455C75.8535 19.5909 75.5978 19.2367 75.2607 18.983C74.9235 18.7292 74.5069 18.6023 74.0107 18.6023C73.4993 18.6023 73.0732 18.7348 72.7322 19C72.3913 19.2652 72.1338 19.6269 71.9595 20.0852C71.7891 20.5436 71.7038 21.0606 71.7038 21.6364C71.7038 22.2197 71.791 22.7443 71.9652 23.2102C72.1394 23.6761 72.397 24.0455 72.7379 24.3182C73.0826 24.5871 73.5069 24.7216 74.0107 24.7216ZM82.924 26.1932C82.371 26.1932 81.871 26.0909 81.424 25.8864C80.977 25.678 80.6229 25.3769 80.3615 24.983C80.1039 24.589 79.9751 24.1061 79.9751 23.5341C79.9751 23.0417 80.0698 22.6364 80.2592 22.3182C80.4486 22 80.7043 21.7481 81.0263 21.5625C81.3482 21.3769 81.7081 21.2367 82.1058 21.142C82.5036 21.0473 82.9089 20.9754 83.3217 20.9261C83.8445 20.8655 84.2687 20.8163 84.5945 20.7784C84.9202 20.7367 85.157 20.6705 85.3047 20.5795C85.4524 20.4886 85.5263 20.3409 85.5263 20.1364V20.0966C85.5263 19.6004 85.3861 19.2159 85.1058 18.9432C84.8293 18.6705 84.4164 18.5341 83.8672 18.5341C83.2952 18.5341 82.8445 18.661 82.5149 18.9148C82.1892 19.1648 81.9638 19.4432 81.8388 19.75L80.2422 19.3864C80.4316 18.8561 80.7081 18.428 81.0717 18.1023C81.4392 17.7727 81.8615 17.5341 82.3388 17.3864C82.8161 17.2348 83.3179 17.1591 83.8445 17.1591C84.1929 17.1591 84.5623 17.2008 84.9524 17.2841C85.3464 17.3636 85.7138 17.5114 86.0547 17.7273C86.3994 17.9432 86.6816 18.2519 86.9013 18.6534C87.121 19.0511 87.2308 19.5682 87.2308 20.2045V26H85.5717V24.8068H85.5036C85.3937 25.0265 85.2289 25.2424 85.0092 25.4545C84.7895 25.6667 84.5073 25.8428 84.1626 25.983C83.8179 26.1231 83.4051 26.1932 82.924 26.1932ZM83.2933 24.8295C83.763 24.8295 84.1645 24.7367 84.4979 24.5511C84.835 24.3655 85.0907 24.1231 85.2649 23.8239C85.4429 23.5208 85.532 23.197 85.532 22.8523V21.7273C85.4714 21.7879 85.3539 21.8447 85.1797 21.8977C85.0092 21.947 84.8142 21.9905 84.5945 22.0284C84.3748 22.0625 84.1607 22.0947 83.9524 22.125C83.7441 22.1515 83.5698 22.1742 83.4297 22.1932C83.1001 22.2348 82.799 22.3049 82.5263 22.4034C82.2573 22.5019 82.0414 22.6439 81.8786 22.8295C81.7195 23.0114 81.6399 23.2538 81.6399 23.5568C81.6399 23.9773 81.7952 24.2955 82.1058 24.5114C82.4164 24.7235 82.8123 24.8295 83.2933 24.8295ZM93.5675 17.2727V18.6364H88.8004V17.2727H93.5675ZM90.0788 15.1818H91.7777V23.4375C91.7777 23.767 91.8269 24.0152 91.9254 24.1818C92.0239 24.3447 92.1508 24.4564 92.3061 24.517C92.4652 24.5739 92.6375 24.6023 92.8232 24.6023C92.9595 24.6023 93.0788 24.5928 93.1811 24.5739C93.2834 24.5549 93.3629 24.5398 93.4197 24.5284L93.7266 25.9318C93.6281 25.9697 93.4879 26.0076 93.3061 26.0455C93.1243 26.0871 92.897 26.1098 92.6243 26.1136C92.1773 26.1212 91.7607 26.0417 91.3743 25.875C90.9879 25.7083 90.6754 25.4508 90.4368 25.1023C90.1982 24.7538 90.0788 24.3163 90.0788 23.7898V15.1818ZM99.1143 26.1761C98.2545 26.1761 97.514 25.9924 96.8928 25.625C96.2753 25.2538 95.7981 24.733 95.4609 24.0625C95.1276 23.3883 94.9609 22.5985 94.9609 21.6932C94.9609 20.7992 95.1276 20.0114 95.4609 19.3295C95.7981 18.6477 96.2678 18.1155 96.87 17.733C97.4761 17.3504 98.1844 17.1591 98.995 17.1591C99.4875 17.1591 99.9647 17.2405 100.427 17.4034C100.889 17.5663 101.304 17.822 101.671 18.1705C102.039 18.5189 102.328 18.9716 102.54 19.5284C102.753 20.0814 102.859 20.7538 102.859 21.5455V22.1477H95.9212V20.875H101.194C101.194 20.428 101.103 20.0322 100.921 19.6875C100.739 19.339 100.484 19.0644 100.154 18.8636C99.8284 18.6629 99.4458 18.5625 99.0064 18.5625C98.5291 18.5625 98.1125 18.6799 97.7564 18.9148C97.4041 19.1458 97.1314 19.4489 96.9382 19.8239C96.7488 20.1951 96.6541 20.5985 96.6541 21.0341V22.0284C96.6541 22.6117 96.7564 23.108 96.9609 23.517C97.1693 23.9261 97.459 24.2386 97.8303 24.4545C98.2015 24.6667 98.6352 24.7727 99.1314 24.7727C99.4534 24.7727 99.7469 24.7273 100.012 24.6364C100.277 24.5417 100.506 24.4015 100.7 24.2159C100.893 24.0303 101.04 23.8011 101.143 23.5284L102.751 23.8182C102.622 24.2917 102.391 24.7064 102.058 25.0625C101.728 25.4148 101.313 25.6894 100.813 25.8864C100.317 26.0795 99.7507 26.1761 99.1143 26.1761ZM109.114 26V14.3636H113.262C114.167 14.3636 114.917 14.5284 115.512 14.858C116.107 15.1875 116.552 15.6383 116.847 16.2102C117.143 16.7784 117.29 17.4186 117.29 18.1307C117.29 18.8466 117.141 19.4905 116.842 20.0625C116.546 20.6307 116.099 21.0814 115.501 21.4148C114.906 21.7443 114.158 21.9091 113.256 21.9091H110.404V20.4205H113.097C113.669 20.4205 114.133 20.322 114.489 20.125C114.845 19.9242 115.107 19.6515 115.273 19.3068C115.44 18.9621 115.523 18.5701 115.523 18.1307C115.523 17.6913 115.44 17.3011 115.273 16.9602C115.107 16.6193 114.844 16.3523 114.484 16.1591C114.128 15.9659 113.658 15.8693 113.075 15.8693H110.87V26H109.114ZM121.674 26.1932C121.121 26.1932 120.621 26.0909 120.174 25.8864C119.727 25.678 119.373 25.3769 119.112 24.983C118.854 24.589 118.725 24.1061 118.725 23.5341C118.725 23.0417 118.82 22.6364 119.009 22.3182C119.199 22 119.454 21.7481 119.776 21.5625C120.098 21.3769 120.458 21.2367 120.856 21.142C121.254 21.0473 121.659 20.9754 122.072 20.9261C122.594 20.8655 123.019 20.8163 123.344 20.7784C123.67 20.7367 123.907 20.6705 124.055 20.5795C124.202 20.4886 124.276 20.3409 124.276 20.1364V20.0966C124.276 19.6004 124.136 19.2159 123.856 18.9432C123.579 18.6705 123.166 18.5341 122.617 18.5341C122.045 18.5341 121.594 18.661 121.265 18.9148C120.939 19.1648 120.714 19.4432 120.589 19.75L118.992 19.3864C119.182 18.8561 119.458 18.428 119.822 18.1023C120.189 17.7727 120.612 17.5341 121.089 17.3864C121.566 17.2348 122.068 17.1591 122.594 17.1591C122.943 17.1591 123.312 17.2008 123.702 17.2841C124.096 17.3636 124.464 17.5114 124.805 17.7273C125.149 17.9432 125.432 18.2519 125.651 18.6534C125.871 19.0511 125.981 19.5682 125.981 20.2045V26H124.322V24.8068H124.254C124.144 25.0265 123.979 25.2424 123.759 25.4545C123.54 25.6667 123.257 25.8428 122.913 25.983C122.568 26.1231 122.155 26.1932 121.674 26.1932ZM122.043 24.8295C122.513 24.8295 122.915 24.7367 123.248 24.5511C123.585 24.3655 123.841 24.1231 124.015 23.8239C124.193 23.5208 124.282 23.197 124.282 22.8523V21.7273C124.221 21.7879 124.104 21.8447 123.93 21.8977C123.759 21.947 123.564 21.9905 123.344 22.0284C123.125 22.0625 122.911 22.0947 122.702 22.125C122.494 22.1515 122.32 22.1742 122.18 22.1932C121.85 22.2348 121.549 22.3049 121.276 22.4034C121.007 22.5019 120.791 22.6439 120.629 22.8295C120.469 23.0114 120.39 23.2538 120.39 23.5568C120.39 23.9773 120.545 24.2955 120.856 24.5114C121.166 24.7235 121.562 24.8295 122.043 24.8295ZM129.005 29.2727C128.751 29.2727 128.52 29.2519 128.312 29.2102C128.103 29.1723 127.948 29.1307 127.846 29.0852L128.255 27.6932C128.566 27.7765 128.842 27.8125 129.085 27.8011C129.327 27.7898 129.541 27.6989 129.727 27.5284C129.916 27.358 130.083 27.0795 130.227 26.6932L130.437 26.1136L127.244 17.2727H129.062L131.272 24.0455H131.363L133.573 17.2727H135.397L131.8 27.1648C131.634 27.6193 131.422 28.0038 131.164 28.3182C130.906 28.6364 130.6 28.875 130.244 29.0341C129.888 29.1932 129.475 29.2727 129.005 29.2727ZM140.373 26.1761C139.555 26.1761 138.841 25.9886 138.231 25.6136C137.621 25.2386 137.147 24.714 136.81 24.0398C136.473 23.3655 136.305 22.5777 136.305 21.6761C136.305 20.7708 136.473 19.9792 136.81 19.3011C137.147 18.6231 137.621 18.0966 138.231 17.7216C138.841 17.3466 139.555 17.1591 140.373 17.1591C141.191 17.1591 141.905 17.3466 142.515 17.7216C143.125 18.0966 143.598 18.6231 143.935 19.3011C144.272 19.9792 144.441 20.7708 144.441 21.6761C144.441 22.5777 144.272 23.3655 143.935 24.0398C143.598 24.714 143.125 25.2386 142.515 25.6136C141.905 25.9886 141.191 26.1761 140.373 26.1761ZM140.379 24.75C140.909 24.75 141.348 24.6098 141.697 24.3295C142.045 24.0492 142.303 23.6761 142.469 23.2102C142.64 22.7443 142.725 22.2311 142.725 21.6705C142.725 21.1136 142.64 20.6023 142.469 20.1364C142.303 19.6667 142.045 19.2898 141.697 19.0057C141.348 18.7216 140.909 18.5795 140.379 18.5795C139.844 18.5795 139.401 18.7216 139.049 19.0057C138.701 19.2898 138.441 19.6667 138.271 20.1364C138.104 20.6023 138.021 21.1136 138.021 21.6705C138.021 22.2311 138.104 22.7443 138.271 23.2102C138.441 23.6761 138.701 24.0492 139.049 24.3295C139.401 24.6098 139.844 24.75 140.379 24.75ZM151.866 22.3807V17.2727H153.57V26H151.9V24.4886H151.809C151.608 24.9545 151.286 25.3428 150.843 25.6534C150.404 25.9602 149.856 26.1136 149.201 26.1136C148.64 26.1136 148.144 25.9905 147.712 25.7443C147.284 25.4943 146.947 25.125 146.701 24.6364C146.459 24.1477 146.337 23.5436 146.337 22.8239V17.2727H148.036V22.6193C148.036 23.214 148.201 23.6875 148.531 24.0398C148.86 24.392 149.288 24.5682 149.815 24.5682C150.133 24.5682 150.449 24.4886 150.763 24.3295C151.082 24.1705 151.345 23.9299 151.553 23.608C151.765 23.286 151.87 22.8769 151.866 22.3807ZM159.927 17.2727V18.6364H155.16V17.2727H159.927ZM156.438 15.1818H158.137V23.4375C158.137 23.767 158.186 24.0152 158.285 24.1818C158.383 24.3447 158.51 24.4564 158.665 24.517C158.825 24.5739 158.997 24.6023 159.183 24.6023C159.319 24.6023 159.438 24.5928 159.54 24.5739C159.643 24.5549 159.722 24.5398 159.779 24.5284L160.086 25.9318C159.987 25.9697 159.847 26.0076 159.665 26.0455C159.484 26.0871 159.256 26.1098 158.984 26.1136C158.537 26.1212 158.12 26.0417 157.734 25.875C157.347 25.7083 157.035 25.4508 156.796 25.1023C156.558 24.7538 156.438 24.3163 156.438 23.7898V15.1818ZM169.944 26H166.177V14.3636H170.063C171.203 14.3636 172.183 14.5966 173.001 15.0625C173.819 15.5246 174.446 16.1894 174.881 17.0568C175.321 17.9205 175.54 18.9564 175.54 20.1648C175.54 21.3769 175.319 22.4186 174.876 23.2898C174.436 24.161 173.8 24.8314 172.967 25.3011C172.133 25.767 171.126 26 169.944 26ZM167.933 24.4659H169.847C170.734 24.4659 171.47 24.2992 172.058 23.9659C172.645 23.6288 173.084 23.142 173.376 22.5057C173.667 21.8655 173.813 21.0852 173.813 20.1648C173.813 19.2519 173.667 18.4773 173.376 17.8409C173.088 17.2045 172.658 16.7216 172.086 16.392C171.514 16.0625 170.804 15.8977 169.955 15.8977H167.933V24.4659ZM181.349 26.1761C180.489 26.1761 179.748 25.9924 179.127 25.625C178.51 25.2538 178.032 24.733 177.695 24.0625C177.362 23.3883 177.195 22.5985 177.195 21.6932C177.195 20.7992 177.362 20.0114 177.695 19.3295C178.032 18.6477 178.502 18.1155 179.104 17.733C179.71 17.3504 180.419 17.1591 181.229 17.1591C181.722 17.1591 182.199 17.2405 182.661 17.4034C183.123 17.5663 183.538 17.822 183.906 18.1705C184.273 18.5189 184.563 18.9716 184.775 19.5284C184.987 20.0814 185.093 20.7538 185.093 21.5455V22.1477H178.156V20.875H183.428C183.428 20.428 183.337 20.0322 183.156 19.6875C182.974 19.339 182.718 19.0644 182.388 18.8636C182.063 18.6629 181.68 18.5625 181.241 18.5625C180.763 18.5625 180.347 18.6799 179.991 18.9148C179.638 19.1458 179.366 19.4489 179.173 19.8239C178.983 20.1951 178.888 20.5985 178.888 21.0341V22.0284C178.888 22.6117 178.991 23.108 179.195 23.517C179.404 23.9261 179.693 24.2386 180.065 24.4545C180.436 24.6667 180.87 24.7727 181.366 24.7727C181.688 24.7727 181.981 24.7273 182.246 24.6364C182.512 24.5417 182.741 24.4015 182.934 24.2159C183.127 24.0303 183.275 23.8011 183.377 23.5284L184.985 23.8182C184.856 24.2917 184.625 24.7064 184.292 25.0625C183.962 25.4148 183.548 25.6894 183.048 25.8864C182.551 26.0795 181.985 26.1761 181.349 26.1761ZM191.052 17.2727V18.6364H186.285V17.2727H191.052ZM187.563 15.1818H189.262V23.4375C189.262 23.767 189.311 24.0152 189.41 24.1818C189.508 24.3447 189.635 24.4564 189.79 24.517C189.95 24.5739 190.122 24.6023 190.308 24.6023C190.444 24.6023 190.563 24.5928 190.665 24.5739C190.768 24.5549 190.847 24.5398 190.904 24.5284L191.211 25.9318C191.112 25.9697 190.972 26.0076 190.79 26.0455C190.609 26.0871 190.381 26.1098 190.109 26.1136C189.662 26.1212 189.245 26.0417 188.859 25.875C188.472 25.7083 188.16 25.4508 187.921 25.1023C187.683 24.7538 187.563 24.3163 187.563 23.7898V15.1818ZM195.471 26.1932C194.918 26.1932 194.418 26.0909 193.971 25.8864C193.524 25.678 193.17 25.3769 192.908 24.983C192.651 24.589 192.522 24.1061 192.522 23.5341C192.522 23.0417 192.617 22.6364 192.806 22.3182C192.996 22 193.251 21.7481 193.573 21.5625C193.895 21.3769 194.255 21.2367 194.653 21.142C195.05 21.0473 195.456 20.9754 195.869 20.9261C196.391 20.8655 196.816 20.8163 197.141 20.7784C197.467 20.7367 197.704 20.6705 197.852 20.5795C197.999 20.4886 198.073 20.3409 198.073 20.1364V20.0966C198.073 19.6004 197.933 19.2159 197.653 18.9432C197.376 18.6705 196.963 18.5341 196.414 18.5341C195.842 18.5341 195.391 18.661 195.062 18.9148C194.736 19.1648 194.511 19.4432 194.386 19.75L192.789 19.3864C192.978 18.8561 193.255 18.428 193.619 18.1023C193.986 17.7727 194.408 17.5341 194.886 17.3864C195.363 17.2348 195.865 17.1591 196.391 17.1591C196.74 17.1591 197.109 17.2008 197.499 17.2841C197.893 17.3636 198.261 17.5114 198.602 17.7273C198.946 17.9432 199.228 18.2519 199.448 18.6534C199.668 19.0511 199.778 19.5682 199.778 20.2045V26H198.119V24.8068H198.05C197.941 25.0265 197.776 25.2424 197.556 25.4545C197.336 25.6667 197.054 25.8428 196.71 25.983C196.365 26.1231 195.952 26.1932 195.471 26.1932ZM195.84 24.8295C196.31 24.8295 196.711 24.7367 197.045 24.5511C197.382 24.3655 197.638 24.1231 197.812 23.8239C197.99 23.5208 198.079 23.197 198.079 22.8523V21.7273C198.018 21.7879 197.901 21.8447 197.727 21.8977C197.556 21.947 197.361 21.9905 197.141 22.0284C196.922 22.0625 196.708 22.0947 196.499 22.125C196.291 22.1515 196.117 22.1742 195.977 22.1932C195.647 22.2348 195.346 22.3049 195.073 22.4034C194.804 22.5019 194.588 22.6439 194.425 22.8295C194.266 23.0114 194.187 23.2538 194.187 23.5568C194.187 23.9773 194.342 24.2955 194.653 24.5114C194.963 24.7235 195.359 24.8295 195.84 24.8295ZM202.04 26V17.2727H203.739V26H202.04ZM202.898 15.9261C202.603 15.9261 202.349 15.8277 202.137 15.6307C201.929 15.4299 201.825 15.1913 201.825 14.9148C201.825 14.6345 201.929 14.3958 202.137 14.1989C202.349 13.9981 202.603 13.8977 202.898 13.8977C203.194 13.8977 203.446 13.9981 203.654 14.1989C203.866 14.3958 203.972 14.6345 203.972 14.9148C203.972 15.1913 203.866 15.4299 203.654 15.6307C203.446 15.8277 203.194 15.9261 202.898 15.9261ZM207.724 14.3636V26H206.025V14.3636H207.724ZM216.549 19.4034L215.009 19.6761C214.945 19.4792 214.843 19.2917 214.702 19.1136C214.566 18.9356 214.38 18.7898 214.146 18.6761C213.911 18.5625 213.617 18.5057 213.265 18.5057C212.784 18.5057 212.382 18.6136 212.06 18.8295C211.738 19.0417 211.577 19.3163 211.577 19.6534C211.577 19.9451 211.685 20.1799 211.901 20.358C212.117 20.536 212.466 20.6818 212.947 20.7955L214.333 21.1136C215.136 21.2992 215.735 21.5852 216.129 21.9716C216.522 22.358 216.719 22.8598 216.719 23.4773C216.719 24 216.568 24.4659 216.265 24.875C215.966 25.2803 215.547 25.5985 215.009 25.8295C214.475 26.0606 213.856 26.1761 213.151 26.1761C212.174 26.1761 211.377 25.9678 210.759 25.5511C210.142 25.1307 209.763 24.5341 209.623 23.7614L211.265 23.5114C211.367 23.9394 211.577 24.2633 211.896 24.483C212.214 24.6989 212.629 24.8068 213.14 24.8068C213.697 24.8068 214.142 24.6913 214.475 24.4602C214.808 24.2254 214.975 23.9394 214.975 23.6023C214.975 23.3295 214.873 23.1004 214.668 22.9148C214.468 22.7292 214.159 22.589 213.742 22.4943L212.265 22.1705C211.451 21.9848 210.848 21.6894 210.458 21.2841C210.072 20.8788 209.879 20.3655 209.879 19.7443C209.879 19.2292 210.022 18.7784 210.31 18.392C210.598 18.0057 210.996 17.7045 211.504 17.4886C212.011 17.2689 212.593 17.1591 213.248 17.1591C214.191 17.1591 214.933 17.3636 215.475 17.7727C216.017 18.178 216.375 18.7216 216.549 19.4034Z" fill="white"/>
<path d="M31 28V21C31 20.7348 30.8946 20.4804 30.7071 20.2929C30.5196 20.1054 30.2652 20 30 20H22C21.7348 20 21.4804 20.1054 21.2929 20.2929C21.1054 20.4804 21 20.7348 21 21V28M21 10V14C21 14.2652 21.1054 14.5196 21.2929 14.7071C21.4804 14.8946 21.7348 15 22 15H29M29.2 10C29.7275 10.0075 30.2307 10.2232 30.6 10.6L34.4 14.4C34.7768 14.7693 34.9925 15.2725 35 15.8V26C35 26.5304 34.7893 27.0391 34.4142 27.4142C34.0391 27.7893 33.5304 28 33 28H19C18.4696 28 17.9609 27.7893 17.5858 27.4142C17.2107 27.0391 17 26.5304 17 26V12C17 11.4696 17.2107 10.9609 17.5858 10.5858C17.9609 10.2107 18.4696 10 19 10H29.2Z" stroke="white" stroke-width="2" stroke-linecap="round" stroke-linejoin="round"/>
</svg>
