<svg width="240" height="1286" viewBox="0 0 240 1286" fill="none" xmlns="http://www.w3.org/2000/svg">
<path d="M240 1440H0V0H240V1440Z" fill="white"/>
<path d="M240 1440H0V0H240V1440Z" stroke="#E5E7EB"/>
<mask id="path-2-inside-1_7_2" fill="white">
<path d="M0 0H240V77H0V0Z"/>
</mask>
<path d="M0 0H240V77H0V0Z" fill="white"/>
<path d="M240 77V76H0V77V78H240V77Z" fill="black" mask="url(#path-2-inside-1_7_2)"/>
<g clip-path="url(#clip0_7_2)">
<path d="M71.1843 52.574C71.7244 53.0892 71.7571 52.4636 71.8662 52.1278C74.4575 44.156 75.6358 35.7012 78.2162 27.711C80.6602 27.0394 83.1969 27.2418 85.63 27.8766L76.5196 58.4758L75.734 58.9864C72.3736 59.0048 66.6182 60.3158 64.8725 56.9164L56.0076 28.148C58.8171 27.2832 62.7285 26.2298 64.5779 29.0818C66.0236 31.3128 68.2766 40.5082 69.1276 43.5856C69.4931 44.9196 70.8297 52.2382 71.1788 52.5694L71.1843 52.574Z" fill="black"/>
<path d="M134.799 35.5586C145.131 34.2154 149.807 40.729 149.048 49.3816C148.399 56.783 141.836 61.1944 133.801 59.2026C122.519 56.4058 123.103 37.0766 134.799 35.5586ZM135.323 41.373C133.146 43.1946 132.191 55.771 138.689 54.0368C141.613 53.2548 141.16 45.2416 140.451 43.1072C139.741 40.9728 137.357 39.6756 135.323 41.3776V41.373Z" fill="black"/>
<path d="M106.568 49.8278H93.4257C93.2893 50.9916 93.9057 52.7718 94.9859 53.4526C98.1445 55.4444 103.933 52.459 104.822 52.9328C105.275 53.1766 106.688 56.3782 106.589 56.9532C99.3338 61.2036 87.9813 61.1024 85.821 51.976C84.2171 45.2094 86.0664 36.0416 95.2587 35.462C105.133 34.8364 108.935 41.8744 106.562 49.8232L106.568 49.8278ZM99.8302 44.9426C100.665 38.958 92.7438 38.8844 93.4257 44.9426H99.8302Z" fill="black"/>
<path d="M123.376 53.839C123.757 54.1196 123.932 58.4896 123.741 58.6644C118.313 59.1014 112.569 60.4722 111.952 53.9586C111.112 45.0806 112.618 35.1446 111.952 26.1516C111.767 24.7072 114.281 24.997 115.503 25.1028C118.946 25.3972 119.48 26.5794 119.731 29.5142C120.359 36.7776 119.219 44.754 119.742 52.0956C120.13 54.3588 122.705 53.3376 123.381 53.839H123.376Z" fill="black"/>
<path d="M49.9467 8H48.9375V77H49.9467V8Z" fill="black"/>
<path d="M157.7 30.8942H159.195V57.8916H173.674V59.0876H157.7V30.8942Z" fill="black"/>
<path d="M178.158 32.0074C178.158 31.069 178.905 30.5538 179.745 30.5538C180.586 30.5538 181.333 31.0644 181.333 32.0074C181.333 32.863 180.586 33.461 179.745 33.461C178.905 33.461 178.158 32.863 178.158 32.0074ZM178.998 38.6682H180.4V59.0876H178.998V38.6682Z" fill="black"/>
<path d="M189.369 38.6682H190.585L190.771 41.9158H190.863C193.198 39.7814 195.533 38.1576 198.615 38.1576C203.192 38.1576 205.342 40.637 205.342 45.9316V59.0876H203.94V46.1018C203.94 41.5754 202.352 39.3536 198.523 39.3536C195.719 39.3536 193.667 40.7198 190.771 43.4568V59.0922H189.369V38.6728V38.6682Z" fill="black"/>
<path d="M213.934 28.2492H215.336V51.6586H215.429L227.01 38.6728H228.691L221.501 46.7044L230 59.0922H228.412L220.66 47.7302L215.336 53.4526V59.0922H213.934V28.2492Z" fill="black"/>
<path d="M36.9139 39.7124C37.0885 39.7124 37.2685 39.7078 37.4377 39.7124C37.5959 39.7216 37.7322 39.7216 37.8686 39.7308C38.005 39.7354 38.1414 39.763 38.3051 39.763C38.7797 39.7722 38.8179 39.7354 38.9706 39.7722C39.0688 39.7952 39.167 39.7308 39.1615 39.6434C39.0579 35.301 40.3126 31.4646 34.7809 27.7662C30.5421 24.9326 24.0285 25.5168 20.4443 28.93C16.8602 32.3432 17.5312 33.7784 17.5257 37.4032C17.5257 37.6746 17.8039 37.8862 18.1203 37.8632C18.9332 37.7942 20.3461 37.7252 21.1099 37.6976C21.3935 37.6884 21.6172 37.4952 21.6336 37.2606C21.7699 34.4178 20.6789 33.116 23.8157 30.8252C25.8505 29.3394 29.3856 28.9898 31.7259 30.103C36.5484 32.3984 34.9446 36.1934 35.2173 39.717C35.4137 39.717 35.6101 39.717 35.8065 39.717C36.0029 39.717 36.1993 39.717 36.3957 39.717C36.5703 39.717 36.7448 39.717 36.9194 39.717L36.9139 39.7124Z" fill="black"/>
<path d="M39.3305 40.2736C38.965 40.154 38.7958 40.1126 38.4031 40.0666C38.2449 40.0482 38.103 40.039 37.9666 40.0344C37.8302 40.0298 37.6939 40.0252 37.5357 40.016C37.3611 40.0068 37.1865 40.0114 37.0119 40.016C36.8374 40.0206 36.6573 40.0252 36.4882 40.016C36.2918 40.016 36.0955 40.016 35.8991 40.016C35.7027 40.016 35.5063 40.016 35.3099 40.016C30.7874 39.9562 26.2213 39.9608 21.6988 40.016C21.3279 40.0206 20.9569 40.0068 20.5859 40.016C20.2804 40.0206 19.964 40.0022 19.6585 40.016C19.3421 40.0298 18.9712 39.9884 18.6711 40.016C18.3438 40.0482 17.9292 40.1724 17.6182 40.2736C16.2599 40.729 15.3543 41.833 15.207 43.0382C14.5796 48.2132 15.6816 54.2714 15.207 59.5338C15.4088 61.084 16.7836 62.2432 18.6439 62.4042C24.8029 62.9378 32.0531 62.004 38.3212 62.4042C40.0724 62.234 41.4635 61.1944 41.7581 59.7408V42.8312C41.5071 41.6812 40.6616 40.706 39.3468 40.2736H39.3305Z" fill="black"/>
<path d="M29.7238 52.298C30.6239 52.9282 29.7075 53.7976 28.5018 53.7976C27.2962 53.7976 25.2559 51.8702 24.083 53.0432C23.1992 53.9264 24.6176 54.759 25.7469 55.1592C26.0578 55.2696 26.8489 55.3386 26.9743 55.4674C27.3671 55.863 26.6634 56.6404 28.5018 56.5898C30.002 56.5438 29.5438 55.6376 29.942 55.4168C30.3075 55.2144 31.295 55.1224 31.9059 54.7038C33.4716 53.6274 33.2371 51.723 31.2513 50.918C30.0784 50.4396 26.2106 50.3108 27.0725 49.2436C28.0818 47.9924 30.1712 49.6024 31.0549 49.6208C32.0805 49.6438 32.5442 48.9906 32.2496 48.388C31.8514 47.5784 30.1821 47.5232 29.7675 47.238C29.3747 46.9666 29.522 46.2122 28.169 46.295C26.8761 46.3778 27.2089 47.008 26.7016 47.3392C26.2979 47.606 25.3759 47.7118 24.7922 48.1994C23.6466 49.1562 23.9139 50.7708 25.6323 51.3596C26.647 51.7092 29.1019 51.8656 29.7184 52.298H29.7238Z" fill="black"/>
</g>
<path d="M240 1440H0V77H240V1440Z" stroke="#E5E7EB"/>
<path d="M224 501H16V93H224V501Z" stroke="#E5E7EB"/>
<path d="M224 156H16V108H224V156Z" fill="#F4EEFF"/>
<path d="M224 156H16V108H224V156Z" stroke="#E5E7EB"/>
<path d="M216 108C220.418 108 224 111.582 224 116V148C224 152.418 220.418 156 216 156H24C19.5817 156 16 152.418 16 148V116C16 111.582 19.5817 108 24 108H216Z" fill="#F4EEFF"/>
<path d="M216 108C220.418 108 224 111.582 224 116V148C224 152.418 220.418 156 216 156H24C19.5817 156 16 152.418 16 148V116C16 111.582 19.5817 108 24 108H216Z" stroke="black"/>
<path d="M65.0455 134H61.2784V122.364H65.1648C66.3049 122.364 67.2841 122.597 68.1023 123.062C68.9205 123.525 69.5473 124.189 69.983 125.057C70.4223 125.92 70.642 126.956 70.642 128.165C70.642 129.377 70.4205 130.419 69.9773 131.29C69.5379 132.161 68.9015 132.831 68.0682 133.301C67.2348 133.767 66.2273 134 65.0455 134ZM63.0341 132.466H64.9489C65.8352 132.466 66.572 132.299 67.1591 131.966C67.7462 131.629 68.1856 131.142 68.4773 130.506C68.7689 129.866 68.9148 129.085 68.9148 128.165C68.9148 127.252 68.7689 126.477 68.4773 125.841C68.1894 125.205 67.7595 124.722 67.1875 124.392C66.6155 124.062 65.9053 123.898 65.0568 123.898H63.0341V132.466ZM75.2287 134.193C74.6757 134.193 74.1757 134.091 73.7287 133.886C73.2817 133.678 72.9276 133.377 72.6662 132.983C72.4086 132.589 72.2798 132.106 72.2798 131.534C72.2798 131.042 72.3745 130.636 72.5639 130.318C72.7533 130 73.009 129.748 73.331 129.562C73.6529 129.377 74.0128 129.237 74.4105 129.142C74.8082 129.047 75.2135 128.975 75.6264 128.926C76.1491 128.866 76.5734 128.816 76.8991 128.778C77.2249 128.737 77.4616 128.67 77.6094 128.58C77.7571 128.489 77.831 128.341 77.831 128.136V128.097C77.831 127.6 77.6908 127.216 77.4105 126.943C77.134 126.67 76.7211 126.534 76.1719 126.534C75.5999 126.534 75.1491 126.661 74.8196 126.915C74.4938 127.165 74.2685 127.443 74.1435 127.75L72.5469 127.386C72.7363 126.856 73.0128 126.428 73.3764 126.102C73.7438 125.773 74.1662 125.534 74.6435 125.386C75.1207 125.235 75.6226 125.159 76.1491 125.159C76.4976 125.159 76.867 125.201 77.2571 125.284C77.651 125.364 78.0185 125.511 78.3594 125.727C78.7041 125.943 78.9863 126.252 79.206 126.653C79.4257 127.051 79.5355 127.568 79.5355 128.205V134H77.8764V132.807H77.8082C77.6984 133.027 77.5336 133.242 77.3139 133.455C77.0942 133.667 76.812 133.843 76.4673 133.983C76.1226 134.123 75.7098 134.193 75.2287 134.193ZM75.598 132.83C76.0677 132.83 76.4692 132.737 76.8026 132.551C77.1397 132.366 77.3954 132.123 77.5696 131.824C77.7476 131.521 77.8366 131.197 77.8366 130.852V129.727C77.776 129.788 77.6586 129.845 77.4844 129.898C77.3139 129.947 77.1188 129.991 76.8991 130.028C76.6795 130.062 76.4654 130.095 76.2571 130.125C76.0488 130.152 75.8745 130.174 75.7344 130.193C75.4048 130.235 75.1037 130.305 74.831 130.403C74.562 130.502 74.3461 130.644 74.1832 130.83C74.0241 131.011 73.9446 131.254 73.9446 131.557C73.9446 131.977 74.0999 132.295 74.4105 132.511C74.7211 132.723 75.117 132.83 75.598 132.83ZM88.3381 127.403L86.7983 127.676C86.7339 127.479 86.6316 127.292 86.4915 127.114C86.3551 126.936 86.1695 126.79 85.9347 126.676C85.6998 126.562 85.4063 126.506 85.054 126.506C84.5729 126.506 84.1714 126.614 83.8494 126.83C83.5275 127.042 83.3665 127.316 83.3665 127.653C83.3665 127.945 83.4744 128.18 83.6903 128.358C83.9063 128.536 84.2547 128.682 84.7358 128.795L86.1222 129.114C86.9252 129.299 87.5237 129.585 87.9176 129.972C88.3116 130.358 88.5085 130.86 88.5085 131.477C88.5085 132 88.357 132.466 88.054 132.875C87.7547 133.28 87.3362 133.598 86.7983 133.83C86.2642 134.061 85.6449 134.176 84.9403 134.176C83.9631 134.176 83.1657 133.968 82.5483 133.551C81.9309 133.131 81.5521 132.534 81.4119 131.761L83.054 131.511C83.1563 131.939 83.3665 132.263 83.6847 132.483C84.0028 132.699 84.4176 132.807 84.929 132.807C85.4858 132.807 85.9309 132.691 86.2642 132.46C86.5975 132.225 86.7642 131.939 86.7642 131.602C86.7642 131.33 86.6619 131.1 86.4574 130.915C86.2566 130.729 85.9479 130.589 85.5312 130.494L84.054 130.17C83.2396 129.985 82.6373 129.689 82.2472 129.284C81.8608 128.879 81.6676 128.366 81.6676 127.744C81.6676 127.229 81.8116 126.778 82.0994 126.392C82.3873 126.006 82.785 125.705 83.2926 125.489C83.8002 125.269 84.3816 125.159 85.0369 125.159C85.9801 125.159 86.7225 125.364 87.2642 125.773C87.8059 126.178 88.1638 126.722 88.3381 127.403ZM92.0753 128.818V134H90.3764V122.364H92.0526V126.693H92.1605C92.3651 126.223 92.6776 125.85 93.098 125.574C93.5185 125.297 94.0677 125.159 94.7457 125.159C95.3442 125.159 95.867 125.282 96.3139 125.528C96.7647 125.775 97.1132 126.142 97.3594 126.631C97.6094 127.116 97.7344 127.722 97.7344 128.449V134H96.0355V128.653C96.0355 128.013 95.8707 127.517 95.5412 127.165C95.2116 126.809 94.7533 126.631 94.1662 126.631C93.7647 126.631 93.4048 126.716 93.0866 126.886C92.7723 127.057 92.5241 127.307 92.3423 127.636C92.1643 127.962 92.0753 128.356 92.0753 128.818ZM100.138 134V122.364H101.837V126.688H101.939C102.037 126.506 102.179 126.295 102.365 126.057C102.551 125.818 102.808 125.61 103.138 125.432C103.467 125.25 103.903 125.159 104.445 125.159C105.149 125.159 105.778 125.337 106.331 125.693C106.884 126.049 107.318 126.562 107.632 127.233C107.95 127.903 108.109 128.71 108.109 129.653C108.109 130.597 107.952 131.405 107.638 132.08C107.323 132.75 106.892 133.267 106.342 133.631C105.793 133.991 105.166 134.17 104.462 134.17C103.931 134.17 103.498 134.081 103.161 133.903C102.827 133.725 102.566 133.517 102.376 133.278C102.187 133.04 102.041 132.828 101.939 132.642H101.797V134H100.138ZM101.803 129.636C101.803 130.25 101.892 130.788 102.07 131.25C102.248 131.712 102.505 132.074 102.842 132.335C103.179 132.593 103.592 132.722 104.081 132.722C104.589 132.722 105.013 132.587 105.354 132.318C105.695 132.045 105.952 131.676 106.126 131.21C106.304 130.744 106.393 130.22 106.393 129.636C106.393 129.061 106.306 128.544 106.132 128.085C105.962 127.627 105.704 127.265 105.359 127C105.018 126.735 104.592 126.602 104.081 126.602C103.589 126.602 103.172 126.729 102.831 126.983C102.494 127.237 102.238 127.591 102.064 128.045C101.89 128.5 101.803 129.03 101.803 129.636ZM113.693 134.176C112.875 134.176 112.161 133.989 111.551 133.614C110.941 133.239 110.468 132.714 110.131 132.04C109.794 131.366 109.625 130.578 109.625 129.676C109.625 128.771 109.794 127.979 110.131 127.301C110.468 126.623 110.941 126.097 111.551 125.722C112.161 125.347 112.875 125.159 113.693 125.159C114.511 125.159 115.225 125.347 115.835 125.722C116.445 126.097 116.919 126.623 117.256 127.301C117.593 127.979 117.761 128.771 117.761 129.676C117.761 130.578 117.593 131.366 117.256 132.04C116.919 132.714 116.445 133.239 115.835 133.614C115.225 133.989 114.511 134.176 113.693 134.176ZM113.699 132.75C114.229 132.75 114.669 132.61 115.017 132.33C115.366 132.049 115.623 131.676 115.79 131.21C115.96 130.744 116.045 130.231 116.045 129.67C116.045 129.114 115.96 128.602 115.79 128.136C115.623 127.667 115.366 127.29 115.017 127.006C114.669 126.722 114.229 126.58 113.699 126.58C113.165 126.58 112.722 126.722 112.369 127.006C112.021 127.29 111.761 127.667 111.591 128.136C111.424 128.602 111.341 129.114 111.341 129.67C111.341 130.231 111.424 130.744 111.591 131.21C111.761 131.676 112.021 132.049 112.369 132.33C112.722 132.61 113.165 132.75 113.699 132.75ZM122.197 134.193C121.644 134.193 121.144 134.091 120.697 133.886C120.25 133.678 119.896 133.377 119.635 132.983C119.377 132.589 119.249 132.106 119.249 131.534C119.249 131.042 119.343 130.636 119.533 130.318C119.722 130 119.978 129.748 120.3 129.562C120.622 129.377 120.982 129.237 121.379 129.142C121.777 129.047 122.182 128.975 122.595 128.926C123.118 128.866 123.542 128.816 123.868 128.778C124.194 128.737 124.43 128.67 124.578 128.58C124.726 128.489 124.8 128.341 124.8 128.136V128.097C124.8 127.6 124.66 127.216 124.379 126.943C124.103 126.67 123.69 126.534 123.141 126.534C122.569 126.534 122.118 126.661 121.788 126.915C121.463 127.165 121.237 127.443 121.112 127.75L119.516 127.386C119.705 126.856 119.982 126.428 120.345 126.102C120.713 125.773 121.135 125.534 121.612 125.386C122.089 125.235 122.591 125.159 123.118 125.159C123.466 125.159 123.836 125.201 124.226 125.284C124.62 125.364 124.987 125.511 125.328 125.727C125.673 125.943 125.955 126.252 126.175 126.653C126.394 127.051 126.504 127.568 126.504 128.205V134H124.845V132.807H124.777C124.667 133.027 124.502 133.242 124.283 133.455C124.063 133.667 123.781 133.843 123.436 133.983C123.091 134.123 122.679 134.193 122.197 134.193ZM122.567 132.83C123.036 132.83 123.438 132.737 123.771 132.551C124.108 132.366 124.364 132.123 124.538 131.824C124.716 131.521 124.805 131.197 124.805 130.852V129.727C124.745 129.788 124.627 129.845 124.453 129.898C124.283 129.947 124.088 129.991 123.868 130.028C123.648 130.062 123.434 130.095 123.226 130.125C123.018 130.152 122.843 130.174 122.703 130.193C122.374 130.235 122.072 130.305 121.8 130.403C121.531 130.502 121.315 130.644 121.152 130.83C120.993 131.011 120.913 131.254 120.913 131.557C120.913 131.977 121.069 132.295 121.379 132.511C121.69 132.723 122.086 132.83 122.567 132.83ZM128.767 134V125.273H130.409V126.659H130.5C130.659 126.189 130.939 125.82 131.341 125.551C131.746 125.278 132.205 125.142 132.716 125.142C132.822 125.142 132.947 125.146 133.091 125.153C133.239 125.161 133.354 125.17 133.438 125.182V126.807C133.369 126.788 133.248 126.767 133.074 126.744C132.9 126.718 132.725 126.705 132.551 126.705C132.15 126.705 131.792 126.79 131.477 126.96C131.167 127.127 130.92 127.36 130.739 127.659C130.557 127.955 130.466 128.292 130.466 128.67V134H128.767ZM137.862 134.17C137.158 134.17 136.529 133.991 135.976 133.631C135.427 133.267 134.995 132.75 134.68 132.08C134.37 131.405 134.214 130.597 134.214 129.653C134.214 128.71 134.372 127.903 134.686 127.233C135.004 126.562 135.44 126.049 135.993 125.693C136.546 125.337 137.173 125.159 137.874 125.159C138.415 125.159 138.851 125.25 139.18 125.432C139.514 125.61 139.771 125.818 139.953 126.057C140.139 126.295 140.283 126.506 140.385 126.688H140.487V122.364H142.186V134H140.527V132.642H140.385C140.283 132.828 140.135 133.04 139.942 133.278C139.752 133.517 139.491 133.725 139.158 133.903C138.824 134.081 138.393 134.17 137.862 134.17ZM138.237 132.722C138.726 132.722 139.139 132.593 139.476 132.335C139.817 132.074 140.074 131.712 140.249 131.25C140.427 130.788 140.516 130.25 140.516 129.636C140.516 129.03 140.429 128.5 140.254 128.045C140.08 127.591 139.824 127.237 139.487 126.983C139.15 126.729 138.733 126.602 138.237 126.602C137.726 126.602 137.3 126.735 136.959 127C136.618 127.265 136.36 127.627 136.186 128.085C136.016 128.544 135.93 129.061 135.93 129.636C135.93 130.22 136.018 130.744 136.192 131.21C136.366 131.676 136.624 132.045 136.964 132.318C137.309 132.587 137.733 132.722 138.237 132.722Z" fill="black"/>
<path d="M34 122H29C28.4477 122 28 122.448 28 123V130C28 130.552 28.4477 131 29 131H34C34.5523 131 35 130.552 35 130V123C35 122.448 34.5523 122 34 122Z" stroke="black" stroke-width="2" stroke-linecap="round" stroke-linejoin="round"/>
<path d="M45 122H40C39.4477 122 39 122.448 39 123V126C39 126.552 39.4477 127 40 127H45C45.5523 127 46 126.552 46 126V123C46 122.448 45.5523 122 45 122Z" stroke="black" stroke-width="2" stroke-linecap="round" stroke-linejoin="round"/>
<path d="M45 131H40C39.4477 131 39 131.448 39 132V139C39 139.552 39.4477 140 40 140H45C45.5523 140 46 139.552 46 139V132C46 131.448 45.5523 131 45 131Z" stroke="black" stroke-width="2" stroke-linecap="round" stroke-linejoin="round"/>
<path d="M34 135H29C28.4477 135 28 135.448 28 136V139C28 139.552 28.4477 140 29 140H34C34.5523 140 35 139.552 35 139V136C35 135.448 34.5523 135 34 135Z" stroke="black" stroke-width="2" stroke-linecap="round" stroke-linejoin="round"/>
<path d="M224 267H16V195H224V267Z" stroke="#E5E7EB"/>
<path d="M216 195C220.418 195 224 198.582 224 203V259C224 263.418 220.418 267 216 267H24C19.5817 267 16 263.418 16 259V203C16 198.582 19.5817 195 24 195H216Z" stroke="#E5E7EB"/>
<path d="M65.8864 221H64.4091L68.6818 209.364H70.1364L74.4091 221H72.9318L69.4545 211.205H69.3636L65.8864 221ZM66.4318 216.455H72.3864V217.705H66.4318V216.455ZM79.3352 221.182C78.608 221.182 77.9659 220.998 77.4091 220.631C76.8523 220.259 76.4167 219.737 76.1023 219.062C75.7879 218.384 75.6307 217.583 75.6307 216.659C75.6307 215.742 75.7879 214.947 76.1023 214.273C76.4167 213.598 76.8542 213.078 77.4148 212.71C77.9754 212.343 78.6231 212.159 79.358 212.159C79.9261 212.159 80.375 212.254 80.7045 212.443C81.0379 212.629 81.2917 212.841 81.4659 213.08C81.6439 213.314 81.7822 213.508 81.8807 213.659H81.9943V209.364H83.3352V221H82.0398V219.659H81.8807C81.7822 219.818 81.642 220.019 81.4602 220.261C81.2784 220.5 81.0189 220.714 80.6818 220.903C80.3447 221.089 79.8958 221.182 79.3352 221.182ZM79.517 219.977C80.0549 219.977 80.5095 219.837 80.8807 219.557C81.2519 219.273 81.5341 218.881 81.7273 218.381C81.9205 217.877 82.017 217.295 82.017 216.636C82.017 215.985 81.9223 215.415 81.733 214.926C81.5436 214.434 81.2633 214.051 80.892 213.778C80.5208 213.502 80.0625 213.364 79.517 213.364C78.9489 213.364 78.4754 213.509 78.0966 213.801C77.7216 214.089 77.4394 214.481 77.25 214.977C77.0644 215.47 76.9716 216.023 76.9716 216.636C76.9716 217.258 77.0663 217.822 77.2557 218.33C77.4489 218.833 77.733 219.235 78.108 219.534C78.4867 219.83 78.9564 219.977 79.517 219.977ZM85.9773 221V212.273H87.2727V213.636H87.3864C87.5682 213.17 87.8617 212.809 88.267 212.551C88.6723 212.29 89.1591 212.159 89.7273 212.159C90.303 212.159 90.7822 212.29 91.1648 212.551C91.5511 212.809 91.8523 213.17 92.0682 213.636H92.1591C92.3826 213.186 92.7178 212.828 93.1648 212.562C93.6117 212.294 94.1477 212.159 94.7727 212.159C95.553 212.159 96.1913 212.403 96.6875 212.892C97.1837 213.377 97.4318 214.133 97.4318 215.159V221H96.0909V215.159C96.0909 214.515 95.9148 214.055 95.5625 213.778C95.2102 213.502 94.7955 213.364 94.3182 213.364C93.7045 213.364 93.2292 213.549 92.892 213.92C92.5549 214.288 92.3864 214.754 92.3864 215.318V221H91.0227V215.023C91.0227 214.527 90.8617 214.127 90.5398 213.824C90.2178 213.517 89.803 213.364 89.2955 213.364C88.947 213.364 88.6212 213.456 88.3182 213.642C88.0189 213.828 87.7765 214.085 87.5909 214.415C87.4091 214.741 87.3182 215.117 87.3182 215.545V221H85.9773ZM99.8835 221V212.273H101.224V221H99.8835ZM100.565 210.818C100.304 210.818 100.079 210.729 99.8892 210.551C99.7036 210.373 99.6108 210.159 99.6108 209.909C99.6108 209.659 99.7036 209.445 99.8892 209.267C100.079 209.089 100.304 209 100.565 209C100.827 209 101.05 209.089 101.236 209.267C101.425 209.445 101.52 209.659 101.52 209.909C101.52 210.159 101.425 210.373 101.236 210.551C101.05 210.729 100.827 210.818 100.565 210.818ZM105.021 215.75V221H103.68V212.273H104.976V213.636H105.089C105.294 213.193 105.605 212.837 106.021 212.568C106.438 212.295 106.976 212.159 107.635 212.159C108.226 212.159 108.743 212.28 109.186 212.523C109.629 212.761 109.974 213.125 110.22 213.614C110.466 214.098 110.589 214.712 110.589 215.455V221H109.249V215.545C109.249 214.86 109.071 214.326 108.714 213.943C108.358 213.557 107.87 213.364 107.249 213.364C106.821 213.364 106.438 213.456 106.101 213.642C105.768 213.828 105.504 214.098 105.311 214.455C105.118 214.811 105.021 215.242 105.021 215.75Z" fill="#6B6B6B"/>
<path d="M65.4091 233.364H67.0909L71.0455 243.023H71.1818L75.1364 233.364H76.8182V245H75.5V236.159H75.3864L71.75 245H70.4773L66.8409 236.159H66.7273V245H65.4091V233.364ZM82.0298 245.205C81.4768 245.205 80.9749 245.1 80.5241 244.892C80.0734 244.68 79.7154 244.375 79.4503 243.977C79.1851 243.576 79.0526 243.091 79.0526 242.523C79.0526 242.023 79.151 241.617 79.348 241.307C79.545 240.992 79.8082 240.746 80.1378 240.568C80.4673 240.39 80.831 240.258 81.2287 240.17C81.6302 240.08 82.0336 240.008 82.4389 239.955C82.9692 239.886 83.3991 239.835 83.7287 239.801C84.062 239.763 84.3045 239.701 84.456 239.614C84.6113 239.527 84.6889 239.375 84.6889 239.159V239.114C84.6889 238.553 84.5355 238.117 84.2287 237.807C83.9257 237.496 83.4654 237.341 82.848 237.341C82.2079 237.341 81.706 237.481 81.3423 237.761C80.9787 238.042 80.723 238.341 80.5753 238.659L79.3026 238.205C79.5298 237.674 79.8329 237.261 80.2116 236.966C80.5942 236.667 81.0109 236.458 81.4616 236.341C81.9162 236.22 82.3632 236.159 82.8026 236.159C83.0829 236.159 83.4048 236.193 83.7685 236.261C84.1359 236.326 84.4901 236.46 84.831 236.665C85.1757 236.869 85.4616 237.178 85.6889 237.591C85.9162 238.004 86.0298 238.557 86.0298 239.25V245H84.6889V243.818H84.6207C84.5298 244.008 84.3783 244.21 84.1662 244.426C83.9541 244.642 83.6719 244.826 83.3196 244.977C82.9673 245.129 82.5374 245.205 82.0298 245.205ZM82.2344 244C82.7647 244 83.2116 243.896 83.5753 243.688C83.9427 243.479 84.2192 243.21 84.4048 242.881C84.5942 242.551 84.6889 242.205 84.6889 241.841V240.614C84.6321 240.682 84.5071 240.744 84.3139 240.801C84.1245 240.854 83.9048 240.902 83.6548 240.943C83.4086 240.981 83.1681 241.015 82.9332 241.045C82.7022 241.072 82.5147 241.095 82.3707 241.114C82.0223 241.159 81.6965 241.233 81.3935 241.335C81.0942 241.434 80.8518 241.583 80.6662 241.784C80.4844 241.981 80.3935 242.25 80.3935 242.591C80.3935 243.057 80.5658 243.409 80.9105 243.648C81.259 243.883 81.7003 244 82.2344 244ZM89.8182 239.75V245H88.4773V236.273H89.7727V237.636H89.8864C90.0909 237.193 90.4015 236.837 90.8182 236.568C91.2348 236.295 91.7727 236.159 92.4318 236.159C93.0227 236.159 93.5398 236.28 93.983 236.523C94.4261 236.761 94.7708 237.125 95.017 237.614C95.2633 238.098 95.3864 238.712 95.3864 239.455V245H94.0455V239.545C94.0455 238.86 93.8674 238.326 93.5114 237.943C93.1553 237.557 92.6667 237.364 92.0455 237.364C91.6174 237.364 91.2348 237.456 90.8977 237.642C90.5644 237.828 90.3011 238.098 90.108 238.455C89.9148 238.811 89.8182 239.242 89.8182 239.75ZM100.405 245.205C99.8518 245.205 99.3499 245.1 98.8991 244.892C98.4484 244.68 98.0904 244.375 97.8253 243.977C97.5601 243.576 97.4276 243.091 97.4276 242.523C97.4276 242.023 97.526 241.617 97.723 241.307C97.92 240.992 98.1832 240.746 98.5128 240.568C98.8423 240.39 99.206 240.258 99.6037 240.17C100.005 240.08 100.409 240.008 100.814 239.955C101.344 239.886 101.774 239.835 102.104 239.801C102.437 239.763 102.679 239.701 102.831 239.614C102.986 239.527 103.064 239.375 103.064 239.159V239.114C103.064 238.553 102.911 238.117 102.604 237.807C102.301 237.496 101.84 237.341 101.223 237.341C100.583 237.341 100.081 237.481 99.7173 237.761C99.3537 238.042 99.098 238.341 98.9503 238.659L97.6776 238.205C97.9048 237.674 98.2079 237.261 98.5866 236.966C98.9692 236.667 99.3859 236.458 99.8366 236.341C100.291 236.22 100.738 236.159 101.178 236.159C101.458 236.159 101.78 236.193 102.143 236.261C102.511 236.326 102.865 236.46 103.206 236.665C103.551 236.869 103.837 237.178 104.064 237.591C104.291 238.004 104.405 238.557 104.405 239.25V245H103.064V243.818H102.996C102.905 244.008 102.753 244.21 102.541 244.426C102.329 244.642 102.047 244.826 101.695 244.977C101.342 245.129 100.912 245.205 100.405 245.205ZM100.609 244C101.14 244 101.587 243.896 101.95 243.688C102.318 243.479 102.594 243.21 102.78 242.881C102.969 242.551 103.064 242.205 103.064 241.841V240.614C103.007 240.682 102.882 240.744 102.689 240.801C102.5 240.854 102.28 240.902 102.03 240.943C101.784 240.981 101.543 241.015 101.308 241.045C101.077 241.072 100.89 241.095 100.746 241.114C100.397 241.159 100.071 241.233 99.7685 241.335C99.4692 241.434 99.2268 241.583 99.0412 241.784C98.8594 241.981 98.7685 242.25 98.7685 242.591C98.7685 243.057 98.9408 243.409 99.2855 243.648C99.634 243.883 100.075 244 100.609 244ZM110.375 248.455C109.727 248.455 109.17 248.371 108.705 248.205C108.239 248.042 107.85 247.826 107.54 247.557C107.233 247.292 106.989 247.008 106.807 246.705L107.875 245.955C107.996 246.114 108.15 246.295 108.335 246.5C108.521 246.708 108.775 246.888 109.097 247.04C109.422 247.195 109.848 247.273 110.375 247.273C111.08 247.273 111.661 247.102 112.119 246.761C112.578 246.42 112.807 245.886 112.807 245.159V243.386H112.693C112.595 243.545 112.455 243.742 112.273 243.977C112.095 244.208 111.837 244.415 111.5 244.597C111.167 244.775 110.716 244.864 110.148 244.864C109.443 244.864 108.811 244.697 108.25 244.364C107.693 244.03 107.252 243.545 106.926 242.909C106.604 242.273 106.443 241.5 106.443 240.591C106.443 239.697 106.6 238.919 106.915 238.256C107.229 237.589 107.667 237.074 108.227 236.71C108.788 236.343 109.436 236.159 110.17 236.159C110.739 236.159 111.189 236.254 111.523 236.443C111.86 236.629 112.117 236.841 112.295 237.08C112.477 237.314 112.617 237.508 112.716 237.659H112.852V236.273H114.148V245.25C114.148 246 113.977 246.61 113.636 247.08C113.299 247.553 112.845 247.9 112.273 248.119C111.705 248.343 111.072 248.455 110.375 248.455ZM110.33 243.659C110.867 243.659 111.322 243.536 111.693 243.29C112.064 243.044 112.347 242.689 112.54 242.227C112.733 241.765 112.83 241.212 112.83 240.568C112.83 239.939 112.735 239.384 112.545 238.903C112.356 238.422 112.076 238.045 111.705 237.773C111.333 237.5 110.875 237.364 110.33 237.364C109.761 237.364 109.288 237.508 108.909 237.795C108.534 238.083 108.252 238.47 108.062 238.955C107.877 239.439 107.784 239.977 107.784 240.568C107.784 241.174 107.879 241.71 108.068 242.176C108.261 242.638 108.545 243.002 108.92 243.267C109.299 243.528 109.769 243.659 110.33 243.659ZM120.261 245.182C119.42 245.182 118.695 244.996 118.085 244.625C117.479 244.25 117.011 243.727 116.682 243.057C116.356 242.383 116.193 241.598 116.193 240.705C116.193 239.811 116.356 239.023 116.682 238.341C117.011 237.655 117.47 237.121 118.057 236.739C118.648 236.352 119.337 236.159 120.125 236.159C120.58 236.159 121.028 236.235 121.472 236.386C121.915 236.538 122.318 236.784 122.682 237.125C123.045 237.462 123.335 237.909 123.551 238.466C123.767 239.023 123.875 239.708 123.875 240.523V241.091H117.148V239.932H122.511C122.511 239.439 122.413 239 122.216 238.614C122.023 238.227 121.746 237.922 121.386 237.699C121.03 237.475 120.61 237.364 120.125 237.364C119.591 237.364 119.129 237.496 118.739 237.761C118.352 238.023 118.055 238.364 117.847 238.784C117.638 239.205 117.534 239.655 117.534 240.136V240.909C117.534 241.568 117.648 242.127 117.875 242.585C118.106 243.04 118.426 243.386 118.835 243.625C119.244 243.86 119.72 243.977 120.261 243.977C120.614 243.977 120.932 243.928 121.216 243.83C121.504 243.727 121.752 243.576 121.96 243.375C122.169 243.17 122.33 242.917 122.443 242.614L123.739 242.977C123.602 243.417 123.373 243.803 123.051 244.136C122.729 244.466 122.331 244.723 121.858 244.909C121.384 245.091 120.852 245.182 120.261 245.182ZM125.915 245V236.273H127.21V237.636H127.324C127.506 237.17 127.799 236.809 128.205 236.551C128.61 236.29 129.097 236.159 129.665 236.159C130.241 236.159 130.72 236.29 131.102 236.551C131.489 236.809 131.79 237.17 132.006 237.636H132.097C132.32 237.186 132.655 236.828 133.102 236.562C133.549 236.294 134.085 236.159 134.71 236.159C135.491 236.159 136.129 236.403 136.625 236.892C137.121 237.377 137.369 238.133 137.369 239.159V245H136.028V239.159C136.028 238.515 135.852 238.055 135.5 237.778C135.148 237.502 134.733 237.364 134.256 237.364C133.642 237.364 133.167 237.549 132.83 237.92C132.492 238.288 132.324 238.754 132.324 239.318V245H130.96V239.023C130.96 238.527 130.799 238.127 130.477 237.824C130.155 237.517 129.741 237.364 129.233 237.364C128.884 237.364 128.559 237.456 128.256 237.642C127.956 237.828 127.714 238.085 127.528 238.415C127.347 238.741 127.256 239.117 127.256 239.545V245H125.915ZM143.48 245.182C142.639 245.182 141.914 244.996 141.304 244.625C140.698 244.25 140.23 243.727 139.901 243.057C139.575 242.383 139.412 241.598 139.412 240.705C139.412 239.811 139.575 239.023 139.901 238.341C140.23 237.655 140.688 237.121 141.276 236.739C141.866 236.352 142.556 236.159 143.344 236.159C143.798 236.159 144.247 236.235 144.69 236.386C145.134 236.538 145.537 236.784 145.901 237.125C146.264 237.462 146.554 237.909 146.77 238.466C146.986 239.023 147.094 239.708 147.094 240.523V241.091H140.366V239.932H145.73C145.73 239.439 145.632 239 145.435 238.614C145.241 238.227 144.965 237.922 144.605 237.699C144.249 237.475 143.829 237.364 143.344 237.364C142.81 237.364 142.348 237.496 141.957 237.761C141.571 238.023 141.274 238.364 141.065 238.784C140.857 239.205 140.753 239.655 140.753 240.136V240.909C140.753 241.568 140.866 242.127 141.094 242.585C141.325 243.04 141.645 243.386 142.054 243.625C142.463 243.86 142.938 243.977 143.48 243.977C143.832 243.977 144.151 243.928 144.435 243.83C144.723 243.727 144.971 243.576 145.179 243.375C145.387 243.17 145.548 242.917 145.662 242.614L146.957 242.977C146.821 243.417 146.592 243.803 146.27 244.136C145.948 244.466 145.55 244.723 145.077 244.909C144.603 245.091 144.071 245.182 143.48 245.182ZM150.474 239.75V245H149.134V236.273H150.429V237.636H150.543C150.747 237.193 151.058 236.837 151.474 236.568C151.891 236.295 152.429 236.159 153.088 236.159C153.679 236.159 154.196 236.28 154.639 236.523C155.082 236.761 155.427 237.125 155.673 237.614C155.92 238.098 156.043 238.712 156.043 239.455V245H154.702V239.545C154.702 238.86 154.524 238.326 154.168 237.943C153.812 237.557 153.323 237.364 152.702 237.364C152.274 237.364 151.891 237.456 151.554 237.642C151.221 237.828 150.957 238.098 150.764 238.455C150.571 238.811 150.474 239.242 150.474 239.75ZM162.288 236.273V237.409H157.766V236.273H162.288ZM159.084 234.182H160.425V242.5C160.425 242.879 160.48 243.163 160.589 243.352C160.703 243.538 160.847 243.663 161.021 243.727C161.199 243.788 161.387 243.818 161.584 243.818C161.732 243.818 161.853 243.811 161.947 243.795C162.042 243.777 162.118 243.761 162.175 243.75L162.447 244.955C162.357 244.989 162.23 245.023 162.067 245.057C161.904 245.095 161.697 245.114 161.447 245.114C161.069 245.114 160.697 245.032 160.334 244.869C159.974 244.706 159.675 244.458 159.436 244.125C159.201 243.792 159.084 243.371 159.084 242.864V234.182Z" fill="#6B6B6B"/>
<path d="M38.5917 229.625H33.9167C32.4138 229.625 30.9724 230.204 29.9097 231.236C28.847 232.267 28.25 233.666 28.25 235.125V237.875M45.25 230.312V228.25C45.25 227.521 45.5485 226.821 46.0799 226.305C46.6112 225.79 47.3319 225.5 48.0833 225.5C48.8348 225.5 49.5554 225.79 50.0868 226.305C50.6182 226.821 50.9167 227.521 50.9167 228.25V230.312M43.8333 218.625C43.8333 221.663 41.2963 224.125 38.1667 224.125C35.0371 224.125 32.5 221.663 32.5 218.625C32.5 215.587 35.0371 213.125 38.1667 213.125C41.2963 213.125 43.8333 215.587 43.8333 218.625ZM43.6902 231H52.4764C53.1798 231 53.75 231.553 53.75 232.236V236.639C53.75 237.322 53.1798 237.875 52.4764 237.875H43.6902C42.9869 237.875 42.4167 237.322 42.4167 236.639V232.236C42.4167 231.553 42.9869 231 43.6902 231Z" stroke="black" stroke-width="2" stroke-linecap="round" stroke-linejoin="round"/>
<path d="M224 341H16V293H224V341Z" stroke="#E5E7EB"/>
<path d="M216 293C220.418 293 224 296.582 224 301V333C224 337.418 220.418 341 216 341H24C19.5817 341 16 337.418 16 333V301C16 296.582 19.5817 293 24 293H216Z" stroke="#E5E7EB"/>
<path d="M74.7727 311H73.3636C73.2803 310.595 73.1345 310.239 72.9261 309.932C72.7216 309.625 72.4716 309.367 72.1761 309.159C71.8845 308.947 71.5606 308.788 71.2045 308.682C70.8485 308.576 70.4773 308.523 70.0909 308.523C69.3864 308.523 68.7481 308.701 68.1761 309.057C67.608 309.413 67.1553 309.938 66.8182 310.631C66.4848 311.324 66.3182 312.174 66.3182 313.182C66.3182 314.189 66.4848 315.04 66.8182 315.733C67.1553 316.426 67.608 316.951 68.1761 317.307C68.7481 317.663 69.3864 317.841 70.0909 317.841C70.4773 317.841 70.8485 317.788 71.2045 317.682C71.5606 317.576 71.8845 317.419 72.1761 317.21C72.4716 316.998 72.7216 316.739 72.9261 316.432C73.1345 316.121 73.2803 315.765 73.3636 315.364H74.7727C74.6667 315.958 74.4735 316.491 74.1932 316.96C73.9129 317.43 73.5644 317.83 73.1477 318.159C72.7311 318.485 72.2633 318.733 71.7443 318.903C71.2292 319.074 70.678 319.159 70.0909 319.159C69.0985 319.159 68.2159 318.917 67.4432 318.432C66.6705 317.947 66.0625 317.258 65.6193 316.364C65.1761 315.47 64.9545 314.409 64.9545 313.182C64.9545 311.955 65.1761 310.894 65.6193 310C66.0625 309.106 66.6705 308.417 67.4432 307.932C68.2159 307.447 69.0985 307.205 70.0909 307.205C70.678 307.205 71.2292 307.29 71.7443 307.46C72.2633 307.631 72.7311 307.881 73.1477 308.21C73.5644 308.536 73.9129 308.934 74.1932 309.403C74.4735 309.869 74.6667 310.402 74.7727 311ZM76.8679 319V310.273H78.1634V311.591H78.2543C78.4134 311.159 78.7012 310.809 79.1179 310.54C79.5346 310.271 80.0043 310.136 80.527 310.136C80.6255 310.136 80.7486 310.138 80.8963 310.142C81.044 310.146 81.1558 310.152 81.2315 310.159V311.523C81.1861 311.511 81.0819 311.494 80.919 311.472C80.7599 311.445 80.5914 311.432 80.4134 311.432C79.9891 311.432 79.6103 311.521 79.277 311.699C78.9474 311.873 78.6861 312.116 78.4929 312.426C78.3035 312.733 78.2088 313.083 78.2088 313.477V319H76.8679ZM86.2145 319.182C85.3736 319.182 84.6482 318.996 84.0384 318.625C83.4323 318.25 82.9645 317.727 82.6349 317.057C82.3092 316.383 82.1463 315.598 82.1463 314.705C82.1463 313.811 82.3092 313.023 82.6349 312.341C82.9645 311.655 83.4228 311.121 84.0099 310.739C84.6009 310.352 85.2902 310.159 86.0781 310.159C86.5327 310.159 86.9815 310.235 87.4247 310.386C87.8679 310.538 88.2713 310.784 88.6349 311.125C88.9986 311.462 89.2884 311.909 89.5043 312.466C89.7202 313.023 89.8281 313.708 89.8281 314.523V315.091H83.1009V313.932H88.4645C88.4645 313.439 88.366 313 88.169 312.614C87.9759 312.227 87.6993 311.922 87.3395 311.699C86.9834 311.475 86.563 311.364 86.0781 311.364C85.544 311.364 85.0819 311.496 84.6918 311.761C84.3054 312.023 84.008 312.364 83.7997 312.784C83.5914 313.205 83.4872 313.655 83.4872 314.136V314.909C83.4872 315.568 83.6009 316.127 83.8281 316.585C84.0592 317.04 84.3793 317.386 84.7884 317.625C85.1974 317.86 85.6728 317.977 86.2145 317.977C86.5668 317.977 86.8849 317.928 87.169 317.83C87.4569 317.727 87.705 317.576 87.9134 317.375C88.1217 317.17 88.2827 316.917 88.3963 316.614L89.6918 316.977C89.5554 317.417 89.3262 317.803 89.0043 318.136C88.6823 318.466 88.2846 318.723 87.8111 318.909C87.3376 319.091 86.8054 319.182 86.2145 319.182ZM94.4361 319.205C93.883 319.205 93.3812 319.1 92.9304 318.892C92.4796 318.68 92.1217 318.375 91.8565 317.977C91.5914 317.576 91.4588 317.091 91.4588 316.523C91.4588 316.023 91.5573 315.617 91.7543 315.307C91.9512 314.992 92.2145 314.746 92.544 314.568C92.8736 314.39 93.2372 314.258 93.6349 314.17C94.0365 314.08 94.4399 314.008 94.8452 313.955C95.3755 313.886 95.8054 313.835 96.1349 313.801C96.4683 313.763 96.7107 313.701 96.8622 313.614C97.0175 313.527 97.0952 313.375 97.0952 313.159V313.114C97.0952 312.553 96.9418 312.117 96.6349 311.807C96.3319 311.496 95.8717 311.341 95.2543 311.341C94.6141 311.341 94.1122 311.481 93.7486 311.761C93.3849 312.042 93.1293 312.341 92.9815 312.659L91.7088 312.205C91.9361 311.674 92.2391 311.261 92.6179 310.966C93.0005 310.667 93.4171 310.458 93.8679 310.341C94.3224 310.22 94.7694 310.159 95.2088 310.159C95.4891 310.159 95.8111 310.193 96.1747 310.261C96.5421 310.326 96.8963 310.46 97.2372 310.665C97.5819 310.869 97.8679 311.178 98.0952 311.591C98.3224 312.004 98.4361 312.557 98.4361 313.25V319H97.0952V317.818H97.027C96.9361 318.008 96.7846 318.21 96.5724 318.426C96.3603 318.642 96.0781 318.826 95.7259 318.977C95.3736 319.129 94.9437 319.205 94.4361 319.205ZM94.6406 318C95.1709 318 95.6179 317.896 95.9815 317.688C96.349 317.479 96.6255 317.21 96.8111 316.881C97.0005 316.551 97.0952 316.205 97.0952 315.841V314.614C97.0384 314.682 96.9134 314.744 96.7202 314.801C96.5308 314.854 96.3111 314.902 96.0611 314.943C95.8149 314.981 95.5743 315.015 95.3395 315.045C95.1084 315.072 94.9209 315.095 94.777 315.114C94.4285 315.159 94.1027 315.233 93.7997 315.335C93.5005 315.434 93.258 315.583 93.0724 315.784C92.8906 315.981 92.7997 316.25 92.7997 316.591C92.7997 317.057 92.9721 317.409 93.3168 317.648C93.6652 317.883 94.1065 318 94.6406 318ZM104.679 310.273V311.409H100.156V310.273H104.679ZM101.474 308.182H102.815V316.5C102.815 316.879 102.87 317.163 102.98 317.352C103.094 317.538 103.238 317.663 103.412 317.727C103.59 317.788 103.777 317.818 103.974 317.818C104.122 317.818 104.243 317.811 104.338 317.795C104.433 317.777 104.509 317.761 104.565 317.75L104.838 318.955C104.747 318.989 104.62 319.023 104.457 319.057C104.295 319.095 104.088 319.114 103.838 319.114C103.459 319.114 103.088 319.032 102.724 318.869C102.365 318.706 102.065 318.458 101.827 318.125C101.592 317.792 101.474 317.371 101.474 316.864V308.182ZM110.148 319.182C109.36 319.182 108.669 318.994 108.074 318.619C107.483 318.244 107.021 317.72 106.688 317.045C106.358 316.371 106.193 315.583 106.193 314.682C106.193 313.773 106.358 312.979 106.688 312.301C107.021 311.623 107.483 311.097 108.074 310.722C108.669 310.347 109.36 310.159 110.148 310.159C110.936 310.159 111.625 310.347 112.216 310.722C112.811 311.097 113.273 311.623 113.602 312.301C113.936 312.979 114.102 313.773 114.102 314.682C114.102 315.583 113.936 316.371 113.602 317.045C113.273 317.72 112.811 318.244 112.216 318.619C111.625 318.994 110.936 319.182 110.148 319.182ZM110.148 317.977C110.746 317.977 111.239 317.824 111.625 317.517C112.011 317.21 112.297 316.807 112.483 316.307C112.669 315.807 112.761 315.265 112.761 314.682C112.761 314.098 112.669 313.555 112.483 313.051C112.297 312.547 112.011 312.14 111.625 311.83C111.239 311.519 110.746 311.364 110.148 311.364C109.549 311.364 109.057 311.519 108.67 311.83C108.284 312.14 107.998 312.547 107.812 313.051C107.627 313.555 107.534 314.098 107.534 314.682C107.534 315.265 107.627 315.807 107.812 316.307C107.998 316.807 108.284 317.21 108.67 317.517C109.057 317.824 109.549 317.977 110.148 317.977ZM116.149 319V310.273H117.445V311.591H117.536C117.695 311.159 117.982 310.809 118.399 310.54C118.816 310.271 119.286 310.136 119.808 310.136C119.907 310.136 120.03 310.138 120.178 310.142C120.325 310.146 120.437 310.152 120.513 310.159V311.523C120.467 311.511 120.363 311.494 120.2 311.472C120.041 311.445 119.873 311.432 119.695 311.432C119.27 311.432 118.892 311.521 118.558 311.699C118.229 311.873 117.967 312.116 117.774 312.426C117.585 312.733 117.49 313.083 117.49 313.477V319H116.149ZM126.784 307.364H128.466L132.42 317.023H132.557L136.511 307.364H138.193V319H136.875V310.159H136.761L133.125 319H131.852L128.216 310.159H128.102V319H126.784V307.364ZM143.405 319.205C142.852 319.205 142.35 319.1 141.899 318.892C141.448 318.68 141.09 318.375 140.825 317.977C140.56 317.576 140.428 317.091 140.428 316.523C140.428 316.023 140.526 315.617 140.723 315.307C140.92 314.992 141.183 314.746 141.513 314.568C141.842 314.39 142.206 314.258 142.604 314.17C143.005 314.08 143.409 314.008 143.814 313.955C144.344 313.886 144.774 313.835 145.104 313.801C145.437 313.763 145.679 313.701 145.831 313.614C145.986 313.527 146.064 313.375 146.064 313.159V313.114C146.064 312.553 145.911 312.117 145.604 311.807C145.301 311.496 144.84 311.341 144.223 311.341C143.583 311.341 143.081 311.481 142.717 311.761C142.354 312.042 142.098 312.341 141.95 312.659L140.678 312.205C140.905 311.674 141.208 311.261 141.587 310.966C141.969 310.667 142.386 310.458 142.837 310.341C143.291 310.22 143.738 310.159 144.178 310.159C144.458 310.159 144.78 310.193 145.143 310.261C145.511 310.326 145.865 310.46 146.206 310.665C146.551 310.869 146.837 311.178 147.064 311.591C147.291 312.004 147.405 312.557 147.405 313.25V319H146.064V317.818H145.996C145.905 318.008 145.753 318.21 145.541 318.426C145.329 318.642 145.047 318.826 144.695 318.977C144.342 319.129 143.912 319.205 143.405 319.205ZM143.609 318C144.14 318 144.587 317.896 144.95 317.688C145.318 317.479 145.594 317.21 145.78 316.881C145.969 316.551 146.064 316.205 146.064 315.841V314.614C146.007 314.682 145.882 314.744 145.689 314.801C145.5 314.854 145.28 314.902 145.03 314.943C144.784 314.981 144.543 315.015 144.308 315.045C144.077 315.072 143.89 315.095 143.746 315.114C143.397 315.159 143.071 315.233 142.768 315.335C142.469 315.434 142.227 315.583 142.041 315.784C141.859 315.981 141.768 316.25 141.768 316.591C141.768 317.057 141.941 317.409 142.286 317.648C142.634 317.883 143.075 318 143.609 318ZM151.193 313.75V319H149.852V310.273H151.148V311.636H151.261C151.466 311.193 151.777 310.837 152.193 310.568C152.61 310.295 153.148 310.159 153.807 310.159C154.398 310.159 154.915 310.28 155.358 310.523C155.801 310.761 156.146 311.125 156.392 311.614C156.638 312.098 156.761 312.712 156.761 313.455V319H155.42V313.545C155.42 312.86 155.242 312.326 154.886 311.943C154.53 311.557 154.042 311.364 153.42 311.364C152.992 311.364 152.61 311.456 152.273 311.642C151.939 311.828 151.676 312.098 151.483 312.455C151.29 312.811 151.193 313.242 151.193 313.75ZM161.78 319.205C161.227 319.205 160.725 319.1 160.274 318.892C159.823 318.68 159.465 318.375 159.2 317.977C158.935 317.576 158.803 317.091 158.803 316.523C158.803 316.023 158.901 315.617 159.098 315.307C159.295 314.992 159.558 314.746 159.888 314.568C160.217 314.39 160.581 314.258 160.979 314.17C161.38 314.08 161.784 314.008 162.189 313.955C162.719 313.886 163.149 313.835 163.479 313.801C163.812 313.763 164.054 313.701 164.206 313.614C164.361 313.527 164.439 313.375 164.439 313.159V313.114C164.439 312.553 164.286 312.117 163.979 311.807C163.676 311.496 163.215 311.341 162.598 311.341C161.958 311.341 161.456 311.481 161.092 311.761C160.729 312.042 160.473 312.341 160.325 312.659L159.053 312.205C159.28 311.674 159.583 311.261 159.962 310.966C160.344 310.667 160.761 310.458 161.212 310.341C161.666 310.22 162.113 310.159 162.553 310.159C162.833 310.159 163.155 310.193 163.518 310.261C163.886 310.326 164.24 310.46 164.581 310.665C164.926 310.869 165.212 311.178 165.439 311.591C165.666 312.004 165.78 312.557 165.78 313.25V319H164.439V317.818H164.371C164.28 318.008 164.128 318.21 163.916 318.426C163.704 318.642 163.422 318.826 163.07 318.977C162.717 319.129 162.287 319.205 161.78 319.205ZM161.984 318C162.515 318 162.962 317.896 163.325 317.688C163.693 317.479 163.969 317.21 164.155 316.881C164.344 316.551 164.439 316.205 164.439 315.841V314.614C164.382 314.682 164.257 314.744 164.064 314.801C163.875 314.854 163.655 314.902 163.405 314.943C163.159 314.981 162.918 315.015 162.683 315.045C162.452 315.072 162.265 315.095 162.121 315.114C161.772 315.159 161.446 315.233 161.143 315.335C160.844 315.434 160.602 315.583 160.416 315.784C160.234 315.981 160.143 316.25 160.143 316.591C160.143 317.057 160.316 317.409 160.661 317.648C161.009 317.883 161.45 318 161.984 318ZM171.75 322.455C171.102 322.455 170.545 322.371 170.08 322.205C169.614 322.042 169.225 321.826 168.915 321.557C168.608 321.292 168.364 321.008 168.182 320.705L169.25 319.955C169.371 320.114 169.525 320.295 169.71 320.5C169.896 320.708 170.15 320.888 170.472 321.04C170.797 321.195 171.223 321.273 171.75 321.273C172.455 321.273 173.036 321.102 173.494 320.761C173.953 320.42 174.182 319.886 174.182 319.159V317.386H174.068C173.97 317.545 173.83 317.742 173.648 317.977C173.47 318.208 173.212 318.415 172.875 318.597C172.542 318.775 172.091 318.864 171.523 318.864C170.818 318.864 170.186 318.697 169.625 318.364C169.068 318.03 168.627 317.545 168.301 316.909C167.979 316.273 167.818 315.5 167.818 314.591C167.818 313.697 167.975 312.919 168.29 312.256C168.604 311.589 169.042 311.074 169.602 310.71C170.163 310.343 170.811 310.159 171.545 310.159C172.114 310.159 172.564 310.254 172.898 310.443C173.235 310.629 173.492 310.841 173.67 311.08C173.852 311.314 173.992 311.508 174.091 311.659H174.227V310.273H175.523V319.25C175.523 320 175.352 320.61 175.011 321.08C174.674 321.553 174.22 321.9 173.648 322.119C173.08 322.343 172.447 322.455 171.75 322.455ZM171.705 317.659C172.242 317.659 172.697 317.536 173.068 317.29C173.439 317.044 173.722 316.689 173.915 316.227C174.108 315.765 174.205 315.212 174.205 314.568C174.205 313.939 174.11 313.384 173.92 312.903C173.731 312.422 173.451 312.045 173.08 311.773C172.708 311.5 172.25 311.364 171.705 311.364C171.136 311.364 170.663 311.508 170.284 311.795C169.909 312.083 169.627 312.47 169.438 312.955C169.252 313.439 169.159 313.977 169.159 314.568C169.159 315.174 169.254 315.71 169.443 316.176C169.636 316.638 169.92 317.002 170.295 317.267C170.674 317.528 171.144 317.659 171.705 317.659ZM181.636 319.182C180.795 319.182 180.07 318.996 179.46 318.625C178.854 318.25 178.386 317.727 178.057 317.057C177.731 316.383 177.568 315.598 177.568 314.705C177.568 313.811 177.731 313.023 178.057 312.341C178.386 311.655 178.845 311.121 179.432 310.739C180.023 310.352 180.712 310.159 181.5 310.159C181.955 310.159 182.403 310.235 182.847 310.386C183.29 310.538 183.693 310.784 184.057 311.125C184.42 311.462 184.71 311.909 184.926 312.466C185.142 313.023 185.25 313.708 185.25 314.523V315.091H178.523V313.932H183.886C183.886 313.439 183.788 313 183.591 312.614C183.398 312.227 183.121 311.922 182.761 311.699C182.405 311.475 181.985 311.364 181.5 311.364C180.966 311.364 180.504 311.496 180.114 311.761C179.727 312.023 179.43 312.364 179.222 312.784C179.013 313.205 178.909 313.655 178.909 314.136V314.909C178.909 315.568 179.023 316.127 179.25 316.585C179.481 317.04 179.801 317.386 180.21 317.625C180.619 317.86 181.095 317.977 181.636 317.977C181.989 317.977 182.307 317.928 182.591 317.83C182.879 317.727 183.127 317.576 183.335 317.375C183.544 317.17 183.705 316.917 183.818 316.614L185.114 316.977C184.977 317.417 184.748 317.803 184.426 318.136C184.104 318.466 183.706 318.723 183.233 318.909C182.759 319.091 182.227 319.182 181.636 319.182ZM187.29 319V310.273H188.585V311.636H188.699C188.881 311.17 189.174 310.809 189.58 310.551C189.985 310.29 190.472 310.159 191.04 310.159C191.616 310.159 192.095 310.29 192.477 310.551C192.864 310.809 193.165 311.17 193.381 311.636H193.472C193.695 311.186 194.03 310.828 194.477 310.562C194.924 310.294 195.46 310.159 196.085 310.159C196.866 310.159 197.504 310.403 198 310.892C198.496 311.377 198.744 312.133 198.744 313.159V319H197.403V313.159C197.403 312.515 197.227 312.055 196.875 311.778C196.523 311.502 196.108 311.364 195.631 311.364C195.017 311.364 194.542 311.549 194.205 311.92C193.867 312.288 193.699 312.754 193.699 313.318V319H192.335V313.023C192.335 312.527 192.174 312.127 191.852 311.824C191.53 311.517 191.116 311.364 190.608 311.364C190.259 311.364 189.934 311.456 189.631 311.642C189.331 311.828 189.089 312.085 188.903 312.415C188.722 312.741 188.631 313.117 188.631 313.545V319H187.29ZM204.855 319.182C204.014 319.182 203.289 318.996 202.679 318.625C202.073 318.25 201.605 317.727 201.276 317.057C200.95 316.383 200.787 315.598 200.787 314.705C200.787 313.811 200.95 313.023 201.276 312.341C201.605 311.655 202.063 311.121 202.651 310.739C203.241 310.352 203.931 310.159 204.719 310.159C205.173 310.159 205.622 310.235 206.065 310.386C206.509 310.538 206.912 310.784 207.276 311.125C207.639 311.462 207.929 311.909 208.145 312.466C208.361 313.023 208.469 313.708 208.469 314.523V315.091H201.741V313.932H207.105C207.105 313.439 207.007 313 206.81 312.614C206.616 312.227 206.34 311.922 205.98 311.699C205.624 311.475 205.204 311.364 204.719 311.364C204.185 311.364 203.723 311.496 203.332 311.761C202.946 312.023 202.649 312.364 202.44 312.784C202.232 313.205 202.128 313.655 202.128 314.136V314.909C202.128 315.568 202.241 316.127 202.469 316.585C202.7 317.04 203.02 317.386 203.429 317.625C203.838 317.86 204.313 317.977 204.855 317.977C205.207 317.977 205.526 317.928 205.81 317.83C206.098 317.727 206.346 317.576 206.554 317.375C206.762 317.17 206.923 316.917 207.037 316.614L208.332 316.977C208.196 317.417 207.967 317.803 207.645 318.136C207.323 318.466 206.925 318.723 206.452 318.909C205.978 319.091 205.446 319.182 204.855 319.182ZM211.849 313.75V319H210.509V310.273H211.804V311.636H211.918C212.122 311.193 212.433 310.837 212.849 310.568C213.266 310.295 213.804 310.159 214.463 310.159C215.054 310.159 215.571 310.28 216.014 310.523C216.457 310.761 216.802 311.125 217.048 311.614C217.295 312.098 217.418 312.712 217.418 313.455V319H216.077V313.545C216.077 312.86 215.899 312.326 215.543 311.943C215.187 311.557 214.698 311.364 214.077 311.364C213.649 311.364 213.266 311.456 212.929 311.642C212.596 311.828 212.332 312.098 212.139 312.455C211.946 312.811 211.849 313.242 211.849 313.75ZM223.663 310.273V311.409H219.141V310.273H223.663ZM220.459 308.182H221.8V316.5C221.8 316.879 221.855 317.163 221.964 317.352C222.078 317.538 222.222 317.663 222.396 317.727C222.574 317.788 222.762 317.818 222.959 317.818C223.107 317.818 223.228 317.811 223.322 317.795C223.417 317.777 223.493 317.761 223.55 317.75L223.822 318.955C223.732 318.989 223.605 319.023 223.442 319.057C223.279 319.095 223.072 319.114 222.822 319.114C222.444 319.114 222.072 319.032 221.709 318.869C221.349 318.706 221.05 318.458 220.811 318.125C220.576 317.792 220.459 317.371 220.459 316.864V308.182Z" fill="#6B6B6B"/>
<path d="M50 325C50 322.878 49.1571 320.843 47.6569 319.343C46.1566 317.843 44.1217 317 42 317M42 317C39.8783 317 37.8434 317.843 36.3431 319.343C34.8429 320.843 34 322.878 34 325M42 317C44.7614 317 47 314.761 47 312C47 309.239 44.7614 307 42 307C39.2386 307 37 309.239 37 312C37 314.761 39.2386 317 42 317ZM54 324C54 320.63 52 317.5 50 316C50.6574 315.507 51.1831 314.859 51.5306 314.114C51.878 313.369 52.0365 312.55 51.992 311.73C51.9475 310.909 51.7014 310.112 51.2755 309.409C50.8495 308.706 50.2569 308.119 49.55 307.7" stroke="#6B6B6B" stroke-width="2" stroke-linecap="round" stroke-linejoin="round"/>
<path d="M224 416H16V368H224V416Z" stroke="#E5E7EB"/>
<path d="M216 368C220.418 368 224 371.582 224 376V408C224 412.418 220.418 416 216 416H24C19.5817 416 16 412.418 16 408V376C16 371.582 19.5817 368 24 368H216Z" stroke="#E5E7EB"/>
<path d="M61.4091 394V382.364H68.3864V383.614H62.8182V387.545H67.8636V388.795H62.8182V394H61.4091ZM70.6179 394V385.273H71.9588V394H70.6179ZM71.2997 383.818C71.0384 383.818 70.813 383.729 70.6236 383.551C70.438 383.373 70.3452 383.159 70.3452 382.909C70.3452 382.659 70.438 382.445 70.6236 382.267C70.813 382.089 71.0384 382 71.2997 382C71.5611 382 71.7846 382.089 71.9702 382.267C72.1596 382.445 72.2543 382.659 72.2543 382.909C72.2543 383.159 72.1596 383.373 71.9702 383.551C71.7846 383.729 71.5611 383.818 71.2997 383.818ZM75.7557 388.75V394H74.4148V385.273H75.7102V386.636H75.8239C76.0284 386.193 76.339 385.837 76.7557 385.568C77.1723 385.295 77.7102 385.159 78.3693 385.159C78.9602 385.159 79.4773 385.28 79.9205 385.523C80.3636 385.761 80.7083 386.125 80.9545 386.614C81.2008 387.098 81.3239 387.712 81.3239 388.455V394H79.983V388.545C79.983 387.86 79.8049 387.326 79.4489 386.943C79.0928 386.557 78.6042 386.364 77.983 386.364C77.5549 386.364 77.1723 386.456 76.8352 386.642C76.5019 386.828 76.2386 387.098 76.0455 387.455C75.8523 387.811 75.7557 388.242 75.7557 388.75ZM86.3423 394.205C85.7893 394.205 85.2874 394.1 84.8366 393.892C84.3859 393.68 84.0279 393.375 83.7628 392.977C83.4976 392.576 83.3651 392.091 83.3651 391.523C83.3651 391.023 83.4635 390.617 83.6605 390.307C83.8575 389.992 84.1207 389.746 84.4503 389.568C84.7798 389.39 85.1435 389.258 85.5412 389.17C85.9427 389.08 86.3461 389.008 86.7514 388.955C87.2817 388.886 87.7116 388.835 88.0412 388.801C88.3745 388.763 88.617 388.701 88.7685 388.614C88.9238 388.527 89.0014 388.375 89.0014 388.159V388.114C89.0014 387.553 88.848 387.117 88.5412 386.807C88.2382 386.496 87.7779 386.341 87.1605 386.341C86.5204 386.341 86.0185 386.481 85.6548 386.761C85.2912 387.042 85.0355 387.341 84.8878 387.659L83.6151 387.205C83.8423 386.674 84.1454 386.261 84.5241 385.966C84.9067 385.667 85.3234 385.458 85.7741 385.341C86.2287 385.22 86.6757 385.159 87.1151 385.159C87.3954 385.159 87.7173 385.193 88.081 385.261C88.4484 385.326 88.8026 385.46 89.1435 385.665C89.4882 385.869 89.7741 386.178 90.0014 386.591C90.2287 387.004 90.3423 387.557 90.3423 388.25V394H89.0014V392.818H88.9332C88.8423 393.008 88.6908 393.21 88.4787 393.426C88.2666 393.642 87.9844 393.826 87.6321 393.977C87.2798 394.129 86.8499 394.205 86.3423 394.205ZM86.5469 393C87.0772 393 87.5241 392.896 87.8878 392.688C88.2552 392.479 88.5317 392.21 88.7173 391.881C88.9067 391.551 89.0014 391.205 89.0014 390.841V389.614C88.9446 389.682 88.8196 389.744 88.6264 389.801C88.437 389.854 88.2173 389.902 87.9673 389.943C87.7211 389.981 87.4806 390.015 87.2457 390.045C87.0147 390.072 86.8272 390.095 86.6832 390.114C86.3348 390.159 86.009 390.233 85.706 390.335C85.4067 390.434 85.1643 390.583 84.9787 390.784C84.7969 390.981 84.706 391.25 84.706 391.591C84.706 392.057 84.8783 392.409 85.223 392.648C85.5715 392.883 86.0128 393 86.5469 393ZM94.1307 388.75V394H92.7898V385.273H94.0852V386.636H94.1989C94.4034 386.193 94.714 385.837 95.1307 385.568C95.5473 385.295 96.0852 385.159 96.7443 385.159C97.3352 385.159 97.8523 385.28 98.2955 385.523C98.7386 385.761 99.0833 386.125 99.3295 386.614C99.5758 387.098 99.6989 387.712 99.6989 388.455V394H98.358V388.545C98.358 387.86 98.1799 387.326 97.8239 386.943C97.4678 386.557 96.9792 386.364 96.358 386.364C95.9299 386.364 95.5473 386.456 95.2102 386.642C94.8769 386.828 94.6136 387.098 94.4205 387.455C94.2273 387.811 94.1307 388.242 94.1307 388.75ZM105.695 394.182C104.876 394.182 104.172 393.989 103.581 393.602C102.99 393.216 102.536 392.684 102.217 392.006C101.899 391.328 101.74 390.553 101.74 389.682C101.74 388.795 101.903 388.013 102.229 387.335C102.558 386.653 103.017 386.121 103.604 385.739C104.195 385.352 104.884 385.159 105.672 385.159C106.286 385.159 106.839 385.273 107.331 385.5C107.823 385.727 108.227 386.045 108.541 386.455C108.856 386.864 109.051 387.341 109.126 387.886H107.786C107.683 387.489 107.456 387.136 107.104 386.83C106.755 386.519 106.286 386.364 105.695 386.364C105.172 386.364 104.714 386.5 104.32 386.773C103.929 387.042 103.625 387.422 103.405 387.915C103.189 388.403 103.081 388.977 103.081 389.636C103.081 390.311 103.187 390.898 103.399 391.398C103.615 391.898 103.918 392.286 104.308 392.562C104.702 392.839 105.164 392.977 105.695 392.977C106.043 392.977 106.359 392.917 106.643 392.795C106.928 392.674 107.168 392.5 107.365 392.273C107.562 392.045 107.702 391.773 107.786 391.455H109.126C109.051 391.97 108.863 392.434 108.564 392.847C108.268 393.256 107.876 393.581 107.388 393.824C106.903 394.062 106.339 394.182 105.695 394.182ZM111.087 394V385.273H112.428V394H111.087ZM111.768 383.818C111.507 383.818 111.282 383.729 111.092 383.551C110.907 383.373 110.814 383.159 110.814 382.909C110.814 382.659 110.907 382.445 111.092 382.267C111.282 382.089 111.507 382 111.768 382C112.03 382 112.253 382.089 112.439 382.267C112.628 382.445 112.723 382.659 112.723 382.909C112.723 383.159 112.628 383.373 112.439 383.551C112.253 383.729 112.03 383.818 111.768 383.818ZM117.452 394.205C116.899 394.205 116.397 394.1 115.946 393.892C115.495 393.68 115.137 393.375 114.872 392.977C114.607 392.576 114.474 392.091 114.474 391.523C114.474 391.023 114.573 390.617 114.77 390.307C114.967 389.992 115.23 389.746 115.56 389.568C115.889 389.39 116.253 389.258 116.651 389.17C117.052 389.08 117.455 389.008 117.861 388.955C118.391 388.886 118.821 388.835 119.151 388.801C119.484 388.763 119.726 388.701 119.878 388.614C120.033 388.527 120.111 388.375 120.111 388.159V388.114C120.111 387.553 119.957 387.117 119.651 386.807C119.348 386.496 118.887 386.341 118.27 386.341C117.63 386.341 117.128 386.481 116.764 386.761C116.401 387.042 116.145 387.341 115.997 387.659L114.724 387.205C114.952 386.674 115.255 386.261 115.634 385.966C116.016 385.667 116.433 385.458 116.884 385.341C117.338 385.22 117.785 385.159 118.224 385.159C118.505 385.159 118.827 385.193 119.19 385.261C119.558 385.326 119.912 385.46 120.253 385.665C120.598 385.869 120.884 386.178 121.111 386.591C121.338 387.004 121.452 387.557 121.452 388.25V394H120.111V392.818H120.043C119.952 393.008 119.8 393.21 119.588 393.426C119.376 393.642 119.094 393.826 118.741 393.977C118.389 394.129 117.959 394.205 117.452 394.205ZM117.656 393C118.187 393 118.634 392.896 118.997 392.688C119.365 392.479 119.641 392.21 119.827 391.881C120.016 391.551 120.111 391.205 120.111 390.841V389.614C120.054 389.682 119.929 389.744 119.736 389.801C119.546 389.854 119.327 389.902 119.077 389.943C118.83 389.981 118.59 390.015 118.355 390.045C118.124 390.072 117.937 390.095 117.793 390.114C117.444 390.159 117.118 390.233 116.815 390.335C116.516 390.434 116.274 390.583 116.088 390.784C115.906 390.981 115.815 391.25 115.815 391.591C115.815 392.057 115.988 392.409 116.332 392.648C116.681 392.883 117.122 393 117.656 393ZM125.24 382.364V394H123.899V382.364H125.24ZM132.378 394V382.364H136.31C137.219 382.364 137.965 382.519 138.548 382.83C139.132 383.136 139.563 383.559 139.844 384.097C140.124 384.634 140.264 385.246 140.264 385.932C140.264 386.617 140.124 387.225 139.844 387.756C139.563 388.286 139.134 388.703 138.554 389.006C137.974 389.305 137.234 389.455 136.332 389.455H133.151V388.182H136.287C136.908 388.182 137.408 388.091 137.787 387.909C138.17 387.727 138.446 387.47 138.616 387.136C138.791 386.799 138.878 386.398 138.878 385.932C138.878 385.466 138.791 385.059 138.616 384.71C138.442 384.362 138.164 384.093 137.781 383.903C137.399 383.71 136.893 383.614 136.264 383.614H133.787V394H132.378ZM137.855 388.773L140.719 394H139.082L136.264 388.773H137.855ZM145.996 394.182C145.155 394.182 144.429 393.996 143.82 393.625C143.214 393.25 142.746 392.727 142.416 392.057C142.09 391.383 141.928 390.598 141.928 389.705C141.928 388.811 142.09 388.023 142.416 387.341C142.746 386.655 143.204 386.121 143.791 385.739C144.382 385.352 145.071 385.159 145.859 385.159C146.314 385.159 146.763 385.235 147.206 385.386C147.649 385.538 148.053 385.784 148.416 386.125C148.78 386.462 149.07 386.909 149.286 387.466C149.501 388.023 149.609 388.708 149.609 389.523V390.091H142.882V388.932H148.246C148.246 388.439 148.147 388 147.95 387.614C147.757 387.227 147.481 386.922 147.121 386.699C146.765 386.475 146.344 386.364 145.859 386.364C145.325 386.364 144.863 386.496 144.473 386.761C144.087 387.023 143.789 387.364 143.581 387.784C143.373 388.205 143.268 388.655 143.268 389.136V389.909C143.268 390.568 143.382 391.127 143.609 391.585C143.84 392.04 144.161 392.386 144.57 392.625C144.979 392.86 145.454 392.977 145.996 392.977C146.348 392.977 146.666 392.928 146.95 392.83C147.238 392.727 147.486 392.576 147.695 392.375C147.903 392.17 148.064 391.917 148.178 391.614L149.473 391.977C149.337 392.417 149.107 392.803 148.786 393.136C148.464 393.466 148.066 393.723 147.592 393.909C147.119 394.091 146.587 394.182 145.996 394.182ZM151.649 397.273V385.273H152.945V386.659H153.104C153.202 386.508 153.339 386.314 153.513 386.08C153.691 385.841 153.945 385.629 154.274 385.443C154.607 385.254 155.058 385.159 155.626 385.159C156.361 385.159 157.009 385.343 157.57 385.71C158.13 386.078 158.568 386.598 158.882 387.273C159.196 387.947 159.354 388.742 159.354 389.659C159.354 390.583 159.196 391.384 158.882 392.062C158.568 392.737 158.132 393.259 157.575 393.631C157.018 393.998 156.376 394.182 155.649 394.182C155.089 394.182 154.64 394.089 154.303 393.903C153.965 393.714 153.706 393.5 153.524 393.261C153.342 393.019 153.202 392.818 153.104 392.659H152.99V397.273H151.649ZM152.967 389.636C152.967 390.295 153.064 390.877 153.257 391.381C153.45 391.881 153.732 392.273 154.104 392.557C154.475 392.837 154.929 392.977 155.467 392.977C156.028 392.977 156.496 392.83 156.871 392.534C157.25 392.235 157.534 391.833 157.723 391.33C157.916 390.822 158.013 390.258 158.013 389.636C158.013 389.023 157.918 388.47 157.729 387.977C157.543 387.481 157.261 387.089 156.882 386.801C156.507 386.509 156.036 386.364 155.467 386.364C154.922 386.364 154.464 386.502 154.092 386.778C153.721 387.051 153.441 387.434 153.251 387.926C153.062 388.415 152.967 388.985 152.967 389.636ZM164.945 394.182C164.157 394.182 163.465 393.994 162.871 393.619C162.28 393.244 161.818 392.72 161.484 392.045C161.155 391.371 160.99 390.583 160.99 389.682C160.99 388.773 161.155 387.979 161.484 387.301C161.818 386.623 162.28 386.097 162.871 385.722C163.465 385.347 164.157 385.159 164.945 385.159C165.732 385.159 166.422 385.347 167.013 385.722C167.607 386.097 168.07 386.623 168.399 387.301C168.732 387.979 168.899 388.773 168.899 389.682C168.899 390.583 168.732 391.371 168.399 392.045C168.07 392.72 167.607 393.244 167.013 393.619C166.422 393.994 165.732 394.182 164.945 394.182ZM164.945 392.977C165.543 392.977 166.036 392.824 166.422 392.517C166.808 392.21 167.094 391.807 167.28 391.307C167.465 390.807 167.558 390.265 167.558 389.682C167.558 389.098 167.465 388.555 167.28 388.051C167.094 387.547 166.808 387.14 166.422 386.83C166.036 386.519 165.543 386.364 164.945 386.364C164.346 386.364 163.854 386.519 163.467 386.83C163.081 387.14 162.795 387.547 162.609 388.051C162.424 388.555 162.331 389.098 162.331 389.682C162.331 390.265 162.424 390.807 162.609 391.307C162.795 391.807 163.081 392.21 163.467 392.517C163.854 392.824 164.346 392.977 164.945 392.977ZM170.946 394V385.273H172.241V386.591H172.332C172.491 386.159 172.779 385.809 173.196 385.54C173.613 385.271 174.082 385.136 174.605 385.136C174.704 385.136 174.827 385.138 174.974 385.142C175.122 385.146 175.234 385.152 175.31 385.159V386.523C175.264 386.511 175.16 386.494 174.997 386.472C174.838 386.445 174.67 386.432 174.491 386.432C174.067 386.432 173.688 386.521 173.355 386.699C173.026 386.873 172.764 387.116 172.571 387.426C172.382 387.733 172.287 388.083 172.287 388.477V394H170.946ZM181.241 385.273V386.409H176.719V385.273H181.241ZM178.037 383.182H179.378V391.5C179.378 391.879 179.433 392.163 179.543 392.352C179.656 392.538 179.8 392.663 179.974 392.727C180.152 392.788 180.34 392.818 180.537 392.818C180.685 392.818 180.806 392.811 180.901 392.795C180.995 392.777 181.071 392.761 181.128 392.75L181.401 393.955C181.31 393.989 181.183 394.023 181.02 394.057C180.857 394.095 180.651 394.114 180.401 394.114C180.022 394.114 179.651 394.032 179.287 393.869C178.927 393.706 178.628 393.458 178.389 393.125C178.154 392.792 178.037 392.371 178.037 391.864V383.182ZM189.284 387.227L188.08 387.568C188.004 387.367 187.892 387.172 187.744 386.983C187.6 386.79 187.403 386.631 187.153 386.506C186.903 386.381 186.583 386.318 186.193 386.318C185.659 386.318 185.214 386.441 184.858 386.688C184.506 386.93 184.33 387.239 184.33 387.614C184.33 387.947 184.451 388.21 184.693 388.403C184.936 388.597 185.314 388.758 185.83 388.886L187.125 389.205C187.905 389.394 188.487 389.684 188.869 390.074C189.252 390.46 189.443 390.958 189.443 391.568C189.443 392.068 189.299 392.515 189.011 392.909C188.727 393.303 188.33 393.614 187.818 393.841C187.307 394.068 186.712 394.182 186.034 394.182C185.144 394.182 184.407 393.989 183.824 393.602C183.241 393.216 182.871 392.652 182.716 391.909L183.989 391.591C184.11 392.061 184.339 392.413 184.676 392.648C185.017 392.883 185.462 393 186.011 393C186.636 393 187.133 392.867 187.5 392.602C187.871 392.333 188.057 392.011 188.057 391.636C188.057 391.333 187.951 391.08 187.739 390.875C187.527 390.667 187.201 390.511 186.761 390.409L185.307 390.068C184.508 389.879 183.92 389.585 183.545 389.188C183.174 388.786 182.989 388.284 182.989 387.682C182.989 387.189 183.127 386.754 183.403 386.375C183.684 385.996 184.064 385.699 184.545 385.483C185.03 385.267 185.58 385.159 186.193 385.159C187.057 385.159 187.735 385.348 188.227 385.727C188.723 386.106 189.076 386.606 189.284 387.227Z" fill="#6B6B6B"/>
<path d="M48 386V383C48 382.735 47.8946 382.48 47.7071 382.293C47.5196 382.105 47.2652 382 47 382H34C33.4696 382 32.9609 382.211 32.5858 382.586C32.2107 382.961 32 383.47 32 384M32 384C32 384.53 32.2107 385.039 32.5858 385.414C32.9609 385.789 33.4696 386 34 386H49C49.2652 386 49.5196 386.105 49.7071 386.293C49.8946 386.48 50 386.735 50 387V391M32 384V398C32 398.53 32.2107 399.039 32.5858 399.414C32.9609 399.789 33.4696 400 34 400H49C49.2652 400 49.5196 399.895 49.7071 399.707C49.8946 399.52 50 399.265 50 399V395M50 391H47C46.4696 391 45.9609 391.211 45.5858 391.586C45.2107 391.961 45 392.47 45 393C45 393.53 45.2107 394.039 45.5858 394.414C45.9609 394.789 46.4696 395 47 395H50M50 391C50.2652 391 50.5196 391.105 50.7071 391.293C50.8946 391.48 51 391.735 51 392V394C51 394.265 50.8946 394.52 50.7071 394.707C50.5196 394.895 50.2652 395 50 395" stroke="#6B6B6B" stroke-width="2" stroke-linecap="round" stroke-linejoin="round"/>
<path d="M224 500H16V452H224V500Z" stroke="#E5E7EB"/>
<path d="M216 452C220.418 452 224 455.582 224 460V492C224 496.418 220.418 500 216 500H24C19.5817 500 16 496.418 16 492V460C16 455.582 19.5817 452 24 452H216Z" stroke="#E5E7EB"/>
<path d="M72.7727 470H71.3636C71.2803 469.595 71.1345 469.239 70.9261 468.932C70.7216 468.625 70.4716 468.367 70.1761 468.159C69.8845 467.947 69.5606 467.788 69.2045 467.682C68.8485 467.576 68.4773 467.523 68.0909 467.523C67.3864 467.523 66.7481 467.701 66.1761 468.057C65.608 468.413 65.1553 468.938 64.8182 469.631C64.4848 470.324 64.3182 471.174 64.3182 472.182C64.3182 473.189 64.4848 474.04 64.8182 474.733C65.1553 475.426 65.608 475.951 66.1761 476.307C66.7481 476.663 67.3864 476.841 68.0909 476.841C68.4773 476.841 68.8485 476.788 69.2045 476.682C69.5606 476.576 69.8845 476.419 70.1761 476.21C70.4716 475.998 70.7216 475.739 70.9261 475.432C71.1345 475.121 71.2803 474.765 71.3636 474.364H72.7727C72.6667 474.958 72.4735 475.491 72.1932 475.96C71.9129 476.43 71.5644 476.83 71.1477 477.159C70.7311 477.485 70.2633 477.733 69.7443 477.903C69.2292 478.074 68.678 478.159 68.0909 478.159C67.0985 478.159 66.2159 477.917 65.4432 477.432C64.6705 476.947 64.0625 476.258 63.6193 475.364C63.1761 474.47 62.9545 473.409 62.9545 472.182C62.9545 470.955 63.1761 469.894 63.6193 469C64.0625 468.106 64.6705 467.417 65.4432 466.932C66.2159 466.447 67.0985 466.205 68.0909 466.205C68.678 466.205 69.2292 466.29 69.7443 466.46C70.2633 466.631 70.7311 466.881 71.1477 467.21C71.5644 467.536 71.9129 467.934 72.1932 468.403C72.4735 468.869 72.6667 469.402 72.7727 470ZM78.4134 478.182C77.6255 478.182 76.9342 477.994 76.3395 477.619C75.7486 477.244 75.2865 476.72 74.9531 476.045C74.6236 475.371 74.4588 474.583 74.4588 473.682C74.4588 472.773 74.6236 471.979 74.9531 471.301C75.2865 470.623 75.7486 470.097 76.3395 469.722C76.9342 469.347 77.6255 469.159 78.4134 469.159C79.2012 469.159 79.8906 469.347 80.4815 469.722C81.0762 470.097 81.5384 470.623 81.8679 471.301C82.2012 471.979 82.3679 472.773 82.3679 473.682C82.3679 474.583 82.2012 475.371 81.8679 476.045C81.5384 476.72 81.0762 477.244 80.4815 477.619C79.8906 477.994 79.2012 478.182 78.4134 478.182ZM78.4134 476.977C79.0118 476.977 79.5043 476.824 79.8906 476.517C80.277 476.21 80.563 475.807 80.7486 475.307C80.9342 474.807 81.027 474.265 81.027 473.682C81.027 473.098 80.9342 472.555 80.7486 472.051C80.563 471.547 80.277 471.14 79.8906 470.83C79.5043 470.519 79.0118 470.364 78.4134 470.364C77.8149 470.364 77.3224 470.519 76.9361 470.83C76.5497 471.14 76.2637 471.547 76.0781 472.051C75.8925 472.555 75.7997 473.098 75.7997 473.682C75.7997 474.265 75.8925 474.807 76.0781 475.307C76.2637 475.807 76.5497 476.21 76.9361 476.517C77.3224 476.824 77.8149 476.977 78.4134 476.977ZM85.7557 472.75V478H84.4148V469.273H85.7102V470.636H85.8239C86.0284 470.193 86.339 469.837 86.7557 469.568C87.1723 469.295 87.7102 469.159 88.3693 469.159C88.9602 469.159 89.4773 469.28 89.9205 469.523C90.3636 469.761 90.7083 470.125 90.9545 470.614C91.2008 471.098 91.3239 471.712 91.3239 472.455V478H89.983V472.545C89.983 471.86 89.8049 471.326 89.4489 470.943C89.0928 470.557 88.6042 470.364 87.983 470.364C87.5549 470.364 87.1723 470.456 86.8352 470.642C86.5019 470.828 86.2386 471.098 86.0455 471.455C85.8523 471.811 85.7557 472.242 85.7557 472.75ZM97.5696 469.273V470.409H93.0469V469.273H97.5696ZM94.3651 467.182H95.706V475.5C95.706 475.879 95.7609 476.163 95.8707 476.352C95.9844 476.538 96.1283 476.663 96.3026 476.727C96.4806 476.788 96.6681 476.818 96.8651 476.818C97.0128 476.818 97.134 476.811 97.2287 476.795C97.3234 476.777 97.3991 476.761 97.456 476.75L97.7287 477.955C97.6378 477.989 97.5109 478.023 97.348 478.057C97.1851 478.095 96.9787 478.114 96.7287 478.114C96.3499 478.114 95.9787 478.032 95.6151 477.869C95.2552 477.706 94.956 477.458 94.7173 477.125C94.4825 476.792 94.3651 476.371 94.3651 475.864V467.182ZM103.152 478.182C102.311 478.182 101.586 477.996 100.976 477.625C100.37 477.25 99.902 476.727 99.5724 476.057C99.2467 475.383 99.0838 474.598 99.0838 473.705C99.0838 472.811 99.2467 472.023 99.5724 471.341C99.902 470.655 100.36 470.121 100.947 469.739C101.538 469.352 102.228 469.159 103.016 469.159C103.47 469.159 103.919 469.235 104.362 469.386C104.805 469.538 105.209 469.784 105.572 470.125C105.936 470.462 106.226 470.909 106.442 471.466C106.658 472.023 106.766 472.708 106.766 473.523V474.091H100.038V472.932H105.402C105.402 472.439 105.304 472 105.107 471.614C104.913 471.227 104.637 470.922 104.277 470.699C103.921 470.475 103.5 470.364 103.016 470.364C102.482 470.364 102.019 470.496 101.629 470.761C101.243 471.023 100.946 471.364 100.737 471.784C100.529 472.205 100.425 472.655 100.425 473.136V473.909C100.425 474.568 100.538 475.127 100.766 475.585C100.997 476.04 101.317 476.386 101.726 476.625C102.135 476.86 102.61 476.977 103.152 476.977C103.504 476.977 103.822 476.928 104.107 476.83C104.394 476.727 104.643 476.576 104.851 476.375C105.059 476.17 105.22 475.917 105.334 475.614L106.629 475.977C106.493 476.417 106.264 476.803 105.942 477.136C105.62 477.466 105.222 477.723 104.749 477.909C104.275 478.091 103.743 478.182 103.152 478.182ZM110.146 472.75V478H108.805V469.273H110.101V470.636H110.214C110.419 470.193 110.73 469.837 111.146 469.568C111.563 469.295 112.101 469.159 112.76 469.159C113.351 469.159 113.868 469.28 114.311 469.523C114.754 469.761 115.099 470.125 115.345 470.614C115.591 471.098 115.714 471.712 115.714 472.455V478H114.374V472.545C114.374 471.86 114.196 471.326 113.839 470.943C113.483 470.557 112.995 470.364 112.374 470.364C111.946 470.364 111.563 470.456 111.226 470.642C110.893 470.828 110.629 471.098 110.436 471.455C110.243 471.811 110.146 472.242 110.146 472.75ZM121.96 469.273V470.409H117.438V469.273H121.96ZM118.756 467.182H120.097V475.5C120.097 475.879 120.152 476.163 120.261 476.352C120.375 476.538 120.519 476.663 120.693 476.727C120.871 476.788 121.059 476.818 121.256 476.818C121.403 476.818 121.525 476.811 121.619 476.795C121.714 476.777 121.79 476.761 121.847 476.75L122.119 477.955C122.028 477.989 121.902 478.023 121.739 478.057C121.576 478.095 121.369 478.114 121.119 478.114C120.741 478.114 120.369 478.032 120.006 477.869C119.646 477.706 119.347 477.458 119.108 477.125C118.873 476.792 118.756 476.371 118.756 475.864V467.182ZM138.477 472.182C138.477 473.409 138.256 474.47 137.812 475.364C137.369 476.258 136.761 476.947 135.989 477.432C135.216 477.917 134.333 478.159 133.341 478.159C132.348 478.159 131.466 477.917 130.693 477.432C129.92 476.947 129.313 476.258 128.869 475.364C128.426 474.47 128.205 473.409 128.205 472.182C128.205 470.955 128.426 469.894 128.869 469C129.313 468.106 129.92 467.417 130.693 466.932C131.466 466.447 132.348 466.205 133.341 466.205C134.333 466.205 135.216 466.447 135.989 466.932C136.761 467.417 137.369 468.106 137.812 469C138.256 469.894 138.477 470.955 138.477 472.182ZM137.114 472.182C137.114 471.174 136.945 470.324 136.608 469.631C136.275 468.938 135.822 468.413 135.25 468.057C134.682 467.701 134.045 467.523 133.341 467.523C132.636 467.523 131.998 467.701 131.426 468.057C130.858 468.413 130.405 468.938 130.068 469.631C129.735 470.324 129.568 471.174 129.568 472.182C129.568 473.189 129.735 474.04 130.068 474.733C130.405 475.426 130.858 475.951 131.426 476.307C131.998 476.663 132.636 476.841 133.341 476.841C134.045 476.841 134.682 476.663 135.25 476.307C135.822 475.951 136.275 475.426 136.608 474.733C136.945 474.04 137.114 473.189 137.114 472.182ZM147.801 469.273L144.574 478H143.21L139.983 469.273H141.438L143.847 476.227H143.938L146.347 469.273H147.801ZM152.918 478.182C152.077 478.182 151.351 477.996 150.741 477.625C150.135 477.25 149.668 476.727 149.338 476.057C149.012 475.383 148.849 474.598 148.849 473.705C148.849 472.811 149.012 472.023 149.338 471.341C149.668 470.655 150.126 470.121 150.713 469.739C151.304 469.352 151.993 469.159 152.781 469.159C153.236 469.159 153.685 469.235 154.128 469.386C154.571 469.538 154.974 469.784 155.338 470.125C155.702 470.462 155.991 470.909 156.207 471.466C156.423 472.023 156.531 472.708 156.531 473.523V474.091H149.804V472.932H155.168C155.168 472.439 155.069 472 154.872 471.614C154.679 471.227 154.402 470.922 154.043 470.699C153.687 470.475 153.266 470.364 152.781 470.364C152.247 470.364 151.785 470.496 151.395 470.761C151.009 471.023 150.711 471.364 150.503 471.784C150.295 472.205 150.19 472.655 150.19 473.136V473.909C150.19 474.568 150.304 475.127 150.531 475.585C150.762 476.04 151.082 476.386 151.491 476.625C151.901 476.86 152.376 476.977 152.918 476.977C153.27 476.977 153.588 476.928 153.872 476.83C154.16 476.727 154.408 476.576 154.616 476.375C154.825 476.17 154.986 475.917 155.099 475.614L156.395 475.977C156.259 476.417 156.029 476.803 155.707 477.136C155.385 477.466 154.988 477.723 154.514 477.909C154.041 478.091 153.509 478.182 152.918 478.182ZM158.571 478V469.273H159.866V470.591H159.957C160.116 470.159 160.404 469.809 160.821 469.54C161.238 469.271 161.707 469.136 162.23 469.136C162.329 469.136 162.452 469.138 162.599 469.142C162.747 469.146 162.859 469.152 162.935 469.159V470.523C162.889 470.511 162.785 470.494 162.622 470.472C162.463 470.445 162.295 470.432 162.116 470.432C161.692 470.432 161.313 470.521 160.98 470.699C160.651 470.873 160.389 471.116 160.196 471.426C160.007 471.733 159.912 472.083 159.912 472.477V478H158.571ZM170.706 471.227L169.501 471.568C169.426 471.367 169.314 471.172 169.166 470.983C169.022 470.79 168.825 470.631 168.575 470.506C168.325 470.381 168.005 470.318 167.615 470.318C167.081 470.318 166.636 470.441 166.28 470.688C165.928 470.93 165.751 471.239 165.751 471.614C165.751 471.947 165.873 472.21 166.115 472.403C166.357 472.597 166.736 472.758 167.251 472.886L168.547 473.205C169.327 473.394 169.909 473.684 170.291 474.074C170.674 474.46 170.865 474.958 170.865 475.568C170.865 476.068 170.721 476.515 170.433 476.909C170.149 477.303 169.751 477.614 169.24 477.841C168.729 478.068 168.134 478.182 167.456 478.182C166.566 478.182 165.829 477.989 165.246 477.602C164.662 477.216 164.293 476.652 164.138 475.909L165.411 475.591C165.532 476.061 165.761 476.413 166.098 476.648C166.439 476.883 166.884 477 167.433 477C168.058 477 168.554 476.867 168.922 476.602C169.293 476.333 169.479 476.011 169.479 475.636C169.479 475.333 169.373 475.08 169.161 474.875C168.948 474.667 168.623 474.511 168.183 474.409L166.729 474.068C165.929 473.879 165.342 473.585 164.967 473.188C164.596 472.786 164.411 472.284 164.411 471.682C164.411 471.189 164.549 470.754 164.825 470.375C165.106 469.996 165.486 469.699 165.967 469.483C166.452 469.267 167.001 469.159 167.615 469.159C168.479 469.159 169.157 469.348 169.649 469.727C170.145 470.106 170.498 470.606 170.706 471.227ZM172.884 478V469.273H174.224V478H172.884ZM173.565 467.818C173.304 467.818 173.079 467.729 172.889 467.551C172.704 467.373 172.611 467.159 172.611 466.909C172.611 466.659 172.704 466.445 172.889 466.267C173.079 466.089 173.304 466 173.565 466C173.827 466 174.05 466.089 174.236 466.267C174.425 466.445 174.52 466.659 174.52 466.909C174.52 467.159 174.425 467.373 174.236 467.551C174.05 467.729 173.827 467.818 173.565 467.818ZM180.203 481.455C179.555 481.455 178.999 481.371 178.533 481.205C178.067 481.042 177.679 480.826 177.368 480.557C177.061 480.292 176.817 480.008 176.635 479.705L177.703 478.955C177.824 479.114 177.978 479.295 178.163 479.5C178.349 479.708 178.603 479.888 178.925 480.04C179.25 480.195 179.677 480.273 180.203 480.273C180.908 480.273 181.489 480.102 181.947 479.761C182.406 479.42 182.635 478.886 182.635 478.159V476.386H182.521C182.423 476.545 182.283 476.742 182.101 476.977C181.923 477.208 181.665 477.415 181.328 477.597C180.995 477.775 180.544 477.864 179.976 477.864C179.271 477.864 178.639 477.697 178.078 477.364C177.521 477.03 177.08 476.545 176.754 475.909C176.432 475.273 176.271 474.5 176.271 473.591C176.271 472.697 176.429 471.919 176.743 471.256C177.057 470.589 177.495 470.074 178.055 469.71C178.616 469.343 179.264 469.159 179.999 469.159C180.567 469.159 181.018 469.254 181.351 469.443C181.688 469.629 181.946 469.841 182.124 470.08C182.305 470.314 182.446 470.508 182.544 470.659H182.68V469.273H183.976V478.25C183.976 479 183.805 479.61 183.464 480.08C183.127 480.553 182.673 480.9 182.101 481.119C181.533 481.343 180.9 481.455 180.203 481.455ZM180.158 476.659C180.696 476.659 181.15 476.536 181.521 476.29C181.893 476.044 182.175 475.689 182.368 475.227C182.561 474.765 182.658 474.212 182.658 473.568C182.658 472.939 182.563 472.384 182.374 471.903C182.184 471.422 181.904 471.045 181.533 470.773C181.161 470.5 180.703 470.364 180.158 470.364C179.589 470.364 179.116 470.508 178.737 470.795C178.362 471.083 178.08 471.47 177.891 471.955C177.705 472.439 177.612 472.977 177.612 473.568C177.612 474.174 177.707 474.71 177.896 475.176C178.089 475.638 178.374 476.002 178.749 476.267C179.127 476.528 179.597 476.659 180.158 476.659ZM187.771 472.75V478H186.43V466.364H187.771V470.636H187.885C188.089 470.186 188.396 469.828 188.805 469.562C189.218 469.294 189.768 469.159 190.453 469.159C191.048 469.159 191.569 469.278 192.016 469.517C192.463 469.752 192.809 470.114 193.055 470.602C193.305 471.087 193.43 471.705 193.43 472.455V478H192.089V472.545C192.089 471.852 191.91 471.316 191.55 470.938C191.194 470.555 190.699 470.364 190.067 470.364C189.627 470.364 189.233 470.456 188.885 470.642C188.54 470.828 188.268 471.098 188.067 471.455C187.87 471.811 187.771 472.242 187.771 472.75ZM199.679 469.273V470.409H195.156V469.273H199.679ZM196.474 467.182H197.815V475.5C197.815 475.879 197.87 476.163 197.98 476.352C198.094 476.538 198.238 476.663 198.412 476.727C198.59 476.788 198.777 476.818 198.974 476.818C199.122 476.818 199.243 476.811 199.338 476.795C199.433 476.777 199.509 476.761 199.565 476.75L199.838 477.955C199.747 477.989 199.62 478.023 199.457 478.057C199.295 478.095 199.088 478.114 198.838 478.114C198.459 478.114 198.088 478.032 197.724 477.869C197.365 477.706 197.065 477.458 196.827 477.125C196.592 476.792 196.474 476.371 196.474 475.864V467.182Z" fill="#6B6B6B"/>
<path d="M29.062 475.348C28.9787 475.123 28.9787 474.877 29.062 474.652C29.8737 472.684 31.2515 471.001 33.0208 469.817C34.79 468.633 36.8711 468.001 39 468.001C41.129 468.001 43.21 468.633 44.9792 469.817C46.7485 471.001 48.1263 472.684 48.938 474.652C49.0214 474.877 49.0214 475.123 48.938 475.348C48.1263 477.316 46.7485 478.999 44.9792 480.183C43.21 481.367 41.129 481.999 39 481.999C36.8711 481.999 34.79 481.367 33.0208 480.183C31.2515 478.999 29.8737 477.316 29.062 475.348Z" stroke="black" stroke-width="2" stroke-linecap="round" stroke-linejoin="round"/>
<path d="M39 478C40.6569 478 42 476.657 42 475C42 473.343 40.6569 472 39 472C37.3432 472 36 473.343 36 475C36 476.657 37.3432 478 39 478Z" stroke="black" stroke-width="2" stroke-linecap="round" stroke-linejoin="round"/>
<path d="M228 579H20V531H228V579Z" stroke="#E5E7EB"/>
<path d="M220 531C224.418 531 228 534.582 228 539V571C228 575.418 224.418 579 220 579H28C23.5817 579 20 575.418 20 571V539C20 534.582 23.5817 531 28 531H220Z" stroke="#E5E7EB"/>
<path d="M71.7727 548.273C71.7045 547.697 71.428 547.25 70.9432 546.932C70.4583 546.614 69.8636 546.455 69.1591 546.455C68.6439 546.455 68.1932 546.538 67.8068 546.705C67.4242 546.871 67.125 547.1 66.9091 547.392C66.697 547.684 66.5909 548.015 66.5909 548.386C66.5909 548.697 66.6648 548.964 66.8125 549.188C66.964 549.407 67.1572 549.591 67.392 549.739C67.6269 549.883 67.8731 550.002 68.1307 550.097C68.3883 550.187 68.625 550.261 68.8409 550.318L70.0227 550.636C70.3258 550.716 70.6629 550.826 71.0341 550.966C71.4091 551.106 71.767 551.297 72.108 551.54C72.4527 551.778 72.7367 552.085 72.9602 552.46C73.1837 552.835 73.2955 553.295 73.2955 553.841C73.2955 554.47 73.1307 555.038 72.8011 555.545C72.4754 556.053 71.9981 556.456 71.3693 556.756C70.7443 557.055 69.9848 557.205 69.0909 557.205C68.2576 557.205 67.536 557.07 66.9261 556.801C66.3201 556.532 65.8428 556.157 65.4943 555.676C65.1496 555.195 64.9545 554.636 64.9091 554H66.3636C66.4015 554.439 66.5492 554.803 66.8068 555.091C67.0682 555.375 67.3977 555.587 67.7955 555.727C68.197 555.864 68.6288 555.932 69.0909 555.932C69.6288 555.932 70.1117 555.845 70.5398 555.67C70.9678 555.492 71.3068 555.246 71.5568 554.932C71.8068 554.614 71.9318 554.242 71.9318 553.818C71.9318 553.432 71.8239 553.117 71.608 552.875C71.392 552.633 71.108 552.436 70.7557 552.284C70.4034 552.133 70.0227 552 69.6136 551.886L68.1818 551.477C67.2727 551.216 66.553 550.843 66.0227 550.358C65.4924 549.873 65.2273 549.239 65.2273 548.455C65.2273 547.803 65.4034 547.235 65.7557 546.75C66.1117 546.261 66.589 545.883 67.1875 545.614C67.7898 545.341 68.4621 545.205 69.2045 545.205C69.9545 545.205 70.6212 545.339 71.2045 545.608C71.7879 545.873 72.25 546.237 72.5909 546.699C72.9356 547.161 73.1174 547.686 73.1364 548.273H71.7727ZM79.0895 557.182C78.2486 557.182 77.5232 556.996 76.9134 556.625C76.3073 556.25 75.8395 555.727 75.5099 555.057C75.1842 554.383 75.0213 553.598 75.0213 552.705C75.0213 551.811 75.1842 551.023 75.5099 550.341C75.8395 549.655 76.2978 549.121 76.8849 548.739C77.4759 548.352 78.1652 548.159 78.9531 548.159C79.4077 548.159 79.8565 548.235 80.2997 548.386C80.7429 548.538 81.1463 548.784 81.5099 549.125C81.8736 549.462 82.1634 549.909 82.3793 550.466C82.5952 551.023 82.7031 551.708 82.7031 552.523V553.091H75.9759V551.932H81.3395C81.3395 551.439 81.241 551 81.044 550.614C80.8509 550.227 80.5743 549.922 80.2145 549.699C79.8584 549.475 79.438 549.364 78.9531 549.364C78.419 549.364 77.9569 549.496 77.5668 549.761C77.1804 550.023 76.883 550.364 76.6747 550.784C76.4664 551.205 76.3622 551.655 76.3622 552.136V552.909C76.3622 553.568 76.4759 554.127 76.7031 554.585C76.9342 555.04 77.2543 555.386 77.6634 555.625C78.0724 555.86 78.5478 555.977 79.0895 555.977C79.4418 555.977 79.7599 555.928 80.044 555.83C80.3319 555.727 80.58 555.576 80.7884 555.375C80.9967 555.17 81.1577 554.917 81.2713 554.614L82.5668 554.977C82.4304 555.417 82.2012 555.803 81.8793 556.136C81.5573 556.466 81.1596 556.723 80.6861 556.909C80.2126 557.091 79.6804 557.182 79.0895 557.182ZM88.5384 548.273V549.409H84.0156V548.273H88.5384ZM85.3338 546.182H86.6747V554.5C86.6747 554.879 86.7296 555.163 86.8395 555.352C86.9531 555.538 87.0971 555.663 87.2713 555.727C87.4493 555.788 87.6368 555.818 87.8338 555.818C87.9815 555.818 88.1027 555.811 88.1974 555.795C88.2921 555.777 88.3679 555.761 88.4247 555.75L88.6974 556.955C88.6065 556.989 88.4796 557.023 88.3168 557.057C88.1539 557.095 87.9474 557.114 87.6974 557.114C87.3187 557.114 86.9474 557.032 86.5838 556.869C86.224 556.706 85.9247 556.458 85.6861 556.125C85.4512 555.792 85.3338 555.371 85.3338 554.864V546.182ZM94.3509 548.273V549.409H89.8281V548.273H94.3509ZM91.1463 546.182H92.4872V554.5C92.4872 554.879 92.5421 555.163 92.652 555.352C92.7656 555.538 92.9096 555.663 93.0838 555.727C93.2618 555.788 93.4493 555.818 93.6463 555.818C93.794 555.818 93.9152 555.811 94.0099 555.795C94.1046 555.777 94.1804 555.761 94.2372 555.75L94.5099 556.955C94.419 556.989 94.2921 557.023 94.1293 557.057C93.9664 557.095 93.7599 557.114 93.5099 557.114C93.1312 557.114 92.7599 557.032 92.3963 556.869C92.0365 556.706 91.7372 556.458 91.4986 556.125C91.2637 555.792 91.1463 555.371 91.1463 554.864V546.182ZM96.3679 557V548.273H97.7088V557H96.3679ZM97.0497 546.818C96.7884 546.818 96.563 546.729 96.3736 546.551C96.188 546.373 96.0952 546.159 96.0952 545.909C96.0952 545.659 96.188 545.445 96.3736 545.267C96.563 545.089 96.7884 545 97.0497 545C97.3111 545 97.5346 545.089 97.7202 545.267C97.9096 545.445 98.0043 545.659 98.0043 545.909C98.0043 546.159 97.9096 546.373 97.7202 546.551C97.5346 546.729 97.3111 546.818 97.0497 546.818ZM101.506 551.75V557H100.165V548.273H101.46V549.636H101.574C101.778 549.193 102.089 548.837 102.506 548.568C102.922 548.295 103.46 548.159 104.119 548.159C104.71 548.159 105.227 548.28 105.67 548.523C106.114 548.761 106.458 549.125 106.705 549.614C106.951 550.098 107.074 550.712 107.074 551.455V557H105.733V551.545C105.733 550.86 105.555 550.326 105.199 549.943C104.843 549.557 104.354 549.364 103.733 549.364C103.305 549.364 102.922 549.456 102.585 549.642C102.252 549.828 101.989 550.098 101.795 550.455C101.602 550.811 101.506 551.242 101.506 551.75ZM113.047 560.455C112.399 560.455 111.842 560.371 111.376 560.205C110.911 560.042 110.522 559.826 110.212 559.557C109.905 559.292 109.661 559.008 109.479 558.705L110.547 557.955C110.668 558.114 110.821 558.295 111.007 558.5C111.193 558.708 111.446 558.888 111.768 559.04C112.094 559.195 112.52 559.273 113.047 559.273C113.751 559.273 114.333 559.102 114.791 558.761C115.25 558.42 115.479 557.886 115.479 557.159V555.386H115.365C115.267 555.545 115.126 555.742 114.945 555.977C114.767 556.208 114.509 556.415 114.172 556.597C113.839 556.775 113.388 556.864 112.82 556.864C112.115 556.864 111.482 556.697 110.922 556.364C110.365 556.03 109.924 555.545 109.598 554.909C109.276 554.273 109.115 553.5 109.115 552.591C109.115 551.697 109.272 550.919 109.587 550.256C109.901 549.589 110.339 549.074 110.899 548.71C111.46 548.343 112.107 548.159 112.842 548.159C113.411 548.159 113.861 548.254 114.195 548.443C114.532 548.629 114.789 548.841 114.967 549.08C115.149 549.314 115.289 549.508 115.388 549.659H115.524V548.273H116.82V557.25C116.82 558 116.649 558.61 116.308 559.08C115.971 559.553 115.517 559.9 114.945 560.119C114.376 560.343 113.744 560.455 113.047 560.455ZM113.001 555.659C113.539 555.659 113.994 555.536 114.365 555.29C114.736 555.044 115.018 554.689 115.212 554.227C115.405 553.765 115.501 553.212 115.501 552.568C115.501 551.939 115.407 551.384 115.217 550.903C115.028 550.422 114.748 550.045 114.376 549.773C114.005 549.5 113.547 549.364 113.001 549.364C112.433 549.364 111.96 549.508 111.581 549.795C111.206 550.083 110.924 550.47 110.734 550.955C110.549 551.439 110.456 551.977 110.456 552.568C110.456 553.174 110.551 553.71 110.74 554.176C110.933 554.638 111.217 555.002 111.592 555.267C111.971 555.528 112.441 555.659 113.001 555.659ZM125.456 550.227L124.251 550.568C124.176 550.367 124.064 550.172 123.916 549.983C123.772 549.79 123.575 549.631 123.325 549.506C123.075 549.381 122.755 549.318 122.365 549.318C121.831 549.318 121.386 549.441 121.03 549.688C120.678 549.93 120.501 550.239 120.501 550.614C120.501 550.947 120.623 551.21 120.865 551.403C121.107 551.597 121.486 551.758 122.001 551.886L123.297 552.205C124.077 552.394 124.659 552.684 125.041 553.074C125.424 553.46 125.615 553.958 125.615 554.568C125.615 555.068 125.471 555.515 125.183 555.909C124.899 556.303 124.501 556.614 123.99 556.841C123.479 557.068 122.884 557.182 122.206 557.182C121.316 557.182 120.579 556.989 119.996 556.602C119.412 556.216 119.043 555.652 118.888 554.909L120.161 554.591C120.282 555.061 120.511 555.413 120.848 555.648C121.189 555.883 121.634 556 122.183 556C122.808 556 123.304 555.867 123.672 555.602C124.043 555.333 124.229 555.011 124.229 554.636C124.229 554.333 124.123 554.08 123.911 553.875C123.698 553.667 123.373 553.511 122.933 553.409L121.479 553.068C120.679 552.879 120.092 552.585 119.717 552.188C119.346 551.786 119.161 551.284 119.161 550.682C119.161 550.189 119.299 549.754 119.575 549.375C119.856 548.996 120.236 548.699 120.717 548.483C121.202 548.267 121.751 548.159 122.365 548.159C123.229 548.159 123.907 548.348 124.399 548.727C124.895 549.106 125.248 549.606 125.456 550.227Z" fill="#6B6B6B"/>
<path d="M37.6711 546.136C37.7262 545.556 37.9954 545.018 38.4262 544.626C38.8569 544.235 39.4183 544.017 40.0006 544.017C40.5828 544.017 41.1442 544.235 41.575 544.626C42.0057 545.018 42.275 545.556 42.3301 546.136C42.3632 546.51 42.486 546.871 42.6882 547.188C42.8904 547.505 43.1659 547.769 43.4915 547.957C43.8171 548.145 44.1832 548.251 44.5588 548.268C44.9343 548.284 45.3083 548.21 45.6491 548.051C46.1782 547.811 46.7777 547.776 47.3311 547.953C47.8844 548.131 48.3519 548.508 48.6426 549.011C48.9333 549.514 49.0263 550.108 48.9037 550.676C48.7811 551.244 48.4515 551.746 47.9791 552.084C47.6714 552.3 47.4203 552.587 47.247 552.92C47.0736 553.253 46.9831 553.624 46.9831 553.999C46.9831 554.375 47.0736 554.746 47.247 555.079C47.4203 555.412 47.6714 555.699 47.9791 555.915C48.4515 556.253 48.7811 556.755 48.9037 557.323C49.0263 557.891 48.9333 558.485 48.6426 558.988C48.3519 559.491 47.8844 559.868 47.3311 560.046C46.7777 560.223 46.1782 560.188 45.6491 559.948C45.3083 559.789 44.9343 559.715 44.5588 559.731C44.1832 559.748 43.8171 559.854 43.4915 560.042C43.1659 560.23 42.8904 560.494 42.6882 560.811C42.486 561.128 42.3632 561.489 42.3301 561.863C42.275 562.443 42.0057 562.981 41.575 563.373C41.1442 563.764 40.5828 563.982 40.0006 563.982C39.4183 563.982 38.8569 563.764 38.4262 563.373C37.9954 562.981 37.7262 562.443 37.6711 561.863C37.638 561.488 37.5152 561.127 37.3129 560.81C37.1107 560.493 36.835 560.23 36.5093 560.042C36.1836 559.854 35.8173 559.747 35.4416 559.731C35.0659 559.715 34.6919 559.789 34.3511 559.948C33.8219 560.188 33.2224 560.223 32.6691 560.046C32.1157 559.868 31.6482 559.491 31.3575 558.988C31.0669 558.485 30.9738 557.891 31.0964 557.323C31.2191 556.755 31.5487 556.253 32.0211 555.915C32.3287 555.699 32.5798 555.412 32.7531 555.079C32.9265 554.746 33.017 554.375 33.017 553.999C33.017 553.624 32.9265 553.253 32.7531 552.92C32.5798 552.587 32.3287 552.3 32.0211 552.084C31.5493 551.745 31.2203 551.244 31.098 550.676C30.9756 550.108 31.0687 549.516 31.359 549.013C31.6494 548.51 32.1164 548.133 32.6692 547.955C33.2219 547.778 33.821 547.812 34.3501 548.051C34.6908 548.21 35.0648 548.284 35.4404 548.268C35.8159 548.251 36.182 548.145 36.5076 547.957C36.8332 547.769 37.1088 547.505 37.3109 547.188C37.5131 546.871 37.6359 546.51 37.6691 546.136M43.0001 554C43.0001 555.657 41.6569 557 40.0001 557C38.3432 557 37.0001 555.657 37.0001 554C37.0001 552.343 38.3432 551 40.0001 551C41.6569 551 43.0001 552.343 43.0001 554Z" stroke="black" stroke-width="2" stroke-linecap="round" stroke-linejoin="round"/>
<defs>
<clipPath id="clip0_7_2">
<rect width="215" height="69" fill="white" transform="translate(15 8)"/>
</clipPath>
</defs>
</svg>
