<svg width="19" height="21" viewBox="0 0 19 21" fill="none" xmlns="http://www.w3.org/2000/svg">
<path d="M9.50025 7.87501V11.375M9.50025 14.875H9.50817M17.2032 15.75L10.8698 3.50001C10.7317 3.23069 10.5315 3.00668 10.2895 2.85082C10.0475 2.69497 9.77241 2.61285 9.49233 2.61285C9.21225 2.61285 8.93718 2.69497 8.69518 2.85082C8.45319 3.00668 8.25293 3.23069 8.11483 3.50001L1.7815 15.75C1.64191 16.0172 1.56872 16.3204 1.56934 16.629C1.56996 16.9375 1.64437 17.2404 1.78502 17.5069C1.92567 17.7734 2.12757 17.994 2.37026 18.1465C2.61294 18.299 2.88778 18.3778 3.16692 18.375H15.8336C16.1114 18.3747 16.3842 18.2936 16.6247 18.1399C16.8652 17.9862 17.0648 17.7652 17.2036 17.4992C17.3423 17.2333 17.4154 16.9316 17.4153 16.6246C17.4152 16.3175 17.3421 16.0159 17.2032 15.75Z" stroke="black" stroke-width="2" stroke-linecap="round" stroke-linejoin="round"/>
</svg>
