<svg width="24" height="24" viewBox="0 0 24 24" fill="none" xmlns="http://www.w3.org/2000/svg">
<path d="M9.67033 4.13603C9.72543 3.55637 9.99466 3.01807 10.4254 2.62631C10.8562 2.23454 11.4176 2.01746 11.9998 2.01746C12.5821 2.01746 13.1435 2.23454 13.5742 2.62631C14.005 3.01807 14.2742 3.55637 14.3293 4.13603C14.3624 4.51048 14.4853 4.87145 14.6875 5.18837C14.8896 5.50529 15.1652 5.76884 15.4908 5.95671C15.8164 6.14457 16.1825 6.25123 16.558 6.26765C16.9336 6.28407 17.3076 6.20977 17.6483 6.05103C18.1774 5.81081 18.777 5.77605 19.3303 5.95352C19.8837 6.13098 20.3512 6.50798 20.6418 7.01113C20.9325 7.51429 21.0256 8.1076 20.903 8.6756C20.7803 9.2436 20.4507 9.74565 19.9783 10.084C19.6707 10.2999 19.4196 10.5866 19.2462 10.9201C19.0729 11.2535 18.9824 11.6237 18.9824 11.9995C18.9824 12.3753 19.0729 12.7456 19.2462 13.079C19.4196 13.4124 19.6707 13.6992 19.9783 13.915C20.4507 14.2534 20.7803 14.7555 20.903 15.3235C21.0256 15.8915 20.9325 16.4848 20.6418 16.9879C20.3512 17.4911 19.8837 17.8681 19.3303 18.0455C18.777 18.223 18.1774 18.1883 17.6483 17.948C17.3076 17.7893 16.9336 17.715 16.558 17.7314C16.1825 17.7478 15.8164 17.8545 15.4908 18.0424C15.1652 18.2302 14.8896 18.4938 14.6875 18.8107C14.4853 19.1276 14.3624 19.4886 14.3293 19.863C14.2742 20.4427 14.005 20.981 13.5742 21.3727C13.1435 21.7645 12.5821 21.9816 11.9998 21.9816C11.4176 21.9816 10.8562 21.7645 10.4254 21.3727C9.99466 20.981 9.72543 20.4427 9.67033 19.863C9.63727 19.4884 9.51443 19.1273 9.31219 18.8103C9.10996 18.4933 8.8343 18.2296 8.50856 18.0418C8.18282 17.8539 7.8166 17.7472 7.44091 17.7309C7.06522 17.7146 6.69113 17.7891 6.35033 17.948C5.82122 18.1883 5.22165 18.223 4.66833 18.0455C4.115 17.8681 3.6475 17.4911 3.35681 16.9879C3.06612 16.4848 2.97304 15.8915 3.09569 15.3235C3.21833 14.7555 3.54793 14.2534 4.02033 13.915C4.32795 13.6992 4.57906 13.4124 4.75242 13.079C4.92577 12.7456 5.01628 12.3753 5.01628 11.9995C5.01628 11.6237 4.92577 11.2535 4.75242 10.9201C4.57906 10.5866 4.32795 10.2999 4.02033 10.084C3.54859 9.74547 3.21958 9.24362 3.09723 8.67601C2.97488 8.1084 3.06794 7.51557 3.35831 7.01274C3.64869 6.50991 4.11564 6.13301 4.66842 5.95527C5.2212 5.77753 5.82031 5.81166 6.34933 6.05103C6.69009 6.20977 7.06407 6.28407 7.43963 6.26765C7.81519 6.25123 8.18126 6.14457 8.50687 5.95671C8.83247 5.76884 9.10802 5.50529 9.31019 5.18837C9.51237 4.87145 9.63521 4.51048 9.66833 4.13603M14.9993 12C14.9993 13.6569 13.6562 15 11.9993 15C10.3425 15 8.99933 13.6569 8.99933 12C8.99933 10.3432 10.3425 9.00003 11.9993 9.00003C13.6562 9.00003 14.9993 10.3432 14.9993 12Z" stroke="black" stroke-width="2" stroke-linecap="round" stroke-linejoin="round"/>
</svg>
