<svg width="24" height="24" viewBox="0 0 24 24" fill="none" xmlns="http://www.w3.org/2000/svg">
<path d="M3.00093 11L20.2009 6.00001L19.4009 3.40001C19.1009 2.40001 18.0009 1.80001 16.9009 2.10001L3.40093 6.10001C2.40093 6.40001 1.80093 7.50001 2.10093 8.60001L3.00093 11ZM3.00093 11H21.0009V19C21.0009 19.5304 20.7902 20.0392 20.4151 20.4142C20.0401 20.7893 19.5314 21 19.0009 21H5.00093C4.4705 21 3.96179 20.7893 3.58672 20.4142C3.21164 20.0392 3.00093 19.5304 3.00093 19V11ZM6.20093 5.30001L9.30093 9.20001M12.4009 3.40001L15.5009 7.40001" stroke="black" stroke-width="2" stroke-linecap="round" stroke-linejoin="round"/>
</svg>
