<svg width="45" height="41" viewBox="0 0 45 41" fill="none" xmlns="http://www.w3.org/2000/svg">
<path d="M9.375 8.54167C9.3748 7.9405 9.54871 7.34992 9.87916 6.82956C10.2096 6.30921 10.6849 5.87751 11.257 5.57805C11.8292 5.27859 12.4779 5.12197 13.1377 5.12401C13.7976 5.12605 14.4451 5.28668 15.015 5.58967L37.5094 17.5446C38.0771 17.8447 38.5483 18.2753 38.8761 18.7934C39.2039 19.3115 39.3767 19.8988 39.3773 20.4968C39.3779 21.0948 39.2062 21.6825 38.8794 22.201C38.5526 22.7196 38.0821 23.151 37.515 23.452L15.015 35.4103C14.4451 35.7133 13.7976 35.874 13.1377 35.876C12.4779 35.878 11.8292 35.7214 11.257 35.422C10.6849 35.1225 10.2096 34.6908 9.87916 34.1704C9.54871 33.6501 9.3748 33.0595 9.375 32.4583V8.54167Z" stroke="white" stroke-width="3" stroke-linecap="round" stroke-linejoin="round"/>
</svg>
