<svg width="87" height="48" viewBox="0 0 87 48" fill="none" xmlns="http://www.w3.org/2000/svg">
<path d="M78.8281 0C83.2464 0 86.8281 3.58172 86.8281 8V40C86.8281 44.4183 83.2464 48 78.8281 48H8C3.58172 48 1.28855e-07 44.4183 0 40V8C5.15422e-07 3.58172 3.58172 0 8 0H78.8281Z" fill="#6366F1"/>
<path d="M78.8281 0C83.2464 0 86.8281 3.58172 86.8281 8V40C86.8281 44.4183 83.2464 48 78.8281 48H8C3.58172 48 1.28855e-07 44.4183 0 40V8C5.15422e-07 3.58172 3.58172 0 8 0H78.8281Z" stroke="#E5E7EB"/>
<path d="M27.801 17H26.5083L30.247 6.81818H31.5197L35.2583 17H33.9657L30.9231 8.42898H30.8436L27.801 17ZM28.2782 13.0227H33.4885V14.1165H28.2782V13.0227ZM41.4977 13.8778V9.36364H42.671V17H41.4977V15.7074H41.4181C41.2392 16.0952 40.9608 16.425 40.5829 16.6967C40.2051 16.9652 39.7278 17.0994 39.1511 17.0994C38.6738 17.0994 38.2496 16.995 37.8784 16.7862C37.5072 16.5741 37.2155 16.2559 37.0034 15.8317C36.7913 15.4041 36.6852 14.8655 36.6852 14.2159V9.36364H37.8585V14.1364C37.8585 14.6932 38.0143 15.1373 38.3258 15.4688C38.6407 15.8002 39.0417 15.9659 39.5289 15.9659C39.8206 15.9659 40.1172 15.8913 40.4189 15.7422C40.7238 15.593 40.979 15.3643 41.1845 15.0561C41.3933 14.7479 41.4977 14.3551 41.4977 13.8778ZM47.7035 17.1591C47.0671 17.1591 46.5053 16.9983 46.0181 16.6768C45.5309 16.352 45.1497 15.8946 44.8746 15.3047C44.5996 14.7114 44.462 14.0104 44.462 13.2017C44.462 12.3996 44.5996 11.7036 44.8746 11.1136C45.1497 10.5237 45.5326 10.0679 46.0231 9.74645C46.5136 9.42495 47.0804 9.2642 47.7234 9.2642C48.2205 9.2642 48.6133 9.34706 48.9016 9.51278C49.1933 9.67519 49.4154 9.8608 49.5678 10.0696C49.7236 10.2751 49.8446 10.4441 49.9308 10.5767H50.0302V6.81818H51.2035V17H50.07V15.8267H49.9308C49.8446 15.9659 49.7219 16.1416 49.5629 16.3537C49.4038 16.5625 49.1767 16.7498 48.8817 16.9155C48.5868 17.0779 48.194 17.1591 47.7035 17.1591ZM47.8626 16.1051C48.3332 16.1051 48.7309 15.9825 49.0558 15.7372C49.3806 15.4886 49.6275 15.1456 49.7965 14.7081C49.9656 14.2673 50.0501 13.7585 50.0501 13.1818C50.0501 12.6117 49.9672 12.1129 49.8015 11.6854C49.6358 11.2545 49.3905 10.9197 49.0657 10.6811C48.7409 10.4392 48.3398 10.3182 47.8626 10.3182C47.3654 10.3182 46.9511 10.4458 46.6197 10.701C46.2915 10.9529 46.0446 11.2959 45.8789 11.7301C45.7165 12.161 45.6353 12.6449 45.6353 13.1818C45.6353 13.7254 45.7182 14.2192 45.8839 14.6634C46.0529 15.1042 46.3015 15.4555 46.6296 15.7173C46.9611 15.9759 47.372 16.1051 47.8626 16.1051ZM53.5153 17V9.36364H54.6886V17H53.5153ZM54.1119 8.09091C53.8832 8.09091 53.686 8.01302 53.5202 7.85724C53.3578 7.70147 53.2766 7.5142 53.2766 7.29545C53.2766 7.0767 53.3578 6.88944 53.5202 6.73366C53.686 6.57789 53.8832 6.5 54.1119 6.5C54.3406 6.5 54.5361 6.57789 54.6985 6.73366C54.8642 6.88944 54.9471 7.0767 54.9471 7.29545C54.9471 7.5142 54.8642 7.70147 54.6985 7.85724C54.5361 8.01302 54.3406 8.09091 54.1119 8.09091ZM60.1586 9.36364V10.358H56.2012V9.36364H60.1586ZM57.3546 7.53409H58.5279V14.8125C58.5279 15.1439 58.5759 15.3925 58.6721 15.5582C58.7715 15.7206 58.8974 15.83 59.0499 15.8864C59.2057 15.9394 59.3697 15.9659 59.5421 15.9659C59.6713 15.9659 59.7774 15.9593 59.8603 15.946C59.9431 15.9295 60.0094 15.9162 60.0591 15.9062L60.2978 16.9602C60.2182 16.9901 60.1072 17.0199 59.9647 17.0497C59.8221 17.0829 59.6415 17.0994 59.4228 17.0994C59.0913 17.0994 58.7665 17.0282 58.4483 16.8857C58.1335 16.7431 57.8716 16.526 57.6628 16.2344C57.4573 15.9427 57.3546 15.5748 57.3546 15.1307V7.53409Z" fill="white"/>
<path d="M23.7056 37V26.8182H27.146C27.9447 26.8182 28.5977 26.9624 29.1048 27.2507C29.6152 27.5357 29.993 27.9219 30.2383 28.4091C30.4835 28.8963 30.6062 29.4399 30.6062 30.0398C30.6062 30.6397 30.4835 31.1849 30.2383 31.6754C29.9963 32.166 29.6218 32.5571 29.1147 32.8487C28.6076 33.1371 27.958 33.2812 27.1658 33.2812H24.6999V32.1875H27.1261C27.6729 32.1875 28.1121 32.093 28.4435 31.9041C28.775 31.7152 29.0153 31.46 29.1644 31.1385C29.3169 30.8137 29.3931 30.4474 29.3931 30.0398C29.3931 29.6321 29.3169 29.2675 29.1644 28.946C29.0153 28.6245 28.7733 28.3726 28.4386 28.1903C28.1038 28.0047 27.6597 27.9119 27.1062 27.9119H24.9386V37H23.7056ZM32.4332 37V29.3636H33.5668V30.517H33.6463C33.7855 30.1392 34.0374 29.8326 34.402 29.5973C34.7666 29.362 35.1776 29.2443 35.6349 29.2443C35.7211 29.2443 35.8288 29.246 35.9581 29.2493C36.0874 29.2526 36.1851 29.2576 36.2514 29.2642V30.4574C36.2116 30.4474 36.1205 30.4325 35.978 30.4126C35.8388 30.3894 35.6913 30.3778 35.5355 30.3778C35.1643 30.3778 34.8329 30.4557 34.5412 30.6115C34.2528 30.764 34.0241 30.9761 33.8551 31.2479C33.6894 31.5163 33.6065 31.8229 33.6065 32.1676V37H32.4332ZM40.5121 37.1591C39.8227 37.1591 39.2178 36.995 38.6974 36.6669C38.1804 36.3388 37.776 35.8797 37.4844 35.2898C37.196 34.6998 37.0518 34.0104 37.0518 33.2216C37.0518 32.4261 37.196 31.7318 37.4844 31.1385C37.776 30.5452 38.1804 30.0845 38.6974 29.7564C39.2178 29.4283 39.8227 29.2642 40.5121 29.2642C41.2015 29.2642 41.8047 29.4283 42.3217 29.7564C42.8421 30.0845 43.2464 30.5452 43.5348 31.1385C43.8265 31.7318 43.9723 32.4261 43.9723 33.2216C43.9723 34.0104 43.8265 34.6998 43.5348 35.2898C43.2464 35.8797 42.8421 36.3388 42.3217 36.6669C41.8047 36.995 41.2015 37.1591 40.5121 37.1591ZM40.5121 36.1051C41.0357 36.1051 41.4666 35.9709 41.8047 35.7024C42.1428 35.4339 42.393 35.081 42.5554 34.6435C42.7178 34.206 42.799 33.732 42.799 33.2216C42.799 32.7112 42.7178 32.2356 42.5554 31.7947C42.393 31.3539 42.1428 30.9976 41.8047 30.7259C41.4666 30.4541 41.0357 30.3182 40.5121 30.3182C39.9884 30.3182 39.5575 30.4541 39.2195 30.7259C38.8814 30.9976 38.6312 31.3539 38.4688 31.7947C38.3063 32.2356 38.2251 32.7112 38.2251 33.2216C38.2251 33.732 38.3063 34.206 38.4688 34.6435C38.6312 35.081 38.8814 35.4339 39.2195 35.7024C39.5575 35.9709 39.9884 36.1051 40.5121 36.1051ZM49.1639 29.3636V30.358H45.0474V29.3636H49.1639ZM46.2804 37V28.3097C46.2804 27.8722 46.3831 27.5076 46.5886 27.2159C46.7941 26.9242 47.0609 26.7055 47.389 26.5597C47.7172 26.4138 48.0635 26.3409 48.4281 26.3409C48.7164 26.3409 48.9518 26.3641 49.1341 26.4105C49.3163 26.4569 49.4522 26.5 49.5417 26.5398L49.2037 27.554C49.144 27.5341 49.0611 27.5092 48.9551 27.4794C48.8523 27.4496 48.7164 27.4347 48.5474 27.4347C48.1596 27.4347 47.8796 27.5324 47.7072 27.728C47.5382 27.9235 47.4537 28.2102 47.4537 28.5881V37H46.2804ZM50.8082 37V29.3636H51.9815V37H50.8082ZM51.4048 28.0909C51.1761 28.0909 50.9789 28.013 50.8132 27.8572C50.6508 27.7015 50.5696 27.5142 50.5696 27.2955C50.5696 27.0767 50.6508 26.8894 50.8132 26.7337C50.9789 26.5779 51.1761 26.5 51.4048 26.5C51.6335 26.5 51.8291 26.5779 51.9915 26.7337C52.1572 26.8894 52.2401 27.0767 52.2401 27.2955C52.2401 27.5142 52.1572 27.7015 51.9915 27.8572C51.8291 28.013 51.6335 28.0909 51.4048 28.0909ZM55.3038 26.8182V37H54.1305V26.8182H55.3038ZM60.6545 37.1591C59.9187 37.1591 59.284 36.9967 58.7504 36.6719C58.2201 36.3438 57.8107 35.8864 57.5224 35.2997C57.2373 34.7098 57.0948 34.0237 57.0948 33.2415C57.0948 32.4593 57.2373 31.7699 57.5224 31.1733C57.8107 30.5734 58.2118 30.1061 58.7255 29.7713C59.2425 29.4332 59.8458 29.2642 60.5352 29.2642C60.9329 29.2642 61.3256 29.3305 61.7134 29.4631C62.1012 29.5956 62.4542 29.8111 62.7724 30.1094C63.0906 30.4044 63.3441 30.7955 63.533 31.2827C63.7219 31.7699 63.8164 32.3698 63.8164 33.0824V33.5795H57.93V32.5653H62.6232C62.6232 32.1345 62.5371 31.75 62.3647 31.4119C62.1957 31.0739 61.9537 30.8071 61.6388 30.6115C61.3273 30.416 60.9594 30.3182 60.5352 30.3182C60.0678 30.3182 59.6635 30.4342 59.3221 30.6662C58.984 30.8949 58.7238 31.1932 58.5415 31.5611C58.3593 31.929 58.2681 32.3234 58.2681 32.7443V33.4205C58.2681 33.9972 58.3675 34.486 58.5664 34.8871C58.7686 35.2848 59.0487 35.5881 59.4066 35.7969C59.7646 36.0024 60.1805 36.1051 60.6545 36.1051C60.9627 36.1051 61.2411 36.062 61.4897 35.9759C61.7416 35.8864 61.9587 35.7538 62.141 35.5781C62.3233 35.3991 62.4641 35.1771 62.5636 34.9119L63.6971 35.2301C63.5778 35.6146 63.3772 35.9527 63.0955 36.2443C62.8138 36.5327 62.4658 36.758 62.0515 36.9205C61.6372 37.0795 61.1715 37.1591 60.6545 37.1591Z" fill="white"/>
</svg>
