<svg width="191" height="40" viewBox="0 0 191 40" fill="none" xmlns="http://www.w3.org/2000/svg">
<path d="M182.188 0C186.606 0 190.188 3.58172 190.188 8V32C190.188 36.4183 186.606 40 182.188 40H8C3.58172 40 0 36.4183 0 32V8C0 3.58172 3.58172 0 8 0H182.188Z" fill="#B91C1C"/>
<path d="M182.188 0C186.606 0 190.188 3.58172 190.188 8V32C190.188 36.4183 186.606 40 182.188 40H8C3.58172 40 0 36.4183 0 32V8C0 3.58172 3.58172 0 8 0H182.188Z" stroke="#E5E7EB"/>
<path d="M48.2862 25V13.3636H52.5476C53.3733 13.3636 54.0571 13.5 54.5987 13.7727C55.1404 14.0417 55.5457 14.4072 55.8146 14.8693C56.0836 15.3277 56.218 15.8447 56.218 16.4205C56.218 16.9053 56.129 17.3144 55.951 17.6477C55.773 17.9773 55.5343 18.2424 55.2351 18.4432C54.9396 18.6402 54.6139 18.7841 54.2578 18.875V18.9886C54.6442 19.0076 55.0211 19.1326 55.3885 19.3636C55.7597 19.5909 56.0665 19.9148 56.3089 20.3352C56.5514 20.7557 56.6726 21.267 56.6726 21.8693C56.6726 22.464 56.5324 22.9981 56.2521 23.4716C55.9756 23.9413 55.5476 24.3144 54.968 24.5909C54.3885 24.8636 53.648 25 52.7464 25H48.2862ZM50.0419 23.4943H52.576C53.4169 23.4943 54.0192 23.3314 54.3828 23.0057C54.7464 22.6799 54.9283 22.2727 54.9283 21.7841C54.9283 21.4167 54.8355 21.0795 54.6499 20.7727C54.4643 20.4659 54.1991 20.2216 53.8544 20.0398C53.5135 19.858 53.1082 19.767 52.6385 19.767H50.0419V23.4943ZM50.0419 18.3977H52.3942C52.7881 18.3977 53.1423 18.322 53.4567 18.1705C53.7749 18.0189 54.0268 17.8068 54.2124 17.5341C54.4018 17.2576 54.4964 16.9318 54.4964 16.5568C54.4964 16.0758 54.3279 15.6723 53.9908 15.3466C53.6536 15.0208 53.1366 14.858 52.4396 14.858H50.0419V18.3977ZM61.1584 25.1932C60.6054 25.1932 60.1054 25.0909 59.6584 24.8864C59.2114 24.678 58.8572 24.3769 58.5959 23.983C58.3383 23.589 58.2095 23.1061 58.2095 22.5341C58.2095 22.0417 58.3042 21.6364 58.4936 21.3182C58.683 21 58.9387 20.7481 59.2607 20.5625C59.5826 20.3769 59.9425 20.2367 60.3402 20.142C60.7379 20.0473 61.1432 19.9754 61.5561 19.9261C62.0788 19.8655 62.5031 19.8163 62.8288 19.7784C63.1546 19.7367 63.3913 19.6705 63.5391 19.5795C63.6868 19.4886 63.7607 19.3409 63.7607 19.1364V19.0966C63.7607 18.6004 63.6205 18.2159 63.3402 17.9432C63.0637 17.6705 62.6508 17.5341 62.1016 17.5341C61.5296 17.5341 61.0788 17.661 60.7493 17.9148C60.4235 18.1648 60.1982 18.4432 60.0732 18.75L58.4766 18.3864C58.666 17.8561 58.9425 17.428 59.3061 17.1023C59.6735 16.7727 60.0959 16.5341 60.5732 16.3864C61.0504 16.2348 61.5523 16.1591 62.0788 16.1591C62.4273 16.1591 62.7966 16.2008 63.1868 16.2841C63.5807 16.3636 63.9482 16.5114 64.2891 16.7273C64.6338 16.9432 64.916 17.2519 65.1357 17.6534C65.3554 18.0511 65.4652 18.5682 65.4652 19.2045V25H63.8061V23.8068H63.7379C63.6281 24.0265 63.4633 24.2424 63.2436 24.4545C63.0239 24.6667 62.7417 24.8428 62.397 24.983C62.0523 25.1231 61.6394 25.1932 61.1584 25.1932ZM61.5277 23.8295C61.9974 23.8295 62.3989 23.7367 62.7322 23.5511C63.0694 23.3655 63.325 23.1231 63.4993 22.8239C63.6773 22.5208 63.7663 22.197 63.7663 21.8523V20.7273C63.7057 20.7879 63.5883 20.8447 63.4141 20.8977C63.2436 20.947 63.0485 20.9905 62.8288 21.0284C62.6091 21.0625 62.3951 21.0947 62.1868 21.125C61.9785 21.1515 61.8042 21.1742 61.6641 21.1932C61.3345 21.2348 61.0334 21.3049 60.7607 21.4034C60.4917 21.5019 60.2758 21.6439 60.1129 21.8295C59.9538 22.0114 59.8743 22.2538 59.8743 22.5568C59.8743 22.9773 60.0296 23.2955 60.3402 23.5114C60.6508 23.7235 61.0466 23.8295 61.5277 23.8295ZM69.4268 19.8182V25H67.728V16.2727H69.3587V17.6932H69.4666C69.6674 17.2311 69.9818 16.8598 70.4098 16.5795C70.8416 16.2992 71.3852 16.1591 72.0405 16.1591C72.6352 16.1591 73.156 16.2841 73.603 16.5341C74.05 16.7803 74.3965 17.1477 74.6428 17.6364C74.889 18.125 75.0121 18.7292 75.0121 19.4489V25H73.3132V19.6534C73.3132 19.0208 73.1484 18.5265 72.8189 18.1705C72.4893 17.8106 72.0367 17.6307 71.4609 17.6307C71.067 17.6307 70.7166 17.7159 70.4098 17.8864C70.1068 18.0568 69.8662 18.3068 69.6882 18.6364C69.514 18.9621 69.4268 19.3561 69.4268 19.8182ZM81.6612 25V13.3636H85.8089C86.7143 13.3636 87.4643 13.5284 88.0589 13.858C88.6536 14.1875 89.0987 14.6383 89.3942 15.2102C89.6896 15.7784 89.8374 16.4186 89.8374 17.1307C89.8374 17.8466 89.6877 18.4905 89.3885 19.0625C89.093 19.6307 88.6461 20.0814 88.0476 20.4148C87.4529 20.7443 86.7048 20.9091 85.8033 20.9091H82.951V19.4205H85.6442C86.2161 19.4205 86.6802 19.322 87.0362 19.125C87.3923 18.9242 87.6536 18.6515 87.8203 18.3068C87.987 17.9621 88.0703 17.5701 88.0703 17.1307C88.0703 16.6913 87.987 16.3011 87.8203 15.9602C87.6536 15.6193 87.3904 15.3523 87.0305 15.1591C86.6745 14.9659 86.2048 14.8693 85.6214 14.8693H83.4169V25H81.6612ZM95.4112 25.1761C94.5514 25.1761 93.8108 24.9924 93.1896 24.625C92.5722 24.2538 92.0949 23.733 91.7578 23.0625C91.4245 22.3883 91.2578 21.5985 91.2578 20.6932C91.2578 19.7992 91.4245 19.0114 91.7578 18.3295C92.0949 17.6477 92.5646 17.1155 93.1669 16.733C93.773 16.3504 94.4813 16.1591 95.2919 16.1591C95.7843 16.1591 96.2616 16.2405 96.7237 16.4034C97.1858 16.5663 97.6006 16.822 97.968 17.1705C98.3355 17.5189 98.6252 17.9716 98.8374 18.5284C99.0495 19.0814 99.1555 19.7538 99.1555 20.5455V21.1477H92.218V19.875H97.4908C97.4908 19.428 97.3999 19.0322 97.218 18.6875C97.0362 18.339 96.7805 18.0644 96.451 17.8636C96.1252 17.6629 95.7427 17.5625 95.3033 17.5625C94.826 17.5625 94.4093 17.6799 94.0533 17.9148C93.701 18.1458 93.4283 18.4489 93.2351 18.8239C93.0457 19.1951 92.951 19.5985 92.951 20.0341V21.0284C92.951 21.6117 93.0533 22.108 93.2578 22.517C93.4661 22.9261 93.7559 23.2386 94.1271 23.4545C94.4983 23.6667 94.9321 23.7727 95.4283 23.7727C95.7502 23.7727 96.0438 23.7273 96.3089 23.6364C96.5741 23.5417 96.8033 23.4015 96.9964 23.2159C97.1896 23.0303 97.3374 22.8011 97.4396 22.5284L99.0476 22.8182C98.9188 23.2917 98.6877 23.7064 98.3544 24.0625C98.0249 24.4148 97.6101 24.6894 97.1101 24.8864C96.6139 25.0795 96.0476 25.1761 95.4112 25.1761ZM101.04 25V16.2727H102.683V17.6591H102.773C102.933 17.1894 103.213 16.8201 103.614 16.5511C104.02 16.2784 104.478 16.142 104.989 16.142C105.095 16.142 105.22 16.1458 105.364 16.1534C105.512 16.161 105.628 16.1705 105.711 16.1818V17.8068C105.643 17.7879 105.522 17.767 105.347 17.7443C105.173 17.7178 104.999 17.7045 104.825 17.7045C104.423 17.7045 104.065 17.7898 103.751 17.9602C103.44 18.1269 103.194 18.3598 103.012 18.6591C102.83 18.9545 102.739 19.2917 102.739 19.6705V25H101.04ZM107.181 25V16.2727H108.812V17.6932H108.92C109.102 17.2121 109.399 16.8371 109.812 16.5682C110.225 16.2955 110.719 16.1591 111.295 16.1591C111.878 16.1591 112.367 16.2955 112.761 16.5682C113.158 16.8409 113.452 17.2159 113.641 17.6932H113.732C113.941 17.2273 114.272 16.8561 114.727 16.5795C115.181 16.2992 115.723 16.1591 116.352 16.1591C117.143 16.1591 117.789 16.4072 118.289 16.9034C118.793 17.3996 119.045 18.1477 119.045 19.1477V25H117.346V19.3068C117.346 18.7159 117.185 18.2879 116.863 18.0227C116.541 17.7576 116.156 17.625 115.71 17.625C115.156 17.625 114.727 17.7955 114.42 18.1364C114.113 18.4735 113.96 18.9072 113.96 19.4375V25H112.266V19.1989C112.266 18.7254 112.119 18.3447 111.823 18.0568C111.528 17.7689 111.143 17.625 110.67 17.625C110.348 17.625 110.05 17.7102 109.778 17.8807C109.509 18.0473 109.291 18.2803 109.124 18.5795C108.961 18.8788 108.88 19.2254 108.88 19.6193V25H107.181ZM123.862 25.1932C123.308 25.1932 122.808 25.0909 122.362 24.8864C121.915 24.678 121.56 24.3769 121.299 23.983C121.041 23.589 120.913 23.1061 120.913 22.5341C120.913 22.0417 121.007 21.6364 121.197 21.3182C121.386 21 121.642 20.7481 121.964 20.5625C122.286 20.3769 122.646 20.2367 123.043 20.142C123.441 20.0473 123.846 19.9754 124.259 19.9261C124.782 19.8655 125.206 19.8163 125.532 19.7784C125.858 19.7367 126.094 19.6705 126.242 19.5795C126.39 19.4886 126.464 19.3409 126.464 19.1364V19.0966C126.464 18.6004 126.324 18.2159 126.043 17.9432C125.767 17.6705 125.354 17.5341 124.805 17.5341C124.233 17.5341 123.782 17.661 123.452 17.9148C123.127 18.1648 122.901 18.4432 122.776 18.75L121.18 18.3864C121.369 17.8561 121.646 17.428 122.009 17.1023C122.377 16.7727 122.799 16.5341 123.276 16.3864C123.754 16.2348 124.255 16.1591 124.782 16.1591C125.13 16.1591 125.5 16.2008 125.89 16.2841C126.284 16.3636 126.651 16.5114 126.992 16.7273C127.337 16.9432 127.619 17.2519 127.839 17.6534C128.058 18.0511 128.168 18.5682 128.168 19.2045V25H126.509V23.8068H126.441C126.331 24.0265 126.166 24.2424 125.947 24.4545C125.727 24.6667 125.445 24.8428 125.1 24.983C124.755 25.1231 124.343 25.1932 123.862 25.1932ZM124.231 23.8295C124.701 23.8295 125.102 23.7367 125.435 23.5511C125.772 23.3655 126.028 23.1231 126.202 22.8239C126.38 22.5208 126.469 22.197 126.469 21.8523V20.7273C126.409 20.7879 126.291 20.8447 126.117 20.8977C125.947 20.947 125.752 20.9905 125.532 21.0284C125.312 21.0625 125.098 21.0947 124.89 21.125C124.682 21.1515 124.507 21.1742 124.367 21.1932C124.038 21.2348 123.737 21.3049 123.464 21.4034C123.195 21.5019 122.979 21.6439 122.816 21.8295C122.657 22.0114 122.577 22.2538 122.577 22.5568C122.577 22.9773 122.733 23.2955 123.043 23.5114C123.354 23.7235 123.75 23.8295 124.231 23.8295ZM132.13 19.8182V25H130.431V16.2727H132.062V17.6932H132.17C132.371 17.2311 132.685 16.8598 133.113 16.5795C133.545 16.2992 134.088 16.1591 134.744 16.1591C135.338 16.1591 135.859 16.2841 136.306 16.5341C136.753 16.7803 137.1 17.1477 137.346 17.6364C137.592 18.125 137.715 18.7292 137.715 19.4489V25H136.016V19.6534C136.016 19.0208 135.852 18.5265 135.522 18.1705C135.192 17.8106 134.74 17.6307 134.164 17.6307C133.77 17.6307 133.42 17.7159 133.113 17.8864C132.81 18.0568 132.569 18.3068 132.391 18.6364C132.217 18.9621 132.13 19.3561 132.13 19.8182ZM143.755 25.1761C142.895 25.1761 142.155 24.9924 141.533 24.625C140.916 24.2538 140.439 23.733 140.102 23.0625C139.768 22.3883 139.602 21.5985 139.602 20.6932C139.602 19.7992 139.768 19.0114 140.102 18.3295C140.439 17.6477 140.908 17.1155 141.511 16.733C142.117 16.3504 142.825 16.1591 143.636 16.1591C144.128 16.1591 144.605 16.2405 145.067 16.4034C145.53 16.5663 145.944 16.822 146.312 17.1705C146.679 17.5189 146.969 17.9716 147.181 18.5284C147.393 19.0814 147.499 19.7538 147.499 20.5455V21.1477H140.562V19.875H145.835C145.835 19.428 145.744 19.0322 145.562 18.6875C145.38 18.339 145.124 18.0644 144.795 17.8636C144.469 17.6629 144.086 17.5625 143.647 17.5625C143.17 17.5625 142.753 17.6799 142.397 17.9148C142.045 18.1458 141.772 18.4489 141.579 18.8239C141.389 19.1951 141.295 19.5985 141.295 20.0341V21.0284C141.295 21.6117 141.397 22.108 141.602 22.517C141.81 22.9261 142.1 23.2386 142.471 23.4545C142.842 23.6667 143.276 23.7727 143.772 23.7727C144.094 23.7727 144.388 23.7273 144.653 23.6364C144.918 23.5417 145.147 23.4015 145.34 23.2159C145.533 23.0303 145.681 22.8011 145.783 22.5284L147.391 22.8182C147.263 23.2917 147.031 23.7064 146.698 24.0625C146.369 24.4148 145.954 24.6894 145.454 24.8864C144.958 25.0795 144.391 25.1761 143.755 25.1761ZM151.083 19.8182V25H149.384V16.2727H151.015V17.6932H151.123C151.324 17.2311 151.638 16.8598 152.066 16.5795C152.498 16.2992 153.041 16.1591 153.697 16.1591C154.291 16.1591 154.812 16.2841 155.259 16.5341C155.706 16.7803 156.053 17.1477 156.299 17.6364C156.545 18.125 156.668 18.7292 156.668 19.4489V25H154.969V19.6534C154.969 19.0208 154.805 18.5265 154.475 18.1705C154.146 17.8106 153.693 17.6307 153.117 17.6307C152.723 17.6307 152.373 17.7159 152.066 17.8864C151.763 18.0568 151.522 18.3068 151.344 18.6364C151.17 18.9621 151.083 19.3561 151.083 19.8182ZM163.021 16.2727V17.6364H158.254V16.2727H163.021ZM159.532 14.1818H161.231V22.4375C161.231 22.767 161.28 23.0152 161.379 23.1818C161.477 23.3447 161.604 23.4564 161.759 23.517C161.918 23.5739 162.091 23.6023 162.276 23.6023C162.413 23.6023 162.532 23.5928 162.634 23.5739C162.737 23.5549 162.816 23.5398 162.873 23.5284L163.18 24.9318C163.081 24.9697 162.941 25.0076 162.759 25.0455C162.577 25.0871 162.35 25.1098 162.077 25.1136C161.63 25.1212 161.214 25.0417 160.827 24.875C160.441 24.7083 160.129 24.4508 159.89 24.1023C159.651 23.7538 159.532 23.3163 159.532 22.7898V14.1818ZM166.786 13.3636V25H165.087V13.3636H166.786ZM170.146 28.2727C169.892 28.2727 169.661 28.2519 169.452 28.2102C169.244 28.1723 169.089 28.1307 168.987 28.0852L169.396 26.6932C169.706 26.7765 169.983 26.8125 170.225 26.8011C170.468 26.7898 170.682 26.6989 170.867 26.5284C171.057 26.358 171.223 26.0795 171.367 25.6932L171.577 25.1136L168.384 16.2727H170.202L172.413 23.0455H172.504L174.714 16.2727H176.538L172.941 26.1648C172.774 26.6193 172.562 27.0038 172.305 27.3182C172.047 27.6364 171.74 27.875 171.384 28.0341C171.028 28.1932 170.615 28.2727 170.146 28.2727Z" fill="white"/>
<path d="M15.3281 29C15.3281 27.6081 15.6913 26.2402 16.3818 25.0316C17.0722 23.823 18.0661 22.8155 19.2651 22.1085C20.4642 21.4016 21.8269 21.0198 23.2187 21.0007C24.6105 20.9817 25.9832 21.3261 27.2011 22M30.3281 25L35.3281 30M35.3281 25L30.3281 30M28.3281 16C28.3281 18.7614 26.0895 21 23.3281 21C20.5667 21 18.3281 18.7614 18.3281 16C18.3281 13.2386 20.5667 11 23.3281 11C26.0895 11 28.3281 13.2386 28.3281 16Z" stroke="white" stroke-width="2" stroke-linecap="round" stroke-linejoin="round"/>
</svg>
