<svg width="118" height="48" viewBox="0 0 118 48" fill="none" xmlns="http://www.w3.org/2000/svg">
<path d="M109.734 0C114.153 0 117.734 3.58172 117.734 8V40C117.734 44.4183 114.153 48 109.734 48H8C3.58172 48 0 44.4183 0 40V8C5.15405e-07 3.58172 3.58172 0 8 0H109.734Z" fill="#E5E7EB"/>
<path d="M109.734 0C114.153 0 117.734 3.58172 117.734 8V40C117.734 44.4183 114.153 48 109.734 48H8C3.58172 48 0 44.4183 0 40V8C5.15405e-07 3.58172 3.58172 0 8 0H109.734Z" stroke="#E5E7EB"/>
<path d="M43.2486 21.2898H41.1236C41.063 20.9413 40.9512 20.6326 40.7884 20.3636C40.6255 20.0909 40.4228 19.8598 40.1804 19.6705C39.938 19.4811 39.6615 19.339 39.3509 19.2443C39.044 19.1458 38.7126 19.0966 38.3565 19.0966C37.724 19.0966 37.1634 19.2557 36.6747 19.5739C36.1861 19.8883 35.8035 20.3504 35.527 20.9602C35.2505 21.5663 35.1122 22.3068 35.1122 23.1818C35.1122 24.072 35.2505 24.822 35.527 25.4318C35.8073 26.0379 36.1899 26.4962 36.6747 26.8068C37.1634 27.1136 37.7221 27.267 38.3509 27.267C38.6993 27.267 39.0251 27.2216 39.3281 27.1307C39.6349 27.036 39.9096 26.8977 40.152 26.7159C40.3982 26.5341 40.6046 26.3106 40.7713 26.0455C40.9418 25.7803 41.0592 25.4773 41.1236 25.1364L43.2486 25.1477C43.169 25.7008 42.9967 26.2197 42.7315 26.7045C42.4702 27.1894 42.1274 27.6174 41.7031 27.9886C41.2789 28.3561 40.7827 28.6439 40.2145 28.8523C39.6463 29.0568 39.0156 29.1591 38.3224 29.1591C37.2997 29.1591 36.3868 28.9223 35.5838 28.4489C34.7808 27.9754 34.1482 27.2917 33.6861 26.3977C33.224 25.5038 32.9929 24.4318 32.9929 23.1818C32.9929 21.928 33.2259 20.8561 33.6918 19.9659C34.1577 19.072 34.7921 18.3883 35.5952 17.9148C36.3982 17.4413 37.3073 17.2045 38.3224 17.2045C38.9702 17.2045 39.5724 17.2955 40.1293 17.4773C40.6861 17.6591 41.1823 17.9261 41.6179 18.2784C42.0535 18.6269 42.4115 19.0549 42.6918 19.5625C42.9759 20.0663 43.1615 20.642 43.2486 21.2898ZM47.5994 29.1761C47.0464 29.1761 46.5483 29.0777 46.1051 28.8807C45.6657 28.6799 45.3172 28.3845 45.0597 27.9943C44.8059 27.6042 44.679 27.1231 44.679 26.5511C44.679 26.0587 44.7699 25.6515 44.9517 25.3295C45.1335 25.0076 45.3816 24.75 45.696 24.5568C46.0104 24.3636 46.3646 24.2178 46.7585 24.1193C47.1563 24.017 47.5672 23.9432 47.9915 23.8977C48.5028 23.8447 48.9176 23.7973 49.2358 23.7557C49.554 23.7102 49.785 23.642 49.929 23.5511C50.0767 23.4564 50.1506 23.3106 50.1506 23.1136V23.0795C50.1506 22.6515 50.0237 22.3201 49.7699 22.0852C49.5161 21.8504 49.1506 21.733 48.6733 21.733C48.1695 21.733 47.7699 21.8428 47.4744 22.0625C47.1828 22.2822 46.9858 22.5417 46.8835 22.8409L44.9631 22.5682C45.1146 22.0379 45.3646 21.5947 45.7131 21.2386C46.0616 20.8788 46.4877 20.6098 46.9915 20.4318C47.4953 20.25 48.0521 20.1591 48.6619 20.1591C49.0824 20.1591 49.5009 20.2083 49.9176 20.3068C50.3343 20.4053 50.715 20.5682 51.0597 20.7955C51.4044 21.0189 51.6809 21.3239 51.8892 21.7102C52.1013 22.0966 52.2074 22.5795 52.2074 23.1591V29H50.2301V27.8011H50.1619C50.0369 28.0436 49.8608 28.2708 49.6335 28.483C49.41 28.6913 49.1278 28.8598 48.7869 28.9886C48.4498 29.1136 48.054 29.1761 47.5994 29.1761ZM48.1335 27.6648C48.5464 27.6648 48.9044 27.5833 49.2074 27.4205C49.5104 27.2538 49.7434 27.0341 49.9062 26.7614C50.0729 26.4886 50.1562 26.1913 50.1562 25.8693V24.8409C50.0919 24.8939 49.982 24.9432 49.8267 24.9886C49.6752 25.0341 49.5047 25.0739 49.3153 25.108C49.1259 25.142 48.9384 25.1723 48.7528 25.1989C48.5672 25.2254 48.4063 25.2481 48.2699 25.267C47.9631 25.3087 47.6884 25.3769 47.446 25.4716C47.2036 25.5663 47.0123 25.6989 46.8722 25.8693C46.732 26.036 46.6619 26.2519 46.6619 26.517C46.6619 26.8958 46.8002 27.1818 47.0767 27.375C47.3532 27.5682 47.7055 27.6648 48.1335 27.6648ZM56.3324 23.8864V29H54.2756V20.2727H56.2415V21.7557H56.3438C56.5445 21.267 56.8646 20.8788 57.304 20.5909C57.7472 20.303 58.2945 20.1591 58.946 20.1591C59.5483 20.1591 60.0729 20.2879 60.5199 20.5455C60.9706 20.803 61.3191 21.1761 61.5653 21.6648C61.8153 22.1534 61.9384 22.7462 61.9347 23.4432V29H59.8778V23.7614C59.8778 23.178 59.7263 22.7216 59.4233 22.392C59.1241 22.0625 58.7093 21.8977 58.179 21.8977C57.8191 21.8977 57.4991 21.9773 57.2188 22.1364C56.9422 22.2917 56.7244 22.517 56.5653 22.8125C56.41 23.108 56.3324 23.4659 56.3324 23.8864ZM67.8324 29.1705C66.9612 29.1705 66.2131 28.9792 65.5881 28.5966C64.9669 28.214 64.4877 27.6856 64.1506 27.0114C63.8172 26.3333 63.6506 25.553 63.6506 24.6705C63.6506 23.7841 63.821 23.0019 64.1619 22.3239C64.5028 21.642 64.9839 21.1117 65.6051 20.733C66.2301 20.3504 66.9688 20.1591 67.821 20.1591C68.5294 20.1591 69.1563 20.2898 69.7017 20.5511C70.2509 20.8087 70.6884 21.1742 71.0142 21.6477C71.34 22.1174 71.5256 22.6667 71.571 23.2955H69.6051C69.5256 22.875 69.3362 22.5246 69.0369 22.2443C68.7415 21.9602 68.3456 21.8182 67.8494 21.8182C67.429 21.8182 67.0597 21.9318 66.7415 22.1591C66.4233 22.3826 66.1752 22.7045 65.9972 23.125C65.8229 23.5455 65.7358 24.0492 65.7358 24.6364C65.7358 25.2311 65.8229 25.7424 65.9972 26.1705C66.1714 26.5947 66.4157 26.9223 66.7301 27.1534C67.0483 27.3807 67.4214 27.4943 67.8494 27.4943C68.1525 27.4943 68.4233 27.4375 68.6619 27.3239C68.9044 27.2064 69.107 27.0379 69.2699 26.8182C69.4328 26.5985 69.5445 26.3314 69.6051 26.017H71.571C71.5218 26.6345 71.34 27.1818 71.0256 27.6591C70.7112 28.1326 70.2831 28.5038 69.7415 28.7727C69.1998 29.0379 68.5634 29.1705 67.8324 29.1705ZM77.1236 29.1705C76.2486 29.1705 75.4929 28.9886 74.8565 28.625C74.224 28.2576 73.7372 27.7386 73.3963 27.0682C73.0554 26.3939 72.8849 25.6004 72.8849 24.6875C72.8849 23.7898 73.0554 23.0019 73.3963 22.3239C73.741 21.642 74.2221 21.1117 74.8395 20.733C75.4569 20.3504 76.1823 20.1591 77.0156 20.1591C77.5535 20.1591 78.0611 20.2462 78.5384 20.4205C79.0194 20.5909 79.4437 20.8561 79.8111 21.2159C80.1823 21.5758 80.474 22.0341 80.6861 22.5909C80.8982 23.1439 81.0043 23.803 81.0043 24.5682V25.1989H73.8509V23.8125H79.0327C79.0289 23.4186 78.9437 23.0682 78.777 22.7614C78.6103 22.4508 78.3774 22.2064 78.0781 22.0284C77.7827 21.8504 77.438 21.7614 77.044 21.7614C76.6236 21.7614 76.2543 21.8636 75.9361 22.0682C75.6179 22.2689 75.3698 22.5341 75.1918 22.8636C75.0175 23.1894 74.9285 23.5473 74.9247 23.9375V25.1477C74.9247 25.6553 75.0175 26.0909 75.2031 26.4545C75.3887 26.8144 75.6482 27.0909 75.9815 27.2841C76.3149 27.4735 76.705 27.5682 77.152 27.5682C77.4512 27.5682 77.7221 27.5265 77.9645 27.4432C78.2069 27.3561 78.4171 27.2292 78.5952 27.0625C78.7732 26.8958 78.9077 26.6894 78.9986 26.4432L80.919 26.6591C80.7978 27.1667 80.5668 27.6098 80.2259 27.9886C79.8887 28.3636 79.4569 28.6553 78.9304 28.8636C78.4039 29.0682 77.8016 29.1705 77.1236 29.1705ZM84.8011 17.3636V29H82.7443V17.3636H84.8011Z" fill="#374151"/>
</svg>
