<svg width="284" height="44" viewBox="0 0 284 44" fill="none" xmlns="http://www.w3.org/2000/svg">
<path d="M275.453 0C279.871 0 283.453 3.58172 283.453 8V36C283.453 40.4183 279.871 44 275.453 44H8C3.58172 44 0 40.4183 0 36V8C0 3.58172 3.58172 0 8 0H275.453Z" fill="#08C68B"/>
<path d="M275.453 0C279.871 0 283.453 3.58172 283.453 8V36C283.453 40.4183 279.871 44 275.453 44H8C3.58172 44 0 40.4183 0 36V8C0 3.58172 3.58172 0 8 0H275.453Z" stroke="#E5E7EB"/>
<path d="M259.453 34H48V10H259.453V34Z" stroke="#E5E7EB"/>
<path d="M49.7237 27V15.3636H57.0192V16.875H51.4794V20.4205H56.6385V21.9261H51.4794V25.4886H57.0874V27H49.7237ZM60.5689 18.2727L62.495 21.6705L64.4382 18.2727H66.2962L63.5746 22.6364L66.3189 27H64.4609L62.495 23.7386L60.5348 27H58.6712L61.3871 22.6364L58.7053 18.2727H60.5689ZM68.0405 30.2727V18.2727H69.6996V19.6875H69.8416C69.9401 19.5057 70.0821 19.2955 70.2678 19.0568C70.4534 18.8182 70.7109 18.6098 71.0405 18.4318C71.37 18.25 71.8056 18.1591 72.3473 18.1591C73.0518 18.1591 73.6806 18.3371 74.2337 18.6932C74.7867 19.0492 75.2204 19.5625 75.5348 20.233C75.853 20.9034 76.0121 21.7102 76.0121 22.6534C76.0121 23.5966 75.8549 24.4053 75.5405 25.0795C75.2261 25.75 74.7943 26.267 74.245 26.6307C73.6958 26.9905 73.0689 27.1705 72.3643 27.1705C71.834 27.1705 71.4003 27.0814 71.0632 26.9034C70.7299 26.7254 70.4685 26.517 70.2791 26.2784C70.0897 26.0398 69.9439 25.8277 69.8416 25.642H69.7393V30.2727H68.0405ZM69.7053 22.6364C69.7053 23.25 69.7943 23.7879 69.9723 24.25C70.1503 24.7121 70.4079 25.0739 70.745 25.3352C71.0821 25.5928 71.495 25.7216 71.9837 25.7216C72.4912 25.7216 72.9155 25.5871 73.2564 25.3182C73.5973 25.0455 73.8549 24.6761 74.0291 24.2102C74.2071 23.7443 74.2962 23.2197 74.2962 22.6364C74.2962 22.0606 74.209 21.5436 74.0348 21.0852C73.8643 20.6269 73.6068 20.2652 73.2621 20C72.9212 19.7348 72.495 19.6023 71.9837 19.6023C71.4912 19.6023 71.0746 19.7292 70.7337 19.983C70.3965 20.2367 70.1409 20.5909 69.9666 21.0455C69.7924 21.5 69.7053 22.0303 69.7053 22.6364ZM81.5916 27.1761C80.7734 27.1761 80.0594 26.9886 79.4496 26.6136C78.8397 26.2386 78.3662 25.714 78.0291 25.0398C77.692 24.3655 77.5234 23.5777 77.5234 22.6761C77.5234 21.7708 77.692 20.9792 78.0291 20.3011C78.3662 19.6231 78.8397 19.0966 79.4496 18.7216C80.0594 18.3466 80.7734 18.1591 81.5916 18.1591C82.4098 18.1591 83.1238 18.3466 83.7337 18.7216C84.3435 19.0966 84.817 19.6231 85.1541 20.3011C85.4912 20.9792 85.6598 21.7708 85.6598 22.6761C85.6598 23.5777 85.4912 24.3655 85.1541 25.0398C84.817 25.714 84.3435 26.2386 83.7337 26.6136C83.1238 26.9886 82.4098 27.1761 81.5916 27.1761ZM81.5973 25.75C82.1276 25.75 82.567 25.6098 82.9155 25.3295C83.264 25.0492 83.5215 24.6761 83.6882 24.2102C83.8587 23.7443 83.9439 23.2311 83.9439 22.6705C83.9439 22.1136 83.8587 21.6023 83.6882 21.1364C83.5215 20.6667 83.264 20.2898 82.9155 20.0057C82.567 19.7216 82.1276 19.5795 81.5973 19.5795C81.0632 19.5795 80.62 19.7216 80.2678 20.0057C79.9193 20.2898 79.6598 20.6667 79.4893 21.1364C79.3227 21.6023 79.2393 22.1136 79.2393 22.6705C79.2393 23.2311 79.3227 23.7443 79.4893 24.2102C79.6598 24.6761 79.9193 25.0492 80.2678 25.3295C80.62 25.6098 81.0632 25.75 81.5973 25.75ZM87.5561 27V18.2727H89.1982V19.6591H89.2891C89.4482 19.1894 89.7285 18.8201 90.13 18.5511C90.5353 18.2784 90.9936 18.142 91.505 18.142C91.611 18.142 91.736 18.1458 91.88 18.1534C92.0277 18.161 92.1432 18.1705 92.2266 18.1818V19.8068C92.1584 19.7879 92.0372 19.767 91.8629 19.7443C91.6887 19.7178 91.5144 19.7045 91.3402 19.7045C90.9387 19.7045 90.5807 19.7898 90.2663 19.9602C89.9557 20.1269 89.7095 20.3598 89.5277 20.6591C89.3459 20.9545 89.255 21.2917 89.255 21.6705V27H87.5561ZM98.2862 18.2727V19.6364H93.5192V18.2727H98.2862ZM94.7976 16.1818H96.4964V24.4375C96.4964 24.767 96.5457 25.0152 96.6442 25.1818C96.7427 25.3447 96.8696 25.4564 97.0249 25.517C97.1839 25.5739 97.3563 25.6023 97.5419 25.6023C97.6783 25.6023 97.7976 25.5928 97.8999 25.5739C98.0021 25.5549 98.0817 25.5398 98.1385 25.5284L98.4453 26.9318C98.3468 26.9697 98.2067 27.0076 98.0249 27.0455C97.843 27.0871 97.6158 27.1098 97.343 27.1136C96.8961 27.1212 96.4794 27.0417 96.093 26.875C95.7067 26.7083 95.3942 26.4508 95.1555 26.1023C94.9169 25.7538 94.7976 25.3163 94.7976 24.7898V16.1818ZM104.536 27V15.3636H111.752V16.875H106.292V20.4205H111.235V21.9261H106.292V27H104.536ZM113.775 27V18.2727H115.474V27H113.775ZM114.633 16.9261C114.337 16.9261 114.084 16.8277 113.871 16.6307C113.663 16.4299 113.559 16.1913 113.559 15.9148C113.559 15.6345 113.663 15.3958 113.871 15.1989C114.084 14.9981 114.337 14.8977 114.633 14.8977C114.928 14.8977 115.18 14.9981 115.388 15.1989C115.601 15.3958 115.707 15.6345 115.707 15.9148C115.707 16.1913 115.601 16.4299 115.388 16.6307C115.18 16.8277 114.928 16.9261 114.633 16.9261ZM119.458 21.8182V27H117.759V18.2727H119.39V19.6932H119.498C119.699 19.2311 120.013 18.8598 120.441 18.5795C120.873 18.2992 121.416 18.1591 122.072 18.1591C122.666 18.1591 123.187 18.2841 123.634 18.5341C124.081 18.7803 124.428 19.1477 124.674 19.6364C124.92 20.125 125.043 20.7292 125.043 21.4489V27H123.344V21.6534C123.344 21.0208 123.18 20.5265 122.85 20.1705C122.521 19.8106 122.068 19.6307 121.492 19.6307C121.098 19.6307 120.748 19.7159 120.441 19.8864C120.138 20.0568 119.897 20.3068 119.719 20.6364C119.545 20.9621 119.458 21.3561 119.458 21.8182ZM129.862 27.1932C129.308 27.1932 128.808 27.0909 128.362 26.8864C127.915 26.678 127.56 26.3769 127.299 25.983C127.041 25.589 126.913 25.1061 126.913 24.5341C126.913 24.0417 127.007 23.6364 127.197 23.3182C127.386 23 127.642 22.7481 127.964 22.5625C128.286 22.3769 128.646 22.2367 129.043 22.142C129.441 22.0473 129.846 21.9754 130.259 21.9261C130.782 21.8655 131.206 21.8163 131.532 21.7784C131.858 21.7367 132.094 21.6705 132.242 21.5795C132.39 21.4886 132.464 21.3409 132.464 21.1364V21.0966C132.464 20.6004 132.324 20.2159 132.043 19.9432C131.767 19.6705 131.354 19.5341 130.805 19.5341C130.233 19.5341 129.782 19.661 129.452 19.9148C129.127 20.1648 128.901 20.4432 128.776 20.75L127.18 20.3864C127.369 19.8561 127.646 19.428 128.009 19.1023C128.377 18.7727 128.799 18.5341 129.276 18.3864C129.754 18.2348 130.255 18.1591 130.782 18.1591C131.13 18.1591 131.5 18.2008 131.89 18.2841C132.284 18.3636 132.651 18.5114 132.992 18.7273C133.337 18.9432 133.619 19.2519 133.839 19.6534C134.058 20.0511 134.168 20.5682 134.168 21.2045V27H132.509V25.8068H132.441C132.331 26.0265 132.166 26.2424 131.947 26.4545C131.727 26.6667 131.445 26.8428 131.1 26.983C130.755 27.1231 130.343 27.1932 129.862 27.1932ZM130.231 25.8295C130.701 25.8295 131.102 25.7367 131.435 25.5511C131.772 25.3655 132.028 25.1231 132.202 24.8239C132.38 24.5208 132.469 24.197 132.469 23.8523V22.7273C132.409 22.7879 132.291 22.8447 132.117 22.8977C131.947 22.947 131.752 22.9905 131.532 23.0284C131.312 23.0625 131.098 23.0947 130.89 23.125C130.682 23.1515 130.507 23.1742 130.367 23.1932C130.038 23.2348 129.737 23.3049 129.464 23.4034C129.195 23.5019 128.979 23.6439 128.816 23.8295C128.657 24.0114 128.577 24.2538 128.577 24.5568C128.577 24.9773 128.733 25.2955 129.043 25.5114C129.354 25.7235 129.75 25.8295 130.231 25.8295ZM138.13 21.8182V27H136.431V18.2727H138.062V19.6932H138.17C138.371 19.2311 138.685 18.8598 139.113 18.5795C139.545 18.2992 140.088 18.1591 140.744 18.1591C141.338 18.1591 141.859 18.2841 142.306 18.5341C142.753 18.7803 143.1 19.1477 143.346 19.6364C143.592 20.125 143.715 20.7292 143.715 21.4489V27H142.016V21.6534C142.016 21.0208 141.852 20.5265 141.522 20.1705C141.192 19.8106 140.74 19.6307 140.164 19.6307C139.77 19.6307 139.42 19.7159 139.113 19.8864C138.81 20.0568 138.569 20.3068 138.391 20.6364C138.217 20.9621 138.13 21.3561 138.13 21.8182ZM149.67 27.1761C148.825 27.1761 148.098 26.9848 147.488 26.6023C146.882 26.2159 146.416 25.6837 146.09 25.0057C145.764 24.3277 145.602 23.5511 145.602 22.6761C145.602 21.7898 145.768 21.0076 146.102 20.3295C146.435 19.6477 146.905 19.1155 147.511 18.733C148.117 18.3504 148.831 18.1591 149.653 18.1591C150.316 18.1591 150.906 18.2822 151.425 18.5284C151.944 18.7708 152.363 19.1117 152.681 19.5511C153.003 19.9905 153.194 20.5038 153.255 21.0909H151.602C151.511 20.6818 151.302 20.3295 150.977 20.0341C150.655 19.7386 150.223 19.5909 149.681 19.5909C149.208 19.5909 148.793 19.7159 148.437 19.9659C148.085 20.2121 147.81 20.5644 147.613 21.0227C147.416 21.4773 147.317 22.0152 147.317 22.6364C147.317 23.2727 147.414 23.822 147.607 24.2841C147.8 24.7462 148.073 25.1042 148.425 25.358C148.781 25.6117 149.2 25.7386 149.681 25.7386C150.003 25.7386 150.295 25.6799 150.556 25.5625C150.821 25.4413 151.043 25.2689 151.221 25.0455C151.403 24.822 151.53 24.553 151.602 24.2386H153.255C153.194 24.803 153.011 25.3068 152.704 25.75C152.397 26.1932 151.986 26.5417 151.471 26.7955C150.96 27.0492 150.359 27.1761 149.67 27.1761ZM155.072 27V18.2727H156.771V27H155.072ZM155.93 16.9261C155.634 16.9261 155.38 16.8277 155.168 16.6307C154.96 16.4299 154.856 16.1913 154.856 15.9148C154.856 15.6345 154.96 15.3958 155.168 15.1989C155.38 14.9981 155.634 14.8977 155.93 14.8977C156.225 14.8977 156.477 14.9981 156.685 15.1989C156.897 15.3958 157.004 15.6345 157.004 15.9148C157.004 16.1913 156.897 16.4299 156.685 16.6307C156.477 16.8277 156.225 16.9261 155.93 16.9261ZM161.596 27.1932C161.043 27.1932 160.543 27.0909 160.096 26.8864C159.649 26.678 159.295 26.3769 159.033 25.983C158.776 25.589 158.647 25.1061 158.647 24.5341C158.647 24.0417 158.742 23.6364 158.931 23.3182C159.121 23 159.376 22.7481 159.698 22.5625C160.02 22.3769 160.38 22.2367 160.778 22.142C161.175 22.0473 161.581 21.9754 161.994 21.9261C162.516 21.8655 162.941 21.8163 163.266 21.7784C163.592 21.7367 163.829 21.6705 163.977 21.5795C164.124 21.4886 164.198 21.3409 164.198 21.1364V21.0966C164.198 20.6004 164.058 20.2159 163.778 19.9432C163.501 19.6705 163.088 19.5341 162.539 19.5341C161.967 19.5341 161.516 19.661 161.187 19.9148C160.861 20.1648 160.636 20.4432 160.511 20.75L158.914 20.3864C159.103 19.8561 159.38 19.428 159.744 19.1023C160.111 18.7727 160.533 18.5341 161.011 18.3864C161.488 18.2348 161.99 18.1591 162.516 18.1591C162.865 18.1591 163.234 18.2008 163.624 18.2841C164.018 18.3636 164.386 18.5114 164.727 18.7273C165.071 18.9432 165.353 19.2519 165.573 19.6534C165.793 20.0511 165.903 20.5682 165.903 21.2045V27H164.244V25.8068H164.175C164.066 26.0265 163.901 26.2424 163.681 26.4545C163.461 26.6667 163.179 26.8428 162.835 26.983C162.49 27.1231 162.077 27.1932 161.596 27.1932ZM161.965 25.8295C162.435 25.8295 162.836 25.7367 163.17 25.5511C163.507 25.3655 163.763 25.1231 163.937 24.8239C164.115 24.5208 164.204 24.197 164.204 23.8523V22.7273C164.143 22.7879 164.026 22.8447 163.852 22.8977C163.681 22.947 163.486 22.9905 163.266 23.0284C163.047 23.0625 162.833 23.0947 162.624 23.125C162.416 23.1515 162.242 23.1742 162.102 23.1932C161.772 23.2348 161.471 23.3049 161.198 23.4034C160.929 23.5019 160.713 23.6439 160.55 23.8295C160.391 24.0114 160.312 24.2538 160.312 24.5568C160.312 24.9773 160.467 25.2955 160.778 25.5114C161.088 25.7235 161.484 25.8295 161.965 25.8295ZM169.864 15.3636V27H168.165V15.3636H169.864ZM180.288 27H176.521V15.3636H180.407C181.547 15.3636 182.526 15.5966 183.344 16.0625C184.163 16.5246 184.79 17.1894 185.225 18.0568C185.665 18.9205 185.884 19.9564 185.884 21.1648C185.884 22.3769 185.663 23.4186 185.219 24.2898C184.78 25.161 184.144 25.8314 183.31 26.3011C182.477 26.767 181.469 27 180.288 27ZM178.276 25.4659H180.191C181.077 25.4659 181.814 25.2992 182.401 24.9659C182.988 24.6288 183.428 24.142 183.719 23.5057C184.011 22.8655 184.157 22.0852 184.157 21.1648C184.157 20.2519 184.011 19.4773 183.719 18.8409C183.432 18.2045 183.002 17.7216 182.43 17.392C181.858 17.0625 181.147 16.8977 180.299 16.8977H178.276V25.4659ZM190.471 27.1932C189.918 27.1932 189.418 27.0909 188.971 26.8864C188.524 26.678 188.17 26.3769 187.908 25.983C187.651 25.589 187.522 25.1061 187.522 24.5341C187.522 24.0417 187.617 23.6364 187.806 23.3182C187.996 23 188.251 22.7481 188.573 22.5625C188.895 22.3769 189.255 22.2367 189.653 22.142C190.05 22.0473 190.456 21.9754 190.869 21.9261C191.391 21.8655 191.816 21.8163 192.141 21.7784C192.467 21.7367 192.704 21.6705 192.852 21.5795C192.999 21.4886 193.073 21.3409 193.073 21.1364V21.0966C193.073 20.6004 192.933 20.2159 192.653 19.9432C192.376 19.6705 191.963 19.5341 191.414 19.5341C190.842 19.5341 190.391 19.661 190.062 19.9148C189.736 20.1648 189.511 20.4432 189.386 20.75L187.789 20.3864C187.978 19.8561 188.255 19.428 188.619 19.1023C188.986 18.7727 189.408 18.5341 189.886 18.3864C190.363 18.2348 190.865 18.1591 191.391 18.1591C191.74 18.1591 192.109 18.2008 192.499 18.2841C192.893 18.3636 193.261 18.5114 193.602 18.7273C193.946 18.9432 194.228 19.2519 194.448 19.6534C194.668 20.0511 194.778 20.5682 194.778 21.2045V27H193.119V25.8068H193.05C192.941 26.0265 192.776 26.2424 192.556 26.4545C192.336 26.6667 192.054 26.8428 191.71 26.983C191.365 27.1231 190.952 27.1932 190.471 27.1932ZM190.84 25.8295C191.31 25.8295 191.711 25.7367 192.045 25.5511C192.382 25.3655 192.638 25.1231 192.812 24.8239C192.99 24.5208 193.079 24.197 193.079 23.8523V22.7273C193.018 22.7879 192.901 22.8447 192.727 22.8977C192.556 22.947 192.361 22.9905 192.141 23.0284C191.922 23.0625 191.708 23.0947 191.499 23.125C191.291 23.1515 191.117 23.1742 190.977 23.1932C190.647 23.2348 190.346 23.3049 190.073 23.4034C189.804 23.5019 189.588 23.6439 189.425 23.8295C189.266 24.0114 189.187 24.2538 189.187 24.5568C189.187 24.9773 189.342 25.2955 189.653 25.5114C189.963 25.7235 190.359 25.8295 190.84 25.8295ZM201.114 18.2727V19.6364H196.347V18.2727H201.114ZM197.626 16.1818H199.325V24.4375C199.325 24.767 199.374 25.0152 199.472 25.1818C199.571 25.3447 199.698 25.4564 199.853 25.517C200.012 25.5739 200.184 25.6023 200.37 25.6023C200.506 25.6023 200.626 25.5928 200.728 25.5739C200.83 25.5549 200.91 25.5398 200.967 25.5284L201.273 26.9318C201.175 26.9697 201.035 27.0076 200.853 27.0455C200.671 27.0871 200.444 27.1098 200.171 27.1136C199.724 27.1212 199.308 27.0417 198.921 26.875C198.535 26.7083 198.222 26.4508 197.984 26.1023C197.745 25.7538 197.626 25.3163 197.626 24.7898V16.1818ZM205.533 27.1932C204.98 27.1932 204.48 27.0909 204.033 26.8864C203.586 26.678 203.232 26.3769 202.971 25.983C202.713 25.589 202.585 25.1061 202.585 24.5341C202.585 24.0417 202.679 23.6364 202.869 23.3182C203.058 23 203.314 22.7481 203.636 22.5625C203.958 22.3769 204.317 22.2367 204.715 22.142C205.113 22.0473 205.518 21.9754 205.931 21.9261C206.454 21.8655 206.878 21.8163 207.204 21.7784C207.53 21.7367 207.766 21.6705 207.914 21.5795C208.062 21.4886 208.136 21.3409 208.136 21.1364V21.0966C208.136 20.6004 207.996 20.2159 207.715 19.9432C207.439 19.6705 207.026 19.5341 206.477 19.5341C205.905 19.5341 205.454 19.661 205.124 19.9148C204.799 20.1648 204.573 20.4432 204.448 20.75L202.852 20.3864C203.041 19.8561 203.317 19.428 203.681 19.1023C204.049 18.7727 204.471 18.5341 204.948 18.3864C205.425 18.2348 205.927 18.1591 206.454 18.1591C206.802 18.1591 207.172 18.2008 207.562 18.2841C207.956 18.3636 208.323 18.5114 208.664 18.7273C209.009 18.9432 209.291 19.2519 209.511 19.6534C209.73 20.0511 209.84 20.5682 209.84 21.2045V27H208.181V25.8068H208.113C208.003 26.0265 207.838 26.2424 207.619 26.4545C207.399 26.6667 207.117 26.8428 206.772 26.983C206.427 27.1231 206.014 27.1932 205.533 27.1932ZM205.903 25.8295C206.372 25.8295 206.774 25.7367 207.107 25.5511C207.444 25.3655 207.7 25.1231 207.874 24.8239C208.052 24.5208 208.141 24.197 208.141 23.8523V22.7273C208.081 22.7879 207.963 22.8447 207.789 22.8977C207.619 22.947 207.424 22.9905 207.204 23.0284C206.984 23.0625 206.77 23.0947 206.562 23.125C206.353 23.1515 206.179 23.1742 206.039 23.1932C205.71 23.2348 205.408 23.3049 205.136 23.4034C204.867 23.5019 204.651 23.6439 204.488 23.8295C204.329 24.0114 204.249 24.2538 204.249 24.5568C204.249 24.9773 204.405 25.2955 204.715 25.5114C205.026 25.7235 205.422 25.8295 205.903 25.8295ZM216.832 21.1818C216.832 19.7576 217.019 18.447 217.394 17.25C217.769 16.053 218.317 14.9489 219.036 13.9375H220.593C220.313 14.3125 220.051 14.7727 219.809 15.3182C219.567 15.8636 219.354 16.4621 219.173 17.1136C218.991 17.7614 218.849 18.4337 218.746 19.1307C218.644 19.8239 218.593 20.5076 218.593 21.1818C218.593 22.0833 218.682 22.9962 218.86 23.9205C219.038 24.8447 219.279 25.7027 219.582 26.4943C219.885 27.286 220.222 27.9318 220.593 28.4318H219.036C218.317 27.4205 217.769 26.3163 217.394 25.1193C217.019 23.9223 216.832 22.6098 216.832 21.1818ZM232.185 19.1477H230.413C230.344 18.7689 230.218 18.4356 230.032 18.1477C229.846 17.8598 229.619 17.6155 229.35 17.4148C229.081 17.214 228.78 17.0625 228.447 16.9602C228.117 16.858 227.767 16.8068 227.396 16.8068C226.725 16.8068 226.125 16.9754 225.594 17.3125C225.068 17.6496 224.651 18.1439 224.344 18.7955C224.041 19.447 223.89 20.2424 223.89 21.1818C223.89 22.1288 224.041 22.928 224.344 23.5795C224.651 24.2311 225.07 24.7235 225.6 25.0568C226.13 25.3902 226.727 25.5568 227.39 25.5568C227.757 25.5568 228.106 25.5076 228.435 25.4091C228.769 25.3068 229.07 25.1572 229.339 24.9602C229.608 24.7633 229.835 24.5227 230.021 24.2386C230.21 23.9508 230.341 23.6212 230.413 23.25L232.185 23.2557C232.091 23.8277 231.907 24.3542 231.634 24.8352C231.365 25.3125 231.019 25.7254 230.594 26.0739C230.174 26.4186 229.693 26.6856 229.151 26.875C228.61 27.0644 228.019 27.1591 227.379 27.1591C226.371 27.1591 225.473 26.9205 224.685 26.4432C223.897 25.9621 223.276 25.2746 222.822 24.3807C222.371 23.4867 222.146 22.4205 222.146 21.1818C222.146 19.9394 222.373 18.8731 222.827 17.983C223.282 17.089 223.903 16.4034 224.691 15.9261C225.479 15.4451 226.375 15.2045 227.379 15.2045C227.996 15.2045 228.572 15.2936 229.106 15.4716C229.644 15.6458 230.127 15.9034 230.555 16.2443C230.983 16.5814 231.337 16.9943 231.617 17.483C231.897 17.9678 232.087 18.5227 232.185 19.1477ZM240.633 18.4205C240.572 17.8826 240.322 17.4659 239.883 17.1705C239.443 16.8712 238.89 16.7216 238.224 16.7216C237.746 16.7216 237.334 16.7973 236.985 16.9489C236.637 17.0966 236.366 17.3011 236.173 17.5625C235.983 17.8201 235.888 18.1136 235.888 18.4432C235.888 18.7197 235.953 18.9583 236.082 19.1591C236.214 19.3598 236.387 19.5284 236.599 19.6648C236.815 19.7973 237.046 19.9091 237.292 20C237.538 20.0871 237.775 20.1591 238.002 20.2159L239.138 20.5114C239.51 20.6023 239.89 20.7254 240.281 20.8807C240.671 21.036 241.032 21.2405 241.366 21.4943C241.699 21.7481 241.968 22.0625 242.173 22.4375C242.381 22.8125 242.485 23.2614 242.485 23.7841C242.485 24.4432 242.315 25.0284 241.974 25.5398C241.637 26.0511 241.146 26.4545 240.502 26.75C239.862 27.0455 239.087 27.1932 238.178 27.1932C237.307 27.1932 236.553 27.0549 235.917 26.7784C235.281 26.5019 234.782 26.1098 234.423 25.6023C234.063 25.0909 233.864 24.4848 233.826 23.7841H235.587C235.621 24.2045 235.758 24.5549 235.996 24.8352C236.239 25.1117 236.548 25.3182 236.923 25.4545C237.301 25.5871 237.716 25.6534 238.167 25.6534C238.663 25.6534 239.104 25.5758 239.491 25.4205C239.881 25.2614 240.188 25.0417 240.411 24.7614C240.635 24.4773 240.746 24.1458 240.746 23.767C240.746 23.4223 240.648 23.1402 240.451 22.9205C240.258 22.7008 239.995 22.5189 239.661 22.375C239.332 22.2311 238.959 22.1042 238.542 21.9943L237.167 21.6193C236.235 21.3655 235.496 20.9924 234.951 20.5C234.409 20.0076 234.138 19.3561 234.138 18.5455C234.138 17.875 234.32 17.2898 234.684 16.7898C235.048 16.2898 235.54 15.9015 236.161 15.625C236.782 15.3447 237.483 15.2045 238.263 15.2045C239.051 15.2045 239.746 15.3428 240.349 15.6193C240.955 15.8958 241.432 16.2765 241.781 16.7614C242.129 17.2424 242.311 17.7955 242.326 18.4205H240.633ZM245.6 15.3636L248.839 24.8409H248.969L252.208 15.3636H254.106L249.918 27H247.89L243.702 15.3636H245.6ZM258.917 21.1818C258.917 22.6098 258.729 23.9223 258.354 25.1193C257.979 26.3163 257.432 27.4205 256.712 28.4318H255.156C255.436 28.0568 255.697 27.5966 255.94 27.0511C256.182 26.5057 256.394 25.9091 256.576 25.2614C256.758 24.6098 256.9 23.9356 257.002 23.2386C257.104 22.5417 257.156 21.8561 257.156 21.1818C257.156 20.2841 257.067 19.3731 256.888 18.4489C256.71 17.5246 256.47 16.6667 256.167 15.875C255.864 15.0833 255.527 14.4375 255.156 13.9375H256.712C257.432 14.9489 257.979 16.053 258.354 17.25C258.729 18.447 258.917 19.7576 258.917 21.1818Z" fill="white"/>
<path d="M26.4531 27V15M26.4531 27L21.4531 22M26.4531 27L31.4531 22M35.4531 27V31C35.4531 31.5304 35.2424 32.0391 34.8673 32.4142C34.4923 32.7893 33.9836 33 33.4531 33H19.4531C18.9227 33 18.414 32.7893 18.0389 32.4142C17.6638 32.0391 17.4531 31.5304 17.4531 31V27" stroke="white" stroke-width="2" stroke-linecap="round" stroke-linejoin="round"/>
</svg>
