<svg width="208" height="48" viewBox="0 0 208 48" fill="none" xmlns="http://www.w3.org/2000/svg">
<path d="M8 1H199.844C203.71 1 206.844 4.13401 206.844 8V40C206.844 43.866 203.71 47 199.844 47H8C4.13401 47 1 43.866 1 40V8C1 4.13401 4.13401 1 8 1Z" stroke="#E74C3C" stroke-width="2"/>
<path d="M74.9283 21.2898H72.8033C72.7427 20.9413 72.6309 20.6326 72.468 20.3636C72.3052 20.0909 72.1025 19.8598 71.8601 19.6705C71.6177 19.4811 71.3411 19.339 71.0305 19.2443C70.7237 19.1458 70.3923 19.0966 70.0362 19.0966C69.4036 19.0966 68.843 19.2557 68.3544 19.5739C67.8658 19.8883 67.4832 20.3504 67.2067 20.9602C66.9302 21.5663 66.7919 22.3068 66.7919 23.1818C66.7919 24.072 66.9302 24.822 67.2067 25.4318C67.487 26.0379 67.8696 26.4962 68.3544 26.8068C68.843 27.1136 69.4018 27.267 70.0305 27.267C70.379 27.267 70.7048 27.2216 71.0078 27.1307C71.3146 27.036 71.5893 26.8977 71.8317 26.7159C72.0779 26.5341 72.2843 26.3106 72.451 26.0455C72.6214 25.7803 72.7389 25.4773 72.8033 25.1364L74.9283 25.1477C74.8487 25.7008 74.6764 26.2197 74.4112 26.7045C74.1499 27.1894 73.8071 27.6174 73.3828 27.9886C72.9586 28.3561 72.4624 28.6439 71.8942 28.8523C71.326 29.0568 70.6953 29.1591 70.0021 29.1591C68.9794 29.1591 68.0665 28.9223 67.2635 28.4489C66.4605 27.9754 65.8279 27.2917 65.3658 26.3977C64.9036 25.5038 64.6726 24.4318 64.6726 23.1818C64.6726 21.928 64.9055 20.8561 65.3714 19.9659C65.8374 19.072 66.4718 18.3883 67.2749 17.9148C68.0779 17.4413 68.987 17.2045 70.0021 17.2045C70.6499 17.2045 71.2521 17.2955 71.8089 17.4773C72.3658 17.6591 72.862 17.9261 73.2976 18.2784C73.7332 18.6269 74.0911 19.0549 74.3714 19.5625C74.6555 20.0663 74.8411 20.642 74.9283 21.2898ZM78.8246 17.3636V29H76.7678V17.3636H78.8246ZM84.8033 29.1705C83.9283 29.1705 83.1726 28.9886 82.5362 28.625C81.9036 28.2576 81.4169 27.7386 81.076 27.0682C80.7351 26.3939 80.5646 25.6004 80.5646 24.6875C80.5646 23.7898 80.7351 23.0019 81.076 22.3239C81.4207 21.642 81.9018 21.1117 82.5192 20.733C83.1366 20.3504 83.862 20.1591 84.6953 20.1591C85.2332 20.1591 85.7408 20.2462 86.218 20.4205C86.6991 20.5909 87.1233 20.8561 87.4908 21.2159C87.862 21.5758 88.1536 22.0341 88.3658 22.5909C88.5779 23.1439 88.6839 23.803 88.6839 24.5682V25.1989H81.5305V23.8125H86.7124C86.7086 23.4186 86.6233 23.0682 86.4567 22.7614C86.29 22.4508 86.0571 22.2064 85.7578 22.0284C85.4624 21.8504 85.1177 21.7614 84.7237 21.7614C84.3033 21.7614 83.9339 21.8636 83.6158 22.0682C83.2976 22.2689 83.0495 22.5341 82.8714 22.8636C82.6972 23.1894 82.6082 23.5473 82.6044 23.9375V25.1477C82.6044 25.6553 82.6972 26.0909 82.8828 26.4545C83.0684 26.8144 83.3279 27.0909 83.6612 27.2841C83.9946 27.4735 84.3847 27.5682 84.8317 27.5682C85.1309 27.5682 85.4018 27.5265 85.6442 27.4432C85.8866 27.3561 86.0968 27.2292 86.2749 27.0625C86.4529 26.8958 86.5874 26.6894 86.6783 26.4432L88.5987 26.6591C88.4775 27.1667 88.2464 27.6098 87.9055 27.9886C87.5684 28.3636 87.1366 28.6553 86.6101 28.8636C86.0836 29.0682 85.4813 29.1705 84.8033 29.1705ZM92.9354 29.1761C92.3823 29.1761 91.8842 29.0777 91.4411 28.8807C91.0017 28.6799 90.6532 28.3845 90.3956 27.9943C90.1418 27.6042 90.0149 27.1231 90.0149 26.5511C90.0149 26.0587 90.1058 25.6515 90.2876 25.3295C90.4695 25.0076 90.7176 24.75 91.032 24.5568C91.3464 24.3636 91.7005 24.2178 92.0945 24.1193C92.4922 24.017 92.9032 23.9432 93.3274 23.8977C93.8388 23.8447 94.2536 23.7973 94.5717 23.7557C94.8899 23.7102 95.121 23.642 95.2649 23.5511C95.4126 23.4564 95.4865 23.3106 95.4865 23.1136V23.0795C95.4865 22.6515 95.3596 22.3201 95.1058 22.0852C94.852 21.8504 94.4865 21.733 94.0092 21.733C93.5054 21.733 93.1058 21.8428 92.8104 22.0625C92.5187 22.2822 92.3217 22.5417 92.2195 22.8409L90.299 22.5682C90.4505 22.0379 90.7005 21.5947 91.049 21.2386C91.3975 20.8788 91.8236 20.6098 92.3274 20.4318C92.8312 20.25 93.388 20.1591 93.9979 20.1591C94.4183 20.1591 94.8369 20.2083 95.2536 20.3068C95.6702 20.4053 96.0509 20.5682 96.3956 20.7955C96.7403 21.0189 97.0168 21.3239 97.2251 21.7102C97.4373 22.0966 97.5433 22.5795 97.5433 23.1591V29H95.5661V27.8011H95.4979C95.3729 28.0436 95.1967 28.2708 94.9695 28.483C94.746 28.6913 94.4638 28.8598 94.1229 28.9886C93.7857 29.1136 93.3899 29.1761 92.9354 29.1761ZM93.4695 27.6648C93.8823 27.6648 94.2403 27.5833 94.5433 27.4205C94.8464 27.2538 95.0793 27.0341 95.2422 26.7614C95.4089 26.4886 95.4922 26.1913 95.4922 25.8693V24.8409C95.4278 24.8939 95.3179 24.9432 95.1626 24.9886C95.0111 25.0341 94.8407 25.0739 94.6513 25.108C94.4619 25.142 94.2744 25.1723 94.0888 25.1989C93.9032 25.2254 93.7422 25.2481 93.6058 25.267C93.299 25.3087 93.0244 25.3769 92.782 25.4716C92.5395 25.5663 92.3482 25.6989 92.2081 25.8693C92.0679 26.036 91.9979 26.2519 91.9979 26.517C91.9979 26.8958 92.1361 27.1818 92.4126 27.375C92.6892 27.5682 93.0414 27.6648 93.4695 27.6648ZM99.6115 29V20.2727H101.606V21.7273H101.697C101.856 21.2235 102.129 20.8352 102.515 20.5625C102.905 20.286 103.35 20.1477 103.85 20.1477C103.964 20.1477 104.091 20.1534 104.231 20.1648C104.375 20.1723 104.494 20.1856 104.589 20.2045V22.0966C104.502 22.0663 104.363 22.0398 104.174 22.017C103.988 21.9905 103.808 21.9773 103.634 21.9773C103.259 21.9773 102.922 22.0587 102.623 22.2216C102.327 22.3807 102.094 22.6023 101.924 22.8864C101.754 23.1705 101.668 23.4981 101.668 23.8693V29H99.6115ZM119.975 21.2898H117.85C117.79 20.9413 117.678 20.6326 117.515 20.3636C117.352 20.0909 117.149 19.8598 116.907 19.6705C116.665 19.4811 116.388 19.339 116.077 19.2443C115.771 19.1458 115.439 19.0966 115.083 19.0966C114.451 19.0966 113.89 19.2557 113.401 19.5739C112.913 19.8883 112.53 20.3504 112.254 20.9602C111.977 21.5663 111.839 22.3068 111.839 23.1818C111.839 24.072 111.977 24.822 112.254 25.4318C112.534 26.0379 112.916 26.4962 113.401 26.8068C113.89 27.1136 114.449 27.267 115.077 27.267C115.426 27.267 115.752 27.2216 116.055 27.1307C116.362 27.036 116.636 26.8977 116.879 26.7159C117.125 26.5341 117.331 26.3106 117.498 26.0455C117.668 25.7803 117.786 25.4773 117.85 25.1364L119.975 25.1477C119.896 25.7008 119.723 26.2197 119.458 26.7045C119.197 27.1894 118.854 27.6174 118.43 27.9886C118.005 28.3561 117.509 28.6439 116.941 28.8523C116.373 29.0568 115.742 29.1591 115.049 29.1591C114.026 29.1591 113.113 28.9223 112.31 28.4489C111.507 27.9754 110.875 27.2917 110.413 26.3977C109.951 25.5038 109.719 24.4318 109.719 23.1818C109.719 21.928 109.952 20.8561 110.418 19.9659C110.884 19.072 111.519 18.3883 112.322 17.9148C113.125 17.4413 114.034 17.2045 115.049 17.2045C115.697 17.2045 116.299 17.2955 116.856 17.4773C117.413 17.6591 117.909 17.9261 118.344 18.2784C118.78 18.6269 119.138 19.0549 119.418 19.5625C119.702 20.0663 119.888 20.642 119.975 21.2898ZM124.326 29.1761C123.773 29.1761 123.275 29.0777 122.832 28.8807C122.392 28.6799 122.044 28.3845 121.786 27.9943C121.532 27.6042 121.406 27.1231 121.406 26.5511C121.406 26.0587 121.496 25.6515 121.678 25.3295C121.86 25.0076 122.108 24.75 122.423 24.5568C122.737 24.3636 123.091 24.2178 123.485 24.1193C123.883 24.017 124.294 23.9432 124.718 23.8977C125.229 23.8447 125.644 23.7973 125.962 23.7557C126.281 23.7102 126.512 23.642 126.656 23.5511C126.803 23.4564 126.877 23.3106 126.877 23.1136V23.0795C126.877 22.6515 126.75 22.3201 126.496 22.0852C126.243 21.8504 125.877 21.733 125.4 21.733C124.896 21.733 124.496 21.8428 124.201 22.0625C123.909 22.2822 123.712 22.5417 123.61 22.8409L121.69 22.5682C121.841 22.0379 122.091 21.5947 122.44 21.2386C122.788 20.8788 123.214 20.6098 123.718 20.4318C124.222 20.25 124.779 20.1591 125.388 20.1591C125.809 20.1591 126.228 20.2083 126.644 20.3068C127.061 20.4053 127.442 20.5682 127.786 20.7955C128.131 21.0189 128.407 21.3239 128.616 21.7102C128.828 22.0966 128.934 22.5795 128.934 23.1591V29H126.957V27.8011H126.888C126.763 28.0436 126.587 28.2708 126.36 28.483C126.137 28.6913 125.854 28.8598 125.513 28.9886C125.176 29.1136 124.781 29.1761 124.326 29.1761ZM124.86 27.6648C125.273 27.6648 125.631 27.5833 125.934 27.4205C126.237 27.2538 126.47 27.0341 126.633 26.7614C126.799 26.4886 126.883 26.1913 126.883 25.8693V24.8409C126.818 24.8939 126.709 24.9432 126.553 24.9886C126.402 25.0341 126.231 25.0739 126.042 25.108C125.853 25.142 125.665 25.1723 125.479 25.1989C125.294 25.2254 125.133 25.2481 124.996 25.267C124.69 25.3087 124.415 25.3769 124.173 25.4716C123.93 25.5663 123.739 25.6989 123.599 25.8693C123.459 26.036 123.388 26.2519 123.388 26.517C123.388 26.8958 123.527 27.1818 123.803 27.375C124.08 27.5682 124.432 27.6648 124.86 27.6648ZM134.809 29.1705C133.938 29.1705 133.19 28.9792 132.565 28.5966C131.943 28.214 131.464 27.6856 131.127 27.0114C130.794 26.3333 130.627 25.553 130.627 24.6705C130.627 23.7841 130.798 23.0019 131.138 22.3239C131.479 21.642 131.96 21.1117 132.582 20.733C133.207 20.3504 133.945 20.1591 134.798 20.1591C135.506 20.1591 136.133 20.2898 136.678 20.5511C137.228 20.8087 137.665 21.1742 137.991 21.6477C138.317 22.1174 138.502 22.6667 138.548 23.2955H136.582C136.502 22.875 136.313 22.5246 136.013 22.2443C135.718 21.9602 135.322 21.8182 134.826 21.8182C134.406 21.8182 134.036 21.9318 133.718 22.1591C133.4 22.3826 133.152 22.7045 132.974 23.125C132.799 23.5455 132.712 24.0492 132.712 24.6364C132.712 25.2311 132.799 25.7424 132.974 26.1705C133.148 26.5947 133.392 26.9223 133.707 27.1534C134.025 27.3807 134.398 27.4943 134.826 27.4943C135.129 27.4943 135.4 27.4375 135.638 27.3239C135.881 27.2064 136.084 27.0379 136.246 26.8182C136.409 26.5985 136.521 26.3314 136.582 26.017H138.548C138.498 26.6345 138.317 27.1818 138.002 27.6591C137.688 28.1326 137.26 28.5038 136.718 28.7727C136.176 29.0379 135.54 29.1705 134.809 29.1705ZM142.293 23.8864V29H140.237V17.3636H142.248V21.7557H142.35C142.555 21.2633 142.871 20.875 143.299 20.5909C143.731 20.303 144.28 20.1591 144.947 20.1591C145.553 20.1591 146.081 20.286 146.532 20.5398C146.983 20.7936 147.331 21.1648 147.577 21.6534C147.827 22.142 147.952 22.7386 147.952 23.4432V29H145.896V23.7614C145.896 23.1742 145.744 22.7178 145.441 22.392C145.142 22.0625 144.721 21.8977 144.18 21.8977C143.816 21.8977 143.49 21.9773 143.202 22.1364C142.918 22.2917 142.695 22.517 142.532 22.8125C142.373 23.108 142.293 23.4659 142.293 23.8864ZM153.913 29.1705C153.038 29.1705 152.282 28.9886 151.646 28.625C151.013 28.2576 150.526 27.7386 150.185 27.0682C149.844 26.3939 149.674 25.6004 149.674 24.6875C149.674 23.7898 149.844 23.0019 150.185 22.3239C150.53 21.642 151.011 21.1117 151.629 20.733C152.246 20.3504 152.971 20.1591 153.805 20.1591C154.343 20.1591 154.85 20.2462 155.327 20.4205C155.808 20.5909 156.233 20.8561 156.6 21.2159C156.971 21.5758 157.263 22.0341 157.475 22.5909C157.687 23.1439 157.793 23.803 157.793 24.5682V25.1989H150.64V23.8125H155.822C155.818 23.4186 155.733 23.0682 155.566 22.7614C155.399 22.4508 155.166 22.2064 154.867 22.0284C154.572 21.8504 154.227 21.7614 153.833 21.7614C153.413 21.7614 153.043 21.8636 152.725 22.0682C152.407 22.2689 152.159 22.5341 151.981 22.8636C151.807 23.1894 151.718 23.5473 151.714 23.9375V25.1477C151.714 25.6553 151.807 26.0909 151.992 26.4545C152.178 26.8144 152.437 27.0909 152.771 27.2841C153.104 27.4735 153.494 27.5682 153.941 27.5682C154.24 27.5682 154.511 27.5265 154.754 27.4432C154.996 27.3561 155.206 27.2292 155.384 27.0625C155.562 26.8958 155.697 26.6894 155.788 26.4432L157.708 26.6591C157.587 27.1667 157.356 27.6098 157.015 27.9886C156.678 28.3636 156.246 28.6553 155.719 28.8636C155.193 29.0682 154.591 29.1705 153.913 29.1705ZM173.156 17.3636V29H171.281L165.798 21.0739H165.701V29H163.593V17.3636H165.479L170.957 25.2955H171.059V17.3636H173.156ZM179.168 29.1705C178.316 29.1705 177.577 28.983 176.952 28.608C176.327 28.233 175.843 27.7083 175.498 27.0341C175.157 26.3598 174.987 25.572 174.987 24.6705C174.987 23.7689 175.157 22.9792 175.498 22.3011C175.843 21.6231 176.327 21.0966 176.952 20.7216C177.577 20.3466 178.316 20.1591 179.168 20.1591C180.021 20.1591 180.759 20.3466 181.384 20.7216C182.009 21.0966 182.492 21.6231 182.833 22.3011C183.178 22.9792 183.35 23.7689 183.35 24.6705C183.35 25.572 183.178 26.3598 182.833 27.0341C182.492 27.7083 182.009 28.233 181.384 28.608C180.759 28.983 180.021 29.1705 179.168 29.1705ZM179.18 27.5227C179.642 27.5227 180.028 27.3958 180.339 27.142C180.649 26.8845 180.88 26.5398 181.032 26.108C181.187 25.6761 181.265 25.1951 181.265 24.6648C181.265 24.1307 181.187 23.6477 181.032 23.2159C180.88 22.7803 180.649 22.4337 180.339 22.1761C180.028 21.9186 179.642 21.7898 179.18 21.7898C178.706 21.7898 178.312 21.9186 177.998 22.1761C177.687 22.4337 177.454 22.7803 177.299 23.2159C177.147 23.6477 177.072 24.1307 177.072 24.6648C177.072 25.1951 177.147 25.6761 177.299 26.108C177.454 26.5398 177.687 26.8845 177.998 27.142C178.312 27.3958 178.706 27.5227 179.18 27.5227ZM186.647 29L184.181 20.2727H186.278L187.812 26.4091H187.891L189.46 20.2727H191.533L193.102 26.375H193.187L194.698 20.2727H196.8L194.329 29H192.187L190.55 23.1023H190.431L188.795 29H186.647Z" fill="#E74C3C"/>
<path d="M24.8438 25V31M28.8438 25V31M33.8438 20V34C33.8438 34.5304 33.633 35.0391 33.258 35.4142C32.8829 35.7893 32.3742 36 31.8438 36H21.8438C21.3133 36 20.8046 35.7893 20.4295 35.4142C20.0545 35.0391 19.8438 34.5304 19.8438 34V20M17.8438 20H35.8438M22.8438 20V18C22.8438 17.4696 23.0545 16.9609 23.4295 16.5858C23.8046 16.2107 24.3133 16 24.8438 16H28.8438C29.3742 16 29.8829 16.2107 30.258 16.5858C30.633 16.9609 30.8438 17.4696 30.8438 18V20" stroke="#FF0000" stroke-width="2" stroke-linecap="round" stroke-linejoin="round"/>
</svg>
