<svg width="188" height="40" viewBox="0 0 188 40" fill="none" xmlns="http://www.w3.org/2000/svg">
<path d="M179.969 0C184.387 0 187.969 3.58172 187.969 8V32C187.969 36.4183 184.387 40 179.969 40H8C3.58172 40 0 36.4183 0 32V8C0 3.58172 3.58172 0 8 0H179.969Z" fill="#059669"/>
<path d="M179.969 0C184.387 0 187.969 3.58172 187.969 8V32C187.969 36.4183 184.387 40 179.969 40H8C3.58172 40 0 36.4183 0 32V8C0 3.58172 3.58172 0 8 0H179.969Z" stroke="#E5E7EB"/>
<path d="M35.0916 17.1477H33.3189C33.2507 16.7689 33.1238 16.4356 32.9382 16.1477C32.7526 15.8598 32.5253 15.6155 32.2564 15.4148C31.9875 15.214 31.6863 15.0625 31.353 14.9602C31.0234 14.858 30.6731 14.8068 30.3018 14.8068C29.6314 14.8068 29.031 14.9754 28.5007 15.3125C27.9742 15.6496 27.5575 16.1439 27.2507 16.7955C26.9477 17.447 26.7962 18.2424 26.7962 19.1818C26.7962 20.1288 26.9477 20.928 27.2507 21.5795C27.5575 22.2311 27.9761 22.7235 28.5064 23.0568C29.0367 23.3902 29.6333 23.5568 30.2962 23.5568C30.6636 23.5568 31.0121 23.5076 31.3416 23.4091C31.675 23.3068 31.9761 23.1572 32.245 22.9602C32.514 22.7633 32.7412 22.5227 32.9268 22.2386C33.1162 21.9508 33.2469 21.6212 33.3189 21.25L35.0916 21.2557C34.9969 21.8277 34.8132 22.3542 34.5405 22.8352C34.2715 23.3125 33.925 23.7254 33.5007 24.0739C33.0803 24.4186 32.5992 24.6856 32.0575 24.875C31.5159 25.0644 30.925 25.1591 30.2848 25.1591C29.2772 25.1591 28.3795 24.9205 27.5916 24.4432C26.8037 23.9621 26.1825 23.2746 25.728 22.3807C25.2772 21.4867 25.0518 20.4205 25.0518 19.1818C25.0518 17.9394 25.2791 16.8731 25.7337 15.983C26.1882 15.089 26.8094 14.4034 27.5973 13.9261C28.3852 13.4451 29.281 13.2045 30.2848 13.2045C30.9022 13.2045 31.478 13.2936 32.0121 13.4716C32.55 13.6458 33.0329 13.9034 33.4609 14.2443C33.889 14.5814 34.2431 14.9943 34.5234 15.483C34.8037 15.9678 34.9931 16.5227 35.0916 17.1477ZM40.7322 25.1761C39.9141 25.1761 39.2 24.9886 38.5902 24.6136C37.9804 24.2386 37.5069 23.714 37.1697 23.0398C36.8326 22.3655 36.6641 21.5777 36.6641 20.6761C36.6641 19.7708 36.8326 18.9792 37.1697 18.3011C37.5069 17.6231 37.9804 17.0966 38.5902 16.7216C39.2 16.3466 39.9141 16.1591 40.7322 16.1591C41.5504 16.1591 42.2644 16.3466 42.8743 16.7216C43.4841 17.0966 43.9576 17.6231 44.2947 18.3011C44.6319 18.9792 44.8004 19.7708 44.8004 20.6761C44.8004 21.5777 44.6319 22.3655 44.2947 23.0398C43.9576 23.714 43.4841 24.2386 42.8743 24.6136C42.2644 24.9886 41.5504 25.1761 40.7322 25.1761ZM40.7379 23.75C41.2682 23.75 41.7076 23.6098 42.0561 23.3295C42.4046 23.0492 42.6622 22.6761 42.8288 22.2102C42.9993 21.7443 43.0845 21.2311 43.0845 20.6705C43.0845 20.1136 42.9993 19.6023 42.8288 19.1364C42.6622 18.6667 42.4046 18.2898 42.0561 18.0057C41.7076 17.7216 41.2682 17.5795 40.7379 17.5795C40.2038 17.5795 39.7607 17.7216 39.4084 18.0057C39.0599 18.2898 38.8004 18.6667 38.63 19.1364C38.4633 19.6023 38.38 20.1136 38.38 20.6705C38.38 21.2311 38.4633 21.7443 38.63 22.2102C38.8004 22.6761 39.0599 23.0492 39.4084 23.3295C39.7607 23.6098 40.2038 23.75 40.7379 23.75ZM48.3956 19.8182V25H46.6967V16.2727H48.3274V17.6932H48.4354C48.6361 17.2311 48.9505 16.8598 49.3786 16.5795C49.8104 16.2992 50.3539 16.1591 51.0092 16.1591C51.6039 16.1591 52.1248 16.2841 52.5717 16.5341C53.0187 16.7803 53.3653 17.1477 53.6115 17.6364C53.8577 18.125 53.9808 18.7292 53.9808 19.4489V25H52.282V19.6534C52.282 19.0208 52.1172 18.5265 51.7876 18.1705C51.4581 17.8106 51.0054 17.6307 50.4297 17.6307C50.0357 17.6307 49.6854 17.7159 49.3786 17.8864C49.0755 18.0568 48.835 18.3068 48.657 18.6364C48.4827 18.9621 48.3956 19.3561 48.3956 19.8182ZM57.9581 19.8182V25H56.2592V16.2727H57.8899V17.6932H57.9979C58.1986 17.2311 58.513 16.8598 58.9411 16.5795C59.3729 16.2992 59.9164 16.1591 60.5717 16.1591C61.1664 16.1591 61.6873 16.2841 62.1342 16.5341C62.5812 16.7803 62.9278 17.1477 63.174 17.6364C63.4202 18.125 63.5433 18.7292 63.5433 19.4489V25H61.8445V19.6534C61.8445 19.0208 61.6797 18.5265 61.3501 18.1705C61.0206 17.8106 60.5679 17.6307 59.9922 17.6307C59.5982 17.6307 59.2479 17.7159 58.9411 17.8864C58.638 18.0568 58.3975 18.3068 58.2195 18.6364C58.0452 18.9621 57.9581 19.3561 57.9581 19.8182ZM69.5831 25.1761C68.7232 25.1761 67.9827 24.9924 67.3615 24.625C66.7441 24.2538 66.2668 23.733 65.9297 23.0625C65.5964 22.3883 65.4297 21.5985 65.4297 20.6932C65.4297 19.7992 65.5964 19.0114 65.9297 18.3295C66.2668 17.6477 66.7365 17.1155 67.3388 16.733C67.9448 16.3504 68.6532 16.1591 69.4638 16.1591C69.9562 16.1591 70.4335 16.2405 70.8956 16.4034C71.3577 16.5663 71.7725 16.822 72.1399 17.1705C72.5073 17.5189 72.7971 17.9716 73.0092 18.5284C73.2214 19.0814 73.3274 19.7538 73.3274 20.5455V21.1477H66.3899V19.875H71.6626C71.6626 19.428 71.5717 19.0322 71.3899 18.6875C71.2081 18.339 70.9524 18.0644 70.6229 17.8636C70.2971 17.6629 69.9145 17.5625 69.4751 17.5625C68.9979 17.5625 68.5812 17.6799 68.2251 17.9148C67.8729 18.1458 67.6001 18.4489 67.407 18.8239C67.2176 19.1951 67.1229 19.5985 67.1229 20.0341V21.0284C67.1229 21.6117 67.2251 22.108 67.4297 22.517C67.638 22.9261 67.9278 23.2386 68.299 23.4545C68.6702 23.6667 69.1039 23.7727 69.6001 23.7727C69.9221 23.7727 70.2157 23.7273 70.4808 23.6364C70.746 23.5417 70.9751 23.4015 71.1683 23.2159C71.3615 23.0303 71.5092 22.8011 71.6115 22.5284L73.2195 22.8182C73.0907 23.2917 72.8596 23.7064 72.5263 24.0625C72.1967 24.4148 71.782 24.6894 71.282 24.8864C70.7857 25.0795 70.2195 25.1761 69.5831 25.1761ZM78.8885 25.1761C78.0438 25.1761 77.3165 24.9848 76.7067 24.6023C76.1006 24.2159 75.6347 23.6837 75.3089 23.0057C74.9832 22.3277 74.8203 21.5511 74.8203 20.6761C74.8203 19.7898 74.987 19.0076 75.3203 18.3295C75.6536 17.6477 76.1233 17.1155 76.7294 16.733C77.3355 16.3504 78.0495 16.1591 78.8714 16.1591C79.5343 16.1591 80.1252 16.2822 80.6442 16.5284C81.1631 16.7708 81.5817 17.1117 81.8999 17.5511C82.2218 17.9905 82.4131 18.5038 82.4737 19.0909H80.8203C80.7294 18.6818 80.5211 18.3295 80.1953 18.0341C79.8733 17.7386 79.4415 17.5909 78.8999 17.5909C78.4264 17.5909 78.0116 17.7159 77.6555 17.9659C77.3033 18.2121 77.0286 18.5644 76.8317 19.0227C76.6347 19.4773 76.5362 20.0152 76.5362 20.6364C76.5362 21.2727 76.6328 21.822 76.826 22.2841C77.0192 22.7462 77.2919 23.1042 77.6442 23.358C78.0002 23.6117 78.4188 23.7386 78.8999 23.7386C79.2218 23.7386 79.5135 23.6799 79.7749 23.5625C80.04 23.4413 80.2616 23.2689 80.4396 23.0455C80.6214 22.822 80.7483 22.553 80.8203 22.2386H82.4737C82.4131 22.803 82.2294 23.3068 81.9226 23.75C81.6158 24.1932 81.2048 24.5417 80.6896 24.7955C80.1783 25.0492 79.5779 25.1761 78.8885 25.1761ZM88.3643 16.2727V17.6364H83.5973V16.2727H88.3643ZM84.8757 14.1818H86.5746V22.4375C86.5746 22.767 86.6238 23.0152 86.7223 23.1818C86.8208 23.3447 86.9477 23.4564 87.103 23.517C87.2621 23.5739 87.4344 23.6023 87.62 23.6023C87.7564 23.6023 87.8757 23.5928 87.978 23.5739C88.0803 23.5549 88.1598 23.5398 88.2166 23.5284L88.5234 24.9318C88.425 24.9697 88.2848 25.0076 88.103 25.0455C87.9212 25.0871 87.6939 25.1098 87.4212 25.1136C86.9742 25.1212 86.5575 25.0417 86.1712 24.875C85.7848 24.7083 85.4723 24.4508 85.2337 24.1023C84.995 23.7538 84.8757 23.3163 84.8757 22.7898V14.1818ZM95.5973 25H93.7337L97.9212 13.3636H99.9496L104.137 25H102.273L98.9837 15.4773H98.8928L95.5973 25ZM95.9098 20.4432H101.955V21.9205H95.9098V20.4432ZM107.38 19.8182V25H105.681V16.2727H107.312V17.6932H107.42C107.621 17.2311 107.935 16.8598 108.363 16.5795C108.795 16.2992 109.338 16.1591 109.994 16.1591C110.588 16.1591 111.109 16.2841 111.556 16.5341C112.003 16.7803 112.35 17.1477 112.596 17.6364C112.842 18.125 112.965 18.7292 112.965 19.4489V25H111.266V19.6534C111.266 19.0208 111.102 18.5265 110.772 18.1705C110.442 17.8106 109.99 17.6307 109.414 17.6307C109.02 17.6307 108.67 17.7159 108.363 17.8864C108.06 18.0568 107.819 18.3068 107.641 18.6364C107.467 18.9621 107.38 19.3561 107.38 19.8182ZM117.783 25.1932C117.23 25.1932 116.73 25.0909 116.283 24.8864C115.836 24.678 115.482 24.3769 115.221 23.983C114.963 23.589 114.835 23.1061 114.835 22.5341C114.835 22.0417 114.929 21.6364 115.119 21.3182C115.308 21 115.564 20.7481 115.886 20.5625C116.208 20.3769 116.567 20.2367 116.965 20.142C117.363 20.0473 117.768 19.9754 118.181 19.9261C118.704 19.8655 119.128 19.8163 119.454 19.7784C119.78 19.7367 120.016 19.6705 120.164 19.5795C120.312 19.4886 120.386 19.3409 120.386 19.1364V19.0966C120.386 18.6004 120.246 18.2159 119.965 17.9432C119.689 17.6705 119.276 17.5341 118.727 17.5341C118.155 17.5341 117.704 17.661 117.374 17.9148C117.049 18.1648 116.823 18.4432 116.698 18.75L115.102 18.3864C115.291 17.8561 115.567 17.428 115.931 17.1023C116.299 16.7727 116.721 16.5341 117.198 16.3864C117.675 16.2348 118.177 16.1591 118.704 16.1591C119.052 16.1591 119.422 16.2008 119.812 16.2841C120.206 16.3636 120.573 16.5114 120.914 16.7273C121.259 16.9432 121.541 17.2519 121.761 17.6534C121.98 18.0511 122.09 18.5682 122.09 19.2045V25H120.431V23.8068H120.363C120.253 24.0265 120.088 24.2424 119.869 24.4545C119.649 24.6667 119.367 24.8428 119.022 24.983C118.677 25.1231 118.264 25.1932 117.783 25.1932ZM118.153 23.8295C118.622 23.8295 119.024 23.7367 119.357 23.5511C119.694 23.3655 119.95 23.1231 120.124 22.8239C120.302 22.5208 120.391 22.197 120.391 21.8523V20.7273C120.331 20.7879 120.213 20.8447 120.039 20.8977C119.869 20.947 119.674 20.9905 119.454 21.0284C119.234 21.0625 119.02 21.0947 118.812 21.125C118.603 21.1515 118.429 21.1742 118.289 21.1932C117.96 21.2348 117.658 21.3049 117.386 21.4034C117.117 21.5019 116.901 21.6439 116.738 21.8295C116.579 22.0114 116.499 22.2538 116.499 22.5568C116.499 22.9773 116.655 23.2955 116.965 23.5114C117.276 23.7235 117.672 23.8295 118.153 23.8295ZM126.052 13.3636V25H124.353V13.3636H126.052ZM129.411 28.2727C129.157 28.2727 128.926 28.2519 128.718 28.2102C128.51 28.1723 128.354 28.1307 128.252 28.0852L128.661 26.6932C128.972 26.7765 129.248 26.8125 129.491 26.8011C129.733 26.7898 129.947 26.6989 130.133 26.5284C130.322 26.358 130.489 26.0795 130.633 25.6932L130.843 25.1136L127.65 16.2727H129.468L131.678 23.0455H131.769L133.979 16.2727H135.803L132.207 26.1648C132.04 26.6193 131.828 27.0038 131.57 27.3182C131.313 27.6364 131.006 27.875 130.65 28.0341C130.294 28.1932 129.881 28.2727 129.411 28.2727ZM141.474 16.2727V17.6364H136.707V16.2727H141.474ZM137.985 14.1818H139.684V22.4375C139.684 22.767 139.733 23.0152 139.832 23.1818C139.93 23.3447 140.057 23.4564 140.212 23.517C140.371 23.5739 140.544 23.6023 140.729 23.6023C140.866 23.6023 140.985 23.5928 141.087 23.5739C141.19 23.5549 141.269 23.5398 141.326 23.5284L141.633 24.9318C141.534 24.9697 141.394 25.0076 141.212 25.0455C141.031 25.0871 140.803 25.1098 140.531 25.1136C140.084 25.1212 139.667 25.0417 139.281 24.875C138.894 24.7083 138.582 24.4508 138.343 24.1023C138.104 23.7538 137.985 23.3163 137.985 22.7898V14.1818ZM143.353 25V16.2727H145.052V25H143.353ZM144.211 14.9261C143.915 14.9261 143.662 14.8277 143.45 14.6307C143.241 14.4299 143.137 14.1913 143.137 13.9148C143.137 13.6345 143.241 13.3958 143.45 13.1989C143.662 12.9981 143.915 12.8977 144.211 12.8977C144.506 12.8977 144.758 12.9981 144.967 13.1989C145.179 13.3958 145.285 13.6345 145.285 13.9148C145.285 14.1913 145.179 14.4299 144.967 14.6307C144.758 14.8277 144.506 14.9261 144.211 14.9261ZM151.013 25.1761C150.169 25.1761 149.442 24.9848 148.832 24.6023C148.226 24.2159 147.76 23.6837 147.434 23.0057C147.108 22.3277 146.945 21.5511 146.945 20.6761C146.945 19.7898 147.112 19.0076 147.445 18.3295C147.779 17.6477 148.248 17.1155 148.854 16.733C149.46 16.3504 150.174 16.1591 150.996 16.1591C151.659 16.1591 152.25 16.2822 152.769 16.5284C153.288 16.7708 153.707 17.1117 154.025 17.5511C154.347 17.9905 154.538 18.5038 154.599 19.0909H152.945C152.854 18.6818 152.646 18.3295 152.32 18.0341C151.998 17.7386 151.567 17.5909 151.025 17.5909C150.551 17.5909 150.137 17.7159 149.781 17.9659C149.428 18.2121 149.154 18.5644 148.957 19.0227C148.76 19.4773 148.661 20.0152 148.661 20.6364C148.661 21.2727 148.758 21.822 148.951 22.2841C149.144 22.7462 149.417 23.1042 149.769 23.358C150.125 23.6117 150.544 23.7386 151.025 23.7386C151.347 23.7386 151.638 23.6799 151.9 23.5625C152.165 23.4413 152.387 23.2689 152.565 23.0455C152.746 22.822 152.873 22.553 152.945 22.2386H154.599C154.538 22.803 154.354 23.3068 154.048 23.75C153.741 24.1932 153.33 24.5417 152.815 24.7955C152.303 25.0492 151.703 25.1761 151.013 25.1761ZM162.955 18.4034L161.415 18.6761C161.351 18.4792 161.249 18.2917 161.109 18.1136C160.972 17.9356 160.787 17.7898 160.552 17.6761C160.317 17.5625 160.023 17.5057 159.671 17.5057C159.19 17.5057 158.789 17.6136 158.467 17.8295C158.145 18.0417 157.984 18.3163 157.984 18.6534C157.984 18.9451 158.092 19.1799 158.308 19.358C158.523 19.536 158.872 19.6818 159.353 19.7955L160.739 20.1136C161.542 20.2992 162.141 20.5852 162.535 20.9716C162.929 21.358 163.126 21.8598 163.126 22.4773C163.126 23 162.974 23.4659 162.671 23.875C162.372 24.2803 161.953 24.5985 161.415 24.8295C160.881 25.0606 160.262 25.1761 159.558 25.1761C158.58 25.1761 157.783 24.9678 157.165 24.5511C156.548 24.1307 156.169 23.5341 156.029 22.7614L157.671 22.5114C157.773 22.9394 157.984 23.2633 158.302 23.483C158.62 23.6989 159.035 23.8068 159.546 23.8068C160.103 23.8068 160.548 23.6913 160.881 23.4602C161.215 23.2254 161.381 22.9394 161.381 22.6023C161.381 22.3295 161.279 22.1004 161.075 21.9148C160.874 21.7292 160.565 21.589 160.148 21.4943L158.671 21.1705C157.857 20.9848 157.254 20.6894 156.864 20.2841C156.478 19.8788 156.285 19.3655 156.285 18.7443C156.285 18.2292 156.429 17.7784 156.717 17.392C157.004 17.0057 157.402 16.7045 157.91 16.4886C158.417 16.2689 158.999 16.1591 159.654 16.1591C160.597 16.1591 161.34 16.3636 161.881 16.7727C162.423 17.178 162.781 17.7216 162.955 18.4034Z" fill="white"/>
</svg>
