<svg width="309" height="43" viewBox="0 0 309 43" fill="none" xmlns="http://www.w3.org/2000/svg">
<path d="M301 0C305.418 0 309 3.58172 309 8V35C309 39.4183 305.418 43 301 43H8C3.58173 43 0 39.4183 0 35V8C5.15405e-07 3.58172 3.58172 0 8 0H301Z" fill="#059669"/>
<path d="M301 0C305.418 0 309 3.58172 309 8V35C309 39.4183 305.418 43 301 43H8C3.58173 43 0 39.4183 0 35V8C5.15405e-07 3.58172 3.58172 0 8 0H301Z" stroke="#E5E7EB"/>
<path d="M51.5447 19.1477H49.772C49.7038 18.7689 49.5769 18.4356 49.3913 18.1477C49.2057 17.8598 48.9785 17.6155 48.7095 17.4148C48.4406 17.214 48.1394 17.0625 47.8061 16.9602C47.4766 16.858 47.1262 16.8068 46.755 16.8068C46.0845 16.8068 45.4841 16.9754 44.9538 17.3125C44.4273 17.6496 44.0107 18.1439 43.7038 18.7955C43.4008 19.447 43.2493 20.2424 43.2493 21.1818C43.2493 22.1288 43.4008 22.928 43.7038 23.5795C44.0107 24.2311 44.4292 24.7235 44.9595 25.0568C45.4898 25.3902 46.0864 25.5568 46.7493 25.5568C47.1167 25.5568 47.4652 25.5076 47.7947 25.4091C48.1281 25.3068 48.4292 25.1572 48.6982 24.9602C48.9671 24.7633 49.1944 24.5227 49.38 24.2386C49.5694 23.9508 49.7 23.6212 49.772 23.25L51.5447 23.2557C51.45 23.8277 51.2663 24.3542 50.9936 24.8352C50.7247 25.3125 50.3781 25.7254 49.9538 26.0739C49.5334 26.4186 49.0523 26.6856 48.5107 26.875C47.969 27.0644 47.3781 27.1591 46.7379 27.1591C45.7304 27.1591 44.8326 26.9205 44.0447 26.4432C43.2569 25.9621 42.6357 25.2746 42.1811 24.3807C41.7304 23.4867 41.505 22.4205 41.505 21.1818C41.505 19.9394 41.7322 18.8731 42.1868 17.983C42.6413 17.089 43.2625 16.4034 44.0504 15.9261C44.8383 15.4451 45.7341 15.2045 46.7379 15.2045C47.3554 15.2045 47.9311 15.2936 48.4652 15.4716C49.0031 15.6458 49.486 15.9034 49.9141 16.2443C50.3421 16.5814 50.6963 16.9943 50.9766 17.483C51.2569 17.9678 51.4463 18.5227 51.5447 19.1477ZM53.5092 27V18.2727H55.1513V19.6591H55.2422C55.4013 19.1894 55.6816 18.8201 56.0831 18.5511C56.4884 18.2784 56.9467 18.142 57.4581 18.142C57.5642 18.142 57.6892 18.1458 57.8331 18.1534C57.9808 18.161 58.0964 18.1705 58.1797 18.1818V19.8068C58.1115 19.7879 57.9903 19.767 57.8161 19.7443C57.6418 19.7178 57.4676 19.7045 57.2933 19.7045C56.8918 19.7045 56.5339 19.7898 56.2195 19.9602C55.9089 20.1269 55.6626 20.3598 55.4808 20.6591C55.299 20.9545 55.2081 21.2917 55.2081 21.6705V27H53.5092ZM63.0987 27.1761C62.2389 27.1761 61.4983 26.9924 60.8771 26.625C60.2597 26.2538 59.7824 25.733 59.4453 25.0625C59.112 24.3883 58.9453 23.5985 58.9453 22.6932C58.9453 21.7992 59.112 21.0114 59.4453 20.3295C59.7824 19.6477 60.2521 19.1155 60.8544 18.733C61.4605 18.3504 62.1688 18.1591 62.9794 18.1591C63.4718 18.1591 63.9491 18.2405 64.4112 18.4034C64.8733 18.5663 65.2881 18.822 65.6555 19.1705C66.023 19.5189 66.3127 19.9716 66.5249 20.5284C66.737 21.0814 66.843 21.7538 66.843 22.5455V23.1477H59.9055V21.875H65.1783C65.1783 21.428 65.0874 21.0322 64.9055 20.6875C64.7237 20.339 64.468 20.0644 64.1385 19.8636C63.8127 19.6629 63.4302 19.5625 62.9908 19.5625C62.5135 19.5625 62.0968 19.6799 61.7408 19.9148C61.3885 20.1458 61.1158 20.4489 60.9226 20.8239C60.7332 21.1951 60.6385 21.5985 60.6385 22.0341V23.0284C60.6385 23.6117 60.7408 24.108 60.9453 24.517C61.1536 24.9261 61.4434 25.2386 61.8146 25.4545C62.1858 25.6667 62.6196 25.7727 63.1158 25.7727C63.4377 25.7727 63.7313 25.7273 63.9964 25.6364C64.2616 25.5417 64.4908 25.4015 64.6839 25.2159C64.8771 25.0303 65.0249 24.8011 65.1271 24.5284L66.7351 24.8182C66.6063 25.2917 66.3752 25.7064 66.0419 26.0625C65.7124 26.4148 65.2976 26.6894 64.7976 26.8864C64.3014 27.0795 63.7351 27.1761 63.0987 27.1761ZM71.2678 27.1932C70.7147 27.1932 70.2147 27.0909 69.7678 26.8864C69.3208 26.678 68.9666 26.3769 68.7053 25.983C68.4477 25.589 68.3189 25.1061 68.3189 24.5341C68.3189 24.0417 68.4136 23.6364 68.603 23.3182C68.7924 23 69.0481 22.7481 69.37 22.5625C69.692 22.3769 70.0518 22.2367 70.4496 22.142C70.8473 22.0473 71.2526 21.9754 71.6655 21.9261C72.1882 21.8655 72.6125 21.8163 72.9382 21.7784C73.264 21.7367 73.5007 21.6705 73.6484 21.5795C73.7962 21.4886 73.87 21.3409 73.87 21.1364V21.0966C73.87 20.6004 73.7299 20.2159 73.4496 19.9432C73.1731 19.6705 72.7602 19.5341 72.2109 19.5341C71.639 19.5341 71.1882 19.661 70.8587 19.9148C70.5329 20.1648 70.3075 20.4432 70.1825 20.75L68.5859 20.3864C68.7753 19.8561 69.0518 19.428 69.4155 19.1023C69.7829 18.7727 70.2053 18.5341 70.6825 18.3864C71.1598 18.2348 71.6617 18.1591 72.1882 18.1591C72.5367 18.1591 72.906 18.2008 73.2962 18.2841C73.6901 18.3636 74.0575 18.5114 74.3984 18.7273C74.7431 18.9432 75.0253 19.2519 75.245 19.6534C75.4647 20.0511 75.5746 20.5682 75.5746 21.2045V27H73.9155V25.8068H73.8473C73.7375 26.0265 73.5727 26.2424 73.353 26.4545C73.1333 26.6667 72.8511 26.8428 72.5064 26.983C72.1617 27.1231 71.7488 27.1932 71.2678 27.1932ZM71.6371 25.8295C72.1068 25.8295 72.5083 25.7367 72.8416 25.5511C73.1787 25.3655 73.4344 25.1231 73.6087 24.8239C73.7867 24.5208 73.8757 24.197 73.8757 23.8523V22.7273C73.8151 22.7879 73.6977 22.8447 73.5234 22.8977C73.353 22.947 73.1579 22.9905 72.9382 23.0284C72.7185 23.0625 72.5045 23.0947 72.2962 23.125C72.0878 23.1515 71.9136 23.1742 71.7734 23.1932C71.4439 23.2348 71.1428 23.3049 70.87 23.4034C70.6011 23.5019 70.3852 23.6439 70.2223 23.8295C70.0632 24.0114 69.9837 24.2538 69.9837 24.5568C69.9837 24.9773 70.139 25.2955 70.4496 25.5114C70.7602 25.7235 71.156 25.8295 71.6371 25.8295ZM81.9112 18.2727V19.6364H77.1442V18.2727H81.9112ZM78.4226 16.1818H80.1214V24.4375C80.1214 24.767 80.1707 25.0152 80.2692 25.1818C80.3677 25.3447 80.4946 25.4564 80.6499 25.517C80.8089 25.5739 80.9813 25.6023 81.1669 25.6023C81.3033 25.6023 81.4226 25.5928 81.5249 25.5739C81.6271 25.5549 81.7067 25.5398 81.7635 25.5284L82.0703 26.9318C81.9718 26.9697 81.8317 27.0076 81.6499 27.0455C81.468 27.0871 81.2408 27.1098 80.968 27.1136C80.5211 27.1212 80.1044 27.0417 79.718 26.875C79.3317 26.7083 79.0192 26.4508 78.7805 26.1023C78.5419 25.7538 78.4226 25.3163 78.4226 24.7898V16.1818ZM87.4581 27.1761C86.5982 27.1761 85.8577 26.9924 85.2365 26.625C84.6191 26.2538 84.1418 25.733 83.8047 25.0625C83.4714 24.3883 83.3047 23.5985 83.3047 22.6932C83.3047 21.7992 83.4714 21.0114 83.8047 20.3295C84.1418 19.6477 84.6115 19.1155 85.2138 18.733C85.8198 18.3504 86.5282 18.1591 87.3388 18.1591C87.8312 18.1591 88.3085 18.2405 88.7706 18.4034C89.2327 18.5663 89.6475 18.822 90.0149 19.1705C90.3823 19.5189 90.6721 19.9716 90.8842 20.5284C91.0964 21.0814 91.2024 21.7538 91.2024 22.5455V23.1477H84.2649V21.875H89.5376C89.5376 21.428 89.4467 21.0322 89.2649 20.6875C89.0831 20.339 88.8274 20.0644 88.4979 19.8636C88.1721 19.6629 87.7895 19.5625 87.3501 19.5625C86.8729 19.5625 86.4562 19.6799 86.1001 19.9148C85.7479 20.1458 85.4751 20.4489 85.282 20.8239C85.0926 21.1951 84.9979 21.5985 84.9979 22.0341V23.0284C84.9979 23.6117 85.1001 24.108 85.3047 24.517C85.513 24.9261 85.8028 25.2386 86.174 25.4545C86.5452 25.6667 86.9789 25.7727 87.4751 25.7727C87.7971 25.7727 88.0907 25.7273 88.3558 25.6364C88.621 25.5417 88.8501 25.4015 89.0433 25.2159C89.2365 25.0303 89.3842 24.8011 89.4865 24.5284L91.0945 24.8182C90.9657 25.2917 90.7346 25.7064 90.4013 26.0625C90.0717 26.4148 89.657 26.6894 89.157 26.8864C88.6607 27.0795 88.0945 27.1761 87.4581 27.1761ZM98.4411 27H96.5774L100.765 15.3636H102.793L106.981 27H105.117L101.827 17.4773H101.737L98.4411 27ZM98.7536 22.4432H104.799V23.9205H98.7536V22.4432ZM111.651 27.1705C110.947 27.1705 110.318 26.9905 109.765 26.6307C109.216 26.267 108.784 25.75 108.469 25.0795C108.159 24.4053 108.004 23.5966 108.004 22.6534C108.004 21.7102 108.161 20.9034 108.475 20.233C108.793 19.5625 109.229 19.0492 109.782 18.6932C110.335 18.3371 110.962 18.1591 111.663 18.1591C112.204 18.1591 112.64 18.25 112.969 18.4318C113.303 18.6098 113.56 18.8182 113.742 19.0568C113.928 19.2955 114.072 19.5057 114.174 19.6875H114.276V15.3636H115.975V27H114.316V25.642H114.174C114.072 25.8277 113.924 26.0398 113.731 26.2784C113.541 26.517 113.28 26.7254 112.947 26.9034C112.613 27.0814 112.182 27.1705 111.651 27.1705ZM112.026 25.7216C112.515 25.7216 112.928 25.5928 113.265 25.3352C113.606 25.0739 113.863 24.7121 114.038 24.25C114.216 23.7879 114.305 23.25 114.305 22.6364C114.305 22.0303 114.218 21.5 114.043 21.0455C113.869 20.5909 113.613 20.2367 113.276 19.983C112.939 19.7292 112.522 19.6023 112.026 19.6023C111.515 19.6023 111.089 19.7348 110.748 20C110.407 20.2652 110.149 20.6269 109.975 21.0852C109.805 21.5436 109.719 22.0606 109.719 22.6364C109.719 23.2197 109.807 23.7443 109.981 24.2102C110.155 24.6761 110.413 25.0455 110.754 25.3182C111.098 25.5871 111.522 25.7216 112.026 25.7216ZM118.4 27V18.2727H120.031V19.6932H120.138C120.32 19.2121 120.618 18.8371 121.031 18.5682C121.443 18.2955 121.938 18.1591 122.513 18.1591C123.097 18.1591 123.585 18.2955 123.979 18.5682C124.377 18.8409 124.671 19.2159 124.86 19.6932H124.951C125.159 19.2273 125.491 18.8561 125.945 18.5795C126.4 18.2992 126.942 18.1591 127.57 18.1591C128.362 18.1591 129.008 18.4072 129.508 18.9034C130.012 19.3996 130.263 20.1477 130.263 21.1477V27H128.565V21.3068C128.565 20.7159 128.404 20.2879 128.082 20.0227C127.76 19.7576 127.375 19.625 126.928 19.625C126.375 19.625 125.945 19.7955 125.638 20.1364C125.332 20.4735 125.178 20.9072 125.178 21.4375V27H123.485V21.1989C123.485 20.7254 123.337 20.3447 123.042 20.0568C122.746 19.7689 122.362 19.625 121.888 19.625C121.567 19.625 121.269 19.7102 120.996 19.8807C120.728 20.0473 120.51 20.2803 120.343 20.5795C120.18 20.8788 120.099 21.2254 120.099 21.6193V27H118.4ZM132.54 27V18.2727H134.239V27H132.54ZM133.398 16.9261C133.103 16.9261 132.849 16.8277 132.637 16.6307C132.429 16.4299 132.325 16.1913 132.325 15.9148C132.325 15.6345 132.429 15.3958 132.637 15.1989C132.849 14.9981 133.103 14.8977 133.398 14.8977C133.694 14.8977 133.946 14.9981 134.154 15.1989C134.366 15.3958 134.472 15.6345 134.472 15.9148C134.472 16.1913 134.366 16.4299 134.154 16.6307C133.946 16.8277 133.694 16.9261 133.398 16.9261ZM138.224 21.8182V27H136.525V18.2727H138.156V19.6932H138.263C138.464 19.2311 138.779 18.8598 139.207 18.5795C139.638 18.2992 140.182 18.1591 140.837 18.1591C141.432 18.1591 141.953 18.2841 142.4 18.5341C142.847 18.7803 143.193 19.1477 143.44 19.6364C143.686 20.125 143.809 20.7292 143.809 21.4489V27H142.11V21.6534C142.11 21.0208 141.945 20.5265 141.616 20.1705C141.286 19.8106 140.834 19.6307 140.258 19.6307C139.864 19.6307 139.513 19.7159 139.207 19.8864C138.904 20.0568 138.663 20.3068 138.485 20.6364C138.311 20.9621 138.224 21.3561 138.224 21.8182ZM146.087 27V18.2727H147.786V27H146.087ZM146.945 16.9261C146.65 16.9261 146.396 16.8277 146.184 16.6307C145.976 16.4299 145.871 16.1913 145.871 15.9148C145.871 15.6345 145.976 15.3958 146.184 15.1989C146.396 14.9981 146.65 14.8977 146.945 14.8977C147.241 14.8977 147.493 14.9981 147.701 15.1989C147.913 15.3958 148.019 15.6345 148.019 15.9148C148.019 16.1913 147.913 16.4299 147.701 16.6307C147.493 16.8277 147.241 16.9261 146.945 16.9261ZM156.612 20.4034L155.072 20.6761C155.007 20.4792 154.905 20.2917 154.765 20.1136C154.629 19.9356 154.443 19.7898 154.208 19.6761C153.973 19.5625 153.68 19.5057 153.327 19.5057C152.846 19.5057 152.445 19.6136 152.123 19.8295C151.801 20.0417 151.64 20.3163 151.64 20.6534C151.64 20.9451 151.748 21.1799 151.964 21.358C152.18 21.536 152.528 21.6818 153.009 21.7955L154.396 22.1136C155.199 22.2992 155.797 22.5852 156.191 22.9716C156.585 23.358 156.782 23.8598 156.782 24.4773C156.782 25 156.63 25.4659 156.327 25.875C156.028 26.2803 155.61 26.5985 155.072 26.8295C154.538 27.0606 153.918 27.1761 153.214 27.1761C152.237 27.1761 151.439 26.9678 150.822 26.5511C150.204 26.1307 149.826 25.5341 149.685 24.7614L151.327 24.5114C151.43 24.9394 151.64 25.2633 151.958 25.483C152.276 25.6989 152.691 25.8068 153.202 25.8068C153.759 25.8068 154.204 25.6913 154.538 25.4602C154.871 25.2254 155.038 24.9394 155.038 24.6023C155.038 24.3295 154.935 24.1004 154.731 23.9148C154.53 23.7292 154.221 23.589 153.805 23.4943L152.327 23.1705C151.513 22.9848 150.911 22.6894 150.521 22.2841C150.134 21.8788 149.941 21.3655 149.941 20.7443C149.941 20.2292 150.085 19.7784 150.373 19.392C150.661 19.0057 151.058 18.7045 151.566 18.4886C152.074 18.2689 152.655 18.1591 153.31 18.1591C154.254 18.1591 154.996 18.3636 155.538 18.7727C156.079 19.178 156.437 19.7216 156.612 20.4034ZM162.724 18.2727V19.6364H157.957V18.2727H162.724ZM159.235 16.1818H160.934V24.4375C160.934 24.767 160.983 25.0152 161.082 25.1818C161.18 25.3447 161.307 25.4564 161.462 25.517C161.621 25.5739 161.794 25.6023 161.979 25.6023C162.116 25.6023 162.235 25.5928 162.337 25.5739C162.44 25.5549 162.519 25.5398 162.576 25.5284L162.883 26.9318C162.784 26.9697 162.644 27.0076 162.462 27.0455C162.281 27.0871 162.053 27.1098 161.781 27.1136C161.334 27.1212 160.917 27.0417 160.531 26.875C160.144 26.7083 159.832 26.4508 159.593 26.1023C159.354 25.7538 159.235 25.3163 159.235 24.7898V16.1818ZM164.603 27V18.2727H166.245V19.6591H166.336C166.495 19.1894 166.775 18.8201 167.177 18.5511C167.582 18.2784 168.04 18.142 168.552 18.142C168.658 18.142 168.783 18.1458 168.927 18.1534C169.075 18.161 169.19 18.1705 169.273 18.1818V19.8068C169.205 19.7879 169.084 19.767 168.91 19.7443C168.736 19.7178 168.561 19.7045 168.387 19.7045C167.986 19.7045 167.628 19.7898 167.313 19.9602C167.003 20.1269 166.756 20.3598 166.575 20.6591C166.393 20.9545 166.302 21.2917 166.302 21.6705V27H164.603ZM173.205 27.1932C172.652 27.1932 172.152 27.0909 171.705 26.8864C171.258 26.678 170.904 26.3769 170.643 25.983C170.385 25.589 170.256 25.1061 170.256 24.5341C170.256 24.0417 170.351 23.6364 170.54 23.3182C170.73 23 170.986 22.7481 171.308 22.5625C171.629 22.3769 171.989 22.2367 172.387 22.142C172.785 22.0473 173.19 21.9754 173.603 21.9261C174.126 21.8655 174.55 21.8163 174.876 21.7784C175.201 21.7367 175.438 21.6705 175.586 21.5795C175.734 21.4886 175.808 21.3409 175.808 21.1364V21.0966C175.808 20.6004 175.667 20.2159 175.387 19.9432C175.111 19.6705 174.698 19.5341 174.148 19.5341C173.576 19.5341 173.126 19.661 172.796 19.9148C172.47 20.1648 172.245 20.4432 172.12 20.75L170.523 20.3864C170.713 19.8561 170.989 19.428 171.353 19.1023C171.72 18.7727 172.143 18.5341 172.62 18.3864C173.097 18.2348 173.599 18.1591 174.126 18.1591C174.474 18.1591 174.844 18.2008 175.234 18.2841C175.628 18.3636 175.995 18.5114 176.336 18.7273C176.681 18.9432 176.963 19.2519 177.183 19.6534C177.402 20.0511 177.512 20.5682 177.512 21.2045V27H175.853V25.8068H175.785C175.675 26.0265 175.51 26.2424 175.29 26.4545C175.071 26.6667 174.789 26.8428 174.444 26.983C174.099 27.1231 173.686 27.1932 173.205 27.1932ZM173.575 25.8295C174.044 25.8295 174.446 25.7367 174.779 25.5511C175.116 25.3655 175.372 25.1231 175.546 24.8239C175.724 24.5208 175.813 24.197 175.813 23.8523V22.7273C175.753 22.7879 175.635 22.8447 175.461 22.8977C175.29 22.947 175.095 22.9905 174.876 23.0284C174.656 23.0625 174.442 23.0947 174.234 23.125C174.025 23.1515 173.851 23.1742 173.711 23.1932C173.381 23.2348 173.08 23.3049 172.808 23.4034C172.539 23.5019 172.323 23.6439 172.16 23.8295C172.001 24.0114 171.921 24.2538 171.921 24.5568C171.921 24.9773 172.076 25.2955 172.387 25.5114C172.698 25.7235 173.094 25.8295 173.575 25.8295ZM183.849 18.2727V19.6364H179.082V18.2727H183.849ZM180.36 16.1818H182.059V24.4375C182.059 24.767 182.108 25.0152 182.207 25.1818C182.305 25.3447 182.432 25.4564 182.587 25.517C182.746 25.5739 182.919 25.6023 183.104 25.6023C183.241 25.6023 183.36 25.5928 183.462 25.5739C183.565 25.5549 183.644 25.5398 183.701 25.5284L184.008 26.9318C183.909 26.9697 183.769 27.0076 183.587 27.0455C183.406 27.0871 183.178 27.1098 182.906 27.1136C182.459 27.1212 182.042 27.0417 181.656 26.875C181.269 26.7083 180.957 26.4508 180.718 26.1023C180.479 25.7538 180.36 25.3163 180.36 24.7898V16.1818ZM189.31 27.1761C188.492 27.1761 187.778 26.9886 187.168 26.6136C186.558 26.2386 186.085 25.714 185.748 25.0398C185.411 24.3655 185.242 23.5777 185.242 22.6761C185.242 21.7708 185.411 20.9792 185.748 20.3011C186.085 19.6231 186.558 19.0966 187.168 18.7216C187.778 18.3466 188.492 18.1591 189.31 18.1591C190.129 18.1591 190.843 18.3466 191.452 18.7216C192.062 19.0966 192.536 19.6231 192.873 20.3011C193.21 20.9792 193.379 21.7708 193.379 22.6761C193.379 23.5777 193.21 24.3655 192.873 25.0398C192.536 25.714 192.062 26.2386 191.452 26.6136C190.843 26.9886 190.129 27.1761 189.31 27.1761ZM189.316 25.75C189.846 25.75 190.286 25.6098 190.634 25.3295C190.983 25.0492 191.24 24.6761 191.407 24.2102C191.577 23.7443 191.663 23.2311 191.663 22.6705C191.663 22.1136 191.577 21.6023 191.407 21.1364C191.24 20.6667 190.983 20.2898 190.634 20.0057C190.286 19.7216 189.846 19.5795 189.316 19.5795C188.782 19.5795 188.339 19.7216 187.987 20.0057C187.638 20.2898 187.379 20.6667 187.208 21.1364C187.041 21.6023 186.958 22.1136 186.958 22.6705C186.958 23.2311 187.041 23.7443 187.208 24.2102C187.379 24.6761 187.638 25.0492 187.987 25.3295C188.339 25.6098 188.782 25.75 189.316 25.75ZM195.275 27V18.2727H196.917V19.6591H197.008C197.167 19.1894 197.447 18.8201 197.849 18.5511C198.254 18.2784 198.712 18.142 199.224 18.142C199.33 18.142 199.455 18.1458 199.599 18.1534C199.746 18.161 199.862 18.1705 199.945 18.1818V19.8068C199.877 19.7879 199.756 19.767 199.582 19.7443C199.407 19.7178 199.233 19.7045 199.059 19.7045C198.657 19.7045 198.299 19.7898 197.985 19.9602C197.674 20.1269 197.428 20.3598 197.246 20.6591C197.065 20.9545 196.974 21.2917 196.974 21.6705V27H195.275ZM206.769 27H204.906L209.093 15.3636H211.121L215.309 27H213.445L210.156 17.4773H210.065L206.769 27ZM207.082 22.4432H213.127V23.9205H207.082V22.4432ZM220.388 27.1761C219.544 27.1761 218.817 26.9848 218.207 26.6023C217.601 26.2159 217.135 25.6837 216.809 25.0057C216.483 24.3277 216.32 23.5511 216.32 22.6761C216.32 21.7898 216.487 21.0076 216.82 20.3295C217.154 19.6477 217.623 19.1155 218.229 18.733C218.835 18.3504 219.549 18.1591 220.371 18.1591C221.034 18.1591 221.625 18.2822 222.144 18.5284C222.663 18.7708 223.082 19.1117 223.4 19.5511C223.722 19.9905 223.913 20.5038 223.974 21.0909H222.32C222.229 20.6818 222.021 20.3295 221.695 20.0341C221.373 19.7386 220.942 19.5909 220.4 19.5909C219.926 19.5909 219.512 19.7159 219.156 19.9659C218.803 20.2121 218.529 20.5644 218.332 21.0227C218.135 21.4773 218.036 22.0152 218.036 22.6364C218.036 23.2727 218.133 23.822 218.326 24.2841C218.519 24.7462 218.792 25.1042 219.144 25.358C219.5 25.6117 219.919 25.7386 220.4 25.7386C220.722 25.7386 221.013 25.6799 221.275 25.5625C221.54 25.4413 221.762 25.2689 221.94 25.0455C222.121 24.822 222.248 24.553 222.32 24.2386H223.974C223.913 24.803 223.729 25.3068 223.423 25.75C223.116 26.1932 222.705 26.5417 222.19 26.7955C221.678 27.0492 221.078 27.1761 220.388 27.1761ZM229.467 27.1761C228.622 27.1761 227.895 26.9848 227.285 26.6023C226.679 26.2159 226.213 25.6837 225.887 25.0057C225.561 24.3277 225.398 23.5511 225.398 22.6761C225.398 21.7898 225.565 21.0076 225.898 20.3295C226.232 19.6477 226.701 19.1155 227.308 18.733C227.914 18.3504 228.628 18.1591 229.45 18.1591C230.112 18.1591 230.703 18.2822 231.222 18.5284C231.741 18.7708 232.16 19.1117 232.478 19.5511C232.8 19.9905 232.991 20.5038 233.052 21.0909H231.398C231.308 20.6818 231.099 20.3295 230.773 20.0341C230.451 19.7386 230.02 19.5909 229.478 19.5909C229.004 19.5909 228.59 19.7159 228.234 19.9659C227.881 20.2121 227.607 20.5644 227.41 21.0227C227.213 21.4773 227.114 22.0152 227.114 22.6364C227.114 23.2727 227.211 23.822 227.404 24.2841C227.597 24.7462 227.87 25.1042 228.222 25.358C228.578 25.6117 228.997 25.7386 229.478 25.7386C229.8 25.7386 230.092 25.6799 230.353 25.5625C230.618 25.4413 230.84 25.2689 231.018 25.0455C231.2 24.822 231.326 24.553 231.398 24.2386H233.052C232.991 24.803 232.808 25.3068 232.501 25.75C232.194 26.1932 231.783 26.5417 231.268 26.7955C230.756 27.0492 230.156 27.1761 229.467 27.1761ZM238.545 27.1761C237.727 27.1761 237.013 26.9886 236.403 26.6136C235.793 26.2386 235.319 25.714 234.982 25.0398C234.645 24.3655 234.477 23.5777 234.477 22.6761C234.477 21.7708 234.645 20.9792 234.982 20.3011C235.319 19.6231 235.793 19.0966 236.403 18.7216C237.013 18.3466 237.727 18.1591 238.545 18.1591C239.363 18.1591 240.077 18.3466 240.687 18.7216C241.297 19.0966 241.77 19.6231 242.107 20.3011C242.444 20.9792 242.613 21.7708 242.613 22.6761C242.613 23.5777 242.444 24.3655 242.107 25.0398C241.77 25.714 241.297 26.2386 240.687 26.6136C240.077 26.9886 239.363 27.1761 238.545 27.1761ZM238.55 25.75C239.081 25.75 239.52 25.6098 239.869 25.3295C240.217 25.0492 240.475 24.6761 240.641 24.2102C240.812 23.7443 240.897 23.2311 240.897 22.6705C240.897 22.1136 240.812 21.6023 240.641 21.1364C240.475 20.6667 240.217 20.2898 239.869 20.0057C239.52 19.7216 239.081 19.5795 238.55 19.5795C238.016 19.5795 237.573 19.7216 237.221 20.0057C236.872 20.2898 236.613 20.6667 236.442 21.1364C236.276 21.6023 236.192 22.1136 236.192 22.6705C236.192 23.2311 236.276 23.7443 236.442 24.2102C236.613 24.6761 236.872 25.0492 237.221 25.3295C237.573 25.6098 238.016 25.75 238.55 25.75ZM250.038 23.3807V18.2727H251.742V27H250.072V25.4886H249.981C249.78 25.9545 249.458 26.3428 249.015 26.6534C248.576 26.9602 248.028 27.1136 247.373 27.1136C246.812 27.1136 246.316 26.9905 245.884 26.7443C245.456 26.4943 245.119 26.125 244.873 25.6364C244.63 25.1477 244.509 24.5436 244.509 23.8239V18.2727H246.208V23.6193C246.208 24.214 246.373 24.6875 246.702 25.0398C247.032 25.392 247.46 25.5682 247.987 25.5682C248.305 25.5682 248.621 25.4886 248.935 25.3295C249.254 25.1705 249.517 24.9299 249.725 24.608C249.937 24.286 250.041 23.8769 250.038 23.3807ZM255.724 21.8182V27H254.025V18.2727H255.656V19.6932H255.763C255.964 19.2311 256.279 18.8598 256.707 18.5795C257.138 18.2992 257.682 18.1591 258.337 18.1591C258.932 18.1591 259.453 18.2841 259.9 18.5341C260.347 18.7803 260.693 19.1477 260.94 19.6364C261.186 20.125 261.309 20.7292 261.309 21.4489V27H259.61V21.6534C259.61 21.0208 259.445 20.5265 259.116 20.1705C258.786 19.8106 258.334 19.6307 257.758 19.6307C257.364 19.6307 257.013 19.7159 256.707 19.8864C256.404 20.0568 256.163 20.3068 255.985 20.6364C255.811 20.9621 255.724 21.3561 255.724 21.8182ZM267.661 18.2727V19.6364H262.894V18.2727H267.661ZM264.173 16.1818H265.871V24.4375C265.871 24.767 265.921 25.0152 266.019 25.1818C266.118 25.3447 266.245 25.4564 266.4 25.517C266.559 25.5739 266.731 25.6023 266.917 25.6023C267.053 25.6023 267.173 25.5928 267.275 25.5739C267.377 25.5549 267.457 25.5398 267.513 25.5284L267.82 26.9318C267.722 26.9697 267.582 27.0076 267.4 27.0455C267.218 27.0871 266.991 27.1098 266.718 27.1136C266.271 27.1212 265.854 27.0417 265.468 26.875C265.082 26.7083 264.769 26.4508 264.531 26.1023C264.292 25.7538 264.173 25.3163 264.173 24.7898V16.1818Z" fill="white"/>
</svg>
