<svg width="250" height="44" viewBox="0 0 250 44" fill="none" xmlns="http://www.w3.org/2000/svg">
<path d="M241.078 0C245.496 0 249.078 3.58172 249.078 8V36C249.078 40.4183 245.496 44 241.078 44H8C3.58172 44 0 40.4183 0 36V8C0 3.58172 3.58172 0 8 0H241.078Z" fill="#1F2937"/>
<path d="M241.078 0C245.496 0 249.078 3.58172 249.078 8V36C249.078 40.4183 245.496 44 241.078 44H8C3.58172 44 0 40.4183 0 36V8C0 3.58172 3.58172 0 8 0H241.078Z" stroke="#E5E7EB"/>
<path d="M62.5384 27V15.3636H66.902C67.7959 15.3636 68.5459 15.5189 69.152 15.8295C69.7618 16.1402 70.2221 16.5758 70.5327 17.1364C70.8471 17.6932 71.0043 18.3428 71.0043 19.0852C71.0043 19.8314 70.8452 20.4792 70.527 21.0284C70.2126 21.5739 69.7486 21.9962 69.1349 22.2955C68.5213 22.5909 67.7675 22.7386 66.8736 22.7386H63.7656V20.9886H66.5895C67.1122 20.9886 67.5402 20.9167 67.8736 20.7727C68.2069 20.625 68.4531 20.411 68.6122 20.1307C68.7751 19.8466 68.8565 19.4981 68.8565 19.0852C68.8565 18.6723 68.7751 18.3201 68.6122 18.0284C68.4493 17.733 68.2012 17.5095 67.8679 17.358C67.5346 17.2027 67.1046 17.125 66.5781 17.125H64.6463V27H62.5384ZM68.5497 21.7273L71.4304 27H69.0781L66.2486 21.7273H68.5497ZM78.4162 23.3295V18.2727H80.473V27H78.4787V25.4489H78.3878C78.1908 25.9375 77.867 26.3371 77.4162 26.6477C76.9692 26.9583 76.4181 27.1136 75.7628 27.1136C75.1908 27.1136 74.6851 26.9867 74.2457 26.733C73.8101 26.4754 73.4692 26.1023 73.223 25.6136C72.9768 25.1212 72.8537 24.5265 72.8537 23.8295V18.2727H74.9105V23.5114C74.9105 24.0644 75.062 24.5038 75.3651 24.8295C75.6681 25.1553 76.0658 25.3182 76.5582 25.3182C76.8613 25.3182 77.1548 25.2443 77.4389 25.0966C77.723 24.9489 77.956 24.7292 78.1378 24.4375C78.3234 24.142 78.4162 23.7727 78.4162 23.3295ZM84.6449 21.8864V27H82.5881V18.2727H84.554V19.7557H84.6562C84.857 19.267 85.1771 18.8788 85.6165 18.5909C86.0597 18.303 86.607 18.1591 87.2585 18.1591C87.8608 18.1591 88.3854 18.2879 88.8324 18.5455C89.2831 18.803 89.6316 19.1761 89.8778 19.6648C90.1278 20.1534 90.2509 20.7462 90.2472 21.4432V27H88.1903V21.7614C88.1903 21.178 88.0388 20.7216 87.7358 20.392C87.4366 20.0625 87.0218 19.8977 86.4915 19.8977C86.1316 19.8977 85.8116 19.9773 85.5312 20.1364C85.2547 20.2917 85.0369 20.517 84.8778 20.8125C84.7225 21.108 84.6449 21.4659 84.6449 21.8864ZM96.3977 15.3636H98.9773L102.432 23.7955H102.568L106.023 15.3636H108.602V27H106.58V19.0057H106.472L103.256 26.9659H101.744L98.5284 18.9886H98.4205V27H96.3977V15.3636ZM113.318 27.1761C112.765 27.1761 112.267 27.0777 111.824 26.8807C111.384 26.6799 111.036 26.3845 110.778 25.9943C110.525 25.6042 110.398 25.1231 110.398 24.5511C110.398 24.0587 110.489 23.6515 110.67 23.3295C110.852 23.0076 111.1 22.75 111.415 22.5568C111.729 22.3636 112.083 22.2178 112.477 22.1193C112.875 22.017 113.286 21.9432 113.71 21.8977C114.222 21.8447 114.636 21.7973 114.955 21.7557C115.273 21.7102 115.504 21.642 115.648 21.5511C115.795 21.4564 115.869 21.3106 115.869 21.1136V21.0795C115.869 20.6515 115.742 20.3201 115.489 20.0852C115.235 19.8504 114.869 19.733 114.392 19.733C113.888 19.733 113.489 19.8428 113.193 20.0625C112.902 20.2822 112.705 20.5417 112.602 20.8409L110.682 20.5682C110.833 20.0379 111.083 19.5947 111.432 19.2386C111.78 18.8788 112.206 18.6098 112.71 18.4318C113.214 18.25 113.771 18.1591 114.381 18.1591C114.801 18.1591 115.22 18.2083 115.636 18.3068C116.053 18.4053 116.434 18.5682 116.778 18.7955C117.123 19.0189 117.4 19.3239 117.608 19.7102C117.82 20.0966 117.926 20.5795 117.926 21.1591V27H115.949V25.8011H115.881C115.756 26.0436 115.58 26.2708 115.352 26.483C115.129 26.6913 114.847 26.8598 114.506 26.9886C114.169 27.1136 113.773 27.1761 113.318 27.1761ZM113.852 25.6648C114.265 25.6648 114.623 25.5833 114.926 25.4205C115.229 25.2538 115.462 25.0341 115.625 24.7614C115.792 24.4886 115.875 24.1913 115.875 23.8693V22.8409C115.811 22.8939 115.701 22.9432 115.545 22.9886C115.394 23.0341 115.223 23.0739 115.034 23.108C114.845 23.142 114.657 23.1723 114.472 23.1989C114.286 23.2254 114.125 23.2481 113.989 23.267C113.682 23.3087 113.407 23.3769 113.165 23.4716C112.922 23.5663 112.731 23.6989 112.591 23.8693C112.451 24.036 112.381 24.2519 112.381 24.517C112.381 24.8958 112.519 25.1818 112.795 25.375C113.072 25.5682 113.424 25.6648 113.852 25.6648ZM122.051 21.8864V27H119.994V18.2727H121.96V19.7557H122.062C122.263 19.267 122.583 18.8788 123.023 18.5909C123.466 18.303 124.013 18.1591 124.665 18.1591C125.267 18.1591 125.792 18.2879 126.239 18.5455C126.689 18.803 127.038 19.1761 127.284 19.6648C127.534 20.1534 127.657 20.7462 127.653 21.4432V27H125.597V21.7614C125.597 21.178 125.445 20.7216 125.142 20.392C124.843 20.0625 124.428 19.8977 123.898 19.8977C123.538 19.8977 123.218 19.9773 122.938 20.1364C122.661 20.2917 122.443 20.517 122.284 20.8125C122.129 21.108 122.051 21.4659 122.051 21.8864ZM135.307 23.3295V18.2727H137.364V27H135.369V25.4489H135.278C135.081 25.9375 134.758 26.3371 134.307 26.6477C133.86 26.9583 133.309 27.1136 132.653 27.1136C132.081 27.1136 131.576 26.9867 131.136 26.733C130.701 26.4754 130.36 26.1023 130.114 25.6136C129.867 25.1212 129.744 24.5265 129.744 23.8295V18.2727H131.801V23.5114C131.801 24.0644 131.953 24.5038 132.256 24.8295C132.559 25.1553 132.956 25.3182 133.449 25.3182C133.752 25.3182 134.045 25.2443 134.33 25.0966C134.614 24.9489 134.847 24.7292 135.028 24.4375C135.214 24.142 135.307 23.7727 135.307 23.3295ZM141.99 27.1761C141.437 27.1761 140.939 27.0777 140.496 26.8807C140.056 26.6799 139.708 26.3845 139.45 25.9943C139.196 25.6042 139.07 25.1231 139.07 24.5511C139.07 24.0587 139.161 23.6515 139.342 23.3295C139.524 23.0076 139.772 22.75 140.087 22.5568C140.401 22.3636 140.755 22.2178 141.149 22.1193C141.547 22.017 141.958 21.9432 142.382 21.8977C142.893 21.8447 143.308 21.7973 143.626 21.7557C143.945 21.7102 144.176 21.642 144.32 21.5511C144.467 21.4564 144.541 21.3106 144.541 21.1136V21.0795C144.541 20.6515 144.414 20.3201 144.161 20.0852C143.907 19.8504 143.541 19.733 143.064 19.733C142.56 19.733 142.161 19.8428 141.865 20.0625C141.573 20.2822 141.376 20.5417 141.274 20.8409L139.354 20.5682C139.505 20.0379 139.755 19.5947 140.104 19.2386C140.452 18.8788 140.878 18.6098 141.382 18.4318C141.886 18.25 142.443 18.1591 143.053 18.1591C143.473 18.1591 143.892 18.2083 144.308 18.3068C144.725 18.4053 145.106 18.5682 145.45 18.7955C145.795 19.0189 146.071 19.3239 146.28 19.7102C146.492 20.0966 146.598 20.5795 146.598 21.1591V27H144.621V25.8011H144.553C144.428 26.0436 144.251 26.2708 144.024 26.483C143.801 26.6913 143.518 26.8598 143.178 26.9886C142.84 27.1136 142.445 27.1761 141.99 27.1761ZM142.524 25.6648C142.937 25.6648 143.295 25.5833 143.598 25.4205C143.901 25.2538 144.134 25.0341 144.297 24.7614C144.464 24.4886 144.547 24.1913 144.547 23.8693V22.8409C144.482 22.8939 144.373 22.9432 144.217 22.9886C144.066 23.0341 143.895 23.0739 143.706 23.108C143.517 23.142 143.329 23.1723 143.143 23.1989C142.958 23.2254 142.797 23.2481 142.661 23.267C142.354 23.3087 142.079 23.3769 141.837 23.4716C141.594 23.5663 141.403 23.6989 141.263 23.8693C141.123 24.036 141.053 24.2519 141.053 24.517C141.053 24.8958 141.191 25.1818 141.467 25.375C141.744 25.5682 142.096 25.6648 142.524 25.6648ZM150.723 15.3636V27H148.666V15.3636H150.723ZM160.841 27H156.898V15.3636H160.92C162.076 15.3636 163.068 15.5966 163.898 16.0625C164.731 16.5246 165.371 17.1894 165.818 18.0568C166.265 18.9242 166.489 19.9621 166.489 21.1705C166.489 22.3826 166.263 23.4242 165.812 24.2955C165.366 25.1667 164.72 25.8352 163.875 26.3011C163.034 26.767 162.023 27 160.841 27ZM159.006 25.1761H160.739C161.549 25.1761 162.225 25.0284 162.767 24.733C163.309 24.4337 163.716 23.9886 163.989 23.3977C164.261 22.803 164.398 22.0606 164.398 21.1705C164.398 20.2803 164.261 19.5417 163.989 18.9545C163.716 18.3636 163.313 17.9223 162.778 17.6307C162.248 17.3352 161.589 17.1875 160.801 17.1875H159.006V25.1761ZM168.491 27V15.3636H172.946C173.787 15.3636 174.486 15.4962 175.043 15.7614C175.603 16.0227 176.022 16.3807 176.298 16.8352C176.579 17.2898 176.719 17.8049 176.719 18.3807C176.719 18.8542 176.628 19.2595 176.446 19.5966C176.264 19.9299 176.02 20.2008 175.713 20.4091C175.406 20.6174 175.063 20.767 174.685 20.858V20.9716C175.098 20.9943 175.493 21.1212 175.872 21.3523C176.255 21.5795 176.567 21.9015 176.81 22.3182C177.052 22.7348 177.173 23.2386 177.173 23.8295C177.173 24.4318 177.027 24.9735 176.736 25.4545C176.444 25.9318 176.005 26.3087 175.418 26.5852C174.83 26.8617 174.092 27 173.202 27H168.491ZM170.599 25.2386H172.866C173.632 25.2386 174.183 25.0928 174.52 24.8011C174.861 24.5057 175.031 24.1269 175.031 23.6648C175.031 23.3201 174.946 23.0095 174.776 22.733C174.605 22.4527 174.363 22.233 174.048 22.0739C173.734 21.911 173.359 21.8295 172.923 21.8295H170.599V25.2386ZM170.599 20.3125H172.685C173.048 20.3125 173.376 20.2462 173.668 20.1136C173.959 19.9773 174.188 19.786 174.355 19.5398C174.526 19.2898 174.611 18.9943 174.611 18.6534C174.611 18.2027 174.452 17.8314 174.134 17.5398C173.819 17.2481 173.351 17.1023 172.73 17.1023H170.599V20.3125ZM182.976 27V15.3636H187.43C188.271 15.3636 188.97 15.4962 189.527 15.7614C190.088 16.0227 190.506 16.3807 190.783 16.8352C191.063 17.2898 191.203 17.8049 191.203 18.3807C191.203 18.8542 191.112 19.2595 190.93 19.5966C190.749 19.9299 190.504 20.2008 190.197 20.4091C189.891 20.6174 189.548 20.767 189.169 20.858V20.9716C189.582 20.9943 189.978 21.1212 190.357 21.3523C190.739 21.5795 191.052 21.9015 191.294 22.3182C191.536 22.7348 191.658 23.2386 191.658 23.8295C191.658 24.4318 191.512 24.9735 191.22 25.4545C190.929 25.9318 190.489 26.3087 189.902 26.5852C189.315 26.8617 188.576 27 187.686 27H182.976ZM185.084 25.2386H187.351C188.116 25.2386 188.667 25.0928 189.004 24.8011C189.345 24.5057 189.516 24.1269 189.516 23.6648C189.516 23.3201 189.43 23.0095 189.26 22.733C189.089 22.4527 188.847 22.233 188.533 22.0739C188.218 21.911 187.843 21.8295 187.408 21.8295H185.084V25.2386ZM185.084 20.3125H187.169C187.533 20.3125 187.86 20.2462 188.152 20.1136C188.444 19.9773 188.673 19.786 188.839 19.5398C189.01 19.2898 189.095 18.9943 189.095 18.6534C189.095 18.2027 188.936 17.8314 188.618 17.5398C188.304 17.2481 187.836 17.1023 187.214 17.1023H185.084V20.3125ZM195.912 27.1761C195.359 27.1761 194.861 27.0777 194.418 26.8807C193.978 26.6799 193.63 26.3845 193.372 25.9943C193.118 25.6042 192.991 25.1231 192.991 24.5511C192.991 24.0587 193.082 23.6515 193.264 23.3295C193.446 23.0076 193.694 22.75 194.009 22.5568C194.323 22.3636 194.677 22.2178 195.071 22.1193C195.469 22.017 195.88 21.9432 196.304 21.8977C196.815 21.8447 197.23 21.7973 197.548 21.7557C197.866 21.7102 198.098 21.642 198.241 21.5511C198.389 21.4564 198.463 21.3106 198.463 21.1136V21.0795C198.463 20.6515 198.336 20.3201 198.082 20.0852C197.829 19.8504 197.463 19.733 196.986 19.733C196.482 19.733 196.082 19.8428 195.787 20.0625C195.495 20.2822 195.298 20.5417 195.196 20.8409L193.276 20.5682C193.427 20.0379 193.677 19.5947 194.026 19.2386C194.374 18.8788 194.8 18.6098 195.304 18.4318C195.808 18.25 196.365 18.1591 196.974 18.1591C197.395 18.1591 197.813 18.2083 198.23 18.3068C198.647 18.4053 199.027 18.5682 199.372 18.7955C199.717 19.0189 199.993 19.3239 200.202 19.7102C200.414 20.0966 200.52 20.5795 200.52 21.1591V27H198.543V25.8011H198.474C198.349 26.0436 198.173 26.2708 197.946 26.483C197.723 26.6913 197.44 26.8598 197.099 26.9886C196.762 27.1136 196.366 27.1761 195.912 27.1761ZM196.446 25.6648C196.859 25.6648 197.217 25.5833 197.52 25.4205C197.823 25.2538 198.056 25.0341 198.219 24.7614C198.385 24.4886 198.469 24.1913 198.469 23.8693V22.8409C198.404 22.8939 198.295 22.9432 198.139 22.9886C197.988 23.0341 197.817 23.0739 197.628 23.108C197.438 23.142 197.251 23.1723 197.065 23.1989C196.88 23.2254 196.719 23.2481 196.582 23.267C196.276 23.3087 196.001 23.3769 195.759 23.4716C195.516 23.5663 195.325 23.6989 195.185 23.8693C195.045 24.036 194.974 24.2519 194.974 24.517C194.974 24.8958 195.113 25.1818 195.389 25.375C195.666 25.5682 196.018 25.6648 196.446 25.6648ZM206.395 27.1705C205.524 27.1705 204.776 26.9792 204.151 26.5966C203.529 26.214 203.05 25.6856 202.713 25.0114C202.38 24.3333 202.213 23.553 202.213 22.6705C202.213 21.7841 202.384 21.0019 202.724 20.3239C203.065 19.642 203.546 19.1117 204.168 18.733C204.793 18.3504 205.531 18.1591 206.384 18.1591C207.092 18.1591 207.719 18.2898 208.264 18.5511C208.813 18.8087 209.251 19.1742 209.577 19.6477C209.902 20.1174 210.088 20.6667 210.134 21.2955H208.168C208.088 20.875 207.899 20.5246 207.599 20.2443C207.304 19.9602 206.908 19.8182 206.412 19.8182C205.991 19.8182 205.622 19.9318 205.304 20.1591C204.986 20.3826 204.738 20.7045 204.56 21.125C204.385 21.5455 204.298 22.0492 204.298 22.6364C204.298 23.2311 204.385 23.7424 204.56 24.1705C204.734 24.5947 204.978 24.9223 205.293 25.1534C205.611 25.3807 205.984 25.4943 206.412 25.4943C206.715 25.4943 206.986 25.4375 207.224 25.3239C207.467 25.2064 207.67 25.0379 207.832 24.8182C207.995 24.5985 208.107 24.3314 208.168 24.017H210.134C210.084 24.6345 209.902 25.1818 209.588 25.6591C209.274 26.1326 208.846 26.5038 208.304 26.7727C207.762 27.0379 207.126 27.1705 206.395 27.1705ZM213.697 24.2614L213.692 21.7784H214.021L217.158 18.2727H219.561L215.703 22.5682H215.277L213.697 24.2614ZM211.822 27V15.3636H213.879V27H211.822ZM217.3 27L214.459 23.0284L215.845 21.5795L219.76 27H217.3ZM226.494 23.3295V18.2727H228.551V27H226.557V25.4489H226.466C226.269 25.9375 225.945 26.3371 225.494 26.6477C225.047 26.9583 224.496 27.1136 223.841 27.1136C223.269 27.1136 222.763 26.9867 222.324 26.733C221.888 26.4754 221.547 26.1023 221.301 25.6136C221.055 25.1212 220.932 24.5265 220.932 23.8295V18.2727H222.989V23.5114C222.989 24.0644 223.14 24.5038 223.443 24.8295C223.746 25.1553 224.144 25.3182 224.636 25.3182C224.939 25.3182 225.233 25.2443 225.517 25.0966C225.801 24.9489 226.034 24.7292 226.216 24.4375C226.402 24.142 226.494 23.7727 226.494 23.3295ZM230.666 30.2727V18.2727H232.689V19.7159H232.808C232.914 19.5038 233.064 19.2784 233.257 19.0398C233.45 18.7973 233.712 18.5909 234.041 18.4205C234.371 18.2462 234.791 18.1591 235.303 18.1591C235.977 18.1591 236.585 18.3314 237.126 18.6761C237.672 19.017 238.104 19.5227 238.422 20.1932C238.744 20.8598 238.905 21.678 238.905 22.6477C238.905 23.6061 238.748 24.4205 238.433 25.0909C238.119 25.7614 237.691 26.2727 237.149 26.625C236.607 26.9773 235.994 27.1534 235.308 27.1534C234.808 27.1534 234.393 27.0701 234.064 26.9034C233.734 26.7367 233.469 26.536 233.268 26.3011C233.071 26.0625 232.918 25.8371 232.808 25.625H232.723V30.2727H230.666ZM232.683 22.6364C232.683 23.2008 232.763 23.6951 232.922 24.1193C233.085 24.5436 233.318 24.875 233.621 25.1136C233.928 25.3485 234.299 25.4659 234.734 25.4659C235.189 25.4659 235.57 25.3447 235.876 25.1023C236.183 24.8561 236.414 24.5208 236.57 24.0966C236.729 23.6686 236.808 23.1818 236.808 22.6364C236.808 22.0947 236.731 21.6136 236.575 21.1932C236.42 20.7727 236.189 20.4432 235.882 20.2045C235.575 19.9659 235.193 19.8466 234.734 19.8466C234.295 19.8466 233.922 19.9621 233.615 20.1932C233.308 20.4242 233.075 20.7481 232.916 21.1648C232.761 21.5814 232.683 22.072 232.683 22.6364Z" fill="white"/>
<path d="M44.0781 16C44.0781 17.6569 40.0487 19 35.0781 19C30.1076 19 26.0781 17.6569 26.0781 16M44.0781 16C44.0781 14.3431 40.0487 13 35.0781 13C30.1076 13 26.0781 14.3431 26.0781 16M44.0781 16V30C44.0781 30.7956 43.1299 31.5587 41.4421 32.1213C39.7543 32.6839 37.4651 33 35.0781 33C32.6912 33 30.402 32.6839 28.7142 32.1213C27.0263 31.5587 26.0781 30.7956 26.0781 30V16M26.0781 23C26.0781 23.7956 27.0263 24.5587 28.7142 25.1213C30.402 25.6839 32.6912 26 35.0781 26C37.4651 26 39.7543 25.6839 41.4421 25.1213C43.1299 24.5587 44.0781 23.7956 44.0781 23" stroke="white" stroke-width="2" stroke-linecap="round" stroke-linejoin="round"/>
</svg>
