<svg width="221" height="40" viewBox="0 0 221 40" fill="none" xmlns="http://www.w3.org/2000/svg">
<path d="M212.031 0C216.45 0 220.031 3.58172 220.031 8V32C220.031 36.4183 216.45 40 212.031 40H8C3.58172 40 0 36.4183 0 32V8C0 3.58172 3.58172 0 8 0H212.031Z" fill="#DC2626"/>
<path d="M212.031 0C216.45 0 220.031 3.58172 220.031 8V32C220.031 36.4183 216.45 40 212.031 40H8C3.58172 40 0 36.4183 0 32V8C0 3.58172 3.58172 0 8 0H212.031Z" stroke="#E5E7EB"/>
<path d="M53.8423 25H50.0753V13.3636H53.9616C55.1018 13.3636 56.081 13.5966 56.8991 14.0625C57.7173 14.5246 58.3442 15.1894 58.7798 16.0568C59.2192 16.9205 59.4389 17.9564 59.4389 19.1648C59.4389 20.3769 59.2173 21.4186 58.7741 22.2898C58.3348 23.161 57.6984 23.8314 56.8651 24.3011C56.0317 24.767 55.0241 25 53.8423 25ZM51.831 23.4659H53.7457C54.6321 23.4659 55.3688 23.2992 55.956 22.9659C56.5431 22.6288 56.9825 22.142 57.2741 21.5057C57.5658 20.8655 57.7116 20.0852 57.7116 19.1648C57.7116 18.2519 57.5658 17.4773 57.2741 16.8409C56.9863 16.2045 56.5563 15.7216 55.9844 15.392C55.4124 15.0625 54.7022 14.8977 53.8537 14.8977H51.831V23.4659ZM65.2472 25.1761C64.3873 25.1761 63.6468 24.9924 63.0256 24.625C62.4081 24.2538 61.9309 23.733 61.5938 23.0625C61.2604 22.3883 61.0938 21.5985 61.0938 20.6932C61.0938 19.7992 61.2604 19.0114 61.5938 18.3295C61.9309 17.6477 62.4006 17.1155 63.0028 16.733C63.6089 16.3504 64.3172 16.1591 65.1278 16.1591C65.6203 16.1591 66.0975 16.2405 66.5597 16.4034C67.0218 16.5663 67.4366 16.822 67.804 17.1705C68.1714 17.5189 68.4612 17.9716 68.6733 18.5284C68.8854 19.0814 68.9915 19.7538 68.9915 20.5455V21.1477H62.054V19.875H67.3267C67.3267 19.428 67.2358 19.0322 67.054 18.6875C66.8722 18.339 66.6165 18.0644 66.2869 17.8636C65.9612 17.6629 65.5786 17.5625 65.1392 17.5625C64.6619 17.5625 64.2453 17.6799 63.8892 17.9148C63.5369 18.1458 63.2642 18.4489 63.071 18.8239C62.8816 19.1951 62.7869 19.5985 62.7869 20.0341V21.0284C62.7869 21.6117 62.8892 22.108 63.0938 22.517C63.3021 22.9261 63.5919 23.2386 63.9631 23.4545C64.3343 23.6667 64.768 23.7727 65.2642 23.7727C65.5862 23.7727 65.8797 23.7273 66.1449 23.6364C66.41 23.5417 66.6392 23.4015 66.8324 23.2159C67.0256 23.0303 67.1733 22.8011 67.2756 22.5284L68.8835 22.8182C68.7547 23.2917 68.5237 23.7064 68.1903 24.0625C67.8608 24.4148 67.446 24.6894 66.946 24.8864C66.4498 25.0795 65.8835 25.1761 65.2472 25.1761ZM72.5753 13.3636V25H70.8764V13.3636H72.5753ZM78.6222 25.1761C77.7623 25.1761 77.0218 24.9924 76.4006 24.625C75.7831 24.2538 75.3059 23.733 74.9688 23.0625C74.6354 22.3883 74.4688 21.5985 74.4688 20.6932C74.4688 19.7992 74.6354 19.0114 74.9688 18.3295C75.3059 17.6477 75.7756 17.1155 76.3778 16.733C76.9839 16.3504 77.6922 16.1591 78.5028 16.1591C78.9953 16.1591 79.4725 16.2405 79.9347 16.4034C80.3968 16.5663 80.8116 16.822 81.179 17.1705C81.5464 17.5189 81.8362 17.9716 82.0483 18.5284C82.2604 19.0814 82.3665 19.7538 82.3665 20.5455V21.1477H75.429V19.875H80.7017C80.7017 19.428 80.6108 19.0322 80.429 18.6875C80.2472 18.339 79.9915 18.0644 79.6619 17.8636C79.3362 17.6629 78.9536 17.5625 78.5142 17.5625C78.0369 17.5625 77.6203 17.6799 77.2642 17.9148C76.9119 18.1458 76.6392 18.4489 76.446 18.8239C76.2566 19.1951 76.1619 19.5985 76.1619 20.0341V21.0284C76.1619 21.6117 76.2642 22.108 76.4688 22.517C76.6771 22.9261 76.9669 23.2386 77.3381 23.4545C77.7093 23.6667 78.143 23.7727 78.6392 23.7727C78.9612 23.7727 79.2547 23.7273 79.5199 23.6364C79.785 23.5417 80.0142 23.4015 80.2074 23.2159C80.4006 23.0303 80.5483 22.8011 80.6506 22.5284L82.2585 22.8182C82.1297 23.2917 81.8987 23.7064 81.5653 24.0625C81.2358 24.4148 80.821 24.6894 80.321 24.8864C79.8248 25.0795 79.2585 25.1761 78.6222 25.1761ZM88.3253 16.2727V17.6364H83.5582V16.2727H88.3253ZM84.8366 14.1818H86.5355V22.4375C86.5355 22.767 86.5848 23.0152 86.6832 23.1818C86.7817 23.3447 86.9086 23.4564 87.0639 23.517C87.223 23.5739 87.3954 23.6023 87.581 23.6023C87.7173 23.6023 87.8366 23.5928 87.9389 23.5739C88.0412 23.5549 88.1207 23.5398 88.1776 23.5284L88.4844 24.9318C88.3859 24.9697 88.2457 25.0076 88.0639 25.0455C87.8821 25.0871 87.6548 25.1098 87.3821 25.1136C86.9351 25.1212 86.5185 25.0417 86.1321 24.875C85.7457 24.7083 85.4332 24.4508 85.1946 24.1023C84.956 23.7538 84.8366 23.3163 84.8366 22.7898V14.1818ZM93.8722 25.1761C93.0123 25.1761 92.2718 24.9924 91.6506 24.625C91.0331 24.2538 90.5559 23.733 90.2188 23.0625C89.8854 22.3883 89.7188 21.5985 89.7188 20.6932C89.7188 19.7992 89.8854 19.0114 90.2188 18.3295C90.5559 17.6477 91.0256 17.1155 91.6278 16.733C92.2339 16.3504 92.9422 16.1591 93.7528 16.1591C94.2453 16.1591 94.7225 16.2405 95.1847 16.4034C95.6468 16.5663 96.0616 16.822 96.429 17.1705C96.7964 17.5189 97.0862 17.9716 97.2983 18.5284C97.5104 19.0814 97.6165 19.7538 97.6165 20.5455V21.1477H90.679V19.875H95.9517C95.9517 19.428 95.8608 19.0322 95.679 18.6875C95.4972 18.339 95.2415 18.0644 94.9119 17.8636C94.5862 17.6629 94.2036 17.5625 93.7642 17.5625C93.2869 17.5625 92.8703 17.6799 92.5142 17.9148C92.1619 18.1458 91.8892 18.4489 91.696 18.8239C91.5066 19.1951 91.4119 19.5985 91.4119 20.0341V21.0284C91.4119 21.6117 91.5142 22.108 91.7188 22.517C91.9271 22.9261 92.2169 23.2386 92.5881 23.4545C92.9593 23.6667 93.393 23.7727 93.8892 23.7727C94.2112 23.7727 94.5047 23.7273 94.7699 23.6364C95.035 23.5417 95.2642 23.4015 95.4574 23.2159C95.6506 23.0303 95.7983 22.8011 95.9006 22.5284L97.5085 22.8182C97.3797 23.2917 97.1487 23.7064 96.8153 24.0625C96.4858 24.4148 96.071 24.6894 95.571 24.8864C95.0748 25.0795 94.5085 25.1761 93.8722 25.1761ZM103.872 25V13.3636H108.02C108.925 13.3636 109.675 13.5284 110.27 13.858C110.865 14.1875 111.31 14.6383 111.605 15.2102C111.901 15.7784 112.048 16.4186 112.048 17.1307C112.048 17.8466 111.899 18.4905 111.599 19.0625C111.304 19.6307 110.857 20.0814 110.259 20.4148C109.664 20.7443 108.916 20.9091 108.014 20.9091H105.162V19.4205H107.855C108.427 19.4205 108.891 19.322 109.247 19.125C109.603 18.9242 109.865 18.6515 110.031 18.3068C110.198 17.9621 110.281 17.5701 110.281 17.1307C110.281 16.6913 110.198 16.3011 110.031 15.9602C109.865 15.6193 109.601 15.3523 109.241 15.1591C108.885 14.9659 108.416 14.8693 107.832 14.8693H105.628V25H103.872ZM117.622 25.1761C116.762 25.1761 116.022 24.9924 115.401 24.625C114.783 24.2538 114.306 23.733 113.969 23.0625C113.635 22.3883 113.469 21.5985 113.469 20.6932C113.469 19.7992 113.635 19.0114 113.969 18.3295C114.306 17.6477 114.776 17.1155 115.378 16.733C115.984 16.3504 116.692 16.1591 117.503 16.1591C117.995 16.1591 118.473 16.2405 118.935 16.4034C119.397 16.5663 119.812 16.822 120.179 17.1705C120.546 17.5189 120.836 17.9716 121.048 18.5284C121.26 19.0814 121.366 19.7538 121.366 20.5455V21.1477H114.429V19.875H119.702C119.702 19.428 119.611 19.0322 119.429 18.6875C119.247 18.339 118.991 18.0644 118.662 17.8636C118.336 17.6629 117.954 17.5625 117.514 17.5625C117.037 17.5625 116.62 17.6799 116.264 17.9148C115.912 18.1458 115.639 18.4489 115.446 18.8239C115.257 19.1951 115.162 19.5985 115.162 20.0341V21.0284C115.162 21.6117 115.264 22.108 115.469 22.517C115.677 22.9261 115.967 23.2386 116.338 23.4545C116.709 23.6667 117.143 23.7727 117.639 23.7727C117.961 23.7727 118.255 23.7273 118.52 23.6364C118.785 23.5417 119.014 23.4015 119.207 23.2159C119.401 23.0303 119.548 22.8011 119.651 22.5284L121.259 22.8182C121.13 23.2917 120.899 23.7064 120.565 24.0625C120.236 24.4148 119.821 24.6894 119.321 24.8864C118.825 25.0795 118.259 25.1761 117.622 25.1761ZM123.251 25V16.2727H124.893V17.6591H124.984C125.143 17.1894 125.424 16.8201 125.825 16.5511C126.231 16.2784 126.689 16.142 127.2 16.142C127.306 16.142 127.431 16.1458 127.575 16.1534C127.723 16.161 127.839 16.1705 127.922 16.1818V17.8068C127.854 17.7879 127.732 17.767 127.558 17.7443C127.384 17.7178 127.21 17.7045 127.036 17.7045C126.634 17.7045 126.276 17.7898 125.962 17.9602C125.651 18.1269 125.405 18.3598 125.223 18.6591C125.041 18.9545 124.95 19.2917 124.95 19.6705V25H123.251ZM129.392 25V16.2727H131.023V17.6932H131.131C131.313 17.2121 131.61 16.8371 132.023 16.5682C132.436 16.2955 132.93 16.1591 133.506 16.1591C134.089 16.1591 134.578 16.2955 134.972 16.5682C135.369 16.8409 135.663 17.2159 135.852 17.6932H135.943C136.152 17.2273 136.483 16.8561 136.938 16.5795C137.392 16.2992 137.934 16.1591 138.562 16.1591C139.354 16.1591 140 16.4072 140.5 16.9034C141.004 17.3996 141.256 18.1477 141.256 19.1477V25H139.557V19.3068C139.557 18.7159 139.396 18.2879 139.074 18.0227C138.752 17.7576 138.367 17.625 137.92 17.625C137.367 17.625 136.938 17.7955 136.631 18.1364C136.324 18.4735 136.17 18.9072 136.17 19.4375V25H134.477V19.1989C134.477 18.7254 134.33 18.3447 134.034 18.0568C133.739 17.7689 133.354 17.625 132.881 17.625C132.559 17.625 132.261 17.7102 131.989 17.8807C131.72 18.0473 131.502 18.2803 131.335 18.5795C131.172 18.8788 131.091 19.2254 131.091 19.6193V25H129.392ZM146.072 25.1932C145.519 25.1932 145.019 25.0909 144.572 24.8864C144.125 24.678 143.771 24.3769 143.51 23.983C143.252 23.589 143.124 23.1061 143.124 22.5341C143.124 22.0417 143.218 21.6364 143.408 21.3182C143.597 21 143.853 20.7481 144.175 20.5625C144.497 20.3769 144.857 20.2367 145.254 20.142C145.652 20.0473 146.057 19.9754 146.47 19.9261C146.993 19.8655 147.417 19.8163 147.743 19.7784C148.069 19.7367 148.305 19.6705 148.453 19.5795C148.601 19.4886 148.675 19.3409 148.675 19.1364V19.0966C148.675 18.6004 148.535 18.2159 148.254 17.9432C147.978 17.6705 147.565 17.5341 147.016 17.5341C146.444 17.5341 145.993 17.661 145.663 17.9148C145.338 18.1648 145.112 18.4432 144.987 18.75L143.391 18.3864C143.58 17.8561 143.857 17.428 144.22 17.1023C144.588 16.7727 145.01 16.5341 145.487 16.3864C145.964 16.2348 146.466 16.1591 146.993 16.1591C147.341 16.1591 147.711 16.2008 148.101 16.2841C148.495 16.3636 148.862 16.5114 149.203 16.7273C149.548 16.9432 149.83 17.2519 150.05 17.6534C150.269 18.0511 150.379 18.5682 150.379 19.2045V25H148.72V23.8068H148.652C148.542 24.0265 148.377 24.2424 148.158 24.4545C147.938 24.6667 147.656 24.8428 147.311 24.983C146.966 25.1231 146.554 25.1932 146.072 25.1932ZM146.442 23.8295C146.911 23.8295 147.313 23.7367 147.646 23.5511C147.983 23.3655 148.239 23.1231 148.413 22.8239C148.591 22.5208 148.68 22.197 148.68 21.8523V20.7273C148.62 20.7879 148.502 20.8447 148.328 20.8977C148.158 20.947 147.963 20.9905 147.743 21.0284C147.523 21.0625 147.309 21.0947 147.101 21.125C146.893 21.1515 146.718 21.1742 146.578 21.1932C146.249 21.2348 145.947 21.3049 145.675 21.4034C145.406 21.5019 145.19 21.6439 145.027 21.8295C144.868 22.0114 144.788 22.2538 144.788 22.5568C144.788 22.9773 144.944 23.2955 145.254 23.5114C145.565 23.7235 145.961 23.8295 146.442 23.8295ZM154.341 19.8182V25H152.642V16.2727H154.273V17.6932H154.381C154.581 17.2311 154.896 16.8598 155.324 16.5795C155.756 16.2992 156.299 16.1591 156.955 16.1591C157.549 16.1591 158.07 16.2841 158.517 16.5341C158.964 16.7803 159.311 17.1477 159.557 17.6364C159.803 18.125 159.926 18.7292 159.926 19.4489V25H158.227V19.6534C158.227 19.0208 158.063 18.5265 157.733 18.1705C157.403 17.8106 156.951 17.6307 156.375 17.6307C155.981 17.6307 155.631 17.7159 155.324 17.8864C155.021 18.0568 154.78 18.3068 154.602 18.6364C154.428 18.9621 154.341 19.3561 154.341 19.8182ZM165.966 25.1761C165.106 25.1761 164.366 24.9924 163.744 24.625C163.127 24.2538 162.65 23.733 162.312 23.0625C161.979 22.3883 161.812 21.5985 161.812 20.6932C161.812 19.7992 161.979 19.0114 162.312 18.3295C162.65 17.6477 163.119 17.1155 163.722 16.733C164.328 16.3504 165.036 16.1591 165.847 16.1591C166.339 16.1591 166.816 16.2405 167.278 16.4034C167.741 16.5663 168.155 16.822 168.523 17.1705C168.89 17.5189 169.18 17.9716 169.392 18.5284C169.604 19.0814 169.71 19.7538 169.71 20.5455V21.1477H162.773V19.875H168.045C168.045 19.428 167.955 19.0322 167.773 18.6875C167.591 18.339 167.335 18.0644 167.006 17.8636C166.68 17.6629 166.297 17.5625 165.858 17.5625C165.381 17.5625 164.964 17.6799 164.608 17.9148C164.256 18.1458 163.983 18.4489 163.79 18.8239C163.6 19.1951 163.506 19.5985 163.506 20.0341V21.0284C163.506 21.6117 163.608 22.108 163.812 22.517C164.021 22.9261 164.311 23.2386 164.682 23.4545C165.053 23.6667 165.487 23.7727 165.983 23.7727C166.305 23.7727 166.598 23.7273 166.864 23.6364C167.129 23.5417 167.358 23.4015 167.551 23.2159C167.744 23.0303 167.892 22.8011 167.994 22.5284L169.602 22.8182C169.473 23.2917 169.242 23.7064 168.909 24.0625C168.58 24.4148 168.165 24.6894 167.665 24.8864C167.169 25.0795 166.602 25.1761 165.966 25.1761ZM173.294 19.8182V25H171.595V16.2727H173.226V17.6932H173.334C173.535 17.2311 173.849 16.8598 174.277 16.5795C174.709 16.2992 175.252 16.1591 175.908 16.1591C176.502 16.1591 177.023 16.2841 177.47 16.5341C177.917 16.7803 178.264 17.1477 178.51 17.6364C178.756 18.125 178.879 18.7292 178.879 19.4489V25H177.18V19.6534C177.18 19.0208 177.016 18.5265 176.686 18.1705C176.357 17.8106 175.904 17.6307 175.328 17.6307C174.934 17.6307 174.584 17.7159 174.277 17.8864C173.974 18.0568 173.733 18.3068 173.555 18.6364C173.381 18.9621 173.294 19.3561 173.294 19.8182ZM185.232 16.2727V17.6364H180.464V16.2727H185.232ZM181.743 14.1818H183.442V22.4375C183.442 22.767 183.491 23.0152 183.589 23.1818C183.688 23.3447 183.815 23.4564 183.97 23.517C184.129 23.5739 184.302 23.6023 184.487 23.6023C184.624 23.6023 184.743 23.5928 184.845 23.5739C184.947 23.5549 185.027 23.5398 185.084 23.5284L185.391 24.9318C185.292 24.9697 185.152 25.0076 184.97 25.0455C184.788 25.0871 184.561 25.1098 184.288 25.1136C183.841 25.1212 183.425 25.0417 183.038 24.875C182.652 24.7083 182.339 24.4508 182.101 24.1023C181.862 23.7538 181.743 23.3163 181.743 22.7898V14.1818ZM188.997 13.3636V25H187.298V13.3636H188.997ZM192.357 28.2727C192.103 28.2727 191.872 28.2519 191.663 28.2102C191.455 28.1723 191.3 28.1307 191.197 28.0852L191.607 26.6932C191.917 26.7765 192.194 26.8125 192.436 26.8011C192.679 26.7898 192.893 26.6989 193.078 26.5284C193.268 26.358 193.434 26.0795 193.578 25.6932L193.788 25.1136L190.595 16.2727H192.413L194.624 23.0455H194.714L196.925 16.2727H198.749L195.152 26.1648C194.985 26.6193 194.773 27.0038 194.516 27.3182C194.258 27.6364 193.951 27.875 193.595 28.0341C193.239 28.1932 192.826 28.2727 192.357 28.2727Z" fill="white"/>
<path d="M27.0312 19V25M31.0312 19V25M36.0312 14V28C36.0312 28.5304 35.8205 29.0391 35.4455 29.4142C35.0704 29.7893 34.5617 30 34.0312 30H24.0312C23.5008 30 22.9921 29.7893 22.617 29.4142C22.242 29.0391 22.0312 28.5304 22.0312 28V14M20.0312 14H38.0312M25.0312 14V12C25.0312 11.4696 25.242 10.9609 25.617 10.5858C25.9921 10.2107 26.5008 10 27.0312 10H31.0312C31.5617 10 32.0704 10.2107 32.4455 10.5858C32.8205 10.9609 33.0312 11.4696 33.0312 12V14" stroke="white" stroke-width="2" stroke-linecap="round" stroke-linejoin="round"/>
</svg>
