<svg width="224" height="43" viewBox="0 0 224 43" fill="none" xmlns="http://www.w3.org/2000/svg">
<path d="M216 0C220.418 0 224 3.58172 224 8V35C224 39.4183 220.418 43 216 43H8C3.58172 43 0 39.4183 0 35V8C5.15405e-07 3.58172 3.58172 0 8 0H216Z" fill="#059669"/>
<path d="M216 0C220.418 0 224 3.58172 224 8V35C224 39.4183 220.418 43 216 43H8C3.58172 43 0 39.4183 0 35V8C5.15405e-07 3.58172 3.58172 0 8 0H216Z" stroke="#E5E7EB"/>
<path d="M53.255 27V15.3636H60.5504V16.875H55.0107V20.4205H60.1697V21.9261H55.0107V25.4886H60.6186V27H53.255ZM66.0263 27.1705C65.3217 27.1705 64.6929 26.9905 64.1399 26.6307C63.5907 26.267 63.1589 25.75 62.8445 25.0795C62.5339 24.4053 62.3786 23.5966 62.3786 22.6534C62.3786 21.7102 62.5357 20.9034 62.8501 20.233C63.1683 19.5625 63.6039 19.0492 64.157 18.6932C64.71 18.3371 65.3369 18.1591 66.0376 18.1591C66.5793 18.1591 67.0149 18.25 67.3445 18.4318C67.6778 18.6098 67.9354 18.8182 68.1172 19.0568C68.3028 19.2955 68.4467 19.5057 68.549 19.6875H68.6513V15.3636H70.3501V27H68.6911V25.642H68.549C68.4467 25.8277 68.299 26.0398 68.1058 26.2784C67.9164 26.517 67.6551 26.7254 67.3217 26.9034C66.9884 27.0814 66.5566 27.1705 66.0263 27.1705ZM66.4013 25.7216C66.8899 25.7216 67.3028 25.5928 67.6399 25.3352C67.9808 25.0739 68.2384 24.7121 68.4126 24.25C68.5907 23.7879 68.6797 23.25 68.6797 22.6364C68.6797 22.0303 68.5926 21.5 68.4183 21.0455C68.2441 20.5909 67.9884 20.2367 67.6513 19.983C67.3142 19.7292 66.8975 19.6023 66.4013 19.6023C65.8899 19.6023 65.4638 19.7348 65.1229 20C64.782 20.2652 64.5244 20.6269 64.3501 21.0852C64.1797 21.5436 64.0945 22.0606 64.0945 22.6364C64.0945 23.2197 64.1816 23.7443 64.3558 24.2102C64.5301 24.6761 64.7876 25.0455 65.1286 25.3182C65.4732 25.5871 65.8975 25.7216 66.4013 25.7216ZM72.7749 27V18.2727H74.4737V27H72.7749ZM73.6328 16.9261C73.3374 16.9261 73.0836 16.8277 72.8714 16.6307C72.6631 16.4299 72.5589 16.1913 72.5589 15.9148C72.5589 15.6345 72.6631 15.3958 72.8714 15.1989C73.0836 14.9981 73.3374 14.8977 73.6328 14.8977C73.9283 14.8977 74.1802 14.9981 74.3885 15.1989C74.6006 15.3958 74.7067 15.6345 74.7067 15.9148C74.7067 16.1913 74.6006 16.4299 74.3885 16.6307C74.1802 16.8277 73.9283 16.9261 73.6328 16.9261ZM80.8331 18.2727V19.6364H76.0661V18.2727H80.8331ZM77.3445 16.1818H79.0433V24.4375C79.0433 24.767 79.0926 25.0152 79.1911 25.1818C79.2895 25.3447 79.4164 25.4564 79.5717 25.517C79.7308 25.5739 79.9032 25.6023 80.0888 25.6023C80.2251 25.6023 80.3445 25.5928 80.4467 25.5739C80.549 25.5549 80.6286 25.5398 80.6854 25.5284L80.9922 26.9318C80.8937 26.9697 80.7536 27.0076 80.5717 27.0455C80.3899 27.0871 80.1626 27.1098 79.8899 27.1136C79.4429 27.1212 79.0263 27.0417 78.6399 26.875C78.2536 26.7083 77.9411 26.4508 77.7024 26.1023C77.4638 25.7538 77.3445 25.3163 77.3445 24.7898V16.1818ZM88.0661 27H86.2024L90.3899 15.3636H92.4183L96.6058 27H94.7422L91.4524 17.4773H91.3615L88.0661 27ZM88.3786 22.4432H94.424V23.9205H88.3786V22.4432ZM101.276 27.1705C100.572 27.1705 99.9429 26.9905 99.3899 26.6307C98.8407 26.267 98.4089 25.75 98.0945 25.0795C97.7839 24.4053 97.6286 23.5966 97.6286 22.6534C97.6286 21.7102 97.7857 20.9034 98.1001 20.233C98.4183 19.5625 98.8539 19.0492 99.407 18.6932C99.96 18.3371 100.587 18.1591 101.288 18.1591C101.829 18.1591 102.265 18.25 102.594 18.4318C102.928 18.6098 103.185 18.8182 103.367 19.0568C103.553 19.2955 103.697 19.5057 103.799 19.6875H103.901V15.3636H105.6V27H103.941V25.642H103.799C103.697 25.8277 103.549 26.0398 103.356 26.2784C103.166 26.517 102.905 26.7254 102.572 26.9034C102.238 27.0814 101.807 27.1705 101.276 27.1705ZM101.651 25.7216C102.14 25.7216 102.553 25.5928 102.89 25.3352C103.231 25.0739 103.488 24.7121 103.663 24.25C103.841 23.7879 103.93 23.25 103.93 22.6364C103.93 22.0303 103.843 21.5 103.668 21.0455C103.494 20.5909 103.238 20.2367 102.901 19.983C102.564 19.7292 102.147 19.6023 101.651 19.6023C101.14 19.6023 100.714 19.7348 100.373 20C100.032 20.2652 99.7744 20.6269 99.6001 21.0852C99.4297 21.5436 99.3445 22.0606 99.3445 22.6364C99.3445 23.2197 99.4316 23.7443 99.6058 24.2102C99.7801 24.6761 100.038 25.0455 100.379 25.3182C100.723 25.5871 101.147 25.7216 101.651 25.7216ZM108.025 27V18.2727H109.656V19.6932H109.763C109.945 19.2121 110.243 18.8371 110.656 18.5682C111.068 18.2955 111.563 18.1591 112.138 18.1591C112.722 18.1591 113.21 18.2955 113.604 18.5682C114.002 18.8409 114.296 19.2159 114.485 19.6932H114.576C114.784 19.2273 115.116 18.8561 115.57 18.5795C116.025 18.2992 116.567 18.1591 117.195 18.1591C117.987 18.1591 118.633 18.4072 119.133 18.9034C119.637 19.3996 119.888 20.1477 119.888 21.1477V27H118.19V21.3068C118.19 20.7159 118.029 20.2879 117.707 20.0227C117.385 19.7576 117 19.625 116.553 19.625C116 19.625 115.57 19.7955 115.263 20.1364C114.957 20.4735 114.803 20.9072 114.803 21.4375V27H113.11V21.1989C113.11 20.7254 112.962 20.3447 112.667 20.0568C112.371 19.7689 111.987 19.625 111.513 19.625C111.192 19.625 110.894 19.7102 110.621 19.8807C110.353 20.0473 110.135 20.2803 109.968 20.5795C109.805 20.8788 109.724 21.2254 109.724 21.6193V27H108.025ZM122.165 27V18.2727H123.864V27H122.165ZM123.023 16.9261C122.728 16.9261 122.474 16.8277 122.262 16.6307C122.054 16.4299 121.95 16.1913 121.95 15.9148C121.95 15.6345 122.054 15.3958 122.262 15.1989C122.474 14.9981 122.728 14.8977 123.023 14.8977C123.319 14.8977 123.571 14.9981 123.779 15.1989C123.991 15.3958 124.097 15.6345 124.097 15.9148C124.097 16.1913 123.991 16.4299 123.779 16.6307C123.571 16.8277 123.319 16.9261 123.023 16.9261ZM127.849 21.8182V27H126.15V18.2727H127.781V19.6932H127.888C128.089 19.2311 128.404 18.8598 128.832 18.5795C129.263 18.2992 129.807 18.1591 130.462 18.1591C131.057 18.1591 131.578 18.2841 132.025 18.5341C132.472 18.7803 132.818 19.1477 133.065 19.6364C133.311 20.125 133.434 20.7292 133.434 21.4489V27H131.735V21.6534C131.735 21.0208 131.57 20.5265 131.241 20.1705C130.911 19.8106 130.459 19.6307 129.883 19.6307C129.489 19.6307 129.138 19.7159 128.832 19.8864C128.529 20.0568 128.288 20.3068 128.11 20.6364C127.936 20.9621 127.849 21.3561 127.849 21.8182ZM140.083 27V15.3636H144.231C145.132 15.3636 145.88 15.5189 146.475 15.8295C147.074 16.1402 147.521 16.5701 147.816 17.1193C148.112 17.6648 148.259 18.2955 148.259 19.0114C148.259 19.7235 148.11 20.3504 147.81 20.892C147.515 21.4299 147.068 21.8485 146.469 22.1477C145.875 22.447 145.127 22.5966 144.225 22.5966H141.083V21.0852H144.066C144.634 21.0852 145.096 21.0038 145.452 20.8409C145.812 20.678 146.076 20.4413 146.242 20.1307C146.409 19.8201 146.492 19.447 146.492 19.0114C146.492 18.572 146.407 18.1913 146.237 17.8693C146.07 17.5473 145.807 17.3011 145.447 17.1307C145.091 16.9564 144.623 16.8693 144.043 16.8693H141.839V27H140.083ZM145.827 21.75L148.702 27H146.702L143.884 21.75H145.827ZM153.826 27.1761C153.008 27.1761 152.294 26.9886 151.684 26.6136C151.074 26.2386 150.601 25.714 150.263 25.0398C149.926 24.3655 149.758 23.5777 149.758 22.6761C149.758 21.7708 149.926 20.9792 150.263 20.3011C150.601 19.6231 151.074 19.0966 151.684 18.7216C152.294 18.3466 153.008 18.1591 153.826 18.1591C154.644 18.1591 155.358 18.3466 155.968 18.7216C156.578 19.0966 157.051 19.6231 157.388 20.3011C157.726 20.9792 157.894 21.7708 157.894 22.6761C157.894 23.5777 157.726 24.3655 157.388 25.0398C157.051 25.714 156.578 26.2386 155.968 26.6136C155.358 26.9886 154.644 27.1761 153.826 27.1761ZM153.832 25.75C154.362 25.75 154.801 25.6098 155.15 25.3295C155.498 25.0492 155.756 24.6761 155.923 24.2102C156.093 23.7443 156.178 23.2311 156.178 22.6705C156.178 22.1136 156.093 21.6023 155.923 21.1364C155.756 20.6667 155.498 20.2898 155.15 20.0057C154.801 19.7216 154.362 19.5795 153.832 19.5795C153.298 19.5795 152.854 19.7216 152.502 20.0057C152.154 20.2898 151.894 20.6667 151.724 21.1364C151.557 21.6023 151.474 22.1136 151.474 22.6705C151.474 23.2311 151.557 23.7443 151.724 24.2102C151.894 24.6761 152.154 25.0492 152.502 25.3295C152.854 25.6098 153.298 25.75 153.832 25.75ZM161.489 15.3636V27H159.79V15.3636H161.489ZM167.536 27.1761C166.676 27.1761 165.936 26.9924 165.315 26.625C164.697 26.2538 164.22 25.733 163.883 25.0625C163.549 24.3883 163.383 23.5985 163.383 22.6932C163.383 21.7992 163.549 21.0114 163.883 20.3295C164.22 19.6477 164.69 19.1155 165.292 18.733C165.898 18.3504 166.606 18.1591 167.417 18.1591C167.909 18.1591 168.387 18.2405 168.849 18.4034C169.311 18.5663 169.726 18.822 170.093 19.1705C170.46 19.5189 170.75 19.9716 170.962 20.5284C171.174 21.0814 171.281 21.7538 171.281 22.5455V23.1477H164.343V21.875H169.616C169.616 21.428 169.525 21.0322 169.343 20.6875C169.161 20.339 168.906 20.0644 168.576 19.8636C168.25 19.6629 167.868 19.5625 167.428 19.5625C166.951 19.5625 166.534 19.6799 166.178 19.9148C165.826 20.1458 165.553 20.4489 165.36 20.8239C165.171 21.1951 165.076 21.5985 165.076 22.0341V23.0284C165.076 23.6117 165.178 24.108 165.383 24.517C165.591 24.9261 165.881 25.2386 166.252 25.4545C166.623 25.6667 167.057 25.7727 167.553 25.7727C167.875 25.7727 168.169 25.7273 168.434 25.6364C168.699 25.5417 168.928 25.4015 169.121 25.2159C169.315 25.0303 169.462 24.8011 169.565 24.5284L171.173 24.8182C171.044 25.2917 170.813 25.7064 170.479 26.0625C170.15 26.4148 169.735 26.6894 169.235 26.8864C168.739 27.0795 168.173 27.1761 167.536 27.1761Z" fill="white"/>
</svg>
