<svg width="181" height="36" viewBox="0 0 181 36" fill="none" xmlns="http://www.w3.org/2000/svg">
<path d="M172.344 0C176.762 1.35596e-06 180.344 3.58172 180.344 8V28C180.344 32.4183 176.762 36 172.344 36H8C3.58172 36 3.22139e-08 32.4183 0 28V8C0 3.58172 3.58172 0 8 0H172.344Z" fill="#E5E7EB"/>
<path d="M172.344 0C176.762 1.35596e-06 180.344 3.58172 180.344 8V28C180.344 32.4183 176.762 36 172.344 36H8C3.58172 36 3.22139e-08 32.4183 0 28V8C0 3.58172 3.58172 0 8 0H172.344Z" stroke="#E5E7EB"/>
<path d="M17.4624 23V12.8182H23.7763V14.1406H18.9986V17.2429H23.3239V18.5604H18.9986V23H17.4624ZM28.2022 23.1541C27.4863 23.1541 26.8616 22.9901 26.3279 22.6619C25.7943 22.3338 25.38 21.8748 25.085 21.2848C24.7901 20.6948 24.6426 20.0054 24.6426 19.2166C24.6426 18.4245 24.7901 17.7318 25.085 17.1385C25.38 16.5452 25.7943 16.0845 26.3279 15.7564C26.8616 15.4283 27.4863 15.2642 28.2022 15.2642C28.9181 15.2642 29.5429 15.4283 30.0765 15.7564C30.6101 16.0845 31.0244 16.5452 31.3194 17.1385C31.6144 17.7318 31.7619 18.4245 31.7619 19.2166C31.7619 20.0054 31.6144 20.6948 31.3194 21.2848C31.0244 21.8748 30.6101 22.3338 30.0765 22.6619C29.5429 22.9901 28.9181 23.1541 28.2022 23.1541ZM28.2072 21.9062C28.6712 21.9062 29.0557 21.7836 29.3606 21.5384C29.6655 21.2931 29.8909 20.9666 30.0368 20.5589C30.1859 20.1513 30.2605 19.7022 30.2605 19.2116C30.2605 18.7244 30.1859 18.277 30.0368 17.8693C29.8909 17.4583 29.6655 17.1286 29.3606 16.88C29.0557 16.6314 28.6712 16.5071 28.2072 16.5071C27.7399 16.5071 27.3521 16.6314 27.0439 16.88C26.7389 17.1286 26.5119 17.4583 26.3627 17.8693C26.2169 18.277 26.144 18.7244 26.144 19.2116C26.144 19.7022 26.2169 20.1513 26.3627 20.5589C26.5119 20.9666 26.7389 21.2931 27.0439 21.5384C27.3521 21.7836 27.7399 21.9062 28.2072 21.9062ZM33.4212 23V15.3636H34.858V16.5767H34.9375C35.0767 16.1657 35.322 15.8426 35.6733 15.6072C36.0279 15.3686 36.429 15.2493 36.8764 15.2493C36.9692 15.2493 37.0786 15.2526 37.2045 15.2592C37.3338 15.2659 37.4349 15.2741 37.5078 15.2841V16.706C37.4482 16.6894 37.3421 16.6712 37.1896 16.6513C37.0372 16.6281 36.8847 16.6165 36.7322 16.6165C36.3809 16.6165 36.0677 16.6911 35.7926 16.8402C35.5208 16.986 35.3054 17.1899 35.1463 17.4517C34.9872 17.7102 34.9077 18.0052 34.9077 18.3366V23H33.4212ZM41.7374 23.1541C40.9983 23.1541 40.3619 22.9867 39.8283 22.652C39.298 22.3139 38.8903 21.8482 38.6053 21.255C38.3203 20.6617 38.1777 19.9822 38.1777 19.2166C38.1777 18.4411 38.3236 17.7566 38.6152 17.1634C38.9069 16.5668 39.3179 16.1011 39.8482 15.7663C40.3785 15.4316 41.0033 15.2642 41.7225 15.2642C42.3025 15.2642 42.8195 15.3719 43.2736 15.5874C43.7277 15.7995 44.0939 16.0978 44.3723 16.4822C44.6541 16.8667 44.8214 17.3158 44.8745 17.8295H43.4277C43.3482 17.4716 43.1659 17.1634 42.8809 16.9048C42.5991 16.6463 42.2213 16.517 41.7473 16.517C41.333 16.517 40.9701 16.6264 40.6586 16.8452C40.3503 17.0606 40.11 17.3688 39.9377 17.7699C39.7653 18.1676 39.6792 18.6383 39.6792 19.1818C39.6792 19.7386 39.7637 20.2192 39.9327 20.6236C40.1017 21.0279 40.3404 21.3411 40.6486 21.5632C40.9602 21.7853 41.3264 21.8963 41.7473 21.8963C42.0291 21.8963 42.2843 21.8449 42.513 21.7422C42.745 21.6361 42.9389 21.4853 43.0946 21.2898C43.2537 21.0942 43.3648 20.8589 43.4277 20.5838H44.8745C44.8214 21.0777 44.6607 21.5185 44.3922 21.9062C44.1238 22.294 43.7641 22.599 43.3134 22.821C42.8659 23.0431 42.3406 23.1541 41.7374 23.1541ZM49.7553 23.1541C49.003 23.1541 48.355 22.9934 47.8114 22.6719C47.2712 22.3471 46.8536 21.8913 46.5586 21.3047C46.2669 20.7147 46.1211 20.0237 46.1211 19.2315C46.1211 18.4493 46.2669 17.7599 46.5586 17.1634C46.8536 16.5668 47.2646 16.1011 47.7915 15.7663C48.3219 15.4316 48.9416 15.2642 49.6509 15.2642C50.0818 15.2642 50.4994 15.3355 50.9038 15.478C51.3081 15.6205 51.671 15.8442 51.9925 16.1491C52.314 16.4541 52.5676 16.8501 52.7532 17.3374C52.9388 17.8213 53.0316 18.4096 53.0316 19.1023V19.6293H46.9613V18.5156H51.5749C51.5749 18.1245 51.4954 17.7782 51.3363 17.4766C51.1772 17.1716 50.9535 16.9313 50.6651 16.7557C50.3801 16.58 50.0453 16.4922 49.6609 16.4922C49.2433 16.4922 48.8787 16.5949 48.5671 16.8004C48.2589 17.0026 48.0202 17.2678 47.8512 17.5959C47.6855 17.9207 47.6026 18.2737 47.6026 18.6548V19.5249C47.6026 20.0353 47.6921 20.4695 47.8711 20.8274C48.0534 21.1854 48.3069 21.4588 48.6317 21.6477C48.9566 21.8333 49.3361 21.9261 49.7702 21.9261C50.052 21.9261 50.3088 21.8864 50.5408 21.8068C50.7728 21.724 50.9734 21.6013 51.1424 21.4389C51.3114 21.2765 51.4407 21.076 51.5302 20.8374L52.9371 21.0909C52.8245 21.5052 52.6223 21.8681 52.3306 22.1797C52.0423 22.4879 51.6793 22.7282 51.2418 22.9006C50.8076 23.0696 50.3121 23.1541 49.7553 23.1541ZM58.5053 23V12.8182H62.1346C62.9267 12.8182 63.583 12.9624 64.1033 13.2507C64.6237 13.5391 65.0131 13.9335 65.2717 14.4339C65.5302 14.9311 65.6594 15.4912 65.6594 16.1143C65.6594 16.7408 65.5285 17.3042 65.2667 17.8047C65.0082 18.3018 64.6171 18.6963 64.0934 18.9879C63.573 19.2763 62.9184 19.4205 62.1296 19.4205H59.6339V18.1179H61.9904C62.4909 18.1179 62.8969 18.0317 63.2085 17.8594C63.52 17.6837 63.7487 17.4451 63.8945 17.1435C64.0404 16.8419 64.1133 16.4988 64.1133 16.1143C64.1133 15.7299 64.0404 15.3885 63.8945 15.0902C63.7487 14.7919 63.5183 14.5582 63.2035 14.3892C62.8919 14.2202 62.4809 14.1357 61.9705 14.1357H60.0415V23H58.5053ZM69.495 23.169C69.0111 23.169 68.5736 23.0795 68.1825 22.9006C67.7914 22.7183 67.4815 22.4548 67.2528 22.1101C67.0275 21.7654 66.9148 21.3428 66.9148 20.8423C66.9148 20.4115 66.9976 20.0568 67.1634 19.7784C67.3291 19.5 67.5528 19.2796 67.8345 19.1172C68.1162 18.9548 68.4311 18.8321 68.7791 18.7493C69.1271 18.6664 69.4818 18.6035 69.843 18.5604C70.3004 18.5073 70.6716 18.4643 70.9567 18.4311C71.2417 18.3946 71.4489 18.3366 71.5781 18.2571C71.7074 18.1776 71.772 18.0483 71.772 17.8693V17.8345C71.772 17.4003 71.6494 17.0639 71.4041 16.8253C71.1622 16.5866 70.8009 16.4673 70.3203 16.4673C69.8198 16.4673 69.4254 16.5784 69.1371 16.8004C68.852 17.0192 68.6548 17.2628 68.5455 17.5312L67.1484 17.2131C67.3142 16.7491 67.5561 16.3745 67.8743 16.0895C68.1958 15.8011 68.5653 15.5923 68.983 15.4631C69.4006 15.3305 69.8397 15.2642 70.3004 15.2642C70.6054 15.2642 70.9285 15.3007 71.2699 15.3736C71.6146 15.4432 71.9361 15.5724 72.2344 15.7614C72.536 15.9503 72.7829 16.2204 72.9751 16.5717C73.1674 16.9197 73.2635 17.3722 73.2635 17.929V23H71.8118V21.956H71.7521C71.656 22.1482 71.5118 22.3371 71.3196 22.5227C71.1274 22.7083 70.8804 22.8625 70.5788 22.9851C70.2772 23.1077 69.916 23.169 69.495 23.169ZM69.8182 21.9759C70.2292 21.9759 70.5805 21.8946 70.8722 21.7322C71.1671 21.5698 71.3909 21.3577 71.5433 21.0959C71.6991 20.8307 71.777 20.5473 71.777 20.2457V19.2614C71.724 19.3144 71.6212 19.3641 71.4688 19.4105C71.3196 19.4536 71.1489 19.4917 70.9567 19.5249C70.7644 19.5547 70.5772 19.5829 70.3949 19.6094C70.2126 19.6326 70.0601 19.6525 69.9375 19.669C69.6491 19.7055 69.3857 19.7668 69.147 19.853C68.9117 19.9392 68.7228 20.0634 68.5803 20.2259C68.4411 20.3849 68.3714 20.5971 68.3714 20.8622C68.3714 21.2301 68.5073 21.5085 68.7791 21.6974C69.0509 21.883 69.3973 21.9759 69.8182 21.9759ZM80.9657 17.228L79.6184 17.4666C79.5621 17.2943 79.4726 17.1302 79.35 16.9744C79.2306 16.8187 79.0682 16.6911 78.8627 16.5916C78.6573 16.4922 78.4004 16.4425 78.0922 16.4425C77.6712 16.4425 77.3199 16.5369 77.0382 16.7259C76.7565 16.9115 76.6156 17.1518 76.6156 17.4467C76.6156 17.7019 76.71 17.9074 76.899 18.0632C77.0879 18.219 77.3928 18.3466 77.8137 18.446L79.0268 18.7244C79.7295 18.8868 80.2531 19.1371 80.5978 19.4751C80.9425 19.8132 81.1149 20.2524 81.1149 20.7926C81.1149 21.25 80.9823 21.6577 80.7172 22.0156C80.4553 22.3703 80.0891 22.6487 79.6184 22.8509C79.1511 23.053 78.6092 23.1541 77.9927 23.1541C77.1376 23.1541 76.4399 22.9718 75.8997 22.6072C75.3594 22.2393 75.028 21.7173 74.9054 21.0412L76.3422 20.8224C76.4316 21.197 76.6156 21.4804 76.894 21.6726C77.1724 21.8615 77.5353 21.956 77.9828 21.956C78.47 21.956 78.8594 21.8549 79.1511 21.6527C79.4428 21.4472 79.5886 21.197 79.5886 20.902C79.5886 20.6634 79.4991 20.4628 79.3201 20.3004C79.1445 20.138 78.8743 20.0154 78.5098 19.9325L77.2172 19.6491C76.5046 19.4867 75.9776 19.2282 75.6362 18.8736C75.2981 18.5189 75.1291 18.0698 75.1291 17.5263C75.1291 17.0755 75.255 16.6811 75.5069 16.343C75.7588 16.005 76.1068 15.7415 76.551 15.5526C76.9951 15.3603 77.5038 15.2642 78.0772 15.2642C78.9025 15.2642 79.5521 15.4432 80.0261 15.8011C80.5001 16.1558 80.8133 16.6314 80.9657 17.228ZM88.4716 17.228L87.1243 17.4666C87.0679 17.2943 86.9785 17.1302 86.8558 16.9744C86.7365 16.8187 86.5741 16.6911 86.3686 16.5916C86.1631 16.4922 85.9063 16.4425 85.598 16.4425C85.1771 16.4425 84.8258 16.5369 84.544 16.7259C84.2623 16.9115 84.1214 17.1518 84.1214 17.4467C84.1214 17.7019 84.2159 17.9074 84.4048 18.0632C84.5938 18.219 84.8987 18.3466 85.3196 18.446L86.5327 18.7244C87.2353 18.8868 87.759 19.1371 88.1037 19.4751C88.4484 19.8132 88.6207 20.2524 88.6207 20.7926C88.6207 21.25 88.4882 21.6577 88.223 22.0156C87.9612 22.3703 87.5949 22.6487 87.1243 22.8509C86.657 23.053 86.1151 23.1541 85.4986 23.1541C84.6435 23.1541 83.9458 22.9718 83.4055 22.6072C82.8653 22.2393 82.5339 21.7173 82.4112 21.0412L83.848 20.8224C83.9375 21.197 84.1214 21.4804 84.3999 21.6726C84.6783 21.8615 85.0412 21.956 85.4886 21.956C85.9759 21.956 86.3653 21.8549 86.657 21.6527C86.9486 21.4472 87.0945 21.197 87.0945 20.902C87.0945 20.6634 87.005 20.4628 86.826 20.3004C86.6503 20.138 86.3802 20.0154 86.0156 19.9325L84.723 19.6491C84.0104 19.4867 83.4834 19.2282 83.142 18.8736C82.804 18.5189 82.6349 18.0698 82.6349 17.5263C82.6349 17.0755 82.7609 16.6811 83.0128 16.343C83.2647 16.005 83.6127 15.7415 84.0568 15.5526C84.5009 15.3603 85.0097 15.2642 85.5831 15.2642C86.4084 15.2642 87.058 15.4432 87.532 15.8011C88.0059 16.1558 88.3191 16.6314 88.4716 17.228ZM91.9107 23L89.6635 15.3636H91.1998L92.6962 20.9716H92.7708L94.2722 15.3636H95.8084L97.2999 20.9467H97.3745L98.861 15.3636H100.397L98.155 23H96.6387L95.0875 17.4865H94.9732L93.4221 23H91.9107ZM104.792 23.1541C104.076 23.1541 103.451 22.9901 102.918 22.6619C102.384 22.3338 101.97 21.8748 101.675 21.2848C101.38 20.6948 101.232 20.0054 101.232 19.2166C101.232 18.4245 101.38 17.7318 101.675 17.1385C101.97 16.5452 102.384 16.0845 102.918 15.7564C103.451 15.4283 104.076 15.2642 104.792 15.2642C105.508 15.2642 106.133 15.4283 106.666 15.7564C107.2 16.0845 107.614 16.5452 107.909 17.1385C108.204 17.7318 108.352 18.4245 108.352 19.2166C108.352 20.0054 108.204 20.6948 107.909 21.2848C107.614 21.8748 107.2 22.3338 106.666 22.6619C106.133 22.9901 105.508 23.1541 104.792 23.1541ZM104.797 21.9062C105.261 21.9062 105.646 21.7836 105.95 21.5384C106.255 21.2931 106.481 20.9666 106.627 20.5589C106.776 20.1513 106.85 19.7022 106.85 19.2116C106.85 18.7244 106.776 18.277 106.627 17.8693C106.481 17.4583 106.255 17.1286 105.95 16.88C105.646 16.6314 105.261 16.5071 104.797 16.5071C104.33 16.5071 103.942 16.6314 103.634 16.88C103.329 17.1286 103.102 17.4583 102.953 17.8693C102.807 18.277 102.734 18.7244 102.734 19.2116C102.734 19.7022 102.807 20.1513 102.953 20.5589C103.102 20.9666 103.329 21.2931 103.634 21.5384C103.942 21.7836 104.33 21.9062 104.797 21.9062ZM110.011 23V15.3636H111.448V16.5767H111.527C111.667 16.1657 111.912 15.8426 112.263 15.6072C112.618 15.3686 113.019 15.2493 113.466 15.2493C113.559 15.2493 113.668 15.2526 113.794 15.2592C113.924 15.2659 114.025 15.2741 114.098 15.2841V16.706C114.038 16.6894 113.932 16.6712 113.779 16.6513C113.627 16.6281 113.475 16.6165 113.322 16.6165C112.971 16.6165 112.658 16.6911 112.382 16.8402C112.111 16.986 111.895 17.1899 111.736 17.4517C111.577 17.7102 111.498 18.0052 111.498 18.3366V23H110.011ZM117.969 23.1491C117.353 23.1491 116.803 22.9917 116.319 22.6768C115.838 22.3587 115.46 21.9062 115.185 21.3196C114.913 20.7296 114.778 20.022 114.778 19.1967C114.778 18.3714 114.915 17.6655 115.19 17.0788C115.469 16.4922 115.85 16.0431 116.334 15.7315C116.818 15.42 117.366 15.2642 117.979 15.2642C118.453 15.2642 118.834 15.3438 119.123 15.5028C119.414 15.6586 119.64 15.8409 119.799 16.0497C119.961 16.2585 120.087 16.4425 120.177 16.6016H120.266V12.8182H121.753V23H120.301V21.8118H120.177C120.087 21.9742 119.958 22.1598 119.789 22.3686C119.623 22.5774 119.394 22.7597 119.103 22.9155C118.811 23.0713 118.433 23.1491 117.969 23.1491ZM118.297 21.8814C118.725 21.8814 119.086 21.7687 119.381 21.5433C119.68 21.3146 119.905 20.9981 120.057 20.5938C120.213 20.1894 120.291 19.7187 120.291 19.1818C120.291 18.6515 120.215 18.1875 120.062 17.7898C119.91 17.392 119.686 17.0821 119.391 16.8601C119.096 16.638 118.732 16.527 118.297 16.527C117.85 16.527 117.477 16.643 117.179 16.875C116.881 17.107 116.655 17.4235 116.503 17.8246C116.354 18.2256 116.279 18.678 116.279 19.1818C116.279 19.6922 116.355 20.1513 116.508 20.5589C116.66 20.9666 116.885 21.2898 117.184 21.5284C117.485 21.7637 117.857 21.8814 118.297 21.8814ZM127.699 23V12.8182H131.328C132.117 12.8182 132.771 12.9541 133.292 13.2259C133.815 13.4976 134.206 13.8738 134.465 14.3544C134.724 14.8317 134.853 15.3835 134.853 16.0099C134.853 16.633 134.722 17.1816 134.46 17.6555C134.202 18.1262 133.81 18.4924 133.287 18.7543C132.766 19.0161 132.112 19.147 131.323 19.147H128.574V17.8246H131.184C131.681 17.8246 132.085 17.7533 132.397 17.6108C132.712 17.4683 132.942 17.2611 133.088 16.9893C133.234 16.7176 133.307 16.3911 133.307 16.0099C133.307 15.6255 133.232 15.2924 133.083 15.0107C132.937 14.7289 132.707 14.5135 132.392 14.3643C132.08 14.2119 131.671 14.1357 131.164 14.1357H129.235V23H127.699ZM132.725 18.4062L135.241 23H133.491L131.025 18.4062H132.725ZM139.798 23.1541C139.046 23.1541 138.398 22.9934 137.854 22.6719C137.314 22.3471 136.897 21.8913 136.602 21.3047C136.31 20.7147 136.164 20.0237 136.164 19.2315C136.164 18.4493 136.31 17.7599 136.602 17.1634C136.897 16.5668 137.308 16.1011 137.835 15.7663C138.365 15.4316 138.985 15.2642 139.694 15.2642C140.125 15.2642 140.542 15.3355 140.947 15.478C141.351 15.6205 141.714 15.8442 142.036 16.1491C142.357 16.4541 142.611 16.8501 142.796 17.3374C142.982 17.8213 143.075 18.4096 143.075 19.1023V19.6293H137.004V18.5156H141.618C141.618 18.1245 141.538 17.7782 141.379 17.4766C141.22 17.1716 140.996 16.9313 140.708 16.7557C140.423 16.58 140.088 16.4922 139.704 16.4922C139.286 16.4922 138.922 16.5949 138.61 16.8004C138.302 17.0026 138.063 17.2678 137.894 17.5959C137.728 17.9207 137.646 18.2737 137.646 18.6548V19.5249C137.646 20.0353 137.735 20.4695 137.914 20.8274C138.096 21.1854 138.35 21.4588 138.675 21.6477C139 21.8333 139.379 21.9261 139.813 21.9261C140.095 21.9261 140.352 21.8864 140.584 21.8068C140.816 21.724 141.016 21.6013 141.185 21.4389C141.354 21.2765 141.484 21.076 141.573 20.8374L142.98 21.0909C142.867 21.5052 142.665 21.8681 142.374 22.1797C142.085 22.4879 141.722 22.7282 141.285 22.9006C140.851 23.0696 140.355 23.1541 139.798 23.1541ZM150.446 17.228L149.099 17.4666C149.043 17.2943 148.953 17.1302 148.83 16.9744C148.711 16.8187 148.549 16.6911 148.343 16.5916C148.138 16.4922 147.881 16.4425 147.573 16.4425C147.152 16.4425 146.8 16.5369 146.519 16.7259C146.237 16.9115 146.096 17.1518 146.096 17.4467C146.096 17.7019 146.191 17.9074 146.379 18.0632C146.568 18.219 146.873 18.3466 147.294 18.446L148.507 18.7244C149.21 18.8868 149.734 19.1371 150.078 19.4751C150.423 19.8132 150.595 20.2524 150.595 20.7926C150.595 21.25 150.463 21.6577 150.198 22.0156C149.936 22.3703 149.57 22.6487 149.099 22.8509C148.632 23.053 148.09 23.1541 147.473 23.1541C146.618 23.1541 145.92 22.9718 145.38 22.6072C144.84 22.2393 144.508 21.7173 144.386 21.0412L145.823 20.8224C145.912 21.197 146.096 21.4804 146.374 21.6726C146.653 21.8615 147.016 21.956 147.463 21.956C147.95 21.956 148.34 21.8549 148.632 21.6527C148.923 21.4472 149.069 21.197 149.069 20.902C149.069 20.6634 148.98 20.4628 148.801 20.3004C148.625 20.138 148.355 20.0154 147.99 19.9325L146.698 19.6491C145.985 19.4867 145.458 19.2282 145.117 18.8736C144.779 18.5189 144.61 18.0698 144.61 17.5263C144.61 17.0755 144.735 16.6811 144.987 16.343C145.239 16.005 145.587 15.7415 146.031 15.5526C146.476 15.3603 146.984 15.2642 147.558 15.2642C148.383 15.2642 149.033 15.4432 149.507 15.8011C149.981 16.1558 150.294 16.6314 150.446 17.228ZM155.521 23.1541C154.769 23.1541 154.121 22.9934 153.577 22.6719C153.037 22.3471 152.619 21.8913 152.324 21.3047C152.033 20.7147 151.887 20.0237 151.887 19.2315C151.887 18.4493 152.033 17.7599 152.324 17.1634C152.619 16.5668 153.03 16.1011 153.557 15.7663C154.087 15.4316 154.707 15.2642 155.417 15.2642C155.847 15.2642 156.265 15.3355 156.669 15.478C157.074 15.6205 157.437 15.8442 157.758 16.1491C158.08 16.4541 158.333 16.8501 158.519 17.3374C158.704 17.8213 158.797 18.4096 158.797 19.1023V19.6293H152.727V18.5156H157.341C157.341 18.1245 157.261 17.7782 157.102 17.4766C156.943 17.1716 156.719 16.9313 156.431 16.7557C156.146 16.58 155.811 16.4922 155.426 16.4922C155.009 16.4922 154.644 16.5949 154.333 16.8004C154.025 17.0026 153.786 17.2678 153.617 17.5959C153.451 17.9207 153.368 18.2737 153.368 18.6548V19.5249C153.368 20.0353 153.458 20.4695 153.637 20.8274C153.819 21.1854 154.073 21.4588 154.397 21.6477C154.722 21.8333 155.102 21.9261 155.536 21.9261C155.818 21.9261 156.074 21.8864 156.306 21.8068C156.538 21.724 156.739 21.6013 156.908 21.4389C157.077 21.2765 157.206 21.076 157.296 20.8374L158.703 21.0909C158.59 21.5052 158.388 21.8681 158.096 22.1797C157.808 22.4879 157.445 22.7282 157.007 22.9006C156.573 23.0696 156.078 23.1541 155.521 23.1541ZM164.011 15.3636V16.5568H159.84V15.3636H164.011ZM160.959 13.5341H162.445V20.7578C162.445 21.0462 162.488 21.2633 162.574 21.4091C162.661 21.5516 162.772 21.6494 162.907 21.7024C163.047 21.7521 163.198 21.777 163.36 21.777C163.479 21.777 163.584 21.7687 163.673 21.7521C163.763 21.7356 163.832 21.7223 163.882 21.7124L164.15 22.9403C164.064 22.9735 163.942 23.0066 163.782 23.0398C163.623 23.0762 163.425 23.0961 163.186 23.0994C162.795 23.1061 162.43 23.0365 162.092 22.8906C161.754 22.7448 161.481 22.5194 161.272 22.2145C161.063 21.9096 160.959 21.5268 160.959 21.0661V13.5341Z" fill="#374151"/>
</svg>
