<svg width="289" height="44" viewBox="0 0 289 44" fill="none" xmlns="http://www.w3.org/2000/svg">
<path d="M280.391 0C284.809 0 288.391 3.58172 288.391 8V36C288.391 40.4183 284.809 44 280.391 44H8C3.58173 44 0 40.4183 0 36V8C0 3.58172 3.58172 0 8 0H280.391Z" fill="#E74C3C"/>
<path d="M280.391 0C284.809 0 288.391 3.58172 288.391 8V36C288.391 40.4183 284.809 44 280.391 44H8C3.58173 44 0 40.4183 0 36V8C0 3.58172 3.58172 0 8 0H280.391Z" stroke="#E5E7EB"/>
<path d="M65.3217 27H63.0717L67.1683 15.3636H69.7706L73.8729 27H71.6229L68.5149 17.75H68.424L65.3217 27ZM65.3956 22.4375H71.532V24.1307H65.3956V22.4375ZM78.8558 27.1705C77.9846 27.1705 77.2365 26.9792 76.6115 26.5966C75.9903 26.214 75.5111 25.6856 75.174 25.0114C74.8407 24.3333 74.674 23.553 74.674 22.6705C74.674 21.7841 74.8445 21.0019 75.1854 20.3239C75.5263 19.642 76.0073 19.1117 76.6286 18.733C77.2536 18.3504 77.9922 18.1591 78.8445 18.1591C79.5528 18.1591 80.1797 18.2898 80.7251 18.5511C81.2744 18.8087 81.7119 19.1742 82.0376 19.6477C82.3634 20.1174 82.549 20.6667 82.5945 21.2955H80.6286C80.549 20.875 80.3596 20.5246 80.0604 20.2443C79.7649 19.9602 79.3691 19.8182 78.8729 19.8182C78.4524 19.8182 78.0831 19.9318 77.7649 20.1591C77.4467 20.3826 77.1986 20.7045 77.0206 21.125C76.8464 21.5455 76.7592 22.0492 76.7592 22.6364C76.7592 23.2311 76.8464 23.7424 77.0206 24.1705C77.1948 24.5947 77.4392 24.9223 77.7536 25.1534C78.0717 25.3807 78.4448 25.4943 78.8729 25.4943C79.1759 25.4943 79.4467 25.4375 79.6854 25.3239C79.9278 25.2064 80.1304 25.0379 80.2933 24.8182C80.4562 24.5985 80.5679 24.3314 80.6286 24.017H82.5945C82.5452 24.6345 82.3634 25.1818 82.049 25.6591C81.7346 26.1326 81.3066 26.5038 80.7649 26.7727C80.2232 27.0379 79.5869 27.1705 78.8558 27.1705ZM88.6413 18.2727V19.8636H83.6243V18.2727H88.6413ZM84.8629 16.1818H86.9197V24.375C86.9197 24.6515 86.9614 24.8636 87.0447 25.0114C87.1319 25.1553 87.2455 25.2538 87.3857 25.3068C87.5258 25.3598 87.6811 25.3864 87.8516 25.3864C87.9804 25.3864 88.0978 25.3769 88.2038 25.358C88.3137 25.339 88.397 25.322 88.4538 25.3068L88.8004 26.9148C88.6906 26.9527 88.5334 26.9943 88.3288 27.0398C88.1281 27.0852 87.8819 27.1117 87.5902 27.1193C87.075 27.1345 86.611 27.0568 86.1982 26.8864C85.7853 26.7121 85.4576 26.4432 85.2152 26.0795C84.9766 25.7159 84.8591 25.2614 84.8629 24.7159V16.1818ZM90.3615 27V18.2727H92.4183V27H90.3615ZM91.3956 17.0341C91.0698 17.0341 90.7895 16.9261 90.5547 16.7102C90.3198 16.4905 90.2024 16.2273 90.2024 15.9205C90.2024 15.6098 90.3198 15.3466 90.5547 15.1307C90.7895 14.911 91.0698 14.8011 91.3956 14.8011C91.7251 14.8011 92.0054 14.911 92.2365 15.1307C92.4714 15.3466 92.5888 15.6098 92.5888 15.9205C92.5888 16.2273 92.4714 16.4905 92.2365 16.7102C92.0054 16.9261 91.7251 17.0341 91.3956 17.0341ZM102.329 18.2727L99.2209 27H96.9482L93.8402 18.2727H96.0334L98.0391 24.7557H98.13L100.141 18.2727H102.329ZM106.013 27.1761C105.46 27.1761 104.962 27.0777 104.519 26.8807C104.08 26.6799 103.731 26.3845 103.474 25.9943C103.22 25.6042 103.093 25.1231 103.093 24.5511C103.093 24.0587 103.184 23.6515 103.366 23.3295C103.548 23.0076 103.796 22.75 104.11 22.5568C104.424 22.3636 104.779 22.2178 105.173 22.1193C105.57 22.017 105.981 21.9432 106.406 21.8977C106.917 21.8447 107.332 21.7973 107.65 21.7557C107.968 21.7102 108.199 21.642 108.343 21.5511C108.491 21.4564 108.565 21.3106 108.565 21.1136V21.0795C108.565 20.6515 108.438 20.3201 108.184 20.0852C107.93 19.8504 107.565 19.733 107.087 19.733C106.584 19.733 106.184 19.8428 105.888 20.0625C105.597 20.2822 105.4 20.5417 105.298 20.8409L103.377 20.5682C103.529 20.0379 103.779 19.5947 104.127 19.2386C104.476 18.8788 104.902 18.6098 105.406 18.4318C105.909 18.25 106.466 18.1591 107.076 18.1591C107.496 18.1591 107.915 18.2083 108.332 18.3068C108.748 18.4053 109.129 18.5682 109.474 18.7955C109.818 19.0189 110.095 19.3239 110.303 19.7102C110.515 20.0966 110.621 20.5795 110.621 21.1591V27H108.644V25.8011H108.576C108.451 26.0436 108.275 26.2708 108.048 26.483C107.824 26.6913 107.542 26.8598 107.201 26.9886C106.864 27.1136 106.468 27.1761 106.013 27.1761ZM106.548 25.6648C106.96 25.6648 107.318 25.5833 107.621 25.4205C107.924 25.2538 108.157 25.0341 108.32 24.7614C108.487 24.4886 108.57 24.1913 108.57 23.8693V22.8409C108.506 22.8939 108.396 22.9432 108.241 22.9886C108.089 23.0341 107.919 23.0739 107.729 23.108C107.54 23.142 107.353 23.1723 107.167 23.1989C106.981 23.2254 106.82 23.2481 106.684 23.267C106.377 23.3087 106.103 23.3769 105.86 23.4716C105.618 23.5663 105.426 23.6989 105.286 23.8693C105.146 24.036 105.076 24.2519 105.076 24.517C105.076 24.8958 105.214 25.1818 105.491 25.375C105.767 25.5682 106.12 25.6648 106.548 25.6648ZM117.048 18.2727V19.8636H112.031V18.2727H117.048ZM113.269 16.1818H115.326V24.375C115.326 24.6515 115.368 24.8636 115.451 25.0114C115.538 25.1553 115.652 25.2538 115.792 25.3068C115.932 25.3598 116.087 25.3864 116.258 25.3864C116.387 25.3864 116.504 25.3769 116.61 25.358C116.72 25.339 116.803 25.322 116.86 25.3068L117.207 26.9148C117.097 26.9527 116.94 26.9943 116.735 27.0398C116.534 27.0852 116.288 27.1117 115.996 27.1193C115.481 27.1345 115.017 27.0568 114.604 26.8864C114.192 26.7121 113.864 26.4432 113.621 26.0795C113.383 25.7159 113.265 25.2614 113.269 24.7159V16.1818ZM122.538 27.1705C121.663 27.1705 120.907 26.9886 120.271 26.625C119.638 26.2576 119.151 25.7386 118.81 25.0682C118.469 24.3939 118.299 23.6004 118.299 22.6875C118.299 21.7898 118.469 21.0019 118.81 20.3239C119.155 19.642 119.636 19.1117 120.254 18.733C120.871 18.3504 121.596 18.1591 122.43 18.1591C122.968 18.1591 123.475 18.2462 123.952 18.4205C124.433 18.5909 124.858 18.8561 125.225 19.2159C125.596 19.5758 125.888 20.0341 126.1 20.5909C126.312 21.1439 126.418 21.803 126.418 22.5682V23.1989H119.265V21.8125H124.447C124.443 21.4186 124.358 21.0682 124.191 20.7614C124.024 20.4508 123.791 20.2064 123.492 20.0284C123.197 19.8504 122.852 19.7614 122.458 19.7614C122.038 19.7614 121.668 19.8636 121.35 20.0682C121.032 20.2689 120.784 20.5341 120.606 20.8636C120.432 21.1894 120.343 21.5473 120.339 21.9375V23.1477C120.339 23.6553 120.432 24.0909 120.617 24.4545C120.803 24.8144 121.062 25.0909 121.396 25.2841C121.729 25.4735 122.119 25.5682 122.566 25.5682C122.865 25.5682 123.136 25.5265 123.379 25.4432C123.621 25.3561 123.831 25.2292 124.009 25.0625C124.187 24.8958 124.322 24.6894 124.413 24.4432L126.333 24.6591C126.212 25.1667 125.981 25.6098 125.64 25.9886C125.303 26.3636 124.871 26.6553 124.344 26.8636C123.818 27.0682 123.216 27.1705 122.538 27.1705ZM132.218 15.3636H134.798L138.252 23.7955H138.388L141.843 15.3636H144.423V27H142.4V19.0057H142.292L139.076 26.9659H137.565L134.349 18.9886H134.241V27H132.218V15.3636ZM149.138 27.1761C148.585 27.1761 148.087 27.0777 147.644 26.8807C147.205 26.6799 146.856 26.3845 146.599 25.9943C146.345 25.6042 146.218 25.1231 146.218 24.5511C146.218 24.0587 146.309 23.6515 146.491 23.3295C146.673 23.0076 146.921 22.75 147.235 22.5568C147.549 22.3636 147.904 22.2178 148.298 22.1193C148.695 22.017 149.106 21.9432 149.531 21.8977C150.042 21.8447 150.457 21.7973 150.775 21.7557C151.093 21.7102 151.324 21.642 151.468 21.5511C151.616 21.4564 151.69 21.3106 151.69 21.1136V21.0795C151.69 20.6515 151.563 20.3201 151.309 20.0852C151.055 19.8504 150.69 19.733 150.212 19.733C149.709 19.733 149.309 19.8428 149.013 20.0625C148.722 20.2822 148.525 20.5417 148.423 20.8409L146.502 20.5682C146.654 20.0379 146.904 19.5947 147.252 19.2386C147.601 18.8788 148.027 18.6098 148.531 18.4318C149.034 18.25 149.591 18.1591 150.201 18.1591C150.621 18.1591 151.04 18.2083 151.457 18.3068C151.873 18.4053 152.254 18.5682 152.599 18.7955C152.943 19.0189 153.22 19.3239 153.428 19.7102C153.64 20.0966 153.746 20.5795 153.746 21.1591V27H151.769V25.8011H151.701C151.576 26.0436 151.4 26.2708 151.173 26.483C150.949 26.6913 150.667 26.8598 150.326 26.9886C149.989 27.1136 149.593 27.1761 149.138 27.1761ZM149.673 25.6648C150.085 25.6648 150.443 25.5833 150.746 25.4205C151.049 25.2538 151.282 25.0341 151.445 24.7614C151.612 24.4886 151.695 24.1913 151.695 23.8693V22.8409C151.631 22.8939 151.521 22.9432 151.366 22.9886C151.214 23.0341 151.044 23.0739 150.854 23.108C150.665 23.142 150.478 23.1723 150.292 23.1989C150.106 23.2254 149.945 23.2481 149.809 23.267C149.502 23.3087 149.228 23.3769 148.985 23.4716C148.743 23.5663 148.551 23.6989 148.411 23.8693C148.271 24.036 148.201 24.2519 148.201 24.517C148.201 24.8958 148.339 25.1818 148.616 25.375C148.892 25.5682 149.245 25.6648 149.673 25.6648ZM155.815 27V18.2727H157.871V27H155.815ZM156.849 17.0341C156.523 17.0341 156.243 16.9261 156.008 16.7102C155.773 16.4905 155.656 16.2273 155.656 15.9205C155.656 15.6098 155.773 15.3466 156.008 15.1307C156.243 14.911 156.523 14.8011 156.849 14.8011C157.178 14.8011 157.459 14.911 157.69 15.1307C157.924 15.3466 158.042 15.6098 158.042 15.9205C158.042 16.2273 157.924 16.4905 157.69 16.7102C157.459 16.9261 157.178 17.0341 156.849 17.0341ZM162.043 21.8864V27H159.987V18.2727H161.952V19.7557H162.055C162.255 19.267 162.576 18.8788 163.015 18.5909C163.458 18.303 164.005 18.1591 164.657 18.1591C165.259 18.1591 165.784 18.2879 166.231 18.5455C166.682 18.803 167.03 19.1761 167.276 19.6648C167.526 20.1534 167.649 20.7462 167.646 21.4432V27H165.589V21.7614C165.589 21.178 165.437 20.7216 165.134 20.392C164.835 20.0625 164.42 19.8977 163.89 19.8977C163.53 19.8977 163.21 19.9773 162.93 20.1364C162.653 20.2917 162.435 20.517 162.276 20.8125C162.121 21.108 162.043 21.4659 162.043 21.8864ZM174.094 18.2727V19.8636H169.077V18.2727H174.094ZM170.316 16.1818H172.373V24.375C172.373 24.6515 172.415 24.8636 172.498 25.0114C172.585 25.1553 172.699 25.2538 172.839 25.3068C172.979 25.3598 173.134 25.3864 173.305 25.3864C173.433 25.3864 173.551 25.3769 173.657 25.358C173.767 25.339 173.85 25.322 173.907 25.3068L174.254 26.9148C174.144 26.9527 173.987 26.9943 173.782 27.0398C173.581 27.0852 173.335 27.1117 173.043 27.1193C172.528 27.1345 172.064 27.0568 171.651 26.8864C171.238 26.7121 170.911 26.4432 170.668 26.0795C170.43 25.7159 170.312 25.2614 170.316 24.7159V16.1818ZM179.585 27.1705C178.71 27.1705 177.954 26.9886 177.317 26.625C176.685 26.2576 176.198 25.7386 175.857 25.0682C175.516 24.3939 175.346 23.6004 175.346 22.6875C175.346 21.7898 175.516 21.0019 175.857 20.3239C176.202 19.642 176.683 19.1117 177.3 18.733C177.918 18.3504 178.643 18.1591 179.477 18.1591C180.014 18.1591 180.522 18.2462 180.999 18.4205C181.48 18.5909 181.905 18.8561 182.272 19.2159C182.643 19.5758 182.935 20.0341 183.147 20.5909C183.359 21.1439 183.465 21.803 183.465 22.5682V23.1989H176.312V21.8125H181.494C181.49 21.4186 181.405 21.0682 181.238 20.7614C181.071 20.4508 180.838 20.2064 180.539 20.0284C180.244 19.8504 179.899 19.7614 179.505 19.7614C179.085 19.7614 178.715 19.8636 178.397 20.0682C178.079 20.2689 177.831 20.5341 177.653 20.8636C177.478 21.1894 177.389 21.5473 177.386 21.9375V23.1477C177.386 23.6553 177.478 24.0909 177.664 24.4545C177.85 24.8144 178.109 25.0909 178.442 25.2841C178.776 25.4735 179.166 25.5682 179.613 25.5682C179.912 25.5682 180.183 25.5265 180.425 25.4432C180.668 25.3561 180.878 25.2292 181.056 25.0625C181.234 24.8958 181.369 24.6894 181.46 24.4432L183.38 24.6591C183.259 25.1667 183.028 25.6098 182.687 25.9886C182.35 26.3636 181.918 26.6553 181.391 26.8636C180.865 27.0682 180.263 27.1705 179.585 27.1705ZM187.262 21.8864V27H185.205V18.2727H187.171V19.7557H187.273C187.474 19.267 187.794 18.8788 188.234 18.5909C188.677 18.303 189.224 18.1591 189.876 18.1591C190.478 18.1591 191.003 18.2879 191.45 18.5455C191.9 18.803 192.249 19.1761 192.495 19.6648C192.745 20.1534 192.868 20.7462 192.864 21.4432V27H190.808V21.7614C190.808 21.178 190.656 20.7216 190.353 20.392C190.054 20.0625 189.639 19.8977 189.109 19.8977C188.749 19.8977 188.429 19.9773 188.148 20.1364C187.872 20.2917 187.654 20.517 187.495 20.8125C187.34 21.108 187.262 21.4659 187.262 21.8864ZM197.467 27.1761C196.914 27.1761 196.415 27.0777 195.972 26.8807C195.533 26.6799 195.184 26.3845 194.927 25.9943C194.673 25.6042 194.546 25.1231 194.546 24.5511C194.546 24.0587 194.637 23.6515 194.819 23.3295C195.001 23.0076 195.249 22.75 195.563 22.5568C195.878 22.3636 196.232 22.2178 196.626 22.1193C197.023 22.017 197.434 21.9432 197.859 21.8977C198.37 21.8447 198.785 21.7973 199.103 21.7557C199.421 21.7102 199.652 21.642 199.796 21.5511C199.944 21.4564 200.018 21.3106 200.018 21.1136V21.0795C200.018 20.6515 199.891 20.3201 199.637 20.0852C199.383 19.8504 199.018 19.733 198.54 19.733C198.037 19.733 197.637 19.8428 197.342 20.0625C197.05 20.2822 196.853 20.5417 196.751 20.8409L194.83 20.5682C194.982 20.0379 195.232 19.5947 195.58 19.2386C195.929 18.8788 196.355 18.6098 196.859 18.4318C197.362 18.25 197.919 18.1591 198.529 18.1591C198.95 18.1591 199.368 18.2083 199.785 18.3068C200.201 18.4053 200.582 18.5682 200.927 18.7955C201.272 19.0189 201.548 19.3239 201.756 19.7102C201.969 20.0966 202.075 20.5795 202.075 21.1591V27H200.097V25.8011H200.029C199.904 26.0436 199.728 26.2708 199.501 26.483C199.277 26.6913 198.995 26.8598 198.654 26.9886C198.317 27.1136 197.921 27.1761 197.467 27.1761ZM198.001 25.6648C198.414 25.6648 198.772 25.5833 199.075 25.4205C199.378 25.2538 199.611 25.0341 199.773 24.7614C199.94 24.4886 200.023 24.1913 200.023 23.8693V22.8409C199.959 22.8939 199.849 22.9432 199.694 22.9886C199.542 23.0341 199.372 23.0739 199.183 23.108C198.993 23.142 198.806 23.1723 198.62 23.1989C198.434 23.2254 198.273 23.2481 198.137 23.267C197.83 23.3087 197.556 23.3769 197.313 23.4716C197.071 23.5663 196.879 23.6989 196.739 23.8693C196.599 24.036 196.529 24.2519 196.529 24.517C196.529 24.8958 196.667 25.1818 196.944 25.375C197.22 25.5682 197.573 25.6648 198.001 25.6648ZM206.2 21.8864V27H204.143V18.2727H206.109V19.7557H206.211C206.412 19.267 206.732 18.8788 207.171 18.5909C207.614 18.303 208.162 18.1591 208.813 18.1591C209.415 18.1591 209.94 18.2879 210.387 18.5455C210.838 18.803 211.186 19.1761 211.433 19.6648C211.683 20.1534 211.806 20.7462 211.802 21.4432V27H209.745V21.7614C209.745 21.178 209.594 20.7216 209.29 20.392C208.991 20.0625 208.576 19.8977 208.046 19.8977C207.686 19.8977 207.366 19.9773 207.086 20.1364C206.809 20.2917 206.592 20.517 206.433 20.8125C206.277 21.108 206.2 21.4659 206.2 21.8864ZM217.7 27.1705C216.828 27.1705 216.08 26.9792 215.455 26.5966C214.834 26.214 214.355 25.6856 214.018 25.0114C213.684 24.3333 213.518 23.553 213.518 22.6705C213.518 21.7841 213.688 21.0019 214.029 20.3239C214.37 19.642 214.851 19.1117 215.472 18.733C216.097 18.3504 216.836 18.1591 217.688 18.1591C218.397 18.1591 219.023 18.2898 219.569 18.5511C220.118 18.8087 220.556 19.1742 220.881 19.6477C221.207 20.1174 221.393 20.6667 221.438 21.2955H219.472C219.393 20.875 219.203 20.5246 218.904 20.2443C218.609 19.9602 218.213 19.8182 217.717 19.8182C217.296 19.8182 216.927 19.9318 216.609 20.1591C216.29 20.3826 216.042 20.7045 215.864 21.125C215.69 21.5455 215.603 22.0492 215.603 22.6364C215.603 23.2311 215.69 23.7424 215.864 24.1705C216.039 24.5947 216.283 24.9223 216.597 25.1534C216.915 25.3807 217.289 25.4943 217.717 25.4943C218.02 25.4943 218.29 25.4375 218.529 25.3239C218.772 25.2064 218.974 25.0379 219.137 24.8182C219.3 24.5985 219.412 24.3314 219.472 24.017H221.438C221.389 24.6345 221.207 25.1818 220.893 25.6591C220.578 26.1326 220.15 26.5038 219.609 26.7727C219.067 27.0379 218.431 27.1705 217.7 27.1705ZM226.991 27.1705C226.116 27.1705 225.36 26.9886 224.724 26.625C224.091 26.2576 223.604 25.7386 223.263 25.0682C222.923 24.3939 222.752 23.6004 222.752 22.6875C222.752 21.7898 222.923 21.0019 223.263 20.3239C223.608 19.642 224.089 19.1117 224.707 18.733C225.324 18.3504 226.049 18.1591 226.883 18.1591C227.421 18.1591 227.928 18.2462 228.406 18.4205C228.887 18.5909 229.311 18.8561 229.678 19.2159C230.049 19.5758 230.341 20.0341 230.553 20.5909C230.765 21.1439 230.871 21.803 230.871 22.5682V23.1989H223.718V21.8125H228.9C228.896 21.4186 228.811 21.0682 228.644 20.7614C228.478 20.4508 228.245 20.2064 227.945 20.0284C227.65 19.8504 227.305 19.7614 226.911 19.7614C226.491 19.7614 226.121 19.8636 225.803 20.0682C225.485 20.2689 225.237 20.5341 225.059 20.8636C224.885 21.1894 224.796 21.5473 224.792 21.9375V23.1477C224.792 23.6553 224.885 24.0909 225.07 24.4545C225.256 24.8144 225.515 25.0909 225.849 25.2841C226.182 25.4735 226.572 25.5682 227.019 25.5682C227.318 25.5682 227.589 25.5265 227.832 25.4432C228.074 25.3561 228.284 25.2292 228.462 25.0625C228.64 24.8958 228.775 24.6894 228.866 24.4432L230.786 24.6591C230.665 25.1667 230.434 25.6098 230.093 25.9886C229.756 26.3636 229.324 26.6553 228.798 26.8636C228.271 27.0682 227.669 27.1705 226.991 27.1705ZM236.671 15.3636H239.251L242.705 23.7955H242.842L246.296 15.3636H248.876V27H246.853V19.0057H246.745L243.529 26.9659H242.018L238.802 18.9886H238.694V27H236.671V15.3636ZM254.887 27.1705C254.035 27.1705 253.296 26.983 252.671 26.608C252.046 26.233 251.561 25.7083 251.217 25.0341C250.876 24.3598 250.705 23.572 250.705 22.6705C250.705 21.7689 250.876 20.9792 251.217 20.3011C251.561 19.6231 252.046 19.0966 252.671 18.7216C253.296 18.3466 254.035 18.1591 254.887 18.1591C255.739 18.1591 256.478 18.3466 257.103 18.7216C257.728 19.0966 258.211 19.6231 258.552 20.3011C258.897 20.9792 259.069 21.7689 259.069 22.6705C259.069 23.572 258.897 24.3598 258.552 25.0341C258.211 25.7083 257.728 26.233 257.103 26.608C256.478 26.983 255.739 27.1705 254.887 27.1705ZM254.898 25.5227C255.361 25.5227 255.747 25.3958 256.058 25.142C256.368 24.8845 256.599 24.5398 256.751 24.108C256.906 23.6761 256.984 23.1951 256.984 22.6648C256.984 22.1307 256.906 21.6477 256.751 21.2159C256.599 20.7803 256.368 20.4337 256.058 20.1761C255.747 19.9186 255.361 19.7898 254.898 19.7898C254.425 19.7898 254.031 19.9186 253.717 20.1761C253.406 20.4337 253.173 20.7803 253.018 21.2159C252.866 21.6477 252.79 22.1307 252.79 22.6648C252.79 23.1951 252.866 23.6761 253.018 24.108C253.173 24.5398 253.406 24.8845 253.717 25.142C254.031 25.3958 254.425 25.5227 254.898 25.5227ZM264.053 27.1534C263.368 27.1534 262.754 26.9773 262.212 26.625C261.671 26.2727 261.243 25.7614 260.928 25.0909C260.614 24.4205 260.457 23.6061 260.457 22.6477C260.457 21.678 260.616 20.8598 260.934 20.1932C261.256 19.5227 261.69 19.017 262.235 18.6761C262.781 18.3314 263.388 18.1591 264.059 18.1591C264.57 18.1591 264.991 18.2462 265.32 18.4205C265.65 18.5909 265.911 18.7973 266.104 19.0398C266.298 19.2784 266.447 19.5038 266.553 19.7159H266.638V15.3636H268.701V27H266.678V25.625H266.553C266.447 25.8371 266.294 26.0625 266.093 26.3011C265.892 26.536 265.627 26.7367 265.298 26.9034C264.968 27.0701 264.553 27.1534 264.053 27.1534ZM264.627 25.4659C265.063 25.4659 265.434 25.3485 265.741 25.1136C266.048 24.875 266.281 24.5436 266.44 24.1193C266.599 23.6951 266.678 23.2008 266.678 22.6364C266.678 22.072 266.599 21.5814 266.44 21.1648C266.284 20.7481 266.053 20.4242 265.746 20.1932C265.443 19.9621 265.07 19.8466 264.627 19.8466C264.169 19.8466 263.786 19.9659 263.479 20.2045C263.173 20.4432 262.942 20.7727 262.786 21.1932C262.631 21.6136 262.553 22.0947 262.553 22.6364C262.553 23.1818 262.631 23.6686 262.786 24.0966C262.945 24.5208 263.178 24.8561 263.485 25.1023C263.796 25.3447 264.176 25.4659 264.627 25.4659ZM274.756 27.1705C273.881 27.1705 273.126 26.9886 272.489 26.625C271.857 26.2576 271.37 25.7386 271.029 25.0682C270.688 24.3939 270.518 23.6004 270.518 22.6875C270.518 21.7898 270.688 21.0019 271.029 20.3239C271.374 19.642 271.855 19.1117 272.472 18.733C273.09 18.3504 273.815 18.1591 274.648 18.1591C275.186 18.1591 275.694 18.2462 276.171 18.4205C276.652 18.5909 277.076 18.8561 277.444 19.2159C277.815 19.5758 278.107 20.0341 278.319 20.5909C278.531 21.1439 278.637 21.803 278.637 22.5682V23.1989H271.484V21.8125H276.665C276.662 21.4186 276.576 21.0682 276.41 20.7614C276.243 20.4508 276.01 20.2064 275.711 20.0284C275.415 19.8504 275.071 19.7614 274.677 19.7614C274.256 19.7614 273.887 19.8636 273.569 20.0682C273.251 20.2689 273.003 20.5341 272.825 20.8636C272.65 21.1894 272.561 21.5473 272.558 21.9375V23.1477C272.558 23.6553 272.65 24.0909 272.836 24.4545C273.022 24.8144 273.281 25.0909 273.614 25.2841C273.948 25.4735 274.338 25.5682 274.785 25.5682C275.084 25.5682 275.355 25.5265 275.597 25.4432C275.84 25.3561 276.05 25.2292 276.228 25.0625C276.406 24.8958 276.54 24.6894 276.631 24.4432L278.552 24.6591C278.431 25.1667 278.2 25.6098 277.859 25.9886C277.522 26.3636 277.09 26.6553 276.563 26.8636C276.037 27.0682 275.434 27.1705 274.756 27.1705Z" fill="white"/>
<path d="M41.3909 14V24M47.7909 18.6C49.0476 19.8571 49.9038 21.4582 50.2517 23.2013C50.5996 24.9444 50.4236 26.7515 49.7458 28.3947C49.068 30.0379 47.9188 31.4436 46.4431 32.4345C44.9675 33.4254 43.2315 33.9572 41.454 33.9627C39.6765 33.9683 37.9372 33.4474 36.4553 32.4658C34.9735 31.4841 33.8155 30.0856 33.1275 28.4467C32.4394 26.8078 32.252 25.0019 32.589 23.2566C32.926 21.5114 33.7722 19.905 35.0209 18.64" stroke="white" stroke-width="2" stroke-linecap="round" stroke-linejoin="round"/>
</svg>
