<svg width="161" height="40" viewBox="0 0 161 40" fill="none" xmlns="http://www.w3.org/2000/svg">
<path d="M152.141 0C156.559 0 160.141 3.58172 160.141 8V32C160.141 36.4183 156.559 40 152.141 40H8C3.58172 40 0 36.4183 0 32V8C0 3.58172 3.58172 0 8 0H152.141Z" fill="#D97706"/>
<path d="M152.141 0C156.559 0 160.141 3.58172 160.141 8V32C160.141 36.4183 156.559 40 152.141 40H8C3.58172 40 0 36.4183 0 32V8C0 3.58172 3.58172 0 8 0H152.141Z" stroke="#E5E7EB"/>
<path d="M54.8317 19.1818C54.8317 20.4242 54.6044 21.4924 54.1499 22.3864C53.6953 23.2765 53.0722 23.9621 52.2805 24.4432C51.4927 24.9205 50.5968 25.1591 49.593 25.1591C48.5855 25.1591 47.6858 24.9205 46.8942 24.4432C46.1063 23.9621 45.4851 23.2746 45.0305 22.3807C44.576 21.4867 44.3487 20.4205 44.3487 19.1818C44.3487 17.9394 44.576 16.8731 45.0305 15.983C45.4851 15.089 46.1063 14.4034 46.8942 13.9261C47.6858 13.4451 48.5855 13.2045 49.593 13.2045C50.5968 13.2045 51.4927 13.4451 52.2805 13.9261C53.0722 14.4034 53.6953 15.089 54.1499 15.983C54.6044 16.8731 54.8317 17.9394 54.8317 19.1818ZM53.093 19.1818C53.093 18.2348 52.9396 17.4375 52.6328 16.7898C52.3298 16.1383 51.9131 15.6458 51.3828 15.3125C50.8563 14.9754 50.2597 14.8068 49.593 14.8068C48.9226 14.8068 48.3241 14.9754 47.7976 15.3125C47.2711 15.6458 46.8544 16.1383 46.5476 16.7898C46.2446 17.4375 46.093 18.2348 46.093 19.1818C46.093 20.1288 46.2446 20.928 46.5476 21.5795C46.8544 22.2273 47.2711 22.7197 47.7976 23.0568C48.3241 23.3902 48.9226 23.5568 49.593 23.5568C50.2597 23.5568 50.8563 23.3902 51.3828 23.0568C51.9131 22.7197 52.3298 22.2273 52.6328 21.5795C52.9396 20.928 53.093 20.1288 53.093 19.1818ZM64.3501 16.2727L61.1854 25H59.3672L56.1967 16.2727H58.0206L60.2308 22.9886H60.3217L62.5263 16.2727H64.3501ZM69.4112 25.1761C68.5514 25.1761 67.8108 24.9924 67.1896 24.625C66.5722 24.2538 66.0949 23.733 65.7578 23.0625C65.4245 22.3883 65.2578 21.5985 65.2578 20.6932C65.2578 19.7992 65.4245 19.0114 65.7578 18.3295C66.0949 17.6477 66.5646 17.1155 67.1669 16.733C67.773 16.3504 68.4813 16.1591 69.2919 16.1591C69.7843 16.1591 70.2616 16.2405 70.7237 16.4034C71.1858 16.5663 71.6006 16.822 71.968 17.1705C72.3355 17.5189 72.6252 17.9716 72.8374 18.5284C73.0495 19.0814 73.1555 19.7538 73.1555 20.5455V21.1477H66.218V19.875H71.4908C71.4908 19.428 71.3999 19.0322 71.218 18.6875C71.0362 18.339 70.7805 18.0644 70.451 17.8636C70.1252 17.6629 69.7427 17.5625 69.3033 17.5625C68.826 17.5625 68.4093 17.6799 68.0533 17.9148C67.701 18.1458 67.4283 18.4489 67.2351 18.8239C67.0457 19.1951 66.951 19.5985 66.951 20.0341V21.0284C66.951 21.6117 67.0533 22.108 67.2578 22.517C67.4661 22.9261 67.7559 23.2386 68.1271 23.4545C68.4983 23.6667 68.9321 23.7727 69.4283 23.7727C69.7502 23.7727 70.0438 23.7273 70.3089 23.6364C70.5741 23.5417 70.8033 23.4015 70.9964 23.2159C71.1896 23.0303 71.3374 22.8011 71.4396 22.5284L73.0476 22.8182C72.9188 23.2917 72.6877 23.7064 72.3544 24.0625C72.0249 24.4148 71.6101 24.6894 71.1101 24.8864C70.6139 25.0795 70.0476 25.1761 69.4112 25.1761ZM75.0405 25V16.2727H76.6825V17.6591H76.7734C76.9325 17.1894 77.2128 16.8201 77.6143 16.5511C78.0196 16.2784 78.478 16.142 78.9893 16.142C79.0954 16.142 79.2204 16.1458 79.3643 16.1534C79.5121 16.161 79.6276 16.1705 79.7109 16.1818V17.8068C79.6428 17.7879 79.5215 17.767 79.3473 17.7443C79.1731 17.7178 78.9988 17.7045 78.8246 17.7045C78.4231 17.7045 78.0651 17.7898 77.7507 17.9602C77.4401 18.1269 77.1939 18.3598 77.0121 18.6591C76.8303 18.9545 76.7393 19.2917 76.7393 19.6705V25H75.0405ZM81.1811 25V16.2727H82.8232V17.6591H82.9141C83.0732 17.1894 83.3535 16.8201 83.755 16.5511C84.1603 16.2784 84.6186 16.142 85.13 16.142C85.236 16.142 85.361 16.1458 85.505 16.1534C85.6527 16.161 85.7682 16.1705 85.8516 16.1818V17.8068C85.7834 17.7879 85.6622 17.767 85.4879 17.7443C85.3137 17.7178 85.1394 17.7045 84.9652 17.7045C84.5637 17.7045 84.2057 17.7898 83.8913 17.9602C83.5807 18.1269 83.3345 18.3598 83.1527 18.6591C82.9709 18.9545 82.88 19.2917 82.88 19.6705V25H81.1811ZM87.3217 25V16.2727H89.0206V25H87.3217ZM88.1797 14.9261C87.8842 14.9261 87.6304 14.8277 87.4183 14.6307C87.21 14.4299 87.1058 14.1913 87.1058 13.9148C87.1058 13.6345 87.21 13.3958 87.4183 13.1989C87.6304 12.9981 87.8842 12.8977 88.1797 12.8977C88.4751 12.8977 88.727 12.9981 88.9354 13.1989C89.1475 13.3958 89.2536 13.6345 89.2536 13.9148C89.2536 14.1913 89.1475 14.4299 88.9354 14.6307C88.727 14.8277 88.4751 14.9261 88.1797 14.9261ZM94.5732 25.1705C93.8686 25.1705 93.2398 24.9905 92.6868 24.6307C92.1375 24.267 91.7057 23.75 91.3913 23.0795C91.0807 22.4053 90.9254 21.5966 90.9254 20.6534C90.9254 19.7102 91.0826 18.9034 91.397 18.233C91.7152 17.5625 92.1508 17.0492 92.7038 16.6932C93.2569 16.3371 93.8838 16.1591 94.5845 16.1591C95.1262 16.1591 95.5618 16.25 95.8913 16.4318C96.2247 16.6098 96.4822 16.8182 96.6641 17.0568C96.8497 17.2955 96.9936 17.5057 97.0959 17.6875H97.1982V13.3636H98.897V25H97.2379V23.642H97.0959C96.9936 23.8277 96.8459 24.0398 96.6527 24.2784C96.4633 24.517 96.2019 24.7254 95.8686 24.9034C95.5353 25.0814 95.1035 25.1705 94.5732 25.1705ZM94.9482 23.7216C95.4368 23.7216 95.8497 23.5928 96.1868 23.3352C96.5277 23.0739 96.7853 22.7121 96.9595 22.25C97.1375 21.7879 97.2266 21.25 97.2266 20.6364C97.2266 20.0303 97.1394 19.5 96.9652 19.0455C96.791 18.5909 96.5353 18.2367 96.1982 17.983C95.861 17.7292 95.4444 17.6023 94.9482 17.6023C94.4368 17.6023 94.0107 17.7348 93.6697 18C93.3288 18.2652 93.0713 18.6269 92.897 19.0852C92.7266 19.5436 92.6413 20.0606 92.6413 20.6364C92.6413 21.2197 92.7285 21.7443 92.9027 22.2102C93.0769 22.6761 93.3345 23.0455 93.6754 23.3182C94.0201 23.5871 94.4444 23.7216 94.9482 23.7216ZM105.083 25.1761C104.223 25.1761 103.483 24.9924 102.862 24.625C102.244 24.2538 101.767 23.733 101.43 23.0625C101.096 22.3883 100.93 21.5985 100.93 20.6932C100.93 19.7992 101.096 19.0114 101.43 18.3295C101.767 17.6477 102.237 17.1155 102.839 16.733C103.445 16.3504 104.153 16.1591 104.964 16.1591C105.456 16.1591 105.933 16.2405 106.396 16.4034C106.858 16.5663 107.272 16.822 107.64 17.1705C108.007 17.5189 108.297 17.9716 108.509 18.5284C108.721 19.0814 108.827 19.7538 108.827 20.5455V21.1477H101.89V19.875H107.163C107.163 19.428 107.072 19.0322 106.89 18.6875C106.708 18.339 106.452 18.0644 106.123 17.8636C105.797 17.6629 105.415 17.5625 104.975 17.5625C104.498 17.5625 104.081 17.6799 103.725 17.9148C103.373 18.1458 103.1 18.4489 102.907 18.8239C102.718 19.1951 102.623 19.5985 102.623 20.0341V21.0284C102.623 21.6117 102.725 22.108 102.93 22.517C103.138 22.9261 103.428 23.2386 103.799 23.4545C104.17 23.6667 104.604 23.7727 105.1 23.7727C105.422 23.7727 105.716 23.7273 105.981 23.6364C106.246 23.5417 106.475 23.4015 106.668 23.2159C106.862 23.0303 107.009 22.8011 107.112 22.5284L108.719 22.8182C108.591 23.2917 108.36 23.7064 108.026 24.0625C107.697 24.4148 107.282 24.6894 106.782 24.8864C106.286 25.0795 105.719 25.1761 105.083 25.1761ZM115.083 25V13.3636H116.839V18.9205H116.981L121.862 13.3636H124.072L119.379 18.6023L124.089 25H121.975L118.214 19.8011L116.839 21.3807V25H115.083ZM124.81 13.3636H126.805L129.844 18.6534H129.969L133.009 13.3636H135.004L130.782 20.4318V25H129.032V20.4318L124.81 13.3636ZM145.732 17.1477H143.96C143.891 16.7689 143.764 16.4356 143.579 16.1477C143.393 15.8598 143.166 15.6155 142.897 15.4148C142.628 15.214 142.327 15.0625 141.994 14.9602C141.664 14.858 141.314 14.8068 140.942 14.8068C140.272 14.8068 139.672 14.9754 139.141 15.3125C138.615 15.6496 138.198 16.1439 137.891 16.7955C137.588 17.447 137.437 18.2424 137.437 19.1818C137.437 20.1288 137.588 20.928 137.891 21.5795C138.198 22.2311 138.617 22.7235 139.147 23.0568C139.677 23.3902 140.274 23.5568 140.937 23.5568C141.304 23.5568 141.653 23.5076 141.982 23.4091C142.316 23.3068 142.617 23.1572 142.886 22.9602C143.155 22.7633 143.382 22.5227 143.567 22.2386C143.757 21.9508 143.888 21.6212 143.96 21.25L145.732 21.2557C145.638 21.8277 145.454 22.3542 145.181 22.8352C144.912 23.3125 144.566 23.7254 144.141 24.0739C143.721 24.4186 143.24 24.6856 142.698 24.875C142.156 25.0644 141.566 25.1591 140.925 25.1591C139.918 25.1591 139.02 24.9205 138.232 24.4432C137.444 23.9621 136.823 23.2746 136.369 22.3807C135.918 21.4867 135.692 20.4205 135.692 19.1818C135.692 17.9394 135.92 16.8731 136.374 15.983C136.829 15.089 137.45 14.4034 138.238 13.9261C139.026 13.4451 139.922 13.2045 140.925 13.2045C141.543 13.2045 142.119 13.2936 142.653 13.4716C143.191 13.6458 143.674 13.9034 144.102 14.2443C144.53 14.5814 144.884 14.9943 145.164 15.483C145.444 15.9678 145.634 16.5227 145.732 17.1477Z" fill="white"/>
<path d="M30.1406 22C30.1406 27 26.6406 29.5 22.4806 30.95C22.2628 31.0238 22.0262 31.0203 21.8106 30.94C17.6406 29.5 14.1406 27 14.1406 22V15C14.1406 14.7348 14.246 14.4805 14.4335 14.2929C14.6211 14.1054 14.8754 14 15.1406 14C17.1406 14 19.6406 12.8 21.3806 11.28C21.5925 11.099 21.862 10.9996 22.1406 10.9996C22.4193 10.9996 22.6888 11.099 22.9006 11.28C24.6506 12.81 27.1406 14 29.1406 14C29.4058 14 29.6602 14.1054 29.8477 14.2929C30.0353 14.4805 30.1406 14.7348 30.1406 15V22Z" stroke="white" stroke-width="2" stroke-linecap="round" stroke-linejoin="round"/>
</svg>
