<svg width="186" height="43" viewBox="0 0 186 43" fill="none" xmlns="http://www.w3.org/2000/svg">
<path d="M178 0C182.418 0 186 3.58172 186 8V35C186 39.4183 182.418 43 178 43H8C3.58172 43 0 39.4183 0 35V8C5.15405e-07 3.58172 3.58172 0 8 0H178Z" fill="#059669"/>
<path d="M178 0C182.418 0 186 3.58172 186 8V35C186 39.4183 182.418 43 178 43H8C3.58172 43 0 39.4183 0 35V8C5.15405e-07 3.58172 3.58172 0 8 0H178Z" stroke="#E5E7EB"/>
<path d="M24.7003 19.0398C24.5904 18.6951 24.4427 18.3864 24.2571 18.1136C24.0753 17.8371 23.8575 17.6023 23.6037 17.4091C23.3499 17.2121 23.0601 17.0625 22.7344 16.9602C22.4124 16.858 22.0582 16.8068 21.6719 16.8068C21.0166 16.8068 20.4257 16.9754 19.8991 17.3125C19.3726 17.6496 18.956 18.1439 18.6491 18.7955C18.3461 19.4432 18.1946 20.2367 18.1946 21.1761C18.1946 22.1193 18.348 22.9167 18.6548 23.5682C18.9616 24.2197 19.3821 24.714 19.9162 25.0511C20.4503 25.3883 21.0582 25.5568 21.7401 25.5568C22.3726 25.5568 22.9238 25.428 23.3935 25.1705C23.867 24.9129 24.2325 24.5492 24.4901 24.0795C24.7514 23.6061 24.8821 23.0492 24.8821 22.4091L25.3366 22.4943H22.0071V21.0455H26.581V22.3693C26.581 23.3466 26.3726 24.1951 25.956 24.9148C25.5431 25.6307 24.9711 26.1837 24.2401 26.5739C23.5128 26.964 22.6795 27.1591 21.7401 27.1591C20.687 27.1591 19.7628 26.9167 18.9673 26.4318C18.1757 25.947 17.5582 25.2595 17.1151 24.3693C16.6719 23.4754 16.4503 22.4148 16.4503 21.1875C16.4503 20.2595 16.5791 19.4261 16.8366 18.6875C17.0942 17.9489 17.456 17.322 17.9219 16.8068C18.3916 16.2879 18.9427 15.892 19.5753 15.6193C20.2116 15.3428 20.9067 15.2045 21.6605 15.2045C22.2893 15.2045 22.8745 15.2973 23.4162 15.483C23.9616 15.6686 24.4465 15.9318 24.8707 16.2727C25.2988 16.6136 25.6529 17.0189 25.9332 17.4886C26.2135 17.9545 26.4029 18.4716 26.5014 19.0398H24.7003ZM32.3494 27.1761C31.5313 27.1761 30.8172 26.9886 30.2074 26.6136C29.5975 26.2386 29.1241 25.714 28.7869 25.0398C28.4498 24.3655 28.2812 23.5777 28.2812 22.6761C28.2812 21.7708 28.4498 20.9792 28.7869 20.3011C29.1241 19.6231 29.5975 19.0966 30.2074 18.7216C30.8172 18.3466 31.5313 18.1591 32.3494 18.1591C33.1676 18.1591 33.8816 18.3466 34.4915 18.7216C35.1013 19.0966 35.5748 19.6231 35.9119 20.3011C36.2491 20.9792 36.4176 21.7708 36.4176 22.6761C36.4176 23.5777 36.2491 24.3655 35.9119 25.0398C35.5748 25.714 35.1013 26.2386 34.4915 26.6136C33.8816 26.9886 33.1676 27.1761 32.3494 27.1761ZM32.3551 25.75C32.8854 25.75 33.3248 25.6098 33.6733 25.3295C34.0218 25.0492 34.2794 24.6761 34.446 24.2102C34.6165 23.7443 34.7017 23.2311 34.7017 22.6705C34.7017 22.1136 34.6165 21.6023 34.446 21.1364C34.2794 20.6667 34.0218 20.2898 33.6733 20.0057C33.3248 19.7216 32.8854 19.5795 32.3551 19.5795C31.821 19.5795 31.3778 19.7216 31.0256 20.0057C30.6771 20.2898 30.4176 20.6667 30.2472 21.1364C30.0805 21.6023 29.9972 22.1136 29.9972 22.6705C29.9972 23.2311 30.0805 23.7443 30.2472 24.2102C30.4176 24.6761 30.6771 25.0492 31.0256 25.3295C31.3778 25.6098 31.821 25.75 32.3551 25.75ZM46.6222 18.2727V19.6364H41.8551V18.2727H46.6222ZM43.1335 16.1818H44.8324V24.4375C44.8324 24.767 44.8816 25.0152 44.9801 25.1818C45.0786 25.3447 45.2055 25.4564 45.3608 25.517C45.5199 25.5739 45.6922 25.6023 45.8778 25.6023C46.0142 25.6023 46.1335 25.5928 46.2358 25.5739C46.3381 25.5549 46.4176 25.5398 46.4744 25.5284L46.7812 26.9318C46.6828 26.9697 46.5426 27.0076 46.3608 27.0455C46.179 27.0871 45.9517 27.1098 45.679 27.1136C45.232 27.1212 44.8153 27.0417 44.429 26.875C44.0426 26.7083 43.7301 26.4508 43.4915 26.1023C43.2528 25.7538 43.1335 25.3163 43.1335 24.7898V16.1818ZM52.0838 27.1761C51.2656 27.1761 50.5516 26.9886 49.9418 26.6136C49.3319 26.2386 48.8584 25.714 48.5213 25.0398C48.1842 24.3655 48.0156 23.5777 48.0156 22.6761C48.0156 21.7708 48.1842 20.9792 48.5213 20.3011C48.8584 19.6231 49.3319 19.0966 49.9418 18.7216C50.5516 18.3466 51.2656 18.1591 52.0838 18.1591C52.902 18.1591 53.616 18.3466 54.2259 18.7216C54.8357 19.0966 55.3092 19.6231 55.6463 20.3011C55.9834 20.9792 56.152 21.7708 56.152 22.6761C56.152 23.5777 55.9834 24.3655 55.6463 25.0398C55.3092 25.714 54.8357 26.2386 54.2259 26.6136C53.616 26.9886 52.902 27.1761 52.0838 27.1761ZM52.0895 25.75C52.6198 25.75 53.0592 25.6098 53.4077 25.3295C53.7562 25.0492 54.0137 24.6761 54.1804 24.2102C54.3509 23.7443 54.4361 23.2311 54.4361 22.6705C54.4361 22.1136 54.3509 21.6023 54.1804 21.1364C54.0137 20.6667 53.7562 20.2898 53.4077 20.0057C53.0592 19.7216 52.6198 19.5795 52.0895 19.5795C51.5554 19.5795 51.1122 19.7216 50.7599 20.0057C50.4115 20.2898 50.152 20.6667 49.9815 21.1364C49.8149 21.6023 49.7315 22.1136 49.7315 22.6705C49.7315 23.2311 49.8149 23.7443 49.9815 24.2102C50.152 24.6761 50.4115 25.0492 50.7599 25.3295C51.1122 25.6098 51.5554 25.75 52.0895 25.75ZM62.419 27V15.3636H66.5668C67.4683 15.3636 68.2164 15.5189 68.8111 15.8295C69.4096 16.1402 69.8565 16.5701 70.152 17.1193C70.4474 17.6648 70.5952 18.2955 70.5952 19.0114C70.5952 19.7235 70.4455 20.3504 70.1463 20.892C69.8509 21.4299 69.4039 21.8485 68.8054 22.1477C68.2107 22.447 67.4626 22.5966 66.5611 22.5966H63.419V21.0852H66.402C66.9702 21.0852 67.4323 21.0038 67.7884 20.8409C68.1482 20.678 68.4115 20.4413 68.5781 20.1307C68.7448 19.8201 68.8281 19.447 68.8281 19.0114C68.8281 18.572 68.7429 18.1913 68.5724 17.8693C68.4058 17.5473 68.1425 17.3011 67.7827 17.1307C67.4266 16.9564 66.9588 16.8693 66.3793 16.8693H64.1747V27H62.419ZM68.1634 21.75L71.0384 27H69.0384L66.2202 21.75H68.1634ZM76.2472 27.1761C75.3873 27.1761 74.6468 26.9924 74.0256 26.625C73.4081 26.2538 72.9309 25.733 72.5938 25.0625C72.2604 24.3883 72.0938 23.5985 72.0938 22.6932C72.0938 21.7992 72.2604 21.0114 72.5938 20.3295C72.9309 19.6477 73.4006 19.1155 74.0028 18.733C74.6089 18.3504 75.3172 18.1591 76.1278 18.1591C76.6203 18.1591 77.0975 18.2405 77.5597 18.4034C78.0218 18.5663 78.4366 18.822 78.804 19.1705C79.1714 19.5189 79.4612 19.9716 79.6733 20.5284C79.8854 21.0814 79.9915 21.7538 79.9915 22.5455V23.1477H73.054V21.875H78.3267C78.3267 21.428 78.2358 21.0322 78.054 20.6875C77.8722 20.339 77.6165 20.0644 77.2869 19.8636C76.9612 19.6629 76.5786 19.5625 76.1392 19.5625C75.6619 19.5625 75.2453 19.6799 74.8892 19.9148C74.5369 20.1458 74.2642 20.4489 74.071 20.8239C73.8816 21.1951 73.7869 21.5985 73.7869 22.0341V23.0284C73.7869 23.6117 73.8892 24.108 74.0938 24.517C74.3021 24.9261 74.5919 25.2386 74.9631 25.4545C75.3343 25.6667 75.768 25.7727 76.2642 25.7727C76.5862 25.7727 76.8797 25.7273 77.1449 25.6364C77.41 25.5417 77.6392 25.4015 77.8324 25.2159C78.0256 25.0303 78.1733 24.8011 78.2756 24.5284L79.8835 24.8182C79.7547 25.2917 79.5237 25.7064 79.1903 26.0625C78.8608 26.4148 78.446 26.6894 77.946 26.8864C77.4498 27.0795 76.8835 27.1761 76.2472 27.1761ZM89.0923 18.2727L85.9276 27H84.1094L80.9389 18.2727H82.7628L84.973 24.9886H85.0639L87.2685 18.2727H89.0923ZM90.6889 27V18.2727H92.3878V27H90.6889ZM91.5469 16.9261C91.2514 16.9261 90.9976 16.8277 90.7855 16.6307C90.5772 16.4299 90.473 16.1913 90.473 15.9148C90.473 15.6345 90.5772 15.3958 90.7855 15.1989C90.9976 14.9981 91.2514 14.8977 91.5469 14.8977C91.8423 14.8977 92.0942 14.9981 92.3026 15.1989C92.5147 15.3958 92.6207 15.6345 92.6207 15.9148C92.6207 16.1913 92.5147 16.4299 92.3026 16.6307C92.0942 16.8277 91.8423 16.9261 91.5469 16.9261ZM98.4347 27.1761C97.5748 27.1761 96.8343 26.9924 96.2131 26.625C95.5956 26.2538 95.1184 25.733 94.7812 25.0625C94.4479 24.3883 94.2812 23.5985 94.2812 22.6932C94.2812 21.7992 94.4479 21.0114 94.7812 20.3295C95.1184 19.6477 95.5881 19.1155 96.1903 18.733C96.7964 18.3504 97.5047 18.1591 98.3153 18.1591C98.8078 18.1591 99.285 18.2405 99.7472 18.4034C100.209 18.5663 100.624 18.822 100.991 19.1705C101.359 19.5189 101.649 19.9716 101.861 20.5284C102.073 21.0814 102.179 21.7538 102.179 22.5455V23.1477H95.2415V21.875H100.514C100.514 21.428 100.423 21.0322 100.241 20.6875C100.06 20.339 99.804 20.0644 99.4744 19.8636C99.1487 19.6629 98.7661 19.5625 98.3267 19.5625C97.8494 19.5625 97.4328 19.6799 97.0767 19.9148C96.7244 20.1458 96.4517 20.4489 96.2585 20.8239C96.0691 21.1951 95.9744 21.5985 95.9744 22.0341V23.0284C95.9744 23.6117 96.0767 24.108 96.2812 24.517C96.4896 24.9261 96.7794 25.2386 97.1506 25.4545C97.5218 25.6667 97.9555 25.7727 98.4517 25.7727C98.7737 25.7727 99.0672 25.7273 99.3324 25.6364C99.5975 25.5417 99.8267 25.4015 100.02 25.2159C100.213 25.0303 100.361 24.8011 100.463 24.5284L102.071 24.8182C101.942 25.2917 101.711 25.7064 101.378 26.0625C101.048 26.4148 100.634 26.6894 100.134 26.8864C99.6373 27.0795 99.071 27.1761 98.4347 27.1761ZM105.94 27L103.372 18.2727H105.128L106.838 24.6818H106.923L108.639 18.2727H110.395L112.099 24.6534H112.185L113.884 18.2727H115.639L113.077 27H111.344L109.571 20.6989H109.44L107.668 27H105.94ZM125.901 23.2273H127.628L128.844 24.8125L129.418 25.517L131.355 28.0455H129.56L128.264 26.358L127.821 25.7443L125.901 23.2273ZM131.73 21.1818C131.73 22.4242 131.503 23.4924 131.048 24.3864C130.594 25.2765 129.971 25.9621 129.179 26.4432C128.391 26.9205 127.495 27.1591 126.491 27.1591C125.484 27.1591 124.584 26.9205 123.793 26.4432C123.005 25.9621 122.384 25.2746 121.929 24.3807C121.474 23.4867 121.247 22.4205 121.247 21.1818C121.247 19.9394 121.474 18.8731 121.929 17.983C122.384 17.089 123.005 16.4034 123.793 15.9261C124.584 15.4451 125.484 15.2045 126.491 15.2045C127.495 15.2045 128.391 15.4451 129.179 15.9261C129.971 16.4034 130.594 17.089 131.048 17.983C131.503 18.8731 131.73 19.9394 131.73 21.1818ZM129.991 21.1818C129.991 20.2348 129.838 19.4375 129.531 18.7898C129.228 18.1383 128.812 17.6458 128.281 17.3125C127.755 16.9754 127.158 16.8068 126.491 16.8068C125.821 16.8068 125.223 16.9754 124.696 17.3125C124.17 17.6458 123.753 18.1383 123.446 18.7898C123.143 19.4375 122.991 20.2348 122.991 21.1818C122.991 22.1288 123.143 22.928 123.446 23.5795C123.753 24.2273 124.17 24.7197 124.696 25.0568C125.223 25.3902 125.821 25.5568 126.491 25.5568C127.158 25.5568 127.755 25.3902 128.281 25.0568C128.812 24.7197 129.228 24.2273 129.531 23.5795C129.838 22.928 129.991 22.1288 129.991 21.1818ZM139.311 23.3807V18.2727H141.016V27H139.345V25.4886H139.254C139.054 25.9545 138.732 26.3428 138.288 26.6534C137.849 26.9602 137.302 27.1136 136.646 27.1136C136.086 27.1136 135.589 26.9905 135.158 26.7443C134.73 26.4943 134.393 26.125 134.146 25.6364C133.904 25.1477 133.783 24.5436 133.783 23.8239V18.2727H135.482V23.6193C135.482 24.214 135.646 24.6875 135.976 25.0398C136.305 25.392 136.733 25.5682 137.26 25.5682C137.578 25.5682 137.894 25.4886 138.209 25.3295C138.527 25.1705 138.79 24.9299 138.999 24.608C139.211 24.286 139.315 23.8769 139.311 23.3807ZM147.06 27.1761C146.2 27.1761 145.459 26.9924 144.838 26.625C144.221 26.2538 143.743 25.733 143.406 25.0625C143.073 24.3883 142.906 23.5985 142.906 22.6932C142.906 21.7992 143.073 21.0114 143.406 20.3295C143.743 19.6477 144.213 19.1155 144.815 18.733C145.421 18.3504 146.13 18.1591 146.94 18.1591C147.433 18.1591 147.91 18.2405 148.372 18.4034C148.834 18.5663 149.249 18.822 149.616 19.1705C149.984 19.5189 150.274 19.9716 150.486 20.5284C150.698 21.0814 150.804 21.7538 150.804 22.5455V23.1477H143.866V21.875H149.139C149.139 21.428 149.048 21.0322 148.866 20.6875C148.685 20.339 148.429 20.0644 148.099 19.8636C147.774 19.6629 147.391 19.5625 146.952 19.5625C146.474 19.5625 146.058 19.6799 145.702 19.9148C145.349 20.1458 145.077 20.4489 144.884 20.8239C144.694 21.1951 144.599 21.5985 144.599 22.0341V23.0284C144.599 23.6117 144.702 24.108 144.906 24.517C145.115 24.9261 145.404 25.2386 145.776 25.4545C146.147 25.6667 146.58 25.7727 147.077 25.7727C147.399 25.7727 147.692 25.7273 147.957 25.6364C148.223 25.5417 148.452 25.4015 148.645 25.2159C148.838 25.0303 148.986 24.8011 149.088 24.5284L150.696 24.8182C150.567 25.2917 150.336 25.7064 150.003 26.0625C149.673 26.4148 149.259 26.6894 148.759 26.8864C148.262 27.0795 147.696 27.1761 147.06 27.1761ZM158.217 23.3807V18.2727H159.922V27H158.251V25.4886H158.161C157.96 25.9545 157.638 26.3428 157.195 26.6534C156.755 26.9602 156.208 27.1136 155.553 27.1136C154.992 27.1136 154.496 26.9905 154.064 26.7443C153.636 26.4943 153.299 26.125 153.053 25.6364C152.81 25.1477 152.689 24.5436 152.689 23.8239V18.2727H154.388V23.6193C154.388 24.214 154.553 24.6875 154.882 25.0398C155.212 25.392 155.64 25.5682 156.166 25.5682C156.484 25.5682 156.801 25.4886 157.115 25.3295C157.433 25.1705 157.696 24.9299 157.905 24.608C158.117 24.286 158.221 23.8769 158.217 23.3807ZM165.966 27.1761C165.106 27.1761 164.366 26.9924 163.744 26.625C163.127 26.2538 162.65 25.733 162.312 25.0625C161.979 24.3883 161.812 23.5985 161.812 22.6932C161.812 21.7992 161.979 21.0114 162.312 20.3295C162.65 19.6477 163.119 19.1155 163.722 18.733C164.328 18.3504 165.036 18.1591 165.847 18.1591C166.339 18.1591 166.816 18.2405 167.278 18.4034C167.741 18.5663 168.155 18.822 168.523 19.1705C168.89 19.5189 169.18 19.9716 169.392 20.5284C169.604 21.0814 169.71 21.7538 169.71 22.5455V23.1477H162.773V21.875H168.045C168.045 21.428 167.955 21.0322 167.773 20.6875C167.591 20.339 167.335 20.0644 167.006 19.8636C166.68 19.6629 166.297 19.5625 165.858 19.5625C165.381 19.5625 164.964 19.6799 164.608 19.9148C164.256 20.1458 163.983 20.4489 163.79 20.8239C163.6 21.1951 163.506 21.5985 163.506 22.0341V23.0284C163.506 23.6117 163.608 24.108 163.812 24.517C164.021 24.9261 164.311 25.2386 164.682 25.4545C165.053 25.6667 165.487 25.7727 165.983 25.7727C166.305 25.7727 166.598 25.7273 166.864 25.6364C167.129 25.5417 167.358 25.4015 167.551 25.2159C167.744 25.0303 167.892 24.8011 167.994 24.5284L169.602 24.8182C169.473 25.2917 169.242 25.7064 168.909 26.0625C168.58 26.4148 168.165 26.6894 167.665 26.8864C167.169 27.0795 166.602 27.1761 165.966 27.1761Z" fill="white"/>
</svg>
