<svg width="205" height="44" viewBox="0 0 205 44" fill="none" xmlns="http://www.w3.org/2000/svg">
<path d="M196.797 0C201.215 0 204.797 3.58172 204.797 8V36C204.797 40.4183 201.215 44 196.797 44H8C3.58172 44 0 40.4183 0 36V8C0 3.58172 3.58172 0 8 0H196.797Z" fill="#6366F1"/>
<path d="M196.797 0C201.215 0 204.797 3.58172 204.797 8V36C204.797 40.4183 201.215 44 196.797 44H8C3.58172 44 0 40.4183 0 36V8C0 3.58172 3.58172 0 8 0H196.797Z" stroke="#E5E7EB"/>
<path d="M68.2528 18.5625C68.1998 18.0663 67.9763 17.6799 67.5824 17.4034C67.1922 17.1269 66.6847 16.9886 66.0597 16.9886C65.6203 16.9886 65.2434 17.0549 64.929 17.1875C64.6146 17.3201 64.3741 17.5 64.2074 17.7273C64.0407 17.9545 63.9555 18.214 63.9517 18.5057C63.9517 18.7481 64.0066 18.9583 64.1165 19.1364C64.2301 19.3144 64.3835 19.4659 64.5767 19.5909C64.7699 19.7121 64.9839 19.8144 65.2188 19.8977C65.4536 19.9811 65.6903 20.0511 65.929 20.108L67.0199 20.3807C67.4593 20.483 67.8816 20.6212 68.2869 20.7955C68.696 20.9697 69.0616 21.1894 69.3835 21.4545C69.7093 21.7197 69.9669 22.0398 70.1562 22.4148C70.3456 22.7898 70.4403 23.2292 70.4403 23.733C70.4403 24.4148 70.2661 25.0152 69.9176 25.5341C69.5691 26.0492 69.0653 26.4527 68.4062 26.7443C67.7509 27.0322 66.9574 27.1761 66.0256 27.1761C65.1203 27.1761 64.3343 27.036 63.6676 26.7557C63.0047 26.4754 62.4858 26.0663 62.1108 25.5284C61.7396 24.9905 61.5388 24.3352 61.5085 23.5625H63.5824C63.6127 23.9678 63.7377 24.3049 63.9574 24.5739C64.1771 24.8428 64.4631 25.0436 64.8153 25.1761C65.1714 25.3087 65.5691 25.375 66.0085 25.375C66.4669 25.375 66.8684 25.3068 67.2131 25.1705C67.5616 25.0303 67.8343 24.8371 68.0312 24.5909C68.2282 24.3409 68.3286 24.0492 68.3324 23.7159C68.3286 23.4129 68.2396 23.1629 68.0653 22.9659C67.8911 22.7652 67.6468 22.5985 67.3324 22.4659C67.0218 22.3295 66.6581 22.2083 66.2415 22.1023L64.9176 21.7614C63.9593 21.5152 63.2017 21.142 62.6449 20.642C62.0919 20.1383 61.8153 19.4697 61.8153 18.6364C61.8153 17.9508 62.0009 17.3504 62.3722 16.8352C62.7472 16.3201 63.2566 15.9205 63.9006 15.6364C64.5445 15.3485 65.2737 15.2045 66.0881 15.2045C66.9138 15.2045 67.6373 15.3485 68.2585 15.6364C68.8835 15.9205 69.3741 16.3163 69.7301 16.8239C70.0862 17.3277 70.2699 17.9072 70.2812 18.5625H68.2528ZM74.7401 27.1761C74.187 27.1761 73.6889 27.0777 73.2457 26.8807C72.8063 26.6799 72.4579 26.3845 72.2003 25.9943C71.9465 25.6042 71.8196 25.1231 71.8196 24.5511C71.8196 24.0587 71.9105 23.6515 72.0923 23.3295C72.2741 23.0076 72.5223 22.75 72.8366 22.5568C73.151 22.3636 73.5052 22.2178 73.8991 22.1193C74.2969 22.017 74.7079 21.9432 75.1321 21.8977C75.6435 21.8447 76.0582 21.7973 76.3764 21.7557C76.6946 21.7102 76.9257 21.642 77.0696 21.5511C77.2173 21.4564 77.2912 21.3106 77.2912 21.1136V21.0795C77.2912 20.6515 77.1643 20.3201 76.9105 20.0852C76.6567 19.8504 76.2912 19.733 75.8139 19.733C75.3101 19.733 74.9105 19.8428 74.6151 20.0625C74.3234 20.2822 74.1264 20.5417 74.0241 20.8409L72.1037 20.5682C72.2552 20.0379 72.5052 19.5947 72.8537 19.2386C73.2022 18.8788 73.6283 18.6098 74.1321 18.4318C74.6359 18.25 75.1927 18.1591 75.8026 18.1591C76.223 18.1591 76.6416 18.2083 77.0582 18.3068C77.4749 18.4053 77.8556 18.5682 78.2003 18.7955C78.545 19.0189 78.8215 19.3239 79.0298 19.7102C79.242 20.0966 79.348 20.5795 79.348 21.1591V27H77.3707V25.8011H77.3026C77.1776 26.0436 77.0014 26.2708 76.7741 26.483C76.5507 26.6913 76.2685 26.8598 75.9276 26.9886C75.5904 27.1136 75.1946 27.1761 74.7401 27.1761ZM75.2741 25.6648C75.687 25.6648 76.045 25.5833 76.348 25.4205C76.651 25.2538 76.884 25.0341 77.0469 24.7614C77.2135 24.4886 77.2969 24.1913 77.2969 23.8693V22.8409C77.2325 22.8939 77.1226 22.9432 76.9673 22.9886C76.8158 23.0341 76.6454 23.0739 76.456 23.108C76.2666 23.142 76.0791 23.1723 75.8935 23.1989C75.7079 23.2254 75.5469 23.2481 75.4105 23.267C75.1037 23.3087 74.8291 23.3769 74.5866 23.4716C74.3442 23.5663 74.1529 23.6989 74.0128 23.8693C73.8726 24.036 73.8026 24.2519 73.8026 24.517C73.8026 24.8958 73.9408 25.1818 74.2173 25.375C74.4938 25.5682 74.8461 25.6648 75.2741 25.6648ZM88.8991 18.2727L85.7912 27H83.5185L80.4105 18.2727H82.6037L84.6094 24.7557H84.7003L86.7116 18.2727H88.8991ZM93.8892 27.1705C93.0142 27.1705 92.2585 26.9886 91.6222 26.625C90.9896 26.2576 90.5028 25.7386 90.1619 25.0682C89.821 24.3939 89.6506 23.6004 89.6506 22.6875C89.6506 21.7898 89.821 21.0019 90.1619 20.3239C90.5066 19.642 90.9877 19.1117 91.6051 18.733C92.2225 18.3504 92.9479 18.1591 93.7812 18.1591C94.3191 18.1591 94.8267 18.2462 95.304 18.4205C95.785 18.5909 96.2093 18.8561 96.5767 19.2159C96.9479 19.5758 97.2396 20.0341 97.4517 20.5909C97.6638 21.1439 97.7699 21.803 97.7699 22.5682V23.1989H90.6165V21.8125H95.7983C95.7945 21.4186 95.7093 21.0682 95.5426 20.7614C95.3759 20.4508 95.143 20.2064 94.8438 20.0284C94.5483 19.8504 94.2036 19.7614 93.8097 19.7614C93.3892 19.7614 93.0199 19.8636 92.7017 20.0682C92.3835 20.2689 92.1354 20.5341 91.9574 20.8636C91.7831 21.1894 91.6941 21.5473 91.6903 21.9375V23.1477C91.6903 23.6553 91.7831 24.0909 91.9688 24.4545C92.1544 24.8144 92.4138 25.0909 92.7472 25.2841C93.0805 25.4735 93.4706 25.5682 93.9176 25.5682C94.2169 25.5682 94.4877 25.5265 94.7301 25.4432C94.9725 25.3561 95.1828 25.2292 95.3608 25.0625C95.5388 24.8958 95.6733 24.6894 95.7642 24.4432L97.6847 24.6591C97.5634 25.1667 97.3324 25.6098 96.9915 25.9886C96.6544 26.3636 96.2225 26.6553 95.696 26.8636C95.1695 27.0682 94.5672 27.1705 93.8892 27.1705ZM105.064 27H102.814L106.911 15.3636H109.513L113.615 27H111.365L108.257 17.75H108.166L105.064 27ZM105.138 22.4375H111.274V24.1307H105.138V22.4375ZM117.114 15.3636V27H115.057V15.3636H117.114ZM121.286 15.3636V27H119.229V15.3636H121.286ZM137.42 19.2898H135.295C135.235 18.9413 135.123 18.6326 134.96 18.3636C134.797 18.0909 134.595 17.8598 134.352 17.6705C134.11 17.4811 133.833 17.339 133.523 17.2443C133.216 17.1458 132.884 17.0966 132.528 17.0966C131.896 17.0966 131.335 17.2557 130.847 17.5739C130.358 17.8883 129.975 18.3504 129.699 18.9602C129.422 19.5663 129.284 20.3068 129.284 21.1818C129.284 22.072 129.422 22.822 129.699 23.4318C129.979 24.0379 130.362 24.4962 130.847 24.8068C131.335 25.1136 131.894 25.267 132.523 25.267C132.871 25.267 133.197 25.2216 133.5 25.1307C133.807 25.036 134.081 24.8977 134.324 24.7159C134.57 24.5341 134.777 24.3106 134.943 24.0455C135.114 23.7803 135.231 23.4773 135.295 23.1364L137.42 23.1477C137.341 23.7008 137.169 24.2197 136.903 24.7045C136.642 25.1894 136.299 25.6174 135.875 25.9886C135.451 26.3561 134.955 26.6439 134.386 26.8523C133.818 27.0568 133.188 27.1591 132.494 27.1591C131.472 27.1591 130.559 26.9223 129.756 26.4489C128.953 25.9754 128.32 25.2917 127.858 24.3977C127.396 23.5038 127.165 22.4318 127.165 21.1818C127.165 19.928 127.398 18.8561 127.864 17.9659C128.33 17.072 128.964 16.3883 129.767 15.9148C130.57 15.4413 131.479 15.2045 132.494 15.2045C133.142 15.2045 133.744 15.2955 134.301 15.4773C134.858 15.6591 135.354 15.9261 135.79 16.2784C136.225 16.6269 136.583 17.0549 136.864 17.5625C137.148 18.0663 137.333 18.642 137.42 19.2898ZM141.317 21.8864V27H139.26V15.3636H141.271V19.7557H141.374C141.578 19.2633 141.894 18.875 142.322 18.5909C142.754 18.303 143.304 18.1591 143.97 18.1591C144.576 18.1591 145.105 18.286 145.555 18.5398C146.006 18.7936 146.355 19.1648 146.601 19.6534C146.851 20.142 146.976 20.7386 146.976 21.4432V27H144.919V21.7614C144.919 21.1742 144.768 20.7178 144.464 20.392C144.165 20.0625 143.745 19.8977 143.203 19.8977C142.839 19.8977 142.514 19.9773 142.226 20.1364C141.942 20.2917 141.718 20.517 141.555 20.8125C141.396 21.108 141.317 21.4659 141.317 21.8864ZM151.584 27.1761C151.031 27.1761 150.533 27.0777 150.089 26.8807C149.65 26.6799 149.302 26.3845 149.044 25.9943C148.79 25.6042 148.663 25.1231 148.663 24.5511C148.663 24.0587 148.754 23.6515 148.936 23.3295C149.118 23.0076 149.366 22.75 149.68 22.5568C149.995 22.3636 150.349 22.2178 150.743 22.1193C151.141 22.017 151.552 21.9432 151.976 21.8977C152.487 21.8447 152.902 21.7973 153.22 21.7557C153.538 21.7102 153.769 21.642 153.913 21.5511C154.061 21.4564 154.135 21.3106 154.135 21.1136V21.0795C154.135 20.6515 154.008 20.3201 153.754 20.0852C153.5 19.8504 153.135 19.733 152.658 19.733C152.154 19.733 151.754 19.8428 151.459 20.0625C151.167 20.2822 150.97 20.5417 150.868 20.8409L148.947 20.5682C149.099 20.0379 149.349 19.5947 149.697 19.2386C150.046 18.8788 150.472 18.6098 150.976 18.4318C151.48 18.25 152.036 18.1591 152.646 18.1591C153.067 18.1591 153.485 18.2083 153.902 18.3068C154.319 18.4053 154.699 18.5682 155.044 18.7955C155.389 19.0189 155.665 19.3239 155.874 19.7102C156.086 20.0966 156.192 20.5795 156.192 21.1591V27H154.214V25.8011H154.146C154.021 26.0436 153.845 26.2708 153.618 26.483C153.394 26.6913 153.112 26.8598 152.771 26.9886C152.434 27.1136 152.038 27.1761 151.584 27.1761ZM152.118 25.6648C152.531 25.6648 152.889 25.5833 153.192 25.4205C153.495 25.2538 153.728 25.0341 153.891 24.7614C154.057 24.4886 154.141 24.1913 154.141 23.8693V22.8409C154.076 22.8939 153.966 22.9432 153.811 22.9886C153.66 23.0341 153.489 23.0739 153.3 23.108C153.11 23.142 152.923 23.1723 152.737 23.1989C152.552 23.2254 152.391 23.2481 152.254 23.267C151.947 23.3087 151.673 23.3769 151.43 23.4716C151.188 23.5663 150.997 23.6989 150.857 23.8693C150.716 24.036 150.646 24.2519 150.646 24.517C150.646 24.8958 150.785 25.1818 151.061 25.375C151.338 25.5682 151.69 25.6648 152.118 25.6648ZM160.317 21.8864V27H158.26V18.2727H160.226V19.7557H160.328C160.529 19.267 160.849 18.8788 161.288 18.5909C161.732 18.303 162.279 18.1591 162.93 18.1591C163.533 18.1591 164.057 18.2879 164.504 18.5455C164.955 18.803 165.304 19.1761 165.55 19.6648C165.8 20.1534 165.923 20.7462 165.919 21.4432V27H163.862V21.7614C163.862 21.178 163.711 20.7216 163.408 20.392C163.108 20.0625 162.694 19.8977 162.163 19.8977C161.804 19.8977 161.483 19.9773 161.203 20.1364C160.927 20.2917 160.709 20.517 160.55 20.8125C160.394 21.108 160.317 21.4659 160.317 21.8864ZM171.805 30.4545C171.067 30.4545 170.432 30.3542 169.902 30.1534C169.372 29.9564 168.946 29.6913 168.624 29.358C168.302 29.0246 168.078 28.6553 167.953 28.25L169.805 27.8011C169.889 27.9716 170.01 28.1402 170.169 28.3068C170.328 28.4773 170.542 28.6174 170.811 28.7273C171.084 28.8409 171.427 28.8977 171.839 28.8977C172.423 28.8977 172.906 28.7557 173.288 28.4716C173.671 28.1913 173.862 27.7292 173.862 27.0852V25.4318H173.76C173.654 25.6439 173.499 25.8617 173.294 26.0852C173.093 26.3087 172.826 26.4962 172.493 26.6477C172.163 26.7992 171.749 26.875 171.249 26.875C170.578 26.875 169.97 26.7178 169.425 26.4034C168.883 26.0852 168.451 25.6117 168.129 24.983C167.811 24.3504 167.652 23.5587 167.652 22.608C167.652 21.6496 167.811 20.8409 168.129 20.1818C168.451 19.5189 168.885 19.017 169.43 18.6761C169.976 18.3314 170.584 18.1591 171.254 18.1591C171.766 18.1591 172.186 18.2462 172.516 18.4205C172.849 18.5909 173.114 18.7973 173.311 19.0398C173.508 19.2784 173.658 19.5038 173.76 19.7159H173.874V18.2727H175.902V27.142C175.902 27.8883 175.724 28.5057 175.368 28.9943C175.012 29.483 174.525 29.8485 173.908 30.0909C173.29 30.3333 172.589 30.4545 171.805 30.4545ZM171.822 25.2614C172.258 25.2614 172.629 25.1553 172.936 24.9432C173.243 24.7311 173.476 24.4261 173.635 24.0284C173.794 23.6307 173.874 23.1534 173.874 22.5966C173.874 22.0473 173.794 21.5663 173.635 21.1534C173.48 20.7405 173.249 20.4205 172.942 20.1932C172.639 19.9621 172.266 19.8466 171.822 19.8466C171.364 19.8466 170.982 19.9659 170.675 20.2045C170.368 20.4432 170.137 20.7708 169.982 21.1875C169.826 21.6004 169.749 22.0701 169.749 22.5966C169.749 23.1307 169.826 23.5985 169.982 24C170.141 24.3977 170.374 24.7083 170.68 24.9318C170.991 25.1515 171.372 25.2614 171.822 25.2614ZM181.874 27.1705C180.999 27.1705 180.243 26.9886 179.607 26.625C178.974 26.2576 178.487 25.7386 178.146 25.0682C177.805 24.3939 177.635 23.6004 177.635 22.6875C177.635 21.7898 177.805 21.0019 178.146 20.3239C178.491 19.642 178.972 19.1117 179.589 18.733C180.207 18.3504 180.932 18.1591 181.766 18.1591C182.304 18.1591 182.811 18.2462 183.288 18.4205C183.769 18.5909 184.194 18.8561 184.561 19.2159C184.932 19.5758 185.224 20.0341 185.436 20.5909C185.648 21.1439 185.754 21.803 185.754 22.5682V23.1989H178.601V21.8125H183.783C183.779 21.4186 183.694 21.0682 183.527 20.7614C183.36 20.4508 183.127 20.2064 182.828 20.0284C182.533 19.8504 182.188 19.7614 181.794 19.7614C181.374 19.7614 181.004 19.8636 180.686 20.0682C180.368 20.2689 180.12 20.5341 179.942 20.8636C179.768 21.1894 179.679 21.5473 179.675 21.9375V23.1477C179.675 23.6553 179.768 24.0909 179.953 24.4545C180.139 24.8144 180.398 25.0909 180.732 25.2841C181.065 25.4735 181.455 25.5682 181.902 25.5682C182.201 25.5682 182.472 25.5265 182.714 25.4432C182.957 25.3561 183.167 25.2292 183.345 25.0625C183.523 24.8958 183.658 24.6894 183.749 24.4432L185.669 24.6591C185.548 25.1667 185.317 25.6098 184.976 25.9886C184.639 26.3636 184.207 26.6553 183.68 26.8636C183.154 27.0682 182.552 27.1705 181.874 27.1705ZM194.392 20.5795L192.517 20.7841C192.464 20.5947 192.371 20.4167 192.239 20.25C192.11 20.0833 191.936 19.9489 191.716 19.8466C191.496 19.7443 191.227 19.6932 190.909 19.6932C190.481 19.6932 190.121 19.786 189.83 19.9716C189.542 20.1572 189.4 20.3977 189.403 20.6932C189.4 20.947 189.492 21.1534 189.682 21.3125C189.875 21.4716 190.193 21.6023 190.636 21.7045L192.125 22.0227C192.951 22.2008 193.564 22.483 193.966 22.8693C194.371 23.2557 194.576 23.7614 194.58 24.3864C194.576 24.9356 194.415 25.4205 194.097 25.8409C193.782 26.2576 193.345 26.5833 192.784 26.8182C192.223 27.053 191.58 27.1705 190.852 27.1705C189.784 27.1705 188.924 26.947 188.273 26.5C187.621 26.0492 187.233 25.4223 187.108 24.6193L189.114 24.4261C189.205 24.8201 189.398 25.1174 189.693 25.3182C189.989 25.5189 190.373 25.6193 190.847 25.6193C191.335 25.6193 191.727 25.5189 192.023 25.3182C192.322 25.1174 192.472 24.8693 192.472 24.5739C192.472 24.3239 192.375 24.1174 192.182 23.9545C191.992 23.7917 191.697 23.6667 191.295 23.5795L189.807 23.267C188.97 23.0928 188.35 22.7992 187.949 22.3864C187.547 21.9697 187.348 21.4432 187.352 20.8068C187.348 20.2689 187.494 19.803 187.79 19.4091C188.089 19.0114 188.504 18.7045 189.034 18.4886C189.568 18.2689 190.184 18.1591 190.881 18.1591C191.903 18.1591 192.708 18.3769 193.295 18.8125C193.886 19.2481 194.252 19.8371 194.392 20.5795Z" fill="white"/>
<path d="M31.7969 33V26C31.7969 25.7348 31.6915 25.4804 31.504 25.2929C31.3164 25.1054 31.0621 25 30.7969 25H22.7969C22.5317 25 22.2773 25.1054 22.0898 25.2929C21.9022 25.4804 21.7969 25.7348 21.7969 26V33M21.7969 15V19C21.7969 19.2652 21.9022 19.5196 22.0898 19.7071C22.2773 19.8946 22.5317 20 22.7969 20H29.7969M29.9969 15C30.5244 15.0075 31.0276 15.2232 31.3969 15.6L35.1969 19.4C35.5737 19.7693 35.7894 20.2725 35.7969 20.8V31C35.7969 31.5304 35.5862 32.0391 35.2111 32.4142C34.836 32.7893 34.3273 33 33.7969 33H19.7969C19.2664 33 18.7577 32.7893 18.3827 32.4142C18.0076 32.0391 17.7969 31.5304 17.7969 31V17C17.7969 16.4696 18.0076 15.9609 18.3827 15.5858C18.7577 15.2107 19.2664 15 19.7969 15H29.9969Z" stroke="white" stroke-width="2" stroke-linecap="round" stroke-linejoin="round"/>
</svg>
