<svg width="195" height="42" viewBox="0 0 195 42" fill="none" xmlns="http://www.w3.org/2000/svg">
<path d="M186.406 0C190.825 0 194.406 3.58172 194.406 8V34C194.406 38.4183 190.825 42 186.406 42H8C3.58172 42 0 38.4183 0 34V8C0 3.58172 3.58172 0 8 0H186.406Z" fill="#059669"/>
<path d="M186.406 0C190.825 0 194.406 3.58172 194.406 8V34C194.406 38.4183 190.825 42 186.406 42H8C3.58172 42 0 38.4183 0 34V8C0 3.58172 3.58172 0 8 0H186.406Z" stroke="#E5E7EB"/>
<path d="M32.1016 17.4205C32.041 16.8826 31.791 16.4659 31.3516 16.1705C30.9122 15.8712 30.3591 15.7216 29.6925 15.7216C29.2152 15.7216 28.8023 15.7973 28.4538 15.9489C28.1054 16.0966 27.8345 16.3011 27.6413 16.5625C27.4519 16.8201 27.3572 17.1136 27.3572 17.4432C27.3572 17.7197 27.4216 17.9583 27.5504 18.1591C27.683 18.3598 27.8554 18.5284 28.0675 18.6648C28.2834 18.7973 28.5144 18.9091 28.7607 19C29.0069 19.0871 29.2436 19.1591 29.4709 19.2159L30.6072 19.5114C30.9785 19.6023 31.3591 19.7254 31.7493 19.8807C32.1394 20.036 32.5012 20.2405 32.8345 20.4943C33.1679 20.7481 33.4368 21.0625 33.6413 21.4375C33.8497 21.8125 33.9538 22.2614 33.9538 22.7841C33.9538 23.4432 33.7834 24.0284 33.4425 24.5398C33.1054 25.0511 32.6148 25.4545 31.9709 25.75C31.3307 26.0455 30.5561 26.1932 29.647 26.1932C28.7758 26.1932 28.022 26.0549 27.3857 25.7784C26.7493 25.5019 26.2512 25.1098 25.8913 24.6023C25.5315 24.0909 25.3326 23.4848 25.2947 22.7841H27.0561C27.0902 23.2045 27.2266 23.5549 27.4652 23.8352C27.7076 24.1117 28.0163 24.3182 28.3913 24.4545C28.7701 24.5871 29.1849 24.6534 29.6357 24.6534C30.1319 24.6534 30.5732 24.5758 30.9595 24.4205C31.3497 24.2614 31.6565 24.0417 31.88 23.7614C32.1035 23.4773 32.2152 23.1458 32.2152 22.767C32.2152 22.4223 32.1167 22.1402 31.9197 21.9205C31.7266 21.7008 31.4633 21.5189 31.13 21.375C30.8004 21.2311 30.4273 21.1042 30.0107 20.9943L28.6357 20.6193C27.7038 20.3655 26.9652 19.9924 26.4197 19.5C25.8781 19.0076 25.6072 18.3561 25.6072 17.5455C25.6072 16.875 25.7891 16.2898 26.1527 15.7898C26.5163 15.2898 27.0088 14.9015 27.63 14.625C28.2512 14.3447 28.9519 14.2045 29.7322 14.2045C30.5201 14.2045 31.2152 14.3428 31.8175 14.6193C32.4235 14.8958 32.9008 15.2765 33.2493 15.7614C33.5978 16.2424 33.7796 16.7955 33.7947 17.4205H32.1016ZM38.4553 26.1932C37.9022 26.1932 37.4022 26.0909 36.9553 25.8864C36.5083 25.678 36.1541 25.3769 35.8928 24.983C35.6352 24.589 35.5064 24.1061 35.5064 23.5341C35.5064 23.0417 35.6011 22.6364 35.7905 22.3182C35.9799 22 36.2356 21.7481 36.5575 21.5625C36.8795 21.3769 37.2393 21.2367 37.6371 21.142C38.0348 21.0473 38.4401 20.9754 38.853 20.9261C39.3757 20.8655 39.8 20.8163 40.1257 20.7784C40.4515 20.7367 40.6882 20.6705 40.8359 20.5795C40.9837 20.4886 41.0575 20.3409 41.0575 20.1364V20.0966C41.0575 19.6004 40.9174 19.2159 40.6371 18.9432C40.3606 18.6705 39.9477 18.5341 39.3984 18.5341C38.8265 18.5341 38.3757 18.661 38.0462 18.9148C37.7204 19.1648 37.495 19.4432 37.37 19.75L35.7734 19.3864C35.9628 18.8561 36.2393 18.428 36.603 18.1023C36.9704 17.7727 37.3928 17.5341 37.87 17.3864C38.3473 17.2348 38.8492 17.1591 39.3757 17.1591C39.7242 17.1591 40.0935 17.2008 40.4837 17.2841C40.8776 17.3636 41.245 17.5114 41.5859 17.7273C41.9306 17.9432 42.2128 18.2519 42.4325 18.6534C42.6522 19.0511 42.7621 19.5682 42.7621 20.2045V26H41.103V24.8068H41.0348C40.925 25.0265 40.7602 25.2424 40.5405 25.4545C40.3208 25.6667 40.0386 25.8428 39.6939 25.983C39.3492 26.1231 38.9363 26.1932 38.4553 26.1932ZM38.8246 24.8295C39.2943 24.8295 39.6958 24.7367 40.0291 24.5511C40.3662 24.3655 40.6219 24.1231 40.7962 23.8239C40.9742 23.5208 41.0632 23.197 41.0632 22.8523V21.7273C41.0026 21.7879 40.8852 21.8447 40.7109 21.8977C40.5405 21.947 40.3454 21.9905 40.1257 22.0284C39.906 22.0625 39.692 22.0947 39.4837 22.125C39.2753 22.1515 39.1011 22.1742 38.9609 22.1932C38.6314 22.2348 38.3303 22.3049 38.0575 22.4034C37.7886 22.5019 37.5727 22.6439 37.4098 22.8295C37.2507 23.0114 37.1712 23.2538 37.1712 23.5568C37.1712 23.9773 37.3265 24.2955 37.6371 24.5114C37.9477 24.7235 38.3435 24.8295 38.8246 24.8295ZM52.1783 17.2727L49.0135 26H47.1953L44.0249 17.2727H45.8487L48.0589 23.9886H48.1499L50.3544 17.2727H52.1783ZM57.2393 26.1761C56.3795 26.1761 55.639 25.9924 55.0178 25.625C54.4003 25.2538 53.9231 24.733 53.5859 24.0625C53.2526 23.3883 53.0859 22.5985 53.0859 21.6932C53.0859 20.7992 53.2526 20.0114 53.5859 19.3295C53.9231 18.6477 54.3928 18.1155 54.995 17.733C55.6011 17.3504 56.3094 17.1591 57.12 17.1591C57.6125 17.1591 58.0897 17.2405 58.5518 17.4034C59.014 17.5663 59.4287 17.822 59.7962 18.1705C60.1636 18.5189 60.4534 18.9716 60.6655 19.5284C60.8776 20.0814 60.9837 20.7538 60.9837 21.5455V22.1477H54.0462V20.875H59.3189C59.3189 20.428 59.228 20.0322 59.0462 19.6875C58.8643 19.339 58.6087 19.0644 58.2791 18.8636C57.9534 18.6629 57.5708 18.5625 57.1314 18.5625C56.6541 18.5625 56.2375 18.6799 55.8814 18.9148C55.5291 19.1458 55.2564 19.4489 55.0632 19.8239C54.8738 20.1951 54.7791 20.5985 54.7791 21.0341V22.0284C54.7791 22.6117 54.8814 23.108 55.0859 23.517C55.2943 23.9261 55.584 24.2386 55.9553 24.4545C56.3265 24.6667 56.7602 24.7727 57.2564 24.7727C57.5784 24.7727 57.8719 24.7273 58.1371 24.6364C58.4022 24.5417 58.6314 24.4015 58.8246 24.2159C59.0178 24.0303 59.1655 23.8011 59.2678 23.5284L60.8757 23.8182C60.7469 24.2917 60.5159 24.7064 60.1825 25.0625C59.853 25.4148 59.4382 25.6894 58.9382 25.8864C58.442 26.0795 57.8757 26.1761 57.2393 26.1761ZM76.9041 18.1477H75.1314C75.0632 17.7689 74.9363 17.4356 74.7507 17.1477C74.5651 16.8598 74.3378 16.6155 74.0689 16.4148C73.8 16.214 73.4988 16.0625 73.1655 15.9602C72.8359 15.858 72.4856 15.8068 72.1143 15.8068C71.4439 15.8068 70.8435 15.9754 70.3132 16.3125C69.7867 16.6496 69.37 17.1439 69.0632 17.7955C68.7602 18.447 68.6087 19.2424 68.6087 20.1818C68.6087 21.1288 68.7602 21.928 69.0632 22.5795C69.37 23.2311 69.7886 23.7235 70.3189 24.0568C70.8492 24.3902 71.4458 24.5568 72.1087 24.5568C72.4761 24.5568 72.8246 24.5076 73.1541 24.4091C73.4875 24.3068 73.7886 24.1572 74.0575 23.9602C74.3265 23.7633 74.5537 23.5227 74.7393 23.2386C74.9287 22.9508 75.0594 22.6212 75.1314 22.25L76.9041 22.2557C76.8094 22.8277 76.6257 23.3542 76.353 23.8352C76.084 24.3125 75.7375 24.7254 75.3132 25.0739C74.8928 25.4186 74.4117 25.6856 73.87 25.875C73.3284 26.0644 72.7375 26.1591 72.0973 26.1591C71.0897 26.1591 70.192 25.9205 69.4041 25.4432C68.6162 24.9621 67.995 24.2746 67.5405 23.3807C67.0897 22.4867 66.8643 21.4205 66.8643 20.1818C66.8643 18.9394 67.0916 17.8731 67.5462 16.983C68.0007 16.089 68.6219 15.4034 69.4098 14.9261C70.1977 14.4451 71.0935 14.2045 72.0973 14.2045C72.7147 14.2045 73.2905 14.2936 73.8246 14.4716C74.3625 14.6458 74.8454 14.9034 75.2734 15.2443C75.7015 15.5814 76.0556 15.9943 76.3359 16.483C76.6162 16.9678 76.8056 17.5227 76.9041 18.1477ZM82.5447 26.1761C81.7266 26.1761 81.0125 25.9886 80.4027 25.6136C79.7929 25.2386 79.3194 24.714 78.9822 24.0398C78.6451 23.3655 78.4766 22.5777 78.4766 21.6761C78.4766 20.7708 78.6451 19.9792 78.9822 19.3011C79.3194 18.6231 79.7929 18.0966 80.4027 17.7216C81.0125 17.3466 81.7266 17.1591 82.5447 17.1591C83.3629 17.1591 84.0769 17.3466 84.6868 17.7216C85.2966 18.0966 85.7701 18.6231 86.1072 19.3011C86.4444 19.9792 86.6129 20.7708 86.6129 21.6761C86.6129 22.5777 86.4444 23.3655 86.1072 24.0398C85.7701 24.714 85.2966 25.2386 84.6868 25.6136C84.0769 25.9886 83.3629 26.1761 82.5447 26.1761ZM82.5504 24.75C83.0807 24.75 83.5201 24.6098 83.8686 24.3295C84.2171 24.0492 84.4747 23.6761 84.6413 23.2102C84.8118 22.7443 84.897 22.2311 84.897 21.6705C84.897 21.1136 84.8118 20.6023 84.6413 20.1364C84.4747 19.6667 84.2171 19.2898 83.8686 19.0057C83.5201 18.7216 83.0807 18.5795 82.5504 18.5795C82.0163 18.5795 81.5732 18.7216 81.2209 19.0057C80.8724 19.2898 80.6129 19.6667 80.4425 20.1364C80.2758 20.6023 80.1925 21.1136 80.1925 21.6705C80.1925 22.2311 80.2758 22.7443 80.4425 23.2102C80.6129 23.6761 80.8724 24.0492 81.2209 24.3295C81.5732 24.6098 82.0163 24.75 82.5504 24.75ZM90.2081 20.8182V26H88.5092V17.2727H90.1399V18.6932H90.2479C90.4486 18.2311 90.763 17.8598 91.1911 17.5795C91.6229 17.2992 92.1664 17.1591 92.8217 17.1591C93.4164 17.1591 93.9373 17.2841 94.3842 17.5341C94.8312 17.7803 95.1778 18.1477 95.424 18.6364C95.6702 19.125 95.7933 19.7292 95.7933 20.4489V26H94.0945V20.6534C94.0945 20.0208 93.9297 19.5265 93.6001 19.1705C93.2706 18.8106 92.8179 18.6307 92.2422 18.6307C91.8482 18.6307 91.4979 18.7159 91.1911 18.8864C90.888 19.0568 90.6475 19.3068 90.4695 19.6364C90.2952 19.9621 90.2081 20.3561 90.2081 20.8182ZM102.225 17.2727V18.6364H97.2933V17.2727H102.225ZM98.6456 26V16.2614C98.6456 15.7159 98.7649 15.2633 99.0036 14.9034C99.2422 14.5398 99.5585 14.2689 99.9524 14.0909C100.346 13.9091 100.774 13.8182 101.237 13.8182C101.577 13.8182 101.869 13.8466 102.112 13.9034C102.354 13.9564 102.534 14.0057 102.651 14.0511L102.254 15.4261C102.174 15.4034 102.072 15.3769 101.947 15.3466C101.822 15.3125 101.67 15.2955 101.492 15.2955C101.079 15.2955 100.784 15.3977 100.606 15.6023C100.432 15.8068 100.344 16.1023 100.344 16.4886V26H98.6456ZM103.978 26V17.2727H105.677V26H103.978ZM104.836 15.9261C104.54 15.9261 104.287 15.8277 104.075 15.6307C103.866 15.4299 103.762 15.1913 103.762 14.9148C103.762 14.6345 103.866 14.3958 104.075 14.1989C104.287 13.9981 104.54 13.8977 104.836 13.8977C105.131 13.8977 105.383 13.9981 105.592 14.1989C105.804 14.3958 105.91 14.6345 105.91 14.9148C105.91 15.1913 105.804 15.4299 105.592 15.6307C105.383 15.8277 105.131 15.9261 104.836 15.9261ZM111.621 29.4545C110.928 29.4545 110.332 29.3636 109.832 29.1818C109.335 29 108.93 28.7595 108.616 28.4602C108.301 28.161 108.067 27.8333 107.911 27.4773L109.371 26.875C109.474 27.0417 109.61 27.2178 109.781 27.4034C109.955 27.5928 110.19 27.7538 110.485 27.8864C110.784 28.0189 111.169 28.0852 111.638 28.0852C112.282 28.0852 112.815 27.928 113.235 27.6136C113.656 27.303 113.866 26.8068 113.866 26.125V24.4091H113.758C113.656 24.5947 113.508 24.8011 113.315 25.0284C113.125 25.2557 112.864 25.4527 112.531 25.6193C112.197 25.786 111.763 25.8693 111.229 25.8693C110.54 25.8693 109.919 25.7083 109.366 25.3864C108.817 25.0606 108.381 24.5814 108.059 23.9489C107.741 23.3125 107.582 22.5303 107.582 21.6023C107.582 20.6742 107.739 19.8788 108.053 19.2159C108.371 18.553 108.807 18.0455 109.36 17.6932C109.913 17.3371 110.54 17.1591 111.241 17.1591C111.782 17.1591 112.22 17.25 112.553 17.4318C112.887 17.6098 113.146 17.8182 113.332 18.0568C113.521 18.2955 113.667 18.5057 113.769 18.6875H113.894V17.2727H115.559V26.1932C115.559 26.9432 115.385 27.5587 115.036 28.0398C114.688 28.5208 114.216 28.8769 113.621 29.108C113.031 29.339 112.364 29.4545 111.621 29.4545ZM111.604 24.4602C112.093 24.4602 112.506 24.3466 112.843 24.1193C113.184 23.8883 113.442 23.5587 113.616 23.1307C113.794 22.6989 113.883 22.1818 113.883 21.5795C113.883 20.9924 113.796 20.4754 113.621 20.0284C113.447 19.5814 113.192 19.233 112.854 18.983C112.517 18.7292 112.101 18.6023 111.604 18.6023C111.093 18.6023 110.667 18.7348 110.326 19C109.985 19.2614 109.728 19.6174 109.553 20.0682C109.383 20.5189 109.298 21.0227 109.298 21.5795C109.298 22.1515 109.385 22.6534 109.559 23.0852C109.733 23.517 109.991 23.8542 110.332 24.0966C110.676 24.339 111.101 24.4602 111.604 24.4602ZM123.366 22.3807V17.2727H125.07V26H123.4V24.4886H123.309C123.108 24.9545 122.786 25.3428 122.343 25.6534C121.904 25.9602 121.356 26.1136 120.701 26.1136C120.14 26.1136 119.644 25.9905 119.212 25.7443C118.784 25.4943 118.447 25.125 118.201 24.6364C117.959 24.1477 117.837 23.5436 117.837 22.8239V17.2727H119.536V22.6193C119.536 23.214 119.701 23.6875 120.031 24.0398C120.36 24.392 120.788 24.5682 121.315 24.5682C121.633 24.5682 121.949 24.4886 122.263 24.3295C122.582 24.1705 122.845 23.9299 123.053 23.608C123.265 23.286 123.37 22.8769 123.366 22.3807ZM127.353 26V17.2727H128.995V18.6591H129.086C129.245 18.1894 129.525 17.8201 129.927 17.5511C130.332 17.2784 130.79 17.142 131.302 17.142C131.408 17.142 131.533 17.1458 131.677 17.1534C131.825 17.161 131.94 17.1705 132.023 17.1818V18.8068C131.955 18.7879 131.834 18.767 131.66 18.7443C131.486 18.7178 131.311 18.7045 131.137 18.7045C130.736 18.7045 130.378 18.7898 130.063 18.9602C129.753 19.1269 129.506 19.3598 129.325 19.6591C129.143 19.9545 129.052 20.2917 129.052 20.6705V26H127.353ZM135.955 26.1932C135.402 26.1932 134.902 26.0909 134.455 25.8864C134.008 25.678 133.654 25.3769 133.393 24.983C133.135 24.589 133.006 24.1061 133.006 23.5341C133.006 23.0417 133.101 22.6364 133.29 22.3182C133.48 22 133.736 21.7481 134.058 21.5625C134.379 21.3769 134.739 21.2367 135.137 21.142C135.535 21.0473 135.94 20.9754 136.353 20.9261C136.876 20.8655 137.3 20.8163 137.626 20.7784C137.951 20.7367 138.188 20.6705 138.336 20.5795C138.484 20.4886 138.558 20.3409 138.558 20.1364V20.0966C138.558 19.6004 138.417 19.2159 138.137 18.9432C137.861 18.6705 137.448 18.5341 136.898 18.5341C136.326 18.5341 135.876 18.661 135.546 18.9148C135.22 19.1648 134.995 19.4432 134.87 19.75L133.273 19.3864C133.463 18.8561 133.739 18.428 134.103 18.1023C134.47 17.7727 134.893 17.5341 135.37 17.3864C135.847 17.2348 136.349 17.1591 136.876 17.1591C137.224 17.1591 137.594 17.2008 137.984 17.2841C138.378 17.3636 138.745 17.5114 139.086 17.7273C139.431 17.9432 139.713 18.2519 139.933 18.6534C140.152 19.0511 140.262 19.5682 140.262 20.2045V26H138.603V24.8068H138.535C138.425 25.0265 138.26 25.2424 138.04 25.4545C137.821 25.6667 137.539 25.8428 137.194 25.983C136.849 26.1231 136.436 26.1932 135.955 26.1932ZM136.325 24.8295C136.794 24.8295 137.196 24.7367 137.529 24.5511C137.866 24.3655 138.122 24.1231 138.296 23.8239C138.474 23.5208 138.563 23.197 138.563 22.8523V21.7273C138.503 21.7879 138.385 21.8447 138.211 21.8977C138.04 21.947 137.845 21.9905 137.626 22.0284C137.406 22.0625 137.192 22.0947 136.984 22.125C136.775 22.1515 136.601 22.1742 136.461 22.1932C136.131 22.2348 135.83 22.3049 135.558 22.4034C135.289 22.5019 135.073 22.6439 134.91 22.8295C134.751 23.0114 134.671 23.2538 134.671 23.5568C134.671 23.9773 134.826 24.2955 135.137 24.5114C135.448 24.7235 135.844 24.8295 136.325 24.8295ZM146.599 17.2727V18.6364H141.832V17.2727H146.599ZM143.11 15.1818H144.809V23.4375C144.809 23.767 144.858 24.0152 144.957 24.1818C145.055 24.3447 145.182 24.4564 145.337 24.517C145.496 24.5739 145.669 24.6023 145.854 24.6023C145.991 24.6023 146.11 24.5928 146.212 24.5739C146.315 24.5549 146.394 24.5398 146.451 24.5284L146.758 25.9318C146.659 25.9697 146.519 26.0076 146.337 26.0455C146.156 26.0871 145.928 26.1098 145.656 26.1136C145.209 26.1212 144.792 26.0417 144.406 25.875C144.019 25.7083 143.707 25.4508 143.468 25.1023C143.229 24.7538 143.11 24.3163 143.11 23.7898V15.1818ZM148.478 26V17.2727H150.177V26H148.478ZM149.336 15.9261C149.04 15.9261 148.787 15.8277 148.575 15.6307C148.366 15.4299 148.262 15.1913 148.262 14.9148C148.262 14.6345 148.366 14.3958 148.575 14.1989C148.787 13.9981 149.04 13.8977 149.336 13.8977C149.631 13.8977 149.883 13.9981 150.092 14.1989C150.304 14.3958 150.41 14.6345 150.41 14.9148C150.41 15.1913 150.304 15.4299 150.092 15.6307C149.883 15.8277 149.631 15.9261 149.336 15.9261ZM156.138 26.1761C155.32 26.1761 154.606 25.9886 153.996 25.6136C153.387 25.2386 152.913 24.714 152.576 24.0398C152.239 23.3655 152.07 22.5777 152.07 21.6761C152.07 20.7708 152.239 19.9792 152.576 19.3011C152.913 18.6231 153.387 18.0966 153.996 17.7216C154.606 17.3466 155.32 17.1591 156.138 17.1591C156.957 17.1591 157.671 17.3466 158.281 17.7216C158.89 18.0966 159.364 18.6231 159.701 19.3011C160.038 19.9792 160.207 20.7708 160.207 21.6761C160.207 22.5777 160.038 23.3655 159.701 24.0398C159.364 24.714 158.89 25.2386 158.281 25.6136C157.671 25.9886 156.957 26.1761 156.138 26.1761ZM156.144 24.75C156.674 24.75 157.114 24.6098 157.462 24.3295C157.811 24.0492 158.068 23.6761 158.235 23.2102C158.406 22.7443 158.491 22.2311 158.491 21.6705C158.491 21.1136 158.406 20.6023 158.235 20.1364C158.068 19.6667 157.811 19.2898 157.462 19.0057C157.114 18.7216 156.674 18.5795 156.144 18.5795C155.61 18.5795 155.167 18.7216 154.815 19.0057C154.466 19.2898 154.207 19.6667 154.036 20.1364C153.87 20.6023 153.786 21.1136 153.786 21.6705C153.786 22.2311 153.87 22.7443 154.036 23.2102C154.207 23.6761 154.466 24.0492 154.815 24.3295C155.167 24.6098 155.61 24.75 156.144 24.75ZM163.802 20.8182V26H162.103V17.2727H163.734V18.6932H163.842C164.042 18.2311 164.357 17.8598 164.785 17.5795C165.217 17.2992 165.76 17.1591 166.415 17.1591C167.01 17.1591 167.531 17.2841 167.978 17.5341C168.425 17.7803 168.772 18.1477 169.018 18.6364C169.264 19.125 169.387 19.7292 169.387 20.4489V26H167.688V20.6534C167.688 20.0208 167.523 19.5265 167.194 19.1705C166.864 18.8106 166.412 18.6307 165.836 18.6307C165.442 18.6307 165.092 18.7159 164.785 18.8864C164.482 19.0568 164.241 19.3068 164.063 19.6364C163.889 19.9621 163.802 20.3561 163.802 20.8182Z" fill="white"/>
</svg>
