<svg width="208" height="40" viewBox="0 0 208 40" fill="none" xmlns="http://www.w3.org/2000/svg">
<path d="M199.703 0C204.121 0 207.703 3.58172 207.703 8V32C207.703 36.4183 204.121 40 199.703 40H8C3.58172 40 0 36.4183 0 32V8C0 3.58172 3.58172 0 8 0H199.703Z" fill="#DC2626"/>
<path d="M199.703 0C204.121 0 207.703 3.58172 207.703 8V32C207.703 36.4183 204.121 40 199.703 40H8C3.58172 40 0 36.4183 0 32V8C0 3.58172 3.58172 0 8 0H199.703Z" stroke="#E5E7EB"/>
<path d="M58.4453 16.4205C58.3847 15.8826 58.1347 15.4659 57.6953 15.1705C57.2559 14.8712 56.7029 14.7216 56.0362 14.7216C55.5589 14.7216 55.1461 14.7973 54.7976 14.9489C54.4491 15.0966 54.1783 15.3011 53.9851 15.5625C53.7957 15.8201 53.701 16.1136 53.701 16.4432C53.701 16.7197 53.7654 16.9583 53.8942 17.1591C54.0268 17.3598 54.1991 17.5284 54.4112 17.6648C54.6271 17.7973 54.8582 17.9091 55.1044 18C55.3506 18.0871 55.5874 18.1591 55.8146 18.2159L56.951 18.5114C57.3222 18.6023 57.7029 18.7254 58.093 18.8807C58.4832 19.036 58.8449 19.2405 59.1783 19.4943C59.5116 19.7481 59.7805 20.0625 59.9851 20.4375C60.1934 20.8125 60.2976 21.2614 60.2976 21.7841C60.2976 22.4432 60.1271 23.0284 59.7862 23.5398C59.4491 24.0511 58.9586 24.4545 58.3146 24.75C57.6745 25.0455 56.8999 25.1932 55.9908 25.1932C55.1196 25.1932 54.3658 25.0549 53.7294 24.7784C53.093 24.5019 52.5949 24.1098 52.2351 23.6023C51.8752 23.0909 51.6764 22.4848 51.6385 21.7841H53.3999C53.4339 22.2045 53.5703 22.5549 53.8089 22.8352C54.0514 23.1117 54.3601 23.3182 54.7351 23.4545C55.1139 23.5871 55.5286 23.6534 55.9794 23.6534C56.4756 23.6534 56.9169 23.5758 57.3033 23.4205C57.6934 23.2614 58.0002 23.0417 58.2237 22.7614C58.4472 22.4773 58.5589 22.1458 58.5589 21.767C58.5589 21.4223 58.4605 21.1402 58.2635 20.9205C58.0703 20.7008 57.8071 20.5189 57.4737 20.375C57.1442 20.2311 56.7711 20.1042 56.3544 19.9943L54.9794 19.6193C54.0476 19.3655 53.3089 18.9924 52.7635 18.5C52.2218 18.0076 51.951 17.3561 51.951 16.5455C51.951 15.875 52.1328 15.2898 52.4964 14.7898C52.8601 14.2898 53.3525 13.9015 53.9737 13.625C54.5949 13.3447 55.2957 13.2045 56.076 13.2045C56.8639 13.2045 57.5589 13.3428 58.1612 13.6193C58.7673 13.8958 59.2446 14.2765 59.593 14.7614C59.9415 15.2424 60.1233 15.7955 60.1385 16.4205H58.4453ZM67.7876 21.3807V16.2727H69.4922V25H67.8217V23.4886H67.7308C67.5301 23.9545 67.2081 24.3428 66.7649 24.6534C66.3255 24.9602 65.7782 25.1136 65.1229 25.1136C64.5623 25.1136 64.0661 24.9905 63.6342 24.7443C63.2062 24.4943 62.8691 24.125 62.6229 23.6364C62.3804 23.1477 62.2592 22.5436 62.2592 21.8239V16.2727H63.9581V21.6193C63.9581 22.214 64.1229 22.6875 64.4524 23.0398C64.782 23.392 65.21 23.5682 65.7365 23.5682C66.0547 23.5682 66.371 23.4886 66.6854 23.3295C67.0036 23.1705 67.2668 22.9299 67.4751 22.608C67.6873 22.286 67.7914 21.8769 67.7876 21.3807ZM78.3146 18.4034L76.7749 18.6761C76.7105 18.4792 76.6082 18.2917 76.468 18.1136C76.3317 17.9356 76.1461 17.7898 75.9112 17.6761C75.6764 17.5625 75.3828 17.5057 75.0305 17.5057C74.5495 17.5057 74.148 17.6136 73.826 17.8295C73.504 18.0417 73.343 18.3163 73.343 18.6534C73.343 18.9451 73.451 19.1799 73.6669 19.358C73.8828 19.536 74.2313 19.6818 74.7124 19.7955L76.0987 20.1136C76.9018 20.2992 77.5002 20.5852 77.8942 20.9716C78.2881 21.358 78.4851 21.8598 78.4851 22.4773C78.4851 23 78.3336 23.4659 78.0305 23.875C77.7313 24.2803 77.3127 24.5985 76.7749 24.8295C76.2408 25.0606 75.6214 25.1761 74.9169 25.1761C73.9396 25.1761 73.1423 24.9678 72.5249 24.5511C71.9074 24.1307 71.5286 23.5341 71.3885 22.7614L73.0305 22.5114C73.1328 22.9394 73.343 23.2633 73.6612 23.483C73.9794 23.6989 74.3942 23.8068 74.9055 23.8068C75.4624 23.8068 75.9074 23.6913 76.2408 23.4602C76.5741 23.2254 76.7408 22.9394 76.7408 22.6023C76.7408 22.3295 76.6385 22.1004 76.4339 21.9148C76.2332 21.7292 75.9245 21.589 75.5078 21.4943L74.0305 21.1705C73.2161 20.9848 72.6139 20.6894 72.2237 20.2841C71.8374 19.8788 71.6442 19.3655 71.6442 18.7443C71.6442 18.2292 71.7881 17.7784 72.076 17.392C72.3639 17.0057 72.7616 16.7045 73.2692 16.4886C73.7768 16.2689 74.3582 16.1591 75.0135 16.1591C75.9567 16.1591 76.6991 16.3636 77.2408 16.7727C77.7824 17.178 78.1404 17.7216 78.3146 18.4034ZM80.353 28.2727V16.2727H82.0121V17.6875H82.1541C82.2526 17.5057 82.3946 17.2955 82.5803 17.0568C82.7659 16.8182 83.0234 16.6098 83.353 16.4318C83.6825 16.25 84.1181 16.1591 84.6598 16.1591C85.3643 16.1591 85.9931 16.3371 86.5462 16.6932C87.0992 17.0492 87.5329 17.5625 87.8473 18.233C88.1655 18.9034 88.3246 19.7102 88.3246 20.6534C88.3246 21.5966 88.1674 22.4053 87.853 23.0795C87.5386 23.75 87.1068 24.267 86.5575 24.6307C86.0083 24.9905 85.3814 25.1705 84.6768 25.1705C84.1465 25.1705 83.7128 25.0814 83.3757 24.9034C83.0424 24.7254 82.781 24.517 82.5916 24.2784C82.4022 24.0398 82.2564 23.8277 82.1541 23.642H82.0518V28.2727H80.353ZM82.0178 20.6364C82.0178 21.25 82.1068 21.7879 82.2848 22.25C82.4628 22.7121 82.7204 23.0739 83.0575 23.3352C83.3946 23.5928 83.8075 23.7216 84.2962 23.7216C84.8037 23.7216 85.228 23.5871 85.5689 23.3182C85.9098 23.0455 86.1674 22.6761 86.3416 22.2102C86.5196 21.7443 86.6087 21.2197 86.6087 20.6364C86.6087 20.0606 86.5215 19.5436 86.3473 19.0852C86.1768 18.6269 85.9193 18.2652 85.5746 18C85.2337 17.7348 84.8075 17.6023 84.2962 17.6023C83.8037 17.6023 83.3871 17.7292 83.0462 17.983C82.709 18.2367 82.4534 18.5909 82.2791 19.0455C82.1049 19.5 82.0178 20.0303 82.0178 20.6364ZM93.9893 25.1761C93.1295 25.1761 92.389 24.9924 91.7678 24.625C91.1503 24.2538 90.6731 23.733 90.3359 23.0625C90.0026 22.3883 89.8359 21.5985 89.8359 20.6932C89.8359 19.7992 90.0026 19.0114 90.3359 18.3295C90.6731 17.6477 91.1428 17.1155 91.745 16.733C92.3511 16.3504 93.0594 16.1591 93.87 16.1591C94.3625 16.1591 94.8397 16.2405 95.3018 16.4034C95.764 16.5663 96.1787 16.822 96.5462 17.1705C96.9136 17.5189 97.2034 17.9716 97.4155 18.5284C97.6276 19.0814 97.7337 19.7538 97.7337 20.5455V21.1477H90.7962V19.875H96.0689C96.0689 19.428 95.978 19.0322 95.7962 18.6875C95.6143 18.339 95.3587 18.0644 95.0291 17.8636C94.7034 17.6629 94.3208 17.5625 93.8814 17.5625C93.4041 17.5625 92.9875 17.6799 92.6314 17.9148C92.2791 18.1458 92.0064 18.4489 91.8132 18.8239C91.6238 19.1951 91.5291 19.5985 91.5291 20.0341V21.0284C91.5291 21.6117 91.6314 22.108 91.8359 22.517C92.0443 22.9261 92.334 23.2386 92.7053 23.4545C93.0765 23.6667 93.5102 23.7727 94.0064 23.7727C94.3284 23.7727 94.6219 23.7273 94.8871 23.6364C95.1522 23.5417 95.3814 23.4015 95.5746 23.2159C95.7678 23.0303 95.9155 22.8011 96.0178 22.5284L97.6257 22.8182C97.4969 23.2917 97.2659 23.7064 96.9325 24.0625C96.603 24.4148 96.1882 24.6894 95.6882 24.8864C95.192 25.0795 94.6257 25.1761 93.9893 25.1761ZM101.317 19.8182V25H99.6186V16.2727H101.249V17.6932H101.357C101.558 17.2311 101.872 16.8598 102.3 16.5795C102.732 16.2992 103.276 16.1591 103.931 16.1591C104.526 16.1591 105.047 16.2841 105.494 16.5341C105.941 16.7803 106.287 17.1477 106.533 17.6364C106.78 18.125 106.903 18.7292 106.903 19.4489V25H105.204V19.6534C105.204 19.0208 105.039 18.5265 104.71 18.1705C104.38 17.8106 103.927 17.6307 103.352 17.6307C102.958 17.6307 102.607 17.7159 102.3 17.8864C101.997 18.0568 101.757 18.3068 101.579 18.6364C101.405 18.9621 101.317 19.3561 101.317 19.8182ZM112.448 25.1705C111.744 25.1705 111.115 24.9905 110.562 24.6307C110.013 24.267 109.581 23.75 109.266 23.0795C108.956 22.4053 108.8 21.5966 108.8 20.6534C108.8 19.7102 108.958 18.9034 109.272 18.233C109.59 17.5625 110.026 17.0492 110.579 16.6932C111.132 16.3371 111.759 16.1591 112.46 16.1591C113.001 16.1591 113.437 16.25 113.766 16.4318C114.1 16.6098 114.357 16.8182 114.539 17.0568C114.725 17.2955 114.869 17.5057 114.971 17.6875H115.073V13.3636H116.772V25H115.113V23.642H114.971C114.869 23.8277 114.721 24.0398 114.528 24.2784C114.338 24.517 114.077 24.7254 113.744 24.9034C113.41 25.0814 112.978 25.1705 112.448 25.1705ZM112.823 23.7216C113.312 23.7216 113.725 23.5928 114.062 23.3352C114.403 23.0739 114.66 22.7121 114.835 22.25C115.013 21.7879 115.102 21.25 115.102 20.6364C115.102 20.0303 115.014 19.5 114.84 19.0455C114.666 18.5909 114.41 18.2367 114.073 17.983C113.736 17.7292 113.319 17.6023 112.823 17.6023C112.312 17.6023 111.886 17.7348 111.545 18C111.204 18.2652 110.946 18.6269 110.772 19.0852C110.602 19.5436 110.516 20.0606 110.516 20.6364C110.516 21.2197 110.603 21.7443 110.778 22.2102C110.952 22.6761 111.21 23.0455 111.55 23.3182C111.895 23.5871 112.319 23.7216 112.823 23.7216ZM124.55 25H122.687L126.874 13.3636H128.903L133.09 25H131.227L127.937 15.4773H127.846L124.55 25ZM124.863 20.4432H130.908V21.9205H124.863V20.4432ZM138.17 25.1761C137.325 25.1761 136.598 24.9848 135.988 24.6023C135.382 24.2159 134.916 23.6837 134.59 23.0057C134.264 22.3277 134.102 21.5511 134.102 20.6761C134.102 19.7898 134.268 19.0076 134.602 18.3295C134.935 17.6477 135.405 17.1155 136.011 16.733C136.617 16.3504 137.331 16.1591 138.153 16.1591C138.816 16.1591 139.406 16.2822 139.925 16.5284C140.444 16.7708 140.863 17.1117 141.181 17.5511C141.503 17.9905 141.694 18.5038 141.755 19.0909H140.102C140.011 18.6818 139.802 18.3295 139.477 18.0341C139.155 17.7386 138.723 17.5909 138.181 17.5909C137.708 17.5909 137.293 17.7159 136.937 17.9659C136.585 18.2121 136.31 18.5644 136.113 19.0227C135.916 19.4773 135.817 20.0152 135.817 20.6364C135.817 21.2727 135.914 21.822 136.107 22.2841C136.3 22.7462 136.573 23.1042 136.925 23.358C137.281 23.6117 137.7 23.7386 138.181 23.7386C138.503 23.7386 138.795 23.6799 139.056 23.5625C139.321 23.4413 139.543 23.2689 139.721 23.0455C139.903 22.822 140.03 22.553 140.102 22.2386H141.755C141.694 22.803 141.511 23.3068 141.204 23.75C140.897 24.1932 140.486 24.5417 139.971 24.7955C139.46 25.0492 138.859 25.1761 138.17 25.1761ZM147.248 25.1761C146.403 25.1761 145.676 24.9848 145.066 24.6023C144.46 24.2159 143.994 23.6837 143.668 23.0057C143.343 22.3277 143.18 21.5511 143.18 20.6761C143.18 19.7898 143.346 19.0076 143.68 18.3295C144.013 17.6477 144.483 17.1155 145.089 16.733C145.695 16.3504 146.409 16.1591 147.231 16.1591C147.894 16.1591 148.485 16.2822 149.004 16.5284C149.522 16.7708 149.941 17.1117 150.259 17.5511C150.581 17.9905 150.772 18.5038 150.833 19.0909H149.18C149.089 18.6818 148.88 18.3295 148.555 18.0341C148.233 17.7386 147.801 17.5909 147.259 17.5909C146.786 17.5909 146.371 17.7159 146.015 17.9659C145.663 18.2121 145.388 18.5644 145.191 19.0227C144.994 19.4773 144.896 20.0152 144.896 20.6364C144.896 21.2727 144.992 21.822 145.185 22.2841C145.379 22.7462 145.651 23.1042 146.004 23.358C146.36 23.6117 146.778 23.7386 147.259 23.7386C147.581 23.7386 147.873 23.6799 148.134 23.5625C148.399 23.4413 148.621 23.2689 148.799 23.0455C148.981 22.822 149.108 22.553 149.18 22.2386H150.833C150.772 22.803 150.589 23.3068 150.282 23.75C149.975 24.1932 149.564 24.5417 149.049 24.7955C148.538 25.0492 147.937 25.1761 147.248 25.1761ZM156.326 25.1761C155.508 25.1761 154.794 24.9886 154.184 24.6136C153.574 24.2386 153.101 23.714 152.763 23.0398C152.426 22.3655 152.258 21.5777 152.258 20.6761C152.258 19.7708 152.426 18.9792 152.763 18.3011C153.101 17.6231 153.574 17.0966 154.184 16.7216C154.794 16.3466 155.508 16.1591 156.326 16.1591C157.144 16.1591 157.858 16.3466 158.468 16.7216C159.078 17.0966 159.551 17.6231 159.888 18.3011C160.226 18.9792 160.394 19.7708 160.394 20.6761C160.394 21.5777 160.226 22.3655 159.888 23.0398C159.551 23.714 159.078 24.2386 158.468 24.6136C157.858 24.9886 157.144 25.1761 156.326 25.1761ZM156.332 23.75C156.862 23.75 157.301 23.6098 157.65 23.3295C157.998 23.0492 158.256 22.6761 158.423 22.2102C158.593 21.7443 158.678 21.2311 158.678 20.6705C158.678 20.1136 158.593 19.6023 158.423 19.1364C158.256 18.6667 157.998 18.2898 157.65 18.0057C157.301 17.7216 156.862 17.5795 156.332 17.5795C155.798 17.5795 155.354 17.7216 155.002 18.0057C154.654 18.2898 154.394 18.6667 154.224 19.1364C154.057 19.6023 153.974 20.1136 153.974 20.6705C153.974 21.2311 154.057 21.7443 154.224 22.2102C154.394 22.6761 154.654 23.0492 155.002 23.3295C155.354 23.6098 155.798 23.75 156.332 23.75ZM167.819 21.3807V16.2727H169.523V25H167.853V23.4886H167.762C167.561 23.9545 167.239 24.3428 166.796 24.6534C166.357 24.9602 165.809 25.1136 165.154 25.1136C164.594 25.1136 164.097 24.9905 163.665 24.7443C163.237 24.4943 162.9 24.125 162.654 23.6364C162.412 23.1477 162.29 22.5436 162.29 21.8239V16.2727H163.989V21.6193C163.989 22.214 164.154 22.6875 164.484 23.0398C164.813 23.392 165.241 23.5682 165.768 23.5682C166.086 23.5682 166.402 23.4886 166.717 23.3295C167.035 23.1705 167.298 22.9299 167.506 22.608C167.719 22.286 167.823 21.8769 167.819 21.3807ZM173.505 19.8182V25H171.806V16.2727H173.437V17.6932H173.545C173.746 17.2311 174.06 16.8598 174.488 16.5795C174.92 16.2992 175.463 16.1591 176.119 16.1591C176.713 16.1591 177.234 16.2841 177.681 16.5341C178.128 16.7803 178.475 17.1477 178.721 17.6364C178.967 18.125 179.09 18.7292 179.09 19.4489V25H177.391V19.6534C177.391 19.0208 177.227 18.5265 176.897 18.1705C176.567 17.8106 176.115 17.6307 175.539 17.6307C175.145 17.6307 174.795 17.7159 174.488 17.8864C174.185 18.0568 173.944 18.3068 173.766 18.6364C173.592 18.9621 173.505 19.3561 173.505 19.8182ZM185.442 16.2727V17.6364H180.675V16.2727H185.442ZM181.954 14.1818H183.653V22.4375C183.653 22.767 183.702 23.0152 183.8 23.1818C183.899 23.3447 184.026 23.4564 184.181 23.517C184.34 23.5739 184.513 23.6023 184.698 23.6023C184.835 23.6023 184.954 23.5928 185.056 23.5739C185.158 23.5549 185.238 23.5398 185.295 23.5284L185.602 24.9318C185.503 24.9697 185.363 25.0076 185.181 25.0455C184.999 25.0871 184.772 25.1098 184.499 25.1136C184.052 25.1212 183.636 25.0417 183.249 24.875C182.863 24.7083 182.55 24.4508 182.312 24.1023C182.073 23.7538 181.954 23.3163 181.954 22.7898V14.1818Z" fill="white"/>
<path d="M19.6634 13.929L33.8044 28.071M36.7344 21C36.7344 26.5228 32.2572 31 26.7344 31C21.2115 31 16.7344 26.5228 16.7344 21C16.7344 15.4772 21.2115 11 26.7344 11C32.2572 11 36.7344 15.4772 36.7344 21Z" stroke="white" stroke-width="2" stroke-linecap="round" stroke-linejoin="round"/>
</svg>
