<svg width="227" height="43" viewBox="0 0 227 43" fill="none" xmlns="http://www.w3.org/2000/svg">
<path d="M219 0C223.418 0 227 3.58172 227 8V35C227 39.4183 223.418 43 219 43H8C3.58172 43 0 39.4183 0 35V8C5.15405e-07 3.58172 3.58172 0 8 0H219Z" fill="#059669"/>
<path d="M219 0C223.418 0 227 3.58172 227 8V35C227 39.4183 223.418 43 219 43H8C3.58172 43 0 39.4183 0 35V8C5.15405e-07 3.58172 3.58172 0 8 0H219Z" stroke="#E5E7EB"/>
<path d="M39.3473 15.3636H41.1087V23.017C41.1087 23.8314 40.9174 24.553 40.5348 25.1818C40.1522 25.8068 39.6143 26.2992 38.9212 26.6591C38.228 27.0152 37.4155 27.1932 36.4837 27.1932C35.5556 27.1932 34.745 27.0152 34.0518 26.6591C33.3587 26.2992 32.8208 25.8068 32.4382 25.1818C32.0556 24.553 31.8643 23.8314 31.8643 23.017V15.3636H33.62V22.875C33.62 23.4015 33.7356 23.8693 33.9666 24.2784C34.2015 24.6875 34.5329 25.0095 34.9609 25.2443C35.389 25.4754 35.8965 25.5909 36.4837 25.5909C37.0746 25.5909 37.584 25.4754 38.0121 25.2443C38.4439 25.0095 38.7734 24.6875 39.0007 24.2784C39.2318 23.8693 39.3473 23.4015 39.3473 22.875V15.3636ZM43.5249 30.2727V18.2727H45.1839V19.6875H45.326C45.4245 19.5057 45.5665 19.2955 45.7521 19.0568C45.9377 18.8182 46.1953 18.6098 46.5249 18.4318C46.8544 18.25 47.29 18.1591 47.8317 18.1591C48.5362 18.1591 49.165 18.3371 49.718 18.6932C50.2711 19.0492 50.7048 19.5625 51.0192 20.233C51.3374 20.9034 51.4964 21.7102 51.4964 22.6534C51.4964 23.5966 51.3393 24.4053 51.0249 25.0795C50.7105 25.75 50.2786 26.267 49.7294 26.6307C49.1802 26.9905 48.5533 27.1705 47.8487 27.1705C47.3184 27.1705 46.8847 27.0814 46.5476 26.9034C46.2143 26.7254 45.9529 26.517 45.7635 26.2784C45.5741 26.0398 45.4283 25.8277 45.326 25.642H45.2237V30.2727H43.5249ZM45.1896 22.6364C45.1896 23.25 45.2786 23.7879 45.4567 24.25C45.6347 24.7121 45.8923 25.0739 46.2294 25.3352C46.5665 25.5928 46.9794 25.7216 47.468 25.7216C47.9756 25.7216 48.3999 25.5871 48.7408 25.3182C49.0817 25.0455 49.3393 24.6761 49.5135 24.2102C49.6915 23.7443 49.7805 23.2197 49.7805 22.6364C49.7805 22.0606 49.6934 21.5436 49.5192 21.0852C49.3487 20.6269 49.0911 20.2652 48.7464 20C48.4055 19.7348 47.9794 19.6023 47.468 19.6023C46.9756 19.6023 46.5589 19.7292 46.218 19.983C45.8809 20.2367 45.6252 20.5909 45.451 21.0455C45.2768 21.5 45.1896 22.0303 45.1896 22.6364ZM56.6669 27.1705C55.9624 27.1705 55.3336 26.9905 54.7805 26.6307C54.2313 26.267 53.7995 25.75 53.4851 25.0795C53.1745 24.4053 53.0192 23.5966 53.0192 22.6534C53.0192 21.7102 53.1764 20.9034 53.4908 20.233C53.8089 19.5625 54.2446 19.0492 54.7976 18.6932C55.3506 18.3371 55.9775 18.1591 56.6783 18.1591C57.2199 18.1591 57.6555 18.25 57.9851 18.4318C58.3184 18.6098 58.576 18.8182 58.7578 19.0568C58.9434 19.2955 59.0874 19.5057 59.1896 19.6875H59.2919V15.3636H60.9908V27H59.3317V25.642H59.1896C59.0874 25.8277 58.9396 26.0398 58.7464 26.2784C58.5571 26.517 58.2957 26.7254 57.9624 26.9034C57.629 27.0814 57.1972 27.1705 56.6669 27.1705ZM57.0419 25.7216C57.5305 25.7216 57.9434 25.5928 58.2805 25.3352C58.6214 25.0739 58.879 24.7121 59.0533 24.25C59.2313 23.7879 59.3203 23.25 59.3203 22.6364C59.3203 22.0303 59.2332 21.5 59.0589 21.0455C58.8847 20.5909 58.629 20.2367 58.2919 19.983C57.9548 19.7292 57.5381 19.6023 57.0419 19.6023C56.5305 19.6023 56.1044 19.7348 55.7635 20C55.4226 20.2652 55.165 20.6269 54.9908 21.0852C54.8203 21.5436 54.7351 22.0606 54.7351 22.6364C54.7351 23.2197 54.8222 23.7443 54.9964 24.2102C55.1707 24.6761 55.4283 25.0455 55.7692 25.3182C56.1139 25.5871 56.5381 25.7216 57.0419 25.7216ZM65.9553 27.1932C65.4022 27.1932 64.9022 27.0909 64.4553 26.8864C64.0083 26.678 63.6541 26.3769 63.3928 25.983C63.1352 25.589 63.0064 25.1061 63.0064 24.5341C63.0064 24.0417 63.1011 23.6364 63.2905 23.3182C63.4799 23 63.7356 22.7481 64.0575 22.5625C64.3795 22.3769 64.7393 22.2367 65.1371 22.142C65.5348 22.0473 65.9401 21.9754 66.353 21.9261C66.8757 21.8655 67.3 21.8163 67.6257 21.7784C67.9515 21.7367 68.1882 21.6705 68.3359 21.5795C68.4837 21.4886 68.5575 21.3409 68.5575 21.1364V21.0966C68.5575 20.6004 68.4174 20.2159 68.1371 19.9432C67.8606 19.6705 67.4477 19.5341 66.8984 19.5341C66.3265 19.5341 65.8757 19.661 65.5462 19.9148C65.2204 20.1648 64.995 20.4432 64.87 20.75L63.2734 20.3864C63.4628 19.8561 63.7393 19.428 64.103 19.1023C64.4704 18.7727 64.8928 18.5341 65.37 18.3864C65.8473 18.2348 66.3492 18.1591 66.8757 18.1591C67.2242 18.1591 67.5935 18.2008 67.9837 18.2841C68.3776 18.3636 68.745 18.5114 69.0859 18.7273C69.4306 18.9432 69.7128 19.2519 69.9325 19.6534C70.1522 20.0511 70.2621 20.5682 70.2621 21.2045V27H68.603V25.8068H68.5348C68.425 26.0265 68.2602 26.2424 68.0405 26.4545C67.8208 26.6667 67.5386 26.8428 67.1939 26.983C66.8492 27.1231 66.4363 27.1932 65.9553 27.1932ZM66.3246 25.8295C66.7943 25.8295 67.1958 25.7367 67.5291 25.5511C67.8662 25.3655 68.1219 25.1231 68.2962 24.8239C68.4742 24.5208 68.5632 24.197 68.5632 23.8523V22.7273C68.5026 22.7879 68.3852 22.8447 68.2109 22.8977C68.0405 22.947 67.8454 22.9905 67.6257 23.0284C67.406 23.0625 67.192 23.0947 66.9837 23.125C66.7753 23.1515 66.6011 23.1742 66.4609 23.1932C66.1314 23.2348 65.8303 23.3049 65.5575 23.4034C65.2886 23.5019 65.0727 23.6439 64.9098 23.8295C64.7507 24.0114 64.6712 24.2538 64.6712 24.5568C64.6712 24.9773 64.8265 25.2955 65.1371 25.5114C65.4477 25.7235 65.8435 25.8295 66.3246 25.8295ZM76.5987 18.2727V19.6364H71.8317V18.2727H76.5987ZM73.1101 16.1818H74.8089V24.4375C74.8089 24.767 74.8582 25.0152 74.9567 25.1818C75.0552 25.3447 75.1821 25.4564 75.3374 25.517C75.4964 25.5739 75.6688 25.6023 75.8544 25.6023C75.9908 25.6023 76.1101 25.5928 76.2124 25.5739C76.3146 25.5549 76.3942 25.5398 76.451 25.5284L76.7578 26.9318C76.6593 26.9697 76.5192 27.0076 76.3374 27.0455C76.1555 27.0871 75.9283 27.1098 75.6555 27.1136C75.2086 27.1212 74.7919 27.0417 74.4055 26.875C74.0192 26.7083 73.7067 26.4508 73.468 26.1023C73.2294 25.7538 73.1101 25.3163 73.1101 24.7898V16.1818ZM82.1456 27.1761C81.2857 27.1761 80.5452 26.9924 79.924 26.625C79.3066 26.2538 78.8293 25.733 78.4922 25.0625C78.1589 24.3883 77.9922 23.5985 77.9922 22.6932C77.9922 21.7992 78.1589 21.0114 78.4922 20.3295C78.8293 19.6477 79.299 19.1155 79.9013 18.733C80.5073 18.3504 81.2157 18.1591 82.0263 18.1591C82.5187 18.1591 82.996 18.2405 83.4581 18.4034C83.9202 18.5663 84.335 18.822 84.7024 19.1705C85.0698 19.5189 85.3596 19.9716 85.5717 20.5284C85.7839 21.0814 85.8899 21.7538 85.8899 22.5455V23.1477H78.9524V21.875H84.2251C84.2251 21.428 84.1342 21.0322 83.9524 20.6875C83.7706 20.339 83.5149 20.0644 83.1854 19.8636C82.8596 19.6629 82.477 19.5625 82.0376 19.5625C81.5604 19.5625 81.1437 19.6799 80.7876 19.9148C80.4354 20.1458 80.1626 20.4489 79.9695 20.8239C79.7801 21.1951 79.6854 21.5985 79.6854 22.0341V23.0284C79.6854 23.6117 79.7876 24.108 79.9922 24.517C80.2005 24.9261 80.4903 25.2386 80.8615 25.4545C81.2327 25.6667 81.6664 25.7727 82.1626 25.7727C82.4846 25.7727 82.7782 25.7273 83.0433 25.6364C83.3085 25.5417 83.5376 25.4015 83.7308 25.2159C83.924 25.0303 84.0717 24.8011 84.174 24.5284L85.782 24.8182C85.6532 25.2917 85.4221 25.7064 85.0888 26.0625C84.7592 26.4148 84.3445 26.6894 83.8445 26.8864C83.3482 27.0795 82.782 27.1761 82.1456 27.1761ZM93.1286 27H91.2649L95.4524 15.3636H97.4808L101.668 27H99.8047L96.5149 17.4773H96.424L93.1286 27ZM93.4411 22.4432H99.4865V23.9205H93.4411V22.4432ZM106.339 27.1705C105.634 27.1705 105.005 26.9905 104.452 26.6307C103.903 26.267 103.471 25.75 103.157 25.0795C102.846 24.4053 102.691 23.5966 102.691 22.6534C102.691 21.7102 102.848 20.9034 103.163 20.233C103.481 19.5625 103.916 19.0492 104.469 18.6932C105.022 18.3371 105.649 18.1591 106.35 18.1591C106.892 18.1591 107.327 18.25 107.657 18.4318C107.99 18.6098 108.248 18.8182 108.43 19.0568C108.615 19.2955 108.759 19.5057 108.862 19.6875H108.964V15.3636H110.663V27H109.004V25.642H108.862C108.759 25.8277 108.612 26.0398 108.418 26.2784C108.229 26.517 107.968 26.7254 107.634 26.9034C107.301 27.0814 106.869 27.1705 106.339 27.1705ZM106.714 25.7216C107.202 25.7216 107.615 25.5928 107.952 25.3352C108.293 25.0739 108.551 24.7121 108.725 24.25C108.903 23.7879 108.992 23.25 108.992 22.6364C108.992 22.0303 108.905 21.5 108.731 21.0455C108.557 20.5909 108.301 20.2367 107.964 19.983C107.627 19.7292 107.21 19.6023 106.714 19.6023C106.202 19.6023 105.776 19.7348 105.435 20C105.094 20.2652 104.837 20.6269 104.663 21.0852C104.492 21.5436 104.407 22.0606 104.407 22.6364C104.407 23.2197 104.494 23.7443 104.668 24.2102C104.843 24.6761 105.1 25.0455 105.441 25.3182C105.786 25.5871 106.21 25.7216 106.714 25.7216ZM113.087 27V18.2727H114.718V19.6932H114.826C115.008 19.2121 115.305 18.8371 115.718 18.5682C116.131 18.2955 116.625 18.1591 117.201 18.1591C117.784 18.1591 118.273 18.2955 118.667 18.5682C119.065 18.8409 119.358 19.2159 119.548 19.6932H119.638C119.847 19.2273 120.178 18.8561 120.633 18.5795C121.087 18.2992 121.629 18.1591 122.258 18.1591C123.049 18.1591 123.695 18.4072 124.195 18.9034C124.699 19.3996 124.951 20.1477 124.951 21.1477V27H123.252V21.3068C123.252 20.7159 123.091 20.2879 122.769 20.0227C122.447 19.7576 122.063 19.625 121.616 19.625C121.063 19.625 120.633 19.7955 120.326 20.1364C120.019 20.4735 119.866 20.9072 119.866 21.4375V27H118.173V21.1989C118.173 20.7254 118.025 20.3447 117.729 20.0568C117.434 19.7689 117.049 19.625 116.576 19.625C116.254 19.625 115.957 19.7102 115.684 19.8807C115.415 20.0473 115.197 20.2803 115.031 20.5795C114.868 20.8788 114.786 21.2254 114.786 21.6193V27H113.087ZM127.228 27V18.2727H128.927V27H127.228ZM128.086 16.9261C127.79 16.9261 127.537 16.8277 127.325 16.6307C127.116 16.4299 127.012 16.1913 127.012 15.9148C127.012 15.6345 127.116 15.3958 127.325 15.1989C127.537 14.9981 127.79 14.8977 128.086 14.8977C128.381 14.8977 128.633 14.9981 128.842 15.1989C129.054 15.3958 129.16 15.6345 129.16 15.9148C129.16 16.1913 129.054 16.4299 128.842 16.6307C128.633 16.8277 128.381 16.9261 128.086 16.9261ZM132.911 21.8182V27H131.212V18.2727H132.843V19.6932H132.951C133.152 19.2311 133.466 18.8598 133.894 18.5795C134.326 18.2992 134.87 18.1591 135.525 18.1591C136.12 18.1591 136.64 18.2841 137.087 18.5341C137.534 18.7803 137.881 19.1477 138.127 19.6364C138.373 20.125 138.496 20.7292 138.496 21.4489V27H136.798V21.6534C136.798 21.0208 136.633 20.5265 136.303 20.1705C135.974 19.8106 135.521 19.6307 134.945 19.6307C134.551 19.6307 134.201 19.7159 133.894 19.8864C133.591 20.0568 133.351 20.3068 133.173 20.6364C132.998 20.9621 132.911 21.3561 132.911 21.8182ZM148.913 27H145.146V15.3636H149.032C150.172 15.3636 151.151 15.5966 151.969 16.0625C152.788 16.5246 153.415 17.1894 153.85 18.0568C154.29 18.9205 154.509 19.9564 154.509 21.1648C154.509 22.3769 154.288 23.4186 153.844 24.2898C153.405 25.161 152.769 25.8314 151.935 26.3011C151.102 26.767 150.094 27 148.913 27ZM146.901 25.4659H148.816C149.702 25.4659 150.439 25.2992 151.026 24.9659C151.613 24.6288 152.053 24.142 152.344 23.5057C152.636 22.8655 152.782 22.0852 152.782 21.1648C152.782 20.2519 152.636 19.4773 152.344 18.8409C152.057 18.2045 151.627 17.7216 151.055 17.392C150.483 17.0625 149.772 16.8977 148.924 16.8977H146.901V25.4659ZM160.317 27.1761C159.458 27.1761 158.717 26.9924 158.096 26.625C157.478 26.2538 157.001 25.733 156.664 25.0625C156.331 24.3883 156.164 23.5985 156.164 22.6932C156.164 21.7992 156.331 21.0114 156.664 20.3295C157.001 19.6477 157.471 19.1155 158.073 18.733C158.679 18.3504 159.388 18.1591 160.198 18.1591C160.691 18.1591 161.168 18.2405 161.63 18.4034C162.092 18.5663 162.507 18.822 162.874 19.1705C163.242 19.5189 163.531 19.9716 163.744 20.5284C163.956 21.0814 164.062 21.7538 164.062 22.5455V23.1477H157.124V21.875H162.397C162.397 21.428 162.306 21.0322 162.124 20.6875C161.942 20.339 161.687 20.0644 161.357 19.8636C161.031 19.6629 160.649 19.5625 160.21 19.5625C159.732 19.5625 159.316 19.6799 158.96 19.9148C158.607 20.1458 158.335 20.4489 158.141 20.8239C157.952 21.1951 157.857 21.5985 157.857 22.0341V23.0284C157.857 23.6117 157.96 24.108 158.164 24.517C158.372 24.9261 158.662 25.2386 159.033 25.4545C159.405 25.6667 159.838 25.7727 160.335 25.7727C160.656 25.7727 160.95 25.7273 161.215 25.6364C161.48 25.5417 161.71 25.4015 161.903 25.2159C162.096 25.0303 162.244 24.8011 162.346 24.5284L163.954 24.8182C163.825 25.2917 163.594 25.7064 163.261 26.0625C162.931 26.4148 162.516 26.6894 162.016 26.8864C161.52 27.0795 160.954 27.1761 160.317 27.1761ZM170.021 18.2727V19.6364H165.254V18.2727H170.021ZM166.532 16.1818H168.231V24.4375C168.231 24.767 168.28 25.0152 168.379 25.1818C168.477 25.3447 168.604 25.4564 168.759 25.517C168.918 25.5739 169.091 25.6023 169.276 25.6023C169.413 25.6023 169.532 25.5928 169.634 25.5739C169.737 25.5549 169.816 25.5398 169.873 25.5284L170.18 26.9318C170.081 26.9697 169.941 27.0076 169.759 27.0455C169.577 27.0871 169.35 27.1098 169.077 27.1136C168.63 27.1212 168.214 27.0417 167.827 26.875C167.441 26.7083 167.129 26.4508 166.89 26.1023C166.651 25.7538 166.532 25.3163 166.532 24.7898V16.1818ZM174.44 27.1932C173.887 27.1932 173.387 27.0909 172.94 26.8864C172.493 26.678 172.138 26.3769 171.877 25.983C171.62 25.589 171.491 25.1061 171.491 24.5341C171.491 24.0417 171.585 23.6364 171.775 23.3182C171.964 23 172.22 22.7481 172.542 22.5625C172.864 22.3769 173.224 22.2367 173.621 22.142C174.019 22.0473 174.424 21.9754 174.837 21.9261C175.36 21.8655 175.784 21.8163 176.11 21.7784C176.436 21.7367 176.673 21.6705 176.82 21.5795C176.968 21.4886 177.042 21.3409 177.042 21.1364V21.0966C177.042 20.6004 176.902 20.2159 176.621 19.9432C176.345 19.6705 175.932 19.5341 175.383 19.5341C174.811 19.5341 174.36 19.661 174.031 19.9148C173.705 20.1648 173.479 20.4432 173.354 20.75L171.758 20.3864C171.947 19.8561 172.224 19.428 172.587 19.1023C172.955 18.7727 173.377 18.5341 173.854 18.3864C174.332 18.2348 174.834 18.1591 175.36 18.1591C175.709 18.1591 176.078 18.2008 176.468 18.2841C176.862 18.3636 177.229 18.5114 177.57 18.7273C177.915 18.9432 178.197 19.2519 178.417 19.6534C178.637 20.0511 178.746 20.5682 178.746 21.2045V27H177.087V25.8068H177.019C176.909 26.0265 176.745 26.2424 176.525 26.4545C176.305 26.6667 176.023 26.8428 175.678 26.983C175.334 27.1231 174.921 27.1932 174.44 27.1932ZM174.809 25.8295C175.279 25.8295 175.68 25.7367 176.013 25.5511C176.351 25.3655 176.606 25.1231 176.781 24.8239C176.959 24.5208 177.048 24.197 177.048 23.8523V22.7273C176.987 22.7879 176.87 22.8447 176.695 22.8977C176.525 22.947 176.33 22.9905 176.11 23.0284C175.89 23.0625 175.676 23.0947 175.468 23.125C175.26 23.1515 175.085 23.1742 174.945 23.1932C174.616 23.2348 174.315 23.3049 174.042 23.4034C173.773 23.5019 173.557 23.6439 173.394 23.8295C173.235 24.0114 173.156 24.2538 173.156 24.5568C173.156 24.9773 173.311 25.2955 173.621 25.5114C173.932 25.7235 174.328 25.8295 174.809 25.8295ZM181.009 27V18.2727H182.708V27H181.009ZM181.867 16.9261C181.572 16.9261 181.318 16.8277 181.106 16.6307C180.897 16.4299 180.793 16.1913 180.793 15.9148C180.793 15.6345 180.897 15.3958 181.106 15.1989C181.318 14.9981 181.572 14.8977 181.867 14.8977C182.163 14.8977 182.415 14.9981 182.623 15.1989C182.835 15.3958 182.941 15.6345 182.941 15.9148C182.941 16.1913 182.835 16.4299 182.623 16.6307C182.415 16.8277 182.163 16.9261 181.867 16.9261ZM186.692 15.3636V27H184.994V15.3636H186.692ZM195.518 20.4034L193.978 20.6761C193.914 20.4792 193.811 20.2917 193.671 20.1136C193.535 19.9356 193.349 19.7898 193.114 19.6761C192.879 19.5625 192.586 19.5057 192.234 19.5057C191.753 19.5057 191.351 19.6136 191.029 19.8295C190.707 20.0417 190.546 20.3163 190.546 20.6534C190.546 20.9451 190.654 21.1799 190.87 21.358C191.086 21.536 191.434 21.6818 191.915 21.7955L193.302 22.1136C194.105 22.2992 194.703 22.5852 195.097 22.9716C195.491 23.358 195.688 23.8598 195.688 24.4773C195.688 25 195.537 25.4659 195.234 25.875C194.934 26.2803 194.516 26.5985 193.978 26.8295C193.444 27.0606 192.825 27.1761 192.12 27.1761C191.143 27.1761 190.345 26.9678 189.728 26.5511C189.111 26.1307 188.732 25.5341 188.592 24.7614L190.234 24.5114C190.336 24.9394 190.546 25.2633 190.864 25.483C191.183 25.6989 191.597 25.8068 192.109 25.8068C192.665 25.8068 193.111 25.6913 193.444 25.4602C193.777 25.2254 193.944 24.9394 193.944 24.6023C193.944 24.3295 193.842 24.1004 193.637 23.9148C193.436 23.7292 193.128 23.589 192.711 23.4943L191.234 23.1705C190.419 22.9848 189.817 22.6894 189.427 22.2841C189.04 21.8788 188.847 21.3655 188.847 20.7443C188.847 20.2292 188.991 19.7784 189.279 19.392C189.567 19.0057 189.965 18.7045 190.472 18.4886C190.98 18.2689 191.561 18.1591 192.217 18.1591C193.16 18.1591 193.902 18.3636 194.444 18.7727C194.986 19.178 195.344 19.7216 195.518 20.4034Z" fill="white"/>
</svg>
