<svg width="229" height="42" viewBox="0 0 229 42" fill="none" xmlns="http://www.w3.org/2000/svg">
<path d="M220.672 0C225.09 0 228.672 3.58172 228.672 8V34C228.672 38.4183 225.09 42 220.672 42H8C3.58172 42 0 38.4183 0 34V8C0 3.58172 3.58172 0 8 0H220.672Z" fill="#059669"/>
<path d="M220.672 0C225.09 0 228.672 3.58172 228.672 8V34C228.672 38.4183 225.09 42 220.672 42H8C3.58172 42 0 38.4183 0 34V8C0 3.58172 3.58172 0 8 0H220.672Z" stroke="#E5E7EB"/>
<path d="M32.8161 14.3636H34.5774V22.017C34.5774 22.8314 34.3861 23.553 34.0036 24.1818C33.621 24.8068 33.0831 25.2992 32.3899 25.6591C31.6967 26.0152 30.8842 26.1932 29.9524 26.1932C29.0244 26.1932 28.2138 26.0152 27.5206 25.6591C26.8274 25.2992 26.2895 24.8068 25.907 24.1818C25.5244 23.553 25.3331 22.8314 25.3331 22.017V14.3636H27.0888V21.875C27.0888 22.4015 27.2043 22.8693 27.4354 23.2784C27.6702 23.6875 28.0017 24.0095 28.4297 24.2443C28.8577 24.4754 29.3653 24.5909 29.9524 24.5909C30.5433 24.5909 31.0528 24.4754 31.4808 24.2443C31.9126 24.0095 32.2422 23.6875 32.4695 23.2784C32.7005 22.8693 32.8161 22.4015 32.8161 21.875V14.3636ZM36.9936 29.2727V17.2727H38.6527V18.6875H38.7947C38.8932 18.5057 39.0353 18.2955 39.2209 18.0568C39.4065 17.8182 39.6641 17.6098 39.9936 17.4318C40.3232 17.25 40.7588 17.1591 41.3004 17.1591C42.005 17.1591 42.6338 17.3371 43.1868 17.6932C43.7398 18.0492 44.1735 18.5625 44.4879 19.233C44.8061 19.9034 44.9652 20.7102 44.9652 21.6534C44.9652 22.5966 44.808 23.4053 44.4936 24.0795C44.1792 24.75 43.7474 25.267 43.1982 25.6307C42.6489 25.9905 42.022 26.1705 41.3175 26.1705C40.7872 26.1705 40.3535 26.0814 40.0163 25.9034C39.683 25.7254 39.4216 25.517 39.2322 25.2784C39.0429 25.0398 38.897 24.8277 38.7947 24.642H38.6925V29.2727H36.9936ZM38.6584 21.6364C38.6584 22.25 38.7474 22.7879 38.9254 23.25C39.1035 23.7121 39.361 24.0739 39.6982 24.3352C40.0353 24.5928 40.4482 24.7216 40.9368 24.7216C41.4444 24.7216 41.8686 24.5871 42.2095 24.3182C42.5504 24.0455 42.808 23.6761 42.9822 23.2102C43.1603 22.7443 43.2493 22.2197 43.2493 21.6364C43.2493 21.0606 43.1622 20.5436 42.9879 20.0852C42.8175 19.6269 42.5599 19.2652 42.2152 19C41.8743 18.7348 41.4482 18.6023 40.9368 18.6023C40.4444 18.6023 40.0277 18.7292 39.6868 18.983C39.3497 19.2367 39.094 19.5909 38.9197 20.0455C38.7455 20.5 38.6584 21.0303 38.6584 21.6364ZM50.1357 26.1705C49.4311 26.1705 48.8023 25.9905 48.2493 25.6307C47.7 25.267 47.2682 24.75 46.9538 24.0795C46.6432 23.4053 46.4879 22.5966 46.4879 21.6534C46.4879 20.7102 46.6451 19.9034 46.9595 19.233C47.2777 18.5625 47.7133 18.0492 48.2663 17.6932C48.8194 17.3371 49.4463 17.1591 50.147 17.1591C50.6887 17.1591 51.1243 17.25 51.4538 17.4318C51.7872 17.6098 52.0447 17.8182 52.2266 18.0568C52.4122 18.2955 52.5561 18.5057 52.6584 18.6875H52.7607V14.3636H54.4595V26H52.8004V24.642H52.6584C52.5561 24.8277 52.4084 25.0398 52.2152 25.2784C52.0258 25.517 51.7644 25.7254 51.4311 25.9034C51.0978 26.0814 50.666 26.1705 50.1357 26.1705ZM50.5107 24.7216C50.9993 24.7216 51.4122 24.5928 51.7493 24.3352C52.0902 24.0739 52.3478 23.7121 52.522 23.25C52.7 22.7879 52.7891 22.25 52.7891 21.6364C52.7891 21.0303 52.7019 20.5 52.5277 20.0455C52.3535 19.5909 52.0978 19.2367 51.7607 18.983C51.4235 18.7292 51.0069 18.6023 50.5107 18.6023C49.9993 18.6023 49.5732 18.7348 49.2322 19C48.8913 19.2652 48.6338 19.6269 48.4595 20.0852C48.2891 20.5436 48.2038 21.0606 48.2038 21.6364C48.2038 22.2197 48.291 22.7443 48.4652 23.2102C48.6394 23.6761 48.897 24.0455 49.2379 24.3182C49.5826 24.5871 50.0069 24.7216 50.5107 24.7216ZM59.424 26.1932C58.871 26.1932 58.371 26.0909 57.924 25.8864C57.477 25.678 57.1229 25.3769 56.8615 24.983C56.6039 24.589 56.4751 24.1061 56.4751 23.5341C56.4751 23.0417 56.5698 22.6364 56.7592 22.3182C56.9486 22 57.2043 21.7481 57.5263 21.5625C57.8482 21.3769 58.2081 21.2367 58.6058 21.142C59.0036 21.0473 59.4089 20.9754 59.8217 20.9261C60.3445 20.8655 60.7687 20.8163 61.0945 20.7784C61.4202 20.7367 61.657 20.6705 61.8047 20.5795C61.9524 20.4886 62.0263 20.3409 62.0263 20.1364V20.0966C62.0263 19.6004 61.8861 19.2159 61.6058 18.9432C61.3293 18.6705 60.9164 18.5341 60.3672 18.5341C59.7952 18.5341 59.3445 18.661 59.0149 18.9148C58.6892 19.1648 58.4638 19.4432 58.3388 19.75L56.7422 19.3864C56.9316 18.8561 57.2081 18.428 57.5717 18.1023C57.9392 17.7727 58.3615 17.5341 58.8388 17.3864C59.3161 17.2348 59.8179 17.1591 60.3445 17.1591C60.6929 17.1591 61.0623 17.2008 61.4524 17.2841C61.8464 17.3636 62.2138 17.5114 62.5547 17.7273C62.8994 17.9432 63.1816 18.2519 63.4013 18.6534C63.621 19.0511 63.7308 19.5682 63.7308 20.2045V26H62.0717V24.8068H62.0036C61.8937 25.0265 61.7289 25.2424 61.5092 25.4545C61.2895 25.6667 61.0073 25.8428 60.6626 25.983C60.3179 26.1231 59.9051 26.1932 59.424 26.1932ZM59.7933 24.8295C60.263 24.8295 60.6645 24.7367 60.9979 24.5511C61.335 24.3655 61.5907 24.1231 61.7649 23.8239C61.9429 23.5208 62.032 23.197 62.032 22.8523V21.7273C61.9714 21.7879 61.8539 21.8447 61.6797 21.8977C61.5092 21.947 61.3142 21.9905 61.0945 22.0284C60.8748 22.0625 60.6607 22.0947 60.4524 22.125C60.2441 22.1515 60.0698 22.1742 59.9297 22.1932C59.6001 22.2348 59.299 22.3049 59.0263 22.4034C58.7573 22.5019 58.5414 22.6439 58.3786 22.8295C58.2195 23.0114 58.1399 23.2538 58.1399 23.5568C58.1399 23.9773 58.2952 24.2955 58.6058 24.5114C58.9164 24.7235 59.3123 24.8295 59.7933 24.8295ZM70.0675 17.2727V18.6364H65.3004V17.2727H70.0675ZM66.5788 15.1818H68.2777V23.4375C68.2777 23.767 68.3269 24.0152 68.4254 24.1818C68.5239 24.3447 68.6508 24.4564 68.8061 24.517C68.9652 24.5739 69.1375 24.6023 69.3232 24.6023C69.4595 24.6023 69.5788 24.5928 69.6811 24.5739C69.7834 24.5549 69.8629 24.5398 69.9197 24.5284L70.2266 25.9318C70.1281 25.9697 69.9879 26.0076 69.8061 26.0455C69.6243 26.0871 69.397 26.1098 69.1243 26.1136C68.6773 26.1212 68.2607 26.0417 67.8743 25.875C67.4879 25.7083 67.1754 25.4508 66.9368 25.1023C66.6982 24.7538 66.5788 24.3163 66.5788 23.7898V15.1818ZM75.6143 26.1761C74.7545 26.1761 74.014 25.9924 73.3928 25.625C72.7753 25.2538 72.2981 24.733 71.9609 24.0625C71.6276 23.3883 71.4609 22.5985 71.4609 21.6932C71.4609 20.7992 71.6276 20.0114 71.9609 19.3295C72.2981 18.6477 72.7678 18.1155 73.37 17.733C73.9761 17.3504 74.6844 17.1591 75.495 17.1591C75.9875 17.1591 76.4647 17.2405 76.9268 17.4034C77.389 17.5663 77.8037 17.822 78.1712 18.1705C78.5386 18.5189 78.8284 18.9716 79.0405 19.5284C79.2526 20.0814 79.3587 20.7538 79.3587 21.5455V22.1477H72.4212V20.875H77.6939C77.6939 20.428 77.603 20.0322 77.4212 19.6875C77.2393 19.339 76.9837 19.0644 76.6541 18.8636C76.3284 18.6629 75.9458 18.5625 75.5064 18.5625C75.0291 18.5625 74.6125 18.6799 74.2564 18.9148C73.9041 19.1458 73.6314 19.4489 73.4382 19.8239C73.2488 20.1951 73.1541 20.5985 73.1541 21.0341V22.0284C73.1541 22.6117 73.2564 23.108 73.4609 23.517C73.6693 23.9261 73.959 24.2386 74.3303 24.4545C74.7015 24.6667 75.1352 24.7727 75.6314 24.7727C75.9534 24.7727 76.2469 24.7273 76.5121 24.6364C76.7772 24.5417 77.0064 24.4015 77.1996 24.2159C77.3928 24.0303 77.5405 23.8011 77.6428 23.5284L79.2507 23.8182C79.1219 24.2917 78.8909 24.7064 78.5575 25.0625C78.228 25.4148 77.8132 25.6894 77.3132 25.8864C76.817 26.0795 76.2507 26.1761 75.6143 26.1761ZM85.6143 26V14.3636H87.37V19.9205H87.5121L92.3928 14.3636H94.603L89.9098 19.6023L94.62 26H92.5064L88.745 20.8011L87.37 22.3807V26H85.6143ZM99.2237 26.1761C98.3639 26.1761 97.6233 25.9924 97.0021 25.625C96.3847 25.2538 95.9074 24.733 95.5703 24.0625C95.237 23.3883 95.0703 22.5985 95.0703 21.6932C95.0703 20.7992 95.237 20.0114 95.5703 19.3295C95.9074 18.6477 96.3771 18.1155 96.9794 17.733C97.5855 17.3504 98.2938 17.1591 99.1044 17.1591C99.5968 17.1591 100.074 17.2405 100.536 17.4034C100.998 17.5663 101.413 17.822 101.781 18.1705C102.148 18.5189 102.438 18.9716 102.65 19.5284C102.862 20.0814 102.968 20.7538 102.968 21.5455V22.1477H96.0305V20.875H101.303C101.303 20.428 101.212 20.0322 101.031 19.6875C100.849 19.339 100.593 19.0644 100.263 18.8636C99.9377 18.6629 99.5552 18.5625 99.1158 18.5625C98.6385 18.5625 98.2218 18.6799 97.8658 18.9148C97.5135 19.1458 97.2408 19.4489 97.0476 19.8239C96.8582 20.1951 96.7635 20.5985 96.7635 21.0341V22.0284C96.7635 22.6117 96.8658 23.108 97.0703 23.517C97.2786 23.9261 97.5684 24.2386 97.9396 24.4545C98.3108 24.6667 98.7446 24.7727 99.2408 24.7727C99.5627 24.7727 99.8563 24.7273 100.121 24.6364C100.387 24.5417 100.616 24.4015 100.809 24.2159C101.002 24.0303 101.15 23.8011 101.252 23.5284L102.86 23.8182C102.731 24.2917 102.5 24.7064 102.167 25.0625C101.837 25.4148 101.423 25.6894 100.923 25.8864C100.426 26.0795 99.8601 26.1761 99.2237 26.1761ZM105.677 29.2727C105.423 29.2727 105.192 29.2519 104.984 29.2102C104.775 29.1723 104.62 29.1307 104.518 29.0852L104.927 27.6932C105.237 27.7765 105.514 27.8125 105.756 27.8011C105.999 27.7898 106.213 27.6989 106.398 27.5284C106.588 27.358 106.754 27.0795 106.898 26.6932L107.109 26.1136L103.915 17.2727H105.734L107.944 24.0455H108.035L110.245 17.2727H112.069L108.472 27.1648C108.306 27.6193 108.094 28.0038 107.836 28.3182C107.578 28.6364 107.272 28.875 106.915 29.0341C106.559 29.1932 106.147 29.2727 105.677 29.2727ZM120.205 19.4034L118.665 19.6761C118.601 19.4792 118.499 19.2917 118.359 19.1136C118.222 18.9356 118.037 18.7898 117.802 18.6761C117.567 18.5625 117.273 18.5057 116.921 18.5057C116.44 18.5057 116.039 18.6136 115.717 18.8295C115.395 19.0417 115.234 19.3163 115.234 19.6534C115.234 19.9451 115.342 20.1799 115.558 20.358C115.773 20.536 116.122 20.6818 116.603 20.7955L117.989 21.1136C118.792 21.2992 119.391 21.5852 119.785 21.9716C120.179 22.358 120.376 22.8598 120.376 23.4773C120.376 24 120.224 24.4659 119.921 24.875C119.622 25.2803 119.203 25.5985 118.665 25.8295C118.131 26.0606 117.512 26.1761 116.808 26.1761C115.83 26.1761 115.033 25.9678 114.415 25.5511C113.798 25.1307 113.419 24.5341 113.279 23.7614L114.921 23.5114C115.023 23.9394 115.234 24.2633 115.552 24.483C115.87 24.6989 116.285 24.8068 116.796 24.8068C117.353 24.8068 117.798 24.6913 118.131 24.4602C118.465 24.2254 118.631 23.9394 118.631 23.6023C118.631 23.3295 118.529 23.1004 118.325 22.9148C118.124 22.7292 117.815 22.589 117.398 22.4943L115.921 22.1705C115.107 21.9848 114.504 21.6894 114.114 21.2841C113.728 20.8788 113.535 20.3655 113.535 19.7443C113.535 19.2292 113.679 18.7784 113.967 18.392C114.254 18.0057 114.652 17.7045 115.16 17.4886C115.667 17.2689 116.249 17.1591 116.904 17.1591C117.847 17.1591 118.59 17.3636 119.131 17.7727C119.673 18.178 120.031 18.7216 120.205 19.4034ZM129.864 26.1648C129.084 26.1648 128.412 26.0227 127.847 25.7386C127.287 25.4545 126.855 25.0682 126.552 24.5795C126.249 24.0871 126.097 23.5303 126.097 22.9091C126.097 22.4356 126.196 22.0152 126.393 21.6477C126.59 21.2765 126.864 20.9337 127.217 20.6193C127.569 20.3049 127.976 19.9886 128.438 19.6705L130.313 18.3466C130.631 18.1383 130.879 17.9186 131.058 17.6875C131.236 17.4527 131.325 17.1629 131.325 16.8182C131.325 16.5455 131.207 16.2841 130.972 16.0341C130.737 15.7841 130.423 15.6591 130.029 15.6591C129.756 15.6591 129.516 15.7254 129.308 15.858C129.103 15.9905 128.942 16.161 128.825 16.3693C128.711 16.5739 128.654 16.7898 128.654 17.017C128.654 17.2822 128.726 17.5492 128.87 17.8182C129.018 18.0871 129.207 18.3655 129.438 18.6534C129.669 18.9375 129.912 19.233 130.165 19.5398L135.569 26H133.648L129.177 20.7443C128.802 20.3011 128.453 19.8845 128.131 19.4943C127.809 19.1004 127.548 18.7027 127.347 18.3011C127.15 17.8958 127.052 17.4583 127.052 16.9886C127.052 16.4545 127.173 15.9811 127.415 15.5682C127.662 15.1515 128.004 14.8258 128.444 14.5909C128.883 14.3561 129.398 14.2386 129.989 14.2386C130.588 14.2386 131.101 14.3561 131.529 14.5909C131.961 14.822 132.292 15.1307 132.523 15.517C132.758 15.8996 132.876 16.3182 132.876 16.7727C132.876 17.3258 132.737 17.8144 132.461 18.2386C132.188 18.6591 131.811 19.0455 131.33 19.3977L128.995 21.1193C128.54 21.4527 128.224 21.7822 128.046 22.108C127.872 22.4299 127.785 22.6818 127.785 22.8636C127.785 23.197 127.87 23.5057 128.04 23.7898C128.215 24.0739 128.457 24.3011 128.768 24.4716C129.082 24.642 129.45 24.7273 129.87 24.7273C130.302 24.7273 130.722 24.6345 131.131 24.4489C131.544 24.2595 131.917 23.9886 132.251 23.6364C132.588 23.2841 132.855 22.8617 133.052 22.3693C133.249 21.8769 133.347 21.3258 133.347 20.7159H134.881C134.881 21.4659 134.796 22.1004 134.626 22.6193C134.455 23.1345 134.249 23.5549 134.006 23.8807C133.768 24.2027 133.542 24.4545 133.33 24.6364C133.262 24.697 133.198 24.7576 133.137 24.8182C133.076 24.8788 133.012 24.9394 132.944 25C132.55 25.3977 132.073 25.6913 131.512 25.8807C130.955 26.0701 130.406 26.1648 129.864 26.1648ZM150.935 18.1477H149.163C149.094 17.7689 148.968 17.4356 148.782 17.1477C148.596 16.8598 148.369 16.6155 148.1 16.4148C147.831 16.214 147.53 16.0625 147.197 15.9602C146.867 15.858 146.517 15.8068 146.146 15.8068C145.475 15.8068 144.875 15.9754 144.344 16.3125C143.818 16.6496 143.401 17.1439 143.094 17.7955C142.791 18.447 142.64 19.2424 142.64 20.1818C142.64 21.1288 142.791 21.928 143.094 22.5795C143.401 23.2311 143.82 23.7235 144.35 24.0568C144.88 24.3902 145.477 24.5568 146.14 24.5568C146.507 24.5568 146.856 24.5076 147.185 24.4091C147.519 24.3068 147.82 24.1572 148.089 23.9602C148.358 23.7633 148.585 23.5227 148.771 23.2386C148.96 22.9508 149.091 22.6212 149.163 22.25L150.935 22.2557C150.841 22.8277 150.657 23.3542 150.384 23.8352C150.115 24.3125 149.769 24.7254 149.344 25.0739C148.924 25.4186 148.443 25.6856 147.901 25.875C147.36 26.0644 146.769 26.1591 146.129 26.1591C145.121 26.1591 144.223 25.9205 143.435 25.4432C142.647 24.9621 142.026 24.2746 141.572 23.3807C141.121 22.4867 140.896 21.4205 140.896 20.1818C140.896 18.9394 141.123 17.8731 141.577 16.983C142.032 16.089 142.653 15.4034 143.441 14.9261C144.229 14.4451 145.125 14.2045 146.129 14.2045C146.746 14.2045 147.322 14.2936 147.856 14.4716C148.394 14.6458 148.877 14.9034 149.305 15.2443C149.733 15.5814 150.087 15.9943 150.367 16.483C150.647 16.9678 150.837 17.5227 150.935 18.1477ZM156.576 26.1761C155.758 26.1761 155.044 25.9886 154.434 25.6136C153.824 25.2386 153.351 24.714 153.013 24.0398C152.676 23.3655 152.508 22.5777 152.508 21.6761C152.508 20.7708 152.676 19.9792 153.013 19.3011C153.351 18.6231 153.824 18.0966 154.434 17.7216C155.044 17.3466 155.758 17.1591 156.576 17.1591C157.394 17.1591 158.108 17.3466 158.718 17.7216C159.328 18.0966 159.801 18.6231 160.138 19.3011C160.476 19.9792 160.644 20.7708 160.644 21.6761C160.644 22.5777 160.476 23.3655 160.138 24.0398C159.801 24.714 159.328 25.2386 158.718 25.6136C158.108 25.9886 157.394 26.1761 156.576 26.1761ZM156.582 24.75C157.112 24.75 157.551 24.6098 157.9 24.3295C158.248 24.0492 158.506 23.6761 158.673 23.2102C158.843 22.7443 158.928 22.2311 158.928 21.6705C158.928 21.1136 158.843 20.6023 158.673 20.1364C158.506 19.6667 158.248 19.2898 157.9 19.0057C157.551 18.7216 157.112 18.5795 156.582 18.5795C156.048 18.5795 155.604 18.7216 155.252 19.0057C154.904 19.2898 154.644 19.6667 154.474 20.1364C154.307 20.6023 154.224 21.1136 154.224 21.6705C154.224 22.2311 154.307 22.7443 154.474 23.2102C154.644 23.6761 154.904 24.0492 155.252 24.3295C155.604 24.6098 156.048 24.75 156.582 24.75ZM164.239 20.8182V26H162.54V17.2727H164.171V18.6932H164.279C164.48 18.2311 164.794 17.8598 165.222 17.5795C165.654 17.2992 166.198 17.1591 166.853 17.1591C167.448 17.1591 167.969 17.2841 168.415 17.5341C168.862 17.7803 169.209 18.1477 169.455 18.6364C169.701 19.125 169.825 19.7292 169.825 20.4489V26H168.126V20.6534C168.126 20.0208 167.961 19.5265 167.631 19.1705C167.302 18.8106 166.849 18.6307 166.273 18.6307C165.879 18.6307 165.529 18.7159 165.222 18.8864C164.919 19.0568 164.679 19.3068 164.501 19.6364C164.326 19.9621 164.239 20.3561 164.239 20.8182ZM173.802 20.8182V26H172.103V17.2727H173.734V18.6932H173.842C174.042 18.2311 174.357 17.8598 174.785 17.5795C175.217 17.2992 175.76 17.1591 176.415 17.1591C177.01 17.1591 177.531 17.2841 177.978 17.5341C178.425 17.7803 178.772 18.1477 179.018 18.6364C179.264 19.125 179.387 19.7292 179.387 20.4489V26H177.688V20.6534C177.688 20.0208 177.523 19.5265 177.194 19.1705C176.864 18.8106 176.412 18.6307 175.836 18.6307C175.442 18.6307 175.092 18.7159 174.785 18.8864C174.482 19.0568 174.241 19.3068 174.063 19.6364C173.889 19.9621 173.802 20.3561 173.802 20.8182ZM185.427 26.1761C184.567 26.1761 183.826 25.9924 183.205 25.625C182.588 25.2538 182.111 24.733 181.773 24.0625C181.44 23.3883 181.273 22.5985 181.273 21.6932C181.273 20.7992 181.44 20.0114 181.773 19.3295C182.111 18.6477 182.58 18.1155 183.183 17.733C183.789 17.3504 184.497 17.1591 185.308 17.1591C185.8 17.1591 186.277 17.2405 186.739 17.4034C187.201 17.5663 187.616 17.822 187.984 18.1705C188.351 18.5189 188.641 18.9716 188.853 19.5284C189.065 20.0814 189.171 20.7538 189.171 21.5455V22.1477H182.234V20.875H187.506C187.506 20.428 187.415 20.0322 187.234 19.6875C187.052 19.339 186.796 19.0644 186.467 18.8636C186.141 18.6629 185.758 18.5625 185.319 18.5625C184.842 18.5625 184.425 18.6799 184.069 18.9148C183.717 19.1458 183.444 19.4489 183.251 19.8239C183.061 20.1951 182.967 20.5985 182.967 21.0341V22.0284C182.967 22.6117 183.069 23.108 183.273 23.517C183.482 23.9261 183.772 24.2386 184.143 24.4545C184.514 24.6667 184.948 24.7727 185.444 24.7727C185.766 24.7727 186.059 24.7273 186.325 24.6364C186.59 24.5417 186.819 24.4015 187.012 24.2159C187.205 24.0303 187.353 23.8011 187.455 23.5284L189.063 23.8182C188.934 24.2917 188.703 24.7064 188.37 25.0625C188.04 25.4148 187.626 25.6894 187.126 25.8864C186.629 26.0795 186.063 26.1761 185.427 26.1761ZM194.732 26.1761C193.888 26.1761 193.16 25.9848 192.55 25.6023C191.944 25.2159 191.478 24.6837 191.153 24.0057C190.827 23.3277 190.664 22.5511 190.664 21.6761C190.664 20.7898 190.831 20.0076 191.164 19.3295C191.497 18.6477 191.967 18.1155 192.573 17.733C193.179 17.3504 193.893 17.1591 194.715 17.1591C195.378 17.1591 195.969 17.2822 196.488 17.5284C197.007 17.7708 197.425 18.1117 197.744 18.5511C198.066 18.9905 198.257 19.5038 198.317 20.0909H196.664C196.573 19.6818 196.365 19.3295 196.039 19.0341C195.717 18.7386 195.285 18.5909 194.744 18.5909C194.27 18.5909 193.855 18.7159 193.499 18.9659C193.147 19.2121 192.872 19.5644 192.675 20.0227C192.478 20.4773 192.38 21.0152 192.38 21.6364C192.38 22.2727 192.477 22.822 192.67 23.2841C192.863 23.7462 193.136 24.1042 193.488 24.358C193.844 24.6117 194.263 24.7386 194.744 24.7386C195.066 24.7386 195.357 24.6799 195.619 24.5625C195.884 24.4413 196.105 24.2689 196.283 24.0455C196.465 23.822 196.592 23.553 196.664 23.2386H198.317C198.257 23.803 198.073 24.3068 197.766 24.75C197.46 25.1932 197.049 25.5417 196.533 25.7955C196.022 26.0492 195.422 26.1761 194.732 26.1761ZM204.208 17.2727V18.6364H199.441V17.2727H204.208ZM200.719 15.1818H202.418V23.4375C202.418 23.767 202.468 24.0152 202.566 24.1818C202.665 24.3447 202.791 24.4564 202.947 24.517C203.106 24.5739 203.278 24.6023 203.464 24.6023C203.6 24.6023 203.719 24.5928 203.822 24.5739C203.924 24.5549 204.004 24.5398 204.06 24.5284L204.367 25.9318C204.269 25.9697 204.129 26.0076 203.947 26.0455C203.765 26.0871 203.538 26.1098 203.265 26.1136C202.818 26.1212 202.401 26.0417 202.015 25.875C201.629 25.7083 201.316 25.4508 201.077 25.1023C200.839 24.7538 200.719 24.3163 200.719 23.7898V15.1818Z" fill="white"/>
</svg>
