<svg width="185" height="40" viewBox="0 0 185 40" fill="none" xmlns="http://www.w3.org/2000/svg">
<path d="M176.047 0C180.465 0 184.047 3.58172 184.047 8V32C184.047 36.4183 180.465 40 176.047 40H8C3.58172 40 0 36.4183 0 32V8C0 3.58172 3.58172 0 8 0H176.047Z" fill="#16A34A"/>
<path d="M176.047 0C180.465 0 184.047 3.58172 184.047 8V32C184.047 36.4183 180.465 40 176.047 40H8C3.58172 40 0 36.4183 0 32V8C0 3.58172 3.58172 0 8 0H176.047Z" stroke="#E5E7EB"/>
<path d="M45.3189 13.3636L48.5575 22.8409H48.6882L51.9268 13.3636H53.8246L49.6371 25H47.6087L43.4212 13.3636H45.3189ZM55.3686 25V16.2727H57.0675V25H55.3686ZM56.2266 14.9261C55.9311 14.9261 55.6773 14.8277 55.4652 14.6307C55.2569 14.4299 55.1527 14.1913 55.1527 13.9148C55.1527 13.6345 55.2569 13.3958 55.4652 13.1989C55.6773 12.9981 55.9311 12.8977 56.2266 12.8977C56.522 12.8977 56.7739 12.9981 56.9822 13.1989C57.1944 13.3958 57.3004 13.6345 57.3004 13.9148C57.3004 14.1913 57.1944 14.4299 56.9822 14.6307C56.7739 14.8277 56.522 14.9261 56.2266 14.9261ZM63.1143 25.1761C62.2545 25.1761 61.514 24.9924 60.8928 24.625C60.2753 24.2538 59.7981 23.733 59.4609 23.0625C59.1276 22.3883 58.9609 21.5985 58.9609 20.6932C58.9609 19.7992 59.1276 19.0114 59.4609 18.3295C59.7981 17.6477 60.2678 17.1155 60.87 16.733C61.4761 16.3504 62.1844 16.1591 62.995 16.1591C63.4875 16.1591 63.9647 16.2405 64.4268 16.4034C64.889 16.5663 65.3037 16.822 65.6712 17.1705C66.0386 17.5189 66.3284 17.9716 66.5405 18.5284C66.7526 19.0814 66.8587 19.7538 66.8587 20.5455V21.1477H59.9212V19.875H65.1939C65.1939 19.428 65.103 19.0322 64.9212 18.6875C64.7393 18.339 64.4837 18.0644 64.1541 17.8636C63.8284 17.6629 63.4458 17.5625 63.0064 17.5625C62.5291 17.5625 62.1125 17.6799 61.7564 17.9148C61.4041 18.1458 61.1314 18.4489 60.9382 18.8239C60.7488 19.1951 60.6541 19.5985 60.6541 20.0341V21.0284C60.6541 21.6117 60.7564 22.108 60.9609 22.517C61.1693 22.9261 61.459 23.2386 61.8303 23.4545C62.2015 23.6667 62.6352 23.7727 63.1314 23.7727C63.4534 23.7727 63.7469 23.7273 64.0121 23.6364C64.2772 23.5417 64.5064 23.4015 64.6996 23.2159C64.8928 23.0303 65.0405 22.8011 65.1428 22.5284L66.7507 22.8182C66.6219 23.2917 66.3909 23.7064 66.0575 24.0625C65.728 24.4148 65.3132 24.6894 64.8132 24.8864C64.317 25.0795 63.7507 25.1761 63.1143 25.1761ZM70.62 25L68.0518 16.2727H69.8075L71.5178 22.6818H71.603L73.3189 16.2727H75.0746L76.7791 22.6534H76.8643L78.5632 16.2727H80.3189L77.7564 25H76.0234L74.2507 18.6989H74.12L72.3473 25H70.62ZM86.3018 25V13.3636H93.5178V14.875H88.0575V18.4205H93.0007V19.9261H88.0575V25H86.3018ZM100.522 21.3807V16.2727H102.227V25H100.556V23.4886H100.465C100.264 23.9545 99.9425 24.3428 99.4993 24.6534C99.0599 24.9602 98.5125 25.1136 97.8572 25.1136C97.2966 25.1136 96.8004 24.9905 96.3686 24.7443C95.9406 24.4943 95.6035 24.125 95.3572 23.6364C95.1148 23.1477 94.9936 22.5436 94.9936 21.8239V16.2727H96.6925V21.6193C96.6925 22.214 96.8572 22.6875 97.1868 23.0398C97.5163 23.392 97.9444 23.5682 98.4709 23.5682C98.7891 23.5682 99.1054 23.4886 99.4197 23.3295C99.7379 23.1705 100.001 22.9299 100.21 22.608C100.422 22.286 100.526 21.8769 100.522 21.3807ZM106.208 13.3636V25H104.509V13.3636H106.208ZM110.192 13.3636V25H108.494V13.3636H110.192ZM116.849 25V13.3636H118.604V18.4205H124.406V13.3636H126.167V25H124.406V19.9261H118.604V25H116.849ZM128.587 25V16.2727H130.286V25H128.587ZM129.445 14.9261C129.15 14.9261 128.896 14.8277 128.684 14.6307C128.476 14.4299 128.371 14.1913 128.371 13.9148C128.371 13.6345 128.476 13.3958 128.684 13.1989C128.896 12.9981 129.15 12.8977 129.445 12.8977C129.741 12.8977 129.993 12.9981 130.201 13.1989C130.413 13.3958 130.519 13.6345 130.519 13.9148C130.519 14.1913 130.413 14.4299 130.201 14.6307C129.993 14.8277 129.741 14.9261 129.445 14.9261ZM139.112 18.4034L137.572 18.6761C137.507 18.4792 137.405 18.2917 137.265 18.1136C137.129 17.9356 136.943 17.7898 136.708 17.6761C136.473 17.5625 136.18 17.5057 135.827 17.5057C135.346 17.5057 134.945 17.6136 134.623 17.8295C134.301 18.0417 134.14 18.3163 134.14 18.6534C134.14 18.9451 134.248 19.1799 134.464 19.358C134.68 19.536 135.028 19.6818 135.509 19.7955L136.896 20.1136C137.699 20.2992 138.297 20.5852 138.691 20.9716C139.085 21.358 139.282 21.8598 139.282 22.4773C139.282 23 139.13 23.4659 138.827 23.875C138.528 24.2803 138.11 24.5985 137.572 24.8295C137.038 25.0606 136.418 25.1761 135.714 25.1761C134.737 25.1761 133.939 24.9678 133.322 24.5511C132.704 24.1307 132.326 23.5341 132.185 22.7614L133.827 22.5114C133.93 22.9394 134.14 23.2633 134.458 23.483C134.776 23.6989 135.191 23.8068 135.702 23.8068C136.259 23.8068 136.704 23.6913 137.038 23.4602C137.371 23.2254 137.538 22.9394 137.538 22.6023C137.538 22.3295 137.435 22.1004 137.231 21.9148C137.03 21.7292 136.721 21.589 136.305 21.4943L134.827 21.1705C134.013 20.9848 133.411 20.6894 133.021 20.2841C132.634 19.8788 132.441 19.3655 132.441 18.7443C132.441 18.2292 132.585 17.7784 132.873 17.392C133.161 17.0057 133.558 16.7045 134.066 16.4886C134.574 16.2689 135.155 16.1591 135.81 16.1591C136.754 16.1591 137.496 16.3636 138.038 16.7727C138.579 17.178 138.937 17.7216 139.112 18.4034ZM145.224 16.2727V17.6364H140.457V16.2727H145.224ZM141.735 14.1818H143.434V22.4375C143.434 22.767 143.483 23.0152 143.582 23.1818C143.68 23.3447 143.807 23.4564 143.962 23.517C144.121 23.5739 144.294 23.6023 144.479 23.6023C144.616 23.6023 144.735 23.5928 144.837 23.5739C144.94 23.5549 145.019 23.5398 145.076 23.5284L145.383 24.9318C145.284 24.9697 145.144 25.0076 144.962 25.0455C144.781 25.0871 144.553 25.1098 144.281 25.1136C143.834 25.1212 143.417 25.0417 143.031 24.875C142.644 24.7083 142.332 24.4508 142.093 24.1023C141.854 23.7538 141.735 23.3163 141.735 22.7898V14.1818ZM150.685 25.1761C149.867 25.1761 149.153 24.9886 148.543 24.6136C147.933 24.2386 147.46 23.714 147.123 23.0398C146.786 22.3655 146.617 21.5777 146.617 20.6761C146.617 19.7708 146.786 18.9792 147.123 18.3011C147.46 17.6231 147.933 17.0966 148.543 16.7216C149.153 16.3466 149.867 16.1591 150.685 16.1591C151.504 16.1591 152.218 16.3466 152.827 16.7216C153.437 17.0966 153.911 17.6231 154.248 18.3011C154.585 18.9792 154.754 19.7708 154.754 20.6761C154.754 21.5777 154.585 22.3655 154.248 23.0398C153.911 23.714 153.437 24.2386 152.827 24.6136C152.218 24.9886 151.504 25.1761 150.685 25.1761ZM150.691 23.75C151.221 23.75 151.661 23.6098 152.009 23.3295C152.358 23.0492 152.615 22.6761 152.782 22.2102C152.952 21.7443 153.038 21.2311 153.038 20.6705C153.038 20.1136 152.952 19.6023 152.782 19.1364C152.615 18.6667 152.358 18.2898 152.009 18.0057C151.661 17.7216 151.221 17.5795 150.691 17.5795C150.157 17.5795 149.714 17.7216 149.362 18.0057C149.013 18.2898 148.754 18.6667 148.583 19.1364C148.416 19.6023 148.333 20.1136 148.333 20.6705C148.333 21.2311 148.416 21.7443 148.583 22.2102C148.754 22.6761 149.013 23.0492 149.362 23.3295C149.714 23.6098 150.157 23.75 150.691 23.75ZM156.65 25V16.2727H158.292V17.6591H158.383C158.542 17.1894 158.822 16.8201 159.224 16.5511C159.629 16.2784 160.087 16.142 160.599 16.142C160.705 16.142 160.83 16.1458 160.974 16.1534C161.121 16.161 161.237 16.1705 161.32 16.1818V17.8068C161.252 17.7879 161.131 17.767 160.957 17.7443C160.782 17.7178 160.608 17.7045 160.434 17.7045C160.032 17.7045 159.674 17.7898 159.36 17.9602C159.049 18.1269 158.803 18.3598 158.621 18.6591C158.44 18.9545 158.349 19.2917 158.349 19.6705V25H156.65ZM164.13 28.2727C163.876 28.2727 163.645 28.2519 163.437 28.2102C163.228 28.1723 163.073 28.1307 162.971 28.0852L163.38 26.6932C163.691 26.7765 163.967 26.8125 164.21 26.8011C164.452 26.7898 164.666 26.6989 164.852 26.5284C165.041 26.358 165.208 26.0795 165.352 25.6932L165.562 25.1136L162.369 16.2727H164.187L166.397 23.0455H166.488L168.698 16.2727H170.522L166.925 26.1648C166.759 26.6193 166.547 27.0038 166.289 27.3182C166.031 27.6364 165.725 27.875 165.369 28.0341C165.013 28.1932 164.6 28.2727 164.13 28.2727Z" fill="white"/>
<path d="M19.0469 24V29M23.0469 22V29M27.0469 18V29M29.0469 11L20.4009 19.646C20.3544 19.6926 20.2993 19.7295 20.2385 19.7547C20.1778 19.7799 20.1126 19.7929 20.0469 19.7929C19.9811 19.7929 19.916 19.7799 19.8552 19.7547C19.7945 19.7295 19.7393 19.6926 19.6929 19.646L16.4009 16.354C16.3071 16.2603 16.18 16.2076 16.0474 16.2076C15.9148 16.2076 15.7876 16.2603 15.6939 16.354L9.04688 23M11.0469 26V29M15.0469 22V29" stroke="white" stroke-width="2" stroke-linecap="round" stroke-linejoin="round"/>
</svg>
