<svg width="236" height="40" viewBox="0 0 236 40" fill="none" xmlns="http://www.w3.org/2000/svg">
<path d="M228 0C232.418 0 236 3.58172 236 8V32C236 36.4183 232.418 40 228 40H8C3.58172 40 0 36.4183 0 32V8C0 3.58172 3.58172 0 8 0H228Z" fill="#6366F1"/>
<path d="M228 0C232.418 0 236 3.58172 236 8V32C236 36.4183 232.418 40 228 40H8C3.58172 40 0 36.4183 0 32V8C0 3.58172 3.58172 0 8 0H228Z" stroke="#E5E7EB"/>
<path d="M45.3565 25V13.3636H49.5043C50.4058 13.3636 51.1539 13.5189 51.7486 13.8295C52.3471 14.1402 52.794 14.5701 53.0895 15.1193C53.3849 15.6648 53.5327 16.2955 53.5327 17.0114C53.5327 17.7235 53.383 18.3504 53.0838 18.892C52.7884 19.4299 52.3414 19.8485 51.7429 20.1477C51.1482 20.447 50.4001 20.5966 49.4986 20.5966H46.3565V19.0852H49.3395C49.9077 19.0852 50.3698 19.0038 50.7259 18.8409C51.0857 18.678 51.349 18.4413 51.5156 18.1307C51.6823 17.8201 51.7656 17.447 51.7656 17.0114C51.7656 16.572 51.6804 16.1913 51.5099 15.8693C51.3433 15.5473 51.08 15.3011 50.7202 15.1307C50.3641 14.9564 49.8963 14.8693 49.3168 14.8693H47.1122V25H45.3565ZM51.1009 19.75L53.9759 25H51.9759L49.1577 19.75H51.1009ZM59.1847 25.1761C58.3248 25.1761 57.5843 24.9924 56.9631 24.625C56.3456 24.2538 55.8684 23.733 55.5312 23.0625C55.1979 22.3883 55.0312 21.5985 55.0312 20.6932C55.0312 19.7992 55.1979 19.0114 55.5312 18.3295C55.8684 17.6477 56.3381 17.1155 56.9403 16.733C57.5464 16.3504 58.2547 16.1591 59.0653 16.1591C59.5578 16.1591 60.035 16.2405 60.4972 16.4034C60.9593 16.5663 61.3741 16.822 61.7415 17.1705C62.1089 17.5189 62.3987 17.9716 62.6108 18.5284C62.8229 19.0814 62.929 19.7538 62.929 20.5455V21.1477H55.9915V19.875H61.2642C61.2642 19.428 61.1733 19.0322 60.9915 18.6875C60.8097 18.339 60.554 18.0644 60.2244 17.8636C59.8987 17.6629 59.5161 17.5625 59.0767 17.5625C58.5994 17.5625 58.1828 17.6799 57.8267 17.9148C57.4744 18.1458 57.2017 18.4489 57.0085 18.8239C56.8191 19.1951 56.7244 19.5985 56.7244 20.0341V21.0284C56.7244 21.6117 56.8267 22.108 57.0312 22.517C57.2396 22.9261 57.5294 23.2386 57.9006 23.4545C58.2718 23.6667 58.7055 23.7727 59.2017 23.7727C59.5237 23.7727 59.8172 23.7273 60.0824 23.6364C60.3475 23.5417 60.5767 23.4015 60.7699 23.2159C60.9631 23.0303 61.1108 22.8011 61.2131 22.5284L62.821 22.8182C62.6922 23.2917 62.4612 23.7064 62.1278 24.0625C61.7983 24.4148 61.3835 24.6894 60.8835 24.8864C60.3873 25.0795 59.821 25.1761 59.1847 25.1761ZM72.0298 16.2727L68.8651 25H67.0469L63.8764 16.2727H65.7003L67.9105 22.9886H68.0014L70.206 16.2727H72.0298ZM73.6264 25V16.2727H75.3253V25H73.6264ZM74.4844 14.9261C74.1889 14.9261 73.9351 14.8277 73.723 14.6307C73.5147 14.4299 73.4105 14.1913 73.4105 13.9148C73.4105 13.6345 73.5147 13.3958 73.723 13.1989C73.9351 12.9981 74.1889 12.8977 74.4844 12.8977C74.7798 12.8977 75.0317 12.9981 75.2401 13.1989C75.4522 13.3958 75.5582 13.6345 75.5582 13.9148C75.5582 14.1913 75.4522 14.4299 75.2401 14.6307C75.0317 14.8277 74.7798 14.9261 74.4844 14.9261ZM81.3722 25.1761C80.5123 25.1761 79.7718 24.9924 79.1506 24.625C78.5331 24.2538 78.0559 23.733 77.7188 23.0625C77.3854 22.3883 77.2188 21.5985 77.2188 20.6932C77.2188 19.7992 77.3854 19.0114 77.7188 18.3295C78.0559 17.6477 78.5256 17.1155 79.1278 16.733C79.7339 16.3504 80.4422 16.1591 81.2528 16.1591C81.7453 16.1591 82.2225 16.2405 82.6847 16.4034C83.1468 16.5663 83.5616 16.822 83.929 17.1705C84.2964 17.5189 84.5862 17.9716 84.7983 18.5284C85.0104 19.0814 85.1165 19.7538 85.1165 20.5455V21.1477H78.179V19.875H83.4517C83.4517 19.428 83.3608 19.0322 83.179 18.6875C82.9972 18.339 82.7415 18.0644 82.4119 17.8636C82.0862 17.6629 81.7036 17.5625 81.2642 17.5625C80.7869 17.5625 80.3703 17.6799 80.0142 17.9148C79.6619 18.1458 79.3892 18.4489 79.196 18.8239C79.0066 19.1951 78.9119 19.5985 78.9119 20.0341V21.0284C78.9119 21.6117 79.0142 22.108 79.2188 22.517C79.4271 22.9261 79.7169 23.2386 80.0881 23.4545C80.4593 23.6667 80.893 23.7727 81.3892 23.7727C81.7112 23.7727 82.0047 23.7273 82.2699 23.6364C82.535 23.5417 82.7642 23.4015 82.9574 23.2159C83.1506 23.0303 83.2983 22.8011 83.4006 22.5284L85.0085 22.8182C84.8797 23.2917 84.6487 23.7064 84.3153 24.0625C83.9858 24.4148 83.571 24.6894 83.071 24.8864C82.5748 25.0795 82.0085 25.1761 81.3722 25.1761ZM88.8778 25L86.3097 16.2727H88.0653L89.7756 22.6818H89.8608L91.5767 16.2727H93.3324L95.0369 22.6534H95.1222L96.821 16.2727H98.5767L96.0142 25H94.2812L92.5085 18.6989H92.3778L90.6051 25H88.8778ZM114.224 17.1477H112.452C112.384 16.7689 112.257 16.4356 112.071 16.1477C111.885 15.8598 111.658 15.6155 111.389 15.4148C111.12 15.214 110.819 15.0625 110.486 14.9602C110.156 14.858 109.806 14.8068 109.435 14.8068C108.764 14.8068 108.164 14.9754 107.634 15.3125C107.107 15.6496 106.69 16.1439 106.384 16.7955C106.08 17.447 105.929 18.2424 105.929 19.1818C105.929 20.1288 106.08 20.928 106.384 21.5795C106.69 22.2311 107.109 22.7235 107.639 23.0568C108.17 23.3902 108.766 23.5568 109.429 23.5568C109.796 23.5568 110.145 23.5076 110.474 23.4091C110.808 23.3068 111.109 23.1572 111.378 22.9602C111.647 22.7633 111.874 22.5227 112.06 22.2386C112.249 21.9508 112.38 21.6212 112.452 21.25L114.224 21.2557C114.13 21.8277 113.946 22.3542 113.673 22.8352C113.404 23.3125 113.058 23.7254 112.634 24.0739C112.213 24.4186 111.732 24.6856 111.19 24.875C110.649 25.0644 110.058 25.1591 109.418 25.1591C108.41 25.1591 107.512 24.9205 106.724 24.4432C105.937 23.9621 105.315 23.2746 104.861 22.3807C104.41 21.4867 104.185 20.4205 104.185 19.1818C104.185 17.9394 104.412 16.8731 104.866 15.983C105.321 15.089 105.942 14.4034 106.73 13.9261C107.518 13.4451 108.414 13.2045 109.418 13.2045C110.035 13.2045 110.611 13.2936 111.145 13.4716C111.683 13.6458 112.166 13.9034 112.594 14.2443C113.022 14.5814 113.376 14.9943 113.656 15.483C113.937 15.9678 114.126 16.5227 114.224 17.1477ZM119.865 25.1761C119.047 25.1761 118.333 24.9886 117.723 24.6136C117.113 24.2386 116.64 23.714 116.303 23.0398C115.965 22.3655 115.797 21.5777 115.797 20.6761C115.797 19.7708 115.965 18.9792 116.303 18.3011C116.64 17.6231 117.113 17.0966 117.723 16.7216C118.333 16.3466 119.047 16.1591 119.865 16.1591C120.683 16.1591 121.397 16.3466 122.007 16.7216C122.617 17.0966 123.09 17.6231 123.428 18.3011C123.765 18.9792 123.933 19.7708 123.933 20.6761C123.933 21.5777 123.765 22.3655 123.428 23.0398C123.09 23.714 122.617 24.2386 122.007 24.6136C121.397 24.9886 120.683 25.1761 119.865 25.1761ZM119.871 23.75C120.401 23.75 120.84 23.6098 121.189 23.3295C121.537 23.0492 121.795 22.6761 121.962 22.2102C122.132 21.7443 122.217 21.2311 122.217 20.6705C122.217 20.1136 122.132 19.6023 121.962 19.1364C121.795 18.6667 121.537 18.2898 121.189 18.0057C120.84 17.7216 120.401 17.5795 119.871 17.5795C119.337 17.5795 118.893 17.7216 118.541 18.0057C118.193 18.2898 117.933 18.6667 117.763 19.1364C117.596 19.6023 117.513 20.1136 117.513 20.6705C117.513 21.2311 117.596 21.7443 117.763 22.2102C117.933 22.6761 118.193 23.0492 118.541 23.3295C118.893 23.6098 119.337 23.75 119.871 23.75ZM127.528 19.8182V25H125.83V16.2727H127.46V17.6932H127.568C127.769 17.2311 128.083 16.8598 128.511 16.5795C128.943 16.2992 129.487 16.1591 130.142 16.1591C130.737 16.1591 131.258 16.2841 131.705 16.5341C132.152 16.7803 132.498 17.1477 132.744 17.6364C132.991 18.125 133.114 18.7292 133.114 19.4489V25H131.415V19.6534C131.415 19.0208 131.25 18.5265 130.92 18.1705C130.591 17.8106 130.138 17.6307 129.562 17.6307C129.169 17.6307 128.818 17.7159 128.511 17.8864C128.208 18.0568 127.968 18.3068 127.79 18.6364C127.616 18.9621 127.528 19.3561 127.528 19.8182ZM139.466 16.2727V17.6364H134.699V16.2727H139.466ZM135.977 14.1818H137.676V22.4375C137.676 22.767 137.725 23.0152 137.824 23.1818C137.922 23.3447 138.049 23.4564 138.205 23.517C138.364 23.5739 138.536 23.6023 138.722 23.6023C138.858 23.6023 138.977 23.5928 139.08 23.5739C139.182 23.5549 139.261 23.5398 139.318 23.5284L139.625 24.9318C139.527 24.9697 139.386 25.0076 139.205 25.0455C139.023 25.0871 138.795 25.1098 138.523 25.1136C138.076 25.1212 137.659 25.0417 137.273 24.875C136.886 24.7083 136.574 24.4508 136.335 24.1023C136.097 23.7538 135.977 23.3163 135.977 22.7898V14.1818ZM145.013 25.1761C144.153 25.1761 143.412 24.9924 142.791 24.625C142.174 24.2538 141.696 23.733 141.359 23.0625C141.026 22.3883 140.859 21.5985 140.859 20.6932C140.859 19.7992 141.026 19.0114 141.359 18.3295C141.696 17.6477 142.166 17.1155 142.768 16.733C143.375 16.3504 144.083 16.1591 144.893 16.1591C145.386 16.1591 145.863 16.2405 146.325 16.4034C146.787 16.5663 147.202 16.822 147.57 17.1705C147.937 17.5189 148.227 17.9716 148.439 18.5284C148.651 19.0814 148.757 19.7538 148.757 20.5455V21.1477H141.82V19.875H147.092C147.092 19.428 147.001 19.0322 146.82 18.6875C146.638 18.339 146.382 18.0644 146.053 17.8636C145.727 17.6629 145.344 17.5625 144.905 17.5625C144.428 17.5625 144.011 17.6799 143.655 17.9148C143.303 18.1458 143.03 18.4489 142.837 18.8239C142.647 19.1951 142.553 19.5985 142.553 20.0341V21.0284C142.553 21.6117 142.655 22.108 142.859 22.517C143.068 22.9261 143.357 23.2386 143.729 23.4545C144.1 23.6667 144.534 23.7727 145.03 23.7727C145.352 23.7727 145.645 23.7273 145.911 23.6364C146.176 23.5417 146.405 23.4015 146.598 23.2159C146.791 23.0303 146.939 22.8011 147.041 22.5284L148.649 22.8182C148.52 23.2917 148.289 23.7064 147.956 24.0625C147.626 24.4148 147.212 24.6894 146.712 24.8864C146.215 25.0795 145.649 25.1761 145.013 25.1761ZM152.341 19.8182V25H150.642V16.2727H152.273V17.6932H152.381C152.581 17.2311 152.896 16.8598 153.324 16.5795C153.756 16.2992 154.299 16.1591 154.955 16.1591C155.549 16.1591 156.07 16.2841 156.517 16.5341C156.964 16.7803 157.311 17.1477 157.557 17.6364C157.803 18.125 157.926 18.7292 157.926 19.4489V25H156.227V19.6534C156.227 19.0208 156.063 18.5265 155.733 18.1705C155.403 17.8106 154.951 17.6307 154.375 17.6307C153.981 17.6307 153.631 17.7159 153.324 17.8864C153.021 18.0568 152.78 18.3068 152.602 18.6364C152.428 18.9621 152.341 19.3561 152.341 19.8182ZM164.278 16.2727V17.6364H159.511V16.2727H164.278ZM160.79 14.1818H162.489V22.4375C162.489 22.767 162.538 23.0152 162.636 23.1818C162.735 23.3447 162.862 23.4564 163.017 23.517C163.176 23.5739 163.348 23.6023 163.534 23.6023C163.67 23.6023 163.79 23.5928 163.892 23.5739C163.994 23.5549 164.074 23.5398 164.131 23.5284L164.438 24.9318C164.339 24.9697 164.199 25.0076 164.017 25.0455C163.835 25.0871 163.608 25.1098 163.335 25.1136C162.888 25.1212 162.472 25.0417 162.085 24.875C161.699 24.7083 161.386 24.4508 161.148 24.1023C160.909 23.7538 160.79 23.3163 160.79 22.7898V14.1818ZM170.528 25V13.3636H172.284V23.4886H177.557V25H170.528ZM179.423 25V16.2727H181.122V25H179.423ZM180.281 14.9261C179.986 14.9261 179.732 14.8277 179.52 14.6307C179.312 14.4299 179.207 14.1913 179.207 13.9148C179.207 13.6345 179.312 13.3958 179.52 13.1989C179.732 12.9981 179.986 12.8977 180.281 12.8977C180.577 12.8977 180.829 12.9981 181.037 13.1989C181.249 13.3958 181.355 13.6345 181.355 13.9148C181.355 14.1913 181.249 14.4299 181.037 14.6307C180.829 14.8277 180.577 14.9261 180.281 14.9261ZM183.544 25V13.3636H185.243V17.6875H185.345C185.444 17.5057 185.586 17.2955 185.771 17.0568C185.957 16.8182 186.214 16.6098 186.544 16.4318C186.874 16.25 187.309 16.1591 187.851 16.1591C188.555 16.1591 189.184 16.3371 189.737 16.6932C190.29 17.0492 190.724 17.5625 191.038 18.233C191.357 18.9034 191.516 19.7102 191.516 20.6534C191.516 21.5966 191.358 22.4053 191.044 23.0795C190.73 23.75 190.298 24.267 189.749 24.6307C189.199 24.9905 188.572 25.1705 187.868 25.1705C187.338 25.1705 186.904 25.0814 186.567 24.9034C186.233 24.7254 185.972 24.517 185.783 24.2784C185.593 24.0398 185.447 23.8277 185.345 23.642H185.203V25H183.544ZM185.209 20.6364C185.209 21.25 185.298 21.7879 185.476 22.25C185.654 22.7121 185.911 23.0739 186.249 23.3352C186.586 23.5928 186.999 23.7216 187.487 23.7216C187.995 23.7216 188.419 23.5871 188.76 23.3182C189.101 23.0455 189.358 22.6761 189.533 22.2102C189.711 21.7443 189.8 21.2197 189.8 20.6364C189.8 20.0606 189.713 19.5436 189.538 19.0852C189.368 18.6269 189.11 18.2652 188.766 18C188.425 17.7348 187.999 17.6023 187.487 17.6023C186.995 17.6023 186.578 17.7292 186.237 17.983C185.9 18.2367 185.644 18.5909 185.47 19.0455C185.296 19.5 185.209 20.0303 185.209 20.6364ZM193.423 25V16.2727H195.065V17.6591H195.156C195.315 17.1894 195.596 16.8201 195.997 16.5511C196.402 16.2784 196.861 16.142 197.372 16.142C197.478 16.142 197.603 16.1458 197.747 16.1534C197.895 16.161 198.01 16.1705 198.094 16.1818V17.8068C198.026 17.7879 197.904 17.767 197.73 17.7443C197.556 17.7178 197.382 17.7045 197.207 17.7045C196.806 17.7045 196.448 17.7898 196.134 17.9602C195.823 18.1269 195.577 18.3598 195.395 18.6591C195.213 18.9545 195.122 19.2917 195.122 19.6705V25H193.423ZM202.026 25.1932C201.473 25.1932 200.973 25.0909 200.526 24.8864C200.079 24.678 199.724 24.3769 199.463 23.983C199.205 23.589 199.077 23.1061 199.077 22.5341C199.077 22.0417 199.171 21.6364 199.361 21.3182C199.55 21 199.806 20.7481 200.128 20.5625C200.45 20.3769 200.81 20.2367 201.207 20.142C201.605 20.0473 202.01 19.9754 202.423 19.9261C202.946 19.8655 203.37 19.8163 203.696 19.7784C204.022 19.7367 204.259 19.6705 204.406 19.5795C204.554 19.4886 204.628 19.3409 204.628 19.1364V19.0966C204.628 18.6004 204.488 18.2159 204.207 17.9432C203.931 17.6705 203.518 17.5341 202.969 17.5341C202.397 17.5341 201.946 17.661 201.616 17.9148C201.291 18.1648 201.065 18.4432 200.94 18.75L199.344 18.3864C199.533 17.8561 199.81 17.428 200.173 17.1023C200.541 16.7727 200.963 16.5341 201.44 16.3864C201.918 16.2348 202.42 16.1591 202.946 16.1591C203.295 16.1591 203.664 16.2008 204.054 16.2841C204.448 16.3636 204.815 16.5114 205.156 16.7273C205.501 16.9432 205.783 17.2519 206.003 17.6534C206.223 18.0511 206.332 18.5682 206.332 19.2045V25H204.673V23.8068H204.605C204.495 24.0265 204.33 24.2424 204.111 24.4545C203.891 24.6667 203.609 24.8428 203.264 24.983C202.92 25.1231 202.507 25.1932 202.026 25.1932ZM202.395 23.8295C202.865 23.8295 203.266 23.7367 203.599 23.5511C203.937 23.3655 204.192 23.1231 204.366 22.8239C204.545 22.5208 204.634 22.197 204.634 21.8523V20.7273C204.573 20.7879 204.455 20.8447 204.281 20.8977C204.111 20.947 203.916 20.9905 203.696 21.0284C203.476 21.0625 203.262 21.0947 203.054 21.125C202.846 21.1515 202.671 21.1742 202.531 21.1932C202.202 21.2348 201.901 21.3049 201.628 21.4034C201.359 21.5019 201.143 21.6439 200.98 21.8295C200.821 22.0114 200.741 22.2538 200.741 22.5568C200.741 22.9773 200.897 23.2955 201.207 23.5114C201.518 23.7235 201.914 23.8295 202.395 23.8295ZM208.595 25V16.2727H210.237V17.6591H210.328C210.487 17.1894 210.768 16.8201 211.169 16.5511C211.574 16.2784 212.033 16.142 212.544 16.142C212.65 16.142 212.775 16.1458 212.919 16.1534C213.067 16.161 213.182 16.1705 213.266 16.1818V17.8068C213.197 17.7879 213.076 17.767 212.902 17.7443C212.728 17.7178 212.554 17.7045 212.379 17.7045C211.978 17.7045 211.62 17.7898 211.305 17.9602C210.995 18.1269 210.749 18.3598 210.567 18.6591C210.385 18.9545 210.294 19.2917 210.294 19.6705V25H208.595ZM216.075 28.2727C215.821 28.2727 215.59 28.2519 215.382 28.2102C215.174 28.1723 215.018 28.1307 214.916 28.0852L215.325 26.6932C215.636 26.7765 215.912 26.8125 216.155 26.8011C216.397 26.7898 216.611 26.6989 216.797 26.5284C216.986 26.358 217.153 26.0795 217.297 25.6932L217.507 25.1136L214.314 16.2727H216.132L218.342 23.0455H218.433L220.643 16.2727H222.467L218.871 26.1648C218.704 26.6193 218.492 27.0038 218.234 27.3182C217.977 27.6364 217.67 27.875 217.314 28.0341C216.958 28.1932 216.545 28.2727 216.075 28.2727Z" fill="white"/>
<path d="M17 22L18.5 19.1C18.6631 18.7761 18.9111 18.5027 19.2176 18.3089C19.5241 18.1152 19.8775 18.0084 20.24 18H31M31 18C31.3055 17.9994 31.6071 18.0689 31.8816 18.2031C32.1561 18.3372 32.3963 18.5325 32.5836 18.7738C32.7709 19.0152 32.9004 19.2963 32.9622 19.5955C33.024 19.8947 33.0164 20.2041 32.94 20.5L31.4 26.5C31.2886 26.9315 31.0362 27.3135 30.6829 27.5853C30.3296 27.857 29.8957 28.003 29.45 28H15C14.4696 28 13.9609 27.7893 13.5858 27.4142C13.2107 27.0391 13 26.5304 13 26V13C13 12.4695 13.2107 11.9608 13.5858 11.5858C13.9609 11.2107 14.4696 11 15 11H18.9C19.2345 10.9967 19.5645 11.0774 19.8597 11.2346C20.1549 11.3918 20.406 11.6206 20.59 11.9L21.4 13.1C21.5821 13.3765 21.83 13.6035 22.1215 13.7606C22.413 13.9177 22.7389 13.9999 23.07 14H29C29.5304 14 30.0391 14.2107 30.4142 14.5858C30.7893 14.9608 31 15.4695 31 16V18Z" stroke="white" stroke-width="2" stroke-linecap="round" stroke-linejoin="round"/>
</svg>
