<svg width="219" height="40" viewBox="0 0 219 40" fill="none" xmlns="http://www.w3.org/2000/svg">
<path d="M210.828 0C215.246 0 218.828 3.58172 218.828 8V32C218.828 36.4183 215.246 40 210.828 40H8C3.58172 40 0 36.4183 0 32V8C0 3.58172 3.58172 0 8 0H210.828Z" fill="#6366F1"/>
<path d="M210.828 0C215.246 0 218.828 3.58172 218.828 8V32C218.828 36.4183 215.246 40 210.828 40H8C3.58172 40 0 36.4183 0 32V8C0 3.58172 3.58172 0 8 0H210.828Z" stroke="#E5E7EB"/>
<path d="M41.1705 13.3636L44.4091 22.8409H44.5398L47.7784 13.3636H49.6761L45.4886 25H43.4602L39.2727 13.3636H41.1705ZM51.2202 25V16.2727H52.919V25H51.2202ZM52.0781 14.9261C51.7827 14.9261 51.5289 14.8277 51.3168 14.6307C51.1084 14.4299 51.0043 14.1913 51.0043 13.9148C51.0043 13.6345 51.1084 13.3958 51.3168 13.1989C51.5289 12.9981 51.7827 12.8977 52.0781 12.8977C52.3736 12.8977 52.6255 12.9981 52.8338 13.1989C53.0459 13.3958 53.152 13.6345 53.152 13.9148C53.152 14.1913 53.0459 14.4299 52.8338 14.6307C52.6255 14.8277 52.3736 14.9261 52.0781 14.9261ZM58.9659 25.1761C58.1061 25.1761 57.3655 24.9924 56.7443 24.625C56.1269 24.2538 55.6496 23.733 55.3125 23.0625C54.9792 22.3883 54.8125 21.5985 54.8125 20.6932C54.8125 19.7992 54.9792 19.0114 55.3125 18.3295C55.6496 17.6477 56.1193 17.1155 56.7216 16.733C57.3277 16.3504 58.036 16.1591 58.8466 16.1591C59.339 16.1591 59.8163 16.2405 60.2784 16.4034C60.7405 16.5663 61.1553 16.822 61.5227 17.1705C61.8902 17.5189 62.1799 17.9716 62.392 18.5284C62.6042 19.0814 62.7102 19.7538 62.7102 20.5455V21.1477H55.7727V19.875H61.0455C61.0455 19.428 60.9545 19.0322 60.7727 18.6875C60.5909 18.339 60.3352 18.0644 60.0057 17.8636C59.6799 17.6629 59.2973 17.5625 58.858 17.5625C58.3807 17.5625 57.964 17.6799 57.608 17.9148C57.2557 18.1458 56.983 18.4489 56.7898 18.8239C56.6004 19.1951 56.5057 19.5985 56.5057 20.0341V21.0284C56.5057 21.6117 56.608 22.108 56.8125 22.517C57.0208 22.9261 57.3106 23.2386 57.6818 23.4545C58.053 23.6667 58.4867 23.7727 58.983 23.7727C59.3049 23.7727 59.5985 23.7273 59.8636 23.6364C60.1288 23.5417 60.358 23.4015 60.5511 23.2159C60.7443 23.0303 60.892 22.8011 60.9943 22.5284L62.6023 22.8182C62.4735 23.2917 62.2424 23.7064 61.9091 24.0625C61.5795 24.4148 61.1648 24.6894 60.6648 24.8864C60.1686 25.0795 59.6023 25.1761 58.9659 25.1761ZM66.4716 25L63.9034 16.2727H65.6591L67.3693 22.6818H67.4545L69.1705 16.2727H70.9261L72.6307 22.6534H72.7159L74.4148 16.2727H76.1705L73.608 25H71.875L70.1023 18.6989H69.9716L68.1989 25H66.4716ZM82.1534 25V13.3636H83.9091V18.9205H84.0511L88.9318 13.3636H91.142L86.4489 18.6023L91.1591 25H89.0455L85.2841 19.8011L83.9091 21.3807V25H82.1534ZM91.8807 13.3636H93.875L96.9148 18.6534H97.0398L100.08 13.3636H102.074L97.8523 20.4318V25H96.1023V20.4318L91.8807 13.3636ZM112.803 17.1477H111.03C110.962 16.7689 110.835 16.4356 110.649 16.1477C110.464 15.8598 110.236 15.6155 109.967 15.4148C109.698 15.214 109.397 15.0625 109.064 14.9602C108.734 14.858 108.384 14.8068 108.013 14.8068C107.342 14.8068 106.742 14.9754 106.212 15.3125C105.685 15.6496 105.268 16.1439 104.962 16.7955C104.659 17.447 104.507 18.2424 104.507 19.1818C104.507 20.1288 104.659 20.928 104.962 21.5795C105.268 22.2311 105.687 22.7235 106.217 23.0568C106.748 23.3902 107.344 23.5568 108.007 23.5568C108.375 23.5568 108.723 23.5076 109.053 23.4091C109.386 23.3068 109.687 23.1572 109.956 22.9602C110.225 22.7633 110.452 22.5227 110.638 22.2386C110.827 21.9508 110.958 21.6212 111.03 21.25L112.803 21.2557C112.708 21.8277 112.524 22.3542 112.251 22.8352C111.982 23.3125 111.636 23.7254 111.212 24.0739C110.791 24.4186 110.31 24.6856 109.768 24.875C109.227 25.0644 108.636 25.1591 107.996 25.1591C106.988 25.1591 106.09 24.9205 105.303 24.4432C104.515 23.9621 103.893 23.2746 103.439 22.3807C102.988 21.4867 102.763 20.4205 102.763 19.1818C102.763 17.9394 102.99 16.8731 103.445 15.983C103.899 15.089 104.52 14.4034 105.308 13.9261C106.096 13.4451 106.992 13.2045 107.996 13.2045C108.613 13.2045 109.189 13.2936 109.723 13.4716C110.261 13.6458 110.744 13.9034 111.172 14.2443C111.6 14.5814 111.954 14.9943 112.234 15.483C112.515 15.9678 112.704 16.5227 112.803 17.1477ZM122.905 25H119.138V13.3636H123.024C124.164 13.3636 125.143 13.5966 125.962 14.0625C126.78 14.5246 127.407 15.1894 127.842 16.0568C128.282 16.9205 128.501 17.9564 128.501 19.1648C128.501 20.3769 128.28 21.4186 127.837 22.2898C127.397 23.161 126.761 23.8314 125.928 24.3011C125.094 24.767 124.087 25 122.905 25ZM120.893 23.4659H122.808C123.695 23.4659 124.431 23.2992 125.018 22.9659C125.606 22.6288 126.045 22.142 126.337 21.5057C126.628 20.8655 126.774 20.0852 126.774 19.1648C126.774 18.2519 126.628 17.4773 126.337 16.8409C126.049 16.2045 125.619 15.7216 125.047 15.392C124.475 15.0625 123.765 14.8977 122.916 14.8977H120.893V23.4659ZM134.224 25.1761C133.406 25.1761 132.692 24.9886 132.082 24.6136C131.473 24.2386 130.999 23.714 130.662 23.0398C130.325 22.3655 130.156 21.5777 130.156 20.6761C130.156 19.7708 130.325 18.9792 130.662 18.3011C130.999 17.6231 131.473 17.0966 132.082 16.7216C132.692 16.3466 133.406 16.1591 134.224 16.1591C135.043 16.1591 135.757 16.3466 136.366 16.7216C136.976 17.0966 137.45 17.6231 137.787 18.3011C138.124 18.9792 138.293 19.7708 138.293 20.6761C138.293 21.5777 138.124 22.3655 137.787 23.0398C137.45 23.714 136.976 24.2386 136.366 24.6136C135.757 24.9886 135.043 25.1761 134.224 25.1761ZM134.23 23.75C134.76 23.75 135.2 23.6098 135.548 23.3295C135.897 23.0492 136.154 22.6761 136.321 22.2102C136.491 21.7443 136.577 21.2311 136.577 20.6705C136.577 20.1136 136.491 19.6023 136.321 19.1364C136.154 18.6667 135.897 18.2898 135.548 18.0057C135.2 17.7216 134.76 17.5795 134.23 17.5795C133.696 17.5795 133.253 17.7216 132.901 18.0057C132.552 18.2898 132.293 18.6667 132.122 19.1364C131.955 19.6023 131.872 20.1136 131.872 20.6705C131.872 21.2311 131.955 21.7443 132.122 22.2102C132.293 22.6761 132.552 23.0492 132.901 23.3295C133.253 23.6098 133.696 23.75 134.23 23.75ZM143.865 25.1761C143.02 25.1761 142.293 24.9848 141.683 24.6023C141.077 24.2159 140.611 23.6837 140.286 23.0057C139.96 22.3277 139.797 21.5511 139.797 20.6761C139.797 19.7898 139.964 19.0076 140.297 18.3295C140.63 17.6477 141.1 17.1155 141.706 16.733C142.312 16.3504 143.026 16.1591 143.848 16.1591C144.511 16.1591 145.102 16.2822 145.621 16.5284C146.14 16.7708 146.558 17.1117 146.876 17.5511C147.198 17.9905 147.39 18.5038 147.45 19.0909H145.797C145.706 18.6818 145.498 18.3295 145.172 18.0341C144.85 17.7386 144.418 17.5909 143.876 17.5909C143.403 17.5909 142.988 17.7159 142.632 17.9659C142.28 18.2121 142.005 18.5644 141.808 19.0227C141.611 19.4773 141.513 20.0152 141.513 20.6364C141.513 21.2727 141.609 21.822 141.803 22.2841C141.996 22.7462 142.268 23.1042 142.621 23.358C142.977 23.6117 143.395 23.7386 143.876 23.7386C144.198 23.7386 144.49 23.6799 144.751 23.5625C145.017 23.4413 145.238 23.2689 145.416 23.0455C145.598 22.822 145.725 22.553 145.797 22.2386H147.45C147.39 22.803 147.206 23.3068 146.899 23.75C146.592 24.1932 146.181 24.5417 145.666 24.7955C145.155 25.0492 144.554 25.1761 143.865 25.1761ZM154.795 21.3807V16.2727H156.5V25H154.83V23.4886H154.739C154.538 23.9545 154.216 24.3428 153.773 24.6534C153.333 24.9602 152.786 25.1136 152.131 25.1136C151.57 25.1136 151.074 24.9905 150.642 24.7443C150.214 24.4943 149.877 24.125 149.631 23.6364C149.388 23.1477 149.267 22.5436 149.267 21.8239V16.2727H150.966V21.6193C150.966 22.214 151.131 22.6875 151.46 23.0398C151.79 23.392 152.218 23.5682 152.744 23.5682C153.063 23.5682 153.379 23.4886 153.693 23.3295C154.011 23.1705 154.275 22.9299 154.483 22.608C154.695 22.286 154.799 21.8769 154.795 21.3807ZM158.783 25V16.2727H160.413V17.6932H160.521C160.703 17.2121 161 16.8371 161.413 16.5682C161.826 16.2955 162.321 16.1591 162.896 16.1591C163.48 16.1591 163.968 16.2955 164.362 16.5682C164.76 16.8409 165.054 17.2159 165.243 17.6932H165.334C165.542 17.2273 165.874 16.8561 166.328 16.5795C166.783 16.2992 167.324 16.1591 167.953 16.1591C168.745 16.1591 169.391 16.4072 169.891 16.9034C170.394 17.3996 170.646 18.1477 170.646 19.1477V25H168.947V19.3068C168.947 18.7159 168.786 18.2879 168.464 18.0227C168.143 17.7576 167.758 17.625 167.311 17.625C166.758 17.625 166.328 17.7955 166.021 18.1364C165.714 18.4735 165.561 18.9072 165.561 19.4375V25H163.868V19.1989C163.868 18.7254 163.72 18.3447 163.425 18.0568C163.129 17.7689 162.745 17.625 162.271 17.625C161.949 17.625 161.652 17.7102 161.379 17.8807C161.11 18.0473 160.893 18.2803 160.726 18.5795C160.563 18.8788 160.482 19.2254 160.482 19.6193V25H158.783ZM176.685 25.1761C175.825 25.1761 175.084 24.9924 174.463 24.625C173.846 24.2538 173.368 23.733 173.031 23.0625C172.698 22.3883 172.531 21.5985 172.531 20.6932C172.531 19.7992 172.698 19.0114 173.031 18.3295C173.368 17.6477 173.838 17.1155 174.44 16.733C175.046 16.3504 175.755 16.1591 176.565 16.1591C177.058 16.1591 177.535 16.2405 177.997 16.4034C178.459 16.5663 178.874 16.822 179.241 17.1705C179.609 17.5189 179.899 17.9716 180.111 18.5284C180.323 19.0814 180.429 19.7538 180.429 20.5455V21.1477H173.491V19.875H178.764C178.764 19.428 178.673 19.0322 178.491 18.6875C178.31 18.339 178.054 18.0644 177.724 17.8636C177.399 17.6629 177.016 17.5625 176.577 17.5625C176.099 17.5625 175.683 17.6799 175.327 17.9148C174.974 18.1458 174.702 18.4489 174.509 18.8239C174.319 19.1951 174.224 19.5985 174.224 20.0341V21.0284C174.224 21.6117 174.327 22.108 174.531 22.517C174.74 22.9261 175.029 23.2386 175.401 23.4545C175.772 23.6667 176.205 23.7727 176.702 23.7727C177.024 23.7727 177.317 23.7273 177.582 23.6364C177.848 23.5417 178.077 23.4015 178.27 23.2159C178.463 23.0303 178.611 22.8011 178.713 22.5284L180.321 22.8182C180.192 23.2917 179.961 23.7064 179.628 24.0625C179.298 24.4148 178.884 24.6894 178.384 24.8864C177.887 25.0795 177.321 25.1761 176.685 25.1761ZM184.013 19.8182V25H182.314V16.2727H183.945V17.6932H184.053C184.253 17.2311 184.568 16.8598 184.996 16.5795C185.428 16.2992 185.971 16.1591 186.626 16.1591C187.221 16.1591 187.742 16.2841 188.189 16.5341C188.636 16.7803 188.982 17.1477 189.229 17.6364C189.475 18.125 189.598 18.7292 189.598 19.4489V25H187.899V19.6534C187.899 19.0208 187.734 18.5265 187.405 18.1705C187.075 17.8106 186.623 17.6307 186.047 17.6307C185.653 17.6307 185.303 17.7159 184.996 17.8864C184.693 18.0568 184.452 18.3068 184.274 18.6364C184.1 18.9621 184.013 19.3561 184.013 19.8182ZM195.95 16.2727V17.6364H191.183V16.2727H195.95ZM192.462 14.1818H194.161V22.4375C194.161 22.767 194.21 23.0152 194.308 23.1818C194.407 23.3447 194.534 23.4564 194.689 23.517C194.848 23.5739 195.02 23.6023 195.206 23.6023C195.342 23.6023 195.462 23.5928 195.564 23.5739C195.666 23.5549 195.746 23.5398 195.803 23.5284L196.109 24.9318C196.011 24.9697 195.871 25.0076 195.689 25.0455C195.507 25.0871 195.28 25.1098 195.007 25.1136C194.56 25.1212 194.143 25.0417 193.757 24.875C193.371 24.7083 193.058 24.4508 192.82 24.1023C192.581 23.7538 192.462 23.3163 192.462 22.7898V14.1818ZM204.229 18.4034L202.689 18.6761C202.625 18.4792 202.522 18.2917 202.382 18.1136C202.246 17.9356 202.06 17.7898 201.825 17.6761C201.59 17.5625 201.297 17.5057 200.945 17.5057C200.464 17.5057 200.062 17.6136 199.74 17.8295C199.418 18.0417 199.257 18.3163 199.257 18.6534C199.257 18.9451 199.365 19.1799 199.581 19.358C199.797 19.536 200.145 19.6818 200.626 19.7955L202.013 20.1136C202.816 20.2992 203.414 20.5852 203.808 20.9716C204.202 21.358 204.399 21.8598 204.399 22.4773C204.399 23 204.248 23.4659 203.945 23.875C203.645 24.2803 203.227 24.5985 202.689 24.8295C202.155 25.0606 201.536 25.1761 200.831 25.1761C199.854 25.1761 199.056 24.9678 198.439 24.5511C197.821 24.1307 197.443 23.5341 197.303 22.7614L198.945 22.5114C199.047 22.9394 199.257 23.2633 199.575 23.483C199.893 23.6989 200.308 23.8068 200.82 23.8068C201.376 23.8068 201.821 23.6913 202.155 23.4602C202.488 23.2254 202.655 22.9394 202.655 22.6023C202.655 22.3295 202.553 22.1004 202.348 21.9148C202.147 21.7292 201.839 21.589 201.422 21.4943L199.945 21.1705C199.13 20.9848 198.528 20.6894 198.138 20.2841C197.751 19.8788 197.558 19.3655 197.558 18.7443C197.558 18.2292 197.702 17.7784 197.99 17.392C198.278 17.0057 198.676 16.7045 199.183 16.4886C199.691 16.2689 200.272 16.1591 200.928 16.1591C201.871 16.1591 202.613 16.3636 203.155 16.7727C203.696 17.178 204.054 17.7216 204.229 18.4034Z" fill="white"/>
<path d="M25.8281 10H17.8281C17.2977 10 16.789 10.2107 16.4139 10.5858C16.0388 10.9609 15.8281 11.4696 15.8281 12V28C15.8281 28.5304 16.0388 29.0391 16.4139 29.4142C16.789 29.7893 17.2977 30 17.8281 30H29.8281C30.3586 30 30.8673 29.7893 31.2423 29.4142C31.6174 29.0391 31.8281 28.5304 31.8281 28V16M25.8281 10C26.1447 9.99949 26.4582 10.0616 26.7507 10.1828C27.0431 10.3039 27.3087 10.4818 27.5321 10.706L31.1201 14.294C31.345 14.5175 31.5233 14.7833 31.6448 15.0762C31.7663 15.369 31.8286 15.683 31.8281 16M25.8281 10V15C25.8281 15.2652 25.9335 15.5196 26.121 15.7071C26.3086 15.8946 26.5629 16 26.8281 16L31.8281 16" stroke="white" stroke-width="2" stroke-linecap="round" stroke-linejoin="round"/>
</svg>
