<svg width="150" height="40" viewBox="0 0 150 40" fill="none" xmlns="http://www.w3.org/2000/svg">
<g clip-path="url(#clip0_99_6)">
<path d="M39.1984 30.362C39.5752 30.7129 39.598 30.2868 39.6742 30.0581C41.482 24.628 42.3041 18.8689 44.1044 13.4263C45.8095 12.9689 47.5793 13.1067 49.2768 13.5391L42.9207 34.3821L42.3726 34.7299C40.0281 34.7424 36.0127 35.6354 34.7948 33.3199L28.61 13.724C30.5701 13.1349 33.299 12.4174 34.5893 14.3601C35.5979 15.8797 37.1698 22.1433 37.7635 24.2395C38.0185 25.1481 38.951 30.1333 39.1946 30.3589L39.1984 30.362Z" fill="#231F20"/>
<path d="M83.5806 18.7718C90.7893 17.8569 94.0511 22.2937 93.522 28.1875C93.0691 33.229 88.4904 36.2339 82.8841 34.8771C75.0132 32.9721 75.4205 19.8058 83.5806 18.7718ZM83.946 22.7323C82.4274 23.9731 81.7614 32.5397 86.2944 31.3584C88.3344 30.8257 88.0185 25.3675 87.5237 23.9136C87.0289 22.4597 85.3657 21.5761 83.946 22.7355V22.7323Z" fill="#231F20"/>
<path d="M63.8845 28.4914H54.7157C54.6205 29.2841 55.0506 30.4967 55.8042 30.9605C58.0079 32.3172 62.0461 30.2837 62.6665 30.6064C62.9824 30.7725 63.9682 32.9533 63.8997 33.3449C58.8376 36.2401 50.9173 36.1712 49.4101 29.9547C48.2911 25.3455 49.5813 19.1008 55.9945 18.706C62.8835 18.2799 65.5363 23.0739 63.8806 28.4883L63.8845 28.4914ZM59.184 25.1638C59.7663 21.0873 54.2399 21.0372 54.7157 25.1638H59.184Z" fill="#231F20"/>
<path d="M75.6108 31.2237C75.8772 31.4148 75.999 34.3915 75.8658 34.5105C72.0788 34.8082 68.071 35.7419 67.6409 31.3051C67.0548 25.2578 68.1053 18.4898 67.6409 12.3641C67.5115 11.3803 69.2661 11.5777 70.1187 11.6497C72.5203 11.8503 72.8933 12.6555 73.0683 14.6546C73.506 19.6021 72.7106 25.0353 73.076 30.0361C73.3462 31.5777 75.1426 30.8821 75.6146 31.2237H75.6108Z" fill="#231F20"/>
<path d="M24.3815 0H23.6774V47H24.3815V0Z" fill="#231F20"/>
<path d="M99.5585 15.5946H100.601V33.9841H110.703V34.7988H99.5585V15.5946Z" fill="#231F20"/>
<path d="M113.831 16.3529C113.831 15.7137 114.353 15.3627 114.939 15.3627C115.525 15.3627 116.046 15.7105 116.046 16.3529C116.046 16.9357 115.525 17.343 114.939 17.343C114.353 17.343 113.831 16.9357 113.831 16.3529ZM114.417 20.8899H115.395V34.7988H114.417V20.8899Z" fill="#231F20"/>
<path d="M121.653 20.8899H122.501L122.631 23.1021H122.695C124.324 21.6482 125.953 20.5421 128.104 20.5421C131.297 20.5421 132.797 22.231 132.797 25.8375V34.7988H131.819V25.9534C131.819 22.8702 130.711 21.3568 128.039 21.3568C126.083 21.3568 124.652 22.2874 122.631 24.1517V34.8019H121.653V20.8931V20.8899Z" fill="#231F20"/>
<path d="M138.791 13.7929H139.769V29.7385H139.834L147.914 20.8931H149.086L144.07 26.3639L150 34.8019H148.892L143.484 27.0626L139.769 30.9605V34.8019H138.791V13.7929Z" fill="#231F20"/>
<path d="M15.2888 21.6012C15.4106 21.6012 15.5362 21.5981 15.6542 21.6012C15.7646 21.6075 15.8597 21.6075 15.9549 21.6137C16.05 21.6169 16.1452 21.6357 16.2594 21.6357C16.5905 21.6419 16.6171 21.6169 16.7237 21.6419C16.7922 21.6576 16.8607 21.6137 16.8569 21.5542C16.7846 18.5963 17.66 15.9831 13.8007 13.4639C10.8434 11.5338 6.29895 11.9317 3.79838 14.2567C1.29781 16.5816 1.76595 17.5592 1.76215 20.0283C1.76215 20.2131 1.95625 20.3573 2.17701 20.3416C2.74411 20.2946 3.72987 20.2476 4.26272 20.2288C4.46063 20.2225 4.61668 20.0909 4.6281 19.9311C4.72325 17.9947 3.96204 17.108 6.15052 15.5476C7.57017 14.5355 10.0365 14.2974 11.6693 15.0557C15.0338 16.6192 13.9148 19.2042 14.1051 21.6043C14.2422 21.6043 14.3792 21.6043 14.5162 21.6043C14.6532 21.6043 14.7902 21.6043 14.9273 21.6043C15.049 21.6043 15.1708 21.6043 15.2926 21.6043L15.2888 21.6012Z" fill="#231F20"/>
<path d="M16.9749 21.9835C16.7199 21.902 16.6019 21.8738 16.3279 21.8425C16.2175 21.8299 16.1186 21.8237 16.0234 21.8205C15.9283 21.8174 15.8331 21.8143 15.7227 21.808C15.601 21.8017 15.4792 21.8049 15.3574 21.808C15.2356 21.8111 15.11 21.8143 14.992 21.808C14.855 21.808 14.7179 21.808 14.5809 21.808C14.4439 21.808 14.3069 21.808 14.1699 21.808C11.0147 21.7673 7.82901 21.7704 4.6738 21.808C4.41499 21.8111 4.15617 21.8017 3.89736 21.808C3.68423 21.8111 3.46347 21.7986 3.25034 21.808C3.02959 21.8174 2.77077 21.7892 2.56144 21.808C2.33308 21.8299 2.04382 21.9145 1.82688 21.9835C0.879171 22.2937 0.247368 23.0457 0.144604 23.8666C-0.293091 27.3916 0.47573 31.5182 0.144604 35.1027C0.285428 36.1587 1.24455 36.9483 2.54241 37.0579C6.83944 37.4214 11.8977 36.7853 16.2708 37.0579C17.4926 36.942 18.4631 36.2339 18.6686 35.2437V23.7256C18.4935 22.9423 17.9036 22.278 16.9864 21.9835H16.9749Z" fill="#231F20"/>
<path d="M10.2725 30.174C10.9005 30.6033 10.2611 31.1955 9.41992 31.1955C8.57879 31.1955 7.15533 29.8826 6.33703 30.6816C5.72045 31.2832 6.71002 31.8503 7.49787 32.1229C7.71482 32.1981 8.26669 32.2451 8.35423 32.3329C8.62827 32.6023 8.13729 33.1319 9.41992 33.0974C10.4666 33.0661 10.1469 32.4488 10.4247 32.2984C10.6797 32.1605 11.3686 32.0979 11.7949 31.8127C12.8872 31.0795 12.7236 29.7823 11.3382 29.234C10.5199 28.9081 7.82138 28.8204 8.42274 28.0935C9.12686 27.2412 10.5846 28.3379 11.2012 28.3504C11.9167 28.3661 12.2402 27.9211 12.0347 27.5107C11.7568 26.9592 10.5922 26.9216 10.3029 26.7273C10.0289 26.5425 10.1317 26.0286 9.18775 26.085C8.28572 26.1414 8.51789 26.5707 8.16393 26.7963C7.88228 26.978 7.23906 27.0501 6.83181 27.3822C6.03254 28.0339 6.21904 29.1337 7.41794 29.5348C8.12587 29.7729 9.83859 29.8795 10.2687 30.174H10.2725Z" fill="white"/>
</g>
<defs>
<clipPath id="clip0_99_6">
<rect width="150" height="47" fill="white"/>
</clipPath>
</defs>
</svg>
