<svg width="636" height="86" viewBox="0 0 636 86" fill="none" xmlns="http://www.w3.org/2000/svg">
<g filter="url(#filter0_dd_181_4)">
<path d="M15 17C15 10.3726 20.3726 5 27 5H609C615.627 5 621 10.3726 621 17V49C621 55.6274 615.627 61 609 61H27C20.3726 61 15 55.6274 15 49V17Z" fill="url(#paint0_linear_181_4)"/>
<path d="M230.556 26.3636L233.585 35.5227H233.704L236.727 26.3636H239.045L234.942 38H232.34L228.244 26.3636H230.556ZM243.413 38.1705C242.538 38.1705 241.782 37.9886 241.146 37.625C240.513 37.2576 240.026 36.7386 239.685 36.0682C239.344 35.3939 239.174 34.6004 239.174 33.6875C239.174 32.7898 239.344 32.0019 239.685 31.3239C240.03 30.642 240.511 30.1117 241.129 29.733C241.746 29.3504 242.471 29.1591 243.305 29.1591C243.843 29.1591 244.35 29.2462 244.827 29.4205C245.308 29.5909 245.733 29.8561 246.1 30.2159C246.471 30.5758 246.763 31.0341 246.975 31.5909C247.187 32.1439 247.293 32.803 247.293 33.5682V34.1989H240.14V32.8125H245.322C245.318 32.4186 245.233 32.0682 245.066 31.7614C244.899 31.4508 244.666 31.2064 244.367 31.0284C244.072 30.8504 243.727 30.7614 243.333 30.7614C242.913 30.7614 242.543 30.8636 242.225 31.0682C241.907 31.2689 241.659 31.5341 241.481 31.8636C241.307 32.1894 241.218 32.5473 241.214 32.9375V34.1477C241.214 34.6553 241.307 35.0909 241.492 35.4545C241.678 35.8144 241.937 36.0909 242.271 36.2841C242.604 36.4735 242.994 36.5682 243.441 36.5682C243.74 36.5682 244.011 36.5265 244.254 36.4432C244.496 36.3561 244.706 36.2292 244.884 36.0625C245.062 35.8958 245.197 35.6894 245.288 35.4432L247.208 35.6591C247.087 36.1667 246.856 36.6098 246.515 36.9886C246.178 37.3636 245.746 37.6553 245.219 37.8636C244.693 38.0682 244.091 38.1705 243.413 38.1705ZM249.033 38V29.2727H251.028V30.7273H251.119C251.278 30.2235 251.55 29.8352 251.937 29.5625C252.327 29.286 252.772 29.1477 253.272 29.1477C253.386 29.1477 253.513 29.1534 253.653 29.1648C253.797 29.1723 253.916 29.1856 254.011 29.2045V31.0966C253.924 31.0663 253.785 31.0398 253.596 31.017C253.41 30.9905 253.23 30.9773 253.056 30.9773C252.681 30.9773 252.344 31.0587 252.045 31.2216C251.749 31.3807 251.516 31.6023 251.346 31.8864C251.175 32.1705 251.09 32.4981 251.09 32.8693V38H249.033ZM255.377 38V29.2727H257.434V38H255.377ZM256.411 28.0341C256.085 28.0341 255.805 27.9261 255.57 27.7102C255.335 27.4905 255.218 27.2273 255.218 26.9205C255.218 26.6098 255.335 26.3466 255.57 26.1307C255.805 25.911 256.085 25.8011 256.411 25.8011C256.741 25.8011 257.021 25.911 257.252 26.1307C257.487 26.3466 257.604 26.6098 257.604 26.9205C257.604 27.2273 257.487 27.4905 257.252 27.7102C257.021 27.9261 256.741 28.0341 256.411 28.0341ZM263.969 29.2727V30.8636H258.81V29.2727H263.969ZM260.1 38V28.4489C260.1 27.8617 260.221 27.3731 260.464 26.983C260.71 26.5928 261.04 26.3011 261.452 26.108C261.865 25.9148 262.324 25.8182 262.827 25.8182C263.183 25.8182 263.5 25.8466 263.776 25.9034C264.053 25.9602 264.257 26.0114 264.39 26.0568L263.981 27.6477C263.894 27.6212 263.784 27.5947 263.651 27.5682C263.519 27.5379 263.371 27.5227 263.208 27.5227C262.826 27.5227 262.555 27.6155 262.396 27.8011C262.24 27.983 262.163 28.2443 262.163 28.5852V38H260.1ZM266.859 41.2727C266.578 41.2727 266.319 41.25 266.08 41.2045C265.845 41.1629 265.658 41.1136 265.518 41.0568L265.995 39.4545C266.294 39.5417 266.561 39.5833 266.796 39.5795C267.031 39.5758 267.237 39.5019 267.415 39.358C267.597 39.2178 267.751 38.983 267.876 38.6534L268.052 38.1818L264.887 29.2727H267.069L269.08 35.8636H269.171L271.188 29.2727H273.376L269.881 39.0568C269.719 39.5189 269.503 39.9148 269.234 40.2443C268.965 40.5777 268.635 40.8314 268.245 41.0057C267.859 41.1837 267.397 41.2727 266.859 41.2727ZM282.245 38.1705C281.45 38.1705 280.766 38.0265 280.194 37.7386C279.622 37.4508 279.181 37.0625 278.87 36.5739C278.563 36.0814 278.41 35.5265 278.41 34.9091C278.41 34.4432 278.504 34.0303 278.694 33.6705C278.887 33.3106 279.152 32.9773 279.489 32.6705C279.83 32.3636 280.224 32.0587 280.671 31.7557L282.734 30.3523C283.037 30.1553 283.266 29.947 283.421 29.7273C283.58 29.5076 283.66 29.25 283.66 28.9545C283.66 28.7045 283.554 28.4678 283.342 28.2443C283.133 28.0208 282.845 27.9091 282.478 27.9091C282.232 27.9091 282.014 27.9678 281.825 28.0852C281.639 28.1989 281.493 28.3485 281.387 28.5341C281.285 28.7197 281.234 28.9167 281.234 29.125C281.234 29.3788 281.304 29.6364 281.444 29.8977C281.588 30.1591 281.773 30.4299 282.001 30.7102C282.232 30.9905 282.478 31.2879 282.739 31.6023L288.2 38H285.972L281.438 32.8068C281.101 32.4129 280.775 32.0246 280.461 31.642C280.15 31.2595 279.895 30.8617 279.694 30.4489C279.497 30.0322 279.398 29.5814 279.398 29.0966C279.398 28.5473 279.525 28.0568 279.779 27.625C280.033 27.1894 280.387 26.8466 280.842 26.5966C281.3 26.3466 281.836 26.2216 282.45 26.2216C283.063 26.2216 283.59 26.3428 284.029 26.5852C284.469 26.8277 284.808 27.1496 285.046 27.5511C285.285 27.9527 285.404 28.3902 285.404 28.8636C285.404 29.4129 285.268 29.9053 284.995 30.3409C284.722 30.7727 284.344 31.1648 283.859 31.517L281.506 33.2386C281.12 33.5189 280.844 33.803 280.677 34.0909C280.51 34.375 280.427 34.6174 280.427 34.8182C280.427 35.125 280.504 35.4034 280.66 35.6534C280.815 35.9034 281.033 36.1042 281.313 36.2557C281.597 36.4034 281.929 36.4773 282.308 36.4773C282.724 36.4773 283.135 36.3845 283.54 36.1989C283.946 36.0095 284.315 35.7405 284.648 35.392C284.982 35.0436 285.247 34.6269 285.444 34.142C285.641 33.6534 285.739 33.1117 285.739 32.517H287.506C287.506 33.2519 287.425 33.892 287.262 34.4375C287.099 34.9792 286.889 35.4375 286.631 35.8125C286.374 36.1837 286.101 36.4811 285.813 36.7045C285.722 36.7689 285.635 36.8333 285.552 36.8977C285.469 36.9621 285.381 37.0265 285.29 37.0909C284.881 37.4621 284.402 37.7348 283.853 37.9091C283.308 38.0833 282.772 38.1705 282.245 38.1705ZM294.931 38H292.681L296.778 26.3636H299.38L303.482 38H301.232L298.124 28.75H298.033L294.931 38ZM295.005 33.4375H301.141V35.1307H295.005V33.4375ZM308.465 38.1705C307.594 38.1705 306.846 37.9792 306.221 37.5966C305.6 37.214 305.121 36.6856 304.783 36.0114C304.45 35.3333 304.283 34.553 304.283 33.6705C304.283 32.7841 304.454 32.0019 304.795 31.3239C305.136 30.642 305.617 30.1117 306.238 29.733C306.863 29.3504 307.602 29.1591 308.454 29.1591C309.162 29.1591 309.789 29.2898 310.335 29.5511C310.884 29.8087 311.321 30.1742 311.647 30.6477C311.973 31.1174 312.158 31.6667 312.204 32.2955H310.238C310.158 31.875 309.969 31.5246 309.67 31.2443C309.374 30.9602 308.978 30.8182 308.482 30.8182C308.062 30.8182 307.692 30.9318 307.374 31.1591C307.056 31.3826 306.808 31.7045 306.63 32.125C306.456 32.5455 306.369 33.0492 306.369 33.6364C306.369 34.2311 306.456 34.7424 306.63 35.1705C306.804 35.5947 307.049 35.9223 307.363 36.1534C307.681 36.3807 308.054 36.4943 308.482 36.4943C308.785 36.4943 309.056 36.4375 309.295 36.3239C309.537 36.2064 309.74 36.0379 309.903 35.8182C310.066 35.5985 310.177 35.3314 310.238 35.017H312.204C312.155 35.6345 311.973 36.1818 311.658 36.6591C311.344 37.1326 310.916 37.5038 310.374 37.7727C309.833 38.0379 309.196 38.1705 308.465 38.1705ZM317.7 38.1705C316.828 38.1705 316.08 37.9792 315.455 37.5966C314.834 37.214 314.355 36.6856 314.018 36.0114C313.684 35.3333 313.518 34.553 313.518 33.6705C313.518 32.7841 313.688 32.0019 314.029 31.3239C314.37 30.642 314.851 30.1117 315.472 29.733C316.097 29.3504 316.836 29.1591 317.688 29.1591C318.397 29.1591 319.023 29.2898 319.569 29.5511C320.118 29.8087 320.556 30.1742 320.881 30.6477C321.207 31.1174 321.393 31.6667 321.438 32.2955H319.472C319.393 31.875 319.203 31.5246 318.904 31.2443C318.609 30.9602 318.213 30.8182 317.717 30.8182C317.296 30.8182 316.927 30.9318 316.609 31.1591C316.29 31.3826 316.042 31.7045 315.864 32.125C315.69 32.5455 315.603 33.0492 315.603 33.6364C315.603 34.2311 315.69 34.7424 315.864 35.1705C316.039 35.5947 316.283 35.9223 316.597 36.1534C316.915 36.3807 317.289 36.4943 317.717 36.4943C318.02 36.4943 318.29 36.4375 318.529 36.3239C318.772 36.2064 318.974 36.0379 319.137 35.8182C319.3 35.5985 319.412 35.3314 319.472 35.017H321.438C321.389 35.6345 321.207 36.1818 320.893 36.6591C320.578 37.1326 320.15 37.5038 319.609 37.7727C319.067 38.0379 318.431 38.1705 317.7 38.1705ZM326.991 38.1705C326.116 38.1705 325.36 37.9886 324.724 37.625C324.091 37.2576 323.604 36.7386 323.263 36.0682C322.923 35.3939 322.752 34.6004 322.752 33.6875C322.752 32.7898 322.923 32.0019 323.263 31.3239C323.608 30.642 324.089 30.1117 324.707 29.733C325.324 29.3504 326.049 29.1591 326.883 29.1591C327.421 29.1591 327.928 29.2462 328.406 29.4205C328.887 29.5909 329.311 29.8561 329.678 30.2159C330.049 30.5758 330.341 31.0341 330.553 31.5909C330.765 32.1439 330.871 32.803 330.871 33.5682V34.1989H323.718V32.8125H328.9C328.896 32.4186 328.811 32.0682 328.644 31.7614C328.478 31.4508 328.245 31.2064 327.945 31.0284C327.65 30.8504 327.305 30.7614 326.911 30.7614C326.491 30.7614 326.121 30.8636 325.803 31.0682C325.485 31.2689 325.237 31.5341 325.059 31.8636C324.885 32.1894 324.796 32.5473 324.792 32.9375V34.1477C324.792 34.6553 324.885 35.0909 325.07 35.4545C325.256 35.8144 325.515 36.0909 325.849 36.2841C326.182 36.4735 326.572 36.5682 327.019 36.5682C327.318 36.5682 327.589 36.5265 327.832 36.4432C328.074 36.3561 328.284 36.2292 328.462 36.0625C328.64 35.8958 328.775 35.6894 328.866 35.4432L330.786 35.6591C330.665 36.1667 330.434 36.6098 330.093 36.9886C329.756 37.3636 329.324 37.6553 328.798 37.8636C328.271 38.0682 327.669 38.1705 326.991 38.1705ZM339.509 31.5795L337.634 31.7841C337.581 31.5947 337.488 31.4167 337.356 31.25C337.227 31.0833 337.053 30.9489 336.833 30.8466C336.613 30.7443 336.344 30.6932 336.026 30.6932C335.598 30.6932 335.238 30.786 334.947 30.9716C334.659 31.1572 334.517 31.3977 334.521 31.6932C334.517 31.947 334.61 32.1534 334.799 32.3125C334.992 32.4716 335.31 32.6023 335.754 32.7045L337.242 33.0227C338.068 33.2008 338.682 33.483 339.083 33.8693C339.488 34.2557 339.693 34.7614 339.697 35.3864C339.693 35.9356 339.532 36.4205 339.214 36.8409C338.899 37.2576 338.462 37.5833 337.901 37.8182C337.341 38.053 336.697 38.1705 335.969 38.1705C334.901 38.1705 334.041 37.947 333.39 37.5C332.738 37.0492 332.35 36.4223 332.225 35.6193L334.231 35.4261C334.322 35.8201 334.515 36.1174 334.81 36.3182C335.106 36.5189 335.49 36.6193 335.964 36.6193C336.452 36.6193 336.844 36.5189 337.14 36.3182C337.439 36.1174 337.589 35.8693 337.589 35.5739C337.589 35.3239 337.492 35.1174 337.299 34.9545C337.11 34.7917 336.814 34.6667 336.413 34.5795L334.924 34.267C334.087 34.0928 333.468 33.7992 333.066 33.3864C332.665 32.9697 332.466 32.4432 332.469 31.8068C332.466 31.2689 332.612 30.803 332.907 30.4091C333.206 30.0114 333.621 29.7045 334.151 29.4886C334.685 29.2689 335.301 29.1591 335.998 29.1591C337.021 29.1591 337.826 29.3769 338.413 29.8125C339.004 30.2481 339.369 30.8371 339.509 31.5795ZM348.29 31.5795L346.415 31.7841C346.362 31.5947 346.27 31.4167 346.137 31.25C346.008 31.0833 345.834 30.9489 345.614 30.8466C345.395 30.7443 345.126 30.6932 344.808 30.6932C344.379 30.6932 344.02 30.786 343.728 30.9716C343.44 31.1572 343.298 31.3977 343.302 31.6932C343.298 31.947 343.391 32.1534 343.58 32.3125C343.773 32.4716 344.092 32.6023 344.535 32.7045L346.023 33.0227C346.849 33.2008 347.463 33.483 347.864 33.8693C348.27 34.2557 348.474 34.7614 348.478 35.3864C348.474 35.9356 348.313 36.4205 347.995 36.8409C347.681 37.2576 347.243 37.5833 346.683 37.8182C346.122 38.053 345.478 38.1705 344.751 38.1705C343.683 38.1705 342.823 37.947 342.171 37.5C341.52 37.0492 341.131 36.4223 341.006 35.6193L343.012 35.4261C343.103 35.8201 343.296 36.1174 343.592 36.3182C343.887 36.5189 344.272 36.6193 344.745 36.6193C345.234 36.6193 345.626 36.5189 345.921 36.3182C346.22 36.1174 346.37 35.8693 346.37 35.5739C346.37 35.3239 346.273 35.1174 346.08 34.9545C345.891 34.7917 345.595 34.6667 345.194 34.5795L343.705 34.267C342.868 34.0928 342.249 33.7992 341.847 33.3864C341.446 32.9697 341.247 32.4432 341.251 31.8068C341.247 31.2689 341.393 30.803 341.688 30.4091C341.987 30.0114 342.402 29.7045 342.933 29.4886C343.467 29.2689 344.082 29.1591 344.779 29.1591C345.802 29.1591 346.607 29.3769 347.194 29.8125C347.785 30.2481 348.15 30.8371 348.29 31.5795ZM358.177 38H354.234V26.3636H358.256C359.412 26.3636 360.404 26.5966 361.234 27.0625C362.067 27.5246 362.707 28.1894 363.154 29.0568C363.601 29.9242 363.825 30.9621 363.825 32.1705C363.825 33.3826 363.599 34.4242 363.148 35.2955C362.701 36.1667 362.056 36.8352 361.211 37.3011C360.37 37.767 359.359 38 358.177 38ZM356.342 36.1761H358.075C358.885 36.1761 359.561 36.0284 360.103 35.733C360.645 35.4337 361.052 34.9886 361.325 34.3977C361.597 33.803 361.734 33.0606 361.734 32.1705C361.734 31.2803 361.597 30.5417 361.325 29.9545C361.052 29.3636 360.648 28.9223 360.114 28.6307C359.584 28.3352 358.925 28.1875 358.137 28.1875H356.342V36.1761ZM368.248 38.1761C367.695 38.1761 367.197 38.0777 366.754 37.8807C366.314 37.6799 365.966 37.3845 365.708 36.9943C365.454 36.6042 365.327 36.1231 365.327 35.5511C365.327 35.0587 365.418 34.6515 365.6 34.3295C365.782 34.0076 366.03 33.75 366.344 33.5568C366.659 33.3636 367.013 33.2178 367.407 33.1193C367.805 33.017 368.216 32.9432 368.64 32.8977C369.151 32.8447 369.566 32.7973 369.884 32.7557C370.202 32.7102 370.433 32.642 370.577 32.5511C370.725 32.4564 370.799 32.3106 370.799 32.1136V32.0795C370.799 31.6515 370.672 31.3201 370.418 31.0852C370.165 30.8504 369.799 30.733 369.322 30.733C368.818 30.733 368.418 30.8428 368.123 31.0625C367.831 31.2822 367.634 31.5417 367.532 31.8409L365.612 31.5682C365.763 31.0379 366.013 30.5947 366.362 30.2386C366.71 29.8788 367.136 29.6098 367.64 29.4318C368.144 29.25 368.701 29.1591 369.31 29.1591C369.731 29.1591 370.149 29.2083 370.566 29.3068C370.983 29.4053 371.363 29.5682 371.708 29.7955C372.053 30.0189 372.329 30.3239 372.538 30.7102C372.75 31.0966 372.856 31.5795 372.856 32.1591V38H370.879V36.8011H370.81C370.685 37.0436 370.509 37.2708 370.282 37.483C370.058 37.6913 369.776 37.8598 369.435 37.9886C369.098 38.1136 368.702 38.1761 368.248 38.1761ZM368.782 36.6648C369.195 36.6648 369.553 36.5833 369.856 36.4205C370.159 36.2538 370.392 36.0341 370.555 35.7614C370.721 35.4886 370.805 35.1913 370.805 34.8693V33.8409C370.74 33.8939 370.63 33.9432 370.475 33.9886C370.324 34.0341 370.153 34.0739 369.964 34.108C369.774 34.142 369.587 34.1723 369.401 34.1989C369.216 34.2254 369.055 34.2481 368.918 34.267C368.612 34.3087 368.337 34.3769 368.094 34.4716C367.852 34.5663 367.661 34.6989 367.521 34.8693C367.38 35.036 367.31 35.2519 367.31 35.517C367.31 35.8958 367.449 36.1818 367.725 36.375C368.002 36.5682 368.354 36.6648 368.782 36.6648ZM381.822 31.5795L379.947 31.7841C379.894 31.5947 379.801 31.4167 379.668 31.25C379.54 31.0833 379.365 30.9489 379.146 30.8466C378.926 30.7443 378.657 30.6932 378.339 30.6932C377.911 30.6932 377.551 30.786 377.259 30.9716C376.971 31.1572 376.829 31.3977 376.833 31.6932C376.829 31.947 376.922 32.1534 377.112 32.3125C377.305 32.4716 377.623 32.6023 378.066 32.7045L379.555 33.0227C380.38 33.2008 380.994 33.483 381.396 33.8693C381.801 34.2557 382.005 34.7614 382.009 35.3864C382.005 35.9356 381.844 36.4205 381.526 36.8409C381.212 37.2576 380.774 37.5833 380.214 37.8182C379.653 38.053 379.009 38.1705 378.282 38.1705C377.214 38.1705 376.354 37.947 375.702 37.5C375.051 37.0492 374.663 36.4223 374.538 35.6193L376.543 35.4261C376.634 35.8201 376.827 36.1174 377.123 36.3182C377.418 36.5189 377.803 36.6193 378.276 36.6193C378.765 36.6193 379.157 36.5189 379.452 36.3182C379.752 36.1174 379.901 35.8693 379.901 35.5739C379.901 35.3239 379.805 35.1174 379.612 34.9545C379.422 34.7917 379.127 34.6667 378.725 34.5795L377.237 34.267C376.399 34.0928 375.78 33.7992 375.379 33.3864C374.977 32.9697 374.778 32.4432 374.782 31.8068C374.778 31.2689 374.924 30.803 375.219 30.4091C375.519 30.0114 375.933 29.7045 376.464 29.4886C376.998 29.2689 377.613 29.1591 378.31 29.1591C379.333 29.1591 380.138 29.3769 380.725 29.8125C381.316 30.2481 381.682 30.8371 381.822 31.5795ZM385.762 32.8864V38H383.705V26.3636H385.717V30.7557H385.819C386.023 30.2633 386.34 29.875 386.768 29.5909C387.2 29.303 387.749 29.1591 388.415 29.1591C389.022 29.1591 389.55 29.286 390.001 29.5398C390.451 29.7936 390.8 30.1648 391.046 30.6534C391.296 31.142 391.421 31.7386 391.421 32.4432V38H389.364V32.7614C389.364 32.1742 389.213 31.7178 388.91 31.392C388.611 31.0625 388.19 30.8977 387.648 30.8977C387.285 30.8977 386.959 30.9773 386.671 31.1364C386.387 31.2917 386.164 31.517 386.001 31.8125C385.842 32.108 385.762 32.4659 385.762 32.8864ZM393.609 38V26.3636H395.665V30.7159H395.751C395.857 30.5038 396.006 30.2784 396.2 30.0398C396.393 29.7973 396.654 29.5909 396.984 29.4205C397.313 29.2462 397.734 29.1591 398.245 29.1591C398.919 29.1591 399.527 29.3314 400.069 29.6761C400.614 30.017 401.046 30.5227 401.364 31.1932C401.686 31.8598 401.847 32.678 401.847 33.6477C401.847 34.6061 401.69 35.4205 401.376 36.0909C401.061 36.7614 400.633 37.2727 400.092 37.625C399.55 37.9773 398.936 38.1534 398.251 38.1534C397.751 38.1534 397.336 38.0701 397.006 37.9034C396.677 37.7367 396.412 37.536 396.211 37.3011C396.014 37.0625 395.861 36.8371 395.751 36.625H395.631V38H393.609ZM395.626 33.6364C395.626 34.2008 395.705 34.6951 395.864 35.1193C396.027 35.5436 396.26 35.875 396.563 36.1136C396.87 36.3485 397.241 36.4659 397.677 36.4659C398.131 36.4659 398.512 36.3447 398.819 36.1023C399.126 35.8561 399.357 35.5208 399.512 35.0966C399.671 34.6686 399.751 34.1818 399.751 33.6364C399.751 33.0947 399.673 32.6136 399.518 32.1932C399.362 31.7727 399.131 31.4432 398.825 31.2045C398.518 30.9659 398.135 30.8466 397.677 30.8466C397.237 30.8466 396.864 30.9621 396.558 31.1932C396.251 31.4242 396.018 31.7481 395.859 32.1648C395.703 32.5814 395.626 33.072 395.626 33.6364ZM407.403 38.1705C406.55 38.1705 405.812 37.983 405.187 37.608C404.562 37.233 404.077 36.7083 403.732 36.0341C403.391 35.3598 403.221 34.572 403.221 33.6705C403.221 32.7689 403.391 31.9792 403.732 31.3011C404.077 30.6231 404.562 30.0966 405.187 29.7216C405.812 29.3466 406.55 29.1591 407.403 29.1591C408.255 29.1591 408.994 29.3466 409.619 29.7216C410.244 30.0966 410.727 30.6231 411.067 31.3011C411.412 31.9792 411.585 32.7689 411.585 33.6705C411.585 34.572 411.412 35.3598 411.067 36.0341C410.727 36.7083 410.244 37.233 409.619 37.608C408.994 37.983 408.255 38.1705 407.403 38.1705ZM407.414 36.5227C407.876 36.5227 408.263 36.3958 408.573 36.142C408.884 35.8845 409.115 35.5398 409.266 35.108C409.422 34.6761 409.499 34.1951 409.499 33.6648C409.499 33.1307 409.422 32.6477 409.266 32.2159C409.115 31.7803 408.884 31.4337 408.573 31.1761C408.263 30.9186 407.876 30.7898 407.414 30.7898C406.941 30.7898 406.547 30.9186 406.232 31.1761C405.922 31.4337 405.689 31.7803 405.533 32.2159C405.382 32.6477 405.306 33.1307 405.306 33.6648C405.306 34.1951 405.382 34.6761 405.533 35.108C405.689 35.5398 405.922 35.8845 406.232 36.142C406.547 36.3958 406.941 36.5227 407.414 36.5227ZM415.842 38.1761C415.289 38.1761 414.79 38.0777 414.347 37.8807C413.908 37.6799 413.559 37.3845 413.302 36.9943C413.048 36.6042 412.921 36.1231 412.921 35.5511C412.921 35.0587 413.012 34.6515 413.194 34.3295C413.376 34.0076 413.624 33.75 413.938 33.5568C414.253 33.3636 414.607 33.2178 415.001 33.1193C415.398 33.017 415.809 32.9432 416.234 32.8977C416.745 32.8447 417.16 32.7973 417.478 32.7557C417.796 32.7102 418.027 32.642 418.171 32.5511C418.319 32.4564 418.393 32.3106 418.393 32.1136V32.0795C418.393 31.6515 418.266 31.3201 418.012 31.0852C417.758 30.8504 417.393 30.733 416.915 30.733C416.412 30.733 416.012 30.8428 415.717 31.0625C415.425 31.2822 415.228 31.5417 415.126 31.8409L413.205 31.5682C413.357 31.0379 413.607 30.5947 413.955 30.2386C414.304 29.8788 414.73 29.6098 415.234 29.4318C415.737 29.25 416.294 29.1591 416.904 29.1591C417.325 29.1591 417.743 29.2083 418.16 29.3068C418.576 29.4053 418.957 29.5682 419.302 29.7955C419.647 30.0189 419.923 30.3239 420.131 30.7102C420.344 31.0966 420.45 31.5795 420.45 32.1591V38H418.472V36.8011H418.404C418.279 37.0436 418.103 37.2708 417.876 37.483C417.652 37.6913 417.37 37.8598 417.029 37.9886C416.692 38.1136 416.296 38.1761 415.842 38.1761ZM416.376 36.6648C416.789 36.6648 417.147 36.5833 417.45 36.4205C417.753 36.2538 417.986 36.0341 418.148 35.7614C418.315 35.4886 418.398 35.1913 418.398 34.8693V33.8409C418.334 33.8939 418.224 33.9432 418.069 33.9886C417.917 34.0341 417.747 34.0739 417.558 34.108C417.368 34.142 417.181 34.1723 416.995 34.1989C416.809 34.2254 416.648 34.2481 416.512 34.267C416.205 34.3087 415.931 34.3769 415.688 34.4716C415.446 34.5663 415.254 34.6989 415.114 34.8693C414.974 35.036 414.904 35.2519 414.904 35.517C414.904 35.8958 415.042 36.1818 415.319 36.375C415.595 36.5682 415.948 36.6648 416.376 36.6648ZM422.518 38V29.2727H424.512V30.7273H424.603C424.762 30.2235 425.035 29.8352 425.421 29.5625C425.811 29.286 426.256 29.1477 426.756 29.1477C426.87 29.1477 426.997 29.1534 427.137 29.1648C427.281 29.1723 427.4 29.1856 427.495 29.2045V31.0966C427.408 31.0663 427.27 31.0398 427.08 31.017C426.895 30.9905 426.715 30.9773 426.54 30.9773C426.165 30.9773 425.828 31.0587 425.529 31.2216C425.234 31.3807 425.001 31.6023 424.83 31.8864C424.66 32.1705 424.575 32.4981 424.575 32.8693V38H422.518ZM431.741 38.1534C431.055 38.1534 430.442 37.9773 429.9 37.625C429.358 37.2727 428.93 36.7614 428.616 36.0909C428.301 35.4205 428.144 34.6061 428.144 33.6477C428.144 32.678 428.303 31.8598 428.621 31.1932C428.943 30.5227 429.377 30.017 429.923 29.6761C430.468 29.3314 431.076 29.1591 431.746 29.1591C432.258 29.1591 432.678 29.2462 433.008 29.4205C433.337 29.5909 433.599 29.7973 433.792 30.0398C433.985 30.2784 434.135 30.5038 434.241 30.7159H434.326V26.3636H436.388V38H434.366V36.625H434.241C434.135 36.8371 433.981 37.0625 433.781 37.3011C433.58 37.536 433.315 37.7367 432.985 37.9034C432.656 38.0701 432.241 38.1534 431.741 38.1534ZM432.315 36.4659C432.75 36.4659 433.121 36.3485 433.428 36.1136C433.735 35.875 433.968 35.5436 434.127 35.1193C434.286 34.6951 434.366 34.2008 434.366 33.6364C434.366 33.072 434.286 32.5814 434.127 32.1648C433.972 31.7481 433.741 31.4242 433.434 31.1932C433.131 30.9621 432.758 30.8466 432.315 30.8466C431.856 30.8466 431.474 30.9659 431.167 31.2045C430.86 31.4432 430.629 31.7727 430.474 32.1932C430.318 32.6136 430.241 33.0947 430.241 33.6364C430.241 34.1818 430.318 34.6686 430.474 35.0966C430.633 35.5208 430.866 35.8561 431.173 36.1023C431.483 36.3447 431.864 36.4659 432.315 36.4659Z" fill="white"/>
</g>
<defs>
<filter id="filter0_dd_181_4" x="0" y="0" width="636" height="86" filterUnits="userSpaceOnUse" color-interpolation-filters="sRGB">
<feFlood flood-opacity="0" result="BackgroundImageFix"/>
<feColorMatrix in="SourceAlpha" type="matrix" values="0 0 0 0 0 0 0 0 0 0 0 0 0 0 0 0 0 0 127 0" result="hardAlpha"/>
<feOffset dy="10"/>
<feGaussianBlur stdDeviation="7.5"/>
<feColorMatrix type="matrix" values="0 0 0 0 0 0 0 0 0 0 0 0 0 0 0 0 0 0 0.1 0"/>
<feBlend mode="normal" in2="BackgroundImageFix" result="effect1_dropShadow_181_4"/>
<feColorMatrix in="SourceAlpha" type="matrix" values="0 0 0 0 0 0 0 0 0 0 0 0 0 0 0 0 0 0 127 0" result="hardAlpha"/>
<feOffset dy="4"/>
<feGaussianBlur stdDeviation="3"/>
<feColorMatrix type="matrix" values="0 0 0 0 0 0 0 0 0 0 0 0 0 0 0 0 0 0 0.1 0"/>
<feBlend mode="normal" in2="effect1_dropShadow_181_4" result="effect2_dropShadow_181_4"/>
<feBlend mode="normal" in="SourceGraphic" in2="effect2_dropShadow_181_4" result="shape"/>
</filter>
<linearGradient id="paint0_linear_181_4" x1="15" y1="33" x2="621" y2="33" gradientUnits="userSpaceOnUse">
<stop stop-color="#2563EB"/>
<stop offset="1" stop-color="#1D4ED8"/>
</linearGradient>
</defs>
</svg>
