<svg width="101" height="37" viewBox="0 0 101 37" fill="none" xmlns="http://www.w3.org/2000/svg">
<rect width="100.55" height="37" rx="12" fill="#4ADE80"/>
<path d="M26.8374 22H25.3232L28.7255 12.5455H30.3736L33.7759 22H32.2617L29.5888 14.2628H29.5149L26.8374 22ZM27.0913 18.2976H32.0032V19.4979H27.0913V18.2976ZM35.0305 24.6591V14.9091H36.3785V16.0586H36.4939C36.5739 15.9109 36.6893 15.7401 36.8401 15.5462C36.9909 15.3523 37.2002 15.183 37.468 15.0384C37.7357 14.8906 38.0896 14.8168 38.5297 14.8168C39.1022 14.8168 39.6131 14.9614 40.0624 15.2507C40.5117 15.54 40.8641 15.957 41.1196 16.5018C41.3781 17.0465 41.5074 17.7021 41.5074 18.4684C41.5074 19.2347 41.3796 19.8918 41.1242 20.4396C40.8688 20.9844 40.5179 21.4045 40.0716 21.6999C39.6254 21.9923 39.116 22.1385 38.5436 22.1385C38.1127 22.1385 37.7603 22.0662 37.4864 21.9215C37.2156 21.7769 37.0032 21.6076 36.8493 21.4137C36.6955 21.2198 36.577 21.0475 36.4939 20.8967H36.4108V24.6591H35.0305ZM36.3831 18.4545C36.3831 18.9531 36.4554 19.3902 36.6001 19.7656C36.7447 20.1411 36.954 20.435 37.2279 20.6474C37.5018 20.8567 37.8373 20.9613 38.2343 20.9613C38.6467 20.9613 38.9914 20.852 39.2684 20.6335C39.5454 20.4119 39.7546 20.1119 39.8962 19.7333C40.0409 19.3548 40.1132 18.9285 40.1132 18.4545C40.1132 17.9867 40.0424 17.5666 39.9008 17.1942C39.7623 16.8219 39.5531 16.5279 39.273 16.3125C38.996 16.0971 38.6498 15.9893 38.2343 15.9893C37.8342 15.9893 37.4956 16.0924 37.2187 16.2987C36.9448 16.5049 36.737 16.7926 36.5954 17.1619C36.4539 17.5312 36.3831 17.9621 36.3831 18.4545ZM43.0539 24.6591V14.9091H44.4019V16.0586H44.5173C44.5973 15.9109 44.7127 15.7401 44.8635 15.5462C45.0144 15.3523 45.2236 15.183 45.4914 15.0384C45.7591 14.8906 46.1131 14.8168 46.5532 14.8168C47.1256 14.8168 47.6365 14.9614 48.0858 15.2507C48.5352 15.54 48.8876 15.957 49.143 16.5018C49.4015 17.0465 49.5308 17.7021 49.5308 18.4684C49.5308 19.2347 49.4031 19.8918 49.1476 20.4396C48.8922 20.9844 48.5413 21.4045 48.0951 21.6999C47.6488 21.9923 47.1395 22.1385 46.567 22.1385C46.1362 22.1385 45.7838 22.0662 45.5099 21.9215C45.239 21.7769 45.0267 21.6076 44.8728 21.4137C44.7189 21.2198 44.6004 21.0475 44.5173 20.8967H44.4342V24.6591H43.0539ZM44.4065 18.4545C44.4065 18.9531 44.4788 19.3902 44.6235 19.7656C44.7681 20.1411 44.9774 20.435 45.2513 20.6474C45.5252 20.8567 45.8607 20.9613 46.2577 20.9613C46.6701 20.9613 47.0148 20.852 47.2918 20.6335C47.5688 20.4119 47.7781 20.1119 47.9197 19.7333C48.0643 19.3548 48.1366 18.9285 48.1366 18.4545C48.1366 17.9867 48.0658 17.5666 47.9243 17.1942C47.7858 16.8219 47.5765 16.5279 47.2964 16.3125C47.0194 16.0971 46.6732 15.9893 46.2577 15.9893C45.8576 15.9893 45.5191 16.0924 45.2421 16.2987C44.9682 16.5049 44.7604 16.7926 44.6189 17.1619C44.4773 17.5312 44.4065 17.9621 44.4065 18.4545ZM51.0773 22V14.9091H52.4115V16.0355H52.4854C52.6146 15.6539 52.8424 15.3538 53.1686 15.1353C53.4979 14.9137 53.8703 14.8029 54.2858 14.8029C54.372 14.8029 54.4735 14.806 54.5905 14.8121C54.7105 14.8183 54.8044 14.826 54.8721 14.8352V16.1555C54.8167 16.1402 54.7182 16.1232 54.5766 16.1048C54.435 16.0832 54.2935 16.0724 54.1519 16.0724C53.8257 16.0724 53.5348 16.1417 53.2794 16.2802C53.027 16.4156 52.827 16.6049 52.6792 16.848C52.5315 17.0881 52.4577 17.362 52.4577 17.6697V22H51.0773ZM58.7995 22.1431C58.1348 22.1431 57.5546 21.9908 57.0591 21.6861C56.5636 21.3814 56.1789 20.9551 55.905 20.4073C55.6311 19.8595 55.4941 19.2193 55.4941 18.4869C55.4941 17.7513 55.6311 17.1081 55.905 16.5572C56.1789 16.0063 56.5636 15.5785 57.0591 15.2738C57.5546 14.9691 58.1348 14.8168 58.7995 14.8168C59.4643 14.8168 60.0444 14.9691 60.54 15.2738C61.0355 15.5785 61.4202 16.0063 61.6941 16.5572C61.968 17.1081 62.1049 17.7513 62.1049 18.4869C62.1049 19.2193 61.968 19.8595 61.6941 20.4073C61.4202 20.9551 61.0355 21.3814 60.54 21.6861C60.0444 21.9908 59.4643 22.1431 58.7995 22.1431ZM58.8042 20.9844C59.235 20.9844 59.592 20.8705 59.8752 20.6428C60.1583 20.415 60.3676 20.1119 60.503 19.7333C60.6415 19.3548 60.7108 18.9377 60.7108 18.4822C60.7108 18.0298 60.6415 17.6143 60.503 17.2358C60.3676 16.8542 60.1583 16.5479 59.8752 16.3171C59.592 16.0863 59.235 15.9709 58.8042 15.9709C58.3702 15.9709 58.0101 16.0863 57.7239 16.3171C57.4408 16.5479 57.2299 16.8542 57.0914 17.2358C56.956 17.6143 56.8883 18.0298 56.8883 18.4822C56.8883 18.9377 56.956 19.3548 57.0914 19.7333C57.2299 20.1119 57.4408 20.415 57.7239 20.6428C58.0101 20.8705 58.3702 20.9844 58.8042 20.9844ZM69.4705 14.9091L66.8991 22H65.4219L62.8459 14.9091H64.3278L66.1236 20.3658H66.1974L67.9886 14.9091H69.4705ZM73.5827 22.1431C72.884 22.1431 72.2823 21.9938 71.7776 21.6953C71.276 21.3937 70.8882 20.9705 70.6143 20.4258C70.3434 19.878 70.208 19.2363 70.208 18.5007C70.208 17.7744 70.3434 17.1342 70.6143 16.5803C70.8882 16.0263 71.2698 15.5939 71.7591 15.283C72.2516 14.9722 72.8271 14.8168 73.4857 14.8168C73.8858 14.8168 74.2736 14.8829 74.6491 15.0153C75.0245 15.1476 75.3615 15.3554 75.6601 15.6385C75.9586 15.9216 76.194 16.2894 76.3664 16.7418C76.5387 17.1912 76.6249 17.7375 76.6249 18.3807V18.87H70.9882V17.8359H75.2723C75.2723 17.4728 75.1984 17.1512 75.0507 16.8711C74.903 16.5879 74.6952 16.3648 74.4275 16.2017C74.1628 16.0386 73.8519 15.957 73.4949 15.957C73.1072 15.957 72.7686 16.0524 72.4793 16.2433C72.1931 16.431 71.9715 16.6772 71.8145 16.9819C71.6607 17.2835 71.5837 17.6113 71.5837 17.9652V18.7731C71.5837 19.247 71.6668 19.6502 71.833 19.9826C72.0023 20.315 72.2377 20.5689 72.5393 20.7443C72.8409 20.9167 73.1933 21.0028 73.5965 21.0028C73.8581 21.0028 74.0966 20.9659 74.3121 20.892C74.5275 20.8151 74.7137 20.7012 74.8706 20.5504C75.0276 20.3996 75.1476 20.2134 75.2307 19.9918L76.5372 20.2273C76.4326 20.612 76.2448 20.949 75.974 21.2383C75.7062 21.5245 75.3692 21.7476 74.963 21.9077C74.5598 22.0646 74.0997 22.1431 73.5827 22.1431Z" fill="#0C0C0E"/>
</svg>
