<svg width="164" height="41" viewBox="0 0 164 41" fill="none" xmlns="http://www.w3.org/2000/svg">
<rect x="0.5" y="0.5" width="162.23" height="40" rx="11.5" fill="#6366F1"/>
<rect x="0.5" y="0.5" width="162.23" height="40" rx="11.5" stroke="#6366F1"/>
<path d="M29.5341 17.6667C29.8385 19.1609 29.6215 20.7143 28.9193 22.0679C28.2171 23.4214 27.072 24.4934 25.6751 25.1049C24.2782 25.7164 22.7138 25.8305 21.2429 25.4282C19.772 25.026 18.4835 24.1316 17.5923 22.8943C16.701 21.657 16.2608 20.1515 16.3452 18.6289C16.4295 17.1063 17.0333 15.6587 18.0558 14.5274C19.0783 13.3962 20.4578 12.6496 21.9641 12.4123C23.4704 12.175 25.0126 12.4612 26.3334 13.2233" stroke="#F8FAFC" stroke-width="1.33333" stroke-linecap="round" stroke-linejoin="round"/>
<path d="M21 18.3334L23 20.3334L29.6667 13.6667" stroke="#F8FAFC" stroke-width="1.33333" stroke-linecap="round" stroke-linejoin="round"/>
<path d="M36.6838 27H35.0531L38.7172 16.8182H40.492L44.1561 27H42.5254L39.6468 18.6676H39.5673L36.6838 27ZM36.9572 23.0128H42.247V24.3054H36.9572V23.0128ZM45.5071 29.8636V19.3636H46.9588V20.6016H47.0831C47.1693 20.4425 47.2936 20.2585 47.456 20.0497C47.6184 19.8409 47.8438 19.6586 48.1321 19.5028C48.4205 19.3438 48.8016 19.2642 49.2756 19.2642C49.892 19.2642 50.4422 19.42 50.9261 19.7315C51.41 20.0431 51.7895 20.4922 52.0646 21.0788C52.343 21.6655 52.4822 22.3714 52.4822 23.1967C52.4822 24.022 52.3447 24.7296 52.0696 25.3196C51.7945 25.9062 51.4167 26.3587 50.9361 26.6768C50.4555 26.9917 49.907 27.1491 49.2905 27.1491C48.8265 27.1491 48.447 27.0713 48.152 26.9155C47.8603 26.7597 47.6316 26.5774 47.4659 26.3686C47.3002 26.1598 47.1726 25.9742 47.0831 25.8118H46.9936V29.8636H45.5071ZM46.9638 23.1818C46.9638 23.7187 47.0417 24.1894 47.1974 24.5938C47.3532 24.9981 47.5786 25.3146 47.8736 25.5433C48.1686 25.7687 48.5298 25.8814 48.9574 25.8814C49.4015 25.8814 49.7727 25.7637 50.071 25.5284C50.3693 25.2898 50.5947 24.9666 50.7472 24.5589C50.9029 24.1513 50.9808 23.6922 50.9808 23.1818C50.9808 22.678 50.9046 22.2256 50.7521 21.8246C50.603 21.4235 50.3776 21.107 50.076 20.875C49.7777 20.643 49.4048 20.527 48.9574 20.527C48.5265 20.527 48.1619 20.638 47.8636 20.8601C47.5687 21.0821 47.3449 21.392 47.1925 21.7898C47.04 22.1875 46.9638 22.6515 46.9638 23.1818ZM54.1477 29.8636V19.3636H55.5994V20.6016H55.7237C55.8099 20.4425 55.9342 20.2585 56.0966 20.0497C56.259 19.8409 56.4844 19.6586 56.7727 19.5028C57.0611 19.3438 57.4422 19.2642 57.9162 19.2642C58.5327 19.2642 59.0829 19.42 59.5668 19.7315C60.0507 20.0431 60.4302 20.4922 60.7053 21.0788C60.9837 21.6655 61.1229 22.3714 61.1229 23.1967C61.1229 24.022 60.9853 24.7296 60.7102 25.3196C60.4351 25.9062 60.0573 26.3587 59.5767 26.6768C59.0961 26.9917 58.5476 27.1491 57.9311 27.1491C57.4671 27.1491 57.0876 27.0713 56.7926 26.9155C56.5009 26.7597 56.2723 26.5774 56.1065 26.3686C55.9408 26.1598 55.8132 25.9742 55.7237 25.8118H55.6342V29.8636H54.1477ZM55.6044 23.1818C55.6044 23.7187 55.6823 24.1894 55.8381 24.5938C55.9938 24.9981 56.2192 25.3146 56.5142 25.5433C56.8092 25.7687 57.1705 25.8814 57.598 25.8814C58.0421 25.8814 58.4134 25.7637 58.7116 25.5284C59.0099 25.2898 59.2353 24.9666 59.3878 24.5589C59.5436 24.1513 59.6214 23.6922 59.6214 23.1818C59.6214 22.678 59.5452 22.2256 59.3928 21.8246C59.2436 21.4235 59.0182 21.107 58.7166 20.875C58.4183 20.643 58.0455 20.527 57.598 20.527C57.1671 20.527 56.8026 20.638 56.5043 20.8601C56.2093 21.0821 55.9856 21.392 55.8331 21.7898C55.6806 22.1875 55.6044 22.6515 55.6044 23.1818ZM62.7884 27V19.3636H64.2251V20.5767H64.3047C64.4439 20.1657 64.6892 19.8426 65.0405 19.6072C65.3951 19.3686 65.7962 19.2493 66.2436 19.2493C66.3364 19.2493 66.4458 19.2526 66.5717 19.2592C66.701 19.2659 66.8021 19.2741 66.875 19.2841V20.706C66.8153 20.6894 66.7093 20.6712 66.5568 20.6513C66.4044 20.6281 66.2519 20.6165 66.0994 20.6165C65.7481 20.6165 65.4349 20.6911 65.1598 20.8402C64.888 20.986 64.6726 21.1899 64.5135 21.4517C64.3544 21.7102 64.2749 22.0052 64.2749 22.3366V27H62.7884ZM71.1046 27.1541C70.3887 27.1541 69.7639 26.9901 69.2303 26.6619C68.6967 26.3338 68.2824 25.8748 67.9874 25.2848C67.6924 24.6948 67.5449 24.0054 67.5449 23.2166C67.5449 22.4245 67.6924 21.7318 67.9874 21.1385C68.2824 20.5452 68.6967 20.0845 69.2303 19.7564C69.7639 19.4283 70.3887 19.2642 71.1046 19.2642C71.8205 19.2642 72.4453 19.4283 72.9789 19.7564C73.5125 20.0845 73.9268 20.5452 74.2218 21.1385C74.5167 21.7318 74.6642 22.4245 74.6642 23.2166C74.6642 24.0054 74.5167 24.6948 74.2218 25.2848C73.9268 25.8748 73.5125 26.3338 72.9789 26.6619C72.4453 26.9901 71.8205 27.1541 71.1046 27.1541ZM71.1096 25.9062C71.5736 25.9062 71.958 25.7836 72.263 25.5384C72.5679 25.2931 72.7933 24.9666 72.9391 24.5589C73.0882 24.1513 73.1628 23.7022 73.1628 23.2116C73.1628 22.7244 73.0882 22.277 72.9391 21.8693C72.7933 21.4583 72.5679 21.1286 72.263 20.88C71.958 20.6314 71.5736 20.5071 71.1096 20.5071C70.6422 20.5071 70.2544 20.6314 69.9462 20.88C69.6413 21.1286 69.4142 21.4583 69.2651 21.8693C69.1193 22.277 69.0463 22.7244 69.0463 23.2116C69.0463 23.7022 69.1193 24.1513 69.2651 24.5589C69.4142 24.9666 69.6413 25.2931 69.9462 25.5384C70.2544 25.7836 70.6422 25.9062 71.1096 25.9062ZM82.5964 19.3636L79.8272 27H78.2363L75.4622 19.3636H77.0581L78.992 25.2401H79.0716L81.0005 19.3636H82.5964ZM87.0249 27.1541C86.2725 27.1541 85.6245 26.9934 85.081 26.6719C84.5407 26.3471 84.1231 25.8913 83.8281 25.3047C83.5365 24.7147 83.3906 24.0237 83.3906 23.2315C83.3906 22.4493 83.5365 21.7599 83.8281 21.1634C84.1231 20.5668 84.5341 20.1011 85.0611 19.7663C85.5914 19.4316 86.2112 19.2642 86.9205 19.2642C87.3513 19.2642 87.7689 19.3355 88.1733 19.478C88.5777 19.6205 88.9406 19.8442 89.2621 20.1491C89.5836 20.4541 89.8371 20.8501 90.0227 21.3374C90.2083 21.8213 90.3011 22.4096 90.3011 23.1023V23.6293H84.2308V22.5156H88.8445C88.8445 22.1245 88.7649 21.7782 88.6058 21.4766C88.4467 21.1716 88.223 20.9313 87.9347 20.7557C87.6496 20.58 87.3149 20.4922 86.9304 20.4922C86.5128 20.4922 86.1482 20.5949 85.8366 20.8004C85.5284 21.0026 85.2898 21.2678 85.1207 21.5959C84.955 21.9207 84.8722 22.2737 84.8722 22.6548V23.5249C84.8722 24.0353 84.9616 24.4695 85.1406 24.8274C85.3229 25.1854 85.5765 25.4588 85.9013 25.6477C86.2261 25.8333 86.6056 25.9261 87.0398 25.9261C87.3215 25.9261 87.5784 25.8864 87.8104 25.8068C88.0424 25.724 88.2429 25.6013 88.4119 25.4389C88.581 25.2765 88.7102 25.076 88.7997 24.8374L90.2067 25.0909C90.094 25.5052 89.8918 25.8681 89.6001 26.1797C89.3118 26.4879 88.9489 26.7282 88.5114 26.9006C88.0772 27.0696 87.5817 27.1541 87.0249 27.1541ZM104.232 20.1293H102.68C102.621 19.7978 102.51 19.5062 102.347 19.2543C102.185 19.0024 101.986 18.7886 101.751 18.6129C101.515 18.4373 101.252 18.3047 100.96 18.2152C100.672 18.1257 100.365 18.081 100.04 18.081C99.4538 18.081 98.9285 18.2285 98.4645 18.5234C98.0038 18.8184 97.6392 19.2509 97.3707 19.821C97.1056 20.3911 96.973 21.0871 96.973 21.9091C96.973 22.7377 97.1056 23.437 97.3707 24.0071C97.6392 24.5772 98.0054 25.008 98.4695 25.2997C98.9335 25.5914 99.4555 25.7372 100.036 25.7372C100.357 25.7372 100.662 25.6941 100.95 25.608C101.242 25.5185 101.505 25.3875 101.741 25.2152C101.976 25.0429 102.175 24.8324 102.337 24.5838C102.503 24.3319 102.617 24.0436 102.68 23.7188L104.232 23.7237C104.149 24.2242 103.988 24.6849 103.749 25.1058C103.514 25.5234 103.211 25.8847 102.839 26.1896C102.472 26.4912 102.051 26.7249 101.577 26.8906C101.103 27.0563 100.586 27.1392 100.026 27.1392C99.1439 27.1392 98.3584 26.9304 97.669 26.5128C96.9796 26.0919 96.4361 25.4903 96.0384 24.7081C95.6439 23.9259 95.4467 22.9929 95.4467 21.9091C95.4467 20.822 95.6456 19.889 96.0433 19.1101C96.4411 18.3279 96.9846 17.728 97.674 17.3104C98.3634 16.8894 99.1473 16.679 100.026 16.679C100.566 16.679 101.07 16.7569 101.537 16.9126C102.008 17.0651 102.43 17.2905 102.805 17.5888C103.179 17.8838 103.489 18.245 103.734 18.6726C103.98 19.0968 104.145 19.5824 104.232 20.1293ZM109.167 27.1541C108.451 27.1541 107.826 26.9901 107.293 26.6619C106.759 26.3338 106.345 25.8748 106.05 25.2848C105.755 24.6948 105.607 24.0054 105.607 23.2166C105.607 22.4245 105.755 21.7318 106.05 21.1385C106.345 20.5452 106.759 20.0845 107.293 19.7564C107.826 19.4283 108.451 19.2642 109.167 19.2642C109.883 19.2642 110.508 19.4283 111.041 19.7564C111.575 20.0845 111.989 20.5452 112.284 21.1385C112.579 21.7318 112.727 22.4245 112.727 23.2166C112.727 24.0054 112.579 24.6948 112.284 25.2848C111.989 25.8748 111.575 26.3338 111.041 26.6619C110.508 26.9901 109.883 27.1541 109.167 27.1541ZM109.172 25.9062C109.636 25.9062 110.021 25.7836 110.325 25.5384C110.63 25.2931 110.856 24.9666 111.002 24.5589C111.151 24.1513 111.225 23.7022 111.225 23.2116C111.225 22.7244 111.151 22.277 111.002 21.8693C110.856 21.4583 110.63 21.1286 110.325 20.88C110.021 20.6314 109.636 20.5071 109.172 20.5071C108.705 20.5071 108.317 20.6314 108.009 20.88C107.704 21.1286 107.477 21.4583 107.328 21.8693C107.182 22.277 107.109 22.7244 107.109 23.2116C107.109 23.7022 107.182 24.1513 107.328 24.5589C107.477 24.9666 107.704 25.2931 108.009 25.5384C108.317 25.7836 108.705 25.9062 109.172 25.9062ZM115.873 22.4659V27H114.386V19.3636H115.813V20.6065H115.907C116.083 20.2022 116.358 19.8774 116.733 19.6321C117.11 19.3868 117.586 19.2642 118.159 19.2642C118.68 19.2642 119.136 19.3736 119.527 19.5923C119.918 19.8078 120.221 20.1293 120.436 20.5568C120.652 20.9844 120.76 21.513 120.76 22.1428V27H119.273V22.3217C119.273 21.7682 119.129 21.3357 118.841 21.0241C118.552 20.7093 118.156 20.5518 117.652 20.5518C117.308 20.5518 117.001 20.6264 116.733 20.7756C116.467 20.9247 116.257 21.1435 116.101 21.4318C115.949 21.7169 115.873 22.0616 115.873 22.4659ZM126.318 19.3636V20.5568H122.147V19.3636H126.318ZM123.265 17.5341H124.752V24.7578C124.752 25.0462 124.795 25.2633 124.881 25.4091C124.967 25.5516 125.078 25.6494 125.214 25.7024C125.353 25.7521 125.504 25.777 125.667 25.777C125.786 25.777 125.89 25.7687 125.98 25.7521C126.069 25.7356 126.139 25.7223 126.189 25.7124L126.457 26.9403C126.371 26.9735 126.248 27.0066 126.089 27.0398C125.93 27.0762 125.731 27.0961 125.493 27.0994C125.101 27.1061 124.737 27.0365 124.399 26.8906C124.061 26.7448 123.787 26.5194 123.578 26.2145C123.37 25.9096 123.265 25.5268 123.265 25.0661V17.5341ZM131.171 27.1541C130.419 27.1541 129.771 26.9934 129.227 26.6719C128.687 26.3471 128.27 25.8913 127.975 25.3047C127.683 24.7147 127.537 24.0237 127.537 23.2315C127.537 22.4493 127.683 21.7599 127.975 21.1634C128.27 20.5668 128.681 20.1011 129.208 19.7663C129.738 19.4316 130.358 19.2642 131.067 19.2642C131.498 19.2642 131.915 19.3355 132.32 19.478C132.724 19.6205 133.087 19.8442 133.409 20.1491C133.73 20.4541 133.984 20.8501 134.169 21.3374C134.355 21.8213 134.448 22.4096 134.448 23.1023V23.6293H128.377V22.5156H132.991C132.991 22.1245 132.911 21.7782 132.752 21.4766C132.593 21.1716 132.369 20.9313 132.081 20.7557C131.796 20.58 131.461 20.4922 131.077 20.4922C130.659 20.4922 130.295 20.5949 129.983 20.8004C129.675 21.0026 129.436 21.2678 129.267 21.5959C129.102 21.9207 129.019 22.2737 129.019 22.6548V23.5249C129.019 24.0353 129.108 24.4695 129.287 24.8274C129.469 25.1854 129.723 25.4588 130.048 25.6477C130.373 25.8333 130.752 25.9261 131.186 25.9261C131.468 25.9261 131.725 25.8864 131.957 25.8068C132.189 25.724 132.389 25.6013 132.558 25.4389C132.727 25.2765 132.857 25.076 132.946 24.8374L134.353 25.0909C134.24 25.5052 134.038 25.8681 133.747 26.1797C133.458 26.4879 133.095 26.7282 132.658 26.9006C132.224 27.0696 131.728 27.1541 131.171 27.1541ZM137.583 22.4659V27H136.097V19.3636H137.524V20.6065H137.618C137.794 20.2022 138.069 19.8774 138.444 19.6321C138.821 19.3868 139.297 19.2642 139.87 19.2642C140.391 19.2642 140.846 19.3736 141.238 19.5923C141.629 19.8078 141.932 20.1293 142.147 20.5568C142.363 20.9844 142.471 21.513 142.471 22.1428V27H140.984V22.3217C140.984 21.7682 140.84 21.3357 140.551 21.0241C140.263 20.7093 139.867 20.5518 139.363 20.5518C139.019 20.5518 138.712 20.6264 138.444 20.7756C138.178 20.9247 137.968 21.1435 137.812 21.4318C137.66 21.7169 137.583 22.0616 137.583 22.4659ZM148.029 19.3636V20.5568H143.858V19.3636H148.029ZM144.976 17.5341H146.463V24.7578C146.463 25.0462 146.506 25.2633 146.592 25.4091C146.678 25.5516 146.789 25.6494 146.925 25.7024C147.064 25.7521 147.215 25.777 147.377 25.777C147.497 25.777 147.601 25.7687 147.691 25.7521C147.78 25.7356 147.85 25.7223 147.9 25.7124L148.168 26.9403C148.082 26.9735 147.959 27.0066 147.8 27.0398C147.641 27.0762 147.442 27.0961 147.203 27.0994C146.812 27.1061 146.448 27.0365 146.11 26.8906C145.772 26.7448 145.498 26.5194 145.289 26.2145C145.081 25.9096 144.976 25.5268 144.976 25.0661V17.5341Z" fill="#F8FAFC"/>
</svg>
