<svg width="158" height="43" viewBox="0 0 158 43" fill="none" xmlns="http://www.w3.org/2000/svg">
<rect x="0.5" y="0.5" width="157" height="42" rx="11.5" fill="#F8FAFC"/>
<rect x="0.5" y="0.5" width="157" height="42" rx="11.5" stroke="#EAEAEA"/>
<path d="M18 25.25L12.75 20M12.75 20L18 14.75M12.75 20H23.25" stroke="#111827" stroke-width="1.5" stroke-linecap="round" stroke-linejoin="round"/>
<path d="M35.8085 26V15.8182H39.5372C40.2598 15.8182 40.858 15.9375 41.332 16.1761C41.8059 16.4115 42.1606 16.7313 42.3959 17.1357C42.6312 17.5367 42.7489 17.9891 42.7489 18.4929C42.7489 18.9171 42.671 19.2751 42.5152 19.5668C42.3594 19.8551 42.1506 20.0871 41.8888 20.2628C41.6303 20.4351 41.3452 20.5611 41.0337 20.6406V20.7401C41.3718 20.7566 41.7015 20.866 42.023 21.0682C42.3478 21.267 42.6163 21.5504 42.8284 21.9183C43.0406 22.2862 43.1466 22.7337 43.1466 23.2607C43.1466 23.781 43.024 24.2483 42.7787 24.6626C42.5368 25.0736 42.1622 25.4001 41.6551 25.642C41.148 25.8807 40.5001 26 39.7112 26H35.8085ZM37.3448 24.6825H39.5621C40.2979 24.6825 40.8249 24.54 41.1431 24.255C41.4612 23.9699 41.6203 23.6136 41.6203 23.1861C41.6203 22.8646 41.5391 22.5696 41.3767 22.3011C41.2143 22.0327 40.9823 21.8189 40.6807 21.6598C40.3824 21.5007 40.0278 21.4212 39.6168 21.4212H37.3448V24.6825ZM37.3448 20.223H39.403C39.7477 20.223 40.0576 20.1567 40.3327 20.0241C40.6111 19.8916 40.8315 19.706 40.9939 19.4673C41.1596 19.2254 41.2425 18.9403 41.2425 18.6122C41.2425 18.1913 41.095 17.8383 40.8 17.5533C40.505 17.2682 40.0526 17.1257 39.4428 17.1257H37.3448V20.223ZM47.0717 26.169C46.5878 26.169 46.1503 26.0795 45.7592 25.9006C45.3681 25.7183 45.0582 25.4548 44.8295 25.1101C44.6041 24.7654 44.4914 24.3428 44.4914 23.8423C44.4914 23.4115 44.5743 23.0568 44.74 22.7784C44.9057 22.5 45.1295 22.2796 45.4112 22.1172C45.6929 21.9548 46.0078 21.8321 46.3558 21.7493C46.7038 21.6664 47.0584 21.6035 47.4197 21.5604C47.8771 21.5073 48.2483 21.4643 48.5333 21.4311C48.8184 21.3946 49.0255 21.3366 49.1548 21.2571C49.284 21.1776 49.3487 21.0483 49.3487 20.8693V20.8345C49.3487 20.4003 49.226 20.0639 48.9808 19.8253C48.7388 19.5866 48.3776 19.4673 47.897 19.4673C47.3965 19.4673 47.0021 19.5784 46.7137 19.8004C46.4287 20.0192 46.2315 20.2628 46.1221 20.5312L44.7251 20.2131C44.8908 19.7491 45.1328 19.3745 45.4509 19.0895C45.7724 18.8011 46.142 18.5923 46.5596 18.4631C46.9772 18.3305 47.4164 18.2642 47.8771 18.2642C48.182 18.2642 48.5052 18.3007 48.8465 18.3736C49.1912 18.4432 49.5127 18.5724 49.811 18.7614C50.1126 18.9503 50.3596 19.2204 50.5518 19.5717C50.744 19.9197 50.8402 20.3722 50.8402 20.929V26H49.3884V24.956H49.3288C49.2327 25.1482 49.0885 25.3371 48.8963 25.5227C48.704 25.7083 48.4571 25.8625 48.1555 25.9851C47.8539 26.1077 47.4926 26.169 47.0717 26.169ZM47.3948 24.9759C47.8058 24.9759 48.1572 24.8946 48.4488 24.7322C48.7438 24.5698 48.9675 24.3577 49.12 24.0959C49.2758 23.8307 49.3536 23.5473 49.3536 23.2457V22.2614C49.3006 22.3144 49.1979 22.3641 49.0454 22.4105C48.8963 22.4536 48.7256 22.4917 48.5333 22.5249C48.3411 22.5547 48.1538 22.5829 47.9715 22.6094C47.7893 22.6326 47.6368 22.6525 47.5142 22.669C47.2258 22.7055 46.9623 22.7668 46.7237 22.853C46.4884 22.9392 46.2994 23.0634 46.1569 23.2259C46.0177 23.3849 45.9481 23.5971 45.9481 23.8622C45.9481 24.2301 46.084 24.5085 46.3558 24.6974C46.6276 24.883 46.9739 24.9759 47.3948 24.9759ZM56.0367 26.1541C55.2976 26.1541 54.6612 25.9867 54.1276 25.652C53.5973 25.3139 53.1896 24.8482 52.9046 24.255C52.6196 23.6617 52.4771 22.9822 52.4771 22.2166C52.4771 21.4411 52.6229 20.7566 52.9146 20.1634C53.2062 19.5668 53.6172 19.1011 54.1475 18.7663C54.6778 18.4316 55.3026 18.2642 56.0218 18.2642C56.6018 18.2642 57.1189 18.3719 57.5729 18.5874C58.027 18.7995 58.3932 19.0978 58.6717 19.4822C58.9534 19.8667 59.1208 20.3158 59.1738 20.8295H57.7271C57.6475 20.4716 57.4652 20.1634 57.1802 19.9048C56.8985 19.6463 56.5206 19.517 56.0467 19.517C55.6324 19.517 55.2694 19.6264 54.9579 19.8452C54.6496 20.0606 54.4093 20.3688 54.237 20.7699C54.0646 21.1676 53.9785 21.6383 53.9785 22.1818C53.9785 22.7386 54.063 23.2192 54.232 23.6236C54.4011 24.0279 54.6397 24.3411 54.9479 24.5632C55.2595 24.7853 55.6257 24.8963 56.0467 24.8963C56.3284 24.8963 56.5836 24.8449 56.8123 24.7422C57.0443 24.6361 57.2382 24.4853 57.394 24.2898C57.553 24.0942 57.6641 23.8589 57.7271 23.5838H59.1738C59.1208 24.0777 58.96 24.5185 58.6915 24.9062C58.4231 25.294 58.0635 25.599 57.6127 25.821C57.1653 26.0431 56.6399 26.1541 56.0367 26.1541ZM62.1306 23.4098L62.1207 21.5952H62.3792L65.4218 18.3636H67.2017L63.7315 22.0426H63.4978L62.1306 23.4098ZM60.7634 26V15.8182H62.25V26H60.7634ZM65.5859 26L62.8515 22.3707L63.8757 21.3317L67.4105 26H65.5859ZM75.8261 18.3636V19.5568H71.655V18.3636H75.8261ZM72.7736 16.5341H74.2601V23.7578C74.2601 24.0462 74.3032 24.2633 74.3893 24.4091C74.4755 24.5516 74.5865 24.6494 74.7224 24.7024C74.8616 24.7521 75.0124 24.777 75.1748 24.777C75.2942 24.777 75.3986 24.7687 75.4881 24.7521C75.5775 24.7356 75.6472 24.7223 75.6969 24.7124L75.9653 25.9403C75.8792 25.9735 75.7565 26.0066 75.5974 26.0398C75.4383 26.0762 75.2395 26.0961 75.0008 26.0994C74.6097 26.1061 74.2452 26.0365 73.9071 25.8906C73.569 25.7448 73.2956 25.5194 73.0868 25.2145C72.878 24.9096 72.7736 24.5268 72.7736 24.0661V16.5341ZM80.6051 26.1541C79.8892 26.1541 79.2644 25.9901 78.7308 25.6619C78.1972 25.3338 77.7829 24.8748 77.4879 24.2848C77.1929 23.6948 77.0454 23.0054 77.0454 22.2166C77.0454 21.4245 77.1929 20.7318 77.4879 20.1385C77.7829 19.5452 78.1972 19.0845 78.7308 18.7564C79.2644 18.4283 79.8892 18.2642 80.6051 18.2642C81.321 18.2642 81.9457 18.4283 82.4794 18.7564C83.013 19.0845 83.4273 19.5452 83.7223 20.1385C84.0172 20.7318 84.1647 21.4245 84.1647 22.2166C84.1647 23.0054 84.0172 23.6948 83.7223 24.2848C83.4273 24.8748 83.013 25.3338 82.4794 25.6619C81.9457 25.9901 81.321 26.1541 80.6051 26.1541ZM80.61 24.9062C81.0741 24.9062 81.4585 24.7836 81.7634 24.5384C82.0684 24.2931 82.2938 23.9666 82.4396 23.5589C82.5887 23.1513 82.6633 22.7022 82.6633 22.2116C82.6633 21.7244 82.5887 21.277 82.4396 20.8693C82.2938 20.4583 82.0684 20.1286 81.7634 19.88C81.4585 19.6314 81.0741 19.5071 80.61 19.5071C80.1427 19.5071 79.7549 19.6314 79.4467 19.88C79.1418 20.1286 78.9147 20.4583 78.7656 20.8693C78.6197 21.277 78.5468 21.7244 78.5468 22.2116C78.5468 22.7022 78.6197 23.1513 78.7656 23.5589C78.9147 23.9666 79.1418 24.2931 79.4467 24.5384C79.7549 24.7836 80.1427 24.9062 80.61 24.9062ZM98.1051 19.1293H96.5539C96.4943 18.7978 96.3832 18.5062 96.2208 18.2543C96.0584 18.0024 95.8596 17.7886 95.6242 17.6129C95.3889 17.4373 95.1254 17.3047 94.8338 17.2152C94.5454 17.1257 94.2388 17.081 93.914 17.081C93.3274 17.081 92.802 17.2285 92.338 17.5234C91.8773 17.8184 91.5127 18.2509 91.2443 18.821C90.9791 19.3911 90.8465 20.0871 90.8465 20.9091C90.8465 21.7377 90.9791 22.437 91.2443 23.0071C91.5127 23.5772 91.879 24.008 92.343 24.2997C92.807 24.5914 93.329 24.7372 93.909 24.7372C94.2305 24.7372 94.5355 24.6941 94.8238 24.608C95.1155 24.5185 95.379 24.3875 95.6143 24.2152C95.8496 24.0429 96.0485 23.8324 96.2109 23.5838C96.3766 23.3319 96.491 23.0436 96.5539 22.7188L98.1051 22.7237C98.0222 23.2242 97.8615 23.6849 97.6228 24.1058C97.3875 24.5234 97.0842 24.8847 96.713 25.1896C96.3451 25.4912 95.9242 25.7249 95.4502 25.8906C94.9763 26.0563 94.4592 26.1392 93.8991 26.1392C93.0175 26.1392 92.232 25.9304 91.5426 25.5128C90.8532 25.0919 90.3096 24.4903 89.9119 23.7081C89.5175 22.9259 89.3203 21.9929 89.3203 20.9091C89.3203 19.822 89.5191 18.889 89.9169 18.1101C90.3146 17.3279 90.8581 16.728 91.5475 16.3104C92.2369 15.8894 93.0208 15.679 93.8991 15.679C94.4393 15.679 94.9431 15.7569 95.4105 15.9126C95.8811 16.0651 96.3037 16.2905 96.6782 16.5888C97.0527 16.8838 97.3626 17.245 97.6079 17.6726C97.8532 18.0968 98.0189 18.5824 98.1051 19.1293ZM99.824 26V18.3636H101.261V19.5767H101.34C101.48 19.1657 101.725 18.8426 102.076 18.6072C102.431 18.3686 102.832 18.2493 103.279 18.2493C103.372 18.2493 103.481 18.2526 103.607 18.2592C103.737 18.2659 103.838 18.2741 103.911 18.2841V19.706C103.851 19.6894 103.745 19.6712 103.592 19.6513C103.44 19.6281 103.288 19.6165 103.135 19.6165C102.784 19.6165 102.471 19.6911 102.195 19.8402C101.924 19.986 101.708 20.1899 101.549 20.4517C101.39 20.7102 101.311 21.0052 101.311 21.3366V26H99.824ZM108.215 26.1541C107.462 26.1541 106.814 25.9934 106.271 25.6719C105.731 25.3471 105.313 24.8913 105.018 24.3047C104.726 23.7147 104.581 23.0237 104.581 22.2315C104.581 21.4493 104.726 20.7599 105.018 20.1634C105.313 19.5668 105.724 19.1011 106.251 18.7663C106.781 18.4316 107.401 18.2642 108.11 18.2642C108.541 18.2642 108.959 18.3355 109.363 18.478C109.768 18.6205 110.131 18.8442 110.452 19.1491C110.774 19.4541 111.027 19.8501 111.213 20.3374C111.398 20.8213 111.491 21.4096 111.491 22.1023V22.6293H105.421V21.5156H110.034C110.034 21.1245 109.955 20.7782 109.796 20.4766C109.637 20.1716 109.413 19.9313 109.125 19.7557C108.84 19.58 108.505 19.4922 108.12 19.4922C107.703 19.4922 107.338 19.5949 107.027 19.8004C106.718 20.0026 106.48 20.2678 106.311 20.5959C106.145 20.9207 106.062 21.2737 106.062 21.6548V22.5249C106.062 23.0353 106.152 23.4695 106.331 23.8274C106.513 24.1854 106.766 24.4588 107.091 24.6477C107.416 24.8333 107.796 24.9261 108.23 24.9261C108.511 24.9261 108.768 24.8864 109 24.8068C109.232 24.724 109.433 24.6013 109.602 24.4389C109.771 24.2765 109.9 24.076 109.99 23.8374L111.397 24.0909C111.284 24.5052 111.082 24.8681 110.79 25.1797C110.502 25.4879 110.139 25.7282 109.701 25.9006C109.267 26.0696 108.772 26.1541 108.215 26.1541ZM115.363 26.169C114.879 26.169 114.441 26.0795 114.05 25.9006C113.659 25.7183 113.349 25.4548 113.121 25.1101C112.895 24.7654 112.782 24.3428 112.782 23.8423C112.782 23.4115 112.865 23.0568 113.031 22.7784C113.197 22.5 113.42 22.2796 113.702 22.1172C113.984 21.9548 114.299 21.8321 114.647 21.7493C114.995 21.6664 115.349 21.6035 115.711 21.5604C116.168 21.5073 116.539 21.4643 116.824 21.4311C117.109 21.3946 117.317 21.3366 117.446 21.2571C117.575 21.1776 117.64 21.0483 117.64 20.8693V20.8345C117.64 20.4003 117.517 20.0639 117.272 19.8253C117.03 19.5866 116.669 19.4673 116.188 19.4673C115.688 19.4673 115.293 19.5784 115.005 19.8004C114.72 20.0192 114.523 20.2628 114.413 20.5312L113.016 20.2131C113.182 19.7491 113.424 19.3745 113.742 19.0895C114.063 18.8011 114.433 18.5923 114.851 18.4631C115.268 18.3305 115.707 18.2642 116.168 18.2642C116.473 18.2642 116.796 18.3007 117.138 18.3736C117.482 18.4432 117.804 18.5724 118.102 18.7614C118.404 18.9503 118.651 19.2204 118.843 19.5717C119.035 19.9197 119.131 20.3722 119.131 20.929V26H117.679V24.956H117.62C117.524 25.1482 117.38 25.3371 117.187 25.5227C116.995 25.7083 116.748 25.8625 116.447 25.9851C116.145 26.1077 115.784 26.169 115.363 26.169ZM115.686 24.9759C116.097 24.9759 116.448 24.8946 116.74 24.7322C117.035 24.5698 117.259 24.3577 117.411 24.0959C117.567 23.8307 117.645 23.5473 117.645 23.2457V22.2614C117.592 22.3144 117.489 22.3641 117.336 22.4105C117.187 22.4536 117.017 22.4917 116.824 22.5249C116.632 22.5547 116.445 22.5829 116.263 22.6094C116.08 22.6326 115.928 22.6525 115.805 22.669C115.517 22.7055 115.253 22.7668 115.015 22.853C114.779 22.9392 114.59 23.0634 114.448 23.2259C114.309 23.3849 114.239 23.5971 114.239 23.8622C114.239 24.2301 114.375 24.5085 114.647 24.6974C114.919 24.883 115.265 24.9759 115.686 24.9759ZM124.676 18.3636V19.5568H120.505V18.3636H124.676ZM121.623 16.5341H123.11V23.7578C123.11 24.0462 123.153 24.2633 123.239 24.4091C123.325 24.5516 123.436 24.6494 123.572 24.7024C123.711 24.7521 123.862 24.777 124.024 24.777C124.144 24.777 124.248 24.7687 124.338 24.7521C124.427 24.7356 124.497 24.7223 124.546 24.7124L124.815 25.9403C124.729 25.9735 124.606 26.0066 124.447 26.0398C124.288 26.0762 124.089 26.0961 123.85 26.0994C123.459 26.1061 123.095 26.0365 122.757 25.8906C122.419 25.7448 122.145 25.5194 121.936 25.2145C121.728 24.9096 121.623 24.5268 121.623 24.0661V16.5341ZM129.455 26.1541C128.739 26.1541 128.114 25.9901 127.58 25.6619C127.047 25.3338 126.632 24.8748 126.337 24.2848C126.043 23.6948 125.895 23.0054 125.895 22.2166C125.895 21.4245 126.043 20.7318 126.337 20.1385C126.632 19.5452 127.047 19.0845 127.58 18.7564C128.114 18.4283 128.739 18.2642 129.455 18.2642C130.171 18.2642 130.795 18.4283 131.329 18.7564C131.863 19.0845 132.277 19.5452 132.572 20.1385C132.867 20.7318 133.014 21.4245 133.014 22.2166C133.014 23.0054 132.867 23.6948 132.572 24.2848C132.277 24.8748 131.863 25.3338 131.329 25.6619C130.795 25.9901 130.171 26.1541 129.455 26.1541ZM129.46 24.9062C129.924 24.9062 130.308 24.7836 130.613 24.5384C130.918 24.2931 131.143 23.9666 131.289 23.5589C131.438 23.1513 131.513 22.7022 131.513 22.2116C131.513 21.7244 131.438 21.277 131.289 20.8693C131.143 20.4583 130.918 20.1286 130.613 19.88C130.308 19.6314 129.924 19.5071 129.46 19.5071C128.992 19.5071 128.605 19.6314 128.296 19.88C127.991 20.1286 127.764 20.4583 127.615 20.8693C127.469 21.277 127.396 21.7244 127.396 22.2116C127.396 22.7022 127.469 23.1513 127.615 23.5589C127.764 23.9666 127.991 24.2931 128.296 24.5384C128.605 24.7836 128.992 24.9062 129.46 24.9062ZM134.674 26V18.3636H136.11V19.5767H136.19C136.329 19.1657 136.574 18.8426 136.926 18.6072C137.28 18.3686 137.681 18.2493 138.129 18.2493C138.222 18.2493 138.331 18.2526 138.457 18.2592C138.586 18.2659 138.687 18.2741 138.76 18.2841V19.706C138.701 19.6894 138.595 19.6712 138.442 19.6513C138.29 19.6281 138.137 19.6165 137.985 19.6165C137.633 19.6165 137.32 19.6911 137.045 19.8402C136.773 19.986 136.558 20.1899 136.399 20.4517C136.24 20.7102 136.16 21.0052 136.16 21.3366V26H134.674ZM145.769 20.228L144.422 20.4666C144.365 20.2943 144.276 20.1302 144.153 19.9744C144.034 19.8187 143.871 19.6911 143.666 19.5916C143.46 19.4922 143.204 19.4425 142.895 19.4425C142.474 19.4425 142.123 19.5369 141.841 19.7259C141.56 19.9115 141.419 20.1518 141.419 20.4467C141.419 20.7019 141.513 20.9074 141.702 21.0632C141.891 21.219 142.196 21.3466 142.617 21.446L143.83 21.7244C144.533 21.8868 145.056 22.1371 145.401 22.4751C145.746 22.8132 145.918 23.2524 145.918 23.7926C145.918 24.25 145.786 24.6577 145.52 25.0156C145.259 25.3703 144.892 25.6487 144.422 25.8509C143.954 26.053 143.412 26.1541 142.796 26.1541C141.941 26.1541 141.243 25.9718 140.703 25.6072C140.163 25.2393 139.831 24.7173 139.709 24.0412L141.145 23.8224C141.235 24.197 141.419 24.4804 141.697 24.6726C141.976 24.8615 142.339 24.956 142.786 24.956C143.273 24.956 143.663 24.8549 143.954 24.6527C144.246 24.4472 144.392 24.197 144.392 23.902C144.392 23.6634 144.302 23.4628 144.123 23.3004C143.948 23.138 143.678 23.0154 143.313 22.9325L142.02 22.6491C141.308 22.4867 140.781 22.2282 140.439 21.8736C140.101 21.5189 139.932 21.0698 139.932 20.5263C139.932 20.0755 140.058 19.6811 140.31 19.343C140.562 19.005 140.91 18.7415 141.354 18.5526C141.798 18.3603 142.307 18.2642 142.88 18.2642C143.706 18.2642 144.355 18.4432 144.829 18.8011C145.303 19.1558 145.616 19.6314 145.769 20.228Z" fill="#111827"/>
</svg>
