<svg width="32" height="49" viewBox="0 0 32 49" fill="none" xmlns="http://www.w3.org/2000/svg">
<g clip-path="url(#clip0_195_215)">
<path d="M26.2201 18.4041C26.4334 18.4041 26.6401 18.3978 26.8468 18.4041C27.0334 18.4167 27.2001 18.4167 27.3601 18.4292C27.5268 18.4355 27.6868 18.4732 27.8801 18.4732C28.4468 18.4858 28.4934 18.4418 28.6734 18.4858C28.7934 18.5173 28.9068 18.4292 28.9068 18.3161C28.7868 12.5062 30.2868 7.37547 23.6601 2.42076C18.5934 -1.377 10.8001 -0.59733 6.50676 3.97382C2.23343 8.52611 3.02676 10.4627 3.01343 15.3105C3.01343 15.6752 3.34676 15.9582 3.72676 15.9267C4.70009 15.8387 6.38676 15.7444 7.30009 15.7004C7.63343 15.6878 7.91343 15.43 7.92676 15.1156C8.08676 11.3116 6.78009 9.56987 10.5334 6.50148C12.9668 4.51456 17.1934 4.04299 20.0001 5.53317C25.7734 8.60157 23.8468 13.682 24.1801 18.3978C24.4134 18.3978 24.6468 18.3978 24.8868 18.3978C25.1268 18.3978 25.3534 18.3978 25.5868 18.3978C25.7934 18.3978 26.0068 18.3978 26.2134 18.3978L26.2201 18.4041Z" fill="#231F20"/>
<path d="M29.1133 19.1584C28.6733 18.9949 28.48 18.9446 28 18.8817C27.8066 18.8566 27.6466 18.844 27.48 18.8377C27.3133 18.8314 27.1533 18.8251 26.9666 18.8126C26.76 18.8 26.5466 18.8063 26.34 18.8126C26.1333 18.8189 25.92 18.8189 25.7133 18.8126C25.48 18.8126 25.2466 18.8126 25.0133 18.8126C24.78 18.8126 24.5466 18.8126 24.3066 18.8126C18.8933 18.7308 13.4333 18.7371 8.01997 18.8126C7.57997 18.8126 7.13331 18.8 6.68664 18.8126C6.31997 18.8189 5.94664 18.7937 5.57331 18.8126C5.19331 18.8314 4.75331 18.7748 4.38664 18.8126C3.99331 18.8566 3.49997 19.0201 3.12664 19.1584C1.49997 19.7683 0.413307 21.2459 0.239973 22.8618C-0.51336 29.7846 0.80664 37.8894 0.239973 44.9379C0.479973 47.0129 2.12664 48.5659 4.34664 48.7797C11.7133 49.4902 20.3866 48.2453 27.8866 48.7797C29.98 48.5534 31.64 47.1638 31.9933 45.2146V22.5852C31.6933 21.051 30.68 19.7431 29.1066 19.1584H29.1133Z" fill="#231F20"/>
<path d="M17.6199 35.2488C18.6933 36.0914 17.6066 37.2546 16.1533 37.2546C14.6999 37.2546 12.2733 34.6766 10.8666 36.2486C9.8066 37.4306 11.5066 38.5436 12.8599 39.078C13.2333 39.2226 14.1799 39.317 14.3333 39.4867C14.7999 40.0149 13.9599 41.0586 16.1599 40.9895C17.9533 40.9329 17.4066 39.7194 17.8866 39.4176C18.3199 39.1472 19.5066 39.0214 20.2399 38.4618C22.1133 37.0219 21.8333 34.4754 19.4599 33.4002C18.0533 32.7652 13.4266 32.5891 14.4599 31.1555C15.6666 29.483 18.1666 31.6334 19.2266 31.6648C20.4533 31.6963 21.0066 30.816 20.6533 30.0175C20.1799 28.9297 18.1799 28.8605 17.6866 28.477C17.2133 28.1123 17.3866 27.1 15.7733 27.2194C14.2266 27.3326 14.6266 28.1689 14.0133 28.6216C13.5333 28.98 12.4266 29.1183 11.7266 29.7722C10.3533 31.0549 10.6799 33.2116 12.7333 33.9976C13.9466 34.4629 16.8866 34.6766 17.6266 35.2551L17.6199 35.2488Z" fill="white"/>
</g>
<defs>
<clipPath id="clip0_195_215">
<rect width="32" height="49" fill="white"/>
</clipPath>
</defs>
</svg>
