<svg width="470" height="99" viewBox="0 0 470 99" fill="none" xmlns="http://www.w3.org/2000/svg">
<g filter="url(#filter0_d_181_6)">
<rect x="28" y="18" width="414" height="43" rx="12" fill="#6366F1"/>
<rect x="28.5" y="18.5" width="413" height="42" rx="11.5" stroke="#6366F1"/>
<path d="M181.974 45V34.8182H185.792C186.575 34.8182 187.231 34.9541 187.761 35.2259C188.295 35.4976 188.697 35.8788 188.969 36.3693C189.244 36.8565 189.382 37.425 189.382 38.0746C189.382 38.7275 189.243 39.2943 188.964 39.7749C188.689 40.2521 188.283 40.6217 187.746 40.8835C187.209 41.142 186.55 41.2713 185.768 41.2713H183.048V39.7401H185.519C185.976 39.7401 186.351 39.6771 186.643 39.5511C186.934 39.4219 187.15 39.2346 187.289 38.9893C187.431 38.7408 187.503 38.4358 187.503 38.0746C187.503 37.7133 187.431 37.4051 187.289 37.1499C187.146 36.8913 186.929 36.6958 186.638 36.5632C186.346 36.4273 185.97 36.3594 185.509 36.3594H183.819V45H181.974ZM187.234 40.3864L189.755 45H187.697L185.221 40.3864H187.234ZM194.271 45.1491C193.506 45.1491 192.845 44.9901 192.288 44.6719C191.734 44.3504 191.308 43.8963 191.01 43.3097C190.712 42.7197 190.563 42.0253 190.563 41.2266C190.563 40.4411 190.712 39.7517 191.01 39.1584C191.312 38.5618 191.733 38.0978 192.273 37.7663C192.813 37.4316 193.448 37.2642 194.177 37.2642C194.648 37.2642 195.092 37.3404 195.509 37.4929C195.93 37.642 196.302 37.8741 196.623 38.1889C196.948 38.5038 197.203 38.9048 197.389 39.392C197.574 39.8759 197.667 40.4527 197.667 41.1222V41.674H191.408V40.4609H195.942C195.939 40.1162 195.864 39.8097 195.718 39.5412C195.572 39.2694 195.369 39.0556 195.107 38.8999C194.848 38.7441 194.547 38.6662 194.202 38.6662C193.834 38.6662 193.511 38.7557 193.232 38.9347C192.954 39.1103 192.737 39.3423 192.581 39.6307C192.429 39.9157 192.351 40.2289 192.347 40.5703V41.6293C192.347 42.0734 192.429 42.4545 192.591 42.7727C192.753 43.0876 192.981 43.3295 193.272 43.4986C193.564 43.6643 193.905 43.7472 194.296 43.7472C194.558 43.7472 194.795 43.7107 195.007 43.6378C195.219 43.5616 195.403 43.4505 195.559 43.3047C195.715 43.1589 195.833 42.9782 195.912 42.7628L197.592 42.9517C197.486 43.3958 197.284 43.7836 196.986 44.1151C196.691 44.4432 196.313 44.6984 195.852 44.8807C195.392 45.0597 194.865 45.1491 194.271 45.1491ZM205.225 39.3821L203.584 39.5611C203.538 39.3954 203.457 39.2396 203.341 39.0938C203.228 38.9479 203.076 38.8303 202.884 38.7408C202.691 38.6513 202.456 38.6065 202.178 38.6065C201.803 38.6065 201.488 38.6877 201.233 38.8501C200.981 39.0125 200.857 39.223 200.86 39.4815C200.857 39.7036 200.938 39.8842 201.104 40.0234C201.273 40.1626 201.551 40.277 201.939 40.3665L203.241 40.6449C203.964 40.8007 204.501 41.0476 204.852 41.3857C205.207 41.7237 205.386 42.1662 205.389 42.7131C205.386 43.1937 205.245 43.6179 204.967 43.9858C204.692 44.3504 204.309 44.6354 203.818 44.8409C203.328 45.0464 202.764 45.1491 202.128 45.1491C201.193 45.1491 200.441 44.9536 199.871 44.5625C199.301 44.1681 198.961 43.6196 198.852 42.9169L200.607 42.7479C200.686 43.0926 200.855 43.3527 201.114 43.5284C201.372 43.7041 201.709 43.7919 202.123 43.7919C202.55 43.7919 202.893 43.7041 203.152 43.5284C203.414 43.3527 203.545 43.1357 203.545 42.8771C203.545 42.6584 203.46 42.4777 203.291 42.3352C203.125 42.1927 202.867 42.0833 202.516 42.0071L201.213 41.7337C200.481 41.5812 199.939 41.3243 199.587 40.9631C199.236 40.5985 199.062 40.1378 199.065 39.581C199.062 39.1103 199.19 38.7027 199.448 38.358C199.71 38.0099 200.073 37.7415 200.537 37.5526C201.004 37.3603 201.543 37.2642 202.153 37.2642C203.048 37.2642 203.752 37.4548 204.266 37.8359C204.783 38.2171 205.102 38.7325 205.225 39.3821ZM210.254 45.1491C209.488 45.1491 208.827 44.9901 208.27 44.6719C207.717 44.3504 207.291 43.8963 206.993 43.3097C206.694 42.7197 206.545 42.0253 206.545 41.2266C206.545 40.4411 206.694 39.7517 206.993 39.1584C207.294 38.5618 207.715 38.0978 208.255 37.7663C208.796 37.4316 209.43 37.2642 210.159 37.2642C210.63 37.2642 211.074 37.3404 211.492 37.4929C211.913 37.642 212.284 37.8741 212.605 38.1889C212.93 38.5038 213.185 38.9048 213.371 39.392C213.557 39.8759 213.649 40.4527 213.649 41.1222V41.674H207.39V40.4609H211.924C211.921 40.1162 211.846 39.8097 211.701 39.5412C211.555 39.2694 211.351 39.0556 211.089 38.8999C210.831 38.7441 210.529 38.6662 210.184 38.6662C209.816 38.6662 209.493 38.7557 209.215 38.9347C208.936 39.1103 208.719 39.3423 208.564 39.6307C208.411 39.9157 208.333 40.2289 208.33 40.5703V41.6293C208.33 42.0734 208.411 42.4545 208.573 42.7727C208.736 43.0876 208.963 43.3295 209.255 43.4986C209.546 43.6643 209.888 43.7472 210.279 43.7472C210.541 43.7472 210.778 43.7107 210.99 43.6378C211.202 43.5616 211.386 43.4505 211.542 43.3047C211.697 43.1589 211.815 42.9782 211.895 42.7628L213.575 42.9517C213.469 43.3958 213.267 43.7836 212.968 44.1151C212.673 44.4432 212.296 44.6984 211.835 44.8807C211.374 45.0597 210.847 45.1491 210.254 45.1491ZM218.985 37.3636V38.7557H214.595V37.3636H218.985ZM215.679 35.5341H217.479V42.7031C217.479 42.9451 217.515 43.1307 217.588 43.2599C217.664 43.3859 217.764 43.4721 217.887 43.5185C218.009 43.5649 218.145 43.5881 218.294 43.5881C218.407 43.5881 218.51 43.5798 218.602 43.5632C218.699 43.5466 218.771 43.5317 218.821 43.5185L219.124 44.9254C219.028 44.9586 218.891 44.995 218.712 45.0348C218.536 45.0746 218.321 45.0978 218.065 45.1044C217.615 45.1177 217.209 45.0497 216.847 44.9006C216.486 44.7481 216.199 44.5128 215.987 44.1946C215.779 43.8764 215.676 43.4787 215.679 43.0014V35.5341ZM224.043 45V34.8182H227.861C228.643 34.8182 229.299 34.964 229.83 35.2557C230.363 35.5473 230.766 35.9484 231.038 36.4588C231.313 36.9659 231.45 37.5426 231.45 38.1889C231.45 38.8419 231.313 39.4219 231.038 39.929C230.763 40.4361 230.357 40.8355 229.82 41.1271C229.283 41.4155 228.621 41.5597 227.836 41.5597H225.305V40.0433H227.587C228.045 40.0433 228.419 39.9638 228.711 39.8047C229.003 39.6456 229.218 39.4268 229.357 39.1484C229.5 38.87 229.571 38.5502 229.571 38.1889C229.571 37.8277 229.5 37.5095 229.357 37.2344C229.218 36.9593 229.001 36.7455 228.706 36.593C228.414 36.4373 228.038 36.3594 227.577 36.3594H225.887V45H224.043ZM235.034 45.1541C234.55 45.1541 234.114 45.0679 233.726 44.8956C233.342 44.7199 233.037 44.4614 232.811 44.12C232.589 43.7786 232.478 43.3577 232.478 42.8572C232.478 42.4264 232.558 42.0701 232.717 41.7884C232.876 41.5066 233.093 41.2812 233.368 41.1122C233.643 40.9432 233.953 40.8156 234.298 40.7294C234.646 40.6399 235.005 40.5753 235.377 40.5355C235.824 40.4891 236.187 40.4477 236.465 40.4112C236.744 40.3714 236.946 40.3118 237.072 40.2322C237.201 40.1494 237.266 40.0218 237.266 39.8494V39.8196C237.266 39.4451 237.155 39.1551 236.933 38.9496C236.711 38.7441 236.391 38.6413 235.973 38.6413C235.532 38.6413 235.183 38.7375 234.924 38.9297C234.669 39.1219 234.497 39.349 234.407 39.6108L232.727 39.3722C232.859 38.9081 233.078 38.5204 233.383 38.2088C233.688 37.8939 234.061 37.6586 234.502 37.5028C234.942 37.3438 235.43 37.2642 235.963 37.2642C236.331 37.2642 236.697 37.3073 237.062 37.3935C237.427 37.4796 237.76 37.6222 238.061 37.821C238.363 38.0166 238.605 38.2834 238.787 38.6214C238.973 38.9595 239.065 39.3821 239.065 39.8892V45H237.335V43.951H237.276C237.166 44.1631 237.012 44.362 236.813 44.5476C236.618 44.7299 236.371 44.8774 236.073 44.9901C235.778 45.0994 235.431 45.1541 235.034 45.1541ZM235.501 43.8317C235.862 43.8317 236.175 43.7604 236.44 43.6179C236.706 43.4721 236.909 43.2798 237.052 43.0412C237.198 42.8026 237.271 42.5424 237.271 42.2607V41.3608C237.214 41.4072 237.118 41.4503 236.982 41.4901C236.85 41.5298 236.701 41.5646 236.535 41.5945C236.369 41.6243 236.205 41.6508 236.043 41.674C235.88 41.6972 235.74 41.7171 235.62 41.7337C235.352 41.7701 235.111 41.8298 234.899 41.9126C234.687 41.9955 234.52 42.1115 234.397 42.2607C234.275 42.4065 234.213 42.5954 234.213 42.8274C234.213 43.1589 234.334 43.4091 234.576 43.5781C234.818 43.7472 235.126 43.8317 235.501 43.8317ZM246.911 39.3821L245.27 39.5611C245.224 39.3954 245.142 39.2396 245.026 39.0938C244.914 38.9479 244.761 38.8303 244.569 38.7408C244.377 38.6513 244.141 38.6065 243.863 38.6065C243.489 38.6065 243.174 38.6877 242.918 38.8501C242.667 39.0125 242.542 39.223 242.546 39.4815C242.542 39.7036 242.623 39.8842 242.789 40.0234C242.958 40.1626 243.237 40.277 243.624 40.3665L244.927 40.6449C245.65 40.8007 246.186 41.0476 246.538 41.3857C246.892 41.7237 247.071 42.1662 247.075 42.7131C247.071 43.1937 246.931 43.6179 246.652 43.9858C246.377 44.3504 245.994 44.6354 245.504 44.8409C245.013 45.0464 244.45 45.1491 243.813 45.1491C242.879 45.1491 242.126 44.9536 241.556 44.5625C240.986 44.1681 240.646 43.6196 240.537 42.9169L242.292 42.7479C242.372 43.0926 242.541 43.3527 242.799 43.5284C243.058 43.7041 243.394 43.7919 243.808 43.7919C244.236 43.7919 244.579 43.7041 244.838 43.5284C245.099 43.3527 245.23 43.1357 245.23 42.8771C245.23 42.6584 245.146 42.4777 244.977 42.3352C244.811 42.1927 244.552 42.0833 244.201 42.0071L242.899 41.7337C242.166 41.5812 241.624 41.3243 241.273 40.9631C240.922 40.5985 240.748 40.1378 240.751 39.581C240.748 39.1103 240.875 38.7027 241.134 38.358C241.396 38.0099 241.758 37.7415 242.222 37.5526C242.69 37.3603 243.228 37.2642 243.838 37.2642C244.733 37.2642 245.437 37.4548 245.951 37.8359C246.468 38.2171 246.788 38.7325 246.911 39.3821ZM254.594 39.3821L252.954 39.5611C252.907 39.3954 252.826 39.2396 252.71 39.0938C252.597 38.9479 252.445 38.8303 252.253 38.7408C252.06 38.6513 251.825 38.6065 251.547 38.6065C251.172 38.6065 250.857 38.6877 250.602 38.8501C250.35 39.0125 250.226 39.223 250.229 39.4815C250.226 39.7036 250.307 39.8842 250.473 40.0234C250.642 40.1626 250.92 40.277 251.308 40.3665L252.611 40.6449C253.333 40.8007 253.87 41.0476 254.221 41.3857C254.576 41.7237 254.755 42.1662 254.758 42.7131C254.755 43.1937 254.614 43.6179 254.336 43.9858C254.061 44.3504 253.678 44.6354 253.187 44.8409C252.697 45.0464 252.133 45.1491 251.497 45.1491C250.562 45.1491 249.81 44.9536 249.24 44.5625C248.67 44.1681 248.33 43.6196 248.221 42.9169L249.976 42.7479C250.055 43.0926 250.224 43.3527 250.483 43.5284C250.741 43.7041 251.078 43.7919 251.492 43.7919C251.92 43.7919 252.263 43.7041 252.521 43.5284C252.783 43.3527 252.914 43.1357 252.914 42.8771C252.914 42.6584 252.829 42.4777 252.66 42.3352C252.495 42.1927 252.236 42.0833 251.885 42.0071L250.582 41.7337C249.85 41.5812 249.308 41.3243 248.956 40.9631C248.605 40.5985 248.431 40.1378 248.434 39.581C248.431 39.1103 248.559 38.7027 248.817 38.358C249.079 38.0099 249.442 37.7415 249.906 37.5526C250.373 37.3603 250.912 37.2642 251.522 37.2642C252.417 37.2642 253.121 37.4548 253.635 37.8359C254.152 38.2171 254.472 38.7325 254.594 39.3821ZM257.818 45L255.661 37.3636H257.495L258.838 42.733H258.907L260.279 37.3636H262.094L263.466 42.7031H263.541L264.863 37.3636H266.703L264.54 45H262.666L261.234 39.8395H261.129L259.698 45H257.818ZM271.071 45.1491C270.326 45.1491 269.679 44.9851 269.132 44.657C268.586 44.3288 268.161 43.8698 267.86 43.2798C267.561 42.6899 267.412 42.0005 267.412 41.2116C267.412 40.4228 267.561 39.7318 267.86 39.1385C268.161 38.5452 268.586 38.0845 269.132 37.7564C269.679 37.4283 270.326 37.2642 271.071 37.2642C271.817 37.2642 272.463 37.4283 273.01 37.7564C273.557 38.0845 273.98 38.5452 274.278 39.1385C274.58 39.7318 274.73 40.4228 274.73 41.2116C274.73 42.0005 274.58 42.6899 274.278 43.2798C273.98 43.8698 273.557 44.3288 273.01 44.657C272.463 44.9851 271.817 45.1491 271.071 45.1491ZM271.081 43.7074C271.486 43.7074 271.824 43.5964 272.096 43.3743C272.367 43.1489 272.569 42.8473 272.702 42.4695C272.838 42.0916 272.906 41.6707 272.906 41.2067C272.906 40.7393 272.838 40.3168 272.702 39.9389C272.569 39.5578 272.367 39.2545 272.096 39.0291C271.824 38.8037 271.486 38.6911 271.081 38.6911C270.667 38.6911 270.322 38.8037 270.047 39.0291C269.775 39.2545 269.572 39.5578 269.436 39.9389C269.303 40.3168 269.237 40.7393 269.237 41.2067C269.237 41.6707 269.303 42.0916 269.436 42.4695C269.572 42.8473 269.775 43.1489 270.047 43.3743C270.322 43.5964 270.667 43.7074 271.081 43.7074ZM276.258 45V37.3636H278.003V38.6364H278.083C278.222 38.1955 278.46 37.8558 278.798 37.6172C279.14 37.3752 279.529 37.2543 279.967 37.2543C280.066 37.2543 280.177 37.2592 280.3 37.2692C280.426 37.2758 280.53 37.2874 280.613 37.304V38.9595C280.537 38.933 280.416 38.9098 280.25 38.8899C280.088 38.8667 279.93 38.8551 279.778 38.8551C279.45 38.8551 279.155 38.9264 278.893 39.0689C278.634 39.2081 278.431 39.402 278.281 39.6506C278.132 39.8991 278.058 40.1858 278.058 40.5107V45H276.258ZM284.328 45.1342C283.728 45.1342 283.191 44.9801 282.717 44.6719C282.243 44.3636 281.869 43.9162 281.594 43.3295C281.319 42.7429 281.181 42.0303 281.181 41.1918C281.181 40.3433 281.32 39.6274 281.599 39.044C281.88 38.4574 282.26 38.0149 282.737 37.7166C283.214 37.415 283.746 37.2642 284.333 37.2642C284.781 37.2642 285.148 37.3404 285.437 37.4929C285.725 37.642 285.954 37.8227 286.123 38.0348C286.292 38.2436 286.423 38.4408 286.516 38.6264H286.59V34.8182H288.395V45H286.625V43.7969H286.516C286.423 43.9825 286.289 44.1797 286.113 44.3885C285.937 44.594 285.705 44.7696 285.417 44.9155C285.129 45.0613 284.766 45.1342 284.328 45.1342ZM284.83 43.6577C285.211 43.6577 285.536 43.5549 285.805 43.3494C286.073 43.1406 286.277 42.8506 286.416 42.4794C286.555 42.1082 286.625 41.6757 286.625 41.1818C286.625 40.688 286.555 40.2588 286.416 39.8942C286.28 39.5296 286.078 39.2462 285.81 39.044C285.544 38.8419 285.218 38.7408 284.83 38.7408C284.429 38.7408 284.094 38.8452 283.826 39.054C283.558 39.2628 283.355 39.5511 283.219 39.919C283.084 40.2869 283.016 40.7079 283.016 41.1818C283.016 41.6591 283.084 42.085 283.219 42.4595C283.359 42.8307 283.562 43.1241 283.831 43.3395C284.103 43.5516 284.436 43.6577 284.83 43.6577Z" fill="#F8FAFC"/>
</g>
<defs>
<filter id="filter0_d_181_6" x="0" y="0" width="470" height="99" filterUnits="userSpaceOnUse" color-interpolation-filters="sRGB">
<feFlood flood-opacity="0" result="BackgroundImageFix"/>
<feColorMatrix in="SourceAlpha" type="matrix" values="0 0 0 0 0 0 0 0 0 0 0 0 0 0 0 0 0 0 127 0" result="hardAlpha"/>
<feOffset dy="10"/>
<feGaussianBlur stdDeviation="14"/>
<feComposite in2="hardAlpha" operator="out"/>
<feColorMatrix type="matrix" values="0 0 0 0 0.701961 0 0 0 0 0.533333 0 0 0 0 1 0 0 0 0.28 0"/>
<feBlend mode="normal" in2="BackgroundImageFix" result="effect1_dropShadow_181_6"/>
<feBlend mode="normal" in="SourceGraphic" in2="effect1_dropShadow_181_6" result="shape"/>
</filter>
</defs>
</svg>
