<svg width="147" height="40" viewBox="0 0 147 40" fill="none" xmlns="http://www.w3.org/2000/svg">
<path d="M138.484 0C142.903 0 146.484 3.58172 146.484 8V32C146.484 36.4183 142.903 40 138.484 40H8C3.58172 40 0 36.4183 0 32V8C0 3.58172 3.58172 0 8 0H138.484Z" fill="#22C55E"/>
<path d="M138.484 0C142.903 0 146.484 3.58172 146.484 8V32C146.484 36.4183 142.903 40 138.484 40H8C3.58172 40 0 36.4183 0 32V8C0 3.58172 3.58172 0 8 0H138.484Z" stroke="#E5E7EB"/>
<path d="M47.4716 22V10.3636H54.4943V11.6136H48.8807V15.5455H54.1307V16.7955H48.8807V20.75H54.5852V22H47.4716ZM57.8523 13.2727L59.9432 16.8409L62.0341 13.2727H63.5795L60.7614 17.6364L63.5795 22H62.0341L59.9432 18.6136L57.8523 22H56.3068L59.0795 17.6364L56.3068 13.2727H57.8523ZM65.4929 25.2727V13.2727H66.7884V14.6591H66.9474C67.0459 14.5076 67.1823 14.3144 67.3565 14.0795C67.5346 13.8409 67.7884 13.6288 68.1179 13.4432C68.4512 13.2538 68.902 13.1591 69.4702 13.1591C70.205 13.1591 70.8527 13.3428 71.4134 13.7102C71.974 14.0777 72.4115 14.5985 72.7259 15.2727C73.0402 15.947 73.1974 16.7424 73.1974 17.6591C73.1974 18.5833 73.0402 19.3845 72.7259 20.0625C72.4115 20.7367 71.9759 21.2595 71.419 21.6307C70.8622 21.9981 70.2202 22.1818 69.4929 22.1818C68.9323 22.1818 68.4834 22.089 68.1463 21.9034C67.8092 21.714 67.5497 21.5 67.3679 21.2614C67.1861 21.0189 67.0459 20.8182 66.9474 20.6591H66.8338V25.2727H65.4929ZM66.8111 17.6364C66.8111 18.2955 66.9077 18.8769 67.1009 19.3807C67.294 19.8807 67.5762 20.2727 67.9474 20.5568C68.3187 20.8371 68.7732 20.9773 69.3111 20.9773C69.8717 20.9773 70.3395 20.8295 70.7145 20.5341C71.0933 20.2348 71.3774 19.8333 71.5668 19.3295C71.7599 18.822 71.8565 18.2576 71.8565 17.6364C71.8565 17.0227 71.7618 16.4697 71.5724 15.9773C71.3868 15.4811 71.1046 15.089 70.7259 14.8011C70.3509 14.5095 69.8793 14.3636 69.3111 14.3636C68.7656 14.3636 68.3073 14.5019 67.9361 14.7784C67.5649 15.0511 67.2846 15.4337 67.0952 15.9261C66.9058 16.4148 66.8111 16.9848 66.8111 17.6364ZM78.7884 22.1818C78.0005 22.1818 77.3092 21.9943 76.7145 21.6193C76.1236 21.2443 75.6615 20.7197 75.3281 20.0455C74.9986 19.3712 74.8338 18.5833 74.8338 17.6818C74.8338 16.7727 74.9986 15.9792 75.3281 15.3011C75.6615 14.6231 76.1236 14.0966 76.7145 13.7216C77.3092 13.3466 78.0005 13.1591 78.7884 13.1591C79.5762 13.1591 80.2656 13.3466 80.8565 13.7216C81.4512 14.0966 81.9134 14.6231 82.2429 15.3011C82.5762 15.9792 82.7429 16.7727 82.7429 17.6818C82.7429 18.5833 82.5762 19.3712 82.2429 20.0455C81.9134 20.7197 81.4512 21.2443 80.8565 21.6193C80.2656 21.9943 79.5762 22.1818 78.7884 22.1818ZM78.7884 20.9773C79.3868 20.9773 79.8793 20.8239 80.2656 20.517C80.652 20.2102 80.938 19.8068 81.1236 19.3068C81.3092 18.8068 81.402 18.2652 81.402 17.6818C81.402 17.0985 81.3092 16.5549 81.1236 16.0511C80.938 15.5473 80.652 15.1402 80.2656 14.8295C79.8793 14.5189 79.3868 14.3636 78.7884 14.3636C78.1899 14.3636 77.6974 14.5189 77.3111 14.8295C76.9247 15.1402 76.6387 15.5473 76.4531 16.0511C76.2675 16.5549 76.1747 17.0985 76.1747 17.6818C76.1747 18.2652 76.2675 18.8068 76.4531 19.3068C76.6387 19.8068 76.9247 20.2102 77.3111 20.517C77.6974 20.8239 78.1899 20.9773 78.7884 20.9773ZM84.7898 22V13.2727H86.0852V14.5909H86.1761C86.3352 14.1591 86.6231 13.8087 87.0398 13.5398C87.4564 13.2708 87.9261 13.1364 88.4489 13.1364C88.5473 13.1364 88.6705 13.1383 88.8182 13.142C88.9659 13.1458 89.0777 13.1515 89.1534 13.1591V14.5227C89.108 14.5114 89.0038 14.4943 88.8409 14.4716C88.6818 14.4451 88.5133 14.4318 88.3352 14.4318C87.911 14.4318 87.5322 14.5208 87.1989 14.6989C86.8693 14.8731 86.608 15.1155 86.4148 15.4261C86.2254 15.733 86.1307 16.0833 86.1307 16.4773V22H84.7898ZM95.0852 13.2727V14.4091H90.5625V13.2727H95.0852ZM91.8807 11.1818H93.2216V19.5C93.2216 19.8788 93.2765 20.1629 93.3864 20.3523C93.5 20.5379 93.6439 20.6629 93.8182 20.7273C93.9962 20.7879 94.1837 20.8182 94.3807 20.8182C94.5284 20.8182 94.6496 20.8106 94.7443 20.7955C94.839 20.7765 94.9148 20.7614 94.9716 20.75L95.2443 21.9545C95.1534 21.9886 95.0265 22.0227 94.8636 22.0568C94.7008 22.0947 94.4943 22.1136 94.2443 22.1136C93.8655 22.1136 93.4943 22.0322 93.1307 21.8693C92.7708 21.7064 92.4716 21.4583 92.233 21.125C91.9981 20.7917 91.8807 20.3712 91.8807 19.8636V11.1818ZM105.375 22H101.784V10.3636H105.534C106.663 10.3636 107.629 10.5966 108.432 11.0625C109.235 11.5246 109.85 12.1894 110.278 13.0568C110.706 13.9205 110.92 14.9545 110.92 16.1591C110.92 17.3712 110.705 18.4148 110.273 19.2898C109.841 20.161 109.212 20.8314 108.386 21.3011C107.561 21.767 106.557 22 105.375 22ZM103.193 20.75H105.284C106.246 20.75 107.044 20.5644 107.676 20.1932C108.309 19.822 108.78 19.2936 109.091 18.608C109.402 17.9223 109.557 17.1061 109.557 16.1591C109.557 15.2197 109.403 14.411 109.097 13.733C108.79 13.0511 108.331 12.5284 107.722 12.1648C107.112 11.7973 106.352 11.6136 105.443 11.6136H103.193V20.75ZM115.67 22.2045C115.117 22.2045 114.616 22.1004 114.165 21.892C113.714 21.6799 113.356 21.375 113.091 20.9773C112.826 20.5758 112.693 20.0909 112.693 19.5227C112.693 19.0227 112.792 18.6174 112.989 18.3068C113.186 17.9924 113.449 17.7462 113.778 17.5682C114.108 17.3902 114.472 17.2576 114.869 17.1705C115.271 17.0795 115.674 17.0076 116.08 16.9545C116.61 16.8864 117.04 16.8352 117.369 16.8011C117.703 16.7633 117.945 16.7008 118.097 16.6136C118.252 16.5265 118.33 16.375 118.33 16.1591V16.1136C118.33 15.553 118.176 15.1174 117.869 14.8068C117.566 14.4962 117.106 14.3409 116.489 14.3409C115.848 14.3409 115.347 14.4811 114.983 14.7614C114.619 15.0417 114.364 15.3409 114.216 15.6591L112.943 15.2045C113.17 14.6742 113.473 14.2614 113.852 13.9659C114.235 13.6667 114.652 13.4583 115.102 13.3409C115.557 13.2197 116.004 13.1591 116.443 13.1591C116.723 13.1591 117.045 13.1932 117.409 13.2614C117.777 13.3258 118.131 13.4602 118.472 13.6648C118.816 13.8693 119.102 14.178 119.33 14.5909C119.557 15.0038 119.67 15.5568 119.67 16.25V22H118.33V20.8182H118.261C118.17 21.0076 118.019 21.2102 117.807 21.4261C117.595 21.642 117.313 21.8258 116.96 21.9773C116.608 22.1288 116.178 22.2045 115.67 22.2045ZM115.875 21C116.405 21 116.852 20.8958 117.216 20.6875C117.583 20.4792 117.86 20.2102 118.045 19.8807C118.235 19.5511 118.33 19.2045 118.33 18.8409V17.6136C118.273 17.6818 118.148 17.7443 117.955 17.8011C117.765 17.8542 117.545 17.9015 117.295 17.9432C117.049 17.9811 116.809 18.0152 116.574 18.0455C116.343 18.072 116.155 18.0947 116.011 18.1136C115.663 18.1591 115.337 18.233 115.034 18.3352C114.735 18.4337 114.492 18.5833 114.307 18.7841C114.125 18.9811 114.034 19.25 114.034 19.5909C114.034 20.0568 114.206 20.4091 114.551 20.6477C114.9 20.8826 115.341 21 115.875 21ZM125.913 13.2727V14.4091H121.391V13.2727H125.913ZM122.709 11.1818H124.05V19.5C124.05 19.8788 124.105 20.1629 124.214 20.3523C124.328 20.5379 124.472 20.6629 124.646 20.7273C124.824 20.7879 125.012 20.8182 125.209 20.8182C125.357 20.8182 125.478 20.8106 125.572 20.7955C125.667 20.7765 125.743 20.7614 125.8 20.75L126.072 21.9545C125.982 21.9886 125.855 22.0227 125.692 22.0568C125.529 22.0947 125.322 22.1136 125.072 22.1136C124.694 22.1136 124.322 22.0322 123.959 21.8693C123.599 21.7064 123.3 21.4583 123.061 21.125C122.826 20.7917 122.709 20.3712 122.709 19.8636V11.1818ZM130.499 22.2045C129.946 22.2045 129.444 22.1004 128.993 21.892C128.542 21.6799 128.184 21.375 127.919 20.9773C127.654 20.5758 127.521 20.0909 127.521 19.5227C127.521 19.0227 127.62 18.6174 127.817 18.3068C128.014 17.9924 128.277 17.7462 128.607 17.5682C128.936 17.3902 129.3 17.2576 129.697 17.1705C130.099 17.0795 130.502 17.0076 130.908 16.9545C131.438 16.8864 131.868 16.8352 132.197 16.8011C132.531 16.7633 132.773 16.7008 132.925 16.6136C133.08 16.5265 133.158 16.375 133.158 16.1591V16.1136C133.158 15.553 133.004 15.1174 132.697 14.8068C132.394 14.4962 131.934 14.3409 131.317 14.3409C130.677 14.3409 130.175 14.4811 129.811 14.7614C129.447 15.0417 129.192 15.3409 129.044 15.6591L127.771 15.2045C127.999 14.6742 128.302 14.2614 128.68 13.9659C129.063 13.6667 129.48 13.4583 129.93 13.3409C130.385 13.2197 130.832 13.1591 131.271 13.1591C131.552 13.1591 131.874 13.1932 132.237 13.2614C132.605 13.3258 132.959 13.4602 133.3 13.6648C133.644 13.8693 133.93 14.178 134.158 14.5909C134.385 15.0038 134.499 15.5568 134.499 16.25V22H133.158V20.8182H133.089C132.999 21.0076 132.847 21.2102 132.635 21.4261C132.423 21.642 132.141 21.8258 131.788 21.9773C131.436 22.1288 131.006 22.2045 130.499 22.2045ZM130.703 21C131.233 21 131.68 20.8958 132.044 20.6875C132.411 20.4792 132.688 20.2102 132.874 19.8807C133.063 19.5511 133.158 19.2045 133.158 18.8409V17.6136C133.101 17.6818 132.976 17.7443 132.783 17.8011C132.593 17.8542 132.374 17.9015 132.124 17.9432C131.877 17.9811 131.637 18.0152 131.402 18.0455C131.171 18.072 130.983 18.0947 130.839 18.1136C130.491 18.1591 130.165 18.233 129.862 18.3352C129.563 18.4337 129.321 18.5833 129.135 18.7841C128.953 18.9811 128.862 19.25 128.862 19.5909C128.862 20.0568 129.035 20.4091 129.379 20.6477C129.728 20.8826 130.169 21 130.703 21Z" fill="white"/>
<path d="M25.4844 23V11M25.4844 23L20.4844 18M25.4844 23L30.4844 18M34.4844 23V27C34.4844 27.5304 34.2737 28.0391 33.8986 28.4142C33.5235 28.7893 33.0148 29 32.4844 29H18.4844C17.9539 29 17.4452 28.7893 17.0702 28.4142C16.6951 28.0391 16.4844 27.5304 16.4844 27V23" stroke="white" stroke-width="2" stroke-linecap="round" stroke-linejoin="round"/>
</svg>
