<svg width="142" height="36" viewBox="0 0 142 36" fill="none" xmlns="http://www.w3.org/2000/svg">
<path d="M133.812 0C138.231 0 141.812 3.58172 141.812 8V28C141.812 32.4183 138.231 36 133.812 36H8C3.58172 36 0 32.4183 0 28V8C0 3.58172 3.58172 0 8 0H133.812Z" fill="#10B981"/>
<path d="M133.812 0C138.231 0 141.812 3.58172 141.812 8V28C141.812 32.4183 138.231 36 133.812 36H8C3.58172 36 0 32.4183 0 28V8C0 3.58172 3.58172 0 8 0H133.812Z" stroke="#E5E7EB"/>
<path d="M28.25 26H16V9H28.25V26Z" stroke="#E5E7EB"/>
<path d="M15.125 17.75H29.125M22.125 10.75V24.75" stroke="white" stroke-width="2" stroke-linecap="round" stroke-linejoin="round"/>
<path d="M48.2833 16.1293H46.7322C46.6725 15.7978 46.5615 15.5062 46.3991 15.2543C46.2367 15.0024 46.0378 14.7886 45.8025 14.6129C45.5671 14.4373 45.3037 14.3047 45.012 14.2152C44.7236 14.1257 44.4171 14.081 44.0922 14.081C43.5056 14.081 42.9803 14.2285 42.5162 14.5234C42.0555 14.8184 41.691 15.2509 41.4225 15.821C41.1573 16.3911 41.0248 17.0871 41.0248 17.9091C41.0248 18.7377 41.1573 19.437 41.4225 20.0071C41.691 20.5772 42.0572 21.008 42.5212 21.2997C42.9852 21.5914 43.5073 21.7372 44.0873 21.7372C44.4088 21.7372 44.7137 21.6941 45.002 21.608C45.2937 21.5185 45.5572 21.3875 45.7925 21.2152C46.0278 21.0429 46.2267 20.8324 46.3891 20.5838C46.5548 20.3319 46.6692 20.0436 46.7322 19.7188L48.2833 19.7237C48.2004 20.2242 48.0397 20.6849 47.801 21.1058C47.5657 21.5234 47.2625 21.8847 46.8912 22.1896C46.5233 22.4912 46.1024 22.7249 45.6285 22.8906C45.1545 23.0563 44.6375 23.1392 44.0773 23.1392C43.1957 23.1392 42.4102 22.9304 41.7208 22.5128C41.0314 22.0919 40.4878 21.4903 40.0901 20.7081C39.6957 19.9259 39.4985 18.9929 39.4985 17.9091C39.4985 16.822 39.6974 15.889 40.0951 15.1101C40.4928 14.3279 41.0364 13.728 41.7258 13.3104C42.4152 12.8894 43.199 12.679 44.0773 12.679C44.6176 12.679 45.1214 12.7569 45.5887 12.9126C46.0593 13.0651 46.4819 13.2905 46.8564 13.5888C47.231 13.8838 47.5409 14.245 47.7861 14.6726C48.0314 15.0968 48.1971 15.5824 48.2833 16.1293ZM50.0022 23V15.3636H51.439V16.5767H51.5186C51.6578 16.1657 51.903 15.8426 52.2544 15.6072C52.609 15.3686 53.01 15.2493 53.4575 15.2493C53.5503 15.2493 53.6597 15.2526 53.7856 15.2592C53.9149 15.2659 54.016 15.2741 54.0889 15.2841V16.706C54.0292 16.6894 53.9231 16.6712 53.7707 16.6513C53.6182 16.6281 53.4658 16.6165 53.3133 16.6165C52.962 16.6165 52.6488 16.6911 52.3737 16.8402C52.1019 16.986 51.8865 17.1899 51.7274 17.4517C51.5683 17.7102 51.4887 18.0052 51.4887 18.3366V23H50.0022ZM58.393 23.1541C57.6407 23.1541 56.9927 22.9934 56.4491 22.6719C55.9089 22.3471 55.4913 21.8913 55.1963 21.3047C54.9046 20.7147 54.7588 20.0237 54.7588 19.2315C54.7588 18.4493 54.9046 17.7599 55.1963 17.1634C55.4913 16.5668 55.9023 16.1011 56.4292 15.7663C56.9595 15.4316 57.5793 15.2642 58.2886 15.2642C58.7195 15.2642 59.1371 15.3355 59.5415 15.478C59.9458 15.6205 60.3087 15.8442 60.6302 16.1491C60.9517 16.4541 61.2053 16.8501 61.3909 17.3374C61.5765 17.8213 61.6693 18.4096 61.6693 19.1023V19.6293H55.599V18.5156H60.2126C60.2126 18.1245 60.1331 17.7782 59.974 17.4766C59.8149 17.1716 59.5912 16.9313 59.3028 16.7557C59.0178 16.58 58.683 16.4922 58.2986 16.4922C57.8809 16.4922 57.5164 16.5949 57.2048 16.8004C56.8966 17.0026 56.6579 17.2678 56.4889 17.5959C56.3232 17.9207 56.2403 18.2737 56.2403 18.6548V19.5249C56.2403 20.0353 56.3298 20.4695 56.5088 20.8274C56.6911 21.1854 56.9446 21.4588 57.2694 21.6477C57.5943 21.8333 57.9738 21.9261 58.4079 21.9261C58.6897 21.9261 58.9465 21.8864 59.1785 21.8068C59.4105 21.724 59.6111 21.6013 59.7801 21.4389C59.9491 21.2765 60.0784 21.076 60.1679 20.8374L61.5748 21.0909C61.4622 21.5052 61.26 21.8681 60.9683 22.1797C60.68 22.4879 60.317 22.7282 59.8795 22.9006C59.4453 23.0696 58.9498 23.1541 58.393 23.1541ZM65.5409 23.169C65.057 23.169 64.6195 23.0795 64.2284 22.9006C63.8373 22.7183 63.5274 22.4548 63.2987 22.1101C63.0734 21.7654 62.9607 21.3428 62.9607 20.8423C62.9607 20.4115 63.0435 20.0568 63.2093 19.7784C63.375 19.5 63.5987 19.2796 63.8804 19.1172C64.1621 18.9548 64.477 18.8321 64.825 18.7493C65.173 18.6664 65.5277 18.6035 65.8889 18.5604C66.3463 18.5073 66.7175 18.4643 67.0026 18.4311C67.2876 18.3946 67.4948 18.3366 67.624 18.2571C67.7533 18.1776 67.8179 18.0483 67.8179 17.8693V17.8345C67.8179 17.4003 67.6953 17.0639 67.45 16.8253C67.2081 16.5866 66.8468 16.4673 66.3662 16.4673C65.8657 16.4673 65.4713 16.5784 65.183 16.8004C64.8979 17.0192 64.7007 17.2628 64.5914 17.5312L63.1943 17.2131C63.3601 16.7491 63.602 16.3745 63.9202 16.0895C64.2417 15.8011 64.6112 15.5923 65.0289 15.4631C65.4465 15.3305 65.8856 15.2642 66.3463 15.2642C66.6512 15.2642 66.9744 15.3007 67.3158 15.3736C67.6605 15.4432 67.982 15.5724 68.2803 15.7614C68.5819 15.9503 68.8288 16.2204 69.021 16.5717C69.2133 16.9197 69.3094 17.3722 69.3094 17.929V23H67.8577V21.956H67.798C67.7019 22.1482 67.5577 22.3371 67.3655 22.5227C67.1733 22.7083 66.9263 22.8625 66.6247 22.9851C66.3231 23.1077 65.9619 23.169 65.5409 23.169ZM65.8641 21.9759C66.2751 21.9759 66.6264 21.8946 66.9181 21.7322C67.213 21.5698 67.4368 21.3577 67.5892 21.0959C67.745 20.8307 67.8229 20.5473 67.8229 20.2457V19.2614C67.7699 19.3144 67.6671 19.3641 67.5146 19.4105C67.3655 19.4536 67.1948 19.4917 67.0026 19.5249C66.8103 19.5547 66.6231 19.5829 66.4408 19.6094C66.2585 19.6326 66.106 19.6525 65.9834 19.669C65.695 19.7055 65.4316 19.7668 65.1929 19.853C64.9576 19.9392 64.7687 20.0634 64.6262 20.2259C64.4869 20.3849 64.4173 20.5971 64.4173 20.8622C64.4173 21.2301 64.5532 21.5085 64.825 21.6974C65.0968 21.883 65.4432 21.9759 65.8641 21.9759ZM74.854 15.3636V16.5568H70.6828V15.3636H74.854ZM71.8014 13.5341H73.2879V20.7578C73.2879 21.0462 73.331 21.2633 73.4172 21.4091C73.5033 21.5516 73.6144 21.6494 73.7503 21.7024C73.8895 21.7521 74.0403 21.777 74.2027 21.777C74.322 21.777 74.4264 21.7687 74.5159 21.7521C74.6054 21.7356 74.675 21.7223 74.7247 21.7124L74.9932 22.9403C74.907 22.9735 74.7844 23.0066 74.6253 23.0398C74.4662 23.0762 74.2673 23.0961 74.0287 23.0994C73.6376 23.1061 73.273 23.0365 72.9349 22.8906C72.5969 22.7448 72.3234 22.5194 72.1146 22.2145C71.9058 21.9096 71.8014 21.5268 71.8014 21.0661V13.5341ZM79.7075 23.1541C78.9551 23.1541 78.3071 22.9934 77.7636 22.6719C77.2233 22.3471 76.8057 21.8913 76.5107 21.3047C76.2191 20.7147 76.0732 20.0237 76.0732 19.2315C76.0732 18.4493 76.2191 17.7599 76.5107 17.1634C76.8057 16.5668 77.2167 16.1011 77.7437 15.7663C78.274 15.4316 78.8938 15.2642 79.6031 15.2642C80.0339 15.2642 80.4516 15.3355 80.8559 15.478C81.2603 15.6205 81.6232 15.8442 81.9447 16.1491C82.2662 16.4541 82.5197 16.8501 82.7053 17.3374C82.891 17.8213 82.9838 18.4096 82.9838 19.1023V19.6293H76.9134V18.5156H81.5271C81.5271 18.1245 81.4475 17.7782 81.2884 17.4766C81.1294 17.1716 80.9056 16.9313 80.6173 16.7557C80.3322 16.58 79.9975 16.4922 79.613 16.4922C79.1954 16.4922 78.8308 16.5949 78.5193 16.8004C78.211 17.0026 77.9724 17.2678 77.8034 17.5959C77.6376 17.9207 77.5548 18.2737 77.5548 18.6548V19.5249C77.5548 20.0353 77.6443 20.4695 77.8232 20.8274C78.0055 21.1854 78.2591 21.4588 78.5839 21.6477C78.9087 21.8333 79.2882 21.9261 79.7224 21.9261C80.0041 21.9261 80.261 21.8864 80.493 21.8068C80.725 21.724 80.9255 21.6013 81.0945 21.4389C81.2636 21.2765 81.3928 21.076 81.4823 20.8374L82.8893 21.0909C82.7766 21.5052 82.5744 21.8681 82.2828 22.1797C81.9944 22.4879 81.6315 22.7282 81.194 22.9006C80.7598 23.0696 80.2643 23.1541 79.7075 23.1541ZM87.9553 14.1406V12.8182H95.8353V14.1406H92.6585V23H91.1272V14.1406H87.9553ZM97.4573 23V15.3636H98.9438V23H97.4573ZM98.208 14.1854C97.9495 14.1854 97.7274 14.0992 97.5418 13.9268C97.3595 13.7512 97.2684 13.5424 97.2684 13.3004C97.2684 13.0552 97.3595 12.8464 97.5418 12.674C97.7274 12.4983 97.9495 12.4105 98.208 12.4105C98.4665 12.4105 98.6869 12.4983 98.8692 12.674C99.0548 12.8464 99.1476 13.0552 99.1476 13.3004C99.1476 13.5424 99.0548 13.7512 98.8692 13.9268C98.6869 14.0992 98.4665 14.1854 98.208 14.1854ZM104.16 23.1541C103.421 23.1541 102.785 22.9867 102.251 22.652C101.721 22.3139 101.313 21.8482 101.028 21.255C100.743 20.6617 100.601 19.9822 100.601 19.2166C100.601 18.4411 100.746 17.7566 101.038 17.1634C101.33 16.5668 101.741 16.1011 102.271 15.7663C102.801 15.4316 103.426 15.2642 104.145 15.2642C104.725 15.2642 105.242 15.3719 105.696 15.5874C106.151 15.7995 106.517 16.0978 106.795 16.4822C107.077 16.8667 107.244 17.3158 107.297 17.8295H105.851C105.771 17.4716 105.589 17.1634 105.304 16.9048C105.022 16.6463 104.644 16.517 104.17 16.517C103.756 16.517 103.393 16.6264 103.081 16.8452C102.773 17.0606 102.533 17.3688 102.361 17.7699C102.188 18.1676 102.102 18.6383 102.102 19.1818C102.102 19.7386 102.187 20.2192 102.356 20.6236C102.525 21.0279 102.763 21.3411 103.071 21.5632C103.383 21.7853 103.749 21.8963 104.17 21.8963C104.452 21.8963 104.707 21.8449 104.936 21.7422C105.168 21.6361 105.362 21.4853 105.517 21.2898C105.677 21.0942 105.788 20.8589 105.851 20.5838H107.297C107.244 21.0777 107.084 21.5185 106.815 21.9062C106.547 22.294 106.187 22.599 105.736 22.821C105.289 23.0431 104.763 23.1541 104.16 23.1541ZM110.254 20.4098L110.244 18.5952H110.503L113.545 15.3636H115.325L111.855 19.0426H111.621L110.254 20.4098ZM108.887 23V12.8182H110.373V23H108.887ZM113.709 23L110.975 19.3707L111.999 18.3317L115.534 23H113.709ZM119.657 23.1541C118.904 23.1541 118.256 22.9934 117.713 22.6719C117.173 22.3471 116.755 21.8913 116.46 21.3047C116.168 20.7147 116.022 20.0237 116.022 19.2315C116.022 18.4493 116.168 17.7599 116.46 17.1634C116.755 16.5668 117.166 16.1011 117.693 15.7663C118.223 15.4316 118.843 15.2642 119.552 15.2642C119.983 15.2642 120.401 15.3355 120.805 15.478C121.209 15.6205 121.572 15.8442 121.894 16.1491C122.215 16.4541 122.469 16.8501 122.655 17.3374C122.84 17.8213 122.933 18.4096 122.933 19.1023V19.6293H116.863V18.5156H121.476C121.476 18.1245 121.397 17.7782 121.238 17.4766C121.079 17.1716 120.855 16.9313 120.566 16.7557C120.281 16.58 119.947 16.4922 119.562 16.4922C119.145 16.4922 118.78 16.5949 118.468 16.8004C118.16 17.0026 117.922 17.2678 117.753 17.5959C117.587 17.9207 117.504 18.2737 117.504 18.6548V19.5249C117.504 20.0353 117.593 20.4695 117.772 20.8274C117.955 21.1854 118.208 21.4588 118.533 21.6477C118.858 21.8333 119.237 21.9261 119.672 21.9261C119.953 21.9261 120.21 21.8864 120.442 21.8068C120.674 21.724 120.875 21.6013 121.044 21.4389C121.213 21.2765 121.342 21.076 121.432 20.8374L122.839 21.0909C122.726 21.5052 122.524 21.8681 122.232 22.1797C121.944 22.4879 121.581 22.7282 121.143 22.9006C120.709 23.0696 120.214 23.1541 119.657 23.1541ZM128.147 15.3636V16.5568H123.976V15.3636H128.147ZM125.094 13.5341H126.581V20.7578C126.581 21.0462 126.624 21.2633 126.71 21.4091C126.796 21.5516 126.907 21.6494 127.043 21.7024C127.182 21.7521 127.333 21.777 127.496 21.777C127.615 21.777 127.719 21.7687 127.809 21.7521C127.898 21.7356 127.968 21.7223 128.018 21.7124L128.286 22.9403C128.2 22.9735 128.077 23.0066 127.918 23.0398C127.759 23.0762 127.56 23.0961 127.322 23.0994C126.931 23.1061 126.566 23.0365 126.228 22.8906C125.89 22.7448 125.616 22.5194 125.408 22.2145C125.199 21.9096 125.094 21.5268 125.094 21.0661V13.5341Z" fill="white"/>
</svg>
