<svg width="160" height="40" viewBox="0 0 160 40" fill="none" xmlns="http://www.w3.org/2000/svg">
<rect x="0.5" y="0.5" width="159" height="39" rx="11.5" fill="white"/>
<rect x="0.5" y="0.5" width="159" height="39" rx="11.5" stroke="#EAEAEA"/>
<path d="M18 10V14M26 10V14M13 18H31M15 12H29C30.1046 12 31 12.8954 31 14V28C31 29.1046 30.1046 30 29 30H15C13.8954 30 13 29.1046 13 28V14C13 12.8954 13.8954 12 15 12Z" stroke="black" stroke-width="2" stroke-linecap="round" stroke-linejoin="round"/>
<path d="M43.375 25.5H40.233V15.3182H43.5142C44.5019 15.3182 45.3471 15.522 46.0497 15.9297C46.7524 16.334 47.291 16.9157 47.6655 17.6747C48.04 18.4304 48.2273 19.3352 48.2273 20.3892C48.2273 21.4498 48.0384 22.3629 47.6605 23.1286C47.2827 23.8909 46.7325 24.4775 46.0099 24.8885C45.2874 25.2962 44.4091 25.5 43.375 25.5ZM41.4659 24.4062H43.2955C44.1373 24.4062 44.835 24.2438 45.3885 23.919C45.942 23.5942 46.3546 23.1319 46.6264 22.532C46.8982 21.9321 47.0341 21.2178 47.0341 20.3892C47.0341 19.5672 46.8999 18.8596 46.6314 18.2663C46.3629 17.6697 45.9619 17.2124 45.4283 16.8942C44.8946 16.5727 44.2301 16.4119 43.4347 16.4119H41.4659V24.4062ZM52.3835 25.679C51.8996 25.679 51.4605 25.5878 51.0661 25.4055C50.6716 25.2199 50.3584 24.9531 50.1264 24.6051C49.8944 24.2538 49.7784 23.8295 49.7784 23.3324C49.7784 22.8949 49.8646 22.5402 50.0369 22.2685C50.2093 21.9934 50.4396 21.7779 50.728 21.6222C51.0163 21.4664 51.3345 21.3504 51.6825 21.2741C52.0339 21.1946 52.3868 21.1316 52.7415 21.0852C53.2055 21.0256 53.5817 20.9808 53.87 20.951C54.1617 20.9179 54.3738 20.8632 54.5064 20.7869C54.6423 20.7107 54.7102 20.5781 54.7102 20.3892V20.3494C54.7102 19.8589 54.576 19.4777 54.3075 19.206C54.0424 18.9342 53.6397 18.7983 53.0994 18.7983C52.5393 18.7983 52.1001 18.9209 51.782 19.1662C51.4638 19.4115 51.2401 19.6733 51.1108 19.9517L49.9972 19.554C50.196 19.09 50.4612 18.7287 50.7926 18.4702C51.1274 18.2083 51.492 18.026 51.8864 17.9233C52.2841 17.8172 52.6752 17.7642 53.0597 17.7642C53.3049 17.7642 53.5866 17.794 53.9048 17.8537C54.2263 17.91 54.5362 18.0277 54.8345 18.2067C55.1361 18.3857 55.3864 18.6558 55.5852 19.017C55.7841 19.3783 55.8835 19.8622 55.8835 20.4688V25.5H54.7102V24.4659H54.6506C54.571 24.6316 54.4384 24.8089 54.2528 24.9979C54.0672 25.1868 53.8203 25.3475 53.5121 25.4801C53.2038 25.6127 52.8277 25.679 52.3835 25.679ZM52.5625 24.625C53.0265 24.625 53.4176 24.5339 53.7358 24.3516C54.0573 24.1693 54.2992 23.9339 54.4616 23.6456C54.6274 23.3572 54.7102 23.054 54.7102 22.7358V21.6619C54.6605 21.7216 54.5511 21.7763 54.3821 21.826C54.2164 21.8724 54.0241 21.9138 53.8054 21.9503C53.59 21.9834 53.3795 22.0133 53.174 22.0398C52.9718 22.063 52.8078 22.0829 52.6818 22.0994C52.3769 22.1392 52.0919 22.2038 51.8267 22.2933C51.5649 22.3795 51.3527 22.5104 51.1903 22.6861C51.0313 22.8584 50.9517 23.0937 50.9517 23.392C50.9517 23.7997 51.1025 24.108 51.4041 24.3168C51.709 24.5223 52.0952 24.625 52.5625 24.625ZM61.3461 17.8636V18.858H57.3887V17.8636H61.3461ZM58.5421 16.0341H59.7154V23.3125C59.7154 23.6439 59.7634 23.8925 59.8596 24.0582C59.959 24.2206 60.0849 24.33 60.2374 24.3864C60.3932 24.4394 60.5572 24.4659 60.7296 24.4659C60.8588 24.4659 60.9649 24.4593 61.0478 24.446C61.1306 24.4295 61.1969 24.4162 61.2466 24.4062L61.4853 25.4602C61.4057 25.4901 61.2947 25.5199 61.1522 25.5497C61.0096 25.5829 60.829 25.5994 60.6103 25.5994C60.2788 25.5994 59.954 25.5282 59.6358 25.3857C59.321 25.2431 59.0591 25.026 58.8503 24.7344C58.6448 24.4427 58.5421 24.0748 58.5421 23.6307V16.0341ZM66.2306 25.6591C65.4949 25.6591 64.8601 25.4967 64.3265 25.1719C63.7962 24.8438 63.3869 24.3864 63.0985 23.7997C62.8135 23.2098 62.671 22.5237 62.671 21.7415C62.671 20.9593 62.8135 20.2699 63.0985 19.6733C63.3869 19.0734 63.7879 18.6061 64.3017 18.2713C64.8187 17.9332 65.4219 17.7642 66.1113 17.7642C66.5091 17.7642 66.9018 17.8305 67.2896 17.9631C67.6774 18.0956 68.0304 18.3111 68.3485 18.6094C68.6667 18.9044 68.9203 19.2955 69.1092 19.7827C69.2981 20.2699 69.3926 20.8698 69.3926 21.5824V22.0795H63.5062V21.0653H68.1994C68.1994 20.6345 68.1132 20.25 67.9409 19.9119C67.7718 19.5739 67.5299 19.3071 67.215 19.1115C66.9035 18.916 66.5356 18.8182 66.1113 18.8182C65.644 18.8182 65.2396 18.9342 64.8983 19.1662C64.5602 19.3949 64.3 19.6932 64.1177 20.0611C63.9354 20.429 63.8443 20.8234 63.8443 21.2443V21.9205C63.8443 22.4972 63.9437 22.986 64.1426 23.3871C64.3448 23.7848 64.6248 24.0881 64.9828 24.2969C65.3407 24.5024 65.7567 24.6051 66.2306 24.6051C66.5389 24.6051 66.8173 24.562 67.0659 24.4759C67.3178 24.3864 67.5349 24.2538 67.7172 24.0781C67.8994 23.8991 68.0403 23.6771 68.1397 23.4119L69.2733 23.7301C69.1539 24.1146 68.9534 24.4527 68.6717 24.7443C68.39 25.0327 68.042 25.258 67.6277 25.4205C67.2134 25.5795 66.7477 25.6591 66.2306 25.6591ZM75.274 25.5V15.3182H78.7143C79.5098 15.3182 80.1627 15.4541 80.6731 15.7259C81.1835 15.9943 81.5614 16.3639 81.8066 16.8345C82.0519 17.3052 82.1745 17.8404 82.1745 18.4403C82.1745 19.0402 82.0519 19.5722 81.8066 20.0362C81.5614 20.5002 81.1852 20.8648 80.6781 21.13C80.171 21.3918 79.523 21.5227 78.7342 21.5227H75.9501V20.4091H78.6944C79.238 20.4091 79.6755 20.3295 80.0069 20.1705C80.3417 20.0114 80.5836 19.786 80.7328 19.4943C80.8852 19.1993 80.9615 18.848 80.9615 18.4403C80.9615 18.0327 80.8852 17.6764 80.7328 17.3714C80.5803 17.0665 80.3367 16.8312 80.002 16.6655C79.6672 16.4964 79.2247 16.4119 78.6745 16.4119H76.5069V25.5H75.274ZM80.0666 20.9261L82.5723 25.5H81.1404L78.6745 20.9261H80.0666ZM86.3171 25.679C85.8332 25.679 85.3941 25.5878 84.9996 25.4055C84.6052 25.2199 84.292 24.9531 84.06 24.6051C83.828 24.2538 83.712 23.8295 83.712 23.3324C83.712 22.8949 83.7982 22.5402 83.9705 22.2685C84.1429 21.9934 84.3732 21.7779 84.6616 21.6222C84.9499 21.4664 85.2681 21.3504 85.6161 21.2741C85.9674 21.1946 86.3204 21.1316 86.6751 21.0852C87.1391 21.0256 87.5153 20.9808 87.8036 20.951C88.0953 20.9179 88.3074 20.8632 88.44 20.7869C88.5759 20.7107 88.6438 20.5781 88.6438 20.3892V20.3494C88.6438 19.8589 88.5096 19.4777 88.2411 19.206C87.976 18.9342 87.5733 18.7983 87.033 18.7983C86.4729 18.7983 86.0337 18.9209 85.7156 19.1662C85.3974 19.4115 85.1737 19.6733 85.0444 19.9517L83.9308 19.554C84.1296 19.09 84.3948 18.7287 84.7262 18.4702C85.061 18.2083 85.4255 18.026 85.82 17.9233C86.2177 17.8172 86.6088 17.7642 86.9933 17.7642C87.2385 17.7642 87.5202 17.794 87.8384 17.8537C88.1599 17.91 88.4698 18.0277 88.7681 18.2067C89.0697 18.3857 89.32 18.6558 89.5188 19.017C89.7177 19.3783 89.8171 19.8622 89.8171 20.4688V25.5H88.6438V24.4659H88.5842C88.5046 24.6316 88.372 24.8089 88.1864 24.9979C88.0008 25.1868 87.7539 25.3475 87.4457 25.4801C87.1374 25.6127 86.7612 25.679 86.3171 25.679ZM86.4961 24.625C86.9601 24.625 87.3512 24.5339 87.6694 24.3516C87.9909 24.1693 88.2328 23.9339 88.3952 23.6456C88.561 23.3572 88.6438 23.054 88.6438 22.7358V21.6619C88.5941 21.7216 88.4847 21.7763 88.3157 21.826C88.15 21.8724 87.9577 21.9138 87.739 21.9503C87.5236 21.9834 87.3131 22.0133 87.1076 22.0398C86.9054 22.063 86.7414 22.0829 86.6154 22.0994C86.3105 22.1392 86.0254 22.2038 85.7603 22.2933C85.4985 22.3795 85.2863 22.5104 85.1239 22.6861C84.9648 22.8584 84.8853 23.0937 84.8853 23.392C84.8853 23.7997 85.0361 24.108 85.3377 24.3168C85.6426 24.5223 86.0288 24.625 86.4961 24.625ZM93.1319 20.9062V25.5H91.9586V17.8636H93.0922V19.0568H93.1916C93.3706 18.669 93.6423 18.3575 94.0069 18.1222C94.3715 17.8835 94.8422 17.7642 95.4189 17.7642C95.9359 17.7642 96.3883 17.8703 96.7761 18.0824C97.1639 18.2912 97.4655 18.6094 97.6809 19.0369C97.8964 19.4612 98.0041 19.9981 98.0041 20.6477V25.5H96.8308V20.7273C96.8308 20.1274 96.675 19.66 96.3635 19.3253C96.0519 18.9872 95.6243 18.8182 95.0808 18.8182C94.7063 18.8182 94.3715 18.8994 94.0765 19.0618C93.7849 19.2242 93.5545 19.4612 93.3855 19.7727C93.2164 20.0843 93.1319 20.4621 93.1319 20.9062ZM103.23 28.5227C102.664 28.5227 102.176 28.4498 101.769 28.304C101.361 28.1615 101.021 27.9725 100.75 27.7372C100.481 27.5052 100.267 27.2566 100.108 26.9915L101.043 26.3352C101.149 26.4744 101.283 26.6335 101.446 26.8125C101.608 26.9948 101.83 27.1522 102.112 27.2848C102.397 27.4207 102.77 27.4886 103.23 27.4886C103.847 27.4886 104.356 27.3395 104.757 27.0412C105.158 26.7429 105.358 26.2756 105.358 25.6392V24.0881H105.259C105.173 24.2273 105.05 24.3996 104.891 24.6051C104.735 24.8073 104.51 24.9879 104.215 25.147C103.923 25.3028 103.529 25.3807 103.032 25.3807C102.415 25.3807 101.862 25.2348 101.371 24.9432C100.884 24.6515 100.498 24.2273 100.213 23.6705C99.931 23.1136 99.7901 22.4375 99.7901 21.642C99.7901 20.8598 99.9277 20.1787 100.203 19.5987C100.478 19.0154 100.861 18.5646 101.351 18.2464C101.842 17.925 102.408 17.7642 103.051 17.7642C103.549 17.7642 103.943 17.8471 104.235 18.0128C104.53 18.1752 104.755 18.3608 104.911 18.5696C105.07 18.7751 105.193 18.9441 105.279 19.0767H105.398V17.8636H106.532V25.7188C106.532 26.375 106.382 26.9086 106.084 27.3196C105.789 27.7339 105.391 28.0372 104.891 28.2294C104.394 28.425 103.84 28.5227 103.23 28.5227ZM103.191 24.3267C103.661 24.3267 104.059 24.219 104.384 24.0036C104.709 23.7881 104.956 23.4782 105.125 23.0739C105.294 22.6695 105.378 22.1856 105.378 21.6222C105.378 21.072 105.295 20.5864 105.13 20.1655C104.964 19.7446 104.719 19.4148 104.394 19.1761C104.069 18.9375 103.668 18.8182 103.191 18.8182C102.694 18.8182 102.279 18.9441 101.948 19.196C101.62 19.4479 101.373 19.786 101.207 20.2102C101.045 20.6345 100.963 21.1051 100.963 21.6222C100.963 22.1525 101.046 22.6214 101.212 23.0291C101.381 23.4335 101.63 23.7517 101.958 23.9837C102.289 24.2124 102.7 24.3267 103.191 24.3267ZM111.881 25.6591C111.145 25.6591 110.511 25.4967 109.977 25.1719C109.447 24.8438 109.037 24.3864 108.749 23.7997C108.464 23.2098 108.321 22.5237 108.321 21.7415C108.321 20.9593 108.464 20.2699 108.749 19.6733C109.037 19.0734 109.438 18.6061 109.952 18.2713C110.469 17.9332 111.072 17.7642 111.762 17.7642C112.159 17.7642 112.552 17.8305 112.94 17.9631C113.328 18.0956 113.681 18.3111 113.999 18.6094C114.317 18.9044 114.571 19.2955 114.76 19.7827C114.949 20.2699 115.043 20.8698 115.043 21.5824V22.0795H109.157V21.0653H113.85C113.85 20.6345 113.764 20.25 113.591 19.9119C113.422 19.5739 113.18 19.3071 112.865 19.1115C112.554 18.916 112.186 18.8182 111.762 18.8182C111.294 18.8182 110.89 18.9342 110.549 19.1662C110.211 19.3949 109.95 19.6932 109.768 20.0611C109.586 20.429 109.495 20.8234 109.495 21.2443V21.9205C109.495 22.4972 109.594 22.986 109.793 23.3871C109.995 23.7848 110.275 24.0881 110.633 24.2969C110.991 24.5024 111.407 24.6051 111.881 24.6051C112.189 24.6051 112.468 24.562 112.716 24.4759C112.968 24.3864 113.185 24.2538 113.368 24.0781C113.55 23.8991 113.691 23.6771 113.79 23.4119L114.924 23.7301C114.804 24.1146 114.604 24.4527 114.322 24.7443C114.04 25.0327 113.692 25.258 113.278 25.4205C112.864 25.5795 112.398 25.6591 111.881 25.6591Z" fill="#1A1A1A"/>
<path d="M133.5 17.75L138 22.25L142.5 17.75" stroke="#6B6B6B" stroke-width="1.5" stroke-linecap="round" stroke-linejoin="round"/>
</svg>
