<svg width="180" height="43" viewBox="0 0 180 43" fill="none" xmlns="http://www.w3.org/2000/svg">
<rect x="0.5" y="0.5" width="179" height="42" rx="11.5" fill="#F8FAFC"/>
<rect x="0.5" y="0.5" width="179" height="42" rx="11.5" stroke="#6366F1"/>
<path d="M26.25 12.5H19.5C19.1022 12.5 18.7206 12.658 18.4393 12.9393C18.158 13.2206 18 13.6022 18 14V26C18 26.3978 18.158 26.7794 18.4393 27.0607C18.7206 27.342 19.1022 27.5 19.5 27.5H28.5C28.8978 27.5 29.2794 27.342 29.5607 27.0607C29.842 26.7794 30 26.3978 30 26V16.25L26.25 12.5Z" stroke="#6366F1" stroke-width="1.5" stroke-linecap="round" stroke-linejoin="round"/>
<path d="M25.5 12.5V15.5C25.5 15.8978 25.658 16.2794 25.9393 16.5607C26.2206 16.842 26.6022 17 27 17H30M24 24.5V20M24 24.5L21.75 22.25M24 24.5L26.25 22.25" stroke="#6366F1" stroke-width="1.5" stroke-linecap="round" stroke-linejoin="round"/>
<path d="M45.4148 25.5H42.1186V15.3182H45.5192C46.5168 15.3182 47.3736 15.522 48.0895 15.9297C48.8054 16.334 49.3539 16.9157 49.7351 17.6747C50.1196 18.4304 50.3118 19.3369 50.3118 20.3942C50.3118 21.4548 50.1179 22.3662 49.7301 23.1286C49.3456 23.8909 48.7888 24.4775 48.0597 24.8885C47.3305 25.2962 46.4489 25.5 45.4148 25.5ZM43.6548 24.1577H45.3303C46.1058 24.1577 46.7505 24.0118 47.2642 23.7202C47.7779 23.4252 48.1624 22.9993 48.4176 22.4425C48.6728 21.8823 48.8004 21.1996 48.8004 20.3942C48.8004 19.5954 48.6728 18.9176 48.4176 18.3608C48.1657 17.804 47.7895 17.3814 47.2891 17.093C46.7886 16.8047 46.1671 16.6605 45.4247 16.6605H43.6548V24.1577ZM55.3194 25.6541C54.6035 25.6541 53.9788 25.4901 53.4451 25.1619C52.9115 24.8338 52.4972 24.3748 52.2022 23.7848C51.9073 23.1948 51.7598 22.5054 51.7598 21.7166C51.7598 20.9245 51.9073 20.2318 52.2022 19.6385C52.4972 19.0452 52.9115 18.5845 53.4451 18.2564C53.9788 17.9283 54.6035 17.7642 55.3194 17.7642C56.0353 17.7642 56.6601 17.9283 57.1937 18.2564C57.7273 18.5845 58.1416 19.0452 58.4366 19.6385C58.7316 20.2318 58.8791 20.9245 58.8791 21.7166C58.8791 22.5054 58.7316 23.1948 58.4366 23.7848C58.1416 24.3748 57.7273 24.8338 57.1937 25.1619C56.6601 25.4901 56.0353 25.6541 55.3194 25.6541ZM55.3244 24.4062C55.7884 24.4062 56.1729 24.2836 56.4778 24.0384C56.7827 23.7931 57.0081 23.4666 57.1539 23.0589C57.3031 22.6513 57.3777 22.2022 57.3777 21.7116C57.3777 21.2244 57.3031 20.777 57.1539 20.3693C57.0081 19.9583 56.7827 19.6286 56.4778 19.38C56.1729 19.1314 55.7884 19.0071 55.3244 19.0071C54.8571 19.0071 54.4693 19.1314 54.161 19.38C53.8561 19.6286 53.6291 19.9583 53.4799 20.3693C53.3341 20.777 53.2612 21.2244 53.2612 21.7116C53.2612 22.2022 53.3341 22.6513 53.4799 23.0589C53.6291 23.4666 53.8561 23.7931 54.161 24.0384C54.4693 24.2836 54.8571 24.4062 55.3244 24.4062ZM61.9615 25.5L59.7143 17.8636H61.2505L62.747 23.4716H62.8216L64.323 17.8636H65.8592L67.3507 23.4467H67.4252L68.9118 17.8636H70.448L68.2058 25.5H66.6895L65.1383 19.9865H65.024L63.4728 25.5H61.9615ZM73.3452 20.9659V25.5H71.8587V17.8636H73.2855V19.1065H73.38C73.5556 18.7022 73.8307 18.3774 74.2053 18.1321C74.5831 17.8868 75.0587 17.7642 75.6321 17.7642C76.1525 17.7642 76.6082 17.8736 76.9993 18.0923C77.3904 18.3078 77.6937 18.6293 77.9091 19.0568C78.1245 19.4844 78.2322 20.013 78.2322 20.6428V25.5H76.7457V20.8217C76.7457 20.2682 76.6016 19.8357 76.3132 19.5241C76.0249 19.2093 75.6288 19.0518 75.125 19.0518C74.7803 19.0518 74.4737 19.1264 74.2053 19.2756C73.9401 19.4247 73.7296 19.6435 73.5739 19.9318C73.4214 20.2169 73.3452 20.5616 73.3452 20.9659ZM81.7124 15.3182V25.5H80.2259V15.3182H81.7124ZM86.9288 25.6541C86.2129 25.6541 85.5881 25.4901 85.0545 25.1619C84.5209 24.8338 84.1066 24.3748 83.8116 23.7848C83.5166 23.1948 83.3691 22.5054 83.3691 21.7166C83.3691 20.9245 83.5166 20.2318 83.8116 19.6385C84.1066 19.0452 84.5209 18.5845 85.0545 18.2564C85.5881 17.9283 86.2129 17.7642 86.9288 17.7642C87.6447 17.7642 88.2695 17.9283 88.8031 18.2564C89.3367 18.5845 89.751 19.0452 90.046 19.6385C90.341 20.2318 90.4885 20.9245 90.4885 21.7166C90.4885 22.5054 90.341 23.1948 90.046 23.7848C89.751 24.3748 89.3367 24.8338 88.8031 25.1619C88.2695 25.4901 87.6447 25.6541 86.9288 25.6541ZM86.9338 24.4062C87.3978 24.4062 87.7823 24.2836 88.0872 24.0384C88.3921 23.7931 88.6175 23.4666 88.7633 23.0589C88.9125 22.6513 88.987 22.2022 88.987 21.7116C88.987 21.2244 88.9125 20.777 88.7633 20.3693C88.6175 19.9583 88.3921 19.6286 88.0872 19.38C87.7823 19.1314 87.3978 19.0071 86.9338 19.0071C86.4664 19.0071 86.0787 19.1314 85.7704 19.38C85.4655 19.6286 85.2385 19.9583 85.0893 20.3693C84.9435 20.777 84.8706 21.2244 84.8706 21.7116C84.8706 22.2022 84.9435 22.6513 85.0893 23.0589C85.2385 23.4666 85.4655 23.7931 85.7704 24.0384C86.0787 24.2836 86.4664 24.4062 86.9338 24.4062ZM94.37 25.669C93.8861 25.669 93.4486 25.5795 93.0575 25.4006C92.6664 25.2183 92.3565 24.9548 92.1278 24.6101C91.9025 24.2654 91.7898 23.8428 91.7898 23.3423C91.7898 22.9115 91.8726 22.5568 92.0384 22.2784C92.2041 22 92.4278 21.7796 92.7095 21.6172C92.9912 21.4548 93.3061 21.3321 93.6541 21.2493C94.0021 21.1664 94.3568 21.1035 94.718 21.0604C95.1754 21.0073 95.5466 20.9643 95.8317 20.9311C96.1167 20.8946 96.3239 20.8366 96.4531 20.7571C96.5824 20.6776 96.647 20.5483 96.647 20.3693V20.3345C96.647 19.9003 96.5244 19.5639 96.2791 19.3253C96.0372 19.0866 95.6759 18.9673 95.1953 18.9673C94.6948 18.9673 94.3004 19.0784 94.0121 19.3004C93.727 19.5192 93.5298 19.7628 93.4205 20.0312L92.0234 19.7131C92.1892 19.2491 92.4311 18.8745 92.7493 18.5895C93.0708 18.3011 93.4403 18.0923 93.858 17.9631C94.2756 17.8305 94.7147 17.7642 95.1754 17.7642C95.4804 17.7642 95.8035 17.8007 96.1449 17.8736C96.4896 17.9432 96.8111 18.0724 97.1094 18.2614C97.411 18.4503 97.6579 18.7204 97.8501 19.0717C98.0424 19.4197 98.1385 19.8722 98.1385 20.429V25.5H96.6868V24.456H96.6271C96.531 24.6482 96.3868 24.8371 96.1946 25.0227C96.0024 25.2083 95.7554 25.3625 95.4538 25.4851C95.1522 25.6077 94.791 25.669 94.37 25.669ZM94.6932 24.4759C95.1042 24.4759 95.4555 24.3946 95.7472 24.2322C96.0421 24.0698 96.2659 23.8577 96.4183 23.5959C96.5741 23.3307 96.652 23.0473 96.652 22.7457V21.7614C96.599 21.8144 96.4962 21.8641 96.3438 21.9105C96.1946 21.9536 96.0239 21.9917 95.8317 22.0249C95.6394 22.0547 95.4522 22.0829 95.2699 22.1094C95.0876 22.1326 94.9351 22.1525 94.8125 22.169C94.5241 22.2055 94.2607 22.2668 94.022 22.353C93.7867 22.4392 93.5978 22.5634 93.4553 22.7259C93.3161 22.8849 93.2464 23.0971 93.2464 23.3622C93.2464 23.7301 93.3823 24.0085 93.6541 24.1974C93.9259 24.383 94.2723 24.4759 94.6932 24.4759ZM102.977 25.6491C102.361 25.6491 101.81 25.4917 101.327 25.1768C100.846 24.8587 100.468 24.4062 100.193 23.8196C99.9212 23.2296 99.7853 22.522 99.7853 21.6967C99.7853 20.8714 99.9229 20.1655 100.198 19.5788C100.476 18.9922 100.858 18.5431 101.341 18.2315C101.825 17.92 102.374 17.7642 102.987 17.7642C103.461 17.7642 103.842 17.8438 104.131 18.0028C104.422 18.1586 104.648 18.3409 104.807 18.5497C104.969 18.7585 105.095 18.9425 105.184 19.1016H105.274V15.3182H106.76V25.5H105.309V24.3118H105.184C105.095 24.4742 104.966 24.6598 104.797 24.8686C104.631 25.0774 104.402 25.2597 104.111 25.4155C103.819 25.5713 103.441 25.6491 102.977 25.6491ZM103.305 24.3814C103.733 24.3814 104.094 24.2687 104.389 24.0433C104.687 23.8146 104.913 23.4981 105.065 23.0938C105.221 22.6894 105.299 22.2187 105.299 21.6818C105.299 21.1515 105.223 20.6875 105.07 20.2898C104.918 19.892 104.694 19.5821 104.399 19.3601C104.104 19.138 103.739 19.027 103.305 19.027C102.858 19.027 102.485 19.143 102.187 19.375C101.888 19.607 101.663 19.9235 101.51 20.3246C101.361 20.7256 101.287 21.178 101.287 21.6818C101.287 22.1922 101.363 22.6513 101.515 23.0589C101.668 23.4666 101.893 23.7898 102.192 24.0284C102.493 24.2637 102.864 24.3814 103.305 24.3814ZM112.706 25.5V15.3182H116.336C117.125 15.3182 117.779 15.4541 118.3 15.7259C118.823 15.9976 119.214 16.3738 119.473 16.8544C119.731 17.3317 119.861 17.8835 119.861 18.5099C119.861 19.133 119.73 19.6816 119.468 20.1555C119.209 20.6262 118.818 20.9924 118.295 21.2543C117.774 21.5161 117.12 21.647 116.331 21.647H113.581V20.3246H116.192C116.689 20.3246 117.093 20.2533 117.405 20.1108C117.72 19.9683 117.95 19.7611 118.096 19.4893C118.242 19.2176 118.314 18.8911 118.314 18.5099C118.314 18.1255 118.24 17.7924 118.091 17.5107C117.945 17.2289 117.715 17.0135 117.4 16.8643C117.088 16.7119 116.679 16.6357 116.172 16.6357H114.243V25.5H112.706ZM117.733 20.9062L120.248 25.5H118.498L116.032 20.9062H117.733ZM124.806 25.6541C124.054 25.6541 123.406 25.4934 122.862 25.1719C122.322 24.8471 121.904 24.3913 121.609 23.8047C121.318 23.2147 121.172 22.5237 121.172 21.7315C121.172 20.9493 121.318 20.2599 121.609 19.6634C121.904 19.0668 122.315 18.6011 122.842 18.2663C123.373 17.9316 123.992 17.7642 124.702 17.7642C125.133 17.7642 125.55 17.8355 125.955 17.978C126.359 18.1205 126.722 18.3442 127.043 18.6491C127.365 18.9541 127.618 19.3501 127.804 19.8374C127.99 20.3213 128.082 20.9096 128.082 21.6023V22.1293H122.012V21.0156H126.626C126.626 20.6245 126.546 20.2782 126.387 19.9766C126.228 19.6716 126.004 19.4313 125.716 19.2557C125.431 19.08 125.096 18.9922 124.712 18.9922C124.294 18.9922 123.929 19.0949 123.618 19.3004C123.31 19.5026 123.071 19.7678 122.902 20.0959C122.736 20.4207 122.653 20.7737 122.653 21.1548V22.0249C122.653 22.5353 122.743 22.9695 122.922 23.3274C123.104 23.6854 123.358 23.9588 123.683 24.1477C124.007 24.3333 124.387 24.4261 124.821 24.4261C125.103 24.4261 125.36 24.3864 125.592 24.3068C125.824 24.224 126.024 24.1013 126.193 23.9389C126.362 23.7765 126.491 23.576 126.581 23.3374L127.988 23.5909C127.875 24.0052 127.673 24.3681 127.381 24.6797C127.093 24.9879 126.73 25.2282 126.293 25.4006C125.858 25.5696 125.363 25.6541 124.806 25.6541ZM129.732 28.3636V17.8636H131.183V19.1016H131.308C131.394 18.9425 131.518 18.7585 131.681 18.5497C131.843 18.3409 132.068 18.1586 132.357 18.0028C132.645 17.8438 133.026 17.7642 133.5 17.7642C134.117 17.7642 134.667 17.92 135.151 18.2315C135.635 18.5431 136.014 18.9922 136.289 19.5788C136.568 20.1655 136.707 20.8714 136.707 21.6967C136.707 22.522 136.569 23.2296 136.294 23.8196C136.019 24.4062 135.641 24.8587 135.161 25.1768C134.68 25.4917 134.132 25.6491 133.515 25.6491C133.051 25.6491 132.672 25.5713 132.377 25.4155C132.085 25.2597 131.856 25.0774 131.691 24.8686C131.525 24.6598 131.397 24.4742 131.308 24.3118H131.218V28.3636H129.732ZM131.188 21.6818C131.188 22.2187 131.266 22.6894 131.422 23.0938C131.578 23.4981 131.803 23.8146 132.098 24.0433C132.393 24.2687 132.754 24.3814 133.182 24.3814C133.626 24.3814 133.997 24.2637 134.296 24.0284C134.594 23.7898 134.819 23.4666 134.972 23.0589C135.128 22.6513 135.205 22.1922 135.205 21.6818C135.205 21.178 135.129 20.7256 134.977 20.3246C134.828 19.9235 134.602 19.607 134.301 19.375C134.002 19.143 133.629 19.027 133.182 19.027C132.751 19.027 132.387 19.138 132.088 19.3601C131.793 19.5821 131.57 19.892 131.417 20.2898C131.265 20.6875 131.188 21.1515 131.188 21.6818ZM141.589 25.6541C140.873 25.6541 140.248 25.4901 139.715 25.1619C139.181 24.8338 138.767 24.3748 138.472 23.7848C138.177 23.1948 138.029 22.5054 138.029 21.7166C138.029 20.9245 138.177 20.2318 138.472 19.6385C138.767 19.0452 139.181 18.5845 139.715 18.2564C140.248 17.9283 140.873 17.7642 141.589 17.7642C142.305 17.7642 142.93 17.9283 143.463 18.2564C143.997 18.5845 144.411 19.0452 144.706 19.6385C145.001 20.2318 145.149 20.9245 145.149 21.7166C145.149 22.5054 145.001 23.1948 144.706 23.7848C144.411 24.3748 143.997 24.8338 143.463 25.1619C142.93 25.4901 142.305 25.6541 141.589 25.6541ZM141.594 24.4062C142.058 24.4062 142.442 24.2836 142.747 24.0384C143.052 23.7931 143.278 23.4666 143.423 23.0589C143.573 22.6513 143.647 22.2022 143.647 21.7116C143.647 21.2244 143.573 20.777 143.423 20.3693C143.278 19.9583 143.052 19.6286 142.747 19.38C142.442 19.1314 142.058 19.0071 141.594 19.0071C141.127 19.0071 140.739 19.1314 140.431 19.38C140.126 19.6286 139.899 19.9583 139.749 20.3693C139.604 20.777 139.531 21.2244 139.531 21.7116C139.531 22.2022 139.604 22.6513 139.749 23.0589C139.899 23.4666 140.126 23.7931 140.431 24.0384C140.739 24.2836 141.127 24.4062 141.594 24.4062ZM146.808 25.5V17.8636H148.245V19.0767H148.324C148.463 18.6657 148.709 18.3426 149.06 18.1072C149.415 17.8686 149.816 17.7493 150.263 17.7493C150.356 17.7493 150.465 17.7526 150.591 17.7592C150.721 17.7659 150.822 17.7741 150.895 17.7841V19.206C150.835 19.1894 150.729 19.1712 150.576 19.1513C150.424 19.1281 150.271 19.1165 150.119 19.1165C149.768 19.1165 149.454 19.1911 149.179 19.3402C148.908 19.486 148.692 19.6899 148.533 19.9517C148.374 20.2102 148.294 20.5052 148.294 20.8366V25.5H146.808ZM156.197 17.8636V19.0568H152.026V17.8636H156.197ZM153.144 16.0341H154.631V23.2578C154.631 23.5462 154.674 23.7633 154.76 23.9091C154.846 24.0516 154.957 24.1494 155.093 24.2024C155.232 24.2521 155.383 24.277 155.545 24.277C155.665 24.277 155.769 24.2687 155.859 24.2521C155.948 24.2356 156.018 24.2223 156.067 24.2124L156.336 25.4403C156.25 25.4735 156.127 25.5066 155.968 25.5398C155.809 25.5762 155.61 25.5961 155.371 25.5994C154.98 25.6061 154.616 25.5365 154.278 25.3906C153.94 25.2448 153.666 25.0194 153.457 24.7145C153.249 24.4096 153.144 24.0268 153.144 23.5661V16.0341Z" fill="#6366F1"/>
</svg>
