<svg width="218" height="74" viewBox="0 0 218 74" fill="none" xmlns="http://www.w3.org/2000/svg">
<g filter="url(#filter0_dd_183_274)">
<path d="M15 13C15 8.58172 18.5817 5 23 5H194.953C199.371 5 202.953 8.58172 202.953 13V45C202.953 49.4183 199.371 53 194.953 53H23C18.5817 53 15 49.4183 15 45V13Z" fill="#DC2626"/>
<path d="M55 39H39V19H55V39Z" stroke="#E5E7EB"/>
<g clip-path="url(#clip0_183_274)">
<path d="M49 21C48.4469 21 48 21.4469 48 22C48 22.5531 48.4469 23 49 23H51.5844L45.2937 29.2937C44.9031 29.6844 44.9031 30.3188 45.2937 30.7094C45.6844 31.1 46.3187 31.1 46.7094 30.7094L53 24.4156V27C53 27.5531 53.4469 28 54 28C54.5531 28 55 27.5531 55 27V22C55 21.4469 54.5531 21 54 21H49ZM41.5 22C40.1187 22 39 23.1188 39 24.5V34.5C39 35.8813 40.1187 37 41.5 37H51.5C52.8813 37 54 35.8813 54 34.5V31C54 30.4469 53.5531 30 53 30C52.4469 30 52 30.4469 52 31V34.5C52 34.775 51.775 35 51.5 35H41.5C41.225 35 41 34.775 41 34.5V24.5C41 24.225 41.225 24 41.5 24H45C45.5531 24 46 23.5531 46 23C46 22.4469 45.5531 22 45 22H41.5Z" fill="white"/>
</g>
<path d="M66.5987 34V22.3636H73.8942V23.875H68.3544V27.4205H73.5135V28.9261H68.3544V32.4886H73.9624V34H66.5987ZM82.6428 27.4034L81.103 27.6761C81.0386 27.4792 80.9363 27.2917 80.7962 27.1136C80.6598 26.9356 80.4742 26.7898 80.2393 26.6761C80.0045 26.5625 79.7109 26.5057 79.3587 26.5057C78.8776 26.5057 78.4761 26.6136 78.1541 26.8295C77.8321 27.0417 77.6712 27.3163 77.6712 27.6534C77.6712 27.9451 77.7791 28.1799 77.995 28.358C78.2109 28.536 78.5594 28.6818 79.0405 28.7955L80.4268 29.1136C81.2299 29.2992 81.8284 29.5852 82.2223 29.9716C82.6162 30.358 82.8132 30.8598 82.8132 31.4773C82.8132 32 82.6617 32.4659 82.3587 32.875C82.0594 33.2803 81.6409 33.5985 81.103 33.8295C80.5689 34.0606 79.9496 34.1761 79.245 34.1761C78.2678 34.1761 77.4704 33.9678 76.853 33.5511C76.2356 33.1307 75.8568 32.5341 75.7166 31.7614L77.3587 31.5114C77.4609 31.9394 77.6712 32.2633 77.9893 32.483C78.3075 32.6989 78.7223 32.8068 79.2337 32.8068C79.7905 32.8068 80.2356 32.6913 80.5689 32.4602C80.9022 32.2254 81.0689 31.9394 81.0689 31.6023C81.0689 31.3295 80.9666 31.1004 80.7621 30.9148C80.5613 30.7292 80.2526 30.589 79.8359 30.4943L78.3587 30.1705C77.5443 29.9848 76.942 29.6894 76.5518 29.2841C76.1655 28.8788 75.9723 28.3655 75.9723 27.7443C75.9723 27.2292 76.1162 26.7784 76.4041 26.392C76.692 26.0057 77.0897 25.7045 77.5973 25.4886C78.1049 25.2689 78.6863 25.1591 79.3416 25.1591C80.2848 25.1591 81.0272 25.3636 81.5689 25.7727C82.1106 26.178 82.4685 26.7216 82.6428 27.4034ZM88.3572 34.1761C87.5125 34.1761 86.7853 33.9848 86.1754 33.6023C85.5694 33.2159 85.1035 32.6837 84.7777 32.0057C84.4519 31.3277 84.2891 30.5511 84.2891 29.6761C84.2891 28.7898 84.4557 28.0076 84.7891 27.3295C85.1224 26.6477 85.5921 26.1155 86.1982 25.733C86.8042 25.3504 87.5182 25.1591 88.3402 25.1591C89.0031 25.1591 89.594 25.2822 90.1129 25.5284C90.6319 25.7708 91.0504 26.1117 91.3686 26.5511C91.6906 26.9905 91.8819 27.5038 91.9425 28.0909H90.2891C90.1982 27.6818 89.9898 27.3295 89.6641 27.0341C89.3421 26.7386 88.9103 26.5909 88.3686 26.5909C87.8951 26.5909 87.4804 26.7159 87.1243 26.9659C86.772 27.2121 86.4974 27.5644 86.3004 28.0227C86.1035 28.4773 86.005 29.0152 86.005 29.6364C86.005 30.2727 86.1016 30.822 86.2947 31.2841C86.4879 31.7462 86.7607 32.1042 87.1129 32.358C87.469 32.6117 87.8875 32.7386 88.3686 32.7386C88.6906 32.7386 88.9822 32.6799 89.2436 32.5625C89.5088 32.4413 89.7304 32.2689 89.9084 32.0455C90.0902 31.822 90.2171 31.553 90.2891 31.2386H91.9425C91.8819 31.803 91.6982 32.3068 91.3913 32.75C91.0845 33.1932 90.6735 33.5417 90.1584 33.7955C89.647 34.0492 89.0466 34.1761 88.3572 34.1761ZM96.299 34.1932C95.746 34.1932 95.246 34.0909 94.799 33.8864C94.352 33.678 93.9979 33.3769 93.7365 32.983C93.4789 32.589 93.3501 32.1061 93.3501 31.5341C93.3501 31.0417 93.4448 30.6364 93.6342 30.3182C93.8236 30 94.0793 29.7481 94.4013 29.5625C94.7232 29.3769 95.0831 29.2367 95.4808 29.142C95.8786 29.0473 96.2839 28.9754 96.6967 28.9261C97.2195 28.8655 97.6437 28.8163 97.9695 28.7784C98.2952 28.7367 98.532 28.6705 98.6797 28.5795C98.8274 28.4886 98.9013 28.3409 98.9013 28.1364V28.0966C98.9013 27.6004 98.7611 27.2159 98.4808 26.9432C98.2043 26.6705 97.7914 26.5341 97.2422 26.5341C96.6702 26.5341 96.2195 26.661 95.8899 26.9148C95.5642 27.1648 95.3388 27.4432 95.2138 27.75L93.6172 27.3864C93.8066 26.8561 94.0831 26.428 94.4467 26.1023C94.8142 25.7727 95.2365 25.5341 95.7138 25.3864C96.1911 25.2348 96.6929 25.1591 97.2195 25.1591C97.5679 25.1591 97.9373 25.2008 98.3274 25.2841C98.7214 25.3636 99.0888 25.5114 99.4297 25.7273C99.7744 25.9432 100.057 26.2519 100.276 26.6534C100.496 27.0511 100.606 27.5682 100.606 28.2045V34H98.9467V32.8068H98.8786C98.7687 33.0265 98.6039 33.2424 98.3842 33.4545C98.1645 33.6667 97.8823 33.8428 97.5376 33.983C97.1929 34.1231 96.7801 34.1932 96.299 34.1932ZM96.6683 32.8295C97.138 32.8295 97.5395 32.7367 97.8729 32.5511C98.21 32.3655 98.4657 32.1231 98.6399 31.8239C98.8179 31.5208 98.907 31.197 98.907 30.8523V29.7273C98.8464 29.7879 98.7289 29.8447 98.5547 29.8977C98.3842 29.947 98.1892 29.9905 97.9695 30.0284C97.7498 30.0625 97.5357 30.0947 97.3274 30.125C97.1191 30.1515 96.9448 30.1742 96.8047 30.1932C96.4751 30.2348 96.174 30.3049 95.9013 30.4034C95.6323 30.5019 95.4164 30.6439 95.2536 30.8295C95.0945 31.0114 95.0149 31.2538 95.0149 31.5568C95.0149 31.9773 95.1702 32.2955 95.4808 32.5114C95.7914 32.7235 96.1873 32.8295 96.6683 32.8295ZM104.567 22.3636V34H102.869V22.3636H104.567ZM109.393 34.1932C108.84 34.1932 108.34 34.0909 107.893 33.8864C107.446 33.678 107.092 33.3769 106.83 32.983C106.573 32.589 106.444 32.1061 106.444 31.5341C106.444 31.0417 106.539 30.6364 106.728 30.3182C106.917 30 107.173 29.7481 107.495 29.5625C107.817 29.3769 108.177 29.2367 108.575 29.142C108.972 29.0473 109.378 28.9754 109.79 28.9261C110.313 28.8655 110.737 28.8163 111.063 28.7784C111.389 28.7367 111.626 28.6705 111.773 28.5795C111.921 28.4886 111.995 28.3409 111.995 28.1364V28.0966C111.995 27.6004 111.855 27.2159 111.575 26.9432C111.298 26.6705 110.885 26.5341 110.336 26.5341C109.764 26.5341 109.313 26.661 108.984 26.9148C108.658 27.1648 108.433 27.4432 108.308 27.75L106.711 27.3864C106.9 26.8561 107.177 26.428 107.54 26.1023C107.908 25.7727 108.33 25.5341 108.808 25.3864C109.285 25.2348 109.787 25.1591 110.313 25.1591C110.662 25.1591 111.031 25.2008 111.421 25.2841C111.815 25.3636 112.183 25.5114 112.523 25.7273C112.868 25.9432 113.15 26.2519 113.37 26.6534C113.59 27.0511 113.7 27.5682 113.7 28.2045V34H112.04V32.8068H111.972C111.862 33.0265 111.698 33.2424 111.478 33.4545C111.258 33.6667 110.976 33.8428 110.631 33.983C110.287 34.1231 109.874 34.1932 109.393 34.1932ZM109.762 32.8295C110.232 32.8295 110.633 32.7367 110.967 32.5511C111.304 32.3655 111.559 32.1231 111.734 31.8239C111.912 31.5208 112.001 31.197 112.001 30.8523V29.7273C111.94 29.7879 111.823 29.8447 111.648 29.8977C111.478 29.947 111.283 29.9905 111.063 30.0284C110.844 30.0625 110.629 30.0947 110.421 30.125C110.213 30.1515 110.039 30.1742 109.898 30.1932C109.569 30.2348 109.268 30.3049 108.995 30.4034C108.726 30.5019 108.51 30.6439 108.347 30.8295C108.188 31.0114 108.109 31.2538 108.109 31.5568C108.109 31.9773 108.264 32.2955 108.575 32.5114C108.885 32.7235 109.281 32.8295 109.762 32.8295ZM120.036 25.2727V26.6364H115.269V25.2727H120.036ZM116.548 23.1818H118.246V31.4375C118.246 31.767 118.296 32.0152 118.394 32.1818C118.493 32.3447 118.62 32.4564 118.775 32.517C118.934 32.5739 119.106 32.6023 119.292 32.6023C119.428 32.6023 119.548 32.5928 119.65 32.5739C119.752 32.5549 119.832 32.5398 119.888 32.5284L120.195 33.9318C120.097 33.9697 119.957 34.0076 119.775 34.0455C119.593 34.0871 119.366 34.1098 119.093 34.1136C118.646 34.1212 118.229 34.0417 117.843 33.875C117.457 33.7083 117.144 33.4508 116.906 33.1023C116.667 32.7538 116.548 32.3163 116.548 31.7898V23.1818ZM125.583 34.1761C124.723 34.1761 123.983 33.9924 123.362 33.625C122.744 33.2538 122.267 32.733 121.93 32.0625C121.596 31.3883 121.43 30.5985 121.43 29.6932C121.43 28.7992 121.596 28.0114 121.93 27.3295C122.267 26.6477 122.737 26.1155 123.339 25.733C123.945 25.3504 124.653 25.1591 125.464 25.1591C125.956 25.1591 126.433 25.2405 126.896 25.4034C127.358 25.5663 127.772 25.822 128.14 26.1705C128.507 26.5189 128.797 26.9716 129.009 27.5284C129.221 28.0814 129.327 28.7538 129.327 29.5455V30.1477H122.39V28.875H127.663C127.663 28.428 127.572 28.0322 127.39 27.6875C127.208 27.339 126.952 27.0644 126.623 26.8636C126.297 26.6629 125.915 26.5625 125.475 26.5625C124.998 26.5625 124.581 26.6799 124.225 26.9148C123.873 27.1458 123.6 27.4489 123.407 27.8239C123.218 28.1951 123.123 28.5985 123.123 29.0341V30.0284C123.123 30.6117 123.225 31.108 123.43 31.517C123.638 31.9261 123.928 32.2386 124.299 32.4545C124.67 32.6667 125.104 32.7727 125.6 32.7727C125.922 32.7727 126.216 32.7273 126.481 32.6364C126.746 32.5417 126.975 32.4015 127.168 32.2159C127.362 32.0303 127.509 31.8011 127.612 31.5284L129.219 31.8182C129.091 32.2917 128.86 32.7064 128.526 33.0625C128.197 33.4148 127.782 33.6894 127.282 33.8864C126.786 34.0795 126.219 34.1761 125.583 34.1761ZM135.009 23.875V22.3636H144.015V23.875H140.384V34H138.634V23.875H135.009ZM145.869 34V25.2727H147.567V34H145.869ZM146.727 23.9261C146.431 23.9261 146.177 23.8277 145.965 23.6307C145.757 23.4299 145.653 23.1913 145.653 22.9148C145.653 22.6345 145.757 22.3958 145.965 22.1989C146.177 21.9981 146.431 21.8977 146.727 21.8977C147.022 21.8977 147.274 21.9981 147.482 22.1989C147.694 22.3958 147.8 22.6345 147.8 22.9148C147.8 23.1913 147.694 23.4299 147.482 23.6307C147.274 23.8277 147.022 23.9261 146.727 23.9261ZM153.529 34.1761C152.684 34.1761 151.957 33.9848 151.347 33.6023C150.741 33.2159 150.275 32.6837 149.95 32.0057C149.624 31.3277 149.461 30.5511 149.461 29.6761C149.461 28.7898 149.628 28.0076 149.961 27.3295C150.294 26.6477 150.764 26.1155 151.37 25.733C151.976 25.3504 152.69 25.1591 153.512 25.1591C154.175 25.1591 154.766 25.2822 155.285 25.5284C155.804 25.7708 156.222 26.1117 156.54 26.5511C156.862 26.9905 157.054 27.5038 157.114 28.0909H155.461C155.37 27.6818 155.162 27.3295 154.836 27.0341C154.514 26.7386 154.082 26.5909 153.54 26.5909C153.067 26.5909 152.652 26.7159 152.296 26.9659C151.944 27.2121 151.669 27.5644 151.472 28.0227C151.275 28.4773 151.177 29.0152 151.177 29.6364C151.177 30.2727 151.273 30.822 151.467 31.2841C151.66 31.7462 151.933 32.1042 152.285 32.358C152.641 32.6117 153.059 32.7386 153.54 32.7386C153.862 32.7386 154.154 32.6799 154.415 32.5625C154.681 32.4413 154.902 32.2689 155.08 32.0455C155.262 31.822 155.389 31.553 155.461 31.2386H157.114C157.054 31.803 156.87 32.3068 156.563 32.75C156.256 33.1932 155.845 33.5417 155.33 33.7955C154.819 34.0492 154.219 34.1761 153.529 34.1761ZM160.494 31.0398L160.482 28.9659H160.778L164.255 25.2727H166.289L162.323 29.4773H162.056L160.494 31.0398ZM158.931 34V22.3636H160.63V34H158.931ZM164.442 34L161.317 29.8523L162.488 28.6648L166.528 34H164.442ZM171.239 34.1761C170.379 34.1761 169.639 33.9924 169.018 33.625C168.4 33.2538 167.923 32.733 167.586 32.0625C167.253 31.3883 167.086 30.5985 167.086 29.6932C167.086 28.7992 167.253 28.0114 167.586 27.3295C167.923 26.6477 168.393 26.1155 168.995 25.733C169.601 25.3504 170.309 25.1591 171.12 25.1591C171.612 25.1591 172.09 25.2405 172.552 25.4034C173.014 25.5663 173.429 25.822 173.796 26.1705C174.164 26.5189 174.453 26.9716 174.665 27.5284C174.878 28.0814 174.984 28.7538 174.984 29.5455V30.1477H168.046V28.875H173.319C173.319 28.428 173.228 28.0322 173.046 27.6875C172.864 27.339 172.609 27.0644 172.279 26.8636C171.953 26.6629 171.571 26.5625 171.131 26.5625C170.654 26.5625 170.237 26.6799 169.881 26.9148C169.529 27.1458 169.256 27.4489 169.063 27.8239C168.874 28.1951 168.779 28.5985 168.779 29.0341V30.0284C168.779 30.6117 168.881 31.108 169.086 31.517C169.294 31.9261 169.584 32.2386 169.955 32.4545C170.326 32.6667 170.76 32.7727 171.256 32.7727C171.578 32.7727 171.872 32.7273 172.137 32.6364C172.402 32.5417 172.631 32.4015 172.825 32.2159C173.018 32.0303 173.165 31.8011 173.268 31.5284L174.876 31.8182C174.747 32.2917 174.516 32.7064 174.183 33.0625C173.853 33.4148 173.438 33.6894 172.938 33.8864C172.442 34.0795 171.876 34.1761 171.239 34.1761ZM180.942 25.2727V26.6364H176.175V25.2727H180.942ZM177.454 23.1818H179.153V31.4375C179.153 31.767 179.202 32.0152 179.3 32.1818C179.399 32.3447 179.526 32.4564 179.681 32.517C179.84 32.5739 180.013 32.6023 180.198 32.6023C180.335 32.6023 180.454 32.5928 180.556 32.5739C180.658 32.5549 180.738 32.5398 180.795 32.5284L181.102 33.9318C181.003 33.9697 180.863 34.0076 180.681 34.0455C180.499 34.0871 180.272 34.1098 179.999 34.1136C179.552 34.1212 179.136 34.0417 178.749 33.875C178.363 33.7083 178.05 33.4508 177.812 33.1023C177.573 32.7538 177.454 32.3163 177.454 31.7898V23.1818Z" fill="white"/>
</g>
<defs>
<filter id="filter0_dd_183_274" x="0" y="0" width="217.953" height="78" filterUnits="userSpaceOnUse" color-interpolation-filters="sRGB">
<feFlood flood-opacity="0" result="BackgroundImageFix"/>
<feColorMatrix in="SourceAlpha" type="matrix" values="0 0 0 0 0 0 0 0 0 0 0 0 0 0 0 0 0 0 127 0" result="hardAlpha"/>
<feOffset dy="10"/>
<feGaussianBlur stdDeviation="7.5"/>
<feColorMatrix type="matrix" values="0 0 0 0 0.862745 0 0 0 0 0.14902 0 0 0 0 0.14902 0 0 0 0.2 0"/>
<feBlend mode="normal" in2="BackgroundImageFix" result="effect1_dropShadow_183_274"/>
<feColorMatrix in="SourceAlpha" type="matrix" values="0 0 0 0 0 0 0 0 0 0 0 0 0 0 0 0 0 0 127 0" result="hardAlpha"/>
<feOffset dy="4"/>
<feGaussianBlur stdDeviation="3"/>
<feColorMatrix type="matrix" values="0 0 0 0 0.862745 0 0 0 0 0.14902 0 0 0 0 0.14902 0 0 0 0.2 0"/>
<feBlend mode="normal" in2="effect1_dropShadow_183_274" result="effect2_dropShadow_183_274"/>
<feBlend mode="normal" in="SourceGraphic" in2="effect2_dropShadow_183_274" result="shape"/>
</filter>
<clipPath id="clip0_183_274">
<path d="M39 21H55V37H39V21Z" fill="white"/>
</clipPath>
</defs>
</svg>
