<svg width="68" height="29" viewBox="0 0 68 29" fill="none" xmlns="http://www.w3.org/2000/svg">
<rect width="67.8" height="29" rx="6" fill="#EF4444" fill-opacity="0.12"/>
<rect x="0.5" y="0.5" width="66.8" height="28" rx="5.5" stroke="#EF4444" stroke-opacity="0.35"/>
<path d="M12.0568 19V10.2727H17.2898V11.2102H13.1136V14.1591H16.8977V15.0966H13.1136V19H12.0568ZM19.9691 10.2727V19H18.9634V10.2727H19.9691ZM23.7372 19.1534C23.3224 19.1534 22.946 19.0753 22.608 18.919C22.2699 18.7599 22.0014 18.5312 21.8026 18.233C21.6037 17.9318 21.5043 17.5682 21.5043 17.142C21.5043 16.767 21.5781 16.4631 21.7259 16.2301C21.8736 15.9943 22.071 15.8097 22.3182 15.6761C22.5653 15.5426 22.8381 15.4432 23.1364 15.3778C23.4375 15.3097 23.7401 15.2557 24.044 15.2159C24.4418 15.1648 24.7642 15.1264 25.0114 15.1009C25.2614 15.0724 25.4432 15.0256 25.5568 14.9602C25.6733 14.8949 25.7315 14.7812 25.7315 14.6193V14.5852C25.7315 14.1648 25.6165 13.8381 25.3864 13.6051C25.1591 13.3722 24.8139 13.2557 24.3509 13.2557C23.8707 13.2557 23.4943 13.3608 23.2216 13.571C22.9489 13.7812 22.7571 14.0057 22.6463 14.2443L21.6918 13.9034C21.8622 13.5057 22.0895 13.196 22.3736 12.9744C22.6605 12.75 22.973 12.5937 23.3111 12.5057C23.652 12.4148 23.9872 12.3693 24.3168 12.3693C24.527 12.3693 24.7685 12.3949 25.0412 12.446C25.3168 12.4943 25.5824 12.5952 25.8381 12.7486C26.0966 12.902 26.3111 13.1335 26.4815 13.4432C26.652 13.7528 26.7372 14.1676 26.7372 14.6875V19H25.7315V18.1136H25.6804C25.6122 18.2557 25.4986 18.4077 25.3395 18.5696C25.1804 18.7315 24.9688 18.8693 24.7045 18.983C24.4403 19.0966 24.1179 19.1534 23.7372 19.1534ZM23.8906 18.25C24.2884 18.25 24.6236 18.1719 24.8963 18.0156C25.1719 17.8594 25.3793 17.6577 25.5185 17.4105C25.6605 17.1634 25.7315 16.9034 25.7315 16.6307V15.7102C25.6889 15.7614 25.5952 15.8082 25.4503 15.8509C25.3082 15.8906 25.1435 15.9261 24.956 15.9574C24.7713 15.9858 24.5909 16.0114 24.4148 16.0341C24.2415 16.054 24.1009 16.071 23.9929 16.0852C23.7315 16.1193 23.4872 16.1747 23.2599 16.2514C23.0355 16.3253 22.8537 16.4375 22.7145 16.5881C22.5781 16.7358 22.5099 16.9375 22.5099 17.1932C22.5099 17.5426 22.6392 17.8068 22.8977 17.9858C23.1591 18.1619 23.4901 18.25 23.8906 18.25ZM31.2148 21.5909C30.729 21.5909 30.3114 21.5284 29.962 21.4034C29.6126 21.2812 29.3214 21.1193 29.0884 20.9176C28.8583 20.7188 28.6751 20.5057 28.5387 20.2784L29.3398 19.7159C29.4308 19.8352 29.5458 19.9716 29.685 20.125C29.8242 20.2812 30.0146 20.4162 30.256 20.5298C30.5004 20.6463 30.82 20.7045 31.2148 20.7045C31.7433 20.7045 32.1793 20.5767 32.5231 20.321C32.8668 20.0653 33.0387 19.6648 33.0387 19.1193V17.7898H32.9535C32.8796 17.9091 32.7745 18.0568 32.6381 18.233C32.5046 18.4062 32.3114 18.5611 32.0586 18.6974C31.8086 18.831 31.4705 18.8977 31.0444 18.8977C30.516 18.8977 30.0415 18.7727 29.6211 18.5227C29.2035 18.2727 28.8725 17.9091 28.6282 17.4318C28.3867 16.9545 28.266 16.375 28.266 15.6932C28.266 15.0227 28.3839 14.4389 28.6197 13.9418C28.8555 13.4418 29.1836 13.0554 29.604 12.7827C30.0245 12.5071 30.5103 12.3693 31.0614 12.3693C31.4876 12.3693 31.8256 12.4403 32.0756 12.5824C32.3285 12.7216 32.5217 12.8807 32.6552 13.0597C32.7915 13.2358 32.8967 13.3807 32.9705 13.4943H33.0728V12.4545H34.0444V19.1875C34.0444 19.75 33.9165 20.2074 33.6609 20.5597C33.408 20.9148 33.0671 21.1747 32.6381 21.3395C32.212 21.5071 31.7376 21.5909 31.2148 21.5909ZM31.1808 17.9943C31.5842 17.9943 31.9251 17.902 32.2035 17.7173C32.4819 17.5327 32.6935 17.267 32.8384 16.9205C32.9833 16.5739 33.0558 16.1591 33.0558 15.6761C33.0558 15.2045 32.9847 14.7884 32.8427 14.4276C32.7006 14.0668 32.4904 13.7841 32.212 13.5795C31.9336 13.375 31.5898 13.2727 31.1808 13.2727C30.7546 13.2727 30.3995 13.3807 30.1154 13.5966C29.8342 13.8125 29.6225 14.1023 29.4805 14.4659C29.3413 14.8295 29.2717 15.233 29.2717 15.6761C29.2717 16.1307 29.3427 16.5327 29.4847 16.8821C29.6296 17.2287 29.8427 17.5014 30.1239 17.7003C30.408 17.8963 30.7603 17.9943 31.1808 17.9943ZM38.5273 21.5909C38.0415 21.5909 37.6239 21.5284 37.2745 21.4034C36.9251 21.2812 36.6339 21.1193 36.4009 20.9176C36.1708 20.7188 35.9876 20.5057 35.8512 20.2784L36.6523 19.7159C36.7433 19.8352 36.8583 19.9716 36.9975 20.125C37.1367 20.2812 37.3271 20.4162 37.5685 20.5298C37.8129 20.6463 38.1325 20.7045 38.5273 20.7045C39.0558 20.7045 39.4918 20.5767 39.8356 20.321C40.1793 20.0653 40.3512 19.6648 40.3512 19.1193V17.7898H40.266C40.1921 17.9091 40.087 18.0568 39.9506 18.233C39.8171 18.4062 39.6239 18.5611 39.3711 18.6974C39.1211 18.831 38.783 18.8977 38.3569 18.8977C37.8285 18.8977 37.354 18.7727 36.9336 18.5227C36.516 18.2727 36.185 17.9091 35.9407 17.4318C35.6992 16.9545 35.5785 16.375 35.5785 15.6932C35.5785 15.0227 35.6964 14.4389 35.9322 13.9418C36.168 13.4418 36.4961 13.0554 36.9165 12.7827C37.337 12.5071 37.8228 12.3693 38.3739 12.3693C38.8001 12.3693 39.1381 12.4403 39.3881 12.5824C39.641 12.7216 39.8342 12.8807 39.9677 13.0597C40.104 13.2358 40.2092 13.3807 40.283 13.4943H40.3853V12.4545H41.3569V19.1875C41.3569 19.75 41.229 20.2074 40.9734 20.5597C40.7205 20.9148 40.3796 21.1747 39.9506 21.3395C39.5245 21.5071 39.0501 21.5909 38.5273 21.5909ZM38.4933 17.9943C38.8967 17.9943 39.2376 17.902 39.516 17.7173C39.7944 17.5327 40.006 17.267 40.1509 16.9205C40.2958 16.5739 40.3683 16.1591 40.3683 15.6761C40.3683 15.2045 40.2972 14.7884 40.1552 14.4276C40.0131 14.0668 39.8029 13.7841 39.5245 13.5795C39.2461 13.375 38.9023 13.2727 38.4933 13.2727C38.0671 13.2727 37.712 13.3807 37.4279 13.5966C37.1467 13.8125 36.935 14.1023 36.793 14.4659C36.6538 14.8295 36.5842 15.233 36.5842 15.6761C36.5842 16.1307 36.6552 16.5327 36.7972 16.8821C36.9421 17.2287 37.1552 17.5014 37.4364 17.7003C37.7205 17.8963 38.0728 17.9943 38.4933 17.9943ZM45.9421 19.1364C45.3114 19.1364 44.7674 18.9972 44.31 18.7188C43.8555 18.4375 43.5046 18.0455 43.2575 17.5426C43.0131 17.0369 42.891 16.4489 42.891 15.7784C42.891 15.108 43.0131 14.517 43.2575 14.0057C43.5046 13.4915 43.8484 13.0909 44.2887 12.804C44.7319 12.5142 45.2489 12.3693 45.8398 12.3693C46.1808 12.3693 46.5174 12.4261 46.8498 12.5398C47.1822 12.6534 47.4847 12.8381 47.7575 13.0938C48.0302 13.3466 48.2475 13.6818 48.4094 14.0994C48.5714 14.517 48.6523 15.0312 48.6523 15.642V16.0682H43.6069V15.1989H47.6296C47.6296 14.8295 47.5558 14.5 47.408 14.2102C47.2631 13.9205 47.0558 13.6918 46.7859 13.5241C46.5188 13.3565 46.2035 13.2727 45.8398 13.2727C45.4393 13.2727 45.0927 13.3722 44.8001 13.571C44.5103 13.767 44.2873 14.0227 44.131 14.3381C43.9748 14.6534 43.8967 14.9915 43.8967 15.3523V15.9318C43.8967 16.4261 43.9819 16.8452 44.1523 17.1889C44.3256 17.5298 44.5657 17.7898 44.8725 17.9688C45.1793 18.1449 45.5359 18.233 45.9421 18.233C46.2063 18.233 46.445 18.196 46.658 18.1222C46.8739 18.0455 47.06 17.9318 47.2163 17.7812C47.3725 17.6278 47.4933 17.4375 47.5785 17.2102L48.5501 17.483C48.4478 17.8125 48.2759 18.1023 48.0344 18.3523C47.793 18.5994 47.4947 18.7926 47.1396 18.9318C46.7844 19.0682 46.3853 19.1364 45.9421 19.1364ZM52.6538 19.1364C52.1083 19.1364 51.6268 18.9986 51.2092 18.723C50.7915 18.4446 50.4648 18.0526 50.229 17.5469C49.9933 17.0384 49.8754 16.4375 49.8754 15.7443C49.8754 15.0568 49.9933 14.4602 50.229 13.9545C50.4648 13.4489 50.793 13.0582 51.2134 12.7827C51.6339 12.5071 52.1197 12.3693 52.6708 12.3693C53.0969 12.3693 53.4336 12.4403 53.6808 12.5824C53.9308 12.7216 54.1211 12.8807 54.2518 13.0597C54.3853 13.2358 54.489 13.3807 54.5629 13.4943H54.6481V10.2727H55.6538V19H54.6822V17.9943H54.5629C54.489 18.1136 54.3839 18.2642 54.2475 18.446C54.1112 18.625 53.9165 18.7855 53.6637 18.9276C53.4109 19.0668 53.0742 19.1364 52.6538 19.1364ZM52.7901 18.233C53.1935 18.233 53.5344 18.1278 53.8129 17.9176C54.0913 17.7045 54.3029 17.4105 54.4478 17.0355C54.5927 16.6577 54.6651 16.2216 54.6651 15.7273C54.6651 15.2386 54.5941 14.8111 54.4521 14.4446C54.31 14.0753 54.0998 13.7884 53.8214 13.5838C53.543 13.3764 53.1992 13.2727 52.7901 13.2727C52.364 13.2727 52.0089 13.3821 51.7248 13.6009C51.4435 13.8168 51.2319 14.1108 51.0898 14.483C50.9506 14.8523 50.881 15.267 50.881 15.7273C50.881 16.1932 50.9521 16.6165 51.0941 16.9972C51.239 17.375 51.4521 17.6761 51.7333 17.9006C52.0174 18.1222 52.3697 18.233 52.7901 18.233Z" fill="#EF4444"/>
</svg>
