<svg width="56" height="28" viewBox="0 0 56 28" fill="none" xmlns="http://www.w3.org/2000/svg">
<path d="M56 28H0V0H56V28Z" stroke="#E5E7EB"/>
<path d="M42 0C49.732 0 56 6.26801 56 14C56 21.732 49.732 28 42 28H14C6.26801 28 0 21.732 0 14C0 6.26801 6.26801 0 14 0H42Z" fill="#10B981"/>
<path d="M42 0C49.732 0 56 6.26801 56 14C56 21.732 49.732 28 42 28H14C6.26801 28 0 21.732 0 14C0 6.26801 6.26801 0 14 0H42Z" stroke="#E5E7EB"/>
<path d="M40 2.5C46.3513 2.5 51.5 7.64873 51.5 14C51.5 20.3513 46.3513 25.5 40 25.5C33.6487 25.5 28.5 20.3513 28.5 14C28.5 7.64873 33.6487 2.5 40 2.5Z" fill="white"/>
<path d="M40 2.5C46.3513 2.5 51.5 7.64873 51.5 14C51.5 20.3513 46.3513 25.5 40 25.5C33.6487 25.5 28.5 20.3513 28.5 14C28.5 7.64873 33.6487 2.5 40 2.5Z" stroke="white"/>
</svg>
