<svg width="168" height="43" viewBox="0 0 168 43" fill="none" xmlns="http://www.w3.org/2000/svg">
<rect x="0.5" y="0.5" width="166.7" height="42" rx="11.5" fill="#F8FAFC"/>
<rect x="0.5" y="0.5" width="166.7" height="42" rx="11.5" stroke="#6366F1"/>
<path d="M42.1186 15.3182H43.983L47.2244 23.233H47.3438L50.5852 15.3182H52.4496V25.5H50.9879V18.1321H50.8935L47.8906 25.4851H46.6776L43.6747 18.1271H43.5803V25.5H42.1186V15.3182ZM56.786 25.669C56.3021 25.669 55.8646 25.5795 55.4735 25.4006C55.0824 25.2183 54.7725 24.9548 54.5439 24.6101C54.3185 24.2654 54.2058 23.8428 54.2058 23.3423C54.2058 22.9115 54.2886 22.5568 54.4544 22.2784C54.6201 22 54.8438 21.7796 55.1255 21.6172C55.4073 21.4548 55.7221 21.3321 56.0701 21.2493C56.4181 21.1664 56.7728 21.1035 57.1341 21.0604C57.5914 21.0073 57.9627 20.9643 58.2477 20.9311C58.5327 20.8946 58.7399 20.8366 58.8691 20.7571C58.9984 20.6776 59.063 20.5483 59.063 20.3693V20.3345C59.063 19.9003 58.9404 19.5639 58.6951 19.3253C58.4532 19.0866 58.0919 18.9673 57.6113 18.9673C57.1109 18.9673 56.7164 19.0784 56.4281 19.3004C56.1431 19.5192 55.9458 19.7628 55.8365 20.0312L54.4395 19.7131C54.6052 19.2491 54.8471 18.8745 55.1653 18.5895C55.4868 18.3011 55.8564 18.0923 56.274 17.9631C56.6916 17.8305 57.1307 17.7642 57.5914 17.7642C57.8964 17.7642 58.2195 17.8007 58.5609 17.8736C58.9056 17.9432 59.2271 18.0724 59.5254 18.2614C59.827 18.4503 60.0739 18.7204 60.2662 19.0717C60.4584 19.4197 60.5545 19.8722 60.5545 20.429V25.5H59.1028V24.456H59.0431C58.947 24.6482 58.8029 24.8371 58.6106 25.0227C58.4184 25.2083 58.1715 25.3625 57.8699 25.4851C57.5682 25.6077 57.207 25.669 56.786 25.669ZM57.1092 24.4759C57.5202 24.4759 57.8715 24.3946 58.1632 24.2322C58.4582 24.0698 58.6819 23.8577 58.8343 23.5959C58.9901 23.3307 59.068 23.0473 59.068 22.7457V21.7614C59.015 21.8144 58.9122 21.8641 58.7598 21.9105C58.6106 21.9536 58.4399 21.9917 58.2477 22.0249C58.0555 22.0547 57.8682 22.0829 57.6859 22.1094C57.5036 22.1326 57.3511 22.1525 57.2285 22.169C56.9402 22.2055 56.6767 22.2668 56.438 22.353C56.2027 22.4392 56.0138 22.5634 55.8713 22.7259C55.7321 22.8849 55.6625 23.0971 55.6625 23.3622C55.6625 23.7301 55.7984 24.0085 56.0701 24.1974C56.3419 24.383 56.6883 24.4759 57.1092 24.4759ZM62.5344 25.5V17.8636H63.9712V19.0767H64.0508C64.19 18.6657 64.4353 18.3426 64.7866 18.1072C65.1412 17.8686 65.5423 17.7493 65.9897 17.7493C66.0825 17.7493 66.1919 17.7526 66.3178 17.7592C66.4471 17.7659 66.5482 17.7741 66.6211 17.7841V19.206C66.5614 19.1894 66.4554 19.1712 66.3029 19.1513C66.1504 19.1281 65.998 19.1165 65.8455 19.1165C65.4942 19.1165 65.181 19.1911 64.9059 19.3402C64.6341 19.486 64.4187 19.6899 64.2596 19.9517C64.1005 20.2102 64.021 20.5052 64.021 20.8366V25.5H62.5344ZM69.2747 22.9098L69.2647 21.0952H69.5233L72.5659 17.8636H74.3457L70.8755 21.5426H70.6419L69.2747 22.9098ZM67.9075 25.5V15.3182H69.394V25.5H67.9075ZM72.7299 25.5L69.9956 21.8707L71.0197 20.8317L74.5545 25.5H72.7299ZM80.3849 25.5H78.7543L82.4183 15.3182H84.1932L87.8572 25.5H86.2266L83.348 17.1676H83.2685L80.3849 25.5ZM80.6584 21.5128H85.9482V22.8054H80.6584V21.5128ZM90.6948 15.3182V25.5H89.2083V15.3182H90.6948ZM94.1811 15.3182V25.5H92.6946V15.3182H94.1811ZM102.108 25.669C101.624 25.669 101.187 25.5795 100.796 25.4006C100.405 25.2183 100.095 24.9548 99.8661 24.6101C99.6407 24.2654 99.5281 23.8428 99.5281 23.3423C99.5281 22.9115 99.6109 22.5568 99.7766 22.2784C99.9424 22 100.166 21.7796 100.448 21.6172C100.73 21.4548 101.044 21.3321 101.392 21.2493C101.74 21.1664 102.095 21.1035 102.456 21.0604C102.914 21.0073 103.285 20.9643 103.57 20.9311C103.855 20.8946 104.062 20.8366 104.191 20.7571C104.321 20.6776 104.385 20.5483 104.385 20.3693V20.3345C104.385 19.9003 104.263 19.5639 104.017 19.3253C103.775 19.0866 103.414 18.9673 102.934 18.9673C102.433 18.9673 102.039 19.0784 101.75 19.3004C101.465 19.5192 101.268 19.7628 101.159 20.0312L99.7617 19.7131C99.9274 19.2491 100.169 18.8745 100.488 18.5895C100.809 18.3011 101.179 18.0923 101.596 17.9631C102.014 17.8305 102.453 17.7642 102.914 17.7642C103.219 17.7642 103.542 17.8007 103.883 17.8736C104.228 17.9432 104.549 18.0724 104.848 18.2614C105.149 18.4503 105.396 18.7204 105.588 19.0717C105.781 19.4197 105.877 19.8722 105.877 20.429V25.5H104.425V24.456H104.365C104.269 24.6482 104.125 24.8371 103.933 25.0227C103.741 25.2083 103.494 25.3625 103.192 25.4851C102.891 25.6077 102.529 25.669 102.108 25.669ZM102.431 24.4759C102.842 24.4759 103.194 24.3946 103.485 24.2322C103.78 24.0698 104.004 23.8577 104.157 23.5959C104.312 23.3307 104.39 23.0473 104.39 22.7457V21.7614C104.337 21.8144 104.234 21.8641 104.082 21.9105C103.933 21.9536 103.762 21.9917 103.57 22.0249C103.378 22.0547 103.19 22.0829 103.008 22.1094C102.826 22.1326 102.673 22.1525 102.551 22.169C102.262 22.2055 101.999 22.2668 101.76 22.353C101.525 22.4392 101.336 22.5634 101.194 22.7259C101.054 22.8849 100.985 23.0971 100.985 23.3622C100.985 23.7301 101.121 24.0085 101.392 24.1974C101.664 24.383 102.011 24.4759 102.431 24.4759ZM113.579 19.728L112.232 19.9666C112.175 19.7943 112.086 19.6302 111.963 19.4744C111.844 19.3187 111.682 19.1911 111.476 19.0916C111.271 18.9922 111.014 18.9425 110.705 18.9425C110.285 18.9425 109.933 19.0369 109.651 19.2259C109.37 19.4115 109.229 19.6518 109.229 19.9467C109.229 20.2019 109.323 20.4074 109.512 20.5632C109.701 20.719 110.006 20.8466 110.427 20.946L111.64 21.2244C112.343 21.3868 112.866 21.6371 113.211 21.9751C113.556 22.3132 113.728 22.7524 113.728 23.2926C113.728 23.75 113.596 24.1577 113.33 24.5156C113.069 24.8703 112.702 25.1487 112.232 25.3509C111.764 25.553 111.222 25.6541 110.606 25.6541C109.751 25.6541 109.053 25.4718 108.513 25.1072C107.973 24.7393 107.641 24.2173 107.519 23.5412L108.955 23.3224C109.045 23.697 109.229 23.9804 109.507 24.1726C109.786 24.3615 110.149 24.456 110.596 24.456C111.083 24.456 111.473 24.3549 111.764 24.1527C112.056 23.9472 112.202 23.697 112.202 23.402C112.202 23.1634 112.112 22.9628 111.933 22.8004C111.758 22.638 111.488 22.5154 111.123 22.4325L109.83 22.1491C109.118 21.9867 108.591 21.7282 108.249 21.3736C107.911 21.0189 107.742 20.5698 107.742 20.0263C107.742 19.5755 107.868 19.1811 108.12 18.843C108.372 18.505 108.72 18.2415 109.164 18.0526C109.608 17.8603 110.117 17.7642 110.691 17.7642C111.516 17.7642 112.165 17.9432 112.639 18.3011C113.113 18.6558 113.427 19.1314 113.579 19.728ZM119.187 25.5V15.3182H122.816C123.605 15.3182 124.26 15.4541 124.78 15.7259C125.304 15.9976 125.695 16.3738 125.953 16.8544C126.212 17.3317 126.341 17.8835 126.341 18.5099C126.341 19.133 126.21 19.6816 125.948 20.1555C125.69 20.6262 125.299 20.9924 124.775 21.2543C124.255 21.5161 123.6 21.647 122.811 21.647H120.062V20.3246H122.672C123.169 20.3246 123.574 20.2533 123.885 20.1108C124.2 19.9683 124.43 19.7611 124.576 19.4893C124.722 19.2176 124.795 18.8911 124.795 18.5099C124.795 18.1255 124.72 17.7924 124.571 17.5107C124.425 17.2289 124.195 17.0135 123.88 16.8643C123.569 16.7119 123.159 16.6357 122.652 16.6357H120.723V25.5H119.187ZM124.213 20.9062L126.729 25.5H124.979L122.513 20.9062H124.213ZM131.287 25.6541C130.534 25.6541 129.886 25.4934 129.343 25.1719C128.802 24.8471 128.385 24.3913 128.09 23.8047C127.798 23.2147 127.652 22.5237 127.652 21.7315C127.652 20.9493 127.798 20.2599 128.09 19.6634C128.385 19.0668 128.796 18.6011 129.323 18.2663C129.853 17.9316 130.473 17.7642 131.182 17.7642C131.613 17.7642 132.031 17.8355 132.435 17.978C132.839 18.1205 133.202 18.3442 133.524 18.6491C133.845 18.9541 134.099 19.3501 134.284 19.8374C134.47 20.3213 134.563 20.9096 134.563 21.6023V22.1293H128.493V21.0156H133.106C133.106 20.6245 133.027 20.2782 132.868 19.9766C132.708 19.6716 132.485 19.4313 132.196 19.2557C131.911 19.08 131.577 18.9922 131.192 18.9922C130.775 18.9922 130.41 19.0949 130.098 19.3004C129.79 19.5026 129.551 19.7678 129.382 20.0959C129.217 20.4207 129.134 20.7737 129.134 21.1548V22.0249C129.134 22.5353 129.223 22.9695 129.402 23.3274C129.585 23.6854 129.838 23.9588 130.163 24.1477C130.488 24.3333 130.867 24.4261 131.301 24.4261C131.583 24.4261 131.84 24.3864 132.072 24.3068C132.304 24.224 132.505 24.1013 132.674 23.9389C132.843 23.7765 132.972 23.576 133.061 23.3374L134.468 23.5909C134.356 24.0052 134.154 24.3681 133.862 24.6797C133.574 24.9879 133.211 25.2282 132.773 25.4006C132.339 25.5696 131.843 25.6541 131.287 25.6541ZM138.434 25.669C137.951 25.669 137.513 25.5795 137.122 25.4006C136.731 25.2183 136.421 24.9548 136.192 24.6101C135.967 24.2654 135.854 23.8428 135.854 23.3423C135.854 22.9115 135.937 22.5568 136.103 22.2784C136.269 22 136.492 21.7796 136.774 21.6172C137.056 21.4548 137.371 21.3321 137.719 21.2493C138.067 21.1664 138.421 21.1035 138.782 21.0604C139.24 21.0073 139.611 20.9643 139.896 20.9311C140.181 20.8946 140.388 20.8366 140.518 20.7571C140.647 20.6776 140.711 20.5483 140.711 20.3693V20.3345C140.711 19.9003 140.589 19.5639 140.344 19.3253C140.102 19.0866 139.74 18.9673 139.26 18.9673C138.759 18.9673 138.365 19.0784 138.077 19.3004C137.791 19.5192 137.594 19.7628 137.485 20.0312L136.088 19.7131C136.254 19.2491 136.496 18.8745 136.814 18.5895C137.135 18.3011 137.505 18.0923 137.922 17.9631C138.34 17.8305 138.779 17.7642 139.24 17.7642C139.545 17.7642 139.868 17.8007 140.209 17.8736C140.554 17.9432 140.876 18.0724 141.174 18.2614C141.475 18.4503 141.722 18.7204 141.915 19.0717C142.107 19.4197 142.203 19.8722 142.203 20.429V25.5H140.751V24.456H140.692C140.595 24.6482 140.451 24.8371 140.259 25.0227C140.067 25.2083 139.82 25.3625 139.518 25.4851C139.217 25.6077 138.855 25.669 138.434 25.669ZM138.758 24.4759C139.169 24.4759 139.52 24.3946 139.812 24.2322C140.107 24.0698 140.33 23.8577 140.483 23.5959C140.639 23.3307 140.716 23.0473 140.716 22.7457V21.7614C140.663 21.8144 140.561 21.8641 140.408 21.9105C140.259 21.9536 140.088 21.9917 139.896 22.0249C139.704 22.0547 139.517 22.0829 139.334 22.1094C139.152 22.1326 139 22.1525 138.877 22.169C138.589 22.2055 138.325 22.2668 138.086 22.353C137.851 22.4392 137.662 22.5634 137.52 22.7259C137.381 22.8849 137.311 23.0971 137.311 23.3622C137.311 23.7301 137.447 24.0085 137.719 24.1974C137.99 24.383 138.337 24.4759 138.758 24.4759ZM147.042 25.6491C146.425 25.6491 145.875 25.4917 145.391 25.1768C144.91 24.8587 144.533 24.4062 144.257 23.8196C143.986 23.2296 143.85 22.522 143.85 21.6967C143.85 20.8714 143.987 20.1655 144.262 19.5788C144.541 18.9922 144.922 18.5431 145.406 18.2315C145.89 17.92 146.438 17.7642 147.051 17.7642C147.525 17.7642 147.907 17.8438 148.195 18.0028C148.487 18.1586 148.712 18.3409 148.871 18.5497C149.033 18.7585 149.159 18.9425 149.249 19.1016H149.338V15.3182H150.825V25.5H149.373V24.3118H149.249C149.159 24.4742 149.03 24.6598 148.861 24.8686C148.695 25.0774 148.467 25.2597 148.175 25.4155C147.883 25.5713 147.506 25.6491 147.042 25.6491ZM147.37 24.3814C147.797 24.3814 148.158 24.2687 148.453 24.0433C148.752 23.8146 148.977 23.4981 149.13 23.0938C149.285 22.6894 149.363 22.2187 149.363 21.6818C149.363 21.1515 149.287 20.6875 149.135 20.2898C148.982 19.892 148.758 19.5821 148.463 19.3601C148.168 19.138 147.804 19.027 147.37 19.027C146.922 19.027 146.549 19.143 146.251 19.375C145.953 19.607 145.727 19.9235 145.575 20.3246C145.426 20.7256 145.351 21.178 145.351 21.6818C145.351 22.1922 145.427 22.6513 145.58 23.0589C145.732 23.4666 145.958 23.7898 146.256 24.0284C146.558 24.2637 146.929 24.3814 147.37 24.3814Z" fill="#6366F1"/>
<path d="M19.3105 22L21.3105 24L25.3105 20M32.3105 22C32.3105 27.5228 27.8334 32 22.3105 32C16.7877 32 12.3105 27.5228 12.3105 22C12.3105 16.4772 16.7877 12 22.3105 12C27.8334 12 32.3105 16.4772 32.3105 22Z" stroke="#6366F1" stroke-width="2" stroke-linecap="round" stroke-linejoin="round"/>
</svg>
