<svg width="69" height="29" viewBox="0 0 69 29" fill="none" xmlns="http://www.w3.org/2000/svg">
<rect width="68.39" height="29" rx="6" fill="#FACC15" fill-opacity="0.18"/>
<rect x="0.5" y="0.5" width="67.39" height="28" rx="5.5" stroke="#FACC15" stroke-opacity="0.42"/>
<path d="M12.0568 19V10.2727H15.0057C15.6903 10.2727 16.25 10.3963 16.6847 10.6435C17.1222 10.8878 17.446 11.2188 17.6562 11.6364C17.8665 12.054 17.9716 12.5199 17.9716 13.0341C17.9716 13.5483 17.8665 14.0156 17.6562 14.4361C17.4489 14.8565 17.1278 15.1918 16.6932 15.4418C16.2585 15.6889 15.7017 15.8125 15.0227 15.8125H12.9091V14.875H14.9886C15.4574 14.875 15.8338 14.794 16.1179 14.6321C16.402 14.4702 16.608 14.2514 16.7358 13.9759C16.8665 13.6974 16.9318 13.3835 16.9318 13.0341C16.9318 12.6847 16.8665 12.3722 16.7358 12.0966C16.608 11.821 16.4006 11.6051 16.1136 11.4489C15.8267 11.2898 15.446 11.2102 14.9716 11.2102H13.1136V19H12.0568ZM22.2116 19.1364C21.581 19.1364 21.0369 18.9972 20.5795 18.7188C20.125 18.4375 19.7741 18.0455 19.527 17.5426C19.2827 17.0369 19.1605 16.4489 19.1605 15.7784C19.1605 15.108 19.2827 14.517 19.527 14.0057C19.7741 13.4915 20.1179 13.0909 20.5582 12.804C21.0014 12.5142 21.5185 12.3693 22.1094 12.3693C22.4503 12.3693 22.7869 12.4261 23.1193 12.5398C23.4517 12.6534 23.7543 12.8381 24.027 13.0938C24.2997 13.3466 24.517 13.6818 24.679 14.0994C24.8409 14.517 24.9219 15.0312 24.9219 15.642V16.0682H19.8764V15.1989H23.8991C23.8991 14.8295 23.8253 14.5 23.6776 14.2102C23.5327 13.9205 23.3253 13.6918 23.0554 13.5241C22.7884 13.3565 22.473 13.2727 22.1094 13.2727C21.7088 13.2727 21.3622 13.3722 21.0696 13.571C20.7798 13.767 20.5568 14.0227 20.4006 14.3381C20.2443 14.6534 20.1662 14.9915 20.1662 15.3523V15.9318C20.1662 16.4261 20.2514 16.8452 20.4219 17.1889C20.5952 17.5298 20.8352 17.7898 21.142 17.9688C21.4489 18.1449 21.8054 18.233 22.2116 18.233C22.4759 18.233 22.7145 18.196 22.9276 18.1222C23.1435 18.0455 23.3295 17.9318 23.4858 17.7812C23.642 17.6278 23.7628 17.4375 23.848 17.2102L24.8196 17.483C24.7173 17.8125 24.5455 18.1023 24.304 18.3523C24.0625 18.5994 23.7642 18.7926 23.4091 18.9318C23.054 19.0682 22.6548 19.1364 22.2116 19.1364ZM27.4574 15.0625V19H26.4517V12.4545H27.4233V13.4773H27.5085C27.6619 13.1449 27.8949 12.8778 28.2074 12.6761C28.5199 12.4716 28.9233 12.3693 29.4176 12.3693C29.8608 12.3693 30.2486 12.4602 30.581 12.642C30.9134 12.821 31.1719 13.0938 31.3565 13.4602C31.5412 13.8239 31.6335 14.2841 31.6335 14.8409V19H30.6278V14.9091C30.6278 14.3949 30.4943 13.9943 30.2273 13.7074C29.9602 13.4176 29.5938 13.2727 29.1278 13.2727C28.8068 13.2727 28.5199 13.3423 28.267 13.4815C28.017 13.6207 27.8196 13.8239 27.6747 14.0909C27.5298 14.358 27.4574 14.6818 27.4574 15.0625ZM35.9428 19.1364C35.3974 19.1364 34.9158 18.9986 34.4982 18.723C34.0806 18.4446 33.7539 18.0526 33.5181 17.5469C33.2823 17.0384 33.1644 16.4375 33.1644 15.7443C33.1644 15.0568 33.2823 14.4602 33.5181 13.9545C33.7539 13.4489 34.082 13.0582 34.5025 12.7827C34.9229 12.5071 35.4087 12.3693 35.9599 12.3693C36.386 12.3693 36.7227 12.4403 36.9698 12.5824C37.2198 12.7216 37.4102 12.8807 37.5408 13.0597C37.6744 13.2358 37.7781 13.3807 37.8519 13.4943H37.9371V10.2727H38.9428V19H37.9712V17.9943H37.8519C37.7781 18.1136 37.6729 18.2642 37.5366 18.446C37.4002 18.625 37.2056 18.7855 36.9528 18.9276C36.6999 19.0668 36.3633 19.1364 35.9428 19.1364ZM36.0792 18.233C36.4826 18.233 36.8235 18.1278 37.1019 17.9176C37.3803 17.7045 37.592 17.4105 37.7369 17.0355C37.8817 16.6577 37.9542 16.2216 37.9542 15.7273C37.9542 15.2386 37.8832 14.8111 37.7411 14.4446C37.5991 14.0753 37.3888 13.7884 37.1104 13.5838C36.832 13.3764 36.4883 13.2727 36.0792 13.2727C35.6531 13.2727 35.2979 13.3821 35.0138 13.6009C34.7326 13.8168 34.521 14.1108 34.3789 14.483C34.2397 14.8523 34.1701 15.267 34.1701 15.7273C34.1701 16.1932 34.2411 16.6165 34.3832 16.9972C34.5281 17.375 34.7411 17.6761 35.0224 17.9006C35.3065 18.1222 35.6587 18.233 36.0792 18.233ZM40.9244 19V12.4545H41.93V19H40.9244ZM41.4357 11.3636C41.2397 11.3636 41.0707 11.2969 40.9286 11.1634C40.7894 11.0298 40.7198 10.8693 40.7198 10.6818C40.7198 10.4943 40.7894 10.3338 40.9286 10.2003C41.0707 10.0668 41.2397 10 41.4357 10C41.6317 10 41.7994 10.0668 41.9386 10.2003C42.0806 10.3338 42.1516 10.4943 42.1516 10.6818C42.1516 10.8693 42.0806 11.0298 41.9386 11.1634C41.7994 11.2969 41.6317 11.3636 41.4357 11.3636ZM44.7777 15.0625V19H43.772V12.4545H44.7436V13.4773H44.8288C44.9822 13.1449 45.2152 12.8778 45.5277 12.6761C45.8402 12.4716 46.2436 12.3693 46.7379 12.3693C47.1811 12.3693 47.5689 12.4602 47.9013 12.642C48.2337 12.821 48.4922 13.0938 48.6768 13.4602C48.8615 13.8239 48.9538 14.2841 48.9538 14.8409V19H47.9482V14.9091C47.9482 14.3949 47.8146 13.9943 47.5476 13.7074C47.2805 13.4176 46.9141 13.2727 46.4482 13.2727C46.1271 13.2727 45.8402 13.3423 45.5874 13.4815C45.3374 13.6207 45.1399 13.8239 44.995 14.0909C44.8501 14.358 44.7777 14.6818 44.7777 15.0625ZM53.4336 21.5909C52.9478 21.5909 52.5302 21.5284 52.1808 21.4034C51.8313 21.2812 51.5401 21.1193 51.3072 20.9176C51.0771 20.7188 50.8938 20.5057 50.7575 20.2784L51.5586 19.7159C51.6495 19.8352 51.7646 19.9716 51.9038 20.125C52.043 20.2812 52.2333 20.4162 52.4748 20.5298C52.7191 20.6463 53.0387 20.7045 53.4336 20.7045C53.962 20.7045 54.3981 20.5767 54.7418 20.321C55.0856 20.0653 55.2575 19.6648 55.2575 19.1193V17.7898H55.1722C55.0984 17.9091 54.9933 18.0568 54.8569 18.233C54.7234 18.4062 54.5302 18.5611 54.2773 18.6974C54.0273 18.831 53.6893 18.8977 53.2631 18.8977C52.7347 18.8977 52.2603 18.7727 51.8398 18.5227C51.4222 18.2727 51.0913 17.9091 50.8469 17.4318C50.6055 16.9545 50.4847 16.375 50.4847 15.6932C50.4847 15.0227 50.6026 14.4389 50.8384 13.9418C51.0742 13.4418 51.4023 13.0554 51.8228 12.7827C52.2433 12.5071 52.729 12.3693 53.2802 12.3693C53.7063 12.3693 54.0444 12.4403 54.2944 12.5824C54.5472 12.7216 54.7404 12.8807 54.8739 13.0597C55.0103 13.2358 55.1154 13.3807 55.1893 13.4943H55.2915V12.4545H56.2631V19.1875C56.2631 19.75 56.1353 20.2074 55.8796 20.5597C55.6268 20.9148 55.2859 21.1747 54.8569 21.3395C54.4308 21.5071 53.9563 21.5909 53.4336 21.5909ZM53.3995 17.9943C53.8029 17.9943 54.1438 17.902 54.4222 17.7173C54.7006 17.5327 54.9123 17.267 55.0572 16.9205C55.2021 16.5739 55.2745 16.1591 55.2745 15.6761C55.2745 15.2045 55.2035 14.7884 55.0614 14.4276C54.9194 14.0668 54.7092 13.7841 54.4308 13.5795C54.1523 13.375 53.8086 13.2727 53.3995 13.2727C52.9734 13.2727 52.6183 13.3807 52.3342 13.5966C52.0529 13.8125 51.8413 14.1023 51.6992 14.4659C51.56 14.8295 51.4904 15.233 51.4904 15.6761C51.4904 16.1307 51.5614 16.5327 51.7035 16.8821C51.8484 17.2287 52.0614 17.5014 52.3427 17.7003C52.6268 17.8963 52.979 17.9943 53.3995 17.9943Z" fill="#FACC15"/>
</svg>
