<svg width="100" height="39" viewBox="0 0 100 39" fill="none" xmlns="http://www.w3.org/2000/svg">
<rect x="0.5" y="0.5" width="98.45" height="38" rx="11.5" fill="#F8FAFC"/>
<rect x="0.5" y="0.5" width="98.45" height="38" rx="11.5" stroke="#6366F1"/>
<path d="M13.9741 19.2755C13.9012 19.0978 13.9012 18.9022 13.9741 18.7245C14.6844 17.1664 15.89 15.8342 17.4381 14.8967C18.9861 13.9593 20.807 13.4588 22.6699 13.4588C24.5327 13.4588 26.3536 13.9593 27.9017 14.8967C29.4498 15.8342 30.6554 17.1664 31.3656 18.7245C31.4385 18.9022 31.4385 19.0978 31.3656 19.2755C30.6554 20.8336 29.4498 22.1658 27.9017 23.1033C26.3536 24.0407 24.5327 24.5412 22.6699 24.5412C20.807 24.5412 18.9861 24.0407 17.4381 23.1033C15.89 22.1658 14.6844 20.8336 13.9741 19.2755Z" stroke="#6366F1" stroke-width="3" stroke-linecap="round" stroke-linejoin="round"/>
<path d="M22.6699 21.375C24.1196 21.375 25.2949 20.3117 25.2949 19C25.2949 17.6883 24.1196 16.625 22.6699 16.625C21.2201 16.625 20.0449 17.6883 20.0449 19C20.0449 20.3117 21.2201 21.375 22.6699 21.375Z" stroke="#6366F1" stroke-width="3" stroke-linecap="round" stroke-linejoin="round"/>
<path d="M38.0387 23V13.5455H41.4087C42.1443 13.5455 42.7537 13.6793 43.2369 13.9471C43.7201 14.2148 44.0817 14.5811 44.3217 15.0458C44.5618 15.5075 44.6818 16.0276 44.6818 16.6062C44.6818 17.1879 44.5603 17.7111 44.3171 18.1758C44.0771 18.6374 43.7139 19.0037 43.2276 19.2745C42.7444 19.5423 42.1366 19.6761 41.4041 19.6761H39.0866V18.4666H41.2749C41.7396 18.4666 42.1166 18.3866 42.4059 18.2266C42.6952 18.0634 42.9076 17.8419 43.043 17.5618C43.1784 17.2817 43.2461 16.9632 43.2461 16.6062C43.2461 16.2492 43.1784 15.9322 43.043 15.6552C42.9076 15.3782 42.6937 15.1612 42.4013 15.0043C42.112 14.8473 41.7304 14.7688 41.2564 14.7688H39.4652V23H38.0387ZM46.2433 23V15.9091H47.5775V17.0355H47.6514C47.7806 16.6539 48.0084 16.3538 48.3346 16.1353C48.6639 15.9137 49.0363 15.8029 49.4518 15.8029C49.538 15.8029 49.6395 15.806 49.7565 15.8121C49.8765 15.8183 49.9704 15.826 50.0381 15.8352V17.1555C49.9827 17.1402 49.8842 17.1232 49.7426 17.1048C49.6011 17.0832 49.4595 17.0724 49.3179 17.0724C48.9917 17.0724 48.7008 17.1417 48.4454 17.2802C48.193 17.4156 47.993 17.6049 47.8453 17.848C47.6975 18.0881 47.6237 18.362 47.6237 18.6697V23H46.2433ZM54.0348 23.1431C53.3362 23.1431 52.7345 22.9938 52.2298 22.6953C51.7281 22.3937 51.3403 21.9705 51.0664 21.4258C50.7956 20.878 50.6602 20.2363 50.6602 19.5007C50.6602 18.7744 50.7956 18.1342 51.0664 17.5803C51.3403 17.0263 51.7219 16.5939 52.2113 16.283C52.7037 15.9722 53.2792 15.8168 53.9379 15.8168C54.3379 15.8168 54.7257 15.8829 55.1012 16.0153C55.4767 16.1476 55.8137 16.3554 56.1122 16.6385C56.4107 16.9216 56.6462 17.2894 56.8185 17.7418C56.9909 18.1912 57.0771 18.7375 57.0771 19.3807V19.87H51.4403V18.8359H55.7244C55.7244 18.4728 55.6506 18.1512 55.5028 17.8711C55.3551 17.5879 55.1474 17.3648 54.8796 17.2017C54.6149 17.0386 54.3041 16.957 53.9471 16.957C53.5593 16.957 53.2208 17.0524 52.9315 17.2433C52.6452 17.431 52.4237 17.6772 52.2667 17.9819C52.1128 18.2835 52.0359 18.6113 52.0359 18.9652V19.7731C52.0359 20.247 52.119 20.6502 52.2852 20.9826C52.4544 21.315 52.6899 21.5689 52.9915 21.7443C53.2931 21.9167 53.6455 22.0028 54.0487 22.0028C54.3103 22.0028 54.5488 21.9659 54.7642 21.892C54.9796 21.8151 55.1658 21.7012 55.3228 21.5504C55.4798 21.3996 55.5998 21.2134 55.6829 20.9918L56.9893 21.2273C56.8847 21.612 56.697 21.949 56.4261 22.2383C56.1584 22.5245 55.8214 22.7476 55.4151 22.9077C55.012 23.0646 54.5518 23.1431 54.0348 23.1431ZM64.4715 15.9091L61.9001 23H60.4229L57.8469 15.9091H59.3287L61.1246 21.3658H61.1984L62.9896 15.9091H64.4715ZM65.7687 23V15.9091H67.1491V23H65.7687ZM66.4658 14.815C66.2258 14.815 66.0196 14.735 65.8472 14.5749C65.6779 14.4118 65.5933 14.2179 65.5933 13.9933C65.5933 13.7655 65.6779 13.5716 65.8472 13.4116C66.0196 13.2485 66.2258 13.1669 66.4658 13.1669C66.7059 13.1669 66.9105 13.2485 67.0798 13.4116C67.2522 13.5716 67.3383 13.7655 67.3383 13.9933C67.3383 14.2179 67.2522 14.4118 67.0798 14.5749C66.9105 14.735 66.7059 14.815 66.4658 14.815ZM72.0621 23.1431C71.3635 23.1431 70.7618 22.9938 70.2571 22.6953C69.7554 22.3937 69.3677 21.9705 69.0938 21.4258C68.8229 20.878 68.6875 20.2363 68.6875 19.5007C68.6875 18.7744 68.8229 18.1342 69.0938 17.5803C69.3677 17.0263 69.7493 16.5939 70.2386 16.283C70.7311 15.9722 71.3066 15.8168 71.9652 15.8168C72.3653 15.8168 72.7531 15.8829 73.1286 16.0153C73.504 16.1476 73.841 16.3554 74.1396 16.6385C74.4381 16.9216 74.6735 17.2894 74.8459 17.7418C75.0182 18.1912 75.1044 18.7375 75.1044 19.3807V19.87H69.4677V18.8359H73.7518C73.7518 18.4728 73.6779 18.1512 73.5302 17.8711C73.3825 17.5879 73.1747 17.3648 72.907 17.2017C72.6423 17.0386 72.3314 16.957 71.9744 16.957C71.5866 16.957 71.2481 17.0524 70.9588 17.2433C70.6726 17.431 70.451 17.6772 70.294 17.9819C70.1402 18.2835 70.0632 18.6113 70.0632 18.9652V19.7731C70.0632 20.247 70.1463 20.6502 70.3125 20.9826C70.4818 21.315 70.7172 21.5689 71.0188 21.7443C71.3204 21.9167 71.6728 22.0028 72.076 22.0028C72.3376 22.0028 72.5761 21.9659 72.7915 21.892C73.007 21.8151 73.1932 21.7012 73.3501 21.5504C73.5071 21.3996 73.6271 21.2134 73.7102 20.9918L75.0167 21.2273C74.9121 21.612 74.7243 21.949 74.4535 22.2383C74.1857 22.5245 73.8487 22.7476 73.4425 22.9077C73.0393 23.0646 72.5792 23.1431 72.0621 23.1431ZM78.1605 23L76.0739 15.9091H77.5004L78.8899 21.1165H78.9592L80.3533 15.9091H81.7798L83.1648 21.0934H83.234L84.6143 15.9091H86.0408L83.9588 23H82.5508L81.1104 17.8803H81.0043L79.5639 23H78.1605Z" fill="#6366F1"/>
</svg>
