<svg width="149" height="41" viewBox="0 0 149 41" fill="none" xmlns="http://www.w3.org/2000/svg">
<rect x="0.5" y="0.5" width="147.36" height="40" rx="11.5" fill="#F8FAFC"/>
<rect x="0.5" y="0.5" width="147.36" height="40" rx="11.5" stroke="#EF4444"/>
<path d="M23.0002 25.6666C26.6821 25.6666 29.6668 22.6819 29.6668 19C29.6668 15.3181 26.6821 12.3333 23.0002 12.3333C19.3183 12.3333 16.3335 15.3181 16.3335 19C16.3335 22.6819 19.3183 25.6666 23.0002 25.6666Z" stroke="#EF4444" stroke-width="1.33333" stroke-linecap="round" stroke-linejoin="round"/>
<path d="M25 17L21 21M21 17L25 21" stroke="#EF4444" stroke-width="1.33333" stroke-linecap="round" stroke-linejoin="round"/>
<path d="M35.8237 27V16.8182H39.4529C40.2418 16.8182 40.8964 16.9541 41.4167 17.2259C41.9404 17.4976 42.3315 17.8738 42.59 18.3544C42.8485 18.8317 42.9778 19.3835 42.9778 20.0099C42.9778 20.633 42.8469 21.1816 42.585 21.6555C42.3265 22.1262 41.9354 22.4924 41.4118 22.7543C40.8914 23.0161 40.2368 23.147 39.448 23.147H36.6987V21.8246H39.3088C39.8059 21.8246 40.2103 21.7533 40.5218 21.6108C40.8367 21.4683 41.0671 21.2611 41.2129 20.9893C41.3587 20.7176 41.4316 20.3911 41.4316 20.0099C41.4316 19.6255 41.3571 19.2924 41.2079 19.0107C41.0621 18.7289 40.8317 18.5135 40.5169 18.3643C40.2053 18.2119 39.796 18.1357 39.2889 18.1357H37.3599V27H35.8237ZM40.85 22.4062L43.3656 27H41.6156L39.1497 22.4062H40.85ZM47.9233 27.1541C47.1709 27.1541 46.523 26.9934 45.9794 26.6719C45.4392 26.3471 45.0215 25.8913 44.7266 25.3047C44.4349 24.7147 44.2891 24.0237 44.2891 23.2315C44.2891 22.4493 44.4349 21.7599 44.7266 21.1634C45.0215 20.5668 45.4325 20.1011 45.9595 19.7663C46.4898 19.4316 47.1096 19.2642 47.8189 19.2642C48.2498 19.2642 48.6674 19.3355 49.0717 19.478C49.4761 19.6205 49.839 19.8442 50.1605 20.1491C50.482 20.4541 50.7356 20.8501 50.9212 21.3374C51.1068 21.8213 51.1996 22.4096 51.1996 23.1023V23.6293H45.1293V22.5156H49.7429C49.7429 22.1245 49.6634 21.7782 49.5043 21.4766C49.3452 21.1716 49.1214 20.9313 48.8331 20.7557C48.5481 20.58 48.2133 20.4922 47.8288 20.4922C47.4112 20.4922 47.0466 20.5949 46.7351 20.8004C46.4268 21.0026 46.1882 21.2678 46.0192 21.5959C45.8535 21.9207 45.7706 22.2737 45.7706 22.6548V23.5249C45.7706 24.0353 45.8601 24.4695 46.0391 24.8274C46.2214 25.1854 46.4749 25.4588 46.7997 25.6477C47.1245 25.8333 47.504 25.9261 47.9382 25.9261C48.2199 25.9261 48.4768 25.8864 48.7088 25.8068C48.9408 25.724 49.1413 25.6013 49.3104 25.4389C49.4794 25.2765 49.6087 25.076 49.6982 24.8374L51.1051 25.0909C50.9924 25.5052 50.7902 25.8681 50.4986 26.1797C50.2102 26.4879 49.8473 26.7282 49.4098 26.9006C48.9756 27.0696 48.4801 27.1541 47.9233 27.1541ZM52.8489 19.3636H54.3354V27.4972C54.3354 28.0076 54.2426 28.4384 54.057 28.7898C53.8747 29.1411 53.6029 29.4079 53.2417 29.5902C52.8837 29.7725 52.4412 29.8636 51.9142 29.8636C51.8612 29.8636 51.8115 29.8636 51.7651 29.8636C51.7154 29.8636 51.664 29.862 51.611 29.8587V28.581C51.6574 28.581 51.6988 28.581 51.7353 28.581C51.7684 28.581 51.8065 28.581 51.8496 28.581C52.2009 28.581 52.4545 28.4865 52.6103 28.2976C52.7694 28.112 52.8489 27.8419 52.8489 27.4872V19.3636ZM53.5847 18.1854C53.3262 18.1854 53.1041 18.0992 52.9185 17.9268C52.7362 17.7512 52.6451 17.5424 52.6451 17.3004C52.6451 17.0552 52.7362 16.8464 52.9185 16.674C53.1041 16.4983 53.3262 16.4105 53.5847 16.4105C53.8432 16.4105 54.0636 16.4983 54.2459 16.674C54.4315 16.8464 54.5243 17.0552 54.5243 17.3004C54.5243 17.5424 54.4315 17.7512 54.2459 17.9268C54.0636 18.0992 53.8432 18.1854 53.5847 18.1854ZM59.6264 27.1541C58.8741 27.1541 58.2261 26.9934 57.6825 26.6719C57.1423 26.3471 56.7247 25.8913 56.4297 25.3047C56.138 24.7147 55.9922 24.0237 55.9922 23.2315C55.9922 22.4493 56.138 21.7599 56.4297 21.1634C56.7247 20.5668 57.1357 20.1011 57.6626 19.7663C58.1929 19.4316 58.8127 19.2642 59.522 19.2642C59.9529 19.2642 60.3705 19.3355 60.7749 19.478C61.1792 19.6205 61.5421 19.8442 61.8636 20.1491C62.1851 20.4541 62.4387 20.8501 62.6243 21.3374C62.8099 21.8213 62.9027 22.4096 62.9027 23.1023V23.6293H56.8324V22.5156H61.446C61.446 22.1245 61.3665 21.7782 61.2074 21.4766C61.0483 21.1716 60.8246 20.9313 60.5362 20.7557C60.2512 20.58 59.9164 20.4922 59.532 20.4922C59.1143 20.4922 58.7498 20.5949 58.4382 20.8004C58.13 21.0026 57.8913 21.2678 57.7223 21.5959C57.5566 21.9207 57.4737 22.2737 57.4737 22.6548V23.5249C57.4737 24.0353 57.5632 24.4695 57.7422 24.8274C57.9245 25.1854 58.178 25.4588 58.5028 25.6477C58.8277 25.8333 59.2071 25.9261 59.6413 25.9261C59.9231 25.9261 60.1799 25.8864 60.4119 25.8068C60.6439 25.724 60.8445 25.6013 61.0135 25.4389C61.1825 25.2765 61.3118 25.076 61.4013 24.8374L62.8082 25.0909C62.6955 25.5052 62.4934 25.8681 62.2017 26.1797C61.9134 26.4879 61.5504 26.7282 61.1129 26.9006C60.6787 27.0696 60.1832 27.1541 59.6264 27.1541ZM67.7686 27.1541C67.0295 27.1541 66.3932 26.9867 65.8596 26.652C65.3292 26.3139 64.9216 25.8482 64.6365 25.255C64.3515 24.6617 64.209 23.9822 64.209 23.2166C64.209 22.4411 64.3548 21.7566 64.6465 21.1634C64.9382 20.5668 65.3491 20.1011 65.8794 19.7663C66.4097 19.4316 67.0345 19.2642 67.7537 19.2642C68.3337 19.2642 68.8508 19.3719 69.3049 19.5874C69.7589 19.7995 70.1252 20.0978 70.4036 20.4822C70.6853 20.8667 70.8527 21.3158 70.9057 21.8295H69.459C69.3794 21.4716 69.1971 21.1634 68.9121 20.9048C68.6304 20.6463 68.2525 20.517 67.7786 20.517C67.3643 20.517 67.0014 20.6264 66.6898 20.8452C66.3816 21.0606 66.1413 21.3688 65.9689 21.7699C65.7966 22.1676 65.7104 22.6383 65.7104 23.1818C65.7104 23.7386 65.7949 24.2192 65.964 24.6236C66.133 25.0279 66.3716 25.3411 66.6799 25.5632C66.9914 25.7853 67.3577 25.8963 67.7786 25.8963C68.0603 25.8963 68.3155 25.8449 68.5442 25.7422C68.7762 25.6361 68.9701 25.4853 69.1259 25.2898C69.285 25.0942 69.396 24.8589 69.459 24.5838H70.9057C70.8527 25.0777 70.6919 25.5185 70.4235 25.9062C70.155 26.294 69.7954 26.599 69.3446 26.821C68.8972 27.0431 68.3719 27.1541 67.7686 27.1541ZM76.06 19.3636V20.5568H71.8888V19.3636H76.06ZM73.0075 17.5341H74.494V24.7578C74.494 25.0462 74.5371 25.2633 74.6232 25.4091C74.7094 25.5516 74.8204 25.6494 74.9563 25.7024C75.0955 25.7521 75.2463 25.777 75.4087 25.777C75.5281 25.777 75.6325 25.7687 75.7219 25.7521C75.8114 25.7356 75.881 25.7223 75.9308 25.7124L76.1992 26.9403C76.113 26.9735 75.9904 27.0066 75.8313 27.0398C75.6722 27.0762 75.4734 27.0961 75.2347 27.0994C74.8436 27.1061 74.479 27.0365 74.141 26.8906C73.8029 26.7448 73.5295 26.5194 73.3207 26.2145C73.1119 25.9096 73.0075 25.5268 73.0075 25.0661V17.5341ZM89.9854 20.1293H88.4343C88.3746 19.7978 88.2636 19.5062 88.1012 19.2543C87.9388 19.0024 87.7399 18.7886 87.5046 18.6129C87.2693 18.4373 87.0058 18.3047 86.7141 18.2152C86.4258 18.1257 86.1192 18.081 85.7944 18.081C85.2077 18.081 84.6824 18.2285 84.2184 18.5234C83.7577 18.8184 83.3931 19.2509 83.1246 19.821C82.8595 20.3911 82.7269 21.0871 82.7269 21.9091C82.7269 22.7377 82.8595 23.437 83.1246 24.0071C83.3931 24.5772 83.7594 25.008 84.2234 25.2997C84.6874 25.5914 85.2094 25.7372 85.7894 25.7372C86.1109 25.7372 86.4158 25.6941 86.7042 25.608C86.9959 25.5185 87.2594 25.3875 87.4947 25.2152C87.73 25.0429 87.9289 24.8324 88.0913 24.5838C88.257 24.3319 88.3713 24.0436 88.4343 23.7188L89.9854 23.7237C89.9026 24.2242 89.7418 24.6849 89.5032 25.1058C89.2679 25.5234 88.9646 25.8847 88.5934 26.1896C88.2255 26.4912 87.8046 26.7249 87.3306 26.8906C86.8567 27.0563 86.3396 27.1392 85.7795 27.1392C84.8978 27.1392 84.1123 26.9304 83.4229 26.5128C82.7335 26.0919 82.19 25.4903 81.7923 24.7081C81.3978 23.9259 81.2006 22.9929 81.2006 21.9091C81.2006 20.822 81.3995 19.889 81.7972 19.1101C82.195 18.3279 82.7385 17.728 83.4279 17.3104C84.1173 16.8894 84.9012 16.679 85.7795 16.679C86.3197 16.679 86.8235 16.7569 87.2908 16.9126C87.7615 17.0651 88.1841 17.2905 88.5586 17.5888C88.9331 17.8838 89.243 18.245 89.4883 18.6726C89.7335 19.0968 89.8993 19.5824 89.9854 20.1293ZM94.921 27.1541C94.2051 27.1541 93.5803 26.9901 93.0467 26.6619C92.5131 26.3338 92.0988 25.8748 91.8038 25.2848C91.5088 24.6948 91.3613 24.0054 91.3613 23.2166C91.3613 22.4245 91.5088 21.7318 91.8038 21.1385C92.0988 20.5452 92.5131 20.0845 93.0467 19.7564C93.5803 19.4283 94.2051 19.2642 94.921 19.2642C95.6369 19.2642 96.2617 19.4283 96.7953 19.7564C97.3289 20.0845 97.7432 20.5452 98.0382 21.1385C98.3332 21.7318 98.4806 22.4245 98.4806 23.2166C98.4806 24.0054 98.3332 24.6948 98.0382 25.2848C97.7432 25.8748 97.3289 26.3338 96.7953 26.6619C96.2617 26.9901 95.6369 27.1541 94.921 27.1541ZM94.926 25.9062C95.39 25.9062 95.7744 25.7836 96.0794 25.5384C96.3843 25.2931 96.6097 24.9666 96.7555 24.5589C96.9047 24.1513 96.9792 23.7022 96.9792 23.2116C96.9792 22.7244 96.9047 22.277 96.7555 21.8693C96.6097 21.4583 96.3843 21.1286 96.0794 20.88C95.7744 20.6314 95.39 20.5071 94.926 20.5071C94.4586 20.5071 94.0708 20.6314 93.7626 20.88C93.4577 21.1286 93.2306 21.4583 93.0815 21.8693C92.9357 22.277 92.8627 22.7244 92.8627 23.2116C92.8627 23.7022 92.9357 24.1513 93.0815 24.5589C93.2306 24.9666 93.4577 25.2931 93.7626 25.5384C94.0708 25.7836 94.4586 25.9062 94.926 25.9062ZM101.626 22.4659V27H100.14V19.3636H101.567V20.6065H101.661C101.837 20.2022 102.112 19.8774 102.487 19.6321C102.864 19.3868 103.34 19.2642 103.913 19.2642C104.434 19.2642 104.889 19.3736 105.281 19.5923C105.672 19.8078 105.975 20.1293 106.19 20.5568C106.406 20.9844 106.513 21.513 106.513 22.1428V27H105.027V22.3217C105.027 21.7682 104.883 21.3357 104.594 21.0241C104.306 20.7093 103.91 20.5518 103.406 20.5518C103.062 20.5518 102.755 20.6264 102.487 20.7756C102.221 20.9247 102.011 21.1435 101.855 21.4318C101.703 21.7169 101.626 22.0616 101.626 22.4659ZM112.072 19.3636V20.5568H107.901V19.3636H112.072ZM109.019 17.5341H110.506V24.7578C110.506 25.0462 110.549 25.2633 110.635 25.4091C110.721 25.5516 110.832 25.6494 110.968 25.7024C111.107 25.7521 111.258 25.777 111.42 25.777C111.54 25.777 111.644 25.7687 111.734 25.7521C111.823 25.7356 111.893 25.7223 111.942 25.7124L112.211 26.9403C112.125 26.9735 112.002 27.0066 111.843 27.0398C111.684 27.0762 111.485 27.0961 111.246 27.0994C110.855 27.1061 110.491 27.0365 110.153 26.8906C109.815 26.7448 109.541 26.5194 109.332 26.2145C109.124 25.9096 109.019 25.5268 109.019 25.0661V17.5341ZM116.925 27.1541C116.173 27.1541 115.525 26.9934 114.981 26.6719C114.441 26.3471 114.023 25.8913 113.729 25.3047C113.437 24.7147 113.291 24.0237 113.291 23.2315C113.291 22.4493 113.437 21.7599 113.729 21.1634C114.023 20.5668 114.434 20.1011 114.961 19.7663C115.492 19.4316 116.112 19.2642 116.821 19.2642C117.252 19.2642 117.669 19.3355 118.074 19.478C118.478 19.6205 118.841 19.8442 119.162 20.1491C119.484 20.4541 119.738 20.8501 119.923 21.3374C120.109 21.8213 120.202 22.4096 120.202 23.1023V23.6293H114.131V22.5156H118.745C118.745 22.1245 118.665 21.7782 118.506 21.4766C118.347 21.1716 118.123 20.9313 117.835 20.7557C117.55 20.58 117.215 20.4922 116.831 20.4922C116.413 20.4922 116.049 20.5949 115.737 20.8004C115.429 21.0026 115.19 21.2678 115.021 21.5959C114.855 21.9207 114.773 22.2737 114.773 22.6548V23.5249C114.773 24.0353 114.862 24.4695 115.041 24.8274C115.223 25.1854 115.477 25.4588 115.802 25.6477C116.126 25.8333 116.506 25.9261 116.94 25.9261C117.222 25.9261 117.479 25.8864 117.711 25.8068C117.943 25.724 118.143 25.6013 118.312 25.4389C118.481 25.2765 118.611 25.076 118.7 24.8374L120.107 25.0909C119.994 25.5052 119.792 25.8681 119.501 26.1797C119.212 26.4879 118.849 26.7282 118.412 26.9006C117.978 27.0696 117.482 27.1541 116.925 27.1541ZM123.337 22.4659V27H121.851V19.3636H123.278V20.6065H123.372C123.548 20.2022 123.823 19.8774 124.197 19.6321C124.575 19.3868 125.051 19.2642 125.624 19.2642C126.145 19.2642 126.6 19.3736 126.991 19.5923C127.383 19.8078 127.686 20.1293 127.901 20.5568C128.117 20.9844 128.224 21.513 128.224 22.1428V27H126.738V22.3217C126.738 21.7682 126.594 21.3357 126.305 21.0241C126.017 20.7093 125.621 20.5518 125.117 20.5518C124.772 20.5518 124.466 20.6264 124.197 20.7756C123.932 20.9247 123.722 21.1435 123.566 21.4318C123.414 21.7169 123.337 22.0616 123.337 22.4659ZM133.783 19.3636V20.5568H129.612V19.3636H133.783ZM130.73 17.5341H132.217V24.7578C132.217 25.0462 132.26 25.2633 132.346 25.4091C132.432 25.5516 132.543 25.6494 132.679 25.7024C132.818 25.7521 132.969 25.777 133.131 25.777C133.251 25.777 133.355 25.7687 133.445 25.7521C133.534 25.7356 133.604 25.7223 133.653 25.7124L133.922 26.9403C133.836 26.9735 133.713 27.0066 133.554 27.0398C133.395 27.0762 133.196 27.0961 132.957 27.0994C132.566 27.1061 132.202 27.0365 131.864 26.8906C131.526 26.7448 131.252 26.5194 131.043 26.2145C130.835 25.9096 130.73 25.5268 130.73 25.0661V17.5341Z" fill="#EF4444"/>
</svg>
