<svg width="160" height="69" viewBox="0 0 160 69" fill="none" xmlns="http://www.w3.org/2000/svg">
<rect x="0.5" y="0.5" width="158.8" height="67.13" rx="11.5" fill="#F8FAFC"/>
<rect x="0.5" y="0.5" width="158.8" height="67.13" rx="11.5" stroke="#EF4444"/>
<path d="M22 27V33M26 27V33M31 22V36C31 36.5304 30.7893 37.0391 30.4142 37.4142C30.0391 37.7893 29.5304 38 29 38H19C18.4696 38 17.9609 37.7893 17.5858 37.4142C17.2107 37.0391 17 36.5304 17 36V22M15 22H33M20 22V20C20 19.4696 20.2107 18.9609 20.5858 18.5858C20.9609 18.2107 21.4696 18 22 18H26C26.5304 18 27.0391 18.2107 27.4142 18.5858C27.7893 18.9609 28 19.4696 28 20V22" stroke="#FF0000" stroke-width="2" stroke-linecap="round" stroke-linejoin="round"/>
<path d="M42.1186 25V14.8182H45.7479C46.5367 14.8182 47.1913 14.9541 47.7116 15.2259C48.2353 15.4976 48.6264 15.8738 48.8849 16.3544C49.1435 16.8317 49.2727 17.3835 49.2727 18.0099C49.2727 18.633 49.1418 19.1816 48.88 19.6555C48.6214 20.1262 48.2304 20.4924 47.7067 20.7543C47.1863 21.0161 46.5317 21.147 45.7429 21.147H42.9936V19.8246H45.6037C46.1009 19.8246 46.5052 19.7533 46.8168 19.6108C47.1316 19.4683 47.362 19.2611 47.5078 18.9893C47.6536 18.7176 47.7266 18.3911 47.7266 18.0099C47.7266 17.6255 47.652 17.2924 47.5028 17.0107C47.357 16.7289 47.1267 16.5135 46.8118 16.3643C46.5002 16.2119 46.0909 16.1357 45.5838 16.1357H43.6548V25H42.1186ZM47.1449 20.4062L49.6605 25H47.9105L45.4446 20.4062H47.1449ZM54.2182 25.1541C53.4658 25.1541 52.8179 24.9934 52.2743 24.6719C51.7341 24.3471 51.3165 23.8913 51.0215 23.3047C50.7298 22.7147 50.584 22.0237 50.584 21.2315C50.584 20.4493 50.7298 19.7599 51.0215 19.1634C51.3165 18.5668 51.7275 18.1011 52.2544 17.7663C52.7847 17.4316 53.4045 17.2642 54.1138 17.2642C54.5447 17.2642 54.9623 17.3355 55.3667 17.478C55.771 17.6205 56.1339 17.8442 56.4554 18.1491C56.7769 18.4541 57.0305 18.8501 57.2161 19.3374C57.4017 19.8213 57.4945 20.4096 57.4945 21.1023V21.6293H51.4242V20.5156H56.0378C56.0378 20.1245 55.9583 19.7782 55.7992 19.4766C55.6401 19.1716 55.4164 18.9313 55.128 18.7557C54.843 18.58 54.5082 18.4922 54.1238 18.4922C53.7061 18.4922 53.3416 18.5949 53.03 18.8004C52.7218 19.0026 52.4831 19.2678 52.3141 19.5959C52.1484 19.9207 52.0655 20.2737 52.0655 20.6548V21.5249C52.0655 22.0353 52.155 22.4695 52.334 22.8274C52.5163 23.1854 52.7698 23.4588 53.0946 23.6477C53.4194 23.8333 53.7989 23.9261 54.2331 23.9261C54.5149 23.9261 54.7717 23.8864 55.0037 23.8068C55.2357 23.724 55.4363 23.6013 55.6053 23.4389C55.7743 23.2765 55.9036 23.076 55.9931 22.8374L57.4 23.0909C57.2873 23.5052 57.0852 23.8681 56.7935 24.1797C56.5051 24.4879 56.1422 24.7282 55.7047 24.9006C55.2705 25.0696 54.775 25.1541 54.2182 25.1541ZM59.1438 25V17.3636H60.5707V18.6065H60.6651C60.8242 18.1856 61.0844 17.8575 61.4457 17.6222C61.8069 17.3835 62.2395 17.2642 62.7433 17.2642C63.2537 17.2642 63.6812 17.3835 64.0259 17.6222C64.3739 17.8608 64.6308 18.1889 64.7965 18.6065H64.8761C65.0584 18.1989 65.3484 17.8741 65.7461 17.6321C66.1438 17.3868 66.6178 17.2642 67.168 17.2642C67.8607 17.2642 68.4258 17.4813 68.8633 17.9155C69.3041 18.3497 69.5245 19.0043 69.5245 19.8793V25H68.038V20.0185C68.038 19.5014 67.8971 19.1269 67.6154 18.8949C67.3337 18.6629 66.9973 18.5469 66.6062 18.5469C66.1223 18.5469 65.7461 18.696 65.4776 18.9943C65.2092 19.2893 65.0749 19.6688 65.0749 20.1328V25H63.5934V19.924C63.5934 19.5097 63.4641 19.1766 63.2056 18.9247C62.9471 18.6728 62.6107 18.5469 62.1964 18.5469C61.9147 18.5469 61.6545 18.6214 61.4158 18.7706C61.1805 18.9164 60.9899 19.1203 60.8441 19.3821C60.7016 19.6439 60.6303 19.9472 60.6303 20.2919V25H59.1438ZM74.7335 25.1541C74.0176 25.1541 73.3928 24.9901 72.8592 24.6619C72.3256 24.3338 71.9113 23.8748 71.6163 23.2848C71.3213 22.6948 71.1738 22.0054 71.1738 21.2166C71.1738 20.4245 71.3213 19.7318 71.6163 19.1385C71.9113 18.5452 72.3256 18.0845 72.8592 17.7564C73.3928 17.4283 74.0176 17.2642 74.7335 17.2642C75.4494 17.2642 76.0742 17.4283 76.6078 17.7564C77.1414 18.0845 77.5557 18.5452 77.8507 19.1385C78.1457 19.7318 78.2931 20.4245 78.2931 21.2166C78.2931 22.0054 78.1457 22.6948 77.8507 23.2848C77.5557 23.8748 77.1414 24.3338 76.6078 24.6619C76.0742 24.9901 75.4494 25.1541 74.7335 25.1541ZM74.7385 23.9062C75.2025 23.9062 75.5869 23.7836 75.8919 23.5384C76.1968 23.2931 76.4222 22.9666 76.568 22.5589C76.7172 22.1513 76.7917 21.7022 76.7917 21.2116C76.7917 20.7244 76.7172 20.277 76.568 19.8693C76.4222 19.4583 76.1968 19.1286 75.8919 18.88C75.5869 18.6314 75.2025 18.5071 74.7385 18.5071C74.2711 18.5071 73.8833 18.6314 73.5751 18.88C73.2702 19.1286 73.0431 19.4583 72.894 19.8693C72.7482 20.277 72.6752 20.7244 72.6752 21.2116C72.6752 21.7022 72.7482 22.1513 72.894 22.5589C73.0431 22.9666 73.2702 23.2931 73.5751 23.5384C73.8833 23.7836 74.2711 23.9062 74.7385 23.9062ZM86.2253 17.3636L83.4561 25H81.8652L79.0911 17.3636H80.687L82.6209 23.2401H82.7005L84.6294 17.3636H86.2253ZM90.6538 25.1541C89.9014 25.1541 89.2534 24.9934 88.7099 24.6719C88.1696 24.3471 87.752 23.8913 87.457 23.3047C87.1654 22.7147 87.0195 22.0237 87.0195 21.2315C87.0195 20.4493 87.1654 19.7599 87.457 19.1634C87.752 18.5668 88.163 18.1011 88.69 17.7663C89.2203 17.4316 89.8401 17.2642 90.5494 17.2642C90.9802 17.2642 91.3978 17.3355 91.8022 17.478C92.2066 17.6205 92.5695 17.8442 92.891 18.1491C93.2125 18.4541 93.466 18.8501 93.6516 19.3374C93.8372 19.8213 93.93 20.4096 93.93 21.1023V21.6293H87.8597V20.5156H92.4734C92.4734 20.1245 92.3938 19.7782 92.2347 19.4766C92.0756 19.1716 91.8519 18.9313 91.5636 18.7557C91.2785 18.58 90.9438 18.4922 90.5593 18.4922C90.1417 18.4922 89.7771 18.5949 89.4656 18.8004C89.1573 19.0026 88.9187 19.2678 88.7496 19.5959C88.5839 19.9207 88.5011 20.2737 88.5011 20.6548V21.5249C88.5011 22.0353 88.5906 22.4695 88.7695 22.8274C88.9518 23.1854 89.2054 23.4588 89.5302 23.6477C89.855 23.8333 90.2345 23.9261 90.6687 23.9261C90.9504 23.9261 91.2073 23.8864 91.4393 23.8068C91.6713 23.724 91.8718 23.6013 92.0408 23.4389C92.2099 23.2765 92.3391 23.076 92.4286 22.8374L93.8356 23.0909C93.7229 23.5052 93.5207 23.8681 93.229 24.1797C92.9407 24.4879 92.5778 24.7282 92.1403 24.9006C91.7061 25.0696 91.2106 25.1541 90.6538 25.1541ZM50.5753 35.1293H49.0241C48.9645 34.7978 48.8535 34.5062 48.6911 34.2543C48.5286 34.0024 48.3298 33.7886 48.0945 33.6129C47.8591 33.4373 47.5956 33.3047 47.304 33.2152C47.0156 33.1257 46.709 33.081 46.3842 33.081C45.7976 33.081 45.2723 33.2285 44.8082 33.5234C44.3475 33.8184 43.983 34.2509 43.7145 34.821C43.4493 35.3911 43.3168 36.0871 43.3168 36.9091C43.3168 37.7377 43.4493 38.437 43.7145 39.0071C43.983 39.5772 44.3492 40.008 44.8132 40.2997C45.2772 40.5914 45.7992 40.7372 46.3793 40.7372C46.7008 40.7372 47.0057 40.6941 47.294 40.608C47.5857 40.5185 47.8492 40.3875 48.0845 40.2152C48.3198 40.0429 48.5187 39.8324 48.6811 39.5838C48.8468 39.3319 48.9612 39.0436 49.0241 38.7188L50.5753 38.7237C50.4924 39.2242 50.3317 39.6849 50.093 40.1058C49.8577 40.5234 49.5545 40.8847 49.1832 41.1896C48.8153 41.4912 48.3944 41.7249 47.9205 41.8906C47.4465 42.0563 46.9295 42.1392 46.3693 42.1392C45.4877 42.1392 44.7022 41.9304 44.0128 41.5128C43.3234 41.0919 42.7798 40.4903 42.3821 39.7081C41.9877 38.9259 41.7905 37.9929 41.7905 36.9091C41.7905 35.822 41.9893 34.889 42.3871 34.1101C42.7848 33.3279 43.3284 32.728 44.0178 32.3104C44.7071 31.8894 45.491 31.679 46.3693 31.679C46.9096 31.679 47.4134 31.7569 47.8807 31.9126C48.3513 32.0651 48.7739 32.2905 49.1484 32.5888C49.523 32.8838 49.8329 33.245 50.0781 33.6726C50.3234 34.0968 50.4891 34.5824 50.5753 35.1293ZM55.5108 42.1541C54.7949 42.1541 54.1702 41.9901 53.6365 41.6619C53.1029 41.3338 52.6886 40.8748 52.3936 40.2848C52.0987 39.6948 51.9512 39.0054 51.9512 38.2166C51.9512 37.4245 52.0987 36.7318 52.3936 36.1385C52.6886 35.5452 53.1029 35.0845 53.6365 34.7564C54.1702 34.4283 54.7949 34.2642 55.5108 34.2642C56.2267 34.2642 56.8515 34.4283 57.3851 34.7564C57.9187 35.0845 58.333 35.5452 58.628 36.1385C58.923 36.7318 59.0705 37.4245 59.0705 38.2166C59.0705 39.0054 58.923 39.6948 58.628 40.2848C58.333 40.8748 57.9187 41.3338 57.3851 41.6619C56.8515 41.9901 56.2267 42.1541 55.5108 42.1541ZM55.5158 40.9062C55.9798 40.9062 56.3643 40.7836 56.6692 40.5384C56.9741 40.2931 57.1995 39.9666 57.3453 39.5589C57.4945 39.1513 57.5691 38.7022 57.5691 38.2116C57.5691 37.7244 57.4945 37.277 57.3453 36.8693C57.1995 36.4583 56.9741 36.1286 56.6692 35.88C56.3643 35.6314 55.9798 35.5071 55.5158 35.5071C55.0485 35.5071 54.6607 35.6314 54.3525 35.88C54.0475 36.1286 53.8205 36.4583 53.6713 36.8693C53.5255 37.277 53.4526 37.7244 53.4526 38.2116C53.4526 38.7022 53.5255 39.1513 53.6713 39.5589C53.8205 39.9666 54.0475 40.2931 54.3525 40.5384C54.6607 40.7836 55.0485 40.9062 55.5158 40.9062ZM62.2163 37.4659V42H60.7298V34.3636H62.1566V35.6065H62.2511C62.4267 35.2022 62.7018 34.8774 63.0763 34.6321C63.4542 34.3868 63.9298 34.2642 64.5032 34.2642C65.0236 34.2642 65.4793 34.3736 65.8704 34.5923C66.2615 34.8078 66.5647 35.1293 66.7802 35.5568C66.9956 35.9844 67.1033 36.513 67.1033 37.1428V42H65.6168V37.3217C65.6168 36.7682 65.4727 36.3357 65.1843 36.0241C64.896 35.7093 64.4999 35.5518 63.9961 35.5518C63.6514 35.5518 63.3448 35.6264 63.0763 35.7756C62.8112 35.9247 62.6007 36.1435 62.445 36.4318C62.2925 36.7169 62.2163 37.0616 62.2163 37.4659ZM72.6616 34.3636V35.5568H68.4904V34.3636H72.6616ZM69.609 32.5341H71.0955V39.7578C71.0955 40.0462 71.1386 40.2633 71.2248 40.4091C71.311 40.5516 71.422 40.6494 71.5579 40.7024C71.6971 40.7521 71.8479 40.777 72.0103 40.777C72.1296 40.777 72.234 40.7687 72.3235 40.7521C72.413 40.7356 72.4826 40.7223 72.5323 40.7124L72.8008 41.9403C72.7146 41.9735 72.592 42.0066 72.4329 42.0398C72.2738 42.0762 72.0749 42.0961 71.8363 42.0994C71.4452 42.1061 71.0806 42.0365 70.7425 41.8906C70.4045 41.7448 70.131 41.5194 69.9222 41.2145C69.7134 40.9096 69.609 40.5268 69.609 40.0661V32.5341ZM77.5151 42.1541C76.7627 42.1541 76.1148 41.9934 75.5712 41.6719C75.031 41.3471 74.6133 40.8913 74.3184 40.3047C74.0267 39.7147 73.8809 39.0237 73.8809 38.2315C73.8809 37.4493 74.0267 36.7599 74.3184 36.1634C74.6133 35.5668 75.0243 35.1011 75.5513 34.7663C76.0816 34.4316 76.7014 34.2642 77.4107 34.2642C77.8416 34.2642 78.2592 34.3355 78.6635 34.478C79.0679 34.6205 79.4308 34.8442 79.7523 35.1491C80.0738 35.4541 80.3274 35.8501 80.513 36.3374C80.6986 36.8213 80.7914 37.4096 80.7914 38.1023V38.6293H74.7211V37.5156H79.3347C79.3347 37.1245 79.2551 36.7782 79.0961 36.4766C78.937 36.1716 78.7132 35.9313 78.4249 35.7557C78.1399 35.58 77.8051 35.4922 77.4206 35.4922C77.003 35.4922 76.6384 35.5949 76.3269 35.8004C76.0186 36.0026 75.78 36.2678 75.611 36.5959C75.4453 36.9207 75.3624 37.2737 75.3624 37.6548V38.5249C75.3624 39.0353 75.4519 39.4695 75.6309 39.8274C75.8132 40.1854 76.0667 40.4588 76.3915 40.6477C76.7163 40.8333 77.0958 40.9261 77.53 40.9261C77.8117 40.9261 78.0686 40.8864 78.3006 40.8068C78.5326 40.724 78.7331 40.6013 78.9022 40.4389C79.0712 40.2765 79.2005 40.076 79.29 39.8374L80.6969 40.0909C80.5842 40.5052 80.382 40.8681 80.0904 41.1797C79.802 41.4879 79.4391 41.7282 79.0016 41.9006C78.5674 42.0696 78.0719 42.1541 77.5151 42.1541ZM83.9272 37.4659V42H82.4407V34.3636H83.8675V35.6065H83.962C84.1377 35.2022 84.4128 34.8774 84.7873 34.6321C85.1651 34.3868 85.6407 34.2642 86.2141 34.2642C86.7345 34.2642 87.1902 34.3736 87.5813 34.5923C87.9724 34.8078 88.2757 35.1293 88.4911 35.5568C88.7066 35.9844 88.8143 36.513 88.8143 37.1428V42H87.3278V37.3217C87.3278 36.7682 87.1836 36.3357 86.8952 36.0241C86.6069 35.7093 86.2108 35.5518 85.707 35.5518C85.3623 35.5518 85.0558 35.6264 84.7873 35.7756C84.5221 35.9247 84.3117 36.1435 84.1559 36.4318C84.0034 36.7169 83.9272 37.0616 83.9272 37.4659ZM94.3725 34.3636V35.5568H90.2013V34.3636H94.3725ZM91.32 32.5341H92.8065V39.7578C92.8065 40.0462 92.8496 40.2633 92.9357 40.4091C93.0219 40.5516 93.1329 40.6494 93.2688 40.7024C93.408 40.7521 93.5588 40.777 93.7212 40.777C93.8406 40.777 93.945 40.7687 94.0344 40.7521C94.1239 40.7356 94.1935 40.7223 94.2433 40.7124L94.5117 41.9403C94.4255 41.9735 94.3029 42.0066 94.1438 42.0398C93.9847 42.0762 93.7859 42.0961 93.5472 42.0994C93.1561 42.1061 92.7915 42.0365 92.4535 41.8906C92.1154 41.7448 91.842 41.5194 91.6332 41.2145C91.4244 40.9096 91.32 40.5268 91.32 40.0661V32.5341Z" fill="#EF4444"/>
</svg>
