<svg width="141" height="41" viewBox="0 0 141 41" fill="none" xmlns="http://www.w3.org/2000/svg">
<rect x="0.5" y="0.5" width="139.98" height="40" rx="11.5" fill="#6366F1"/>
<rect x="0.5" y="0.5" width="139.98" height="40" rx="11.5" stroke="#6366F1"/>
<path d="M23.6668 25H29.0001M29.1161 15.5413C29.2906 15.3668 29.4291 15.1597 29.5236 14.9317C29.618 14.7037 29.6667 14.4593 29.6667 14.2126C29.6667 13.9658 29.6182 13.7214 29.5237 13.4934C29.4293 13.2654 29.2909 13.0582 29.1165 12.8837C28.942 12.7091 28.7348 12.5707 28.5068 12.4762C28.2788 12.3817 28.0345 12.3331 27.7877 12.3331C27.5409 12.333 27.2965 12.3816 27.0685 12.476C26.8405 12.5704 26.6333 12.7088 26.4588 12.8833L17.5615 21.7827C17.4067 21.937 17.2922 22.127 17.2281 22.336L16.3475 25.2373C16.3302 25.295 16.3289 25.3562 16.3437 25.4146C16.3585 25.4729 16.3887 25.5261 16.4313 25.5687C16.4739 25.6112 16.5272 25.6414 16.5856 25.656C16.6439 25.6707 16.7052 25.6693 16.7628 25.652L19.6648 24.772C19.8736 24.7085 20.0636 24.5947 20.2181 24.4407L29.1161 15.5413Z" stroke="#2C2152" stroke-width="1.33333" stroke-linecap="round" stroke-linejoin="round"/>
<path d="M35.8237 27V16.8182H39.4529C40.2418 16.8182 40.8964 16.9541 41.4167 17.2259C41.9404 17.4976 42.3315 17.8738 42.59 18.3544C42.8485 18.8317 42.9778 19.3835 42.9778 20.0099C42.9778 20.633 42.8469 21.1816 42.585 21.6555C42.3265 22.1262 41.9354 22.4924 41.4118 22.7543C40.8914 23.0161 40.2368 23.147 39.448 23.147H36.6987V21.8246H39.3088C39.8059 21.8246 40.2103 21.7533 40.5218 21.6108C40.8367 21.4683 41.0671 21.2611 41.2129 20.9893C41.3587 20.7176 41.4316 20.3911 41.4316 20.0099C41.4316 19.6255 41.3571 19.2924 41.2079 19.0107C41.0621 18.7289 40.8317 18.5135 40.5169 18.3643C40.2053 18.2119 39.796 18.1357 39.2889 18.1357H37.3599V27H35.8237ZM40.85 22.4062L43.3656 27H41.6156L39.1497 22.4062H40.85ZM47.9233 27.1541C47.1709 27.1541 46.523 26.9934 45.9794 26.6719C45.4392 26.3471 45.0215 25.8913 44.7266 25.3047C44.4349 24.7147 44.2891 24.0237 44.2891 23.2315C44.2891 22.4493 44.4349 21.7599 44.7266 21.1634C45.0215 20.5668 45.4325 20.1011 45.9595 19.7663C46.4898 19.4316 47.1096 19.2642 47.8189 19.2642C48.2498 19.2642 48.6674 19.3355 49.0717 19.478C49.4761 19.6205 49.839 19.8442 50.1605 20.1491C50.482 20.4541 50.7356 20.8501 50.9212 21.3374C51.1068 21.8213 51.1996 22.4096 51.1996 23.1023V23.6293H45.1293V22.5156H49.7429C49.7429 22.1245 49.6634 21.7782 49.5043 21.4766C49.3452 21.1716 49.1214 20.9313 48.8331 20.7557C48.5481 20.58 48.2133 20.4922 47.8288 20.4922C47.4112 20.4922 47.0466 20.5949 46.7351 20.8004C46.4268 21.0026 46.1882 21.2678 46.0192 21.5959C45.8535 21.9207 45.7706 22.2737 45.7706 22.6548V23.5249C45.7706 24.0353 45.8601 24.4695 46.0391 24.8274C46.2214 25.1854 46.4749 25.4588 46.7997 25.6477C47.1245 25.8333 47.504 25.9261 47.9382 25.9261C48.2199 25.9261 48.4768 25.8864 48.7088 25.8068C48.9408 25.724 49.1413 25.6013 49.3104 25.4389C49.4794 25.2765 49.6087 25.076 49.6982 24.8374L51.1051 25.0909C50.9924 25.5052 50.7902 25.8681 50.4986 26.1797C50.2102 26.4879 49.8473 26.7282 49.4098 26.9006C48.9756 27.0696 48.4801 27.1541 47.9233 27.1541ZM58.0044 29.8636V25.8118H57.915C57.8255 25.9742 57.6962 26.1598 57.5272 26.3686C57.3614 26.5774 57.1328 26.7597 56.8411 26.9155C56.5494 27.0713 56.1716 27.1491 55.7076 27.1491C55.0911 27.1491 54.5409 26.9917 54.057 26.6768C53.5764 26.3587 53.1986 25.9062 52.9235 25.3196C52.6517 24.7296 52.5158 24.022 52.5158 23.1967C52.5158 22.3714 52.6533 21.6655 52.9284 21.0788C53.2069 20.4922 53.588 20.0431 54.0719 19.7315C54.5558 19.42 55.1043 19.2642 55.7175 19.2642C56.1915 19.2642 56.5726 19.3438 56.861 19.5028C57.1526 19.6586 57.378 19.8409 57.5371 20.0497C57.6995 20.2585 57.8255 20.4425 57.915 20.6016H58.0392V19.3636H59.4909V29.8636H58.0044ZM56.0357 25.8814C56.4632 25.8814 56.8245 25.7687 57.1195 25.5433C57.4178 25.3146 57.6432 24.9981 57.7956 24.5938C57.9514 24.1894 58.0293 23.7187 58.0293 23.1818C58.0293 22.6515 57.9531 22.1875 57.8006 21.7898C57.6481 21.392 57.4244 21.0821 57.1294 20.8601C56.8345 20.638 56.4699 20.527 56.0357 20.527C55.5882 20.527 55.2154 20.643 54.9171 20.875C54.6188 21.107 54.3934 21.4235 54.2409 21.8246C54.0918 22.2256 54.0172 22.678 54.0172 23.1818C54.0172 23.6922 54.0935 24.1513 54.2459 24.5589C54.3984 24.9666 54.6238 25.2898 54.9221 25.5284C55.2237 25.7637 55.5949 25.8814 56.0357 25.8814ZM66.3269 23.8331V19.3636H67.8184V27H66.3567V25.6776H66.2772C66.1015 26.0852 65.8198 26.425 65.432 26.6967C65.0475 26.9652 64.5686 27.0994 63.9952 27.0994C63.5047 27.0994 63.0705 26.9917 62.6926 26.7763C62.3181 26.5575 62.0231 26.2344 61.8077 25.8068C61.5956 25.3793 61.4895 24.8506 61.4895 24.2209V19.3636H62.976V24.0419C62.976 24.5623 63.1202 24.9766 63.4086 25.2848C63.6969 25.593 64.0714 25.7472 64.5321 25.7472C64.8105 25.7472 65.0873 25.6776 65.3624 25.5384C65.6408 25.3991 65.8712 25.1887 66.0534 24.907C66.2391 24.6252 66.3302 24.2673 66.3269 23.8331ZM73.1069 27.1541C72.3545 27.1541 71.7066 26.9934 71.163 26.6719C70.6228 26.3471 70.2051 25.8913 69.9102 25.3047C69.6185 24.7147 69.4727 24.0237 69.4727 23.2315C69.4727 22.4493 69.6185 21.7599 69.9102 21.1634C70.2051 20.5668 70.6161 20.1011 71.1431 19.7663C71.6734 19.4316 72.2932 19.2642 73.0025 19.2642C73.4334 19.2642 73.851 19.3355 74.2553 19.478C74.6597 19.6205 75.0226 19.8442 75.3441 20.1491C75.6656 20.4541 75.9192 20.8501 76.1048 21.3374C76.2904 21.8213 76.3832 22.4096 76.3832 23.1023V23.6293H70.3129V22.5156H74.9265C74.9265 22.1245 74.8469 21.7782 74.6879 21.4766C74.5288 21.1716 74.305 20.9313 74.0167 20.7557C73.7317 20.58 73.3969 20.4922 73.0124 20.4922C72.5948 20.4922 72.2302 20.5949 71.9187 20.8004C71.6104 21.0026 71.3718 21.2678 71.2028 21.5959C71.0371 21.9207 70.9542 22.2737 70.9542 22.6548V23.5249C70.9542 24.0353 71.0437 24.4695 71.2227 24.8274C71.4049 25.1854 71.6585 25.4588 71.9833 25.6477C72.3081 25.8333 72.6876 25.9261 73.1218 25.9261C73.4035 25.9261 73.6604 25.8864 73.8924 25.8068C74.1244 25.724 74.3249 25.6013 74.494 25.4389C74.663 25.2765 74.7923 25.076 74.8817 24.8374L76.2887 25.0909C76.176 25.5052 75.9738 25.8681 75.6822 26.1797C75.3938 26.4879 75.0309 26.7282 74.5934 26.9006C74.1592 27.0696 73.6637 27.1541 73.1069 27.1541ZM83.7548 21.228L82.4075 21.4666C82.3511 21.2943 82.2617 21.1302 82.139 20.9744C82.0197 20.8187 81.8573 20.6911 81.6518 20.5916C81.4463 20.4922 81.1895 20.4425 80.8812 20.4425C80.4603 20.4425 80.109 20.5369 79.8272 20.7259C79.5455 20.9115 79.4047 21.1518 79.4047 21.4467C79.4047 21.7019 79.4991 21.9074 79.688 22.0632C79.877 22.219 80.1819 22.3466 80.6028 22.446L81.8159 22.7244C82.5185 22.8868 83.0422 23.1371 83.3869 23.4751C83.7316 23.8132 83.9039 24.2524 83.9039 24.7926C83.9039 25.25 83.7714 25.6577 83.5062 26.0156C83.2444 26.3703 82.8781 26.6487 82.4075 26.8509C81.9402 27.053 81.3983 27.1541 80.7818 27.1541C79.9267 27.1541 79.229 26.9718 78.6887 26.6072C78.1485 26.2393 77.8171 25.7173 77.6944 25.0412L79.1312 24.8224C79.2207 25.197 79.4047 25.4804 79.6831 25.6726C79.9615 25.8615 80.3244 25.956 80.7718 25.956C81.2591 25.956 81.6485 25.8549 81.9402 25.6527C82.2318 25.4472 82.3777 25.197 82.3777 24.902C82.3777 24.6634 82.2882 24.4628 82.1092 24.3004C81.9335 24.138 81.6634 24.0154 81.2988 23.9325L80.0062 23.6491C79.2936 23.4867 78.7666 23.2282 78.4252 22.8736C78.0872 22.5189 77.9181 22.0698 77.9181 21.5263C77.9181 21.0755 78.0441 20.6811 78.296 20.343C78.5479 20.005 78.8959 19.7415 79.34 19.5526C79.7842 19.3603 80.2929 19.2642 80.8663 19.2642C81.6916 19.2642 82.3412 19.4432 82.8152 19.8011C83.2891 20.1558 83.6023 20.6314 83.7548 21.228ZM89.103 19.3636V20.5568H84.9318V19.3636H89.103ZM86.0504 17.5341H87.5369V24.7578C87.5369 25.0462 87.58 25.2633 87.6662 25.4091C87.7524 25.5516 87.8634 25.6494 87.9993 25.7024C88.1385 25.7521 88.2893 25.777 88.4517 25.777C88.571 25.777 88.6754 25.7687 88.7649 25.7521C88.8544 25.7356 88.924 25.7223 88.9737 25.7124L89.2422 26.9403C89.156 26.9735 89.0334 27.0066 88.8743 27.0398C88.7152 27.0762 88.5163 27.0961 88.2777 27.0994C87.8866 27.1061 87.522 27.0365 87.1839 26.8906C86.8459 26.7448 86.5724 26.5194 86.3636 26.2145C86.1548 25.9096 86.0504 25.5268 86.0504 25.0661V17.5341ZM94.5717 27V16.8182H100.955V18.1406H96.108V21.2429H100.622V22.5604H96.108V25.6776H101.015V27H94.5717ZM105.747 27.1491C105.13 27.1491 104.58 26.9917 104.096 26.6768C103.615 26.3587 103.238 25.9062 102.963 25.3196C102.691 24.7296 102.555 24.022 102.555 23.1967C102.555 22.3714 102.692 21.6655 102.968 21.0788C103.246 20.4922 103.627 20.0431 104.111 19.7315C104.595 19.42 105.143 19.2642 105.757 19.2642C106.231 19.2642 106.612 19.3438 106.9 19.5028C107.192 19.6586 107.417 19.8409 107.576 20.0497C107.739 20.2585 107.865 20.4425 107.954 20.6016H108.044V16.8182H109.53V27H108.078V25.8118H107.954C107.865 25.9742 107.735 26.1598 107.566 26.3686C107.401 26.5774 107.172 26.7597 106.88 26.9155C106.588 27.0713 106.211 27.1491 105.747 27.1491ZM106.075 25.8814C106.502 25.8814 106.864 25.7687 107.159 25.5433C107.457 25.3146 107.682 24.9981 107.835 24.5938C107.99 24.1894 108.068 23.7187 108.068 23.1818C108.068 22.6515 107.992 22.1875 107.84 21.7898C107.687 21.392 107.463 21.0821 107.169 20.8601C106.874 20.638 106.509 20.527 106.075 20.527C105.627 20.527 105.254 20.643 104.956 20.875C104.658 21.107 104.432 21.4235 104.28 21.8246C104.131 22.2256 104.056 22.678 104.056 23.1818C104.056 23.6922 104.133 24.1513 104.285 24.5589C104.437 24.9666 104.663 25.2898 104.961 25.5284C105.263 25.7637 105.634 25.8814 106.075 25.8814ZM111.652 27V19.3636H113.138V27H111.652ZM112.402 18.1854C112.144 18.1854 111.922 18.0992 111.736 17.9268C111.554 17.7512 111.463 17.5424 111.463 17.3004C111.463 17.0552 111.554 16.8464 111.736 16.674C111.922 16.4983 112.144 16.4105 112.402 16.4105C112.661 16.4105 112.881 16.4983 113.064 16.674C113.249 16.8464 113.342 17.0552 113.342 17.3004C113.342 17.5424 113.249 17.7512 113.064 17.9268C112.881 18.0992 112.661 18.1854 112.402 18.1854ZM118.703 19.3636V20.5568H114.531V19.3636H118.703ZM115.65 17.5341H117.137V24.7578C117.137 25.0462 117.18 25.2633 117.266 25.4091C117.352 25.5516 117.463 25.6494 117.599 25.7024C117.738 25.7521 117.889 25.777 118.051 25.777C118.171 25.777 118.275 25.7687 118.365 25.7521C118.454 25.7356 118.524 25.7223 118.573 25.7124L118.842 26.9403C118.756 26.9735 118.633 27.0066 118.474 27.0398C118.315 27.0762 118.116 27.0961 117.877 27.0994C117.486 27.1061 117.122 27.0365 116.784 26.8906C116.445 26.7448 116.172 26.5194 115.963 26.2145C115.754 25.9096 115.65 25.5268 115.65 25.0661V17.5341ZM125.946 21.228L124.599 21.4666C124.543 21.2943 124.453 21.1302 124.33 20.9744C124.211 20.8187 124.049 20.6911 123.843 20.5916C123.638 20.4922 123.381 20.4425 123.073 20.4425C122.652 20.4425 122.3 20.5369 122.019 20.7259C121.737 20.9115 121.596 21.1518 121.596 21.4467C121.596 21.7019 121.691 21.9074 121.879 22.0632C122.068 22.219 122.373 22.3466 122.794 22.446L124.007 22.7244C124.71 22.8868 125.234 23.1371 125.578 23.4751C125.923 23.8132 126.095 24.2524 126.095 24.7926C126.095 25.25 125.963 25.6577 125.698 26.0156C125.436 26.3703 125.07 26.6487 124.599 26.8509C124.132 27.053 123.59 27.1541 122.973 27.1541C122.118 27.1541 121.42 26.9718 120.88 26.6072C120.34 26.2393 120.008 25.7173 119.886 25.0412L121.323 24.8224C121.412 25.197 121.596 25.4804 121.874 25.6726C122.153 25.8615 122.516 25.956 122.963 25.956C123.45 25.956 123.84 25.8549 124.132 25.6527C124.423 25.4472 124.569 25.197 124.569 24.902C124.569 24.6634 124.48 24.4628 124.301 24.3004C124.125 24.138 123.855 24.0154 123.49 23.9325L122.198 23.6491C121.485 23.4867 120.958 23.2282 120.617 22.8736C120.279 22.5189 120.11 22.0698 120.11 21.5263C120.11 21.0755 120.235 20.6811 120.487 20.343C120.739 20.005 121.087 19.7415 121.531 19.5526C121.976 19.3603 122.484 19.2642 123.058 19.2642C123.883 19.2642 124.533 19.4432 125.007 19.8011C125.481 20.1558 125.794 20.6314 125.946 21.228Z" fill="#2C2152"/>
</svg>
