<svg width="440" height="83" viewBox="0 0 440 83" fill="none" xmlns="http://www.w3.org/2000/svg">
<g filter="url(#filter0_d_181_5)">
<rect x="20" y="12" width="400" height="43" rx="12" fill="#6366F1"/>
<rect x="20.5" y="12.5" width="399" height="42" rx="11.5" stroke="#6366F1"/>
<path d="M173.092 31.4929C173.039 31.0223 172.82 30.6577 172.436 30.3991C172.051 30.1373 171.567 30.0064 170.984 30.0064C170.566 30.0064 170.205 30.0727 169.9 30.2053C169.595 30.3345 169.358 30.5135 169.189 30.7422C169.023 30.9676 168.941 31.2244 168.941 31.5128C168.941 31.7547 168.997 31.9635 169.11 32.1392C169.226 32.3149 169.376 32.4624 169.562 32.5817C169.751 32.6977 169.953 32.7955 170.169 32.875C170.384 32.9512 170.591 33.0142 170.79 33.0639L171.784 33.3224C172.109 33.402 172.442 33.5097 172.784 33.6456C173.125 33.7815 173.441 33.9605 173.733 34.1825C174.025 34.4046 174.26 34.6797 174.439 35.0078C174.621 35.3359 174.713 35.7287 174.713 36.1861C174.713 36.7628 174.563 37.2749 174.265 37.7223C173.97 38.1697 173.541 38.5227 172.977 38.7812C172.417 39.0398 171.74 39.169 170.944 39.169C170.182 39.169 169.522 39.0481 168.965 38.8061C168.409 38.5642 167.973 38.2211 167.658 37.777C167.343 37.3295 167.169 36.7992 167.136 36.1861H168.677C168.707 36.554 168.826 36.8606 169.035 37.1058C169.247 37.3478 169.517 37.5284 169.845 37.6477C170.177 37.7637 170.54 37.8217 170.934 37.8217C171.368 37.8217 171.754 37.7538 172.093 37.6179C172.434 37.4787 172.702 37.2865 172.898 37.0412C173.093 36.7926 173.191 36.5026 173.191 36.1712C173.191 35.8696 173.105 35.6226 172.933 35.4304C172.764 35.2382 172.533 35.0791 172.242 34.9531C171.953 34.8272 171.627 34.7161 171.262 34.62L170.059 34.2919C169.244 34.0698 168.597 33.7434 168.12 33.3125C167.646 32.8816 167.409 32.3116 167.409 31.6023C167.409 31.0156 167.568 30.5036 167.887 30.0661C168.205 29.6286 168.636 29.2888 169.179 29.0469C169.723 28.8016 170.336 28.679 171.019 28.679C171.708 28.679 172.316 28.8 172.843 29.0419C173.374 29.2839 173.791 29.617 174.096 30.0412C174.401 30.4621 174.56 30.946 174.573 31.4929H173.092ZM179.72 39.1541C178.968 39.1541 178.32 38.9934 177.776 38.6719C177.236 38.3471 176.818 37.8913 176.523 37.3047C176.232 36.7147 176.086 36.0237 176.086 35.2315C176.086 34.4493 176.232 33.7599 176.523 33.1634C176.818 32.5668 177.229 32.1011 177.756 31.7663C178.287 31.4316 178.906 31.2642 179.616 31.2642C180.047 31.2642 180.464 31.3355 180.869 31.478C181.273 31.6205 181.636 31.8442 181.957 32.1491C182.279 32.4541 182.532 32.8501 182.718 33.3374C182.904 33.8213 182.996 34.4096 182.996 35.1023V35.6293H176.926V34.5156H181.54C181.54 34.1245 181.46 33.7782 181.301 33.4766C181.142 33.1716 180.918 32.9313 180.63 32.7557C180.345 32.58 180.01 32.4922 179.626 32.4922C179.208 32.4922 178.844 32.5949 178.532 32.8004C178.224 33.0026 177.985 33.2678 177.816 33.5959C177.65 33.9207 177.567 34.2737 177.567 34.6548V35.5249C177.567 36.0353 177.657 36.4695 177.836 36.8274C178.018 37.1854 178.272 37.4588 178.597 37.6477C178.921 37.8333 179.301 37.9261 179.735 37.9261C180.017 37.9261 180.274 37.8864 180.506 37.8068C180.738 37.724 180.938 37.6013 181.107 37.4389C181.276 37.2765 181.406 37.076 181.495 36.8374L182.902 37.0909C182.789 37.5052 182.587 37.8681 182.295 38.1797C182.007 38.4879 181.644 38.7282 181.207 38.9006C180.772 39.0696 180.277 39.1541 179.72 39.1541ZM186.132 34.4659V39H184.646V31.3636H186.073V32.6065H186.167C186.343 32.2022 186.618 31.8774 186.992 31.6321C187.37 31.3868 187.846 31.2642 188.419 31.2642C188.94 31.2642 189.395 31.3736 189.786 31.5923C190.177 31.8078 190.481 32.1293 190.696 32.5568C190.912 32.9844 191.019 33.513 191.019 34.1428V39H189.533V34.3217C189.533 33.7682 189.389 33.3357 189.1 33.0241C188.812 32.7093 188.416 32.5518 187.912 32.5518C187.567 32.5518 187.261 32.6264 186.992 32.7756C186.727 32.9247 186.517 33.1435 186.361 33.4318C186.209 33.7169 186.132 34.0616 186.132 34.4659ZM195.872 39.1491C195.255 39.1491 194.705 38.9917 194.221 38.6768C193.74 38.3587 193.363 37.9062 193.088 37.3196C192.816 36.7296 192.68 36.022 192.68 35.1967C192.68 34.3714 192.817 33.6655 193.093 33.0788C193.371 32.4922 193.752 32.0431 194.236 31.7315C194.72 31.42 195.268 31.2642 195.882 31.2642C196.356 31.2642 196.737 31.3438 197.025 31.5028C197.317 31.6586 197.542 31.8409 197.701 32.0497C197.864 32.2585 197.99 32.4425 198.079 32.6016H198.169V28.8182H199.655V39H198.203V37.8118H198.079C197.99 37.9742 197.86 38.1598 197.691 38.3686C197.526 38.5774 197.297 38.7597 197.005 38.9155C196.713 39.0713 196.336 39.1491 195.872 39.1491ZM196.2 37.8814C196.627 37.8814 196.989 37.7687 197.284 37.5433C197.582 37.3146 197.807 36.9981 197.96 36.5938C198.115 36.1894 198.193 35.7187 198.193 35.1818C198.193 34.6515 198.117 34.1875 197.965 33.7898C197.812 33.392 197.588 33.0821 197.294 32.8601C196.999 32.638 196.634 32.527 196.2 32.527C195.752 32.527 195.379 32.643 195.081 32.875C194.783 33.107 194.557 33.4235 194.405 33.8246C194.256 34.2256 194.181 34.678 194.181 35.1818C194.181 35.6922 194.258 36.1513 194.41 36.5589C194.562 36.9666 194.788 37.2898 195.086 37.5284C195.388 37.7637 195.759 37.8814 196.2 37.8814ZM205.601 39V28.8182H209.23C210.019 28.8182 210.674 28.9541 211.194 29.2259C211.718 29.4976 212.109 29.8738 212.367 30.3544C212.626 30.8317 212.755 31.3835 212.755 32.0099C212.755 32.633 212.624 33.1816 212.362 33.6555C212.104 34.1262 211.713 34.4924 211.189 34.7543C210.669 35.0161 210.014 35.147 209.225 35.147H206.476V33.8246H209.086C209.583 33.8246 209.988 33.7533 210.299 33.6108C210.614 33.4683 210.844 33.2611 210.99 32.9893C211.136 32.7176 211.209 32.3911 211.209 32.0099C211.209 31.6255 211.134 31.2924 210.985 31.0107C210.839 30.7289 210.609 30.5135 210.294 30.3643C209.983 30.2119 209.573 30.1357 209.066 30.1357H207.137V39H205.601ZM210.627 34.4062L213.143 39H211.393L208.927 34.4062H210.627ZM217.701 39.1541C216.948 39.1541 216.3 38.9934 215.757 38.6719C215.217 38.3471 214.799 37.8913 214.504 37.3047C214.212 36.7147 214.066 36.0237 214.066 35.2315C214.066 34.4493 214.212 33.7599 214.504 33.1634C214.799 32.5668 215.21 32.1011 215.737 31.7663C216.267 31.4316 216.887 31.2642 217.596 31.2642C218.027 31.2642 218.445 31.3355 218.849 31.478C219.253 31.6205 219.616 31.8442 219.938 32.1491C220.259 32.4541 220.513 32.8501 220.699 33.3374C220.884 33.8213 220.977 34.4096 220.977 35.1023V35.6293H214.907V34.5156H219.52C219.52 34.1245 219.441 33.7782 219.282 33.4766C219.123 33.1716 218.899 32.9313 218.61 32.7557C218.325 32.58 217.991 32.4922 217.606 32.4922C217.189 32.4922 216.824 32.5949 216.512 32.8004C216.204 33.0026 215.966 33.2678 215.797 33.5959C215.631 33.9207 215.548 34.2737 215.548 34.6548V35.5249C215.548 36.0353 215.637 36.4695 215.816 36.8274C215.999 37.1854 216.252 37.4588 216.577 37.6477C216.902 37.8333 217.281 37.9261 217.716 37.9261C217.997 37.9261 218.254 37.8864 218.486 37.8068C218.718 37.724 218.919 37.6013 219.088 37.4389C219.257 37.2765 219.386 37.076 219.475 36.8374L220.882 37.0909C220.77 37.5052 220.568 37.8681 220.276 38.1797C219.988 38.4879 219.625 38.7282 219.187 38.9006C218.753 39.0696 218.257 39.1541 217.701 39.1541ZM228.349 33.228L227.001 33.4666C226.945 33.2943 226.855 33.1302 226.733 32.9744C226.613 32.8187 226.451 32.6911 226.246 32.5916C226.04 32.4922 225.783 32.4425 225.475 32.4425C225.054 32.4425 224.703 32.5369 224.421 32.7259C224.139 32.9115 223.998 33.1518 223.998 33.4467C223.998 33.7019 224.093 33.9074 224.282 34.0632C224.471 34.219 224.776 34.3466 225.197 34.446L226.41 34.7244C227.112 34.8868 227.636 35.1371 227.981 35.4751C228.325 35.8132 228.498 36.2524 228.498 36.7926C228.498 37.25 228.365 37.6577 228.1 38.0156C227.838 38.3703 227.472 38.6487 227.001 38.8509C226.534 39.053 225.992 39.1541 225.376 39.1541C224.52 39.1541 223.823 38.9718 223.282 38.6072C222.742 38.2393 222.411 37.7173 222.288 37.0412L223.725 36.8224C223.814 37.197 223.998 37.4804 224.277 37.6726C224.555 37.8615 224.918 37.956 225.366 37.956C225.853 37.956 226.242 37.8549 226.534 37.6527C226.826 37.4472 226.971 37.197 226.971 36.902C226.971 36.6634 226.882 36.4628 226.703 36.3004C226.527 36.138 226.257 36.0154 225.893 35.9325L224.6 35.6491C223.887 35.4867 223.36 35.2282 223.019 34.8736C222.681 34.5189 222.512 34.0698 222.512 33.5263C222.512 33.0755 222.638 32.6811 222.89 32.343C223.142 32.005 223.49 31.7415 223.934 31.5526C224.378 31.3603 224.887 31.2642 225.46 31.2642C226.285 31.2642 226.935 31.4432 227.409 31.8011C227.883 32.1558 228.196 32.6314 228.349 33.228ZM233.423 39.1541C232.671 39.1541 232.023 38.9934 231.479 38.6719C230.939 38.3471 230.522 37.8913 230.227 37.3047C229.935 36.7147 229.789 36.0237 229.789 35.2315C229.789 34.4493 229.935 33.7599 230.227 33.1634C230.522 32.5668 230.933 32.1011 231.46 31.7663C231.99 31.4316 232.61 31.2642 233.319 31.2642C233.75 31.2642 234.167 31.3355 234.572 31.478C234.976 31.6205 235.339 31.8442 235.661 32.1491C235.982 32.4541 236.236 32.8501 236.421 33.3374C236.607 33.8213 236.7 34.4096 236.7 35.1023V35.6293H230.629V34.5156H235.243C235.243 34.1245 235.163 33.7782 235.004 33.4766C234.845 33.1716 234.621 32.9313 234.333 32.7557C234.048 32.58 233.713 32.4922 233.329 32.4922C232.911 32.4922 232.547 32.5949 232.235 32.8004C231.927 33.0026 231.688 33.2678 231.519 33.5959C231.353 33.9207 231.271 34.2737 231.271 34.6548V35.5249C231.271 36.0353 231.36 36.4695 231.539 36.8274C231.721 37.1854 231.975 37.4588 232.3 37.6477C232.625 37.8333 233.004 37.9261 233.438 37.9261C233.72 37.9261 233.977 37.8864 234.209 37.8068C234.441 37.724 234.641 37.6013 234.81 37.4389C234.979 37.2765 235.109 37.076 235.198 36.8374L236.605 37.0909C236.492 37.5052 236.29 37.8681 235.999 38.1797C235.71 38.4879 235.347 38.7282 234.91 38.9006C234.476 39.0696 233.98 39.1541 233.423 39.1541ZM241.914 31.3636V32.5568H237.742V31.3636H241.914ZM238.861 29.5341H240.347V36.7578C240.347 37.0462 240.391 37.2633 240.477 37.4091C240.563 37.5516 240.674 37.6494 240.81 37.7024C240.949 37.7521 241.1 37.777 241.262 37.777C241.382 37.777 241.486 37.7687 241.575 37.7521C241.665 37.7356 241.735 37.7223 241.784 37.7124L242.053 38.9403C241.967 38.9735 241.844 39.0066 241.685 39.0398C241.526 39.0762 241.327 39.0961 241.088 39.0994C240.697 39.1061 240.333 39.0365 239.994 38.8906C239.656 38.7448 239.383 38.5194 239.174 38.2145C238.965 37.9096 238.861 37.5268 238.861 37.0661V29.5341ZM247.382 39V28.8182H248.919V37.6776H253.532V39H247.382ZM255.165 39V31.3636H256.652V39H255.165ZM255.916 30.1854C255.657 30.1854 255.435 30.0992 255.25 29.9268C255.068 29.7512 254.976 29.5424 254.976 29.3004C254.976 29.0552 255.068 28.8464 255.25 28.674C255.435 28.4983 255.657 28.4105 255.916 28.4105C256.175 28.4105 256.395 28.4983 256.577 28.674C256.763 28.8464 256.856 29.0552 256.856 29.3004C256.856 29.5424 256.763 29.7512 256.577 29.9268C256.395 30.0992 256.175 30.1854 255.916 30.1854ZM260.138 34.4659V39H258.652V31.3636H260.078V32.6065H260.173C260.349 32.2022 260.624 31.8774 260.998 31.6321C261.376 31.3868 261.852 31.2642 262.425 31.2642C262.945 31.2642 263.401 31.3736 263.792 31.5923C264.183 31.8078 264.487 32.1293 264.702 32.5568C264.917 32.9844 265.025 33.513 265.025 34.1428V39H263.539V34.3217C263.539 33.7682 263.395 33.3357 263.106 33.0241C262.818 32.7093 262.422 32.5518 261.918 32.5518C261.573 32.5518 261.267 32.6264 260.998 32.7756C260.733 32.9247 260.523 33.1435 260.367 33.4318C260.214 33.7169 260.138 34.0616 260.138 34.4659ZM268.386 36.4098L268.376 34.5952H268.635L271.677 31.3636H273.457L269.987 35.0426H269.753L268.386 36.4098ZM267.019 39V28.8182H268.505V39H267.019ZM271.841 39L269.107 35.3707L270.131 34.3317L273.666 39H271.841Z" fill="#F8FAFC"/>
</g>
<defs>
<filter id="filter0_d_181_5" x="0" y="0" width="440" height="83" filterUnits="userSpaceOnUse" color-interpolation-filters="sRGB">
<feFlood flood-opacity="0" result="BackgroundImageFix"/>
<feColorMatrix in="SourceAlpha" type="matrix" values="0 0 0 0 0 0 0 0 0 0 0 0 0 0 0 0 0 0 127 0" result="hardAlpha"/>
<feOffset dy="8"/>
<feGaussianBlur stdDeviation="10"/>
<feComposite in2="hardAlpha" operator="out"/>
<feColorMatrix type="matrix" values="0 0 0 0 0.701961 0 0 0 0 0.533333 0 0 0 0 1 0 0 0 0.3 0"/>
<feBlend mode="normal" in2="BackgroundImageFix" result="effect1_dropShadow_181_5"/>
<feBlend mode="normal" in="SourceGraphic" in2="effect1_dropShadow_181_5" result="shape"/>
</filter>
</defs>
</svg>
