<svg width="158" height="43" viewBox="0 0 158 43" fill="none" xmlns="http://www.w3.org/2000/svg">
<rect x="0.5" y="0.5" width="156.09" height="42" rx="11.5" fill="#6366F1"/>
<rect x="0.5" y="0.5" width="156.09" height="42" rx="11.5" stroke="#6366F1"/>
<path d="M24 27.5C28.1421 27.5 31.5 24.1421 31.5 20C31.5 15.8579 28.1421 12.5 24 12.5C19.8579 12.5 16.5 15.8579 16.5 20C16.5 24.1421 19.8579 27.5 24 27.5Z" stroke="#F8FAFC" stroke-width="1.5" stroke-linecap="round" stroke-linejoin="round"/>
<path d="M21.75 20L23.25 21.5L26.25 18.5" stroke="#F8FAFC" stroke-width="1.5" stroke-linecap="round" stroke-linejoin="round"/>
<path d="M42.1186 25.5V15.3182H45.7479C46.5367 15.3182 47.1913 15.4541 47.7116 15.7259C48.2353 15.9976 48.6264 16.3738 48.8849 16.8544C49.1435 17.3317 49.2727 17.8835 49.2727 18.5099C49.2727 19.133 49.1418 19.6816 48.88 20.1555C48.6214 20.6262 48.2304 20.9924 47.7067 21.2543C47.1863 21.5161 46.5317 21.647 45.7429 21.647H42.9936V20.3246H45.6037C46.1009 20.3246 46.5052 20.2533 46.8168 20.1108C47.1316 19.9683 47.362 19.7611 47.5078 19.4893C47.6536 19.2176 47.7266 18.8911 47.7266 18.5099C47.7266 18.1255 47.652 17.7924 47.5028 17.5107C47.357 17.2289 47.1267 17.0135 46.8118 16.8643C46.5002 16.7119 46.0909 16.6357 45.5838 16.6357H43.6548V25.5H42.1186ZM47.1449 20.9062L49.6605 25.5H47.9105L45.4446 20.9062H47.1449ZM54.2182 25.6541C53.4658 25.6541 52.8179 25.4934 52.2743 25.1719C51.7341 24.8471 51.3165 24.3913 51.0215 23.8047C50.7298 23.2147 50.584 22.5237 50.584 21.7315C50.584 20.9493 50.7298 20.2599 51.0215 19.6634C51.3165 19.0668 51.7275 18.6011 52.2544 18.2663C52.7847 17.9316 53.4045 17.7642 54.1138 17.7642C54.5447 17.7642 54.9623 17.8355 55.3667 17.978C55.771 18.1205 56.1339 18.3442 56.4554 18.6491C56.7769 18.9541 57.0305 19.3501 57.2161 19.8374C57.4017 20.3213 57.4945 20.9096 57.4945 21.6023V22.1293H51.4242V21.0156H56.0378C56.0378 20.6245 55.9583 20.2782 55.7992 19.9766C55.6401 19.6716 55.4164 19.4313 55.128 19.2557C54.843 19.08 54.5082 18.9922 54.1238 18.9922C53.7061 18.9922 53.3416 19.0949 53.03 19.3004C52.7218 19.5026 52.4831 19.7678 52.3141 20.0959C52.1484 20.4207 52.0655 20.7737 52.0655 21.1548V22.0249C52.0655 22.5353 52.155 22.9695 52.334 23.3274C52.5163 23.6854 52.7698 23.9588 53.0946 24.1477C53.4194 24.3333 53.7989 24.4261 54.2331 24.4261C54.5149 24.4261 54.7717 24.3864 55.0037 24.3068C55.2357 24.224 55.4363 24.1013 55.6053 23.9389C55.7743 23.7765 55.9036 23.576 55.9931 23.3374L57.4 23.5909C57.2873 24.0052 57.0852 24.3681 56.7935 24.6797C56.5051 24.9879 56.1422 25.2282 55.7047 25.4006C55.2705 25.5696 54.775 25.6541 54.2182 25.6541ZM64.8661 19.728L63.5188 19.9666C63.4625 19.7943 63.373 19.6302 63.2504 19.4744C63.131 19.3187 62.9686 19.1911 62.7631 19.0916C62.5576 18.9922 62.3008 18.9425 61.9925 18.9425C61.5716 18.9425 61.2203 19.0369 60.9386 19.2259C60.6568 19.4115 60.516 19.6518 60.516 19.9467C60.516 20.2019 60.6104 20.4074 60.7994 20.5632C60.9883 20.719 61.2932 20.8466 61.7141 20.946L62.9272 21.2244C63.6299 21.3868 64.1535 21.6371 64.4982 21.9751C64.8429 22.3132 65.0153 22.7524 65.0153 23.2926C65.0153 23.75 64.8827 24.1577 64.6175 24.5156C64.3557 24.8703 63.9895 25.1487 63.5188 25.3509C63.0515 25.553 62.5096 25.6541 61.8931 25.6541C61.038 25.6541 60.3403 25.4718 59.8001 25.1072C59.2598 24.7393 58.9284 24.2173 58.8058 23.5412L60.2425 23.3224C60.332 23.697 60.516 23.9804 60.7944 24.1726C61.0728 24.3615 61.4357 24.456 61.8832 24.456C62.3704 24.456 62.7598 24.3549 63.0515 24.1527C63.3432 23.9472 63.489 23.697 63.489 23.402C63.489 23.1634 63.3995 22.9628 63.2205 22.8004C63.0449 22.638 62.7747 22.5154 62.4102 22.4325L61.1175 22.1491C60.4049 21.9867 59.878 21.7282 59.5366 21.3736C59.1985 21.0189 59.0295 20.5698 59.0295 20.0263C59.0295 19.5755 59.1554 19.1811 59.4073 18.843C59.6592 18.505 60.0072 18.2415 60.4513 18.0526C60.8955 17.8603 61.4042 17.7642 61.9776 17.7642C62.8029 17.7642 63.4525 17.9432 63.9265 18.3011C64.4005 18.6558 64.7137 19.1314 64.8661 19.728ZM69.8663 25.6541C69.1504 25.6541 68.5256 25.4901 67.992 25.1619C67.4584 24.8338 67.0441 24.3748 66.7491 23.7848C66.4541 23.1948 66.3066 22.5054 66.3066 21.7166C66.3066 20.9245 66.4541 20.2318 66.7491 19.6385C67.0441 19.0452 67.4584 18.5845 67.992 18.2564C68.5256 17.9283 69.1504 17.7642 69.8663 17.7642C70.5822 17.7642 71.207 17.9283 71.7406 18.2564C72.2742 18.5845 72.6885 19.0452 72.9835 19.6385C73.2785 20.2318 73.426 20.9245 73.426 21.7166C73.426 22.5054 73.2785 23.1948 72.9835 23.7848C72.6885 24.3748 72.2742 24.8338 71.7406 25.1619C71.207 25.4901 70.5822 25.6541 69.8663 25.6541ZM69.8713 24.4062C70.3353 24.4062 70.7198 24.2836 71.0247 24.0384C71.3296 23.7931 71.555 23.4666 71.7008 23.0589C71.85 22.6513 71.9245 22.2022 71.9245 21.7116C71.9245 21.2244 71.85 20.777 71.7008 20.3693C71.555 19.9583 71.3296 19.6286 71.0247 19.38C70.7198 19.1314 70.3353 19.0071 69.8713 19.0071C69.4039 19.0071 69.0162 19.1314 68.7079 19.38C68.403 19.6286 68.176 19.9583 68.0268 20.3693C67.881 20.777 67.8081 21.2244 67.8081 21.7116C67.8081 22.2022 67.881 22.6513 68.0268 23.0589C68.176 23.4666 68.403 23.7931 68.7079 24.0384C69.0162 24.2836 69.4039 24.4062 69.8713 24.4062ZM76.5717 15.3182V25.5H75.0852V15.3182H76.5717ZM85.1042 17.8636L82.335 25.5H80.7441L77.97 17.8636H79.5659L81.4998 23.7401H81.5794L83.5083 17.8636H85.1042ZM89.5327 25.6541C88.7803 25.6541 88.1323 25.4934 87.5888 25.1719C87.0485 24.8471 86.6309 24.3913 86.3359 23.8047C86.0443 23.2147 85.8984 22.5237 85.8984 21.7315C85.8984 20.9493 86.0443 20.2599 86.3359 19.6634C86.6309 19.0668 87.0419 18.6011 87.5689 18.2663C88.0992 17.9316 88.719 17.7642 89.4283 17.7642C89.8591 17.7642 90.2768 17.8355 90.6811 17.978C91.0855 18.1205 91.4484 18.3442 91.7699 18.6491C92.0914 18.9541 92.3449 19.3501 92.5305 19.8374C92.7161 20.3213 92.8089 20.9096 92.8089 21.6023V22.1293H86.7386V21.0156H91.3523C91.3523 20.6245 91.2727 20.2782 91.1136 19.9766C90.9545 19.6716 90.7308 19.4313 90.4425 19.2557C90.1574 19.08 89.8227 18.9922 89.4382 18.9922C89.0206 18.9922 88.656 19.0949 88.3445 19.3004C88.0362 19.5026 87.7976 19.7678 87.6286 20.0959C87.4628 20.4207 87.38 20.7737 87.38 21.1548V22.0249C87.38 22.5353 87.4695 22.9695 87.6484 23.3274C87.8307 23.6854 88.0843 23.9588 88.4091 24.1477C88.7339 24.3333 89.1134 24.4261 89.5476 24.4261C89.8293 24.4261 90.0862 24.3864 90.3182 24.3068C90.5502 24.224 90.7507 24.1013 90.9197 23.9389C91.0888 23.7765 91.218 23.576 91.3075 23.3374L92.7145 23.5909C92.6018 24.0052 92.3996 24.3681 92.108 24.6797C91.8196 24.9879 91.4567 25.2282 91.0192 25.4006C90.585 25.5696 90.0895 25.6541 89.5327 25.6541ZM98.2827 25.5V15.3182H101.912C102.701 15.3182 103.355 15.4541 103.876 15.7259C104.399 15.9976 104.79 16.3738 105.049 16.8544C105.308 17.3317 105.437 17.8835 105.437 18.5099C105.437 19.133 105.306 19.6816 105.044 20.1555C104.786 20.6262 104.394 20.9924 103.871 21.2543C103.35 21.5161 102.696 21.647 101.907 21.647H99.1577V20.3246H101.768C102.265 20.3246 102.669 20.2533 102.981 20.1108C103.296 19.9683 103.526 19.7611 103.672 19.4893C103.818 19.2176 103.891 18.8911 103.891 18.5099C103.891 18.1255 103.816 17.7924 103.667 17.5107C103.521 17.2289 103.291 17.0135 102.976 16.8643C102.664 16.7119 102.255 16.6357 101.748 16.6357H99.8189V25.5H98.2827ZM103.309 20.9062L105.825 25.5H104.075L101.609 20.9062H103.309ZM110.382 25.6541C109.63 25.6541 108.982 25.4934 108.438 25.1719C107.898 24.8471 107.481 24.3913 107.186 23.8047C106.894 23.2147 106.748 22.5237 106.748 21.7315C106.748 20.9493 106.894 20.2599 107.186 19.6634C107.481 19.0668 107.892 18.6011 108.419 18.2663C108.949 17.9316 109.569 17.7642 110.278 17.7642C110.709 17.7642 111.126 17.8355 111.531 17.978C111.935 18.1205 112.298 18.3442 112.619 18.6491C112.941 18.9541 113.195 19.3501 113.38 19.8374C113.566 20.3213 113.659 20.9096 113.659 21.6023V22.1293H107.588V21.0156H112.202C112.202 20.6245 112.122 20.2782 111.963 19.9766C111.804 19.6716 111.58 19.4313 111.292 19.2557C111.007 19.08 110.672 18.9922 110.288 18.9922C109.87 18.9922 109.506 19.0949 109.194 19.3004C108.886 19.5026 108.647 19.7678 108.478 20.0959C108.312 20.4207 108.23 20.7737 108.23 21.1548V22.0249C108.23 22.5353 108.319 22.9695 108.498 23.3274C108.68 23.6854 108.934 23.9588 109.259 24.1477C109.584 24.3333 109.963 24.4261 110.397 24.4261C110.679 24.4261 110.936 24.3864 111.168 24.3068C111.4 24.224 111.6 24.1013 111.769 23.9389C111.938 23.7765 112.068 23.576 112.157 23.3374L113.564 23.5909C113.451 24.0052 113.249 24.3681 112.958 24.6797C112.669 24.9879 112.306 25.2282 111.869 25.4006C111.435 25.5696 110.939 25.6541 110.382 25.6541ZM115.308 28.3636V17.8636H116.76V19.1016H116.884C116.97 18.9425 117.094 18.7585 117.257 18.5497C117.419 18.3409 117.645 18.1586 117.933 18.0028C118.221 17.8438 118.602 17.7642 119.076 17.7642C119.693 17.7642 120.243 17.92 120.727 18.2315C121.211 18.5431 121.59 18.9922 121.865 19.5788C122.144 20.1655 122.283 20.8714 122.283 21.6967C122.283 22.522 122.145 23.2296 121.87 23.8196C121.595 24.4062 121.217 24.8587 120.737 25.1768C120.256 25.4917 119.708 25.6491 119.091 25.6491C118.627 25.6491 118.248 25.5713 117.953 25.4155C117.661 25.2597 117.432 25.0774 117.267 24.8686C117.101 24.6598 116.973 24.4742 116.884 24.3118H116.794V28.3636H115.308ZM116.765 21.6818C116.765 22.2187 116.842 22.6894 116.998 23.0938C117.154 23.4981 117.379 23.8146 117.674 24.0433C117.969 24.2687 118.331 24.3814 118.758 24.3814C119.202 24.3814 119.574 24.2637 119.872 24.0284C120.17 23.7898 120.395 23.4666 120.548 23.0589C120.704 22.6513 120.782 22.1922 120.782 21.6818C120.782 21.178 120.705 20.7256 120.553 20.3246C120.404 19.9235 120.178 19.607 119.877 19.375C119.578 19.143 119.206 19.027 118.758 19.027C118.327 19.027 117.963 19.138 117.664 19.3601C117.369 19.5821 117.146 19.892 116.993 20.2898C116.841 20.6875 116.765 21.1515 116.765 21.6818ZM127.165 25.6541C126.449 25.6541 125.824 25.4901 125.291 25.1619C124.757 24.8338 124.343 24.3748 124.048 23.7848C123.753 23.1948 123.605 22.5054 123.605 21.7166C123.605 20.9245 123.753 20.2318 124.048 19.6385C124.343 19.0452 124.757 18.5845 125.291 18.2564C125.824 17.9283 126.449 17.7642 127.165 17.7642C127.881 17.7642 128.506 17.9283 129.039 18.2564C129.573 18.5845 129.987 19.0452 130.282 19.6385C130.577 20.2318 130.725 20.9245 130.725 21.7166C130.725 22.5054 130.577 23.1948 130.282 23.7848C129.987 24.3748 129.573 24.8338 129.039 25.1619C128.506 25.4901 127.881 25.6541 127.165 25.6541ZM127.17 24.4062C127.634 24.4062 128.019 24.2836 128.324 24.0384C128.628 23.7931 128.854 23.4666 129 23.0589C129.149 22.6513 129.223 22.2022 129.223 21.7116C129.223 21.2244 129.149 20.777 129 20.3693C128.854 19.9583 128.628 19.6286 128.324 19.38C128.019 19.1314 127.634 19.0071 127.17 19.0071C126.703 19.0071 126.315 19.1314 126.007 19.38C125.702 19.6286 125.475 19.9583 125.326 20.3693C125.18 20.777 125.107 21.2244 125.107 21.7116C125.107 22.2022 125.18 22.6513 125.326 23.0589C125.475 23.4666 125.702 23.7931 126.007 24.0384C126.315 24.2836 126.703 24.4062 127.17 24.4062ZM132.384 25.5V17.8636H133.821V19.0767H133.9C134.04 18.6657 134.285 18.3426 134.636 18.1072C134.991 17.8686 135.392 17.7493 135.839 17.7493C135.932 17.7493 136.041 17.7526 136.167 17.7592C136.297 17.7659 136.398 17.7741 136.471 17.7841V19.206C136.411 19.1894 136.305 19.1712 136.153 19.1513C136 19.1281 135.848 19.1165 135.695 19.1165C135.344 19.1165 135.031 19.1911 134.756 19.3402C134.484 19.486 134.268 19.6899 134.109 19.9517C133.95 20.2102 133.871 20.5052 133.871 20.8366V25.5H132.384ZM141.773 17.8636V19.0568H137.602V17.8636H141.773ZM138.72 16.0341H140.207V23.2578C140.207 23.5462 140.25 23.7633 140.336 23.9091C140.422 24.0516 140.533 24.1494 140.669 24.2024C140.808 24.2521 140.959 24.277 141.122 24.277C141.241 24.277 141.345 24.2687 141.435 24.2521C141.524 24.2356 141.594 24.2223 141.644 24.2124L141.912 25.4403C141.826 25.4735 141.703 25.5066 141.544 25.5398C141.385 25.5762 141.186 25.5961 140.948 25.5994C140.557 25.6061 140.192 25.5365 139.854 25.3906C139.516 25.2448 139.242 25.0194 139.034 24.7145C138.825 24.4096 138.72 24.0268 138.72 23.5661V16.0341Z" fill="#F8FAFC"/>
</svg>
