<svg width="166" height="41" viewBox="0 0 166 41" fill="none" xmlns="http://www.w3.org/2000/svg">
<rect x="0.5" y="0.5" width="164.38" height="40" rx="11.5" fill="#6366F1"/>
<rect x="0.5" y="0.5" width="164.38" height="40" rx="11.5" stroke="#6366F1"/>
<path d="M41.377 19.4929C41.3239 19.0223 41.1052 18.6577 40.7207 18.3991C40.3362 18.1373 39.8523 18.0064 39.269 18.0064C38.8514 18.0064 38.4901 18.0727 38.1852 18.2053C37.8803 18.3345 37.6433 18.5135 37.4743 18.7422C37.3085 18.9676 37.2257 19.2244 37.2257 19.5128C37.2257 19.7547 37.282 19.9635 37.3947 20.1392C37.5107 20.3149 37.6615 20.4624 37.8471 20.5817C38.036 20.6977 38.2382 20.7955 38.4537 20.875C38.6691 20.9512 38.8762 21.0142 39.0751 21.0639L40.0694 21.3224C40.3942 21.402 40.7273 21.5097 41.0687 21.6456C41.4101 21.7815 41.7266 21.9605 42.0183 22.1825C42.31 22.4046 42.5453 22.6797 42.7243 23.0078C42.9065 23.3359 42.9977 23.7287 42.9977 24.1861C42.9977 24.7628 42.8485 25.2749 42.5502 25.7223C42.2553 26.1697 41.8261 26.5227 41.2626 26.7812C40.7025 27.0398 40.0247 27.169 39.2292 27.169C38.4669 27.169 37.8074 27.0481 37.2505 26.8061C36.6937 26.5642 36.2579 26.2211 35.943 25.777C35.6281 25.3295 35.4541 24.7992 35.421 24.1861H36.9622C36.992 24.554 37.1113 24.8606 37.3201 25.1058C37.5323 25.3478 37.8024 25.5284 38.1305 25.6477C38.4619 25.7637 38.8249 25.8217 39.2193 25.8217C39.6535 25.8217 40.0396 25.7538 40.3777 25.6179C40.719 25.4787 40.9875 25.2865 41.1831 25.0412C41.3786 24.7926 41.4764 24.5026 41.4764 24.1712C41.4764 23.8696 41.3902 23.6226 41.2179 23.4304C41.0488 23.2382 40.8185 23.0791 40.5268 22.9531C40.2385 22.8272 39.912 22.7161 39.5474 22.62L38.3443 22.2919C37.5289 22.0698 36.8826 21.7434 36.4054 21.3125C35.9314 20.8816 35.6944 20.3116 35.6944 19.6023C35.6944 19.0156 35.8535 18.5036 36.1717 18.0661C36.4899 17.6286 36.9208 17.2888 37.4643 17.0469C38.0079 16.8016 38.621 16.679 39.3038 16.679C39.9932 16.679 40.6014 16.8 41.1284 17.0419C41.6587 17.2839 42.0763 17.617 42.3812 18.0412C42.6861 18.4621 42.8452 18.946 42.8585 19.4929H41.377ZM48.0053 27.1541C47.253 27.1541 46.605 26.9934 46.0614 26.6719C45.5212 26.3471 45.1036 25.8913 44.8086 25.3047C44.5169 24.7147 44.3711 24.0237 44.3711 23.2315C44.3711 22.4493 44.5169 21.7599 44.8086 21.1634C45.1036 20.5668 45.5146 20.1011 46.0415 19.7663C46.5719 19.4316 47.1916 19.2642 47.9009 19.2642C48.3318 19.2642 48.7494 19.3355 49.1538 19.478C49.5581 19.6205 49.921 19.8442 50.2425 20.1491C50.564 20.4541 50.8176 20.8501 51.0032 21.3374C51.1888 21.8213 51.2816 22.4096 51.2816 23.1023V23.6293H45.2113V22.5156H49.8249C49.8249 22.1245 49.7454 21.7782 49.5863 21.4766C49.4272 21.1716 49.2035 20.9313 48.9151 20.7557C48.6301 20.58 48.2953 20.4922 47.9109 20.4922C47.4933 20.4922 47.1287 20.5949 46.8171 20.8004C46.5089 21.0026 46.2702 21.2678 46.1012 21.5959C45.9355 21.9207 45.8526 22.2737 45.8526 22.6548V23.5249C45.8526 24.0353 45.9421 24.4695 46.1211 24.8274C46.3034 25.1854 46.5569 25.4588 46.8817 25.6477C47.2066 25.8333 47.5861 25.9261 48.0202 25.9261C48.302 25.9261 48.5588 25.8864 48.7908 25.8068C49.0228 25.724 49.2234 25.6013 49.3924 25.4389C49.5614 25.2765 49.6907 25.076 49.7802 24.8374L51.1871 25.0909C51.0745 25.5052 50.8723 25.8681 50.5806 26.1797C50.2923 26.4879 49.9293 26.7282 49.4918 26.9006C49.0576 27.0696 48.5621 27.1541 48.0053 27.1541ZM54.4174 22.4659V27H52.9309V19.3636H54.3578V20.6065H54.4522C54.6279 20.2022 54.903 19.8774 55.2775 19.6321C55.6554 19.3868 56.131 19.2642 56.7044 19.2642C57.2247 19.2642 57.6805 19.3736 58.0716 19.5923C58.4627 19.8078 58.7659 20.1293 58.9814 20.5568C59.1968 20.9844 59.3045 21.513 59.3045 22.1428V27H57.818V22.3217C57.818 21.7682 57.6738 21.3357 57.3855 21.0241C57.0971 20.7093 56.7011 20.5518 56.1973 20.5518C55.8526 20.5518 55.546 20.6264 55.2775 20.7756C55.0124 20.9247 54.8019 21.1435 54.6461 21.4318C54.4937 21.7169 54.4174 22.0616 54.4174 22.4659ZM64.1568 27.1491C63.5403 27.1491 62.9901 26.9917 62.5062 26.6768C62.0256 26.3587 61.6478 25.9062 61.3727 25.3196C61.1009 24.7296 60.965 24.022 60.965 23.1967C60.965 22.3714 61.1026 21.6655 61.3777 21.0788C61.6561 20.4922 62.0372 20.0431 62.5211 19.7315C63.005 19.42 63.5536 19.2642 64.1667 19.2642C64.6407 19.2642 65.0218 19.3438 65.3102 19.5028C65.6019 19.6586 65.8272 19.8409 65.9863 20.0497C66.1487 20.2585 66.2747 20.4425 66.3642 20.6016H66.4537V16.8182H67.9402V27H66.4885V25.8118H66.3642C66.2747 25.9742 66.1454 26.1598 65.9764 26.3686C65.8107 26.5774 65.582 26.7597 65.2903 26.9155C64.9986 27.0713 64.6208 27.1491 64.1568 27.1491ZM64.4849 25.8814C64.9125 25.8814 65.2737 25.7687 65.5687 25.5433C65.867 25.3146 66.0924 24.9981 66.2449 24.5938C66.4006 24.1894 66.4785 23.7187 66.4785 23.1818C66.4785 22.6515 66.4023 22.1875 66.2498 21.7898C66.0974 21.392 65.8736 21.0821 65.5787 20.8601C65.2837 20.638 64.9191 20.527 64.4849 20.527C64.0375 20.527 63.6646 20.643 63.3663 20.875C63.068 21.107 62.8426 21.4235 62.6902 21.8246C62.541 22.2256 62.4664 22.678 62.4664 23.1818C62.4664 23.6922 62.5427 24.1513 62.6951 24.5589C62.8476 24.9666 63.073 25.2898 63.3713 25.5284C63.6729 25.7637 64.0441 25.8814 64.4849 25.8814ZM82.1042 16.8182V27H80.6923L75.5169 19.5327H75.4224V27H73.8862V16.8182H75.3081L80.4885 24.2955H80.5829V16.8182H82.1042ZM87.4425 27.1541C86.7266 27.1541 86.1018 26.9901 85.5682 26.6619C85.0346 26.3338 84.6203 25.8748 84.3253 25.2848C84.0303 24.6948 83.8828 24.0054 83.8828 23.2166C83.8828 22.4245 84.0303 21.7318 84.3253 21.1385C84.6203 20.5452 85.0346 20.0845 85.5682 19.7564C86.1018 19.4283 86.7266 19.2642 87.4425 19.2642C88.1584 19.2642 88.7831 19.4283 89.3168 19.7564C89.8504 20.0845 90.2647 20.5452 90.5597 21.1385C90.8546 21.7318 91.0021 22.4245 91.0021 23.2166C91.0021 24.0054 90.8546 24.6948 90.5597 25.2848C90.2647 25.8748 89.8504 26.3338 89.3168 26.6619C88.7831 26.9901 88.1584 27.1541 87.4425 27.1541ZM87.4474 25.9062C87.9115 25.9062 88.2959 25.7836 88.6009 25.5384C88.9058 25.2931 89.1312 24.9666 89.277 24.5589C89.4261 24.1513 89.5007 23.7022 89.5007 23.2116C89.5007 22.7244 89.4261 22.277 89.277 21.8693C89.1312 21.4583 88.9058 21.1286 88.6009 20.88C88.2959 20.6314 87.9115 20.5071 87.4474 20.5071C86.9801 20.5071 86.5923 20.6314 86.2841 20.88C85.9792 21.1286 85.7521 21.4583 85.603 21.8693C85.4571 22.277 85.3842 22.7244 85.3842 23.2116C85.3842 23.7022 85.4571 24.1513 85.603 24.5589C85.7521 24.9666 85.9792 25.2931 86.2841 25.5384C86.5923 25.7836 86.9801 25.9062 87.4474 25.9062ZM96.226 19.3636V20.5568H92.0549V19.3636H96.226ZM93.1735 17.5341H94.66V24.7578C94.66 25.0462 94.7031 25.2633 94.7892 25.4091C94.8754 25.5516 94.9864 25.6494 95.1223 25.7024C95.2615 25.7521 95.4123 25.777 95.5748 25.777C95.6941 25.777 95.7985 25.7687 95.888 25.7521C95.9775 25.7356 96.0471 25.7223 96.0968 25.7124L96.3652 26.9403C96.2791 26.9735 96.1564 27.0066 95.9973 27.0398C95.8382 27.0762 95.6394 27.0961 95.4007 27.0994C95.0096 27.1061 94.6451 27.0365 94.307 26.8906C93.9689 26.7448 93.6955 26.5194 93.4867 26.2145C93.2779 25.9096 93.1735 25.5268 93.1735 25.0661V17.5341ZM97.8704 27V19.3636H99.3569V27H97.8704ZM98.6211 18.1854C98.3626 18.1854 98.1405 18.0992 97.9549 17.9268C97.7726 17.7512 97.6815 17.5424 97.6815 17.3004C97.6815 17.0552 97.7726 16.8464 97.9549 16.674C98.1405 16.4983 98.3626 16.4105 98.6211 16.4105C98.8796 16.4105 99.1 16.4983 99.2823 16.674C99.4679 16.8464 99.5607 17.0552 99.5607 17.3004C99.5607 17.5424 99.4679 17.7512 99.2823 17.9268C99.1 18.0992 98.8796 18.1854 98.6211 18.1854ZM104.991 19.3636V20.5568H100.676V19.3636H104.991ZM101.859 27V18.4787C101.859 18.0014 101.963 17.6053 102.172 17.2905C102.381 16.9723 102.658 16.7353 103.002 16.5795C103.347 16.4205 103.722 16.3409 104.126 16.3409C104.424 16.3409 104.679 16.3658 104.892 16.4155C105.104 16.4619 105.261 16.505 105.364 16.5447L105.016 17.7479C104.946 17.728 104.857 17.7048 104.747 17.6783C104.638 17.6484 104.505 17.6335 104.35 17.6335C103.988 17.6335 103.73 17.723 103.574 17.902C103.422 18.081 103.345 18.3395 103.345 18.6776V27H101.859ZM106.525 27V19.3636H108.011V27H106.525ZM107.275 18.1854C107.017 18.1854 106.795 18.0992 106.609 17.9268C106.427 17.7512 106.336 17.5424 106.336 17.3004C106.336 17.0552 106.427 16.8464 106.609 16.674C106.795 16.4983 107.017 16.4105 107.275 16.4105C107.534 16.4105 107.754 16.4983 107.937 16.674C108.122 16.8464 108.215 17.0552 108.215 17.3004C108.215 17.5424 108.122 17.7512 107.937 17.9268C107.754 18.0992 107.534 18.1854 107.275 18.1854ZM113.228 27.1541C112.489 27.1541 111.852 26.9867 111.319 26.652C110.788 26.3139 110.381 25.8482 110.096 25.255C109.81 24.6617 109.668 23.9822 109.668 23.2166C109.668 22.4411 109.814 21.7566 110.105 21.1634C110.397 20.5668 110.808 20.1011 111.338 19.7663C111.869 19.4316 112.493 19.2642 113.213 19.2642C113.793 19.2642 114.31 19.3719 114.764 19.5874C115.218 19.7995 115.584 20.0978 115.863 20.4822C116.144 20.8667 116.312 21.3158 116.365 21.8295H114.918C114.838 21.4716 114.656 21.1634 114.371 20.9048C114.089 20.6463 113.712 20.517 113.238 20.517C112.823 20.517 112.46 20.6264 112.149 20.8452C111.841 21.0606 111.6 21.3688 111.428 21.7699C111.256 22.1676 111.169 22.6383 111.169 23.1818C111.169 23.7386 111.254 24.2192 111.423 24.6236C111.592 25.0279 111.831 25.3411 112.139 25.5632C112.45 25.7853 112.817 25.8963 113.238 25.8963C113.519 25.8963 113.775 25.8449 114.003 25.7422C114.235 25.6361 114.429 25.4853 114.585 25.2898C114.744 25.0942 114.855 24.8589 114.918 24.5838H116.365C116.312 25.0777 116.151 25.5185 115.882 25.9062C115.614 26.294 115.254 26.599 114.804 26.821C114.356 27.0431 113.831 27.1541 113.228 27.1541ZM120.177 27.169C119.693 27.169 119.255 27.0795 118.864 26.9006C118.473 26.7183 118.163 26.4548 117.934 26.1101C117.709 25.7654 117.596 25.3428 117.596 24.8423C117.596 24.4115 117.679 24.0568 117.845 23.7784C118.011 23.5 118.234 23.2796 118.516 23.1172C118.798 22.9548 119.113 22.8321 119.461 22.7493C119.809 22.6664 120.163 22.6035 120.525 22.5604C120.982 22.5073 121.353 22.4643 121.638 22.4311C121.923 22.3946 122.131 22.3366 122.26 22.2571C122.389 22.1776 122.454 22.0483 122.454 21.8693V21.8345C122.454 21.4003 122.331 21.0639 122.086 20.8253C121.844 20.5866 121.483 20.4673 121.002 20.4673C120.501 20.4673 120.107 20.5784 119.819 20.8004C119.534 21.0192 119.336 21.2628 119.227 21.5312L117.83 21.2131C117.996 20.7491 118.238 20.3745 118.556 20.0895C118.877 19.8011 119.247 19.5923 119.665 19.4631C120.082 19.3305 120.521 19.2642 120.982 19.2642C121.287 19.2642 121.61 19.3007 121.952 19.3736C122.296 19.4432 122.618 19.5724 122.916 19.7614C123.218 19.9503 123.465 20.2204 123.657 20.5717C123.849 20.9197 123.945 21.3722 123.945 21.929V27H122.493V25.956H122.434C122.338 26.1482 122.193 26.3371 122.001 26.5227C121.809 26.7083 121.562 26.8625 121.26 26.9851C120.959 27.1077 120.598 27.169 120.177 27.169ZM120.5 25.9759C120.911 25.9759 121.262 25.8946 121.554 25.7322C121.849 25.5698 122.073 25.3577 122.225 25.0959C122.381 24.8307 122.459 24.5473 122.459 24.2457V23.2614C122.406 23.3144 122.303 23.3641 122.15 23.4105C122.001 23.4536 121.831 23.4917 121.638 23.5249C121.446 23.5547 121.259 23.5829 121.077 23.6094C120.894 23.6326 120.742 23.6525 120.619 23.669C120.331 23.7055 120.067 23.7668 119.829 23.853C119.593 23.9392 119.404 24.0634 119.262 24.2259C119.123 24.3849 119.053 24.5971 119.053 24.8622C119.053 25.2301 119.189 25.5085 119.461 25.6974C119.733 25.883 120.079 25.9759 120.5 25.9759ZM129.49 19.3636V20.5568H125.319V19.3636H129.49ZM126.437 17.5341H127.924V24.7578C127.924 25.0462 127.967 25.2633 128.053 25.4091C128.139 25.5516 128.25 25.6494 128.386 25.7024C128.525 25.7521 128.676 25.777 128.838 25.777C128.958 25.777 129.062 25.7687 129.152 25.7521C129.241 25.7356 129.311 25.7223 129.36 25.7124L129.629 26.9403C129.543 26.9735 129.42 27.0066 129.261 27.0398C129.102 27.0762 128.903 27.0961 128.664 27.0994C128.273 27.1061 127.909 27.0365 127.571 26.8906C127.233 26.7448 126.959 26.5194 126.75 26.2145C126.542 25.9096 126.437 25.5268 126.437 25.0661V17.5341ZM131.134 27V19.3636H132.621V27H131.134ZM131.885 18.1854C131.626 18.1854 131.404 18.0992 131.219 17.9268C131.036 17.7512 130.945 17.5424 130.945 17.3004C130.945 17.0552 131.036 16.8464 131.219 16.674C131.404 16.4983 131.626 16.4105 131.885 16.4105C132.143 16.4105 132.364 16.4983 132.546 16.674C132.732 16.8464 132.824 17.0552 132.824 17.3004C132.824 17.5424 132.732 17.7512 132.546 17.9268C132.364 18.0992 132.143 18.1854 131.885 18.1854ZM137.837 27.1541C137.121 27.1541 136.496 26.9901 135.963 26.6619C135.429 26.3338 135.015 25.8748 134.72 25.2848C134.425 24.6948 134.277 24.0054 134.277 23.2166C134.277 22.4245 134.425 21.7318 134.72 21.1385C135.015 20.5452 135.429 20.0845 135.963 19.7564C136.496 19.4283 137.121 19.2642 137.837 19.2642C138.553 19.2642 139.178 19.4283 139.711 19.7564C140.245 20.0845 140.659 20.5452 140.954 21.1385C141.249 21.7318 141.397 22.4245 141.397 23.2166C141.397 24.0054 141.249 24.6948 140.954 25.2848C140.659 25.8748 140.245 26.3338 139.711 26.6619C139.178 26.9901 138.553 27.1541 137.837 27.1541ZM137.842 25.9062C138.306 25.9062 138.69 25.7836 138.995 25.5384C139.3 25.2931 139.526 24.9666 139.672 24.5589C139.821 24.1513 139.895 23.7022 139.895 23.2116C139.895 22.7244 139.821 22.277 139.672 21.8693C139.526 21.4583 139.3 21.1286 138.995 20.88C138.69 20.6314 138.306 20.5071 137.842 20.5071C137.375 20.5071 136.987 20.6314 136.679 20.88C136.374 21.1286 136.147 21.4583 135.998 21.8693C135.852 22.277 135.779 22.7244 135.779 23.2116C135.779 23.7022 135.852 24.1513 135.998 24.5589C136.147 24.9666 136.374 25.2931 136.679 25.5384C136.987 25.7836 137.375 25.9062 137.842 25.9062ZM144.542 22.4659V27H143.056V19.3636H144.483V20.6065H144.577C144.753 20.2022 145.028 19.8774 145.403 19.6321C145.78 19.3868 146.256 19.2642 146.829 19.2642C147.35 19.2642 147.805 19.3736 148.197 19.5923C148.588 19.8078 148.891 20.1293 149.106 20.5568C149.322 20.9844 149.43 21.513 149.43 22.1428V27H147.943V22.3217C147.943 21.7682 147.799 21.3357 147.51 21.0241C147.222 20.7093 146.826 20.5518 146.322 20.5518C145.978 20.5518 145.671 20.6264 145.403 20.7756C145.137 20.9247 144.927 21.1435 144.771 21.4318C144.619 21.7169 144.542 22.0616 144.542 22.4659Z" fill="#2C2152"/>
</svg>
