<svg width="382" height="72" viewBox="0 0 382 72" fill="none" xmlns="http://www.w3.org/2000/svg">
<g opacity="0.5">
<path d="M374 0C378.418 0 382 3.58172 382 8V64C382 68.4183 378.418 72 374 72H8C3.58172 72 0 68.4183 0 64V8C0 3.58172 3.58172 0 8 0H374Z" fill="url(#paint0_linear_181_3)"/>
<path d="M374 0C378.418 0 382 3.58172 382 8V64C382 68.4183 378.418 72 374 72H8C3.58172 72 0 68.4183 0 64V8C0 3.58172 3.58172 0 8 0H374Z" stroke="#E5E7EB"/>
<path d="M89.7685 20.5625C89.7154 20.0663 89.492 19.6799 89.098 19.4034C88.7079 19.1269 88.2003 18.9886 87.5753 18.9886C87.1359 18.9886 86.759 19.0549 86.4446 19.1875C86.1302 19.3201 85.8897 19.5 85.723 19.7273C85.5563 19.9545 85.4711 20.214 85.4673 20.5057C85.4673 20.7481 85.5223 20.9583 85.6321 21.1364C85.7457 21.3144 85.8991 21.4659 86.0923 21.5909C86.2855 21.7121 86.4995 21.8144 86.7344 21.8977C86.9692 21.9811 87.206 22.0511 87.4446 22.108L88.5355 22.3807C88.9749 22.483 89.3973 22.6212 89.8026 22.7955C90.2116 22.9697 90.5772 23.1894 90.8991 23.4545C91.2249 23.7197 91.4825 24.0398 91.6719 24.4148C91.8613 24.7898 91.956 25.2292 91.956 25.733C91.956 26.4148 91.7817 27.0152 91.4332 27.5341C91.0848 28.0492 90.581 28.4527 89.9219 28.7443C89.2666 29.0322 88.473 29.1761 87.5412 29.1761C86.6359 29.1761 85.8499 29.036 85.1832 28.7557C84.5204 28.4754 84.0014 28.0663 83.6264 27.5284C83.2552 26.9905 83.0545 26.3352 83.0241 25.5625H85.098C85.1283 25.9678 85.2533 26.3049 85.473 26.5739C85.6927 26.8428 85.9787 27.0436 86.331 27.1761C86.687 27.3087 87.0848 27.375 87.5241 27.375C87.9825 27.375 88.384 27.3068 88.7287 27.1705C89.0772 27.0303 89.3499 26.8371 89.5469 26.5909C89.7438 26.3409 89.8442 26.0492 89.848 25.7159C89.8442 25.4129 89.7552 25.1629 89.581 24.9659C89.4067 24.7652 89.1624 24.5985 88.848 24.4659C88.5374 24.3295 88.1738 24.2083 87.7571 24.1023L86.4332 23.7614C85.4749 23.5152 84.7173 23.142 84.1605 22.642C83.6075 22.1383 83.331 21.4697 83.331 20.6364C83.331 19.9508 83.5166 19.3504 83.8878 18.8352C84.2628 18.3201 84.7723 17.9205 85.4162 17.6364C86.0601 17.3485 86.7893 17.2045 87.6037 17.2045C88.4295 17.2045 89.1529 17.3485 89.7741 17.6364C90.3991 17.9205 90.8897 18.3163 91.2457 18.8239C91.6018 19.3277 91.7855 19.9072 91.7969 20.5625H89.7685ZM97.608 29.1705C96.733 29.1705 95.9773 28.9886 95.3409 28.625C94.7083 28.2576 94.2216 27.7386 93.8807 27.0682C93.5398 26.3939 93.3693 25.6004 93.3693 24.6875C93.3693 23.7898 93.5398 23.0019 93.8807 22.3239C94.2254 21.642 94.7064 21.1117 95.3239 20.733C95.9413 20.3504 96.6667 20.1591 97.5 20.1591C98.0379 20.1591 98.5455 20.2462 99.0227 20.4205C99.5038 20.5909 99.928 20.8561 100.295 21.2159C100.667 21.5758 100.958 22.0341 101.17 22.5909C101.383 23.1439 101.489 23.803 101.489 24.5682V25.1989H94.3352V23.8125H99.517C99.5133 23.4186 99.428 23.0682 99.2614 22.7614C99.0947 22.4508 98.8617 22.2064 98.5625 22.0284C98.267 21.8504 97.9223 21.7614 97.5284 21.7614C97.108 21.7614 96.7386 21.8636 96.4205 22.0682C96.1023 22.2689 95.8542 22.5341 95.6761 22.8636C95.5019 23.1894 95.4129 23.5473 95.4091 23.9375V25.1477C95.4091 25.6553 95.5019 26.0909 95.6875 26.4545C95.8731 26.8144 96.1326 27.0909 96.4659 27.2841C96.7992 27.4735 97.1894 27.5682 97.6364 27.5682C97.9356 27.5682 98.2064 27.5265 98.4489 27.4432C98.6913 27.3561 98.9015 27.2292 99.0795 27.0625C99.2576 26.8958 99.392 26.6894 99.483 26.4432L101.403 26.6591C101.282 27.1667 101.051 27.6098 100.71 27.9886C100.373 28.3636 99.9413 28.6553 99.4148 28.8636C98.8883 29.0682 98.286 29.1705 97.608 29.1705ZM107.587 20.2727V21.8636H102.57V20.2727H107.587ZM103.808 18.1818H105.865V26.375C105.865 26.6515 105.907 26.8636 105.99 27.0114C106.077 27.1553 106.191 27.2538 106.331 27.3068C106.471 27.3598 106.626 27.3864 106.797 27.3864C106.926 27.3864 107.043 27.3769 107.149 27.358C107.259 27.339 107.342 27.322 107.399 27.3068L107.746 28.9148C107.636 28.9527 107.479 28.9943 107.274 29.0398C107.073 29.0852 106.827 29.1117 106.536 29.1193C106.02 29.1345 105.556 29.0568 105.143 28.8864C104.731 28.7121 104.403 28.4432 104.161 28.0795C103.922 27.7159 103.804 27.2614 103.808 26.7159V18.1818ZM122.929 17.3636V29H121.054L115.571 21.0739H115.474V29H113.366V17.3636H115.253L120.73 25.2955H120.832V17.3636H122.929ZM128.999 29.1705C128.124 29.1705 127.368 28.9886 126.732 28.625C126.099 28.2576 125.612 27.7386 125.271 27.0682C124.93 26.3939 124.76 25.6004 124.76 24.6875C124.76 23.7898 124.93 23.0019 125.271 22.3239C125.616 21.642 126.097 21.1117 126.714 20.733C127.332 20.3504 128.057 20.1591 128.891 20.1591C129.429 20.1591 129.936 20.2462 130.413 20.4205C130.894 20.5909 131.319 20.8561 131.686 21.2159C132.057 21.5758 132.349 22.0341 132.561 22.5909C132.773 23.1439 132.879 23.803 132.879 24.5682V25.1989H125.726V23.8125H130.908C130.904 23.4186 130.819 23.0682 130.652 22.7614C130.485 22.4508 130.252 22.2064 129.953 22.0284C129.658 21.8504 129.313 21.7614 128.919 21.7614C128.499 21.7614 128.129 21.8636 127.811 22.0682C127.493 22.2689 127.245 22.5341 127.067 22.8636C126.893 23.1894 126.804 23.5473 126.8 23.9375V25.1477C126.8 25.6553 126.893 26.0909 127.078 26.4545C127.264 26.8144 127.523 27.0909 127.857 27.2841C128.19 27.4735 128.58 27.5682 129.027 27.5682C129.326 27.5682 129.597 27.5265 129.839 27.4432C130.082 27.3561 130.292 27.2292 130.47 27.0625C130.648 26.8958 130.783 26.6894 130.874 26.4432L132.794 26.6591C132.673 27.1667 132.442 27.6098 132.101 27.9886C131.764 28.3636 131.332 28.6553 130.805 28.8636C130.279 29.0682 129.677 29.1705 128.999 29.1705ZM136.374 29L133.908 20.2727H136.004L137.538 26.4091H137.618L139.186 20.2727H141.26L142.828 26.375H142.913L144.425 20.2727H146.527L144.055 29H141.913L140.277 23.1023H140.158L138.521 29H136.374ZM152.023 29V17.3636H156.386C157.28 17.3636 158.03 17.5303 158.636 17.8636C159.246 18.197 159.706 18.6553 160.017 19.2386C160.331 19.8182 160.489 20.4773 160.489 21.2159C160.489 21.9621 160.331 22.625 160.017 23.2045C159.703 23.7841 159.239 24.2405 158.625 24.5739C158.011 24.9034 157.256 25.0682 156.358 25.0682H153.466V23.3352H156.074C156.597 23.3352 157.025 23.2443 157.358 23.0625C157.691 22.8807 157.938 22.6307 158.097 22.3125C158.259 21.9943 158.341 21.6288 158.341 21.2159C158.341 20.803 158.259 20.4394 158.097 20.125C157.938 19.8106 157.689 19.5663 157.352 19.392C157.019 19.214 156.589 19.125 156.062 19.125H154.131V29H152.023ZM164.584 29.1761C164.031 29.1761 163.533 29.0777 163.089 28.8807C162.65 28.6799 162.302 28.3845 162.044 27.9943C161.79 27.6042 161.663 27.1231 161.663 26.5511C161.663 26.0587 161.754 25.6515 161.936 25.3295C162.118 25.0076 162.366 24.75 162.68 24.5568C162.995 24.3636 163.349 24.2178 163.743 24.1193C164.141 24.017 164.552 23.9432 164.976 23.8977C165.487 23.8447 165.902 23.7973 166.22 23.7557C166.538 23.7102 166.769 23.642 166.913 23.5511C167.061 23.4564 167.135 23.3106 167.135 23.1136V23.0795C167.135 22.6515 167.008 22.3201 166.754 22.0852C166.5 21.8504 166.135 21.733 165.658 21.733C165.154 21.733 164.754 21.8428 164.459 22.0625C164.167 22.2822 163.97 22.5417 163.868 22.8409L161.947 22.5682C162.099 22.0379 162.349 21.5947 162.697 21.2386C163.046 20.8788 163.472 20.6098 163.976 20.4318C164.48 20.25 165.036 20.1591 165.646 20.1591C166.067 20.1591 166.485 20.2083 166.902 20.3068C167.319 20.4053 167.699 20.5682 168.044 20.7955C168.389 21.0189 168.665 21.3239 168.874 21.7102C169.086 22.0966 169.192 22.5795 169.192 23.1591V29H167.214V27.8011H167.146C167.021 28.0436 166.845 28.2708 166.618 28.483C166.394 28.6913 166.112 28.8598 165.771 28.9886C165.434 29.1136 165.038 29.1761 164.584 29.1761ZM165.118 27.6648C165.531 27.6648 165.889 27.5833 166.192 27.4205C166.495 27.2538 166.728 27.0341 166.891 26.7614C167.057 26.4886 167.141 26.1913 167.141 25.8693V24.8409C167.076 24.8939 166.966 24.9432 166.811 24.9886C166.66 25.0341 166.489 25.0739 166.3 25.108C166.11 25.142 165.923 25.1723 165.737 25.1989C165.552 25.2254 165.391 25.2481 165.254 25.267C164.947 25.3087 164.673 25.3769 164.43 25.4716C164.188 25.5663 163.997 25.6989 163.857 25.8693C163.716 26.036 163.646 26.2519 163.646 26.517C163.646 26.8958 163.785 27.1818 164.061 27.375C164.338 27.5682 164.69 27.6648 165.118 27.6648ZM178.158 22.5795L176.283 22.7841C176.23 22.5947 176.137 22.4167 176.004 22.25C175.875 22.0833 175.701 21.9489 175.482 21.8466C175.262 21.7443 174.993 21.6932 174.675 21.6932C174.247 21.6932 173.887 21.786 173.595 21.9716C173.307 22.1572 173.165 22.3977 173.169 22.6932C173.165 22.947 173.258 23.1534 173.447 23.3125C173.641 23.4716 173.959 23.6023 174.402 23.7045L175.891 24.0227C176.716 24.2008 177.33 24.483 177.732 24.8693C178.137 25.2557 178.341 25.7614 178.345 26.3864C178.341 26.9356 178.18 27.4205 177.862 27.8409C177.548 28.2576 177.11 28.5833 176.55 28.8182C175.989 29.053 175.345 29.1705 174.618 29.1705C173.55 29.1705 172.69 28.947 172.038 28.5C171.387 28.0492 170.999 27.4223 170.874 26.6193L172.879 26.4261C172.97 26.8201 173.163 27.1174 173.459 27.3182C173.754 27.5189 174.139 27.6193 174.612 27.6193C175.101 27.6193 175.493 27.5189 175.788 27.3182C176.088 27.1174 176.237 26.8693 176.237 26.5739C176.237 26.3239 176.141 26.1174 175.947 25.9545C175.758 25.7917 175.463 25.6667 175.061 25.5795L173.572 25.267C172.735 25.0928 172.116 24.7992 171.714 24.3864C171.313 23.9697 171.114 23.4432 171.118 22.8068C171.114 22.2689 171.26 21.803 171.555 21.4091C171.855 21.0114 172.269 20.7045 172.8 20.4886C173.334 20.2689 173.949 20.1591 174.646 20.1591C175.669 20.1591 176.474 20.3769 177.061 20.8125C177.652 21.2481 178.018 21.8371 178.158 22.5795ZM186.939 22.5795L185.064 22.7841C185.011 22.5947 184.918 22.4167 184.786 22.25C184.657 22.0833 184.482 21.9489 184.263 21.8466C184.043 21.7443 183.774 21.6932 183.456 21.6932C183.028 21.6932 182.668 21.786 182.376 21.9716C182.089 22.1572 181.946 22.3977 181.95 22.6932C181.946 22.947 182.039 23.1534 182.229 23.3125C182.422 23.4716 182.74 23.6023 183.183 23.7045L184.672 24.0227C185.498 24.2008 186.111 24.483 186.513 24.8693C186.918 25.2557 187.123 25.7614 187.126 26.3864C187.123 26.9356 186.962 27.4205 186.643 27.8409C186.329 28.2576 185.892 28.5833 185.331 28.8182C184.77 29.053 184.126 29.1705 183.399 29.1705C182.331 29.1705 181.471 28.947 180.82 28.5C180.168 28.0492 179.78 27.4223 179.655 26.6193L181.661 26.4261C181.751 26.8201 181.945 27.1174 182.24 27.3182C182.536 27.5189 182.92 27.6193 183.393 27.6193C183.882 27.6193 184.274 27.5189 184.57 27.3182C184.869 27.1174 185.018 26.8693 185.018 26.5739C185.018 26.3239 184.922 26.1174 184.729 25.9545C184.539 25.7917 184.244 25.6667 183.842 25.5795L182.354 25.267C181.517 25.0928 180.897 24.7992 180.496 24.3864C180.094 23.9697 179.895 23.4432 179.899 22.8068C179.895 22.2689 180.041 21.803 180.337 21.4091C180.636 21.0114 181.051 20.7045 181.581 20.4886C182.115 20.2689 182.731 20.1591 183.428 20.1591C184.45 20.1591 185.255 20.3769 185.842 20.8125C186.433 21.2481 186.799 21.8371 186.939 22.5795ZM190.624 29L188.158 20.2727H190.254L191.788 26.4091H191.868L193.436 20.2727H195.51L197.078 26.375H197.163L198.675 20.2727H200.777L198.305 29H196.163L194.527 23.1023H194.408L192.771 29H190.624ZM205.77 29.1705C204.918 29.1705 204.179 28.983 203.554 28.608C202.929 28.233 202.444 27.7083 202.099 27.0341C201.759 26.3598 201.588 25.572 201.588 24.6705C201.588 23.7689 201.759 22.9792 202.099 22.3011C202.444 21.6231 202.929 21.0966 203.554 20.7216C204.179 20.3466 204.918 20.1591 205.77 20.1591C206.622 20.1591 207.361 20.3466 207.986 20.7216C208.611 21.0966 209.094 21.6231 209.435 22.3011C209.779 22.9792 209.952 23.7689 209.952 24.6705C209.952 25.572 209.779 26.3598 209.435 27.0341C209.094 27.7083 208.611 28.233 207.986 28.608C207.361 28.983 206.622 29.1705 205.77 29.1705ZM205.781 27.5227C206.243 27.5227 206.63 27.3958 206.94 27.142C207.251 26.8845 207.482 26.5398 207.634 26.108C207.789 25.6761 207.866 25.1951 207.866 24.6648C207.866 24.1307 207.789 23.6477 207.634 23.2159C207.482 22.7803 207.251 22.4337 206.94 22.1761C206.63 21.9186 206.243 21.7898 205.781 21.7898C205.308 21.7898 204.914 21.9186 204.599 22.1761C204.289 22.4337 204.056 22.7803 203.901 23.2159C203.749 23.6477 203.673 24.1307 203.673 24.6648C203.673 25.1951 203.749 25.6761 203.901 26.108C204.056 26.5398 204.289 26.8845 204.599 27.142C204.914 27.3958 205.308 27.5227 205.781 27.5227ZM211.697 29V20.2727H213.692V21.7273H213.783C213.942 21.2235 214.214 20.8352 214.601 20.5625C214.991 20.286 215.436 20.1477 215.936 20.1477C216.05 20.1477 216.177 20.1534 216.317 20.1648C216.461 20.1723 216.58 20.1856 216.675 20.2045V22.0966C216.588 22.0663 216.449 22.0398 216.26 22.017C216.074 21.9905 215.894 21.9773 215.72 21.9773C215.345 21.9773 215.008 22.0587 214.709 22.2216C214.413 22.3807 214.18 22.6023 214.01 22.8864C213.839 23.1705 213.754 23.4981 213.754 23.8693V29H211.697ZM220.92 29.1534C220.235 29.1534 219.621 28.9773 219.08 28.625C218.538 28.2727 218.11 27.7614 217.795 27.0909C217.481 26.4205 217.324 25.6061 217.324 24.6477C217.324 23.678 217.483 22.8598 217.801 22.1932C218.123 21.5227 218.557 21.017 219.102 20.6761C219.648 20.3314 220.256 20.1591 220.926 20.1591C221.438 20.1591 221.858 20.2462 222.188 20.4205C222.517 20.5909 222.778 20.7973 222.972 21.0398C223.165 21.2784 223.314 21.5038 223.42 21.7159H223.506V17.3636H225.568V29H223.545V27.625H223.42C223.314 27.8371 223.161 28.0625 222.96 28.3011C222.759 28.536 222.494 28.7367 222.165 28.9034C221.835 29.0701 221.42 29.1534 220.92 29.1534ZM221.494 27.4659C221.93 27.4659 222.301 27.3485 222.608 27.1136C222.915 26.875 223.148 26.5436 223.307 26.1193C223.466 25.6951 223.545 25.2008 223.545 24.6364C223.545 24.072 223.466 23.5814 223.307 23.1648C223.152 22.7481 222.92 22.4242 222.614 22.1932C222.311 21.9621 221.938 21.8466 221.494 21.8466C221.036 21.8466 220.653 21.9659 220.347 22.2045C220.04 22.4432 219.809 22.7727 219.653 23.1932C219.498 23.6136 219.42 24.0947 219.42 24.6364C219.42 25.1818 219.498 25.6686 219.653 26.0966C219.813 26.5208 220.045 26.8561 220.352 27.1023C220.663 27.3447 221.044 27.4659 221.494 27.4659ZM235.206 29.1705C234.411 29.1705 233.727 29.0265 233.155 28.7386C232.583 28.4508 232.142 28.0625 231.831 27.5739C231.524 27.0814 231.371 26.5265 231.371 25.9091C231.371 25.4432 231.465 25.0303 231.655 24.6705C231.848 24.3106 232.113 23.9773 232.45 23.6705C232.791 23.3636 233.185 23.0587 233.632 22.7557L235.695 21.3523C235.998 21.1553 236.227 20.947 236.382 20.7273C236.541 20.5076 236.621 20.25 236.621 19.9545C236.621 19.7045 236.515 19.4678 236.303 19.2443C236.094 19.0208 235.806 18.9091 235.439 18.9091C235.193 18.9091 234.975 18.9678 234.786 19.0852C234.6 19.1989 234.454 19.3485 234.348 19.5341C234.246 19.7197 234.195 19.9167 234.195 20.125C234.195 20.3788 234.265 20.6364 234.405 20.8977C234.549 21.1591 234.734 21.4299 234.962 21.7102C235.193 21.9905 235.439 22.2879 235.7 22.6023L241.161 29H238.933L234.399 23.8068C234.062 23.4129 233.736 23.0246 233.422 22.642C233.111 22.2595 232.856 21.8617 232.655 21.4489C232.458 21.0322 232.359 20.5814 232.359 20.0966C232.359 19.5473 232.486 19.0568 232.74 18.625C232.994 18.1894 233.348 17.8466 233.803 17.5966C234.261 17.3466 234.797 17.2216 235.411 17.2216C236.024 17.2216 236.551 17.3428 236.99 17.5852C237.429 17.8277 237.768 18.1496 238.007 18.5511C238.246 18.9527 238.365 19.3902 238.365 19.8636C238.365 20.4129 238.229 20.9053 237.956 21.3409C237.683 21.7727 237.304 22.1648 236.82 22.517L234.467 24.2386C234.081 24.5189 233.804 24.803 233.638 25.0909C233.471 25.375 233.388 25.6174 233.388 25.8182C233.388 26.125 233.465 26.4034 233.621 26.6534C233.776 26.9034 233.994 27.1042 234.274 27.2557C234.558 27.4034 234.89 27.4773 235.268 27.4773C235.685 27.4773 236.096 27.3845 236.501 27.1989C236.907 27.0095 237.276 26.7405 237.609 26.392C237.943 26.0436 238.208 25.6269 238.405 25.142C238.602 24.6534 238.7 24.1117 238.7 23.517H240.467C240.467 24.2519 240.386 24.892 240.223 25.4375C240.06 25.9792 239.85 26.4375 239.592 26.8125C239.335 27.1837 239.062 27.4811 238.774 27.7045C238.683 27.7689 238.596 27.8333 238.513 27.8977C238.429 27.9621 238.342 28.0265 238.251 28.0909C237.842 28.4621 237.363 28.7348 236.814 28.9091C236.268 29.0833 235.732 29.1705 235.206 29.1705ZM246.398 29V17.3636H250.761C251.655 17.3636 252.405 17.5303 253.011 17.8636C253.621 18.197 254.081 18.6553 254.392 19.2386C254.706 19.8182 254.864 20.4773 254.864 21.2159C254.864 21.9621 254.706 22.625 254.392 23.2045C254.078 23.7841 253.614 24.2405 253 24.5739C252.386 24.9034 251.631 25.0682 250.733 25.0682H247.841V23.3352H250.449C250.972 23.3352 251.4 23.2443 251.733 23.0625C252.066 22.8807 252.313 22.6307 252.472 22.3125C252.634 21.9943 252.716 21.6288 252.716 21.2159C252.716 20.803 252.634 20.4394 252.472 20.125C252.313 19.8106 252.064 19.5663 251.727 19.392C251.394 19.214 250.964 19.125 250.438 19.125H248.506V29H246.398ZM256.604 29V20.2727H258.598V21.7273H258.689C258.848 21.2235 259.121 20.8352 259.507 20.5625C259.897 20.286 260.342 20.1477 260.842 20.1477C260.956 20.1477 261.083 20.1534 261.223 20.1648C261.367 20.1723 261.486 20.1856 261.581 20.2045V22.0966C261.494 22.0663 261.356 22.0398 261.166 22.017C260.981 21.9905 260.801 21.9773 260.626 21.9773C260.251 21.9773 259.914 22.0587 259.615 22.2216C259.32 22.3807 259.087 22.6023 258.916 22.8864C258.746 23.1705 258.661 23.4981 258.661 23.8693V29H256.604ZM266.395 29.1705C265.543 29.1705 264.804 28.983 264.179 28.608C263.554 28.233 263.069 27.7083 262.724 27.0341C262.384 26.3598 262.213 25.572 262.213 24.6705C262.213 23.7689 262.384 22.9792 262.724 22.3011C263.069 21.6231 263.554 21.0966 264.179 20.7216C264.804 20.3466 265.543 20.1591 266.395 20.1591C267.247 20.1591 267.986 20.3466 268.611 20.7216C269.236 21.0966 269.719 21.6231 270.06 22.3011C270.404 22.9792 270.577 23.7689 270.577 24.6705C270.577 25.572 270.404 26.3598 270.06 27.0341C269.719 27.7083 269.236 28.233 268.611 28.608C267.986 28.983 267.247 29.1705 266.395 29.1705ZM266.406 27.5227C266.868 27.5227 267.255 27.3958 267.565 27.142C267.876 26.8845 268.107 26.5398 268.259 26.108C268.414 25.6761 268.491 25.1951 268.491 24.6648C268.491 24.1307 268.414 23.6477 268.259 23.2159C268.107 22.7803 267.876 22.4337 267.565 22.1761C267.255 21.9186 266.868 21.7898 266.406 21.7898C265.933 21.7898 265.539 21.9186 265.224 22.1761C264.914 22.4337 264.681 22.7803 264.526 23.2159C264.374 23.6477 264.298 24.1307 264.298 24.6648C264.298 25.1951 264.374 25.6761 264.526 26.108C264.681 26.5398 264.914 26.8845 265.224 27.142C265.539 27.3958 265.933 27.5227 266.406 27.5227ZM276.129 29.1705C275.258 29.1705 274.51 28.9792 273.885 28.5966C273.264 28.214 272.785 27.6856 272.447 27.0114C272.114 26.3333 271.947 25.553 271.947 24.6705C271.947 23.7841 272.118 23.0019 272.459 22.3239C272.8 21.642 273.281 21.1117 273.902 20.733C274.527 20.3504 275.266 20.1591 276.118 20.1591C276.826 20.1591 277.453 20.2898 277.999 20.5511C278.548 20.8087 278.985 21.1742 279.311 21.6477C279.637 22.1174 279.822 22.6667 279.868 23.2955H277.902C277.822 22.875 277.633 22.5246 277.334 22.2443C277.038 21.9602 276.643 21.8182 276.146 21.8182C275.726 21.8182 275.357 21.9318 275.038 22.1591C274.72 22.3826 274.472 22.7045 274.294 23.125C274.12 23.5455 274.033 24.0492 274.033 24.6364C274.033 25.2311 274.12 25.7424 274.294 26.1705C274.468 26.5947 274.713 26.9223 275.027 27.1534C275.345 27.3807 275.718 27.4943 276.146 27.4943C276.449 27.4943 276.72 27.4375 276.959 27.3239C277.201 27.2064 277.404 27.0379 277.567 26.8182C277.73 26.5985 277.841 26.3314 277.902 26.017H279.868C279.819 26.6345 279.637 27.1818 279.322 27.6591C279.008 28.1326 278.58 28.5038 278.038 28.7727C277.497 29.0379 276.86 29.1705 276.129 29.1705ZM285.42 29.1705C284.545 29.1705 283.79 28.9886 283.153 28.625C282.521 28.2576 282.034 27.7386 281.693 27.0682C281.352 26.3939 281.182 25.6004 281.182 24.6875C281.182 23.7898 281.352 23.0019 281.693 22.3239C282.038 21.642 282.519 21.1117 283.136 20.733C283.754 20.3504 284.479 20.1591 285.312 20.1591C285.85 20.1591 286.358 20.2462 286.835 20.4205C287.316 20.5909 287.741 20.8561 288.108 21.2159C288.479 21.5758 288.771 22.0341 288.983 22.5909C289.195 23.1439 289.301 23.803 289.301 24.5682V25.1989H282.148V23.8125H287.33C287.326 23.4186 287.241 23.0682 287.074 22.7614C286.907 22.4508 286.674 22.2064 286.375 22.0284C286.08 21.8504 285.735 21.7614 285.341 21.7614C284.92 21.7614 284.551 21.8636 284.233 22.0682C283.915 22.2689 283.667 22.5341 283.489 22.8636C283.314 23.1894 283.225 23.5473 283.222 23.9375V25.1477C283.222 25.6553 283.314 26.0909 283.5 26.4545C283.686 26.8144 283.945 27.0909 284.278 27.2841C284.612 27.4735 285.002 27.5682 285.449 27.5682C285.748 27.5682 286.019 27.5265 286.261 27.4432C286.504 27.3561 286.714 27.2292 286.892 27.0625C287.07 26.8958 287.205 26.6894 287.295 26.4432L289.216 26.6591C289.095 27.1667 288.864 27.6098 288.523 27.9886C288.186 28.3636 287.754 28.6553 287.227 28.8636C286.701 29.0682 286.098 29.1705 285.42 29.1705ZM294.905 29.1705C294.03 29.1705 293.274 28.9886 292.638 28.625C292.005 28.2576 291.518 27.7386 291.178 27.0682C290.837 26.3939 290.666 25.6004 290.666 24.6875C290.666 23.7898 290.837 23.0019 291.178 22.3239C291.522 21.642 292.003 21.1117 292.621 20.733C293.238 20.3504 293.964 20.1591 294.797 20.1591C295.335 20.1591 295.842 20.2462 296.32 20.4205C296.801 20.5909 297.225 20.8561 297.592 21.2159C297.964 21.5758 298.255 22.0341 298.467 22.5909C298.679 23.1439 298.786 23.803 298.786 24.5682V25.1989H291.632V23.8125H296.814C296.81 23.4186 296.725 23.0682 296.558 22.7614C296.392 22.4508 296.159 22.2064 295.859 22.0284C295.564 21.8504 295.219 21.7614 294.825 21.7614C294.405 21.7614 294.036 21.8636 293.717 22.0682C293.399 22.2689 293.151 22.5341 292.973 22.8636C292.799 23.1894 292.71 23.5473 292.706 23.9375V25.1477C292.706 25.6553 292.799 26.0909 292.984 26.4545C293.17 26.8144 293.429 27.0909 293.763 27.2841C294.096 27.4735 294.486 27.5682 294.933 27.5682C295.232 27.5682 295.503 27.5265 295.746 27.4432C295.988 27.3561 296.198 27.2292 296.376 27.0625C296.554 26.8958 296.689 26.6894 296.78 26.4432L298.7 26.6591C298.579 27.1667 298.348 27.6098 298.007 27.9886C297.67 28.3636 297.238 28.6553 296.712 28.8636C296.185 29.0682 295.583 29.1705 294.905 29.1705ZM303.764 29.1534C303.079 29.1534 302.465 28.9773 301.923 28.625C301.382 28.2727 300.954 27.7614 300.639 27.0909C300.325 26.4205 300.168 25.6061 300.168 24.6477C300.168 23.678 300.327 22.8598 300.645 22.1932C300.967 21.5227 301.401 21.017 301.946 20.6761C302.491 20.3314 303.099 20.1591 303.77 20.1591C304.281 20.1591 304.702 20.2462 305.031 20.4205C305.361 20.5909 305.622 20.7973 305.815 21.0398C306.009 21.2784 306.158 21.5038 306.264 21.7159H306.349V17.3636H308.412V29H306.389V27.625H306.264C306.158 27.8371 306.005 28.0625 305.804 28.3011C305.603 28.536 305.338 28.7367 305.009 28.9034C304.679 29.0701 304.264 29.1534 303.764 29.1534ZM304.338 27.4659C304.774 27.4659 305.145 27.3485 305.452 27.1136C305.759 26.875 305.991 26.5436 306.151 26.1193C306.31 25.6951 306.389 25.2008 306.389 24.6364C306.389 24.072 306.31 23.5814 306.151 23.1648C305.995 22.7481 305.764 22.4242 305.457 22.1932C305.154 21.9621 304.781 21.8466 304.338 21.8466C303.88 21.8466 303.497 21.9659 303.19 22.2045C302.884 22.4432 302.652 22.7727 302.497 23.1932C302.342 23.6136 302.264 24.0947 302.264 24.6364C302.264 25.1818 302.342 25.6686 302.497 26.0966C302.656 26.5208 302.889 26.8561 303.196 27.1023C303.507 27.3447 303.887 27.4659 304.338 27.4659ZM318.93 20.2727V21.8636H313.913V20.2727H318.93ZM315.152 18.1818H317.209V26.375C317.209 26.6515 317.25 26.8636 317.334 27.0114C317.421 27.1553 317.535 27.2538 317.675 27.3068C317.815 27.3598 317.97 27.3864 318.141 27.3864C318.269 27.3864 318.387 27.3769 318.493 27.358C318.603 27.339 318.686 27.322 318.743 27.3068L319.089 28.9148C318.98 28.9527 318.822 28.9943 318.618 29.0398C318.417 29.0852 318.171 29.1117 317.879 29.1193C317.364 29.1345 316.9 29.0568 316.487 28.8864C316.074 28.7121 315.747 28.4432 315.504 28.0795C315.266 27.7159 315.148 27.2614 315.152 26.7159V18.1818ZM324.364 29.1705C323.511 29.1705 322.773 28.983 322.148 28.608C321.523 28.233 321.038 27.7083 320.693 27.0341C320.352 26.3598 320.182 25.572 320.182 24.6705C320.182 23.7689 320.352 22.9792 320.693 22.3011C321.038 21.6231 321.523 21.0966 322.148 20.7216C322.773 20.3466 323.511 20.1591 324.364 20.1591C325.216 20.1591 325.955 20.3466 326.58 20.7216C327.205 21.0966 327.688 21.6231 328.028 22.3011C328.373 22.9792 328.545 23.7689 328.545 24.6705C328.545 25.572 328.373 26.3598 328.028 27.0341C327.688 27.7083 327.205 28.233 326.58 28.608C325.955 28.983 325.216 29.1705 324.364 29.1705ZM324.375 27.5227C324.837 27.5227 325.223 27.3958 325.534 27.142C325.845 26.8845 326.076 26.5398 326.227 26.108C326.383 25.6761 326.46 25.1951 326.46 24.6648C326.46 24.1307 326.383 23.6477 326.227 23.2159C326.076 22.7803 325.845 22.4337 325.534 22.1761C325.223 21.9186 324.837 21.7898 324.375 21.7898C323.902 21.7898 323.508 21.9186 323.193 22.1761C322.883 22.4337 322.65 22.7803 322.494 23.2159C322.343 23.6477 322.267 24.1307 322.267 24.6648C322.267 25.1951 322.343 25.6761 322.494 26.108C322.65 26.5398 322.883 26.8845 323.193 27.142C323.508 27.3958 323.902 27.5227 324.375 27.5227Z" fill="white"/>
<path d="M156.669 53H152.726V41.3636H156.749C157.904 41.3636 158.896 41.5966 159.726 42.0625C160.559 42.5246 161.199 43.1894 161.646 44.0568C162.093 44.9242 162.317 45.9621 162.317 47.1705C162.317 48.3826 162.091 49.4242 161.641 50.2955C161.194 51.1667 160.548 51.8352 159.703 52.3011C158.862 52.767 157.851 53 156.669 53ZM154.834 51.1761H156.567C157.377 51.1761 158.054 51.0284 158.595 50.733C159.137 50.4337 159.544 49.9886 159.817 49.3977C160.089 48.803 160.226 48.0606 160.226 47.1705C160.226 46.2803 160.089 45.5417 159.817 44.9545C159.544 44.3636 159.141 43.9223 158.607 43.6307C158.076 43.3352 157.417 43.1875 156.629 43.1875H154.834V51.1761ZM166.74 53.1761C166.187 53.1761 165.689 53.0777 165.246 52.8807C164.806 52.6799 164.458 52.3845 164.2 51.9943C163.946 51.6042 163.82 51.1231 163.82 50.5511C163.82 50.0587 163.911 49.6515 164.092 49.3295C164.274 49.0076 164.522 48.75 164.837 48.5568C165.151 48.3636 165.505 48.2178 165.899 48.1193C166.297 48.017 166.708 47.9432 167.132 47.8977C167.643 47.8447 168.058 47.7973 168.376 47.7557C168.695 47.7102 168.926 47.642 169.07 47.5511C169.217 47.4564 169.291 47.3106 169.291 47.1136V47.0795C169.291 46.6515 169.164 46.3201 168.911 46.0852C168.657 45.8504 168.291 45.733 167.814 45.733C167.31 45.733 166.911 45.8428 166.615 46.0625C166.323 46.2822 166.126 46.5417 166.024 46.8409L164.104 46.5682C164.255 46.0379 164.505 45.5947 164.854 45.2386C165.202 44.8788 165.628 44.6098 166.132 44.4318C166.636 44.25 167.193 44.1591 167.803 44.1591C168.223 44.1591 168.642 44.2083 169.058 44.3068C169.475 44.4053 169.856 44.5682 170.2 44.7955C170.545 45.0189 170.821 45.3239 171.03 45.7102C171.242 46.0966 171.348 46.5795 171.348 47.1591V53H169.371V51.8011H169.303C169.178 52.0436 169.001 52.2708 168.774 52.483C168.551 52.6913 168.268 52.8598 167.928 52.9886C167.59 53.1136 167.195 53.1761 166.74 53.1761ZM167.274 51.6648C167.687 51.6648 168.045 51.5833 168.348 51.4205C168.651 51.2538 168.884 51.0341 169.047 50.7614C169.214 50.4886 169.297 50.1913 169.297 49.8693V48.8409C169.232 48.8939 169.123 48.9432 168.967 48.9886C168.816 49.0341 168.645 49.0739 168.456 49.108C168.267 49.142 168.079 49.1723 167.893 49.1989C167.708 49.2254 167.547 49.2481 167.411 49.267C167.104 49.3087 166.829 49.3769 166.587 49.4716C166.344 49.5663 166.153 49.6989 166.013 49.8693C165.873 50.036 165.803 50.2519 165.803 50.517C165.803 50.8958 165.941 51.1818 166.217 51.375C166.494 51.5682 166.846 51.6648 167.274 51.6648ZM180.314 46.5795L178.439 46.7841C178.386 46.5947 178.293 46.4167 178.161 46.25C178.032 46.0833 177.857 45.9489 177.638 45.8466C177.418 45.7443 177.149 45.6932 176.831 45.6932C176.403 45.6932 176.043 45.786 175.751 45.9716C175.464 46.1572 175.321 46.3977 175.325 46.6932C175.321 46.947 175.414 47.1534 175.604 47.3125C175.797 47.4716 176.115 47.6023 176.558 47.7045L178.047 48.0227C178.873 48.2008 179.486 48.483 179.888 48.8693C180.293 49.2557 180.498 49.7614 180.501 50.3864C180.498 50.9356 180.337 51.4205 180.018 51.8409C179.704 52.2576 179.267 52.5833 178.706 52.8182C178.145 53.053 177.501 53.1705 176.774 53.1705C175.706 53.1705 174.846 52.947 174.195 52.5C173.543 52.0492 173.155 51.4223 173.03 50.6193L175.036 50.4261C175.126 50.8201 175.32 51.1174 175.615 51.3182C175.911 51.5189 176.295 51.6193 176.768 51.6193C177.257 51.6193 177.649 51.5189 177.945 51.3182C178.244 51.1174 178.393 50.8693 178.393 50.5739C178.393 50.3239 178.297 50.1174 178.104 49.9545C177.914 49.7917 177.619 49.6667 177.217 49.5795L175.729 49.267C174.892 49.0928 174.272 48.7992 173.871 48.3864C173.469 47.9697 173.27 47.4432 173.274 46.8068C173.27 46.2689 173.416 45.803 173.712 45.4091C174.011 45.0114 174.426 44.7045 174.956 44.4886C175.49 44.2689 176.106 44.1591 176.803 44.1591C177.825 44.1591 178.63 44.3769 179.217 44.8125C179.808 45.2481 180.174 45.8371 180.314 46.5795ZM184.254 47.8864V53H182.197V41.3636H184.209V45.7557H184.311C184.516 45.2633 184.832 44.875 185.26 44.5909C185.692 44.303 186.241 44.1591 186.908 44.1591C187.514 44.1591 188.042 44.286 188.493 44.5398C188.944 44.7936 189.292 45.1648 189.538 45.6534C189.788 46.142 189.913 46.7386 189.913 47.4432V53H187.857V47.7614C187.857 47.1742 187.705 46.7178 187.402 46.392C187.103 46.0625 186.682 45.8977 186.141 45.8977C185.777 45.8977 185.451 45.9773 185.163 46.1364C184.879 46.2917 184.656 46.517 184.493 46.8125C184.334 47.108 184.254 47.4659 184.254 47.8864ZM192.101 53V41.3636H194.158V45.7159H194.243C194.349 45.5038 194.499 45.2784 194.692 45.0398C194.885 44.7973 195.146 44.5909 195.476 44.4205C195.805 44.2462 196.226 44.1591 196.737 44.1591C197.411 44.1591 198.019 44.3314 198.561 44.6761C199.107 45.017 199.538 45.5227 199.857 46.1932C200.179 46.8598 200.339 47.678 200.339 48.6477C200.339 49.6061 200.182 50.4205 199.868 51.0909C199.554 51.7614 199.125 52.2727 198.584 52.625C198.042 52.9773 197.429 53.1534 196.743 53.1534C196.243 53.1534 195.828 53.0701 195.499 52.9034C195.169 52.7367 194.904 52.536 194.703 52.3011C194.506 52.0625 194.353 51.8371 194.243 51.625H194.124V53H192.101ZM194.118 48.6364C194.118 49.2008 194.197 49.6951 194.357 50.1193C194.519 50.5436 194.752 50.875 195.055 51.1136C195.362 51.3485 195.733 51.4659 196.169 51.4659C196.624 51.4659 197.004 51.3447 197.311 51.1023C197.618 50.8561 197.849 50.5208 198.004 50.0966C198.163 49.6686 198.243 49.1818 198.243 48.6364C198.243 48.0947 198.165 47.6136 198.01 47.1932C197.855 46.7727 197.624 46.4432 197.317 46.2045C197.01 45.9659 196.627 45.8466 196.169 45.8466C195.73 45.8466 195.357 45.9621 195.05 46.1932C194.743 46.4242 194.51 46.7481 194.351 47.1648C194.196 47.5814 194.118 48.072 194.118 48.6364ZM205.895 53.1705C205.043 53.1705 204.304 52.983 203.679 52.608C203.054 52.233 202.569 51.7083 202.224 51.0341C201.884 50.3598 201.713 49.572 201.713 48.6705C201.713 47.7689 201.884 46.9792 202.224 46.3011C202.569 45.6231 203.054 45.0966 203.679 44.7216C204.304 44.3466 205.043 44.1591 205.895 44.1591C206.747 44.1591 207.486 44.3466 208.111 44.7216C208.736 45.0966 209.219 45.6231 209.56 46.3011C209.904 46.9792 210.077 47.7689 210.077 48.6705C210.077 49.572 209.904 50.3598 209.56 51.0341C209.219 51.7083 208.736 52.233 208.111 52.608C207.486 52.983 206.747 53.1705 205.895 53.1705ZM205.906 51.5227C206.368 51.5227 206.755 51.3958 207.065 51.142C207.376 50.8845 207.607 50.5398 207.759 50.108C207.914 49.6761 207.991 49.1951 207.991 48.6648C207.991 48.1307 207.914 47.6477 207.759 47.2159C207.607 46.7803 207.376 46.4337 207.065 46.1761C206.755 45.9186 206.368 45.7898 205.906 45.7898C205.433 45.7898 205.039 45.9186 204.724 46.1761C204.414 46.4337 204.181 46.7803 204.026 47.2159C203.874 47.6477 203.798 48.1307 203.798 48.6648C203.798 49.1951 203.874 49.6761 204.026 50.108C204.181 50.5398 204.414 50.8845 204.724 51.142C205.039 51.3958 205.433 51.5227 205.906 51.5227ZM214.334 53.1761C213.781 53.1761 213.283 53.0777 212.839 52.8807C212.4 52.6799 212.052 52.3845 211.794 51.9943C211.54 51.6042 211.413 51.1231 211.413 50.5511C211.413 50.0587 211.504 49.6515 211.686 49.3295C211.868 49.0076 212.116 48.75 212.43 48.5568C212.745 48.3636 213.099 48.2178 213.493 48.1193C213.891 48.017 214.302 47.9432 214.726 47.8977C215.237 47.8447 215.652 47.7973 215.97 47.7557C216.288 47.7102 216.519 47.642 216.663 47.5511C216.811 47.4564 216.885 47.3106 216.885 47.1136V47.0795C216.885 46.6515 216.758 46.3201 216.504 46.0852C216.25 45.8504 215.885 45.733 215.408 45.733C214.904 45.733 214.504 45.8428 214.209 46.0625C213.917 46.2822 213.72 46.5417 213.618 46.8409L211.697 46.5682C211.849 46.0379 212.099 45.5947 212.447 45.2386C212.796 44.8788 213.222 44.6098 213.726 44.4318C214.23 44.25 214.786 44.1591 215.396 44.1591C215.817 44.1591 216.235 44.2083 216.652 44.3068C217.069 44.4053 217.449 44.5682 217.794 44.7955C218.139 45.0189 218.415 45.3239 218.624 45.7102C218.836 46.0966 218.942 46.5795 218.942 47.1591V53H216.964V51.8011H216.896C216.771 52.0436 216.595 52.2708 216.368 52.483C216.144 52.6913 215.862 52.8598 215.521 52.9886C215.184 53.1136 214.788 53.1761 214.334 53.1761ZM214.868 51.6648C215.281 51.6648 215.639 51.5833 215.942 51.4205C216.245 51.2538 216.478 51.0341 216.641 50.7614C216.807 50.4886 216.891 50.1913 216.891 49.8693V48.8409C216.826 48.8939 216.716 48.9432 216.561 48.9886C216.41 49.0341 216.239 49.0739 216.05 49.108C215.86 49.142 215.673 49.1723 215.487 49.1989C215.302 49.2254 215.141 49.2481 215.004 49.267C214.697 49.3087 214.423 49.3769 214.18 49.4716C213.938 49.5663 213.747 49.6989 213.607 49.8693C213.466 50.036 213.396 50.2519 213.396 50.517C213.396 50.8958 213.535 51.1818 213.811 51.375C214.088 51.5682 214.44 51.6648 214.868 51.6648ZM221.01 53V44.2727H223.004V45.7273H223.095C223.254 45.2235 223.527 44.8352 223.913 44.5625C224.304 44.286 224.749 44.1477 225.249 44.1477C225.362 44.1477 225.489 44.1534 225.629 44.1648C225.773 44.1723 225.893 44.1856 225.987 44.2045V46.0966C225.9 46.0663 225.762 46.0398 225.572 46.017C225.387 45.9905 225.207 45.9773 225.033 45.9773C224.658 45.9773 224.321 46.0587 224.021 46.2216C223.726 46.3807 223.493 46.6023 223.322 46.8864C223.152 47.1705 223.067 47.4981 223.067 47.8693V53H221.01ZM230.233 53.1534C229.547 53.1534 228.934 52.9773 228.392 52.625C227.85 52.2727 227.422 51.7614 227.108 51.0909C226.794 50.4205 226.636 49.6061 226.636 48.6477C226.636 47.678 226.795 46.8598 227.114 46.1932C227.436 45.5227 227.869 45.017 228.415 44.6761C228.96 44.3314 229.568 44.1591 230.239 44.1591C230.75 44.1591 231.17 44.2462 231.5 44.4205C231.83 44.5909 232.091 44.7973 232.284 45.0398C232.477 45.2784 232.627 45.5038 232.733 45.7159H232.818V41.3636H234.881V53H232.858V51.625H232.733C232.627 51.8371 232.473 52.0625 232.273 52.3011C232.072 52.536 231.807 52.7367 231.477 52.9034C231.148 53.0701 230.733 53.1534 230.233 53.1534ZM230.807 51.4659C231.242 51.4659 231.614 51.3485 231.92 51.1136C232.227 50.875 232.46 50.5436 232.619 50.1193C232.778 49.6951 232.858 49.2008 232.858 48.6364C232.858 48.072 232.778 47.5814 232.619 47.1648C232.464 46.7481 232.233 46.4242 231.926 46.1932C231.623 45.9621 231.25 45.8466 230.807 45.8466C230.348 45.8466 229.966 45.9659 229.659 46.2045C229.352 46.4432 229.121 46.7727 228.966 47.1932C228.811 47.6136 228.733 48.0947 228.733 48.6364C228.733 49.1818 228.811 49.6686 228.966 50.0966C229.125 50.5208 229.358 50.8561 229.665 51.1023C229.975 51.3447 230.356 51.4659 230.807 51.4659Z" fill="white"/>
</g>
<defs>
<linearGradient id="paint0_linear_181_3" x1="0" y1="36" x2="382" y2="36" gradientUnits="userSpaceOnUse">
<stop stop-color="#2563EB"/>
<stop offset="1" stop-color="#1D4ED8"/>
</linearGradient>
</defs>
</svg>
