<svg width="422" height="83" viewBox="0 0 422 83" fill="none" xmlns="http://www.w3.org/2000/svg">
<g filter="url(#filter0_d_181_2)">
<rect x="20" y="12" width="382" height="43" rx="12" fill="#6366F1" shape-rendering="crispEdges"/>
<rect x="20.5" y="12.5" width="381" height="42" rx="11.5" stroke="#6366F1" shape-rendering="crispEdges"/>
<path d="M195.157 31.4929C195.104 31.0223 194.885 30.6577 194.5 30.3991C194.116 30.1373 193.632 30.0064 193.049 30.0064C192.631 30.0064 192.27 30.0727 191.965 30.2053C191.66 30.3345 191.423 30.5135 191.254 30.7422C191.088 30.9676 191.005 31.2244 191.005 31.5128C191.005 31.7547 191.062 31.9635 191.174 32.1392C191.291 32.3149 191.441 32.4624 191.627 32.5817C191.816 32.6977 192.018 32.7955 192.233 32.875C192.449 32.9512 192.656 33.0142 192.855 33.0639L193.849 33.3224C194.174 33.402 194.507 33.5097 194.849 33.6456C195.19 33.7815 195.506 33.9605 195.798 34.1825C196.09 34.4046 196.325 34.6797 196.504 35.0078C196.686 35.3359 196.777 35.7287 196.777 36.1861C196.777 36.7628 196.628 37.2749 196.33 37.7223C196.035 38.1697 195.606 38.5227 195.042 38.7812C194.482 39.0398 193.804 39.169 193.009 39.169C192.247 39.169 191.587 39.0481 191.03 38.8061C190.474 38.5642 190.038 38.2211 189.723 37.777C189.408 37.3295 189.234 36.7992 189.201 36.1861H190.742C190.772 36.554 190.891 36.8606 191.1 37.1058C191.312 37.3478 191.582 37.5284 191.91 37.6477C192.242 37.7637 192.605 37.8217 192.999 37.8217C193.433 37.8217 193.819 37.7538 194.157 37.6179C194.499 37.4787 194.767 37.2865 194.963 37.0412C195.158 36.7926 195.256 36.5026 195.256 36.1712C195.256 35.8696 195.17 35.6226 194.998 35.4304C194.829 35.2382 194.598 35.0791 194.307 34.9531C194.018 34.8272 193.692 34.7161 193.327 34.62L192.124 34.2919C191.309 34.0698 190.662 33.7434 190.185 33.3125C189.711 32.8816 189.474 32.3116 189.474 31.6023C189.474 31.0156 189.633 30.5036 189.951 30.0661C190.27 29.6286 190.701 29.2888 191.244 29.0469C191.788 28.8016 192.401 28.679 193.084 28.679C193.773 28.679 194.381 28.8 194.908 29.0419C195.438 29.2839 195.856 29.617 196.161 30.0412C196.466 30.4621 196.625 30.946 196.638 31.4929H195.157ZM198.494 39V31.3636H199.98V39H198.494ZM199.245 30.1854C198.986 30.1854 198.764 30.0992 198.578 29.9268C198.396 29.7512 198.305 29.5424 198.305 29.3004C198.305 29.0552 198.396 28.8464 198.578 28.674C198.764 28.4983 198.986 28.4105 199.245 28.4105C199.503 28.4105 199.724 28.4983 199.906 28.674C200.091 28.8464 200.184 29.0552 200.184 29.3004C200.184 29.5424 200.091 29.7512 199.906 29.9268C199.724 30.0992 199.503 30.1854 199.245 30.1854ZM205.182 42.0227C204.575 42.0227 204.053 41.9432 203.616 41.7841C203.182 41.625 202.827 41.4145 202.552 41.1527C202.277 40.8909 202.071 40.6042 201.936 40.2926L203.213 39.7656C203.303 39.9115 203.422 40.0656 203.571 40.228C203.724 40.3937 203.929 40.5346 204.188 40.6506C204.449 40.7666 204.786 40.8246 205.197 40.8246C205.76 40.8246 206.226 40.687 206.594 40.4119C206.962 40.1402 207.146 39.706 207.146 39.1094V37.608H207.051C206.962 37.7704 206.833 37.951 206.663 38.1499C206.498 38.3487 206.269 38.5211 205.977 38.6669C205.686 38.8127 205.306 38.8857 204.839 38.8857C204.236 38.8857 203.692 38.7448 203.208 38.4631C202.728 38.178 202.346 37.7588 202.065 37.2053C201.786 36.6484 201.647 35.964 201.647 35.152C201.647 34.34 201.785 33.6439 202.06 33.0639C202.338 32.4839 202.719 32.0398 203.203 31.7315C203.687 31.42 204.236 31.2642 204.849 31.2642C205.323 31.2642 205.706 31.3438 205.997 31.5028C206.289 31.6586 206.516 31.8409 206.678 32.0497C206.844 32.2585 206.972 32.4425 207.061 32.6016H207.171V31.3636H208.627V39.169C208.627 39.8253 208.475 40.3639 208.17 40.7848C207.865 41.2057 207.452 41.5173 206.932 41.7195C206.415 41.9216 205.832 42.0227 205.182 42.0227ZM205.167 37.6527C205.595 37.6527 205.956 37.5533 206.251 37.3544C206.549 37.1522 206.775 36.8639 206.927 36.4893C207.083 36.1115 207.161 35.6591 207.161 35.1321C207.161 34.6184 207.084 34.166 206.932 33.7749C206.779 33.3838 206.556 33.0788 206.261 32.8601C205.966 32.638 205.601 32.527 205.167 32.527C204.72 32.527 204.347 32.643 204.048 32.875C203.75 33.1037 203.525 33.4152 203.372 33.8097C203.223 34.2041 203.149 34.6449 203.149 35.1321C203.149 35.6326 203.225 36.0717 203.377 36.4496C203.53 36.8274 203.755 37.1224 204.053 37.3345C204.355 37.5466 204.726 37.6527 205.167 37.6527ZM212.107 34.4659V39H210.621V31.3636H212.048V32.6065H212.142C212.318 32.2022 212.593 31.8774 212.967 31.6321C213.345 31.3868 213.821 31.2642 214.394 31.2642C214.915 31.2642 215.37 31.3736 215.762 31.5923C216.153 31.8078 216.456 32.1293 216.671 32.5568C216.887 32.9844 216.994 33.513 216.994 34.1428V39H215.508V34.3217C215.508 33.7682 215.364 33.3357 215.075 33.0241C214.787 32.7093 214.391 32.5518 213.887 32.5518C213.543 32.5518 213.236 32.6264 212.967 32.7756C212.702 32.9247 212.492 33.1435 212.336 33.4318C212.184 33.7169 212.107 34.0616 212.107 34.4659ZM224.349 28.8182V39H222.812V28.8182H224.349ZM227.953 34.4659V39H226.467V31.3636H227.893V32.6065H227.988C228.164 32.2022 228.439 31.8774 228.813 31.6321C229.191 31.3868 229.667 31.2642 230.24 31.2642C230.76 31.2642 231.216 31.3736 231.607 31.5923C231.998 31.8078 232.302 32.1293 232.517 32.5568C232.732 32.9844 232.84 33.513 232.84 34.1428V39H231.354V34.3217C231.354 33.7682 231.209 33.3357 230.921 33.0241C230.633 32.7093 230.237 32.5518 229.733 32.5518C229.388 32.5518 229.082 32.6264 228.813 32.7756C228.548 32.9247 228.338 33.1435 228.182 33.4318C228.029 33.7169 227.953 34.0616 227.953 34.4659Z" fill="#F8FAFC"/>
</g>
<defs>
<filter id="filter0_d_181_2" x="0" y="0" width="422" height="83" filterUnits="userSpaceOnUse" color-interpolation-filters="sRGB">
<feFlood flood-opacity="0" result="BackgroundImageFix"/>
<feColorMatrix in="SourceAlpha" type="matrix" values="0 0 0 0 0 0 0 0 0 0 0 0 0 0 0 0 0 0 127 0" result="hardAlpha"/>
<feOffset dy="8"/>
<feGaussianBlur stdDeviation="10"/>
<feComposite in2="hardAlpha" operator="out"/>
<feColorMatrix type="matrix" values="0 0 0 0 0.701961 0 0 0 0 0.533333 0 0 0 0 1 0 0 0 0.24 0"/>
<feBlend mode="normal" in2="BackgroundImageFix" result="effect1_dropShadow_181_2"/>
<feBlend mode="normal" in="SourceGraphic" in2="effect1_dropShadow_181_2" result="shape"/>
</filter>
</defs>
</svg>
