<svg width="175" height="43" viewBox="0 0 175 43" fill="none" xmlns="http://www.w3.org/2000/svg">
<rect x="0.5" y="0.5" width="173.75" height="42" rx="11.5" fill="#F8FAFC"/>
<rect x="0.5" y="0.5" width="173.75" height="42" rx="11.5" stroke="#EF4444"/>
<path d="M27 26.75V25.25C27 24.4544 26.6839 23.6913 26.1213 23.1287C25.5587 22.5661 24.7956 22.25 24 22.25H19.5C18.7044 22.25 17.9413 22.5661 17.3787 23.1287C16.8161 23.6913 16.5 24.4544 16.5 25.25V26.75" stroke="#EF4444" stroke-width="1.5" stroke-linecap="round" stroke-linejoin="round"/>
<path d="M21.75 19.25C23.4069 19.25 24.75 17.9069 24.75 16.25C24.75 14.5931 23.4069 13.25 21.75 13.25C20.0931 13.25 18.75 14.5931 18.75 16.25C18.75 17.9069 20.0931 19.25 21.75 19.25Z" stroke="#EF4444" stroke-width="1.5" stroke-linecap="round" stroke-linejoin="round"/>
<path d="M27.75 17L31.5 20.75M31.5 17L27.75 20.75" stroke="#EF4444" stroke-width="1.5" stroke-linecap="round" stroke-linejoin="round"/>
<path d="M47.6719 17.9929C47.6188 17.5223 47.4001 17.1577 47.0156 16.8991C46.6312 16.6373 46.1473 16.5064 45.5639 16.5064C45.1463 16.5064 44.785 16.5727 44.4801 16.7053C44.1752 16.8345 43.9382 17.0135 43.7692 17.2422C43.6035 17.4676 43.5206 17.7244 43.5206 18.0128C43.5206 18.2547 43.5769 18.4635 43.6896 18.6392C43.8056 18.8149 43.9564 18.9624 44.142 19.0817C44.331 19.1977 44.5331 19.2955 44.7486 19.375C44.964 19.4512 45.1712 19.5142 45.37 19.5639L46.3643 19.8224C46.6892 19.902 47.0223 20.0097 47.3636 20.1456C47.705 20.2815 48.0215 20.4605 48.3132 20.6825C48.6049 20.9046 48.8402 21.1797 49.0192 21.5078C49.2015 21.8359 49.2926 22.2287 49.2926 22.6861C49.2926 23.2628 49.1435 23.7749 48.8452 24.2223C48.5502 24.6697 48.121 25.0227 47.5575 25.2812C46.9974 25.5398 46.3196 25.669 45.5241 25.669C44.7618 25.669 44.1023 25.5481 43.5455 25.3061C42.9886 25.0642 42.5528 24.7211 42.2379 24.277C41.9231 23.8295 41.7491 23.2992 41.7159 22.6861H43.2571C43.2869 23.054 43.4063 23.3606 43.6151 23.6058C43.8272 23.8478 44.0973 24.0284 44.4254 24.1477C44.7569 24.2637 45.1198 24.3217 45.5142 24.3217C45.9484 24.3217 46.3345 24.2538 46.6726 24.1179C47.014 23.9787 47.2824 23.7865 47.478 23.5412C47.6735 23.2926 47.7713 23.0026 47.7713 22.6712C47.7713 22.3696 47.6851 22.1226 47.5128 21.9304C47.3438 21.7382 47.1134 21.5791 46.8217 21.4531C46.5334 21.3272 46.2069 21.2161 45.8423 21.12L44.6392 20.7919C43.8239 20.5698 43.1776 20.2434 42.7003 19.8125C42.2263 19.3816 41.9893 18.8116 41.9893 18.1023C41.9893 17.5156 42.1484 17.0036 42.4666 16.5661C42.7848 16.1286 43.2157 15.7888 43.7592 15.5469C44.3028 15.3016 44.916 15.179 45.5987 15.179C46.2881 15.179 46.8963 15.3 47.4233 15.5419C47.9536 15.7839 48.3712 16.117 48.6761 16.5412C48.9811 16.9621 49.1402 17.446 49.1534 17.9929H47.6719ZM55.8464 22.3331V17.8636H57.3379V25.5H55.8762V24.1776H55.7967C55.621 24.5852 55.3393 24.925 54.9515 25.1967C54.5671 25.4652 54.0881 25.5994 53.5147 25.5994C53.0242 25.5994 52.59 25.4917 52.2122 25.2763C51.8377 25.0575 51.5427 24.7344 51.3272 24.3068C51.1151 23.8793 51.0091 23.3506 51.0091 22.7209V17.8636H52.4956V22.5419C52.4956 23.0623 52.6397 23.4766 52.9281 23.7848C53.2164 24.093 53.591 24.2472 54.0517 24.2472C54.3301 24.2472 54.6068 24.1776 54.8819 24.0384C55.1603 23.8991 55.3907 23.6887 55.573 23.407C55.7586 23.1252 55.8497 22.7673 55.8464 22.3331ZM65.0575 19.728L63.7102 19.9666C63.6539 19.7943 63.5644 19.6302 63.4418 19.4744C63.3224 19.3187 63.16 19.1911 62.9545 19.0916C62.7491 18.9922 62.4922 18.9425 62.1839 18.9425C61.763 18.9425 61.4117 19.0369 61.13 19.2259C60.8482 19.4115 60.7074 19.6518 60.7074 19.9467C60.7074 20.2019 60.8018 20.4074 60.9908 20.5632C61.1797 20.719 61.4846 20.8466 61.9055 20.946L63.1186 21.2244C63.8213 21.3868 64.3449 21.6371 64.6896 21.9751C65.0343 22.3132 65.2067 22.7524 65.2067 23.2926C65.2067 23.75 65.0741 24.1577 64.8089 24.5156C64.5471 24.8703 64.1809 25.1487 63.7102 25.3509C63.2429 25.553 62.701 25.6541 62.0845 25.6541C61.2294 25.6541 60.5317 25.4718 59.9915 25.1072C59.4512 24.7393 59.1198 24.2173 58.9972 23.5412L60.4339 23.3224C60.5234 23.697 60.7074 23.9804 60.9858 24.1726C61.2642 24.3615 61.6271 24.456 62.0746 24.456C62.5618 24.456 62.9512 24.3549 63.2429 24.1527C63.5346 23.9472 63.6804 23.697 63.6804 23.402C63.6804 23.1634 63.5909 22.9628 63.4119 22.8004C63.2363 22.638 62.9661 22.5154 62.6016 22.4325L61.3089 22.1491C60.5964 21.9867 60.0694 21.7282 59.728 21.3736C59.3899 21.0189 59.2209 20.5698 59.2209 20.0263C59.2209 19.5755 59.3468 19.1811 59.5987 18.843C59.8506 18.505 60.1986 18.2415 60.6428 18.0526C61.0869 17.8603 61.5956 17.7642 62.169 17.7642C62.9943 17.7642 63.6439 17.9432 64.1179 18.3011C64.5919 18.6558 64.9051 19.1314 65.0575 19.728ZM66.8411 28.3636V17.8636H68.2928V19.1016H68.4171C68.5033 18.9425 68.6275 18.7585 68.79 18.5497C68.9524 18.3409 69.1777 18.1586 69.4661 18.0028C69.7544 17.8438 70.1356 17.7642 70.6096 17.7642C71.226 17.7642 71.7762 17.92 72.2601 18.2315C72.744 18.5431 73.1235 18.9922 73.3986 19.5788C73.677 20.1655 73.8162 20.8714 73.8162 21.6967C73.8162 22.522 73.6787 23.2296 73.4036 23.8196C73.1285 24.4062 72.7507 24.8587 72.2701 25.1768C71.7895 25.4917 71.2409 25.6491 70.6245 25.6491C70.1605 25.6491 69.781 25.5713 69.486 25.4155C69.1943 25.2597 68.9656 25.0774 68.7999 24.8686C68.6342 24.6598 68.5066 24.4742 68.4171 24.3118H68.3276V28.3636H66.8411ZM68.2978 21.6818C68.2978 22.2187 68.3757 22.6894 68.5314 23.0938C68.6872 23.4981 68.9126 23.8146 69.2076 24.0433C69.5025 24.2687 69.8638 24.3814 70.2914 24.3814C70.7355 24.3814 71.1067 24.2637 71.405 24.0284C71.7033 23.7898 71.9287 23.4666 72.0811 23.0589C72.2369 22.6513 72.3148 22.1922 72.3148 21.6818C72.3148 21.178 72.2386 20.7256 72.0861 20.3246C71.937 19.9235 71.7116 19.607 71.41 19.375C71.1117 19.143 70.7388 19.027 70.2914 19.027C69.8605 19.027 69.4959 19.138 69.1976 19.3601C68.9026 19.5821 68.6789 19.892 68.5265 20.2898C68.374 20.6875 68.2978 21.1515 68.2978 21.6818ZM78.7729 25.6541C78.0205 25.6541 77.3726 25.4934 76.829 25.1719C76.2888 24.8471 75.8712 24.3913 75.5762 23.8047C75.2845 23.2147 75.1387 22.5237 75.1387 21.7315C75.1387 20.9493 75.2845 20.2599 75.5762 19.6634C75.8712 19.0668 76.2821 18.6011 76.8091 18.2663C77.3394 17.9316 77.9592 17.7642 78.6685 17.7642C79.0994 17.7642 79.517 17.8355 79.9213 17.978C80.3257 18.1205 80.6886 18.3442 81.0101 18.6491C81.3316 18.9541 81.5852 19.3501 81.7708 19.8374C81.9564 20.3213 82.0492 20.9096 82.0492 21.6023V22.1293H75.9789V21.0156H80.5925C80.5925 20.6245 80.513 20.2782 80.3539 19.9766C80.1948 19.6716 79.9711 19.4313 79.6827 19.2557C79.3977 19.08 79.0629 18.9922 78.6784 18.9922C78.2608 18.9922 77.8962 19.0949 77.5847 19.3004C77.2765 19.5026 77.0378 19.7678 76.8688 20.0959C76.7031 20.4207 76.6202 20.7737 76.6202 21.1548V22.0249C76.6202 22.5353 76.7097 22.9695 76.8887 23.3274C77.071 23.6854 77.3245 23.9588 77.6493 24.1477C77.9741 24.3333 78.3536 24.4261 78.7878 24.4261C79.0695 24.4261 79.3264 24.3864 79.5584 24.3068C79.7904 24.224 79.9909 24.1013 80.16 23.9389C80.329 23.7765 80.4583 23.576 80.5478 23.3374L81.9547 23.5909C81.842 24.0052 81.6399 24.3681 81.3482 24.6797C81.0598 24.9879 80.6969 25.2282 80.2594 25.4006C79.8252 25.5696 79.3297 25.6541 78.7729 25.6541ZM85.185 20.9659V25.5H83.6985V17.8636H85.1254V19.1065H85.2198C85.3955 18.7022 85.6706 18.3774 86.0451 18.1321C86.4229 17.8868 86.8986 17.7642 87.4719 17.7642C87.9923 17.7642 88.448 17.8736 88.8391 18.0923C89.2302 18.3078 89.5335 18.6293 89.7489 19.0568C89.9644 19.4844 90.0721 20.013 90.0721 20.6428V25.5H88.5856V20.8217C88.5856 20.2682 88.4414 19.8357 88.1531 19.5241C87.8647 19.2093 87.4686 19.0518 86.9648 19.0518C86.6201 19.0518 86.3136 19.1264 86.0451 19.2756C85.7799 19.4247 85.5695 19.6435 85.4137 19.9318C85.2612 20.2169 85.185 20.5616 85.185 20.9659ZM94.9244 25.6491C94.3079 25.6491 93.7577 25.4917 93.2738 25.1768C92.7932 24.8587 92.4154 24.4062 92.1403 23.8196C91.8685 23.2296 91.7326 22.522 91.7326 21.6967C91.7326 20.8714 91.8701 20.1655 92.1452 19.5788C92.4237 18.9922 92.8048 18.5431 93.2887 18.2315C93.7726 17.92 94.3211 17.7642 94.9343 17.7642C95.4083 17.7642 95.7894 17.8438 96.0778 18.0028C96.3694 18.1586 96.5948 18.3409 96.7539 18.5497C96.9163 18.7585 97.0423 18.9425 97.1317 19.1016H97.2212V15.3182H98.7077V25.5H97.256V24.3118H97.1317C97.0423 24.4742 96.913 24.6598 96.744 24.8686C96.5782 25.0774 96.3496 25.2597 96.0579 25.4155C95.7662 25.5713 95.3884 25.6491 94.9244 25.6491ZM95.2525 24.3814C95.68 24.3814 96.0413 24.2687 96.3363 24.0433C96.6346 23.8146 96.86 23.4981 97.0124 23.0938C97.1682 22.6894 97.2461 22.2187 97.2461 21.6818C97.2461 21.1515 97.1699 20.6875 97.0174 20.2898C96.8649 19.892 96.6412 19.5821 96.3462 19.3601C96.0513 19.138 95.6867 19.027 95.2525 19.027C94.805 19.027 94.4322 19.143 94.1339 19.375C93.8356 19.607 93.6102 19.9235 93.4577 20.3246C93.3086 20.7256 93.234 21.178 93.234 21.6818C93.234 22.1922 93.3103 22.6513 93.4627 23.0589C93.6152 23.4666 93.8406 23.7898 94.1388 24.0284C94.4405 24.2637 94.8117 24.3814 95.2525 24.3814ZM105.514 25.5H103.883L107.547 15.3182H109.322L112.986 25.5H111.355L108.477 17.1676H108.397L105.514 25.5ZM105.787 21.5128H111.077V22.8054H105.787V21.5128ZM117.431 25.6541C116.692 25.6541 116.055 25.4867 115.522 25.152C114.991 24.8139 114.584 24.3482 114.299 23.755C114.014 23.1617 113.871 22.4822 113.871 21.7166C113.871 20.9411 114.017 20.2566 114.309 19.6634C114.6 19.0668 115.011 18.6011 115.542 18.2663C116.072 17.9316 116.697 17.7642 117.416 17.7642C117.996 17.7642 118.513 17.8719 118.967 18.0874C119.421 18.2995 119.787 18.5978 120.066 18.9822C120.347 19.3667 120.515 19.8158 120.568 20.3295H119.121C119.042 19.9716 118.859 19.6634 118.574 19.4048C118.292 19.1463 117.915 19.017 117.441 19.017C117.026 19.017 116.663 19.1264 116.352 19.3452C116.044 19.5606 115.803 19.8688 115.631 20.2699C115.459 20.6676 115.373 21.1383 115.373 21.6818C115.373 22.2386 115.457 22.7192 115.626 23.1236C115.795 23.5279 116.034 23.8411 116.342 24.0632C116.654 24.2853 117.02 24.3963 117.441 24.3963C117.722 24.3963 117.978 24.3449 118.206 24.2422C118.438 24.1361 118.632 23.9853 118.788 23.7898C118.947 23.5942 119.058 23.3589 119.121 23.0838H120.568C120.515 23.5777 120.354 24.0185 120.086 24.4062C119.817 24.794 119.458 25.099 119.007 25.321C118.559 25.5431 118.034 25.6541 117.431 25.6541ZM125.374 25.6541C124.635 25.6541 123.999 25.4867 123.465 25.152C122.935 24.8139 122.527 24.3482 122.242 23.755C121.957 23.1617 121.814 22.4822 121.814 21.7166C121.814 20.9411 121.96 20.2566 122.252 19.6634C122.544 19.0668 122.955 18.6011 123.485 18.2663C124.015 17.9316 124.64 17.7642 125.359 17.7642C125.939 17.7642 126.456 17.8719 126.91 18.0874C127.364 18.2995 127.731 18.5978 128.009 18.9822C128.291 19.3667 128.458 19.8158 128.511 20.3295H127.064C126.985 19.9716 126.803 19.6634 126.518 19.4048C126.236 19.1463 125.858 19.017 125.384 19.017C124.97 19.017 124.607 19.1264 124.295 19.3452C123.987 19.5606 123.747 19.8688 123.574 20.2699C123.402 20.6676 123.316 21.1383 123.316 21.6818C123.316 22.2386 123.4 22.7192 123.569 23.1236C123.738 23.5279 123.977 23.8411 124.285 24.0632C124.597 24.2853 124.963 24.3963 125.384 24.3963C125.666 24.3963 125.921 24.3449 126.15 24.2422C126.382 24.1361 126.576 23.9853 126.731 23.7898C126.89 23.5942 127.001 23.3589 127.064 23.0838H128.511C128.458 23.5777 128.297 24.0185 128.029 24.4062C127.76 24.794 127.401 25.099 126.95 25.321C126.503 25.5431 125.977 25.6541 125.374 25.6541ZM133.317 25.6541C132.602 25.6541 131.977 25.4901 131.443 25.1619C130.91 24.8338 130.495 24.3748 130.2 23.7848C129.905 23.1948 129.758 22.5054 129.758 21.7166C129.758 20.9245 129.905 20.2318 130.2 19.6385C130.495 19.0452 130.91 18.5845 131.443 18.2564C131.977 17.9283 132.602 17.7642 133.317 17.7642C134.033 17.7642 134.658 17.9283 135.192 18.2564C135.725 18.5845 136.14 19.0452 136.435 19.6385C136.73 20.2318 136.877 20.9245 136.877 21.7166C136.877 22.5054 136.73 23.1948 136.435 23.7848C136.14 24.3748 135.725 24.8338 135.192 25.1619C134.658 25.4901 134.033 25.6541 133.317 25.6541ZM133.322 24.4062C133.786 24.4062 134.171 24.2836 134.476 24.0384C134.781 23.7931 135.006 23.4666 135.152 23.0589C135.301 22.6513 135.376 22.2022 135.376 21.7116C135.376 21.2244 135.301 20.777 135.152 20.3693C135.006 19.9583 134.781 19.6286 134.476 19.38C134.171 19.1314 133.786 19.0071 133.322 19.0071C132.855 19.0071 132.467 19.1314 132.159 19.38C131.854 19.6286 131.627 19.9583 131.478 20.3693C131.332 20.777 131.259 21.2244 131.259 21.7116C131.259 22.2022 131.332 22.6513 131.478 23.0589C131.627 23.4666 131.854 23.7931 132.159 24.0384C132.467 24.2836 132.855 24.4062 133.322 24.4062ZM143.374 22.3331V17.8636H144.865V25.5H143.404V24.1776H143.324C143.148 24.5852 142.867 24.925 142.479 25.1967C142.094 25.4652 141.615 25.5994 141.042 25.5994C140.552 25.5994 140.117 25.4917 139.74 25.2763C139.365 25.0575 139.07 24.7344 138.855 24.3068C138.642 23.8793 138.536 23.3506 138.536 22.7209V17.8636H140.023V22.5419C140.023 23.0623 140.167 23.4766 140.455 23.7848C140.744 24.093 141.118 24.2472 141.579 24.2472C141.857 24.2472 142.134 24.1776 142.409 24.0384C142.688 23.8991 142.918 23.6887 143.1 23.407C143.286 23.1252 143.377 22.7673 143.374 22.3331ZM148.349 20.9659V25.5H146.863V17.8636H148.289V19.1065H148.384C148.56 18.7022 148.835 18.3774 149.209 18.1321C149.587 17.8868 150.063 17.7642 150.636 17.7642C151.156 17.7642 151.612 17.8736 152.003 18.0923C152.394 18.3078 152.698 18.6293 152.913 19.0568C153.128 19.4844 153.236 20.013 153.236 20.6428V25.5H151.75V20.8217C151.75 20.2682 151.605 19.8357 151.317 19.5241C151.029 19.2093 150.633 19.0518 150.129 19.0518C149.784 19.0518 149.478 19.1264 149.209 19.2756C148.944 19.4247 148.734 19.6435 148.578 19.9318C148.425 20.2169 148.349 20.5616 148.349 20.9659ZM158.794 17.8636V19.0568H154.623V17.8636H158.794ZM155.742 16.0341H157.228V23.2578C157.228 23.5462 157.271 23.7633 157.358 23.9091C157.444 24.0516 157.555 24.1494 157.691 24.2024C157.83 24.2521 157.981 24.277 158.143 24.277C158.262 24.277 158.367 24.2687 158.456 24.2521C158.546 24.2356 158.615 24.2223 158.665 24.2124L158.934 25.4403C158.847 25.4735 158.725 25.5066 158.566 25.5398C158.407 25.5762 158.208 25.5961 157.969 25.5994C157.578 25.6061 157.213 25.5365 156.875 25.3906C156.537 25.2448 156.264 25.0194 156.055 24.7145C155.846 24.4096 155.742 24.0268 155.742 23.5661V16.0341Z" fill="#EF4444"/>
</svg>
