<svg width="160" height="69" viewBox="0 0 160 69" fill="none" xmlns="http://www.w3.org/2000/svg">
<rect x="0.5" y="0.5" width="158.81" height="67.13" rx="11.5" fill="#F8FAFC"/>
<rect x="0.5" y="0.5" width="158.81" height="67.13" rx="11.5" stroke="#FACC15"/>
<path d="M24 16V20M24 24H24.01M32 21C32 26 28.5 28.5 24.34 29.95C24.1222 30.0238 23.8855 30.0203 23.67 29.94C19.5 28.5 16 26 16 21V14C16 13.7348 16.1054 13.4805 16.2929 13.2929C16.4804 13.1054 16.7348 13 17 13C19 13 21.5 11.8 23.24 10.28C23.4519 10.099 23.7214 9.99957 24 9.99957C24.2786 9.99957 24.5481 10.099 24.76 10.28C26.51 11.81 29 13 31 13C31.2652 13 31.5196 13.1054 31.7071 13.2929C31.8946 13.4805 32 13.7348 32 14V21Z" stroke="#FACC15" stroke-width="2" stroke-linecap="round" stroke-linejoin="round"/>
<path d="M44.1122 25.5L41.2884 15.3182H42.9041L44.8878 23.2031H44.9822L47.0455 15.3182H48.6463L50.7095 23.2081H50.804L52.7827 15.3182H54.4034L51.5746 25.5H50.0284L47.8857 17.8736H47.8061L45.6634 25.5H44.1122ZM57.1552 25.669C56.6713 25.669 56.2338 25.5795 55.8427 25.4006C55.4516 25.2183 55.1417 24.9548 54.913 24.6101C54.6876 24.2654 54.5749 23.8428 54.5749 23.3423C54.5749 22.9115 54.6578 22.5568 54.8235 22.2784C54.9892 22 55.2129 21.7796 55.4947 21.6172C55.7764 21.4548 56.0913 21.3321 56.4393 21.2493C56.7873 21.1664 57.1419 21.1035 57.5032 21.0604C57.9606 21.0073 58.3318 20.9643 58.6168 20.9311C58.9019 20.8946 59.109 20.8366 59.2383 20.7571C59.3675 20.6776 59.4322 20.5483 59.4322 20.3693V20.3345C59.4322 19.9003 59.3095 19.5639 59.0643 19.3253C58.8223 19.0866 58.4611 18.9673 57.9805 18.9673C57.48 18.9673 57.0856 19.0784 56.7972 19.3004C56.5122 19.5192 56.315 19.7628 56.2056 20.0312L54.8086 19.7131C54.9743 19.2491 55.2163 18.8745 55.5344 18.5895C55.8559 18.3011 56.2255 18.0923 56.6431 17.9631C57.0607 17.8305 57.4999 17.7642 57.9606 17.7642C58.2655 17.7642 58.5887 17.8007 58.93 17.8736C59.2747 17.9432 59.5962 18.0724 59.8945 18.2614C60.1961 18.4503 60.4431 18.7204 60.6353 19.0717C60.8275 19.4197 60.9237 19.8722 60.9237 20.429V25.5H59.4719V24.456H59.4123C59.3162 24.6482 59.172 24.8371 58.9798 25.0227C58.7875 25.2083 58.5406 25.3625 58.239 25.4851C57.9374 25.6077 57.5761 25.669 57.1552 25.669ZM57.4783 24.4759C57.8893 24.4759 58.2406 24.3946 58.5323 24.2322C58.8273 24.0698 59.051 23.8577 59.2035 23.5959C59.3593 23.3307 59.4371 23.0473 59.4371 22.7457V21.7614C59.3841 21.8144 59.2814 21.8641 59.1289 21.9105C58.9798 21.9536 58.8091 21.9917 58.6168 22.0249C58.4246 22.0547 58.2373 22.0829 58.055 22.1094C57.8728 22.1326 57.7203 22.1525 57.5977 22.169C57.3093 22.2055 57.0458 22.2668 56.8072 22.353C56.5719 22.4392 56.3829 22.5634 56.2404 22.7259C56.1012 22.8849 56.0316 23.0971 56.0316 23.3622C56.0316 23.7301 56.1675 24.0085 56.4393 24.1974C56.7111 24.383 57.0574 24.4759 57.4783 24.4759ZM62.9036 25.5V17.8636H64.3404V19.0767H64.4199C64.5591 18.6657 64.8044 18.3426 65.1557 18.1072C65.5104 17.8686 65.9114 17.7493 66.3588 17.7493C66.4516 17.7493 66.561 17.7526 66.687 17.7592C66.8162 17.7659 66.9173 17.7741 66.9902 17.7841V19.206C66.9306 19.1894 66.8245 19.1712 66.6721 19.1513C66.5196 19.1281 66.3671 19.1165 66.2147 19.1165C65.8633 19.1165 65.5501 19.1911 65.275 19.3402C65.0033 19.486 64.7878 19.6899 64.6287 19.9517C64.4696 20.2102 64.3901 20.5052 64.3901 20.8366V25.5H62.9036ZM69.7631 20.9659V25.5H68.2766V17.8636H69.7035V19.1065H69.7979C69.9736 18.7022 70.2487 18.3774 70.6232 18.1321C71.0011 17.8868 71.4767 17.7642 72.0501 17.7642C72.5704 17.7642 73.0262 17.8736 73.4173 18.0923C73.8084 18.3078 74.1116 18.6293 74.3271 19.0568C74.5425 19.4844 74.6502 20.013 74.6502 20.6428V25.5H73.1637V20.8217C73.1637 20.2682 73.0195 19.8357 72.7312 19.5241C72.4428 19.2093 72.0468 19.0518 71.543 19.0518C71.1983 19.0518 70.8917 19.1264 70.6232 19.2756C70.3581 19.4247 70.1476 19.6435 69.9918 19.9318C69.8394 20.2169 69.7631 20.5616 69.7631 20.9659ZM88.9249 18.6293H87.3738C87.3141 18.2978 87.2031 18.0062 87.0407 17.7543C86.8783 17.5024 86.6794 17.2886 86.4441 17.1129C86.2087 16.9373 85.9453 16.8047 85.6536 16.7152C85.3652 16.6257 85.0587 16.581 84.7338 16.581C84.1472 16.581 83.6219 16.7285 83.1578 17.0234C82.6971 17.3184 82.3326 17.7509 82.0641 18.321C81.7989 18.8911 81.6664 19.5871 81.6664 20.4091C81.6664 21.2377 81.7989 21.937 82.0641 22.5071C82.3326 23.0772 82.6988 23.508 83.1628 23.7997C83.6268 24.0914 84.1489 24.2372 84.7289 24.2372C85.0504 24.2372 85.3553 24.1941 85.6436 24.108C85.9353 24.0185 86.1988 23.8875 86.4341 23.7152C86.6694 23.5429 86.8683 23.3324 87.0307 23.0838C87.1964 22.8319 87.3108 22.5436 87.3738 22.2188L88.9249 22.2237C88.842 22.7242 88.6813 23.1849 88.4426 23.6058C88.2073 24.0234 87.9041 24.3847 87.5328 24.6896C87.165 24.9912 86.744 25.2249 86.2701 25.3906C85.7961 25.5563 85.2791 25.6392 84.7189 25.6392C83.8373 25.6392 83.0518 25.4304 82.3624 25.0128C81.673 24.5919 81.1294 23.9903 80.7317 23.2081C80.3373 22.4259 80.1401 21.4929 80.1401 20.4091C80.1401 19.322 80.339 18.389 80.7367 17.6101C81.1344 16.8279 81.678 16.228 82.3674 15.8104C83.0568 15.3894 83.8406 15.179 84.7189 15.179C85.2592 15.179 85.763 15.2569 86.2303 15.4126C86.7009 15.5651 87.1235 15.7905 87.498 16.0888C87.8726 16.3838 88.1825 16.745 88.4277 17.1726C88.673 17.5968 88.8387 18.0824 88.9249 18.6293ZM90.6438 25.5V17.8636H92.0806V19.0767H92.1602C92.2994 18.6657 92.5446 18.3426 92.896 18.1072C93.2506 17.8686 93.6516 17.7493 94.0991 17.7493C94.1919 17.7493 94.3013 17.7526 94.4272 17.7592C94.5565 17.7659 94.6576 17.7741 94.7305 17.7841V19.206C94.6708 19.1894 94.5647 19.1712 94.4123 19.1513C94.2598 19.1281 94.1074 19.1165 93.9549 19.1165C93.6036 19.1165 93.2904 19.1911 93.0153 19.3402C92.7435 19.486 92.5281 19.6899 92.369 19.9517C92.2099 20.2102 92.1303 20.5052 92.1303 20.8366V25.5H90.6438ZM99.0346 25.6541C98.2823 25.6541 97.6343 25.4934 97.0907 25.1719C96.5505 24.8471 96.1329 24.3913 95.8379 23.8047C95.5462 23.2147 95.4004 22.5237 95.4004 21.7315C95.4004 20.9493 95.5462 20.2599 95.8379 19.6634C96.1329 19.0668 96.5439 18.6011 97.0708 18.2663C97.6011 17.9316 98.2209 17.7642 98.9302 17.7642C99.3611 17.7642 99.7787 17.8355 100.183 17.978C100.587 18.1205 100.95 18.3442 101.272 18.6491C101.593 18.9541 101.847 19.3501 102.032 19.8374C102.218 20.3213 102.311 20.9096 102.311 21.6023V22.1293H96.2406V21.0156H100.854C100.854 20.6245 100.775 20.2782 100.616 19.9766C100.456 19.6716 100.233 19.4313 99.9444 19.2557C99.6594 19.08 99.3246 18.9922 98.9402 18.9922C98.5225 18.9922 98.158 19.0949 97.8464 19.3004C97.5382 19.5026 97.2995 19.7678 97.1305 20.0959C96.9648 20.4207 96.8819 20.7737 96.8819 21.1548V22.0249C96.8819 22.5353 96.9714 22.9695 97.1504 23.3274C97.3327 23.6854 97.5862 23.9588 97.911 24.1477C98.2359 24.3333 98.6154 24.4261 99.0495 24.4261C99.3313 24.4261 99.5881 24.3864 99.8201 24.3068C100.052 24.224 100.253 24.1013 100.422 23.9389C100.591 23.7765 100.72 23.576 100.809 23.3374L102.216 23.5909C102.104 24.0052 101.902 24.3681 101.61 24.6797C101.322 24.9879 100.959 25.2282 100.521 25.4006C100.087 25.5696 99.5914 25.6541 99.0346 25.6541ZM106.183 25.669C105.699 25.669 105.261 25.5795 104.87 25.4006C104.479 25.2183 104.169 24.9548 103.94 24.6101C103.715 24.2654 103.602 23.8428 103.602 23.3423C103.602 22.9115 103.685 22.5568 103.851 22.2784C104.017 22 104.24 21.7796 104.522 21.6172C104.804 21.4548 105.119 21.3321 105.467 21.2493C105.815 21.1664 106.169 21.1035 106.531 21.0604C106.988 21.0073 107.359 20.9643 107.644 20.9311C107.929 20.8946 108.136 20.8366 108.266 20.7571C108.395 20.6776 108.46 20.5483 108.46 20.3693V20.3345C108.46 19.9003 108.337 19.5639 108.092 19.3253C107.85 19.0866 107.488 18.9673 107.008 18.9673C106.507 18.9673 106.113 19.0784 105.825 19.3004C105.54 19.5192 105.342 19.7628 105.233 20.0312L103.836 19.7131C104.002 19.2491 104.244 18.8745 104.562 18.5895C104.883 18.3011 105.253 18.0923 105.67 17.9631C106.088 17.8305 106.527 17.7642 106.988 17.7642C107.293 17.7642 107.616 17.8007 107.957 17.8736C108.302 17.9432 108.624 18.0724 108.922 18.2614C109.223 18.4503 109.47 18.7204 109.663 19.0717C109.855 19.4197 109.951 19.8722 109.951 20.429V25.5H108.499V24.456H108.44C108.344 24.6482 108.199 24.8371 108.007 25.0227C107.815 25.2083 107.568 25.3625 107.266 25.4851C106.965 25.6077 106.603 25.669 106.183 25.669ZM106.506 24.4759C106.917 24.4759 107.268 24.3946 107.56 24.2322C107.855 24.0698 108.078 23.8577 108.231 23.5959C108.387 23.3307 108.464 23.0473 108.464 22.7457V21.7614C108.411 21.8144 108.309 21.8641 108.156 21.9105C108.007 21.9536 107.836 21.9917 107.644 22.0249C107.452 22.0547 107.265 22.0829 107.082 22.1094C106.9 22.1326 106.748 22.1525 106.625 22.169C106.337 22.2055 106.073 22.2668 105.835 22.353C105.599 22.4392 105.41 22.5634 105.268 22.7259C105.129 22.8849 105.059 23.0971 105.059 23.3622C105.059 23.7301 105.195 24.0085 105.467 24.1974C105.738 24.383 106.085 24.4759 106.506 24.4759ZM115.496 17.8636V19.0568H111.324V17.8636H115.496ZM112.443 16.0341H113.93V23.2578C113.93 23.5462 113.973 23.7633 114.059 23.9091C114.145 24.0516 114.256 24.1494 114.392 24.2024C114.531 24.2521 114.682 24.277 114.844 24.277C114.964 24.277 115.068 24.2687 115.157 24.2521C115.247 24.2356 115.317 24.2223 115.366 24.2124L115.635 25.4403C115.549 25.4735 115.426 25.5066 115.267 25.5398C115.108 25.5762 114.909 25.5961 114.67 25.5994C114.279 25.6061 113.915 25.5365 113.577 25.3906C113.238 25.2448 112.965 25.0194 112.756 24.7145C112.547 24.4096 112.443 24.0268 112.443 23.5661V16.0341ZM120.275 25.6541C119.559 25.6541 118.934 25.4901 118.4 25.1619C117.867 24.8338 117.452 24.3748 117.157 23.7848C116.862 23.1948 116.715 22.5054 116.715 21.7166C116.715 20.9245 116.862 20.2318 117.157 19.6385C117.452 19.0452 117.867 18.5845 118.4 18.2564C118.934 17.9283 119.559 17.7642 120.275 17.7642C120.99 17.7642 121.615 17.9283 122.149 18.2564C122.682 18.5845 123.097 19.0452 123.392 19.6385C123.687 20.2318 123.834 20.9245 123.834 21.7166C123.834 22.5054 123.687 23.1948 123.392 23.7848C123.097 24.3748 122.682 24.8338 122.149 25.1619C121.615 25.4901 120.99 25.6541 120.275 25.6541ZM120.279 24.4062C120.743 24.4062 121.128 24.2836 121.433 24.0384C121.738 23.7931 121.963 23.4666 122.109 23.0589C122.258 22.6513 122.333 22.2022 122.333 21.7116C122.333 21.2244 122.258 20.777 122.109 20.3693C121.963 19.9583 121.738 19.6286 121.433 19.38C121.128 19.1314 120.743 19.0071 120.279 19.0071C119.812 19.0071 119.424 19.1314 119.116 19.38C118.811 19.6286 118.584 19.9583 118.435 20.3693C118.289 20.777 118.216 21.2244 118.216 21.7116C118.216 22.2022 118.289 22.6513 118.435 23.0589C118.584 23.4666 118.811 23.7931 119.116 24.0384C119.424 24.2836 119.812 24.4062 120.279 24.4062ZM125.493 25.5V17.8636H126.93V19.0767H127.01C127.149 18.6657 127.394 18.3426 127.746 18.1072C128.1 17.8686 128.501 17.7493 128.949 17.7493C129.041 17.7493 129.151 17.7526 129.277 17.7592C129.406 17.7659 129.507 17.7741 129.58 17.7841V19.206C129.52 19.1894 129.414 19.1712 129.262 19.1513C129.109 19.1281 128.957 19.1165 128.805 19.1165C128.453 19.1165 128.14 19.1911 127.865 19.3402C127.593 19.486 127.378 19.6899 127.219 19.9517C127.059 20.2102 126.98 20.5052 126.98 20.8366V25.5H125.493Z" fill="#FACC15"/>
</svg>
