<svg width="24" height="24" viewBox="0 0 24 24" fill="none" xmlns="http://www.w3.org/2000/svg">
<path d="M12 1.99954C11.7214 1.99954 11.4519 2.09899 11.24 2.27999C9.5 3.79999 7 4.99999 5 4.99999C4.73478 4.99999 4.48043 5.10535 4.29289 5.29289C4.10536 5.48042 4 5.73478 4 5.99999V13C4 18 7.5 20.5 11.67 21.94C11.8855 22.0203 12.1222 22.0238 12.34 21.95C16.5 20.5 20 18 20 13V5.99999C20 5.73478 19.8946 5.48042 19.7071 5.29289C19.5196 5.10535 19.2652 4.99999 19 4.99999C17 4.99999 14.51 3.80999 12.76 2.27999C12.5481 2.09899 12.2786 1.99954 12 1.99954ZM12 1.99954V22" stroke="#6366F1" stroke-width="2" stroke-linecap="round" stroke-linejoin="round"/>
</svg>
