<svg width="34" height="33" viewBox="0 0 34 33" fill="none" xmlns="http://www.w3.org/2000/svg">
<path d="M14.5917 20.625H9.91667C8.41377 20.625 6.97243 21.2045 5.90973 22.2359C4.84702 23.2674 4.25 24.6663 4.25 26.125V28.875M21.25 21.3125V19.25C21.25 18.5207 21.5485 17.8212 22.0799 17.3055C22.6112 16.7897 23.3319 16.5 24.0833 16.5C24.8348 16.5 25.5554 16.7897 26.0868 17.3055C26.6182 17.8212 26.9167 18.5207 26.9167 19.25V21.3125M19.8333 9.625C19.8333 12.6626 17.2963 15.125 14.1667 15.125C11.0371 15.125 8.5 12.6626 8.5 9.625C8.5 6.58743 11.0371 4.125 14.1667 4.125C17.2963 4.125 19.8333 6.58743 19.8333 9.625ZM19.6902 22H28.4764C29.1798 22 29.75 22.5534 29.75 23.2361V27.6389C29.75 28.3216 29.1798 28.875 28.4764 28.875H19.6902C18.9869 28.875 18.4167 28.3216 18.4167 27.6389V23.2361C18.4167 22.5534 18.9869 22 19.6902 22Z" stroke="black" stroke-width="2" stroke-linecap="round" stroke-linejoin="round"/>
</svg>
